<svg class="main-svg" xmlns="http://www.w3.org/2000/svg" xmlns:xlink="http://www.w3.org/1999/xlink" width="400" height="300" style="" viewBox="0 0 400 300"><rect x="0" y="0" width="400" height="300" style="fill: rgb(255, 255, 255); fill-opacity: 1;"/><defs id="defs-015092"><g class="clips"><clipPath id="clip015092xyplot" class="plotclip"><rect width="230" height="257"/></clipPath><clipPath class="axesclip" id="clip015092x"><rect x="28" y="0" width="230" height="300"/></clipPath><clipPath class="axesclip" id="clip015092y"><rect x="0" y="20" width="400" height="257"/></clipPath><clipPath class="axesclip" id="clip015092xy"><rect x="28" y="20" width="230" height="257"/></clipPath></g><g class="gradients"/><g class="patterns"/></defs><g class="bglayer"><rect class="bg" x="28" y="20" width="230" height="257" style="fill: rgb(0, 0, 0); fill-opacity: 0; stroke-width: 0;"/></g><g class="layer-below"><g class="imagelayer"/><g class="shapelayer"/></g><g class="cartesianlayer"><g class="subplot xy"><g class="layer-subplot"><g class="shapelayer"/><g class="imagelayer"/></g><g class="minor-gridlayer"><g class="x"/><g class="y"/></g><g class="gridlayer"><g class="x"/><g class="y"/></g><g class="zerolinelayer"/><g class="layer-between"><g class="shapelayer"/><g class="imagelayer"/></g><path class="xlines-below"/><path class="ylines-below"/><g class="overlines-below"/><g class="xaxislayer-below"/><g class="yaxislayer-below"/><g class="overaxes-below"/><g class="plot" transform="translate(28,20)" clip-path="url(#clip015092xyplot)"><g class="scatterlayer mlayer"><g class="trace scatter tracebfe8d2" style="stroke-miterlimit: 2; opacity: 1;"><g class="fills"/><g class="errorbars"/><g class="lines"><path class="js-line" d="M0,257L0,73.43L5.48,73.43L5.48,69.56L10.95,69.56L10.95,52.17L16.43,52.17L16.43,44.44L21.9,44.44L21.9,40.58L32.86,40.58L32.86,26.09L38.33,26.09L38.33,20.29L43.81,20.29L43.81,17.39L49.29,17.39L49.29,16.42L54.76,16.42L54.76,7.73L65.71,7.73L65.71,5.8L82.14,5.8L82.14,4.83L98.57,4.83L98.57,3.86L109.52,3.86L109.52,2.9L120.48,2.9L120.48,1.93L136.9,1.93L136.9,0L230,0" style="vector-effect: none; fill: none; stroke: rgb(255, 165, 0); stroke-opacity: 1; stroke-width: 2px; opacity: 1;"/></g><g class="points"/><g class="text"/></g><g class="trace scatter trace32c34b" style="stroke-miterlimit: 2; opacity: 1;"><g class="fills"/><g class="errorbars"/><g class="lines"><path class="js-line" d="M0,257L0.72,248.84L1.44,248.84L2.16,195.81L2.88,195.81L3.59,146.86L4.31,146.86L4.31,138.7L5.75,138.7L6.47,130.54L7.19,130.54L7.91,97.9L8.63,97.9L8.63,65.27L11.5,65.27L12.22,48.95L15.81,48.95L15.81,44.87L17.97,44.87L17.97,40.79L20.84,40.79L20.84,36.71L23,36.71L23,32.63L33.78,32.63L34.5,24.48L57.5,24.48L57.5,20.4L71.16,20.4L71.16,16.32L84.81,16.32L84.81,12.24L90.56,12.24L90.56,8.16L99.91,8.16L99.91,4.08L109.25,4.08L109.25,0L230,0" style="vector-effect: none; fill: none; stroke: rgb(218, 165, 32); stroke-opacity: 1; stroke-width: 2px; opacity: 1;"/></g><g class="points"/><g class="text"/></g><g class="trace scatter trace800c9d" style="stroke-miterlimit: 2; opacity: 1;"><g class="fills"/><g class="errorbars"/><g class="lines"><path class="js-line" d="M0,257L0.56,104.86L0.84,104.86L1.4,60.04L1.96,60.04L2.52,46.05L2.8,46.05L3.36,41.53L3.64,41.53L4.2,38.24L4.48,38.24L4.76,35.36L5.32,35.36L5.6,31.25L6.16,31.25L6.72,26.32L7.56,26.32L8.12,22.62L8.4,22.62L8.96,20.15L10.09,20.15L10.09,19.74L10.93,19.74L11.49,17.68L12.05,17.68L12.05,17.27L13.45,17.27L14.01,14.39L14.29,14.39L14.85,13.16L15.41,13.16L15.41,12.75L16.25,12.75L16.53,11.1L19.89,11.1L20.45,9.46L21.29,9.46L21.57,8.64L22.13,8.64L22.13,8.22L23.81,8.22L23.81,7.81L24.65,7.81L24.65,7.4L25.49,7.4L25.49,6.17L26.33,6.17L26.89,4.93L27.73,4.93L28.01,4.11L28.57,4.11L28.57,3.7L31.1,3.7L31.1,3.29L33.9,3.29L34.46,2.47L45.94,2.47L45.94,2.06L53.51,2.06L53.51,1.64L57.43,1.64L57.43,1.23L59.39,1.23L59.67,0.41L64.99,0.41L64.99,0L230,0" style="vector-effect: none; fill: none; stroke: rgb(128, 0, 128); stroke-opacity: 1; stroke-width: 2px; opacity: 1;"/></g><g class="points"/><g class="text"/></g><g class="trace scatter tracef01ec7" style="stroke-miterlimit: 2; opacity: 1;"><g class="fills"/><g class="errorbars"/><g class="lines"><path class="js-line" d="M0,257L0.74,159.73L0.79,159.73L1.53,120.82L1.58,120.82L2.26,107.51L2.37,107.51L2.95,101.37L3.26,101.37L4,90.1L4.21,90.1L4.95,86.01L5,86.01L5.74,75.77L6.42,75.77L7.16,70.65L7.53,70.65L8.16,64.51L8.32,64.51L8.79,58.36L9.21,58.36L9.64,54.27L10.22,54.27L10.69,50.17L12.16,50.17L12.16,48.12L13.37,48.12L13.9,43L14.43,43L15.06,37.88L17.53,37.88L17.53,36.86L19.27,36.86L20.01,34.81L20.06,34.81L20.06,33.79L21.96,33.79L21.96,32.76L23.06,32.76L23.22,30.72L23.85,30.72L23.85,29.69L25.06,29.69L25.7,27.65L25.85,27.65L25.85,26.62L27.49,26.62L27.49,25.6L28.28,25.6L28.28,24.57L29.65,24.57L29.65,23.55L30.86,23.55L31.33,20.48L34.44,20.48L34.44,19.45L36.86,19.45L36.86,18.43L37.91,18.43L37.91,17.41L42.02,17.41L42.02,16.38L43.6,16.38L43.6,15.36L50.13,15.36L50.13,14.33L52.02,14.33L52.02,13.31L60.5,13.31L60.5,12.29L61.5,12.29L61.5,11.26L73.24,11.26L73.24,10.24L75.72,10.24L75.72,9.22L77.35,9.22L77.35,8.19L81.56,8.19L81.56,7.17L87.78,7.17L87.78,6.14L99.47,6.14L99.47,5.12L110.26,5.12L110.26,4.1L122.21,4.1L122.21,3.07L131.01,3.07L131.01,2.05L161.71,2.05L161.71,1.02L172.34,1.02L172.34,0L230,0" style="vector-effect: none; fill: none; stroke: rgb(169, 169, 169); stroke-opacity: 1; stroke-width: 2px; opacity: 1;"/></g><g class="points"/><g class="text"/></g><g class="trace scatter trace0d7c43" style="stroke-miterlimit: 2; opacity: 1;"><g class="fills"/><g class="errorbars"/><g class="lines"><path class="js-line" d="M0,257L0.68,220.29L0.76,220.29L1.42,193.58L1.52,193.58L2.26,171.89L2.43,171.89L2.97,165.21L3.39,165.21L4.13,155.2L4.15,155.2L4.89,143.52L5.14,143.52L5.79,133.51L6.36,133.51L6.91,128.5L7.36,128.5L8.04,121.82L8.25,121.82L8.6,118.49L9.79,118.49L10.44,108.47L10.6,108.47L11.34,101.8L11.51,101.8L11.93,98.46L13.23,98.46L13.75,93.45L14.59,93.45L15.33,86.78L15.36,86.78L15.96,81.77L16.24,81.77L16.24,80.1L17.54,80.1L17.54,78.44L18.49,78.44L19.14,71.76L19.41,71.76L19.92,66.75L20.62,66.75L21.05,61.75L23.62,61.75L23.85,58.41L25.94,58.41L26.07,55.07L26.98,55.07L27.33,51.73L28.25,51.73L28.87,48.4L31.64,48.4L31.64,46.73L32.87,46.73L33.29,43.39L34.02,43.39L34.02,41.72L35.01,41.72L35.64,36.71L36.97,36.71L36.97,35.05L38.44,35.05L38.44,33.38L40.67,33.38L40.67,31.71L44.24,31.71L44.24,30.04L46.28,30.04L46.28,28.37L55.58,28.37L55.58,26.7L58.58,26.7L58.58,25.03L60.13,25.03L60.13,23.36L62.82,23.36L64.18,23.36L64.18,21.69L67.99,21.69L67.99,20.03L68.93,20.03L68.93,18.36L70.2,18.36L70.2,16.69L71.7,16.69L71.7,15.02L75.92,15.02L75.92,13.35L77.33,13.35L77.33,11.68L77.55,11.68L77.55,10.01L81.94,10.01L81.94,8.34L87,8.34L87,6.68L87.2,6.68L87.2,5.01L99.41,5.01L99.41,3.34L111.07,3.34L111.07,1.67L182.04,1.67L182.04,0L230,0" style="vector-effect: none; fill: none; stroke: rgb(34, 139, 34); stroke-opacity: 1; stroke-width: 2px; opacity: 1;"/></g><g class="points"/><g class="text"/></g><g class="trace scatter trace86ba28" style="stroke-miterlimit: 2; opacity: 1;"><g class="fills"/><g class="errorbars"/><g class="lines"><path class="js-line" d="M0,257L0.61,214.81L0.81,214.81L1.2,195.63L2.53,195.63L3.27,176.45L3.36,176.45L3.96,161.1L4.24,161.1L4.24,157.27L5.6,157.27L5.6,153.43L6.84,153.43L7.22,145.76L10.04,145.76L10.58,134.25L11.64,134.25L12.19,122.75L13.79,122.75L13.86,115.07L14.6,115.07L14.6,111.24L17.43,111.24L17.43,107.4L23.08,107.4L23.27,99.73L25.45,99.73L26,92.06L27.59,92.06L27.59,88.22L28.53,88.22L28.53,84.39L31.24,84.39L31.24,80.55L32.14,80.55L32.27,76.72L35.41,76.72L36.05,76.72L36.05,72.88L48.83,72.88L48.83,69.04L50.29,69.04L50.29,65.21L51.89,65.21L51.89,61.37L64.99,61.37L64.99,57.54L66.21,57.54L66.21,53.7L74.73,53.7L74.73,49.87L75.09,49.87L75.09,46.03L80.97,46.03L80.97,42.19L84.47,42.19L84.47,38.36L86.45,38.36L86.45,34.52L87.21,34.52L87.21,30.69L92.33,30.69L92.33,26.85L107.14,26.85L107.14,23.01L115.02,23.01L115.02,19.18L117.41,19.18L117.41,15.34L137.36,15.34L137.36,11.51L148.88,11.51L148.88,7.67L192.78,7.67L192.78,3.84L194.62,3.84L194.62,0L230,0" style="vector-effect: none; fill: none; stroke: rgb(0, 0, 128); stroke-opacity: 1; stroke-width: 2px; opacity: 1;"/></g><g class="points"/><g class="text"/></g><g class="trace scatter traced3819b" style="stroke-miterlimit: 2; opacity: 1;"><g class="fills"/><g class="errorbars"/><g class="lines"><path class="js-line" d="M0,257L230,0" style="vector-effect: none; fill: none; stroke: rgb(0, 0, 0); stroke-opacity: 1; stroke-dasharray: 3px, 3px; stroke-width: 2px; opacity: 1;"/></g><g class="points"/><g class="text"/></g></g></g><g class="overplot"/><path class="xlines-above crisp" d="M27.5,277.25H258" style="fill: none; stroke-width: 0.5px; stroke: rgb(0, 0, 0); stroke-opacity: 1;"/><path class="ylines-above crisp" d="M27.75,20V277" style="fill: none; stroke-width: 0.5px; stroke: rgb(0, 0, 0); stroke-opacity: 1;"/><g class="overlines-above"/><g class="xaxislayer-above"><path class="xtick ticks crisp" d="M0,277.5v5" transform="translate(28,0)" style="stroke: rgb(68, 68, 68); stroke-opacity: 1; stroke-width: 1px;"/><path class="xtick ticks crisp" d="M0,277.5v5" transform="translate(74,0)" style="stroke: rgb(68, 68, 68); stroke-opacity: 1; stroke-width: 1px;"/><path class="xtick ticks crisp" d="M0,277.5v5" transform="translate(120,0)" style="stroke: rgb(68, 68, 68); stroke-opacity: 1; stroke-width: 1px;"/><path class="xtick ticks crisp" d="M0,277.5v5" transform="translate(166,0)" style="stroke: rgb(68, 68, 68); stroke-opacity: 1; stroke-width: 1px;"/><path class="xtick ticks crisp" d="M0,277.5v5" transform="translate(212,0)" style="stroke: rgb(68, 68, 68); stroke-opacity: 1; stroke-width: 1px;"/><path class="xtick ticks crisp" d="M0,277.5v5" transform="translate(258,0)" style="stroke: rgb(68, 68, 68); stroke-opacity: 1; stroke-width: 1px;"/><g class="xtick"><text text-anchor="middle" x="0" y="296.9" transform="translate(28,0)" style="font-family: Helvetica; font-size: 12px; fill: rgb(0, 0, 0); fill-opacity: 1; white-space: pre; opacity: 1;">0</text></g><g class="xtick"><text text-anchor="middle" x="0" y="296.9" style="font-family: Helvetica; font-size: 12px; fill: rgb(0, 0, 0); fill-opacity: 1; white-space: pre; opacity: 1;" transform="translate(74,0)">0.2</text></g><g class="xtick"><text text-anchor="middle" x="0" y="296.9" style="font-family: Helvetica; font-size: 12px; fill: rgb(0, 0, 0); fill-opacity: 1; white-space: pre; opacity: 1;" transform="translate(120,0)">0.4</text></g><g class="xtick"><text text-anchor="middle" x="0" y="296.9" style="font-family: Helvetica; font-size: 12px; fill: rgb(0, 0, 0); fill-opacity: 1; white-space: pre; opacity: 1;" transform="translate(166,0)">0.6</text></g><g class="xtick"><text text-anchor="middle" x="0" y="296.9" style="font-family: Helvetica; font-size: 12px; fill: rgb(0, 0, 0); fill-opacity: 1; white-space: pre; opacity: 1;" transform="translate(212,0)">0.8</text></g><g class="xtick"><text text-anchor="middle" x="0" y="296.9" style="font-family: Helvetica; font-size: 12px; fill: rgb(0, 0, 0); fill-opacity: 1; white-space: pre; opacity: 1;" transform="translate(258,0)">1</text></g></g><g class="yaxislayer-above"><path class="ytick ticks crisp" d="M27.5,0h-5" transform="translate(0,277)" style="stroke: rgb(68, 68, 68); stroke-opacity: 1; stroke-width: 1px;"/><path class="ytick ticks crisp" d="M27.5,0h-5" transform="translate(0,225.6)" style="stroke: rgb(68, 68, 68); stroke-opacity: 1; stroke-width: 1px;"/><path class="ytick ticks crisp" d="M27.5,0h-5" transform="translate(0,174.2)" style="stroke: rgb(68, 68, 68); stroke-opacity: 1; stroke-width: 1px;"/><path class="ytick ticks crisp" d="M27.5,0h-5" transform="translate(0,122.8)" style="stroke: rgb(68, 68, 68); stroke-opacity: 1; stroke-width: 1px;"/><path class="ytick ticks crisp" d="M27.5,0h-5" transform="translate(0,71.4)" style="stroke: rgb(68, 68, 68); stroke-opacity: 1; stroke-width: 1px;"/><path class="ytick ticks crisp" d="M27.5,0h-5" transform="translate(0,20)" style="stroke: rgb(68, 68, 68); stroke-opacity: 1; stroke-width: 1px;"/><g class="ytick"><text text-anchor="end" x="20.1" y="4.199999999999999" transform="translate(0,277)" style="font-family: Helvetica; font-size: 12px; fill: rgb(0, 0, 0); fill-opacity: 1; white-space: pre; opacity: 1;">0</text></g><g class="ytick"><text text-anchor="end" x="20.1" y="4.199999999999999" style="font-family: Helvetica; font-size: 12px; fill: rgb(0, 0, 0); fill-opacity: 1; white-space: pre; opacity: 1;" transform="translate(0,225.6)">0.2</text></g><g class="ytick"><text text-anchor="end" x="20.1" y="4.199999999999999" style="font-family: Helvetica; font-size: 12px; fill: rgb(0, 0, 0); fill-opacity: 1; white-space: pre; opacity: 1;" transform="translate(0,174.2)">0.4</text></g><g class="ytick"><text text-anchor="end" x="20.1" y="4.199999999999999" style="font-family: Helvetica; font-size: 12px; fill: rgb(0, 0, 0); fill-opacity: 1; white-space: pre; opacity: 1;" transform="translate(0,122.8)">0.6</text></g><g class="ytick"><text text-anchor="end" x="20.1" y="4.199999999999999" style="font-family: Helvetica; font-size: 12px; fill: rgb(0, 0, 0); fill-opacity: 1; white-space: pre; opacity: 1;" transform="translate(0,71.4)">0.8</text></g><g class="ytick"><text text-anchor="end" x="20.1" y="4.199999999999999" style="font-family: Helvetica; font-size: 12px; fill: rgb(0, 0, 0); fill-opacity: 1; white-space: pre; opacity: 1;" transform="translate(0,20)">1</text></g></g><g class="overaxes-above"/></g></g><g class="polarlayer"/><g class="smithlayer"/><g class="ternarylayer"/><g class="geolayer"/><g class="funnelarealayer"/><g class="pielayer"/><g class="iciclelayer"/><g class="treemaplayer"/><g class="sunburstlayer"/><g class="glimages"/><defs id="topdefs-015092"><g class="clips"/><clipPath id="legend015092"><rect width="137" height="143" x="0" y="0"/></clipPath></defs><g class="layer-above"><g class="imagelayer"/><g class="shapelayer"/></g><g class="infolayer"><g class="legend" pointer-events="all" transform="translate(262.6,20)"><rect class="bg" shape-rendering="crispEdges" style="stroke: rgb(68, 68, 68); stroke-opacity: 1; fill: rgb(255, 255, 255); fill-opacity: 1; stroke-width: 0px;" width="137" height="143" x="0" y="0"/><g class="scrollbox" transform="" clip-path="url(#legend015092)"><g class="groups"><g class="traces" transform="translate(0,14.5)" style="opacity: 1;"><text class="legendtext" text-anchor="start" x="40" y="4.680000000000001" style="font-family: Helvetica; font-size: 12px; fill: rgb(0, 0, 0); fill-opacity: 1; white-space: pre;">fiveUTR</text><g class="layers" style="opacity: 1;"><g class="legendfill"/><g class="legendlines"><path class="js-line" d="M5,0h30" style="fill: none; stroke: rgb(255, 165, 0); stroke-opacity: 1; stroke-width: 2px;"/></g><g class="legendsymbols"><g class="legendpoints"/></g></g><rect class="legendtoggle" x="0" y="-9.5" width="132" height="19" style="fill: rgb(0, 0, 0); fill-opacity: 0;"/></g><g class="traces" transform="translate(0,33.5)" style="opacity: 1;"><text class="legendtext" text-anchor="start" x="40" y="4.680000000000001" style="font-family: Helvetica; font-size: 12px; fill: rgb(0, 0, 0); fill-opacity: 1; white-space: pre;">threeUTR</text><g class="layers" style="opacity: 1;"><g class="legendfill"/><g class="legendlines"><path class="js-line" d="M5,0h30" style="fill: none; stroke: rgb(218, 165, 32); stroke-opacity: 1; stroke-width: 2px;"/></g><g class="legendsymbols"><g class="legendpoints"/></g></g><rect class="legendtoggle" x="0" y="-9.5" width="132" height="19" style="fill: rgb(0, 0, 0); fill-opacity: 0;"/></g><g class="traces" transform="translate(0,52.5)" style="opacity: 1;"><text class="legendtext" text-anchor="start" x="40" y="4.680000000000001" style="font-family: Helvetica; font-size: 12px; fill: rgb(0, 0, 0); fill-opacity: 1; white-space: pre;">CDS_frameshift</text><g class="layers" style="opacity: 1;"><g class="legendfill"/><g class="legendlines"><path class="js-line" d="M5,0h30" style="fill: none; stroke: rgb(128, 0, 128); stroke-opacity: 1; stroke-width: 2px;"/></g><g class="legendsymbols"><g class="legendpoints"/></g></g><rect class="legendtoggle" x="0" y="-9.5" width="132" height="19" style="fill: rgb(0, 0, 0); fill-opacity: 0;"/></g><g class="traces" transform="translate(0,71.5)" style="opacity: 1;"><text class="legendtext" text-anchor="start" x="40" y="4.680000000000001" style="font-family: Helvetica; font-size: 12px; fill: rgb(0, 0, 0); fill-opacity: 1; white-space: pre;">lncRNA</text><g class="layers" style="opacity: 1;"><g class="legendfill"/><g class="legendlines"><path class="js-line" d="M5,0h30" style="fill: none; stroke: rgb(169, 169, 169); stroke-opacity: 1; stroke-width: 2px;"/></g><g class="legendsymbols"><g class="legendpoints"/></g></g><rect class="legendtoggle" x="0" y="-9.5" width="132" height="19" style="fill: rgb(0, 0, 0); fill-opacity: 0;"/></g><g class="traces" transform="translate(0,90.5)" style="opacity: 1;"><text class="legendtext" text-anchor="start" x="40" y="4.680000000000001" style="font-family: Helvetica; font-size: 12px; fill: rgb(0, 0, 0); fill-opacity: 1; white-space: pre;">intronic</text><g class="layers" style="opacity: 1;"><g class="legendfill"/><g class="legendlines"><path class="js-line" d="M5,0h30" style="fill: none; stroke: rgb(34, 139, 34); stroke-opacity: 1; stroke-width: 2px;"/></g><g class="legendsymbols"><g class="legendpoints"/></g></g><rect class="legendtoggle" x="0" y="-9.5" width="132" height="19" style="fill: rgb(0, 0, 0); fill-opacity: 0;"/></g><g class="traces" transform="translate(0,109.5)" style="opacity: 1;"><text class="legendtext" text-anchor="start" x="40" y="4.680000000000001" style="font-family: Helvetica; font-size: 12px; fill: rgb(0, 0, 0); fill-opacity: 1; white-space: pre;">intergenic</text><g class="layers" style="opacity: 1;"><g class="legendfill"/><g class="legendlines"><path class="js-line" d="M5,0h30" style="fill: none; stroke: rgb(0, 0, 128); stroke-opacity: 1; stroke-width: 2px;"/></g><g class="legendsymbols"><g class="legendpoints"/></g></g><rect class="legendtoggle" x="0" y="-9.5" width="132" height="19" style="fill: rgb(0, 0, 0); fill-opacity: 0;"/></g><g class="traces" transform="translate(0,128.5)" style="opacity: 1;"><text class="legendtext" text-anchor="start" x="40" y="4.680000000000001" style="font-family: Helvetica; font-size: 12px; fill: rgb(0, 0, 0); fill-opacity: 1; white-space: pre;">baseline</text><g class="layers" style="opacity: 1;"><g class="legendfill"/><g class="legendlines"><path class="js-line" d="M5,0h30" style="fill: none; stroke: rgb(0, 0, 0); stroke-opacity: 1; stroke-dasharray: 3px, 3px; stroke-width: 2px;"/></g><g class="legendsymbols"><g class="legendpoints"/></g></g><rect class="legendtoggle" x="0" y="-9.5" width="132" height="19" style="fill: rgb(0, 0, 0); fill-opacity: 0;"/></g></g></g><rect class="scrollbar" rx="20" ry="3" width="0" height="0" style="fill: rgb(128, 139, 164); fill-opacity: 1;" x="0" y="0"/></g><g class="g-gtitle"/><g class="g-xtitle"/><g class="g-ytitle"/></g></svg>