<svg class="main-svg" xmlns="http://www.w3.org/2000/svg" xmlns:xlink="http://www.w3.org/1999/xlink" width="400" height="300" style="" viewBox="0 0 400 300"><rect x="0" y="0" width="400" height="300" style="fill: rgb(255, 255, 255); fill-opacity: 1;"/><defs id="defs-40f64e"><g class="clips"><clipPath id="clip40f64exyplot" class="plotclip"><rect width="230" height="257"/></clipPath><clipPath class="axesclip" id="clip40f64ex"><rect x="28" y="0" width="230" height="300"/></clipPath><clipPath class="axesclip" id="clip40f64ey"><rect x="0" y="20" width="400" height="257"/></clipPath><clipPath class="axesclip" id="clip40f64exy"><rect x="28" y="20" width="230" height="257"/></clipPath></g><g class="gradients"/><g class="patterns"/></defs><g class="bglayer"><rect class="bg" x="28" y="20" width="230" height="257" style="fill: rgb(0, 0, 0); fill-opacity: 0; stroke-width: 0;"/></g><g class="layer-below"><g class="imagelayer"/><g class="shapelayer"/></g><g class="cartesianlayer"><g class="subplot xy"><g class="layer-subplot"><g class="shapelayer"/><g class="imagelayer"/></g><g class="minor-gridlayer"><g class="x"/><g class="y"/></g><g class="gridlayer"><g class="x"/><g class="y"/></g><g class="zerolinelayer"/><g class="layer-between"><g class="shapelayer"/><g class="imagelayer"/></g><path class="xlines-below"/><path class="ylines-below"/><g class="overlines-below"/><g class="xaxislayer-below"/><g class="yaxislayer-below"/><g class="overaxes-below"/><g class="plot" transform="translate(28,20)" clip-path="url(#clip40f64exyplot)"><g class="scatterlayer mlayer"><g class="trace scatter trace7945b6" style="stroke-miterlimit: 2; opacity: 1;"><g class="fills"/><g class="errorbars"/><g class="lines"><path class="js-line" d="M0,257L0,92.04L1.56,92.04L1.56,59.92L3.13,59.92L3.13,54.87L4.69,54.87L4.69,52.34L6.26,52.34L6.26,50.89L9.39,50.89L9.39,45.84L10.95,45.84L10.95,45.12L12.52,45.12L12.52,44.4L14.08,44.4L14.08,42.59L15.65,42.59L15.65,42.23L17.21,42.23L17.21,38.26L18.78,38.26L18.78,37.9L20.34,37.9L20.34,37.18L21.9,37.18L21.9,34.29L25.03,34.29L25.03,32.85L26.6,32.85L26.6,31.4L28.16,31.4L28.16,30.32L29.73,30.32L29.73,24.54L32.86,24.54L32.86,22.38L35.99,22.38L35.99,20.94L37.55,20.94L37.55,20.57L39.12,20.57L39.12,18.05L40.68,18.05L40.68,17.33L42.24,17.33L42.24,16.6L48.5,16.6L48.5,16.24L50.07,16.24L50.07,14.44L51.63,14.44L51.63,14.08L53.2,14.08L53.2,12.99L54.76,12.99L54.76,12.63L56.33,12.63L56.33,12.27L64.15,12.27L64.15,11.55L65.71,11.55L65.71,11.19L67.28,11.19L67.28,10.11L68.84,10.11L68.84,9.38L70.41,9.38L70.41,9.02L79.8,9.02L79.8,7.94L81.36,7.94L81.36,7.58L84.49,7.58L84.49,7.22L90.75,7.22L90.75,6.5L92.31,6.5L92.31,6.14L95.44,6.14L95.44,5.78L97.01,5.78L97.01,5.41L109.52,5.41L109.52,5.05L111.09,5.05L111.09,4.69L115.78,4.69L115.78,4.33L117.35,4.33L117.35,3.61L118.91,3.61L118.91,3.25L123.61,3.25L123.61,2.89L125.17,2.89L125.17,2.53L143.95,2.53L143.95,2.17L145.51,2.17L145.51,1.8L150.2,1.8L150.2,1.44L151.77,1.44L151.77,1.08L154.9,1.08L154.9,0.72L164.29,0.72L164.29,0.36L204.97,0.36L204.97,0L230,0" style="vector-effect: none; fill: none; stroke: rgb(255, 165, 0); stroke-opacity: 1; stroke-width: 2px; opacity: 1;"/></g><g class="points"/><g class="text"/></g><g class="trace scatter trace332cf0" style="stroke-miterlimit: 2; opacity: 1;"><g class="fills"/><g class="errorbars"/><g class="lines"><path class="js-line" d="M0,257L0.62,195.54L1.04,195.54L1.66,180.64L1.87,180.64L2.6,152.71L2.7,152.71L3.01,147.12L3.53,147.12L3.64,137.81L4.36,137.81L4.99,128.5L5.71,128.5L6.13,113.6L6.96,113.6L7.17,109.88L8.73,109.88L9.35,100.57L9.87,100.57L10.6,94.98L13.3,94.98L13.5,91.25L15.27,91.25L16,87.53L16.93,87.53L17.35,81.94L19.53,81.94L19.53,80.08L21.61,80.08L22.13,72.63L23.37,72.63L23.37,70.77L25.56,70.77L25.97,65.18L28.88,65.18L28.98,59.59L30.13,59.59L30.13,57.73L31.89,57.73L31.89,55.87L33.14,55.87L33.14,52.14L34.28,52.14L34.28,50.28L35.11,50.28L35.11,48.42L37.09,48.42L37.09,46.56L38.44,46.56L38.44,44.7L40.31,44.7L40.72,40.97L42.18,40.97L42.18,39.11L44.25,39.11L44.25,37.25L48.72,37.25L48.72,35.38L51.11,35.38L51.11,33.52L54.33,33.52L54.33,31.66L56.2,31.66L56.2,29.8L66.07,29.8L66.07,27.93L68.46,27.93L68.46,26.07L83.42,26.07L83.42,24.21L95.57,24.21L95.57,22.35L97.03,22.35L97.03,20.49L102.74,20.49L102.74,18.62L110.64,18.62L110.64,16.76L113.03,16.76L113.03,14.9L114.79,14.9L114.79,13.04L127.36,13.04L127.36,11.17L132.66,11.17L132.66,9.31L149.91,9.31L149.91,7.45L153.64,7.45L153.64,5.59L176.92,5.59L176.92,3.72L207.15,3.72L207.15,1.86L211.82,1.86L211.82,0L230,0" style="vector-effect: none; fill: none; stroke: rgb(218, 165, 32); stroke-opacity: 1; stroke-width: 2px; opacity: 1;"/></g><g class="points"/><g class="text"/></g><g class="trace scatter trace9074db" style="stroke-miterlimit: 2; opacity: 1;"><g class="fills"/><g class="errorbars"/><g class="lines"><path class="js-line" d="M0,257L0.74,149.47L0.78,149.47L1.52,127.34L1.57,127.34L2.3,97.17L2.35,97.17L3.08,73.96L3.13,73.96L3.87,63.75L3.91,63.75L4.6,55.55L4.7,55.55L5.34,46.11L5.57,46.11L6.31,41.31L6.35,41.31L7.09,35.74L7.14,35.74L7.87,31.41L7.92,31.41L8.65,28.78L8.79,28.78L9.53,26.15L9.58,26.15L10.31,24.6L10.36,24.6L11,23.67L11.23,23.67L11.88,21.66L12.02,21.66L13.07,19.96L13.21,19.96L13.9,18.72L14.04,18.72L14.64,16.71L14.92,16.71L15.65,15.47L15.84,15.47L16.44,14.85L16.67,14.85L17.17,13.93L17.63,13.93L18.14,13.46L18.97,13.46L19.52,12.69L20.07,12.69L20.16,11.91L21.13,11.91L21.87,11.45L22.24,11.45L24.63,10.06L24.63,9.9L25.92,9.44L25.92,9.13L27.94,8.66L27.94,8.36L32.5,7.74L32.5,7.58L35.91,6.96L35.91,6.81L43.27,6.19L43.27,6.03L43.69,5.72L44.2,5.72L45.25,5.26L47.69,5.26L53.03,3.71L54.14,3.71L54.42,3.4L56.26,3.4L56.35,3.09L57.45,3.09L90.6,1.39L99.99,1.39L131.34,0.31L145.98,0.31L145.98,0.15L147.55,0.15L230,0" style="vector-effect: none; fill: none; stroke: rgb(128, 0, 128); stroke-opacity: 1; stroke-width: 2px; opacity: 1;"/></g><g class="points"/><g class="text"/></g><g class="trace scatter tracee57698" style="stroke-miterlimit: 2; opacity: 1;"><g class="fills"/><g class="errorbars"/><g class="lines"><path class="js-line" d="M0,257L0.75,156.12L0.8,156.12L1.54,125.53L1.57,125.53L2.31,104.08L2.42,104.08L3.14,95.4L3.23,95.4L3.96,86.28L3.99,86.28L4.73,79.88L4.78,79.88L5.33,75.78L5.6,75.78L6.34,66.19L6.37,66.19L6.62,63.45L7.2,63.45L7.89,58.43L7.98,58.43L8.73,53.87L8.94,53.87L9.46,50.67L9.91,50.67L10.26,49.3L11.03,49.3L11.71,47.02L11.89,47.02L12.38,45.19L12.83,45.19L13.51,43.37L13.59,43.37L14.26,40.63L14.74,40.63L15.39,39.26L15.68,39.26L16.14,37.43L16.69,37.43L17.27,35.61L18.33,35.61L18.73,33.78L20.42,33.78L20.67,32.41L21.62,32.41L22.14,31.04L23.62,31.04L24.09,30.13L24.43,30.13L24.9,29.21L25.78,29.21L26.33,27.85L26.75,27.85L27.16,26.93L29.57,26.93L30.32,24.65L30.92,24.65L30.92,24.19L32.54,24.19L32.54,23.74L35.55,23.74L36.19,22.82L36.37,22.82L37,21.45L37.17,21.45L37.17,21L40.13,21L40.44,20.09L42.32,20.09L42.93,19.17L43.41,19.17L43.92,18.26L45.36,18.26L45.36,17.8L47.61,17.8L47.61,17.35L49.12,17.35L49.12,16.89L52.07,16.89L52.07,16.43L52.95,16.43L55.53,15.98L55.53,15.52L56.59,15.06L56.59,14.61L57.55,14.15L57.55,13.69L58.54,13.24L58.54,12.78L61.72,12.33L61.72,11.87L61.77,11.41L63.87,11.41L63.87,10.96L66.06,10.96L66.06,10.5L66.98,10.5L66.98,10.04L68.36,10.04L68.62,9.13L69.35,9.13L69.35,8.67L69.68,8.67L70.39,8.67L70.39,8.22L74.56,8.22L74.56,7.76L77.15,7.76L79.12,7.3L79.12,6.85L85.94,6.39L85.94,5.93L102.52,5.48L102.52,5.02L115.17,4.56L115.17,4.11L125.42,3.65L125.42,3.2L129.99,2.74L129.99,2.28L130.13,1.83L131.93,1.83L131.93,1.37L133.56,1.37L138.26,0.91L138.26,0.46L230,0" style="vector-effect: none; fill: none; stroke: rgb(169, 169, 169); stroke-opacity: 1; stroke-width: 2px; opacity: 1;"/></g><g class="points"/><g class="text"/></g><g class="trace scatter trace8b4f29" style="stroke-miterlimit: 2; opacity: 1;"><g class="fills"/><g class="errorbars"/><g class="lines"><path class="js-line" d="M0,257L0.75,201.19L0.79,201.19L1.53,184.55L1.57,184.55L2.32,173.78L2.34,173.78L3.09,164.48L3.17,164.48L3.92,155.18L3.98,155.18L4.7,146.37L4.79,146.37L5.52,135.6L5.55,135.6L6.22,128.74L6.33,128.74L7.06,123.36L7.13,123.36L7.78,120.91L8.12,120.91L8.71,116.51L9.02,116.51L9.75,111.61L9.81,111.61L10.51,106.23L10.68,106.23L11.37,102.31L11.56,102.31L12.21,98.39L12.36,98.39L12.79,95.46L13.51,95.46L14.12,92.52L14.31,92.52L15.06,89.09L15.25,89.09L15.87,87.14L16.1,87.14L16.71,85.67L16.96,85.67L17.58,84.2L18.24,84.2L18.81,81.75L19.11,81.75L19.53,79.79L20,79.79L20.65,76.37L21.13,76.37L21.85,72.94L22.24,72.94L22.25,71.96L22.46,71.96L23.29,71.96L23.69,70.98L23.78,70.98L24.33,70.98L24.7,70L24.82,70L25.41,70L25.8,68.04L26.17,68.04L26.84,65.11L27.3,65.11L27.93,63.15L28.12,63.15L28.34,62.17L28.63,62.17L29.4,62.17L30.15,60.7L30.2,60.7L30.68,57.76L31.02,57.76L31.44,56.78L32.31,56.78L32.88,55.32L33.07,55.32L33.47,54.34L33.81,54.34L33.89,54.34L34.43,51.4L35.47,51.4L35.47,50.91L35.97,50.91L36.56,50.91L36.98,49.44L37.37,49.44L37.37,48.95L37.75,48.95L38.34,48.95L39.08,46.5L39.1,46.5L39.83,44.06L40.12,44.06L40.4,43.08L41.3,43.08L41.74,40.63L41.78,40.63L42.39,40.63L42.52,39.16L42.96,39.16L43.2,39.16L43.84,37.69L44.03,37.69L44.65,36.71L45.19,36.71L46.35,36.22L46.35,35.74L47.98,35.25L47.98,34.76L50.33,34.27L50.33,33.78L50.89,33.29L50.89,32.8L52.46,32.31L52.46,31.82L54.59,31.33L54.59,30.84L54.63,30.35L55.5,30.35L58.6,29.86L58.6,29.37L62.1,28.88L62.1,28.39L62.82,27.9L62.82,27.41L64.01,26.92L64.01,26.43L64.1,25.94L65.34,25.94L68.92,25.46L68.92,24.97L71.65,24.48L71.65,23.99L74.74,23.5L74.74,23.01L76.46,22.52L76.46,22.03L78.27,22.03L78.27,21.05L80.43,20.56L80.43,20.07L84.45,19.58L84.45,19.09L91.87,18.6L91.87,18.11L94.52,17.62L94.52,17.13L95.53,16.64L95.53,16.15L98.72,15.66L98.72,15.18L102.63,14.69L102.63,14.2L107.62,13.71L107.62,13.22L111.62,12.73L111.62,12.24L112.67,11.75L112.67,11.26L116.05,10.77L116.05,10.28L120,9.79L120,9.3L126.27,8.81L126.27,8.32L128.92,7.83L128.92,7.34L134.92,6.85L134.92,6.36L142.85,5.87L142.85,5.38L144.76,4.9L144.76,4.41L150.73,3.92L150.73,3.43L167.2,2.94L167.2,2.45L181.42,1.96L181.42,1.47L182.12,0.98L182.38,0.98L228.12,0.49L228.12,0L230,0" style="vector-effect: none; fill: none; stroke: rgb(34, 139, 34); stroke-opacity: 1; stroke-width: 2px; opacity: 1;"/></g><g class="points"/><g class="text"/></g><g class="trace scatter traceb97ec6" style="stroke-miterlimit: 2; opacity: 1;"><g class="fills"/><g class="errorbars"/><g class="lines"><path class="js-line" d="M0,257L1.05,233.43L1.15,233.43L1.88,219.74L1.91,219.74L2.41,214.42L2.74,214.42L3.48,202.25L3.56,202.25L4.22,198.45L4.47,198.45L5,192.37L5.09,192.37L5.3,192.37L6.01,182.49L6.09,182.49L6.33,182.49L6.33,181.72L6.68,181.72L6.68,180.96L6.93,180.96L6.93,180.2L8.83,164.24L8.83,164.24L8.96,164.24L9.6,158.91L9.84,158.91L10.56,152.83L10.71,152.83L11.38,149.03L11.55,149.03L11.81,149.03L11.81,148.27L12.22,148.27L12.22,147.51L12.75,145.23L12.75,145.23L13.31,145.23L14.02,141.43L14.1,141.43L14.69,138.38L15.08,138.38L15.57,135.34L15.72,135.34L15.92,135.34L16.43,130.78L16.72,130.78L16.87,130.78L16.87,130.02L17.33,128.5L17.89,128.5L18.34,126.98L18.61,126.98L18.67,126.98L18.98,126.98L18.98,126.22L19.2,126.22L19.2,125.46L19.81,123.18L20.15,123.18L20.72,120.9L20.99,120.9L21.77,119.38L21.96,119.38L23.01,114.05L23.17,114.05L23.77,110.25L23.93,110.25L23.93,109.49L24.18,109.49L24.8,109.49L25.5,105.69L25.62,105.69L25.87,104.17L26.13,104.17L26.41,104.17L27.42,101.13L27.77,101.13L28.42,101.13L28.42,100.37L28.6,100.37L28.6,99.61L29.7,95.8L29.89,95.8L30.73,95.8L30.73,95.04L31.67,95.04L31.67,94.28L31.87,94.28L31.87,93.52L32.03,93.52L32.03,92.76L33.02,92.76L33.02,92L34.47,88.2L34.47,88.2L34.71,88.2L35.08,86.68L35.56,86.68L36.47,82.88L36.73,82.88L36.94,81.36L37.31,81.36L37.53,81.36L39.08,81.36L39.08,80.6L39.86,78.32L39.86,78.32L40.17,78.32L40.77,78.32L40.77,77.56L41.34,77.56L41.34,76.8L42.31,73.75L42.31,73.75L42.44,73.75L43.87,73.75L43.87,72.99L44.24,72.99L44.24,72.23L45.28,72.23L45.28,71.47L45.95,71.47L45.95,70.71L46.14,70.71L46.14,69.95L47.66,69.95L47.66,69.19L48.08,69.19L48.08,68.43L49.1,65.39L49.1,65.39L49.3,65.39L49.74,65.39L49.74,64.63L50.56,64.63L50.56,63.87L51.91,63.87L51.91,63.11L52.42,63.11L52.42,62.35L52.94,62.35L52.94,61.59L53.28,61.59L53.28,60.83L54.94,60.83L54.94,60.07L55.49,60.07L55.49,59.31L56.08,59.31L56.08,58.55L56.76,58.55L56.76,57.79L57.04,57.79L57.04,57.03L58.81,57.03L58.81,56.27L59.01,56.27L59.01,55.51L60.52,51.7L60.52,51.7L60.62,51.7L62.35,51.7L62.35,50.94L62.76,50.94L62.76,50.18L63.58,50.18L63.58,49.42L64.68,49.42L64.68,48.66L65.06,48.66L65.06,47.9L65.59,47.9L65.59,47.14L68.51,47.14L68.51,46.38L70.99,46.38L70.99,45.62L71.54,45.62L71.54,44.86L72.68,44.86L72.68,44.86L72.68,44.1L72.85,44.1L72.85,43.34L73.51,43.34L73.51,42.58L75.05,42.58L75.05,41.82L75.38,41.82L75.38,41.06L76.88,41.06L76.88,40.3L77.14,40.3L77.14,39.54L78.22,39.54L78.22,38.78L78.64,38.02L79.17,38.02L82.06,38.02L82.06,37.26L82.47,37.26L82.47,36.5L83.49,36.5L83.49,35.74L84.36,35.74L84.36,34.98L85.03,33.46L85.03,33.46L85.35,33.46L93.54,33.46L93.54,32.7L94.18,32.7L94.18,31.93L95.03,31.93L95.03,31.17L95.84,31.17L95.84,30.41L96.43,30.41L96.43,29.65L97.57,29.65L97.57,28.89L98.67,28.89L98.67,28.13L100.99,28.13L100.99,28.13L100.99,27.37L101.41,26.61L101.41,26.61L102.01,26.61L102.74,25.85L102.74,25.85L102.95,25.85L102.95,25.09L103.61,25.09L103.89,25.09L104.05,25.09L104.05,24.33L104.94,22.81L105.05,22.81L110.47,22.81L110.47,22.05L110.67,22.05L110.67,21.29L112.62,21.29L112.62,20.53L113.73,20.53L113.73,19.77L121.03,19.77L121.03,19.01L124.65,19.01L124.65,18.25L127.43,18.25L127.43,18.25L127.43,17.49L132,17.49L132,16.73L133.14,16.73L133.14,15.97L133.42,15.97L133.42,15.97L133.42,15.21L138.61,15.21L138.61,14.45L139.77,14.45L139.77,13.69L148.51,13.69L148.51,12.93L150.1,12.93L150.1,12.17L151.41,12.17L151.41,11.41L156.15,11.41L156.15,10.64L157.04,9.88L157.04,9.88L157.19,9.88L161.42,9.88L161.42,9.12L165.14,9.12L165.14,8.36L169.06,8.36L169.06,7.6L169.63,7.6L169.63,6.84L170.38,6.84L170.38,6.08L173.9,6.08L173.9,5.32L175.03,5.32L175.03,4.56L179.09,4.56L179.09,3.8L181.51,3.8L181.51,3.8L181.51,3.04L183.03,3.04L183.03,2.28L192.46,2.28L192.46,1.52L214.77,1.52L214.77,0.76L226.91,0.76L226.91,0L230,0" style="vector-effect: none; fill: none; stroke: rgb(0, 0, 128); stroke-opacity: 1; stroke-width: 2px; opacity: 1;"/></g><g class="points"/><g class="text"/></g><g class="trace scatter trace57ce3b" style="stroke-miterlimit: 2; opacity: 1;"><g class="fills"/><g class="errorbars"/><g class="lines"><path class="js-line" d="M0,257L230,0" style="vector-effect: none; fill: none; stroke: rgb(0, 0, 0); stroke-opacity: 1; stroke-dasharray: 3px, 3px; stroke-width: 2px; opacity: 1;"/></g><g class="points"/><g class="text"/></g></g></g><g class="overplot"/><path class="xlines-above crisp" d="M27.5,277.25H258" style="fill: none; stroke-width: 0.5px; stroke: rgb(0, 0, 0); stroke-opacity: 1;"/><path class="ylines-above crisp" d="M27.75,20V277" style="fill: none; stroke-width: 0.5px; stroke: rgb(0, 0, 0); stroke-opacity: 1;"/><g class="overlines-above"/><g class="xaxislayer-above"><path class="xtick ticks crisp" d="M0,277.5v5" transform="translate(28,0)" style="stroke: rgb(68, 68, 68); stroke-opacity: 1; stroke-width: 1px;"/><path class="xtick ticks crisp" d="M0,277.5v5" transform="translate(74,0)" style="stroke: rgb(68, 68, 68); stroke-opacity: 1; stroke-width: 1px;"/><path class="xtick ticks crisp" d="M0,277.5v5" transform="translate(120,0)" style="stroke: rgb(68, 68, 68); stroke-opacity: 1; stroke-width: 1px;"/><path class="xtick ticks crisp" d="M0,277.5v5" transform="translate(166,0)" style="stroke: rgb(68, 68, 68); stroke-opacity: 1; stroke-width: 1px;"/><path class="xtick ticks crisp" d="M0,277.5v5" transform="translate(212,0)" style="stroke: rgb(68, 68, 68); stroke-opacity: 1; stroke-width: 1px;"/><path class="xtick ticks crisp" d="M0,277.5v5" transform="translate(258,0)" style="stroke: rgb(68, 68, 68); stroke-opacity: 1; stroke-width: 1px;"/><g class="xtick"><text text-anchor="middle" x="0" y="296.9" transform="translate(28,0)" style="font-family: Helvetica; font-size: 12px; fill: rgb(0, 0, 0); fill-opacity: 1; white-space: pre; opacity: 1;">0</text></g><g class="xtick"><text text-anchor="middle" x="0" y="296.9" style="font-family: Helvetica; font-size: 12px; fill: rgb(0, 0, 0); fill-opacity: 1; white-space: pre; opacity: 1;" transform="translate(74,0)">0.2</text></g><g class="xtick"><text text-anchor="middle" x="0" y="296.9" style="font-family: Helvetica; font-size: 12px; fill: rgb(0, 0, 0); fill-opacity: 1; white-space: pre; opacity: 1;" transform="translate(120,0)">0.4</text></g><g class="xtick"><text text-anchor="middle" x="0" y="296.9" style="font-family: Helvetica; font-size: 12px; fill: rgb(0, 0, 0); fill-opacity: 1; white-space: pre; opacity: 1;" transform="translate(166,0)">0.6</text></g><g class="xtick"><text text-anchor="middle" x="0" y="296.9" style="font-family: Helvetica; font-size: 12px; fill: rgb(0, 0, 0); fill-opacity: 1; white-space: pre; opacity: 1;" transform="translate(212,0)">0.8</text></g><g class="xtick"><text text-anchor="middle" x="0" y="296.9" style="font-family: Helvetica; font-size: 12px; fill: rgb(0, 0, 0); fill-opacity: 1; white-space: pre; opacity: 1;" transform="translate(258,0)">1</text></g></g><g class="yaxislayer-above"><path class="ytick ticks crisp" d="M27.5,0h-5" transform="translate(0,277)" style="stroke: rgb(68, 68, 68); stroke-opacity: 1; stroke-width: 1px;"/><path class="ytick ticks crisp" d="M27.5,0h-5" transform="translate(0,225.6)" style="stroke: rgb(68, 68, 68); stroke-opacity: 1; stroke-width: 1px;"/><path class="ytick ticks crisp" d="M27.5,0h-5" transform="translate(0,174.2)" style="stroke: rgb(68, 68, 68); stroke-opacity: 1; stroke-width: 1px;"/><path class="ytick ticks crisp" d="M27.5,0h-5" transform="translate(0,122.8)" style="stroke: rgb(68, 68, 68); stroke-opacity: 1; stroke-width: 1px;"/><path class="ytick ticks crisp" d="M27.5,0h-5" transform="translate(0,71.4)" style="stroke: rgb(68, 68, 68); stroke-opacity: 1; stroke-width: 1px;"/><path class="ytick ticks crisp" d="M27.5,0h-5" transform="translate(0,20)" style="stroke: rgb(68, 68, 68); stroke-opacity: 1; stroke-width: 1px;"/><g class="ytick"><text text-anchor="end" x="20.1" y="4.199999999999999" transform="translate(0,277)" style="font-family: Helvetica; font-size: 12px; fill: rgb(0, 0, 0); fill-opacity: 1; white-space: pre; opacity: 1;">0</text></g><g class="ytick"><text text-anchor="end" x="20.1" y="4.199999999999999" style="font-family: Helvetica; font-size: 12px; fill: rgb(0, 0, 0); fill-opacity: 1; white-space: pre; opacity: 1;" transform="translate(0,225.6)">0.2</text></g><g class="ytick"><text text-anchor="end" x="20.1" y="4.199999999999999" style="font-family: Helvetica; font-size: 12px; fill: rgb(0, 0, 0); fill-opacity: 1; white-space: pre; opacity: 1;" transform="translate(0,174.2)">0.4</text></g><g class="ytick"><text text-anchor="end" x="20.1" y="4.199999999999999" style="font-family: Helvetica; font-size: 12px; fill: rgb(0, 0, 0); fill-opacity: 1; white-space: pre; opacity: 1;" transform="translate(0,122.8)">0.6</text></g><g class="ytick"><text text-anchor="end" x="20.1" y="4.199999999999999" style="font-family: Helvetica; font-size: 12px; fill: rgb(0, 0, 0); fill-opacity: 1; white-space: pre; opacity: 1;" transform="translate(0,71.4)">0.8</text></g><g class="ytick"><text text-anchor="end" x="20.1" y="4.199999999999999" style="font-family: Helvetica; font-size: 12px; fill: rgb(0, 0, 0); fill-opacity: 1; white-space: pre; opacity: 1;" transform="translate(0,20)">1</text></g></g><g class="overaxes-above"/></g></g><g class="polarlayer"/><g class="smithlayer"/><g class="ternarylayer"/><g class="geolayer"/><g class="funnelarealayer"/><g class="pielayer"/><g class="iciclelayer"/><g class="treemaplayer"/><g class="sunburstlayer"/><g class="glimages"/><defs id="topdefs-40f64e"><g class="clips"/><clipPath id="legend40f64e"><rect width="137" height="143" x="0" y="0"/></clipPath></defs><g class="layer-above"><g class="imagelayer"/><g class="shapelayer"/></g><g class="infolayer"><g class="legend" pointer-events="all" transform="translate(262.6,20)"><rect class="bg" shape-rendering="crispEdges" width="137" height="143" x="0" y="0" style="stroke: rgb(68, 68, 68); stroke-opacity: 1; fill: rgb(255, 255, 255); fill-opacity: 1; stroke-width: 0px;"/><g class="scrollbox" transform="" clip-path="url(#legend40f64e)"><g class="groups"><g class="traces" transform="translate(0,14.5)" style="opacity: 1;"><text class="legendtext" text-anchor="start" x="40" y="4.680000000000001" style="font-family: Helvetica; font-size: 12px; fill: rgb(0, 0, 0); fill-opacity: 1; white-space: pre;">fiveUTR</text><g class="layers" style="opacity: 1;"><g class="legendfill"/><g class="legendlines"><path class="js-line" d="M5,0h30" style="fill: none; stroke: rgb(255, 165, 0); stroke-opacity: 1; stroke-width: 2px;"/></g><g class="legendsymbols"><g class="legendpoints"/></g></g><rect class="legendtoggle" x="0" y="-9.5" width="132" height="19" style="fill: rgb(0, 0, 0); fill-opacity: 0;"/></g><g class="traces" transform="translate(0,33.5)" style="opacity: 1;"><text class="legendtext" text-anchor="start" x="40" y="4.680000000000001" style="font-family: Helvetica; font-size: 12px; fill: rgb(0, 0, 0); fill-opacity: 1; white-space: pre;">threeUTR</text><g class="layers" style="opacity: 1;"><g class="legendfill"/><g class="legendlines"><path class="js-line" d="M5,0h30" style="fill: none; stroke: rgb(218, 165, 32); stroke-opacity: 1; stroke-width: 2px;"/></g><g class="legendsymbols"><g class="legendpoints"/></g></g><rect class="legendtoggle" x="0" y="-9.5" width="132" height="19" style="fill: rgb(0, 0, 0); fill-opacity: 0;"/></g><g class="traces" transform="translate(0,52.5)" style="opacity: 1;"><text class="legendtext" text-anchor="start" x="40" y="4.680000000000001" style="font-family: Helvetica; font-size: 12px; fill: rgb(0, 0, 0); fill-opacity: 1; white-space: pre;">CDS_frameshift</text><g class="layers" style="opacity: 1;"><g class="legendfill"/><g class="legendlines"><path class="js-line" d="M5,0h30" style="fill: none; stroke: rgb(128, 0, 128); stroke-opacity: 1; stroke-width: 2px;"/></g><g class="legendsymbols"><g class="legendpoints"/></g></g><rect class="legendtoggle" x="0" y="-9.5" width="132" height="19" style="fill: rgb(0, 0, 0); fill-opacity: 0;"/></g><g class="traces" transform="translate(0,71.5)" style="opacity: 1;"><text class="legendtext" text-anchor="start" x="40" y="4.680000000000001" style="font-family: Helvetica; font-size: 12px; fill: rgb(0, 0, 0); fill-opacity: 1; white-space: pre;">lncRNA</text><g class="layers" style="opacity: 1;"><g class="legendfill"/><g class="legendlines"><path class="js-line" d="M5,0h30" style="fill: none; stroke: rgb(169, 169, 169); stroke-opacity: 1; stroke-width: 2px;"/></g><g class="legendsymbols"><g class="legendpoints"/></g></g><rect class="legendtoggle" x="0" y="-9.5" width="132" height="19" style="fill: rgb(0, 0, 0); fill-opacity: 0;"/></g><g class="traces" transform="translate(0,90.5)" style="opacity: 1;"><text class="legendtext" text-anchor="start" x="40" y="4.680000000000001" style="font-family: Helvetica; font-size: 12px; fill: rgb(0, 0, 0); fill-opacity: 1; white-space: pre;">intronic</text><g class="layers" style="opacity: 1;"><g class="legendfill"/><g class="legendlines"><path class="js-line" d="M5,0h30" style="fill: none; stroke: rgb(34, 139, 34); stroke-opacity: 1; stroke-width: 2px;"/></g><g class="legendsymbols"><g class="legendpoints"/></g></g><rect class="legendtoggle" x="0" y="-9.5" width="132" height="19" style="fill: rgb(0, 0, 0); fill-opacity: 0;"/></g><g class="traces" transform="translate(0,109.5)" style="opacity: 1;"><text class="legendtext" text-anchor="start" x="40" y="4.680000000000001" style="font-family: Helvetica; font-size: 12px; fill: rgb(0, 0, 0); fill-opacity: 1; white-space: pre;">intergenic</text><g class="layers" style="opacity: 1;"><g class="legendfill"/><g class="legendlines"><path class="js-line" d="M5,0h30" style="fill: none; stroke: rgb(0, 0, 128); stroke-opacity: 1; stroke-width: 2px;"/></g><g class="legendsymbols"><g class="legendpoints"/></g></g><rect class="legendtoggle" x="0" y="-9.5" width="132" height="19" style="fill: rgb(0, 0, 0); fill-opacity: 0;"/></g><g class="traces" transform="translate(0,128.5)" style="opacity: 1;"><text class="legendtext" text-anchor="start" x="40" y="4.680000000000001" style="font-family: Helvetica; font-size: 12px; fill: rgb(0, 0, 0); fill-opacity: 1; white-space: pre;">baseline</text><g class="layers" style="opacity: 1;"><g class="legendfill"/><g class="legendlines"><path class="js-line" d="M5,0h30" style="fill: none; stroke: rgb(0, 0, 0); stroke-opacity: 1; stroke-dasharray: 3px, 3px; stroke-width: 2px;"/></g><g class="legendsymbols"><g class="legendpoints"/></g></g><rect class="legendtoggle" x="0" y="-9.5" width="132" height="19" style="fill: rgb(0, 0, 0); fill-opacity: 0;"/></g></g></g><rect class="scrollbar" rx="20" ry="3" width="0" height="0" x="0" y="0" style="fill: rgb(128, 139, 164); fill-opacity: 1;"/></g><g class="g-gtitle"/><g class="g-xtitle"/><g class="g-ytitle"/></g></svg>