<svg class="main-svg" xmlns="http://www.w3.org/2000/svg" xmlns:xlink="http://www.w3.org/1999/xlink" width="400" height="300" style="" viewBox="0 0 400 300"><rect x="0" y="0" width="400" height="300" style="fill: rgb(255, 255, 255); fill-opacity: 1;"/><defs id="defs-38d34b"><g class="clips"><clipPath id="clip38d34bxyplot" class="plotclip"><rect width="265" height="257"/></clipPath><clipPath class="axesclip" id="clip38d34bx"><rect x="28" y="0" width="265" height="300"/></clipPath><clipPath class="axesclip" id="clip38d34by"><rect x="0" y="20" width="400" height="257"/></clipPath><clipPath class="axesclip" id="clip38d34bxy"><rect x="28" y="20" width="265" height="257"/></clipPath></g><g class="gradients"/><g class="patterns"/></defs><g class="bglayer"><rect class="bg" x="28" y="20" width="265" height="257" style="fill: rgb(0, 0, 0); fill-opacity: 0; stroke-width: 0;"/></g><g class="layer-below"><g class="imagelayer"/><g class="shapelayer"/></g><g class="cartesianlayer"><g class="subplot xy"><g class="layer-subplot"><g class="shapelayer"/><g class="imagelayer"/></g><g class="minor-gridlayer"><g class="x"/><g class="y"/></g><g class="gridlayer"><g class="x"/><g class="y"/></g><g class="zerolinelayer"/><g class="layer-between"><g class="shapelayer"/><g class="imagelayer"/></g><path class="xlines-below"/><path class="ylines-below"/><g class="overlines-below"/><g class="xaxislayer-below"/><g class="yaxislayer-below"/><g class="overaxes-below"/><g class="plot" transform="translate(28,20)" clip-path="url(#clip38d34bxyplot)"><g class="scatterlayer mlayer"><g class="trace scatter tracea7ed99" style="stroke-miterlimit: 2; opacity: 1;"><g class="fills"/><g class="errorbars"/><g class="lines"><path class="js-line" d="M0,257L0.65,246.77L0.76,246.77L1.51,236.52L1.62,236.51L2.27,232.93L2.38,232.92L3.13,225.15L3.24,225.15L3.78,223.19L3.78,223.18L4.43,216.12L4.54,216.12L5.19,212.65L5.3,212.65L6.05,202.67L6.16,202.67L6.81,199.62L6.92,199.62L7.67,194.18L7.78,194.18L8.21,192.78L8.21,192.76L8.86,188.95L8.97,188.95L9.73,187.2L9.73,187.18L10.48,183.79L10.48,183.79L10.59,183.79L11.24,179.52L11.35,179.52L12.1,177.15L12.21,177.15L12.86,173.04L12.97,173.03L13.62,169.61L13.73,169.61L14.48,167.48L14.59,167.48L15.24,165.1L15.35,165.1L16,163.31L16.1,163.31L16.75,160.6L16.86,160.6L17.51,158.91L17.51,158.89L18.26,155.67L18.37,155.67L19.02,154.05L19.02,153.97L19.67,150L19.67,150L19.78,149.99L20.53,146.02L20.64,146.02L21.07,144.59L21.07,144.24L21.72,142.64L21.83,142.64L22.59,141.03L22.59,141.01L23.34,137.5L23.45,137.5L24.1,135.46L24.21,135.46L24.86,133.17L24.97,133.16L25.61,132.13L25.61,132L27.78,126.27L27.78,125.96L28.42,125.16L28.42,125.05L29.07,122.91L29.18,122.91L30.37,120.59L30.37,120.43L31.02,119.33L31.13,119.33L32.1,118.28L32.1,118.22L32.85,116.92L32.96,116.92L33.61,115.31L33.72,115.31L34.37,114.05L34.48,114.05L35.12,111.47L35.34,111.47L35.99,109.71L36.1,109.71L38.04,106.8L38.04,106.7L42.26,98.51L42.37,98.51L43.12,97.48L43.12,97.32L45.72,93.09L45.72,92.78L46.47,91.19L46.69,91.19L47.44,89.91L47.55,89.91L49.17,87.48L49.17,87.16L50.36,85.91L50.36,85.74L53.39,81.1L53.39,81.08L56.63,76.73L56.63,76.72L57.28,75.99L57.39,75.99L59.01,72.76L59.01,72.5L60.31,71.38L60.31,71.15L60.63,70.36L60.63,70.2L66.03,62.88L66.03,62.76L66.68,61.53L66.9,61.53L67.55,60.48L67.55,60.46L70.79,55.52L70.79,55.44L71.98,54.66L71.98,54.57L77.49,49.05L77.6,49.05L78.35,47.85L78.46,47.85L79.54,46.76L79.54,46.39L80.62,45.6L80.62,45.59L84.41,42.5L84.62,42.5L86.68,40.7L86.78,40.7L87.43,40.15L87.54,40.15L88.19,39.26L88.3,39.26L89.38,38.05L89.38,37.99L91.32,37.13L91.32,37.1L92.62,36.23L92.62,36.22L94.35,34.87L94.35,34.78L95,33.99L95.11,33.99L95.86,33.4L95.97,33.4L96.84,32.61L97.05,32.61L98.46,31.91L98.56,31.91L99.1,31.19L99.32,31.19L100.4,30.54L100.51,30.54L102.24,29.46L102.24,29.38L103.64,28.72L103.64,28.63L103.64,28.56L105.7,27.42L105.7,27.31L107.75,25.79L107.86,25.79L111.53,22.69L111.86,22.69L112.51,22.26L112.72,22.26L119.31,19.48L119.31,19.37L120.83,18.53L120.94,18.53L121.69,17.85L121.8,17.85L134.12,13.09L134.23,13.09L136.28,12.33L136.28,12.2L141.69,10.48L141.69,10.42L144.28,9.46L144.28,9.4L147.52,8.52L147.52,8.48L185.89,1.62L185.89,1.62L186.75,1.62L202.32,0.94L202.86,0.94L234.63,0.19L234.63,0.18L265,0" style="vector-effect: none; fill: none; stroke: rgb(236, 154, 86); stroke-opacity: 1; stroke-width: 2px; opacity: 1;"/></g><g class="points"/><g class="text"/></g><g class="trace scatter traceb87900" style="stroke-miterlimit: 2; opacity: 1;"><g class="fills"/><g class="errorbars"/><g class="lines"><path class="js-line" d="M0,257L0.74,64.52L0.76,64.52L1.51,54.43L1.52,54.43L2.27,45.42L2.3,45.42L3.03,41.45L3.08,41.45L3.83,37.85L3.93,37.85L4.67,34.78L4.7,34.78L5.27,32.98L5.56,32.98L6.26,31.72L6.32,31.72L6.95,30.1L7.44,30.1L8.18,27.57L8.3,27.57L8.95,25.95L9.38,25.95L10.09,24.69L10.49,24.69L11.2,22.89L11.34,22.89L11.86,21.99L12.1,21.99L12.83,21.27L13.39,21.27L14.04,19.64L14.22,19.64L14.96,18.2L15.22,18.2L15.8,17.48L16.11,17.48L16.52,16.94L17.12,16.94L17.26,16.4L18.68,16.4L19.41,15.86L19.63,15.86L20.36,15.14L20.71,15.14L20.85,14.78L22.76,14.78L22.93,14.42L23.74,14.42L24.03,13.88L24.29,13.88L24.53,13.88L25.15,13.52L25.48,13.52L25.96,12.8L27.05,12.8L27.05,12.62L28.22,12.62L28.22,12.44L29.04,12.44L29.4,12.08L29.88,12.08L30.14,11.71L31.75,11.71L33.04,10.99L33.04,10.81L35.84,10.09L35.84,9.91L41.85,9.19L41.85,9.01L50.39,8.29L50.39,8.11L54.66,7.39L54.66,7.21L58.2,6.49L58.2,6.31L63.29,5.59L63.29,5.41L70.75,4.69L70.75,4.51L88.33,3.78L88.33,3.6L115.42,2.88L115.42,2.7L128.23,1.98L128.23,1.8L161.07,1.08L161.07,0.9L234.15,0.18L234.15,0L265,0" style="vector-effect: none; fill: none; stroke: rgb(186, 105, 190); stroke-opacity: 1; stroke-width: 2px; opacity: 1;"/></g><g class="points"/><g class="text"/></g><g class="trace scatter trace741d47" style="stroke-miterlimit: 2; opacity: 1;"><g class="fills"/><g class="errorbars"/><g class="lines"><path class="js-line" d="M0,257L0.75,144L0.76,144L1.49,124.88L1.52,124.88L2.27,115.03L2.28,115.03L3,110.68L3.1,110.68L3.84,107.49L3.86,107.49L4.51,105.18L4.66,105.18L5.38,103.44L5.63,103.44L6.3,101.12L6.5,101.12L6.99,99.96L7.63,99.96L8.36,98.22L8.66,98.22L9.39,97.35L9.44,97.35L9.71,96.77L10.21,96.77L10.69,94.75L11.13,94.75L11.3,93.88L12.23,93.88L12.94,92.14L12.99,92.14L13.46,90.98L13.82,90.98L14.41,89.82L14.64,89.82L15.13,88.66L15.57,88.66L16.14,87.5L16.77,87.5L17.29,86.05L18.31,86.05L18.86,84.89L19.46,84.89L20.01,83.74L20.3,83.74L20.64,82.29L21.15,82.29L21.68,80.84L22.29,80.84L22.34,80.26L24.59,80.26L25.08,79.68L25.47,79.68L25.55,79.1L26.66,79.1L27.4,77.65L27.59,77.65L28.07,76.49L29,76.49L29.37,75.62L29.94,75.62L30.1,75.04L31.57,75.04L31.85,74.17L32.89,74.17L32.89,73.88L34.11,73.88L34.11,73.59L35,73.59L35.49,72.72L36.12,72.72L36.12,72.44L36.88,72.44L37.12,71.28L37.26,71.28L38.46,71.28L38.96,70.41L39.54,70.41L40.2,69.83L40.43,69.83L41.04,69.25L41.25,69.25L41.61,68.38L45.31,68.38L46.27,67.8L46.35,67.8L46.35,67.51L47.7,67.51L48.41,66.64L48.72,66.64L49.3,65.77L49.91,65.77L50.1,65.19L50.15,65.19L50.88,65.19L51.54,64.32L52.88,64.32L53.05,63.45L53.96,63.45L54.57,62.29L55.28,62.29L56.48,61.71L56.48,61.43L58.07,60.85L58.07,60.56L58.08,60.27L59.28,60.27L59.57,59.69L61.72,59.69L62.29,58.53L62.83,58.53L65.16,57.95L65.16,57.66L66.71,57.08L66.71,56.79L70.1,56.21L70.1,55.92L70.13,55.63L70.9,55.63L73.03,55.05L73.03,54.76L81.35,54.18L81.35,53.89L84.34,53.31L84.34,53.02L86.07,52.44L86.07,52.15L92.37,51.57L92.37,51.28L94.7,50.7L94.7,50.41L98.47,49.84L98.47,49.55L99.43,48.68L99.82,48.68L101.39,48.1L101.39,47.81L102.04,47.23L102.04,46.94L103.42,46.36L103.42,46.07L106.26,45.49L106.26,45.2L111,44.62L111,44.33L114.69,43.75L114.69,43.46L115.73,42.88L115.73,42.59L119.98,42.01L119.98,41.72L121.99,41.14L121.99,40.85L122.99,40.27L122.99,39.98L127.42,39.4L127.42,39.11L127.54,38.83L128.57,38.83L130.18,38.25L130.18,37.96L131.04,37.38L131.04,37.09L131.14,36.51L134.38,36.51L134.72,35.64L135.19,35.64L135.58,35.06L137.8,35.06L137.8,34.77L139.48,34.77L139.66,34.19L139.71,34.19L141.26,34.19L141.26,33.9L144.29,33.9L144.53,33.03L146.02,33.03L149.05,32.45L149.05,32.16L151.54,31.58L151.54,31.29L155.82,30.71L155.82,30.42L158.11,29.84L158.11,29.55L159.54,28.97L159.54,28.68L160.71,28.1L160.71,27.82L163.22,27.24L163.22,26.95L166.29,26.37L166.29,26.08L168.01,25.5L168.01,25.21L174.14,24.63L174.14,24.34L174.78,23.76L174.78,23.47L177.41,22.89L177.41,22.6L179.81,22.02L179.81,21.73L179.82,21.44L180.94,21.44L181.61,20.28L181.72,20.28L185.06,19.7L185.06,19.41L185.97,18.83L186.62,18.83L186.62,18.54L187.67,18.54L191.34,17.96L191.34,17.67L192.25,17.09L192.25,16.8L196.15,16.23L196.15,15.94L196.29,15.65L197.29,15.65L197.29,15.36L198.6,15.36L198.63,14.78L201.38,14.78L202.12,13.91L202.4,13.91L202.6,13.33L203.14,13.33L203.61,13.33L203.61,13.04L203.72,13.04L205.22,13.04L205.22,12.75L207.35,12.75L207.35,12.17L207.69,12.17L208.16,12.17L208.55,11.59L209.51,11.59L209.51,11.3L211.26,11.3L212,10.43L212.34,10.43L212.34,10.14L215.87,10.14L215.87,9.85L216.38,9.85L217.14,9.85L217.14,9.56L218.65,9.56L218.65,9.27L220.27,9.27L220.27,8.98L221.36,8.98L221.36,8.69L222.32,8.69L226.27,8.11L226.27,7.82L229.19,7.24L229.19,6.95L238.84,6.37L238.84,6.08L242.38,5.51L242.38,5.22L244.01,4.64L244.01,4.35L245.98,3.77L245.98,3.48L246.33,3.19L247.78,3.19L250,2.61L250,2.32L254.57,1.74L254.57,1.45L263.81,0.87L263.81,0.58L265,0" style="vector-effect: none; fill: none; stroke: rgb(155, 191, 229); stroke-opacity: 1; stroke-width: 2px; opacity: 1;"/></g><g class="points"/><g class="text"/></g><g class="trace scatter trace553a9e" style="stroke-miterlimit: 2; opacity: 1;"><g class="fills"/><g class="errorbars"/><g class="lines"><path class="js-line" d="M0,257L0.75,241.26L0.75,241.26L0.78,241.26L1.53,233.03L1.56,233.03L2.31,223.45L2.34,223.45L3.41,214.28L3.41,214.27L4.01,210.15L4.01,210.13L4.76,203.11L4.79,203.1L4.99,200.73L4.99,200.72L5.72,193.87L5.72,193.87L5.75,193.87L6.5,189.69L6.52,189.69L8.81,174.42L8.81,174.42L8.81,174.39L10.13,167.81L10.13,167.75L11,163.82L11,163.81L11.75,161.06L11.75,161.06L11.78,161.05L12.41,157.71L12.41,157.7L13.16,153.74L13.16,153.74L13.19,153.74L18.39,131.02L18.42,131.02L19.95,126.51L19.98,126.51L21.94,119.96L21.97,119.96L22.72,117.46L22.72,117.46L22.75,117.46L26.42,106.02L26.42,106.02L26.42,106L30.46,95.4L30.49,95.4L34.44,84.98L34.44,84.98L34.47,84.98L35.25,83.49L35.25,83.45L37.56,79.12L37.56,79.12L37.56,79.1L44.89,63.69L44.89,63.69L44.92,63.69L48.73,56.61L48.76,56.61L52,50.91L52.02,50.91L55.92,45.68L55.92,45.68L55.95,45.68L61.78,38.54L61.81,38.54L63.95,36.51L63.98,36.51L65.85,34.57L65.88,34.57L67.67,32.94L67.67,32.9L70.1,30.43L70.13,30.43L71.19,29.38L71.22,29.38L73.16,27.57L73.16,27.57L73.19,27.57L90.19,15.96L90.19,15.96L90.22,15.96L94.64,13.52L94.67,13.52L109.01,7.9L109.1,7.9L125.12,4.04L125.12,4.04L125.15,4.04L136.12,2.58L136.12,2.58L136.24,2.58L154.05,1.2L154.05,1.2L154.31,1.2L180.41,0.4L180.41,0.4L180.87,0.4L197.79,0.21L197.79,0.21L198.02,0.21L235.75,0.03L236.16,0.03L265,0" style="vector-effect: none; fill: none; stroke: rgb(236, 154, 86); stroke-opacity: 1; stroke-dasharray: 9px, 9px; stroke-width: 2px; opacity: 1;"/></g><g class="points"/><g class="text"/></g><g class="trace scatter traceb1cdbd" style="stroke-miterlimit: 2; opacity: 1;"><g class="fills"/><g class="errorbars"/><g class="lines"><path class="js-line" d="M0,257L0.75,78.07L0.76,78.07L1.51,67.3L1.52,67.3L2.56,59.47L2.58,59.47L3.57,54.31L3.6,54.31L5.41,47.39L5.41,47.39L5.45,47.39L6.24,45.43L6.31,45.43L8.46,40.86L8.55,40.86L9.71,37.99L9.83,37.99L10.85,36.75L10.9,36.75L20.28,28.27L20.37,28.27L23.06,25.98L23.13,25.98L24.76,25.26L24.76,25.2L26.95,23.96L26.95,23.96L27,23.96L28.89,22.59L29.08,22.59L33.12,20.82L33.12,20.76L33.99,20.17L33.99,20.17L34.11,20.17L37.17,18.73L37.41,18.73L51.14,14.1L51.15,14.1L53.28,13.38L53.28,13.38L53.28,13.32L57.1,12.6L57.1,12.53L60.94,11.82L60.94,11.75L64.31,11.36L64.33,11.36L69.03,10.64L69.03,10.58L73.31,9.86L73.31,9.79L78.21,9.07L78.21,9.07L78.21,9.01L83.09,8.29L83.09,8.23L91.61,7.51L91.61,7.44L98.86,6.72L98.86,6.66L104.92,5.94L104.92,5.88L107.5,5.81L107.5,5.81L107.54,5.81L113.34,5.09L113.34,5.03L122.96,4.31L122.96,4.24L132.83,3.53L132.83,3.46L135,3.26L135,3.26L135.16,3.26L154.7,2.55L154.7,2.48L170.84,1.76L170.84,1.7L201.47,0.98L201.47,0.91L249.15,0.2L249.15,0.13L265,0" style="vector-effect: none; fill: none; stroke: rgb(186, 105, 190); stroke-opacity: 1; stroke-dasharray: 9px, 9px; stroke-width: 2px; opacity: 1;"/></g><g class="points"/><g class="text"/></g><g class="trace scatter traceaf4f83" style="stroke-miterlimit: 2; opacity: 1;"><g class="fills"/><g class="errorbars"/><g class="lines"><path class="js-line" d="M0,257L0.75,163.93L0.76,163.93L1.51,144.99L1.52,144.99L2.97,129.99L2.99,129.99L5.68,118.34L5.7,118.34L6.28,116.45L6.28,116.37L8.63,110.77L8.63,110.77L8.63,110.69L12.36,106.11L12.36,106.11L12.47,106.11L14.2,102.97L14.35,102.97L15.45,101.74L15.45,101.74L15.45,101.66L16.6,100.43L16.6,100.28L17.83,99.12L17.83,99.04L20.45,97L20.45,96.93L21.54,96.2L21.54,96.13L22.94,95.11L22.94,94.96L24.11,93.94L24.11,93.87L26.21,92.12L26.21,92.05L34.5,87.39L34.5,87.32L36.55,85.72L36.55,85.64L38.62,84.91L38.62,84.84L39.89,84.04L39.89,84.04L39.98,84.04L40.93,82.95L40.93,82.95L41.07,82.95L42.29,82.15L42.29,82.15L42.36,82.15L44.09,80.62L44.36,80.62L45.02,80.33L45.34,80.33L52.85,75.52L52.85,75.45L54.2,74.21L54.26,74.21L56.39,72.75L56.39,72.68L57.72,71.95L57.72,71.88L59.18,70.71L59.18,70.64L60.57,69.55L60.64,69.55L62.82,68.02L63,68.02L64.15,67.44L64.26,67.44L71.7,65.18L71.74,65.18L72.57,64.6L72.73,64.6L73.48,64.09L73.48,64.09L73.56,64.09L75.88,63.36L75.88,63.29L77.21,62.63L77.21,62.63L77.33,62.63L89.18,57.02L89.22,57.02L92.79,56.29L92.79,56.22L104.43,51.92L104.43,51.92L104.53,51.92L106.02,51.05L106.14,51.05L120.52,45.37L120.52,45.3L121.92,44.64L121.94,44.64L123.62,43.91L123.62,43.91L123.66,43.91L124.96,43.19L124.96,43.11L126.12,42.38L126.12,42.31L127.85,41.58L127.85,41.51L130.6,40.78L130.6,40.71L133.57,39.98L133.57,39.91L136.43,39.18L136.43,39.11L138.5,38.38L138.5,38.31L140.93,37.65L140.93,37.5L144.77,36.78L144.77,36.7L151,34.66L151,34.66L151.07,34.66L153.31,33.94L153.31,33.86L164.31,29.06L164.31,29.06L164.35,29.06L167.1,28.33L167.1,28.26L170.58,26.95L170.67,26.95L181.84,23.3L181.84,23.3L182.06,23.3L183.02,22.87L183.08,22.87L186.48,21.77L186.48,21.77L186.81,21.77L188.07,21.12L188.07,20.97L191.4,20.1L191.4,20.1L191.6,20.1L193.01,19.37L193.01,19.3L198.19,17.04L198.19,16.97L199.6,16.46L199.6,16.46L199.63,16.46L202.25,15.73L202.25,15.66L207.62,14.93L207.62,14.86L211.96,14.13L211.96,14.06L215.51,13.11L215.66,13.11L218.14,12.38L218.14,12.31L222.84,11.58L222.84,11.51L223.77,11L224.23,11L226.87,10.27L226.87,10.2L227.63,9.98L227.64,9.98L230.85,9.25L230.85,9.18L235.53,8.23L235.53,8.23L235.61,8.23L236.65,7.79L236.79,7.79L244,5.53L244,5.53L244.13,5.53L249.58,3.79L249.64,3.79L252.36,3.06L252.36,2.99L255.83,2.26L255.83,2.18L259.34,1.46L259.34,1.38L262.73,0.22L263.21,0.22L265,0" style="vector-effect: none; fill: none; stroke: rgb(155, 191, 229); stroke-opacity: 1; stroke-dasharray: 9px, 9px; stroke-width: 2px; opacity: 1;"/></g><g class="points"/><g class="text"/></g><g class="trace scatter tracefbe97b" style="stroke-miterlimit: 2; opacity: 1;"><g class="fills"/><g class="errorbars"/><g class="lines"><path class="js-line" d="M0,257L265,0" style="vector-effect: none; fill: none; stroke: rgb(0, 0, 0); stroke-opacity: 1; stroke-dasharray: 3px, 3px; stroke-width: 2px; opacity: 1;"/></g><g class="points"/><g class="text"/></g></g></g><g class="overplot"/><path class="xlines-above crisp" d="M27.5,277.25H293" style="fill: none; stroke-width: 0.5px; stroke: rgb(0, 0, 0); stroke-opacity: 1;"/><path class="ylines-above crisp" d="M27.75,20V277" style="fill: none; stroke-width: 0.5px; stroke: rgb(0, 0, 0); stroke-opacity: 1;"/><g class="overlines-above"/><g class="xaxislayer-above"><path class="xtick ticks crisp" d="M0,277.5v5" transform="translate(28,0)" style="stroke: rgb(68, 68, 68); stroke-opacity: 1; stroke-width: 1px;"/><path class="xtick ticks crisp" d="M0,277.5v5" transform="translate(81,0)" style="stroke: rgb(68, 68, 68); stroke-opacity: 1; stroke-width: 1px;"/><path class="xtick ticks crisp" d="M0,277.5v5" transform="translate(134,0)" style="stroke: rgb(68, 68, 68); stroke-opacity: 1; stroke-width: 1px;"/><path class="xtick ticks crisp" d="M0,277.5v5" transform="translate(187,0)" style="stroke: rgb(68, 68, 68); stroke-opacity: 1; stroke-width: 1px;"/><path class="xtick ticks crisp" d="M0,277.5v5" transform="translate(240,0)" style="stroke: rgb(68, 68, 68); stroke-opacity: 1; stroke-width: 1px;"/><path class="xtick ticks crisp" d="M0,277.5v5" transform="translate(293,0)" style="stroke: rgb(68, 68, 68); stroke-opacity: 1; stroke-width: 1px;"/><g class="xtick"><text text-anchor="middle" x="0" y="296.9" transform="translate(28,0)" style="font-family: Helvetica; font-size: 12px; fill: rgb(0, 0, 0); fill-opacity: 1; white-space: pre; opacity: 1;">0</text></g><g class="xtick"><text text-anchor="middle" x="0" y="296.9" style="font-family: Helvetica; font-size: 12px; fill: rgb(0, 0, 0); fill-opacity: 1; white-space: pre; opacity: 1;" transform="translate(81,0)">0.2</text></g><g class="xtick"><text text-anchor="middle" x="0" y="296.9" style="font-family: Helvetica; font-size: 12px; fill: rgb(0, 0, 0); fill-opacity: 1; white-space: pre; opacity: 1;" transform="translate(134,0)">0.4</text></g><g class="xtick"><text text-anchor="middle" x="0" y="296.9" style="font-family: Helvetica; font-size: 12px; fill: rgb(0, 0, 0); fill-opacity: 1; white-space: pre; opacity: 1;" transform="translate(187,0)">0.6</text></g><g class="xtick"><text text-anchor="middle" x="0" y="296.9" style="font-family: Helvetica; font-size: 12px; fill: rgb(0, 0, 0); fill-opacity: 1; white-space: pre; opacity: 1;" transform="translate(240,0)">0.8</text></g><g class="xtick"><text text-anchor="middle" x="0" y="296.9" style="font-family: Helvetica; font-size: 12px; fill: rgb(0, 0, 0); fill-opacity: 1; white-space: pre; opacity: 1;" transform="translate(293,0)">1</text></g></g><g class="yaxislayer-above"><path class="ytick ticks crisp" d="M27.5,0h-5" transform="translate(0,277)" style="stroke: rgb(68, 68, 68); stroke-opacity: 1; stroke-width: 1px;"/><path class="ytick ticks crisp" d="M27.5,0h-5" transform="translate(0,225.6)" style="stroke: rgb(68, 68, 68); stroke-opacity: 1; stroke-width: 1px;"/><path class="ytick ticks crisp" d="M27.5,0h-5" transform="translate(0,174.2)" style="stroke: rgb(68, 68, 68); stroke-opacity: 1; stroke-width: 1px;"/><path class="ytick ticks crisp" d="M27.5,0h-5" transform="translate(0,122.8)" style="stroke: rgb(68, 68, 68); stroke-opacity: 1; stroke-width: 1px;"/><path class="ytick ticks crisp" d="M27.5,0h-5" transform="translate(0,71.4)" style="stroke: rgb(68, 68, 68); stroke-opacity: 1; stroke-width: 1px;"/><path class="ytick ticks crisp" d="M27.5,0h-5" transform="translate(0,20)" style="stroke: rgb(68, 68, 68); stroke-opacity: 1; stroke-width: 1px;"/><g class="ytick"><text text-anchor="end" x="20.1" y="4.199999999999999" transform="translate(0,277)" style="font-family: Helvetica; font-size: 12px; fill: rgb(0, 0, 0); fill-opacity: 1; white-space: pre; opacity: 1;">0</text></g><g class="ytick"><text text-anchor="end" x="20.1" y="4.199999999999999" style="font-family: Helvetica; font-size: 12px; fill: rgb(0, 0, 0); fill-opacity: 1; white-space: pre; opacity: 1;" transform="translate(0,225.6)">0.2</text></g><g class="ytick"><text text-anchor="end" x="20.1" y="4.199999999999999" style="font-family: Helvetica; font-size: 12px; fill: rgb(0, 0, 0); fill-opacity: 1; white-space: pre; opacity: 1;" transform="translate(0,174.2)">0.4</text></g><g class="ytick"><text text-anchor="end" x="20.1" y="4.199999999999999" style="font-family: Helvetica; font-size: 12px; fill: rgb(0, 0, 0); fill-opacity: 1; white-space: pre; opacity: 1;" transform="translate(0,122.8)">0.6</text></g><g class="ytick"><text text-anchor="end" x="20.1" y="4.199999999999999" style="font-family: Helvetica; font-size: 12px; fill: rgb(0, 0, 0); fill-opacity: 1; white-space: pre; opacity: 1;" transform="translate(0,71.4)">0.8</text></g><g class="ytick"><text text-anchor="end" x="20.1" y="4.199999999999999" style="font-family: Helvetica; font-size: 12px; fill: rgb(0, 0, 0); fill-opacity: 1; white-space: pre; opacity: 1;" transform="translate(0,20)">1</text></g></g><g class="overaxes-above"/></g></g><g class="polarlayer"/><g class="smithlayer"/><g class="ternarylayer"/><g class="geolayer"/><g class="funnelarealayer"/><g class="pielayer"/><g class="iciclelayer"/><g class="treemaplayer"/><g class="sunburstlayer"/><g class="glimages"/><defs id="topdefs-38d34b"><g class="clips"/><clipPath id="legend38d34b"><rect width="102" height="143" x="0" y="0"/></clipPath></defs><g class="layer-above"><g class="imagelayer"/><g class="shapelayer"/></g><g class="infolayer"><g class="legend" pointer-events="all" transform="translate(298,20)"><rect class="bg" shape-rendering="crispEdges" style="stroke: rgb(68, 68, 68); stroke-opacity: 1; fill: rgb(255, 255, 255); fill-opacity: 1; stroke-width: 0px;" width="102" height="143" x="0" y="0"/><g class="scrollbox" transform="" clip-path="url(#legend38d34b)"><g class="groups"><g class="traces" transform="translate(0,14.5)" style="opacity: 1;"><text class="legendtext" text-anchor="start" x="40" y="4.680000000000001" style="font-family: Helvetica; font-size: 12px; fill: rgb(0, 0, 0); fill-opacity: 1; white-space: pre;">canonical</text><g class="layers" style="opacity: 1;"><g class="legendfill"/><g class="legendlines"><path class="js-line" d="M5,0h30" style="fill: none; stroke: rgb(236, 154, 86); stroke-opacity: 1; stroke-width: 2px;"/></g><g class="legendsymbols"><g class="legendpoints"/></g></g><rect class="legendtoggle" x="0" y="-9.5" width="97" height="19" style="fill: rgb(0, 0, 0); fill-opacity: 0;"/></g><g class="traces" transform="translate(0,33.5)" style="opacity: 1;"><text class="legendtext" text-anchor="start" x="40" y="4.680000000000001" style="font-family: Helvetica; font-size: 12px; fill: rgb(0, 0, 0); fill-opacity: 1; white-space: pre;">cryptic</text><g class="layers" style="opacity: 1;"><g class="legendfill"/><g class="legendlines"><path class="js-line" d="M5,0h30" style="fill: none; stroke: rgb(186, 105, 190); stroke-opacity: 1; stroke-width: 2px;"/></g><g class="legendsymbols"><g class="legendpoints"/></g></g><rect class="legendtoggle" x="0" y="-9.5" width="97" height="19" style="fill: rgb(0, 0, 0); fill-opacity: 0;"/></g><g class="traces" transform="translate(0,52.5)" style="opacity: 1;"><text class="legendtext" text-anchor="start" x="40" y="4.680000000000001" style="font-family: Helvetica; font-size: 12px; fill: rgb(0, 0, 0); fill-opacity: 1; white-space: pre;">spliced</text><g class="layers" style="opacity: 1;"><g class="legendfill"/><g class="legendlines"><path class="js-line" d="M5,0h30" style="fill: none; stroke: rgb(155, 191, 229); stroke-opacity: 1; stroke-width: 2px;"/></g><g class="legendsymbols"><g class="legendpoints"/></g></g><rect class="legendtoggle" x="0" y="-9.5" width="97" height="19" style="fill: rgb(0, 0, 0); fill-opacity: 0;"/></g><g class="traces" transform="translate(0,71.5)" style="opacity: 1;"><text class="legendtext" text-anchor="start" x="40" y="4.680000000000001" style="font-family: Helvetica; font-size: 12px; fill: rgb(0, 0, 0); fill-opacity: 1; white-space: pre;">canonical</text><g class="layers" style="opacity: 1;"><g class="legendfill"/><g class="legendlines"><path class="js-line" d="M5,0h30" style="fill: none; stroke: rgb(236, 154, 86); stroke-opacity: 1; stroke-dasharray: 9px, 9px; stroke-width: 2px;"/></g><g class="legendsymbols"><g class="legendpoints"/></g></g><rect class="legendtoggle" x="0" y="-9.5" width="97" height="19" style="fill: rgb(0, 0, 0); fill-opacity: 0;"/></g><g class="traces" transform="translate(0,90.5)" style="opacity: 1;"><text class="legendtext" text-anchor="start" x="40" y="4.680000000000001" style="font-family: Helvetica; font-size: 12px; fill: rgb(0, 0, 0); fill-opacity: 1; white-space: pre;">cryptic</text><g class="layers" style="opacity: 1;"><g class="legendfill"/><g class="legendlines"><path class="js-line" d="M5,0h30" style="fill: none; stroke: rgb(186, 105, 190); stroke-opacity: 1; stroke-dasharray: 9px, 9px; stroke-width: 2px;"/></g><g class="legendsymbols"><g class="legendpoints"/></g></g><rect class="legendtoggle" x="0" y="-9.5" width="97" height="19" style="fill: rgb(0, 0, 0); fill-opacity: 0;"/></g><g class="traces" transform="translate(0,109.5)" style="opacity: 1;"><text class="legendtext" text-anchor="start" x="40" y="4.680000000000001" style="font-family: Helvetica; font-size: 12px; fill: rgb(0, 0, 0); fill-opacity: 1; white-space: pre;">spliced</text><g class="layers" style="opacity: 1;"><g class="legendfill"/><g class="legendlines"><path class="js-line" d="M5,0h30" style="fill: none; stroke: rgb(155, 191, 229); stroke-opacity: 1; stroke-dasharray: 9px, 9px; stroke-width: 2px;"/></g><g class="legendsymbols"><g class="legendpoints"/></g></g><rect class="legendtoggle" x="0" y="-9.5" width="97" height="19" style="fill: rgb(0, 0, 0); fill-opacity: 0;"/></g><g class="traces" transform="translate(0,128.5)" style="opacity: 1;"><text class="legendtext" text-anchor="start" x="40" y="4.680000000000001" style="font-family: Helvetica; font-size: 12px; fill: rgb(0, 0, 0); fill-opacity: 1; white-space: pre;">baseline</text><g class="layers" style="opacity: 1;"><g class="legendfill"/><g class="legendlines"><path class="js-line" d="M5,0h30" style="fill: none; stroke: rgb(0, 0, 0); stroke-opacity: 1; stroke-dasharray: 3px, 3px; stroke-width: 2px;"/></g><g class="legendsymbols"><g class="legendpoints"/></g></g><rect class="legendtoggle" x="0" y="-9.5" width="97" height="19" style="fill: rgb(0, 0, 0); fill-opacity: 0;"/></g></g></g><rect class="scrollbar" rx="20" ry="3" width="0" height="0" style="fill: rgb(128, 139, 164); fill-opacity: 1;" x="0" y="0"/></g><g class="g-gtitle"/><g class="g-xtitle"/><g class="g-ytitle"/></g></svg>