<?xml version="1.0" encoding="utf-8" standalone="no"?>
<!DOCTYPE svg PUBLIC "-//W3C//DTD SVG 1.1//EN"
  "http://www.w3.org/Graphics/SVG/1.1/DTD/svg11.dtd">
<svg xmlns:xlink="http://www.w3.org/1999/xlink" width="360pt" height="360pt" viewBox="0 0 360 360" xmlns="http://www.w3.org/2000/svg" version="1.1">
 <metadata>
  <rdf:RDF xmlns:dc="http://purl.org/dc/elements/1.1/" xmlns:cc="http://creativecommons.org/ns#" xmlns:rdf="http://www.w3.org/1999/02/22-rdf-syntax-ns#">
   <cc:Work>
    <dc:type rdf:resource="http://purl.org/dc/dcmitype/StillImage"/>
    <dc:date>2024-12-17T08:56:43.722036</dc:date>
    <dc:format>image/svg+xml</dc:format>
    <dc:creator>
     <cc:Agent>
      <dc:title>Matplotlib v3.8.4, https://matplotlib.org/</dc:title>
     </cc:Agent>
    </dc:creator>
   </cc:Work>
  </rdf:RDF>
 </metadata>
 <defs>
  <style type="text/css">*{stroke-linejoin: round; stroke-linecap: butt}</style>
 </defs>
 <g id="figure_1">
  <g id="patch_1">
   <path d="M 0 360 
L 360 360 
L 360 0 
L 0 0 
z
" style="fill: #ffffff"/>
  </g>
  <g id="axes_1">
   <g id="patch_2">
    <path d="M 68.69 332.12 
L 349.2 332.12 
L 349.2 26.88 
L 68.69 26.88 
z
" style="fill: #ffffff"/>
   </g>
   <g id="line2d_1">
    <path d="M 68.69 179.5 
L 349.2 179.5 
" clip-path="url(#p4f693a6913)" style="fill: none; stroke: #000000; stroke-width: 0.5; stroke-linecap: square"/>
   </g>
   <g id="patch_3">
    <path d="M 85.5206 179.168962 
L 89.40096 179.168962 
L 92.11351 179.382812 
L 94.805868 179.168962 
L 98.706421 179.168962 
L 101.398779 179.382812 
L 104.114694 179.168962 
L 107.9614 179.168962 
L 104.259408 179.463218 
L 99.591534 179.463218 
L 96.741 179.239531 
L 93.924121 179.463218 
L 89.252881 179.463218 
L 85.5206 179.168962 
z
" clip-path="url(#p4f693a6913)" style="fill: #ffa500"/>
   </g>
   <g id="patch_4">
    <path d="M 107.9614 178.985196 
Q 105.698209 179.016055 103.264021 179.031555 
Q 100.829832 179.046914 98.234706 179.046914 
Q 92.370526 179.046914 88.945563 178.955042 
Q 85.5206 178.86317 85.5206 178.706058 
Q 85.5206 178.547114 89.005915 178.455946 
Q 92.496259 178.364779 98.566641 178.364779 
Q 100.905272 178.364779 103.04776 178.377179 
Q 105.195277 178.389438 107.096358 178.413674 
L 107.096358 178.54965 
Q 105.134925 178.518509 103.19361 178.50315 
Q 101.252295 178.487651 99.300921 178.487651 
Q 95.689873 178.487651 93.73347 178.544296 
Q 91.777067 178.6008 91.777067 178.706058 
Q 91.777067 178.810329 93.66306 178.867256 
Q 95.549053 178.924042 99.019279 178.924042 
Q 99.96479 178.924042 100.77451 178.920801 
Q 101.58423 178.917419 102.227982 178.910374 
L 102.227982 178.782712 
L 98.531436 178.782712 
L 98.531436 178.668999 
L 107.9614 178.668999 
L 107.9614 178.985196 
z
" clip-path="url(#p4f693a6913)" style="fill: #1e90ff"/>
   </g>
   <g id="patch_5">
    <path d="M 107.9614 178.123924 
Q 106.084266 178.152031 104.054473 178.166247 
Q 102.02468 178.180628 99.813959 178.180628 
Q 93.221373 178.180628 89.370987 178.074083 
Q 85.5206 177.967539 85.5206 177.785335 
Q 85.5206 177.602477 89.370987 177.496096 
Q 93.221373 177.389552 99.813959 177.389552 
Q 102.02468 177.389552 104.054473 177.403932 
Q 106.084266 177.418149 107.9614 177.446255 
L 107.9614 177.603948 
Q 106.067304 177.56669 104.229748 177.549368 
Q 102.392192 177.532047 100.362399 177.532047 
Q 96.721211 177.532047 94.634878 177.599536 
Q 92.554199 177.666861 92.554199 177.785335 
Q 92.554199 177.903318 94.634878 177.970807 
Q 96.721211 178.038133 100.362399 178.038133 
Q 102.392192 178.038133 104.229748 178.020811 
Q 106.067304 178.003326 107.9614 177.966068 
L 107.9614 178.123924 
z
" clip-path="url(#p4f693a6913)" style="fill: #1e90ff"/>
   </g>
   <g id="patch_6">
    <path d="M 97.339421 177.054422 
L 96.899956 177.054422 
Q 91.509489 177.054422 88.512707 176.957986 
Q 85.5206 176.861399 85.5206 176.689268 
Q 85.5206 176.517439 88.508032 176.420095 
Q 91.495463 176.3226 96.741 176.3226 
Q 102.042639 176.3226 105.002019 176.419187 
Q 107.9614 176.515623 107.9614 176.689268 
Q 107.9614 176.808412 106.390544 176.894553 
Q 104.819688 176.980695 101.869658 177.024144 
L 106.264314 177.183104 
L 100.901898 177.183104 
L 97.339421 177.054422 
z
M 96.741 176.454612 
Q 94.169658 176.454612 92.753083 176.516077 
Q 91.336507 176.577541 91.336507 176.689268 
Q 91.336507 176.802811 92.720357 176.863216 
Q 94.108881 176.923469 96.741 176.923469 
Q 99.326367 176.923469 100.742943 176.862004 
Q 102.159518 176.800388 102.159518 176.689268 
Q 102.159518 176.577541 100.742943 176.516077 
Q 99.326367 176.454612 96.741 176.454612 
z
" clip-path="url(#p4f693a6913)" style="fill: #1e90ff"/>
   </g>
   <g id="patch_7">
    <path d="M 85.5206 175.196647 
L 107.494306 175.196647 
L 107.494306 175.373193 
L 93.664275 175.373193 
L 93.664275 175.541591 
L 106.6752 175.541591 
L 106.6752 175.718137 
L 93.664275 175.718137 
L 93.664275 175.92553 
L 107.9614 175.92553 
L 107.9614 176.101882 
L 85.5206 176.101882 
L 85.5206 175.196647 
z
" clip-path="url(#p4f693a6913)" style="fill: #b22222"/>
   </g>
   <g id="patch_8">
    <path d="M 106.090318 173.618203 
L 106.090318 173.8958 
Q 103.749941 173.847474 101.519269 173.823029 
Q 99.294692 173.798304 97.313905 173.798304 
Q 94.687076 173.798304 93.425466 173.83174 
Q 92.169952 173.864894 92.169952 173.935136 
Q 92.169952 173.987958 93.017119 174.01746 
Q 93.864287 174.046681 96.094959 174.067754 
L 99.215461 174.096694 
Q 103.957162 174.140806 105.956233 174.230435 
Q 107.9614 174.319783 107.9614 174.484993 
Q 107.9614 174.70162 105.170013 174.807546 
Q 102.378626 174.913471 96.643484 174.913471 
Q 93.943518 174.913471 91.219174 174.889589 
Q 88.494829 174.865987 85.770484 174.819347 
L 85.770484 174.534163 
Q 88.494829 174.600752 91.036332 174.63475 
Q 93.577835 174.668466 95.94259 174.668466 
Q 98.343914 174.668466 99.617713 174.631659 
Q 100.891512 174.594571 100.891512 174.526015 
Q 100.891512 174.464763 100.02606 174.431328 
Q 99.160608 174.397893 96.570348 174.371481 
L 93.730203 174.342542 
Q 89.463891 174.300396 87.489198 174.208238 
Q 85.5206 174.11608 85.5206 173.959861 
Q 85.5206 173.764026 88.263229 173.658662 
Q 91.005858 173.553299 96.149811 173.553299 
Q 98.496283 173.553299 100.970743 173.569595 
Q 103.445204 173.585891 106.090318 173.618203 
z
" clip-path="url(#p4f693a6913)" style="fill: #1e90ff"/>
   </g>
   <g id="patch_9">
    <path d="M 85.5206 171.608446 
L 107.9614 171.608446 
L 107.9614 171.916128 
L 99.887931 171.916128 
L 99.887931 173.186074 
L 93.609726 173.186074 
L 93.609726 171.916128 
L 85.5206 171.916128 
L 85.5206 171.608446 
z
" clip-path="url(#p4f693a6913)" style="fill: #1e90ff"/>
   </g>
   <g id="patch_10">
    <path d="M 101.065362 169.174643 
L 92.434991 169.174643 
L 91.072301 170.501076 
L 85.5206 170.501076 
L 93.448979 163.21974 
L 100.033021 163.21974 
L 107.9614 170.501076 
L 102.414288 170.501076 
L 101.065362 169.174643 
z
M 93.811446 167.823242 
L 99.675143 167.823242 
L 96.747882 164.926937 
L 93.811446 167.823242 
z
" clip-path="url(#p4f693a6913)" style="fill: #ffa500"/>
   </g>
   <g id="patch_11">
    <path d="M 94.625853 156.459369 
Q 96.639771 156.459369 97.513535 156.201833 
Q 98.387298 155.942457 98.387298 155.350125 
Q 98.387298 154.763311 97.513535 154.511293 
Q 96.639771 154.257437 94.625853 154.257437 
L 91.929974 154.257437 
L 91.929974 156.459369 
L 94.625853 156.459369 
z
M 91.929974 157.988028 
L 91.929974 161.23666 
L 85.5206 161.23666 
L 85.5206 152.653356 
L 95.307815 152.653356 
Q 100.22007 152.653356 102.505707 153.223614 
Q 104.796672 153.792032 104.796672 155.022686 
Q 104.796672 155.872555 103.603239 156.418899 
Q 102.415134 156.965243 100.017613 157.224618 
Q 101.333585 157.327633 102.372511 157.693702 
Q 103.416765 158.057931 104.48233 158.799266 
L 107.9614 161.23666 
L 101.136456 161.23666 
L 98.104923 159.104631 
Q 97.188537 158.460791 96.245512 158.225329 
Q 95.307815 157.988028 93.741434 157.988028 
L 91.929974 157.988028 
z
" clip-path="url(#p4f693a6913)" style="fill: #2e8b57"/>
   </g>
   <g id="patch_12">
    <path d="M 85.5206 140.76062 
L 92.14042 140.76062 
L 96.732352 145.907469 
L 101.354552 140.76062 
L 107.9614 140.76062 
L 107.9614 150.37824 
L 103.045178 150.37824 
L 103.045178 143.34332 
L 98.397036 148.529332 
L 95.097936 148.529332 
L 90.449793 143.34332 
L 90.449793 150.37824 
L 85.5206 150.37824 
L 85.5206 140.76062 
z
" clip-path="url(#p4f693a6913)" style="fill: #ffa500"/>
   </g>
   <g id="patch_13">
    <path d="M 113.5716 179.493785 
L 136.0124 179.493785 
L 136.0124 179.494863 
L 127.938931 179.494863 
L 127.938931 179.499309 
L 121.660726 179.499309 
L 121.660726 179.494863 
L 113.5716 179.494863 
L 113.5716 179.493785 
z
" clip-path="url(#p4f693a6913)" style="fill: #1e90ff"/>
   </g>
   <g id="patch_14">
    <path d="M 113.5716 178.879822 
L 117.45196 178.879822 
L 120.16451 179.275994 
L 122.856868 178.879822 
L 126.757421 178.879822 
L 129.449779 179.275994 
L 132.165694 178.879822 
L 136.0124 178.879822 
L 132.310408 179.424953 
L 127.642534 179.424953 
L 124.792 179.010555 
L 121.975121 179.424953 
L 117.303881 179.424953 
L 113.5716 178.879822 
z
" clip-path="url(#p4f693a6913)" style="fill: #ffa500"/>
   </g>
   <g id="patch_15">
    <path d="M 113.5716 177.614108 
L 135.545306 177.614108 
L 135.545306 177.821716 
L 121.715275 177.821716 
L 121.715275 178.019743 
L 134.7262 178.019743 
L 134.7262 178.227352 
L 121.715275 178.227352 
L 121.715275 178.471236 
L 136.0124 178.471236 
L 136.0124 178.678617 
L 113.5716 178.678617 
L 113.5716 177.614108 
z
" clip-path="url(#p4f693a6913)" style="fill: #b22222"/>
   </g>
   <g id="patch_16">
    <path d="M 125.390421 177.187728 
L 124.950956 177.187728 
Q 119.560489 177.187728 116.563707 177.067995 
Q 113.5716 176.948075 113.5716 176.734361 
Q 113.5716 176.521023 116.559032 176.400162 
Q 119.546463 176.279114 124.792 176.279114 
Q 130.093639 176.279114 133.05302 176.399035 
Q 136.0124 176.518767 136.0124 176.734361 
Q 136.0124 176.882288 134.441544 176.989239 
Q 132.870688 177.09619 129.920658 177.150135 
L 134.315314 177.347496 
L 128.952898 177.347496 
L 125.390421 177.187728 
z
M 124.792 176.443018 
Q 122.220658 176.443018 120.804083 176.519331 
Q 119.387507 176.595644 119.387507 176.734361 
Q 119.387507 176.875333 120.771357 176.95033 
Q 122.159881 177.02514 124.792 177.02514 
Q 127.377367 177.02514 128.793943 176.948827 
Q 130.210518 176.872326 130.210518 176.734361 
Q 130.210518 176.595644 128.793943 176.519331 
Q 127.377367 176.443018 124.792 176.443018 
z
" clip-path="url(#p4f693a6913)" style="fill: #1e90ff"/>
   </g>
   <g id="patch_17">
    <path d="M 136.0124 175.746239 
Q 133.749209 175.830076 131.315021 175.872186 
Q 128.880832 175.913914 126.285706 175.913914 
Q 120.421526 175.913914 116.996563 175.664316 
Q 113.5716 175.414719 113.5716 174.987876 
Q 113.5716 174.556057 117.056915 174.308374 
Q 120.547259 174.060691 126.617641 174.060691 
Q 128.956272 174.060691 131.09876 174.094379 
Q 133.246277 174.127684 135.147358 174.193529 
L 135.147358 174.562948 
Q 133.185925 174.478345 131.24461 174.436618 
Q 129.303295 174.394508 127.351921 174.394508 
Q 123.740873 174.394508 121.78447 174.548401 
Q 119.828067 174.701911 119.828067 174.987876 
Q 119.828067 175.271162 121.71406 175.42582 
Q 123.600053 175.580096 127.070279 175.580096 
Q 128.01579 175.580096 128.82551 175.571291 
Q 129.63523 175.562104 130.278982 175.542963 
L 130.278982 175.196129 
L 126.582436 175.196129 
L 126.582436 174.887195 
L 136.0124 174.887195 
L 136.0124 175.746239 
z
" clip-path="url(#p4f693a6913)" style="fill: #1e90ff"/>
   </g>
   <g id="patch_18">
    <path d="M 134.141318 169.002009 
L 134.141318 169.916484 
Q 131.800941 169.757284 129.570269 169.676759 
Q 127.345692 169.595307 125.364905 169.595307 
Q 122.738076 169.595307 121.476466 169.705452 
Q 120.220952 169.81467 120.220952 170.046066 
Q 120.220952 170.220076 121.068119 170.317262 
Q 121.915287 170.413522 124.145959 170.482941 
L 127.266461 170.578276 
Q 132.008162 170.723592 134.007233 171.018853 
Q 136.0124 171.313189 136.0124 171.857431 
Q 136.0124 172.571055 133.221013 172.92 
Q 130.429626 173.268945 124.694484 173.268945 
Q 121.994518 173.268945 119.270174 173.19027 
Q 116.545829 173.112521 113.821484 172.958875 
L 113.821484 172.019408 
Q 116.545829 172.238771 119.087332 172.350767 
Q 121.628835 172.461837 123.99359 172.461837 
Q 126.394914 172.461837 127.668713 172.340585 
Q 128.942512 172.218408 128.942512 171.992566 
Q 128.942512 171.790789 128.07706 171.680645 
Q 127.211608 171.570501 124.621348 171.483496 
L 121.781203 171.388161 
Q 117.514891 171.249323 115.540198 170.945732 
Q 113.5716 170.642141 113.5716 170.127517 
Q 113.5716 169.482386 116.314229 169.135293 
Q 119.056858 168.788199 124.200811 168.788199 
Q 126.547283 168.788199 129.021743 168.841883 
Q 131.496204 168.895567 134.141318 169.002009 
z
" clip-path="url(#p4f693a6913)" style="fill: #1e90ff"/>
   </g>
   <g id="patch_19">
    <path d="M 129.116362 165.203951 
L 120.485991 165.203951 
L 119.123301 166.99745 
L 113.5716 166.99745 
L 121.499979 157.152198 
L 128.084021 157.152198 
L 136.0124 166.99745 
L 130.465288 166.99745 
L 129.116362 165.203951 
z
M 121.862446 163.376692 
L 127.726143 163.376692 
L 124.798882 159.460536 
L 121.862446 163.376692 
z
" clip-path="url(#p4f693a6913)" style="fill: #ffa500"/>
   </g>
   <g id="patch_20">
    <path d="M 122.676853 149.161073 
Q 124.690771 149.161073 125.564535 148.863465 
Q 126.438298 148.563732 126.438298 147.879235 
Q 126.438298 147.201116 125.564535 146.909886 
Q 124.690771 146.61653 122.676853 146.61653 
L 119.980974 146.61653 
L 119.980974 149.161073 
L 122.676853 149.161073 
z
M 119.980974 150.927584 
L 119.980974 154.681688 
L 113.5716 154.681688 
L 113.5716 144.762862 
L 123.358815 144.762862 
Q 128.27107 144.762862 130.556707 145.421849 
Q 132.847672 146.078711 132.847672 147.500849 
Q 132.847672 148.482953 131.654239 149.114306 
Q 130.466134 149.745658 128.068613 150.045391 
Q 129.384585 150.164434 130.423511 150.587462 
Q 131.467765 151.008364 132.53333 151.865047 
L 136.0124 154.681688 
L 129.187456 154.681688 
L 126.155923 152.217925 
Q 125.239537 151.473906 124.296512 151.201808 
Q 123.358815 150.927584 121.792434 150.927584 
L 119.980974 150.927584 
z
" clip-path="url(#p4f693a6913)" style="fill: #2e8b57"/>
   </g>
   <g id="patch_21">
    <path d="M 113.5716 124.743601 
L 120.19142 124.743601 
L 124.783352 133.676721 
L 129.405552 124.743601 
L 136.0124 124.743601 
L 136.0124 141.436408 
L 131.096178 141.436408 
L 131.096178 129.22626 
L 126.448036 138.227353 
L 123.148936 138.227353 
L 118.500793 129.22626 
L 118.500793 141.436408 
L 113.5716 141.436408 
L 113.5716 124.743601 
z
" clip-path="url(#p4f693a6913)" style="fill: #ffa500"/>
   </g>
   <g id="patch_22">
    <path d="M 141.6226 179.193717 
L 148.079496 179.193717 
L 148.079496 179.29746 
L 157.606504 179.29746 
L 157.606504 179.193717 
L 164.0634 179.193717 
L 164.0634 179.465969 
L 157.606504 179.465969 
L 157.606504 179.350556 
L 148.079496 179.350556 
L 148.079496 179.465969 
L 141.6226 179.465969 
L 141.6226 179.193717 
z
" clip-path="url(#p4f693a6913)" style="fill: #2e8b57"/>
   </g>
   <g id="patch_23">
    <path d="M 164.0634 179.047095 
Q 162.186266 179.067434 160.156473 179.077722 
Q 158.12668 179.088128 155.915959 179.088128 
Q 149.323373 179.088128 145.472987 179.011028 
Q 141.6226 178.933927 141.6226 178.802076 
Q 141.6226 178.669751 145.472987 178.592769 
Q 149.323373 178.515668 155.915959 178.515668 
Q 158.12668 178.515668 160.156473 178.526074 
Q 162.186266 178.536362 164.0634 178.556702 
L 164.0634 178.670815 
Q 162.169304 178.643854 160.331748 178.631319 
Q 158.494192 178.618784 156.464399 178.618784 
Q 152.823211 178.618784 150.736878 178.667623 
Q 148.656199 178.716343 148.656199 178.802076 
Q 148.656199 178.887454 150.736878 178.936292 
Q 152.823211 178.985012 156.464399 178.985012 
Q 158.494192 178.985012 160.331748 178.972477 
Q 162.169304 178.959824 164.0634 178.932863 
L 164.0634 179.047095 
z
" clip-path="url(#p4f693a6913)" style="fill: #1e90ff"/>
   </g>
   <g id="patch_24">
    <path d="M 147.772095 177.881516 
L 147.772095 178.250637 
L 149.97528 178.250637 
Q 153.742677 178.250637 155.731167 178.203184 
Q 157.724769 178.155731 157.724769 178.065363 
Q 157.724769 177.975514 155.74139 177.928579 
Q 153.763124 177.881516 149.97528 177.881516 
L 147.772095 177.881516 
z
M 141.6226 177.763532 
L 148.104362 177.763532 
Q 153.538205 177.763532 156.196341 177.783239 
Q 158.854476 177.802816 160.756066 177.84988 
Q 162.432736 177.890851 163.245512 177.944397 
Q 164.0634 177.997814 164.0634 178.065363 
Q 164.0634 178.133949 163.245512 178.187625 
Q 162.432736 178.241302 160.756066 178.282142 
Q 158.839141 178.329206 156.155446 178.348913 
Q 153.471751 178.368491 148.104362 178.368491 
L 141.6226 178.368491 
L 141.6226 177.763532 
z
" clip-path="url(#p4f693a6913)" style="fill: #b22222"/>
   </g>
   <g id="patch_25">
    <path d="M 153.441421 177.404474 
L 153.001956 177.404474 
Q 147.611489 177.404474 144.614707 177.288774 
Q 141.6226 177.172892 141.6226 176.966376 
Q 141.6226 176.760223 144.610031 176.643433 
Q 147.597463 176.526461 152.843 176.526461 
Q 158.144639 176.526461 161.104019 176.642343 
Q 164.0634 176.758043 164.0634 176.966376 
Q 164.0634 177.109321 162.492544 177.21267 
Q 160.921688 177.316019 157.971658 177.368147 
L 162.366314 177.558862 
L 157.003898 177.558862 
L 153.441421 177.404474 
z
M 152.843 176.684845 
Q 150.271658 176.684845 148.855083 176.758588 
Q 147.438507 176.832331 147.438507 176.966376 
Q 147.438507 177.1026 148.822357 177.175072 
Q 150.210881 177.247362 152.843 177.247362 
Q 155.428367 177.247362 156.844943 177.173619 
Q 158.261518 177.099694 158.261518 176.966376 
Q 158.261518 176.832331 156.844943 176.758588 
Q 155.428367 176.684845 152.843 176.684845 
z
" clip-path="url(#p4f693a6913)" style="fill: #1e90ff"/>
   </g>
   <g id="patch_26">
    <path d="M 141.6226 174.71009 
L 145.50296 174.71009 
L 148.21551 175.800095 
L 150.907868 174.71009 
L 154.808421 174.71009 
L 157.500779 175.800095 
L 160.216694 174.71009 
L 164.0634 174.71009 
L 160.361408 176.209931 
L 155.693534 176.209931 
L 152.843 175.069782 
L 150.026121 176.209931 
L 145.354881 176.209931 
L 141.6226 174.71009 
z
" clip-path="url(#p4f693a6913)" style="fill: #ffa500"/>
   </g>
   <g id="patch_27">
    <path d="M 141.6226 169.888466 
L 163.596306 169.888466 
L 163.596306 170.691833 
L 149.766275 170.691833 
L 149.766275 171.45812 
L 162.7772 171.45812 
L 162.7772 172.261487 
L 149.766275 172.261487 
L 149.766275 173.205221 
L 164.0634 173.205221 
L 164.0634 174.007705 
L 141.6226 174.007705 
L 141.6226 169.888466 
z
" clip-path="url(#p4f693a6913)" style="fill: #b22222"/>
   </g>
   <g id="patch_28">
    <path d="M 157.167362 167.386226 
L 148.536991 167.386226 
L 147.174301 168.564831 
L 141.6226 168.564831 
L 149.550979 162.094984 
L 156.135021 162.094984 
L 164.0634 168.564831 
L 158.516288 168.564831 
L 157.167362 167.386226 
z
M 149.913446 166.185436 
L 155.777143 166.185436 
L 152.849882 163.611918 
L 149.913446 166.185436 
z
" clip-path="url(#p4f693a6913)" style="fill: #ffa500"/>
   </g>
   <g id="patch_29">
    <path d="M 141.6226 137.48981 
L 148.24242 137.48981 
L 152.834352 148.809469 
L 157.456552 137.48981 
L 164.0634 137.48981 
L 164.0634 158.642204 
L 159.147178 158.642204 
L 159.147178 143.170039 
L 154.499036 154.575831 
L 151.199936 154.575831 
L 146.551793 143.170039 
L 146.551793 158.642204 
L 141.6226 158.642204 
L 141.6226 137.48981 
z
" clip-path="url(#p4f693a6913)" style="fill: #ffa500"/>
   </g>
   <g id="patch_30">
    <path d="M 150.727853 119.05856 
Q 152.741771 119.05856 153.615535 118.363581 
Q 154.489298 117.663637 154.489298 116.065185 
Q 154.489298 114.481624 153.615535 113.801537 
Q 152.741771 113.116486 150.727853 113.116486 
L 148.031974 113.116486 
L 148.031974 119.05856 
L 150.727853 119.05856 
z
M 148.031974 123.183759 
L 148.031974 131.950427 
L 141.6226 131.950427 
L 141.6226 108.787758 
L 151.409815 108.787758 
Q 156.32207 108.787758 158.607707 110.326641 
Q 160.898672 111.860559 160.898672 115.181568 
Q 160.898672 117.475 159.705239 118.949349 
Q 158.517134 120.423698 156.119613 121.123642 
Q 157.435585 121.401633 158.474511 122.389497 
Q 159.518765 123.372396 160.58433 125.372944 
L 164.0634 131.950427 
L 157.238456 131.950427 
L 154.206923 126.196991 
Q 153.290537 124.459543 152.347512 123.824133 
Q 151.409815 123.183759 149.843434 123.183759 
L 148.031974 123.183759 
z
" clip-path="url(#p4f693a6913)" style="fill: #2e8b57"/>
   </g>
   <g id="patch_31">
    <path d="M 253.8266 179.486645 
L 276.2674 179.486645 
L 276.2674 179.48896 
L 268.193931 179.48896 
L 268.193931 179.498516 
L 261.915726 179.498516 
L 261.915726 179.48896 
L 253.8266 179.48896 
L 253.8266 179.486645 
z
" clip-path="url(#p4f693a6913)" style="fill: #1e90ff"/>
   </g>
   <g id="patch_32">
    <path d="M 253.8266 179.404743 
L 275.800306 179.404743 
L 275.800306 179.418684 
L 261.970275 179.418684 
L 261.970275 179.431982 
L 274.9812 179.431982 
L 274.9812 179.445923 
L 261.970275 179.445923 
L 261.970275 179.4623 
L 276.2674 179.4623 
L 276.2674 179.476226 
L 253.8266 179.476226 
L 253.8266 179.404743 
z
" clip-path="url(#p4f693a6913)" style="fill: #b22222"/>
   </g>
   <g id="patch_33">
    <path d="M 276.2674 179.362769 
Q 274.004209 179.369706 271.570021 179.37319 
Q 269.135832 179.376642 266.540706 179.376642 
Q 260.676526 179.376642 257.251563 179.355991 
Q 253.8266 179.33534 253.8266 179.300025 
Q 253.8266 179.264298 257.311915 179.243805 
Q 260.802259 179.223313 266.872641 179.223313 
Q 269.211272 179.223313 271.35376 179.2261 
Q 273.501277 179.228856 275.402358 179.234304 
L 275.402358 179.264868 
Q 273.440925 179.257868 271.49961 179.254416 
Q 269.558295 179.250932 267.606921 179.250932 
Q 263.995873 179.250932 262.03947 179.263664 
Q 260.083067 179.276365 260.083067 179.300025 
Q 260.083067 179.323463 261.96906 179.336259 
Q 263.855053 179.349023 267.325279 179.349023 
Q 268.27079 179.349023 269.08051 179.348295 
Q 269.89023 179.347534 270.533982 179.345951 
L 270.533982 179.317255 
L 266.837436 179.317255 
L 266.837436 179.291695 
L 276.2674 179.291695 
L 276.2674 179.362769 
z
" clip-path="url(#p4f693a6913)" style="fill: #1e90ff"/>
   </g>
   <g id="patch_34">
    <path d="M 276.2674 179.169871 
Q 274.390266 179.176063 272.360473 179.179195 
Q 270.33068 179.182363 268.119959 179.182363 
Q 261.527373 179.182363 257.676987 179.158892 
Q 253.8266 179.13542 253.8266 179.095282 
Q 253.8266 179.054999 257.676987 179.031563 
Q 261.527373 179.008092 268.119959 179.008092 
Q 270.33068 179.008092 272.360473 179.01126 
Q 274.390266 179.014392 276.2674 179.020584 
L 276.2674 179.055323 
Q 274.373304 179.047115 272.535748 179.043299 
Q 270.698192 179.039483 268.668399 179.039483 
Q 265.027211 179.039483 262.940878 179.054351 
Q 260.860199 179.069182 260.860199 179.095282 
Q 260.860199 179.121273 262.940878 179.13614 
Q 265.027211 179.150972 268.668399 179.150972 
Q 270.698192 179.150972 272.535748 179.147156 
Q 274.373304 179.143304 276.2674 179.135096 
L 276.2674 179.169871 
z
" clip-path="url(#p4f693a6913)" style="fill: #1e90ff"/>
   </g>
   <g id="patch_35">
    <path d="M 274.396318 178.756567 
L 274.396318 178.800091 
Q 272.055941 178.792514 269.825269 178.788682 
Q 267.600692 178.784805 265.619905 178.784805 
Q 262.993076 178.784805 261.731466 178.790047 
Q 260.475952 178.795245 260.475952 178.806259 
Q 260.475952 178.814541 261.323119 178.819166 
Q 262.170287 178.823748 264.400959 178.827052 
L 267.521461 178.831589 
Q 272.263162 178.838505 274.262233 178.852558 
Q 276.2674 178.866567 276.2674 178.89247 
Q 276.2674 178.926435 273.476013 178.943043 
Q 270.684626 178.959651 264.949484 178.959651 
Q 262.249518 178.959651 259.525174 178.955906 
Q 256.800829 178.952206 254.076484 178.944893 
L 254.076484 178.900179 
Q 256.800829 178.91062 259.342332 178.91595 
Q 261.883835 178.921237 264.24859 178.921237 
Q 266.649914 178.921237 267.923713 178.915466 
Q 269.197512 178.909651 269.197512 178.898902 
Q 269.197512 178.889298 268.33206 178.884056 
Q 267.466608 178.878814 264.876348 178.874673 
L 262.036203 178.870135 
Q 257.769891 178.863527 255.795198 178.849078 
Q 253.8266 178.834629 253.8266 178.810135 
Q 253.8266 178.779431 256.569229 178.762911 
Q 259.311858 178.746391 264.455811 178.746391 
Q 266.802283 178.746391 269.276743 178.748946 
Q 271.751204 178.751501 274.396318 178.756567 
z
" clip-path="url(#p4f693a6913)" style="fill: #1e90ff"/>
   </g>
   <g id="patch_36">
    <path d="M 253.8266 177.686399 
L 260.283496 177.686399 
L 260.283496 178.036405 
L 269.810504 178.036405 
L 269.810504 177.686399 
L 276.2674 177.686399 
L 276.2674 178.604918 
L 269.810504 178.604918 
L 269.810504 178.215542 
L 260.283496 178.215542 
L 260.283496 178.604918 
L 253.8266 178.604918 
L 253.8266 177.686399 
z
" clip-path="url(#p4f693a6913)" style="fill: #2e8b57"/>
   </g>
   <g id="patch_37">
    <path d="M 253.8266 175.192311 
L 265.491141 175.192311 
Q 270.698108 175.192311 273.479832 175.371802 
Q 276.2674 175.55084 276.2674 175.882172 
Q 276.2674 176.215318 273.479832 176.394356 
Q 270.698108 176.573393 265.491141 176.573393 
L 260.856882 176.573393 
L 260.856882 177.30722 
L 253.8266 177.30722 
L 253.8266 175.192311 
z
M 260.856882 175.587554 
L 260.856882 176.178151 
L 264.743114 176.178151 
Q 266.7885 176.178151 267.904696 176.101097 
Q 269.020892 176.024043 269.020892 175.882172 
Q 269.020892 175.740755 267.904696 175.664154 
Q 266.7885 175.587554 264.743114 175.587554 
L 260.856882 175.587554 
z
" clip-path="url(#p4f693a6913)" style="fill: #ff1493"/>
   </g>
   <g id="patch_38">
    <path d="M 253.8266 171.474234 
L 260.44642 171.474234 
L 265.038352 173.11712 
L 269.660552 171.474234 
L 276.2674 171.474234 
L 276.2674 174.544202 
L 271.351178 174.544202 
L 271.351178 172.298638 
L 266.703036 173.954025 
L 263.403936 173.954025 
L 258.755793 172.298638 
L 258.755793 174.544202 
L 253.8266 174.544202 
L 253.8266 171.474234 
z
" clip-path="url(#p4f693a6913)" style="fill: #ffa500"/>
   </g>
   <g id="patch_39">
    <path d="M 269.371362 168.913763 
L 260.740991 168.913763 
L 259.378301 170.204686 
L 253.8266 170.204686 
L 261.754979 163.118276 
L 268.339021 163.118276 
L 276.2674 170.204686 
L 270.720288 170.204686 
L 269.371362 168.913763 
z
M 262.117446 167.59854 
L 267.981143 167.59854 
L 265.053882 164.77977 
L 262.117446 167.59854 
z
" clip-path="url(#p4f693a6913)" style="fill: #ffa500"/>
   </g>
   <g id="patch_40">
    <path d="M 253.8266 145.853732 
L 257.70696 145.853732 
L 260.41951 156.434352 
L 263.111868 145.853732 
L 267.012421 145.853732 
L 269.704779 156.434352 
L 272.420694 145.853732 
L 276.2674 145.853732 
L 272.565408 160.412615 
L 267.897534 160.412615 
L 265.047 149.345243 
L 262.230121 160.412615 
L 257.558881 160.412615 
L 253.8266 145.853732 
z
" clip-path="url(#p4f693a6913)" style="fill: #ffa500"/>
   </g>
   <g id="patch_41">
    <path d="M 253.8266 95.470065 
L 259.740353 95.470065 
L 259.740353 111.22549 
L 268.264416 95.470065 
L 275.131841 95.470065 
L 264.085954 115.916036 
L 276.2674 138.637894 
L 268.864148 138.637894 
L 259.740353 121.633507 
L 259.740353 138.637894 
L 253.8266 138.637894 
L 253.8266 95.470065 
z
" clip-path="url(#p4f693a6913)" style="fill: #2e8b57"/>
   </g>
   <g id="patch_42">
    <path d="M 262.931853 54.247892 
Q 264.945771 54.247892 265.819535 52.670762 
Q 266.693298 51.082367 266.693298 47.454968 
Q 266.693298 43.861365 265.819535 42.318031 
Q 264.945771 40.763432 262.931853 40.763432 
L 260.235974 40.763432 
L 260.235974 54.247892 
L 262.931853 54.247892 
z
M 260.235974 63.609284 
L 260.235974 83.503651 
L 253.8266 83.503651 
L 253.8266 30.940166 
L 263.613815 30.940166 
Q 268.52607 30.940166 270.811707 34.432382 
Q 273.102672 37.913333 273.102672 45.44976 
Q 273.102672 50.654289 271.909239 54.000057 
Q 270.721134 57.345826 268.323613 58.934221 
Q 269.639585 59.565073 270.678511 61.80685 
Q 271.722765 64.037362 272.78833 68.577243 
L 276.2674 83.503651 
L 269.442456 83.503651 
L 266.410923 70.447269 
Q 265.494537 66.504444 264.551512 65.062497 
Q 263.613815 63.609284 262.047434 63.609284 
L 260.235974 63.609284 
z
" clip-path="url(#p4f693a6913)" style="fill: #2e8b57"/>
   </g>
   <g id="patch_43">
    <path d="M 281.8776 179.140107 
L 288.49742 179.140107 
L 293.089352 179.311304 
L 297.711552 179.140107 
L 304.3184 179.140107 
L 304.3184 179.460012 
L 299.402178 179.460012 
L 299.402178 179.226014 
L 294.754036 179.398513 
L 291.454936 179.398513 
L 286.806793 179.226014 
L 286.806793 179.460012 
L 281.8776 179.460012 
L 281.8776 179.140107 
z
" clip-path="url(#p4f693a6913)" style="fill: #ffa500"/>
   </g>
   <g id="patch_44">
    <path d="M 297.422362 177.315645 
L 288.791991 177.315645 
L 287.429301 178.373941 
L 281.8776 178.373941 
L 289.805979 172.564519 
L 296.390021 172.564519 
L 304.3184 178.373941 
L 298.771288 178.373941 
L 297.422362 177.315645 
z
M 290.168446 176.237429 
L 296.032143 176.237429 
L 293.104882 173.926608 
L 290.168446 176.237429 
z
" clip-path="url(#p4f693a6913)" style="fill: #ffa500"/>
   </g>
   <g id="patch_45">
    <path d="M 290.982853 148.920105 
Q 292.996771 148.920105 293.870535 147.911206 
Q 294.744298 146.895099 294.744298 144.57463 
Q 294.744298 142.27578 293.870535 141.2885 
Q 292.996771 140.294013 290.982853 140.294013 
L 288.286974 140.294013 
L 288.286974 148.920105 
L 290.982853 148.920105 
z
M 288.286974 154.908645 
L 288.286974 167.635193 
L 281.8776 167.635193 
L 281.8776 134.01001 
L 291.664815 134.01001 
Q 296.57707 134.01001 298.862707 136.244002 
Q 301.153672 138.470788 301.153672 143.291887 
Q 301.153672 146.621255 299.960239 148.761564 
Q 298.772134 150.901872 296.374613 151.917978 
Q 297.690585 152.321538 298.729511 153.755617 
Q 299.773765 155.182489 300.83933 158.086679 
L 304.3184 167.635193 
L 297.493456 167.635193 
L 294.461923 159.282946 
Q 293.545537 156.760697 292.602512 155.838274 
Q 291.664815 154.908645 290.098434 154.908645 
L 288.286974 154.908645 
z
" clip-path="url(#p4f693a6913)" style="fill: #2e8b57"/>
   </g>
   <g id="patch_46">
    <path d="M 296.566646 93.915157 
L 304.3184 122.74476 
L 298.315342 122.74476 
L 293.093209 103.444303 
L 287.909403 122.74476 
L 281.8776 122.74476 
L 289.634145 93.915157 
L 282.174639 66.24794 
L 288.19686 66.24794 
L 293.093209 84.446551 
L 297.970394 66.24794 
L 304.021361 66.24794 
L 296.566646 93.915157 
z
" clip-path="url(#p4f693a6913)"/>
   </g>
   <g id="patch_47">
    <path d="M 309.9286 179.159491 
L 316.54842 179.159491 
L 321.140352 179.321467 
L 325.762552 179.159491 
L 332.3694 179.159491 
L 332.3694 179.462166 
L 327.453178 179.462166 
L 327.453178 179.240771 
L 322.805036 179.403979 
L 319.505936 179.403979 
L 314.857793 179.240771 
L 314.857793 179.462166 
L 309.9286 179.462166 
L 309.9286 179.159491 
z
" clip-path="url(#p4f693a6913)" style="fill: #ffa500"/>
   </g>
   <g id="patch_48">
    <path d="M 309.9286 178.307488 
L 332.3694 178.307488 
L 332.3694 178.448631 
L 324.295931 178.448631 
L 324.295931 179.031194 
L 318.017726 179.031194 
L 318.017726 178.448631 
L 309.9286 178.448631 
L 309.9286 178.307488 
z
" clip-path="url(#p4f693a6913)" style="fill: #1e90ff"/>
   </g>
   <g id="patch_49">
    <path d="M 325.473362 177.307096 
L 316.842991 177.307096 
L 315.480301 177.846736 
L 309.9286 177.846736 
L 317.856979 174.884429 
L 324.441021 174.884429 
L 332.3694 177.846736 
L 326.822288 177.846736 
L 325.473362 177.307096 
z
M 318.219446 176.757298 
L 324.083143 176.757298 
L 321.155882 175.578978 
L 318.219446 176.757298 
z
" clip-path="url(#p4f693a6913)" style="fill: #ffa500"/>
   </g>
   <g id="patch_50">
    <path d="M 309.9286 171.101855 
L 313.80896 171.101855 
L 316.52151 173.306182 
L 319.213868 171.101855 
L 323.114421 171.101855 
L 325.806779 173.306182 
L 328.522694 171.101855 
L 332.3694 171.101855 
L 328.667408 174.134998 
L 323.999534 174.134998 
L 321.149 171.829263 
L 318.332121 174.134998 
L 313.660881 174.134998 
L 309.9286 171.101855 
z
" clip-path="url(#p4f693a6913)" style="fill: #ffa500"/>
   </g>
   <g id="patch_51">
    <path d="M 319.033853 163.712841 
Q 321.047771 163.712841 321.921535 163.404255 
Q 322.795298 163.093464 322.795298 162.383716 
Q 322.795298 161.680579 321.921535 161.378605 
Q 321.047771 161.074427 319.033853 161.074427 
L 316.337974 161.074427 
L 316.337974 163.712841 
L 319.033853 163.712841 
z
M 316.337974 165.544522 
L 316.337974 169.437119 
L 309.9286 169.437119 
L 309.9286 159.152375 
L 319.715815 159.152375 
Q 324.62807 159.152375 326.913707 159.835673 
Q 329.204672 160.516768 329.204672 161.99137 
Q 329.204672 163.009705 328.011239 163.664349 
Q 326.823134 164.318993 324.425613 164.629784 
Q 325.741585 164.753218 326.780511 165.191852 
Q 327.824765 165.628281 328.89033 166.516569 
L 332.3694 169.437119 
L 325.544456 169.437119 
L 322.512923 166.882464 
Q 321.596537 166.110998 320.653512 165.828862 
Q 319.715815 165.544522 318.149434 165.544522 
L 316.337974 165.544522 
z
" clip-path="url(#p4f693a6913)" style="fill: #2e8b57"/>
   </g>
   <g id="patch_52">
    <path d="M 324.617646 138.427983 
L 332.3694 154.041977 
L 326.366342 154.041977 
L 321.144209 143.588929 
L 315.960403 154.041977 
L 309.9286 154.041977 
L 317.685145 138.427983 
L 310.225639 123.443533 
L 316.24786 123.443533 
L 321.144209 133.299825 
L 326.021394 123.443533 
L 332.072361 123.443533 
L 324.617646 138.427983 
z
" clip-path="url(#p4f693a6913)"/>
   </g>
   <g id="patch_53">
    <path d="M 91.670095 179.580748 
L 91.670095 179.734699 
L 93.87328 179.734699 
Q 97.640677 179.734699 99.629167 179.714908 
Q 101.622769 179.695116 101.622769 179.657426 
Q 101.622769 179.619952 99.63939 179.600377 
Q 97.661124 179.580748 93.87328 179.580748 
L 91.670095 179.580748 
z
M 85.5206 179.531539 
L 92.002362 179.531539 
Q 97.436205 179.531539 100.094341 179.539759 
Q 102.752476 179.547924 104.654066 179.567553 
Q 106.330736 179.584641 107.143512 179.606974 
Q 107.9614 179.629253 107.9614 179.657426 
Q 107.9614 179.686032 107.143512 179.708419 
Q 106.330736 179.730806 104.654066 179.74784 
Q 102.737141 179.767469 100.053446 179.775688 
Q 97.369751 179.783854 92.002362 179.783854 
L 85.5206 179.783854 
L 85.5206 179.531539 
z
" clip-path="url(#p4f693a6913)" style="fill: #b22222"/>
   </g>
   <g id="patch_54">
    <path d="M 85.754147 205.369263 
L 107.727853 205.369263 
L 107.727853 206.346196 
L 93.897822 206.346196 
L 93.897822 207.278039 
L 106.908747 207.278039 
L 106.908747 208.254972 
L 93.897822 208.254972 
L 93.897822 210.378459 
L 85.754147 210.378459 
L 85.754147 205.369263 
z
" clip-path="url(#p4f693a6913)" style="fill: #ffa500"/>
   </g>
   <g id="patch_55">
    <path d="M 85.5206 185.180908 
L 91.977496 185.180908 
L 91.977496 186.015856 
L 101.504504 186.015856 
L 101.504504 185.180908 
L 107.9614 185.180908 
L 107.9614 187.372058 
L 101.504504 187.372058 
L 101.504504 186.443191 
L 91.977496 186.443191 
L 91.977496 187.372058 
L 85.5206 187.372058 
L 85.5206 185.180908 
z
" clip-path="url(#p4f693a6913)" style="fill: #2e8b57"/>
   </g>
   <g id="patch_56">
    <path d="M 92.669163 211.848306 
L 100.812837 211.848306 
L 100.812837 218.597885 
L 92.669163 218.597885 
L 92.669163 211.848306 
z
" clip-path="url(#p4f693a6913)" style="fill: #ffa500"/>
   </g>
   <g id="patch_57">
    <path d="M 85.5206 181.168114 
L 91.434353 181.168114 
L 91.434353 181.602421 
L 99.958416 181.168114 
L 106.825841 181.168114 
L 95.779954 181.731719 
L 107.9614 182.35806 
L 100.558148 182.35806 
L 91.434353 181.889324 
L 91.434353 182.35806 
L 85.5206 182.35806 
L 85.5206 181.168114 
z
" clip-path="url(#p4f693a6913)" style="fill: #2e8b57"/>
   </g>
   <g id="patch_58">
    <path d="M 85.5206 195.452472 
L 93.664275 195.452472 
L 93.664275 198.353291 
L 107.9614 198.353291 
L 107.9614 199.055139 
L 85.5206 199.055139 
L 85.5206 195.452472 
z
" clip-path="url(#p4f693a6913)" style="fill: #ffa500"/>
   </g>
   <g id="patch_59">
    <path d="M 85.5206 182.746825 
L 92.728922 182.746825 
L 101.837278 184.0637 
L 101.837278 182.746825 
L 107.9614 182.746825 
L 107.9614 184.666994 
L 100.747711 184.666994 
L 91.639354 183.350118 
L 91.639354 184.666994 
L 85.5206 184.666994 
L 85.5206 182.746825 
z
" clip-path="url(#p4f693a6913)" style="fill: #1e90ff"/>
   </g>
   <g id="patch_60">
    <path d="M 85.5206 179.935791 
L 97.185141 179.935791 
Q 102.392108 179.935791 105.173832 180.017535 
Q 107.9614 180.099073 107.9614 180.249971 
Q 107.9614 180.401693 105.173832 180.483232 
Q 102.392108 180.56477 97.185141 180.56477 
L 92.550882 180.56477 
L 92.550882 180.898973 
L 85.5206 180.898973 
L 85.5206 179.935791 
z
M 92.550882 180.115794 
L 92.550882 180.384767 
L 96.437114 180.384767 
Q 98.4825 180.384767 99.598696 180.349674 
Q 100.714892 180.314582 100.714892 180.249971 
Q 100.714892 180.185566 99.598696 180.15068 
Q 98.4825 180.115794 96.437114 180.115794 
L 92.550882 180.115794 
z
" clip-path="url(#p4f693a6913)" style="fill: #ff1493"/>
   </g>
   <g id="patch_61">
    <path d="M 85.5206 191.416588 
L 91.072301 191.416588 
L 96.747882 193.769045 
L 102.414288 191.416588 
L 107.9614 191.416588 
L 100.033021 194.603744 
L 93.448979 194.603744 
L 85.5206 191.416588 
z
" clip-path="url(#p4f693a6913)" style="fill: #ffa500"/>
   </g>
   <g id="patch_62">
    <path d="M 100.209646 202.081189 
L 107.9614 204.21935 
L 101.958342 204.21935 
L 96.736209 202.787922 
L 91.552403 204.21935 
L 85.5206 204.21935 
L 93.277145 202.081189 
L 85.817639 200.029237 
L 91.83986 200.029237 
L 96.736209 201.378945 
L 101.613394 200.029237 
L 107.664361 200.029237 
L 100.209646 202.081189 
z
" clip-path="url(#p4f693a6913)"/>
   </g>
   <g id="patch_63">
    <path d="M 85.5206 187.983176 
L 91.724821 187.983176 
L 96.736286 188.944691 
L 101.743035 187.983176 
L 107.9614 187.983176 
L 99.579101 189.544265 
L 99.579101 190.68097 
L 93.907613 190.68097 
L 93.907613 189.544265 
L 85.5206 187.983176 
z
" clip-path="url(#p4f693a6913)" style="fill: #ffa500"/>
   </g>
   <g id="patch_64">
    <path d="M 136.0124 180.017567 
Q 134.135266 180.035025 132.105473 180.043855 
Q 130.07568 180.052787 127.864959 180.052787 
Q 121.272373 180.052787 117.421987 179.986609 
Q 113.5716 179.92043 113.5716 179.807256 
Q 113.5716 179.693677 117.421987 179.6276 
Q 121.272373 179.561421 127.864959 179.561421 
Q 130.07568 179.561421 132.105473 179.570353 
Q 134.135266 179.579184 136.0124 179.596642 
L 136.0124 179.69459 
Q 134.118304 179.671448 132.280748 179.660689 
Q 130.443192 179.64993 128.413399 179.64993 
Q 124.772211 179.64993 122.685878 179.69185 
Q 120.605199 179.733668 120.605199 179.807256 
Q 120.605199 179.88054 122.685878 179.92246 
Q 124.772211 179.964279 128.413399 179.964279 
Q 130.443192 179.964279 132.280748 179.953519 
Q 134.118304 179.942659 136.0124 179.919517 
L 136.0124 180.017567 
z
" clip-path="url(#p4f693a6913)" style="fill: #1e90ff"/>
   </g>
   <g id="patch_65">
    <path d="M 119.721095 180.540729 
L 119.721095 181.353925 
L 121.92428 181.353925 
Q 125.691677 181.353925 127.680167 181.249384 
Q 129.673769 181.144842 129.673769 180.945756 
Q 129.673769 180.747813 127.69039 180.644414 
Q 125.712124 180.540729 121.92428 180.540729 
L 119.721095 180.540729 
z
M 113.5716 180.280803 
L 120.053362 180.280803 
Q 125.487205 180.280803 128.145341 180.32422 
Q 130.803476 180.36735 132.705066 180.471035 
Q 134.381736 180.561295 135.194512 180.679261 
Q 136.0124 180.796942 136.0124 180.945756 
Q 136.0124 181.096856 135.194512 181.215108 
Q 134.381736 181.333359 132.705066 181.423334 
Q 130.788141 181.527018 128.104446 181.570435 
Q 125.420751 181.613565 120.053362 181.613565 
L 113.5716 181.613565 
L 113.5716 180.280803 
z
" clip-path="url(#p4f693a6913)" style="fill: #b22222"/>
   </g>
   <g id="patch_66">
    <path d="M 113.805147 207.755244 
L 135.778853 207.755244 
L 135.778853 208.823216 
L 121.948822 208.823216 
L 121.948822 209.841897 
L 134.959747 209.841897 
L 134.959747 210.909868 
L 121.948822 210.909868 
L 121.948822 213.23124 
L 113.805147 213.23124 
L 113.805147 207.755244 
z
" clip-path="url(#p4f693a6913)" style="fill: #ffa500"/>
   </g>
   <g id="patch_67">
    <path d="M 113.5716 189.227539 
L 120.028496 189.227539 
L 120.028496 190.266994 
L 129.555504 190.266994 
L 129.555504 189.227539 
L 136.0124 189.227539 
L 136.0124 191.955378 
L 129.555504 191.955378 
L 129.555504 190.798998 
L 120.028496 190.798998 
L 120.028496 191.955378 
L 113.5716 191.955378 
L 113.5716 189.227539 
z
" clip-path="url(#p4f693a6913)" style="fill: #2e8b57"/>
   </g>
   <g id="patch_68">
    <path d="M 120.720163 225.917585 
L 128.863837 225.917585 
L 128.863837 235.184621 
L 120.720163 235.184621 
L 120.720163 225.917585 
z
" clip-path="url(#p4f693a6913)" style="fill: #ffa500"/>
   </g>
   <g id="patch_69">
    <path d="M 113.5716 181.951587 
L 119.485353 181.951587 
L 119.485353 182.452126 
L 128.009416 181.951587 
L 134.876841 181.951587 
L 123.830954 182.601142 
L 136.0124 183.323 
L 128.609148 183.323 
L 119.485353 182.782782 
L 119.485353 183.323 
L 113.5716 183.323 
L 113.5716 181.951587 
z
" clip-path="url(#p4f693a6913)" style="fill: #2e8b57"/>
   </g>
   <g id="patch_70">
    <path d="M 113.5716 215.000086 
L 121.715275 215.000086 
L 121.715275 221.984895 
L 136.0124 221.984895 
L 136.0124 223.674859 
L 113.5716 223.674859 
L 113.5716 215.000086 
z
" clip-path="url(#p4f693a6913)" style="fill: #ffa500"/>
   </g>
   <g id="patch_71">
    <path d="M 113.5716 183.760261 
L 120.779922 183.760261 
L 129.888278 185.218763 
L 129.888278 183.760261 
L 136.0124 183.760261 
L 136.0124 185.886939 
L 128.798711 185.886939 
L 119.690354 184.428437 
L 119.690354 185.886939 
L 113.5716 185.886939 
L 113.5716 183.760261 
z
" clip-path="url(#p4f693a6913)" style="fill: #1e90ff"/>
   </g>
   <g id="patch_72">
    <path d="M 113.5716 201.240382 
L 125.236141 201.240382 
Q 130.443108 201.240382 133.224832 201.680221 
Q 136.0124 202.118949 136.0124 202.930873 
Q 136.0124 203.747241 133.224832 204.185969 
Q 130.443108 204.624697 125.236141 204.624697 
L 120.601882 204.624697 
L 120.601882 206.422927 
L 113.5716 206.422927 
L 113.5716 201.240382 
z
M 120.601882 202.208916 
L 120.601882 203.656163 
L 124.488114 203.656163 
Q 126.5335 203.656163 127.649696 203.467343 
Q 128.765892 203.278524 128.765892 202.930873 
Q 128.765892 202.584334 127.649696 202.396625 
Q 126.5335 202.208916 124.488114 202.208916 
L 120.601882 202.208916 
z
" clip-path="url(#p4f693a6913)" style="fill: #ff1493"/>
   </g>
   <g id="patch_73">
    <path d="M 113.5716 196.678762 
L 119.123301 196.678762 
L 124.798882 199.246583 
L 130.465288 196.678762 
L 136.0124 196.678762 
L 128.084021 200.157697 
L 121.499979 200.157697 
L 113.5716 196.678762 
z
" clip-path="url(#p4f693a6913)" style="fill: #ffa500"/>
   </g>
   <g id="patch_74">
    <path d="M 128.260646 187.497168 
L 136.0124 188.61318 
L 130.009342 188.61318 
L 124.787209 187.866047 
L 119.603403 188.61318 
L 113.5716 188.61318 
L 121.328145 187.497168 
L 113.868639 186.426152 
L 119.89086 186.426152 
L 124.787209 187.130632 
L 129.664394 186.426152 
L 135.715361 186.426152 
L 128.260646 187.497168 
z
" clip-path="url(#p4f693a6913)"/>
   </g>
   <g id="patch_75">
    <path d="M 113.5716 192.691111 
L 119.775821 192.691111 
L 124.787286 193.816659 
L 129.794035 192.691111 
L 136.0124 192.691111 
L 127.630101 194.518518 
L 127.630101 195.849141 
L 121.958613 195.849141 
L 121.958613 194.518518 
L 113.5716 192.691111 
z
" clip-path="url(#p4f693a6913)" style="fill: #ffa500"/>
   </g>
   <g id="patch_76">
    <path d="M 141.856147 222.693604 
L 163.829853 222.693604 
L 163.829853 224.807769 
L 149.999822 224.807769 
L 149.999822 226.824358 
L 163.010747 226.824358 
L 163.010747 228.938523 
L 149.999822 228.938523 
L 149.999822 233.533929 
L 141.856147 233.533929 
L 141.856147 222.693604 
z
" clip-path="url(#p4f693a6913)" style="fill: #ffa500"/>
   </g>
   <g id="patch_77">
    <path d="M 164.0634 181.616202 
Q 161.800209 181.67267 159.366021 181.701033 
Q 156.931832 181.729138 154.336706 181.729138 
Q 148.472526 181.729138 145.047563 181.561024 
Q 141.6226 181.39291 141.6226 181.105415 
Q 141.6226 180.814567 145.107915 180.647743 
Q 148.598259 180.480918 154.668641 180.480918 
Q 157.007272 180.480918 159.14976 180.503608 
Q 161.297277 180.526041 163.198358 180.57039 
L 163.198358 180.819208 
Q 161.236925 180.762225 159.29561 180.73412 
Q 157.354295 180.705757 155.402921 180.705757 
Q 151.791873 180.705757 149.83547 180.80941 
Q 147.879067 180.912806 147.879067 181.105415 
Q 147.879067 181.296219 149.76506 181.400388 
Q 151.651053 181.504298 155.121279 181.504298 
Q 156.06679 181.504298 156.87651 181.498368 
Q 157.68623 181.49218 158.329982 181.479288 
L 158.329982 181.245681 
L 154.633436 181.245681 
L 154.633436 181.037602 
L 164.0634 181.037602 
L 164.0634 181.616202 
z
" clip-path="url(#p4f693a6913)" style="fill: #1e90ff"/>
   </g>
   <g id="patch_78">
    <path d="M 148.771163 187.932877 
L 156.914837 187.932877 
L 156.914837 193.449605 
L 148.771163 193.449605 
L 148.771163 187.932877 
z
" clip-path="url(#p4f693a6913)" style="fill: #ffa500"/>
   </g>
   <g id="patch_79">
    <path d="M 141.6226 195.008274 
L 147.536353 195.008274 
L 147.536353 197.545845 
L 156.060416 195.008274 
L 162.927841 195.008274 
L 151.881954 198.301305 
L 164.0634 201.960891 
L 156.660148 201.960891 
L 147.536353 199.222161 
L 147.536353 201.960891 
L 141.6226 201.960891 
L 141.6226 195.008274 
z
" clip-path="url(#p4f693a6913)" style="fill: #2e8b57"/>
   </g>
   <g id="patch_80">
    <path d="M 141.6226 236.71083 
L 149.766275 236.71083 
L 149.766275 248.44633 
L 164.0634 248.44633 
L 164.0634 251.285715 
L 141.6226 251.285715 
L 141.6226 236.71083 
z
" clip-path="url(#p4f693a6913)" style="fill: #ffa500"/>
   </g>
   <g id="patch_81">
    <path d="M 141.6226 184.326822 
L 148.830922 184.326822 
L 157.939278 186.104731 
L 157.939278 184.326822 
L 164.0634 184.326822 
L 164.0634 186.919235 
L 156.849711 186.919235 
L 147.741354 185.141326 
L 147.741354 186.919235 
L 141.6226 186.919235 
L 141.6226 184.326822 
z
" clip-path="url(#p4f693a6913)" style="fill: #1e90ff"/>
   </g>
   <g id="patch_82">
    <path d="M 141.6226 179.53113 
L 153.287141 179.53113 
Q 158.494108 179.53113 161.275832 179.552265 
Q 164.0634 179.573348 164.0634 179.612363 
Q 164.0634 179.651592 161.275832 179.672675 
Q 158.494108 179.693757 153.287141 179.693757 
L 148.652882 179.693757 
L 148.652882 179.780168 
L 141.6226 179.780168 
L 141.6226 179.53113 
z
M 148.652882 179.577671 
L 148.652882 179.647216 
L 152.539114 179.647216 
Q 154.5845 179.647216 155.700696 179.638142 
Q 156.816892 179.629069 156.816892 179.612363 
Q 156.816892 179.595711 155.700696 179.586691 
Q 154.5845 179.577671 152.539114 179.577671 
L 148.652882 179.577671 
z
" clip-path="url(#p4f693a6913)" style="fill: #ff1493"/>
   </g>
   <g id="patch_83">
    <path d="M 162.192318 204.070235 
L 162.192318 205.535785 
Q 159.851941 205.280649 157.621269 205.151597 
Q 155.396692 205.021063 153.415905 205.021063 
Q 150.789076 205.021063 149.527466 205.197581 
Q 148.271952 205.372617 148.271952 205.743454 
Q 148.271952 206.022324 149.119119 206.178076 
Q 149.966287 206.332345 152.196959 206.443596 
L 155.317461 206.596381 
Q 160.059162 206.829267 162.058233 207.302456 
Q 164.0634 207.774162 164.0634 208.646372 
Q 164.0634 209.790036 161.272013 210.349259 
Q 158.480626 210.908483 152.745484 210.908483 
Q 150.045518 210.908483 147.321174 210.782398 
Q 144.596829 210.657796 141.872484 210.41156 
L 141.872484 208.905959 
Q 144.596829 209.257513 147.138332 209.436998 
Q 149.679835 209.615001 152.04459 209.615001 
Q 154.445914 209.615001 155.719713 209.420682 
Q 156.993512 209.224879 156.993512 208.862942 
Q 156.993512 208.539571 156.12806 208.363052 
Q 155.262608 208.186534 152.672348 208.047099 
L 149.832203 207.894313 
Q 145.565891 207.671811 143.591198 207.185272 
Q 141.6226 206.698733 141.6226 205.873989 
Q 141.6226 204.840094 144.365229 204.283837 
Q 147.107858 203.727581 152.251811 203.727581 
Q 154.598283 203.727581 157.072743 203.813615 
Q 159.547204 203.899649 162.192318 204.070235 
z
" clip-path="url(#p4f693a6913)" style="fill: #1e90ff"/>
   </g>
   <g id="patch_84">
    <path d="M 141.6226 179.862657 
L 164.0634 179.862657 
L 164.0634 179.942789 
L 155.989931 179.942789 
L 155.989931 180.273531 
L 149.711726 180.273531 
L 149.711726 179.942789 
L 141.6226 179.942789 
L 141.6226 179.862657 
z
" clip-path="url(#p4f693a6913)" style="fill: #1e90ff"/>
   </g>
   <g id="patch_85">
    <path d="M 141.6226 182.096926 
L 147.174301 182.096926 
L 152.849882 183.347338 
L 158.516288 182.096926 
L 164.0634 182.096926 
L 156.135021 183.79101 
L 149.550979 183.79101 
L 141.6226 182.096926 
z
" clip-path="url(#p4f693a6913)" style="fill: #ffa500"/>
   </g>
   <g id="patch_86">
    <path d="M 141.6226 212.759342 
L 147.826821 212.759342 
L 152.838286 215.477301 
L 157.845035 212.759342 
L 164.0634 212.759342 
L 155.681101 217.172143 
L 155.681101 220.385316 
L 150.009613 220.385316 
L 150.009613 217.172143 
L 141.6226 212.759342 
z
" clip-path="url(#p4f693a6913)" style="fill: #ffa500"/>
   </g>
   <g id="patch_87">
    <path d="M 259.976095 179.544798 
L 259.976095 179.567108 
L 262.17928 179.567108 
Q 265.946677 179.567108 267.935167 179.56424 
Q 269.928769 179.561372 269.928769 179.55591 
Q 269.928769 179.550479 267.94539 179.547643 
Q 265.967124 179.544798 262.17928 179.544798 
L 259.976095 179.544798 
z
M 253.8266 179.537667 
L 260.308362 179.537667 
Q 265.742205 179.537667 268.400341 179.538858 
Q 271.058476 179.540042 272.960066 179.542886 
Q 274.636736 179.545362 275.449512 179.548599 
Q 276.2674 179.551827 276.2674 179.55591 
Q 276.2674 179.560055 275.449512 179.5633 
Q 274.636736 179.566544 272.960066 179.569012 
Q 271.043141 179.571857 268.359446 179.573048 
Q 265.675751 179.574231 260.308362 179.574231 
L 253.8266 179.574231 
L 253.8266 179.537667 
z
" clip-path="url(#p4f693a6913)" style="fill: #b22222"/>
   </g>
   <g id="patch_88">
    <path d="M 254.060147 192.874654 
L 276.033853 192.874654 
L 276.033853 195.007871 
L 262.203822 195.007871 
L 262.203822 197.042631 
L 275.214747 197.042631 
L 275.214747 199.175848 
L 262.203822 199.175848 
L 262.203822 203.812664 
L 254.060147 203.812664 
L 254.060147 192.874654 
z
" clip-path="url(#p4f693a6913)" style="fill: #ffa500"/>
   </g>
   <g id="patch_89">
    <path d="M 260.975163 234.891331 
L 269.118837 234.891331 
L 269.118837 272.477052 
L 260.975163 272.477052 
L 260.975163 234.891331 
z
" clip-path="url(#p4f693a6913)" style="fill: #ffa500"/>
   </g>
   <g id="patch_90">
    <path d="M 253.8266 282.920768 
L 261.970275 282.920768 
L 261.970275 319.93036 
L 276.2674 319.93036 
L 276.2674 328.88477 
L 253.8266 328.88477 
L 253.8266 282.920768 
z
" clip-path="url(#p4f693a6913)" style="fill: #ffa500"/>
   </g>
   <g id="patch_91">
    <path d="M 253.8266 179.50331 
L 261.034922 179.50331 
L 270.143278 179.521468 
L 270.143278 179.50331 
L 276.2674 179.50331 
L 276.2674 179.529787 
L 269.053711 179.529787 
L 259.945354 179.511629 
L 259.945354 179.529787 
L 253.8266 179.529787 
L 253.8266 179.50331 
z
" clip-path="url(#p4f693a6913)" style="fill: #1e90ff"/>
   </g>
   <g id="patch_92">
    <path d="M 265.645421 179.631325 
L 265.205956 179.631325 
Q 259.815489 179.631325 256.818707 179.625291 
Q 253.8266 179.619247 253.8266 179.608476 
Q 253.8266 179.597724 256.814031 179.591633 
Q 259.801463 179.585532 265.047 179.585532 
Q 270.348639 179.585532 273.30802 179.591576 
Q 276.2674 179.597611 276.2674 179.608476 
Q 276.2674 179.615932 274.696544 179.621322 
Q 273.125688 179.626712 270.175658 179.629431 
L 274.570314 179.639378 
L 269.207898 179.639378 
L 265.645421 179.631325 
z
M 265.047 179.593793 
Q 262.475658 179.593793 261.059083 179.597639 
Q 259.642507 179.601485 259.642507 179.608476 
Q 259.642507 179.615581 261.026357 179.619361 
Q 262.414881 179.623131 265.047 179.623131 
Q 267.632367 179.623131 269.048943 179.619285 
Q 270.465518 179.61543 270.465518 179.608476 
Q 270.465518 179.601485 269.048943 179.597639 
Q 267.632367 179.593793 265.047 179.593793 
z
" clip-path="url(#p4f693a6913)" style="fill: #1e90ff"/>
   </g>
   <g id="patch_93">
    <path d="M 253.8266 207.681235 
L 259.378301 207.681235 
L 265.053882 222.451139 
L 270.720288 207.681235 
L 276.2674 207.681235 
L 268.339021 227.691796 
L 261.754979 227.691796 
L 253.8266 207.681235 
z
" clip-path="url(#p4f693a6913)" style="fill: #ffa500"/>
   </g>
   <g id="patch_94">
    <path d="M 253.8266 180.832238 
L 260.030821 180.832238 
L 265.042286 184.214206 
L 270.049035 180.832238 
L 276.2674 180.832238 
L 267.885101 186.323107 
L 267.885101 190.321273 
L 262.213613 190.321273 
L 262.213613 186.323107 
L 253.8266 180.832238 
z
" clip-path="url(#p4f693a6913)" style="fill: #ffa500"/>
   </g>
   <g id="patch_95">
    <path d="M 304.3184 183.134925 
Q 302.441266 183.224028 300.411473 183.269098 
Q 298.38168 183.314685 296.170959 183.314685 
Q 289.578373 183.314685 285.727987 182.976923 
Q 281.8776 182.63916 281.8776 182.061545 
Q 281.8776 181.481858 285.727987 181.144613 
Q 289.578373 180.806851 296.170959 180.806851 
Q 298.38168 180.806851 300.411473 180.852438 
Q 302.441266 180.897508 304.3184 180.986611 
L 304.3184 181.48652 
Q 302.424304 181.368407 300.586748 181.313494 
Q 298.749192 181.258582 296.719399 181.258582 
Q 293.078211 181.258582 290.991878 181.472533 
Q 288.911199 181.685966 288.911199 182.061545 
Q 288.911199 182.43557 290.991878 182.649521 
Q 293.078211 182.862954 296.719399 182.862954 
Q 298.749192 182.862954 300.586748 182.808042 
Q 302.424304 182.752611 304.3184 182.634498 
L 304.3184 183.134925 
z
" clip-path="url(#p4f693a6913)" style="fill: #1e90ff"/>
   </g>
   <g id="patch_96">
    <path d="M 288.027095 206.005692 
L 288.027095 208.636642 
L 290.23028 208.636642 
Q 293.997677 208.636642 295.986167 208.298417 
Q 297.979769 207.960191 297.979769 207.316085 
Q 297.979769 206.675674 295.99639 206.341145 
Q 294.018124 206.005692 290.23028 206.005692 
L 288.027095 206.005692 
z
M 281.8776 205.164749 
L 288.359362 205.164749 
Q 293.793205 205.164749 296.451341 205.305214 
Q 299.109476 205.444756 301.011066 205.780209 
Q 302.687736 206.072228 303.500512 206.453887 
Q 304.3184 206.834622 304.3184 207.316085 
Q 304.3184 207.80494 303.500512 208.187523 
Q 302.687736 208.570106 301.011066 208.861202 
Q 299.094141 209.196655 296.410446 209.33712 
Q 293.726751 209.476661 288.359362 209.476661 
L 281.8776 209.476661 
L 281.8776 205.164749 
z
" clip-path="url(#p4f693a6913)" style="fill: #b22222"/>
   </g>
   <g id="patch_97">
    <path d="M 281.8776 223.150611 
L 303.851306 223.150611 
L 303.851306 224.302304 
L 290.021275 224.302304 
L 290.021275 225.400842 
L 303.0322 225.400842 
L 303.0322 226.552535 
L 290.021275 226.552535 
L 290.021275 227.905458 
L 304.3184 227.905458 
L 304.3184 229.055885 
L 281.8776 229.055885 
L 281.8776 223.150611 
z
" clip-path="url(#p4f693a6913)" style="fill: #b22222"/>
   </g>
   <g id="patch_98">
    <path d="M 282.111147 258.550092 
L 304.084853 258.550092 
L 304.084853 260.461699 
L 290.254822 260.461699 
L 290.254822 262.285078 
L 303.265747 262.285078 
L 303.265747 264.196684 
L 290.254822 264.196684 
L 290.254822 268.351804 
L 282.111147 268.351804 
L 282.111147 258.550092 
z
" clip-path="url(#p4f693a6913)" style="fill: #ffa500"/>
   </g>
   <g id="patch_99">
    <path d="M 304.3184 199.481565 
Q 302.055209 199.640167 299.621021 199.71983 
Q 297.186832 199.798769 294.591706 199.798769 
Q 288.727526 199.798769 285.302563 199.326584 
Q 281.8776 198.8544 281.8776 198.046907 
Q 281.8776 197.229999 285.362915 196.761435 
Q 288.853259 196.292872 294.923641 196.292872 
Q 297.262272 196.292872 299.40476 196.356602 
Q 301.552277 196.419609 303.453358 196.544173 
L 303.453358 197.243035 
Q 301.491925 197.082984 299.55061 197.004045 
Q 297.609295 196.924382 295.657921 196.924382 
Q 292.046873 196.924382 290.09047 197.215515 
Q 288.134067 197.505922 288.134067 198.046907 
Q 288.134067 198.582822 290.02006 198.875402 
Q 291.906053 199.167258 295.376279 199.167258 
Q 296.32179 199.167258 297.13151 199.150602 
Q 297.94123 199.133221 298.584982 199.09701 
L 298.584982 198.440877 
L 294.888436 198.440877 
L 294.888436 197.85644 
L 304.3184 197.85644 
L 304.3184 199.481565 
z
" clip-path="url(#p4f693a6913)" style="fill: #1e90ff"/>
   </g>
   <g id="patch_100">
    <path d="M 281.8776 191.939436 
L 288.334496 191.939436 
L 288.334496 193.265573 
L 297.861504 193.265573 
L 297.861504 191.939436 
L 304.3184 191.939436 
L 304.3184 195.419613 
L 297.861504 195.419613 
L 297.861504 193.944304 
L 288.334496 193.944304 
L 288.334496 195.419613 
L 281.8776 195.419613 
L 281.8776 191.939436 
z
" clip-path="url(#p4f693a6913)" style="fill: #2e8b57"/>
   </g>
   <g id="patch_101">
    <path d="M 289.026163 248.220059 
L 297.169837 248.220059 
L 297.169837 256.313231 
L 289.026163 256.313231 
L 289.026163 248.220059 
z
" clip-path="url(#p4f693a6913)" style="fill: #ffa500"/>
   </g>
   <g id="patch_102">
    <path d="M 281.8776 200.675881 
L 287.791353 200.675881 
L 287.791353 201.95733 
L 296.315416 200.675881 
L 303.182841 200.675881 
L 292.136954 202.33883 
L 304.3184 204.186885 
L 296.915148 204.186885 
L 287.791353 202.803853 
L 287.791353 204.186885 
L 281.8776 204.186885 
L 281.8776 200.675881 
z
" clip-path="url(#p4f693a6913)" style="fill: #2e8b57"/>
   </g>
   <g id="patch_103">
    <path d="M 281.8776 210.562348 
L 290.021275 210.562348 
L 290.021275 214.083901 
L 304.3184 214.083901 
L 304.3184 214.935935 
L 281.8776 214.935935 
L 281.8776 210.562348 
z
" clip-path="url(#p4f693a6913)" style="fill: #ffa500"/>
   </g>
   <g id="patch_104">
    <path d="M 281.8776 216.175615 
L 289.085922 216.175615 
L 298.194278 219.977659 
L 298.194278 216.175615 
L 304.3184 216.175615 
L 304.3184 221.71947 
L 297.104711 221.71947 
L 287.996354 217.917426 
L 287.996354 221.71947 
L 281.8776 221.71947 
L 281.8776 216.175615 
z
" clip-path="url(#p4f693a6913)" style="fill: #1e90ff"/>
   </g>
   <g id="patch_105">
    <path d="M 281.8776 285.717668 
L 293.542141 285.717668 
Q 298.749108 285.717668 301.530832 286.781098 
Q 304.3184 287.841843 304.3184 289.804893 
Q 304.3184 291.778684 301.530832 292.839429 
Q 298.749108 293.900174 293.542141 293.900174 
L 288.907882 293.900174 
L 288.907882 298.247885 
L 281.8776 298.247885 
L 281.8776 285.717668 
z
M 288.907882 288.059363 
L 288.907882 291.558479 
L 292.794114 291.558479 
Q 294.8395 291.558479 295.955696 291.101956 
Q 297.071892 290.645433 297.071892 289.804893 
Q 297.071892 288.967039 295.955696 288.513201 
Q 294.8395 288.059363 292.794114 288.059363 
L 288.907882 288.059363 
z
" clip-path="url(#p4f693a6913)" style="fill: #ff1493"/>
   </g>
   <g id="patch_106">
    <path d="M 293.696421 190.576545 
L 293.256956 190.576545 
Q 287.866489 190.576545 284.869707 190.197786 
Q 281.8776 189.818433 281.8776 189.142375 
Q 281.8776 188.467507 284.865031 188.085181 
Q 287.852463 187.70226 293.098 187.70226 
Q 298.399639 187.70226 301.359019 188.081614 
Q 304.3184 188.460372 304.3184 189.142375 
Q 304.3184 189.610324 302.747544 189.94865 
Q 301.176688 190.286976 298.226658 190.457625 
L 302.621315 191.081952 
L 297.258898 191.081952 
L 293.696421 190.576545 
z
M 293.098 188.220749 
Q 290.526658 188.220749 289.110083 188.462156 
Q 287.693507 188.703562 287.693507 189.142375 
Q 287.693507 189.588324 289.077357 189.825568 
Q 290.465881 190.062218 293.098 190.062218 
Q 295.683367 190.062218 297.099943 189.820811 
Q 298.516518 189.57881 298.516518 189.142375 
Q 298.516518 188.703562 297.099943 188.462156 
Q 295.683367 188.220749 293.098 188.220749 
z
" clip-path="url(#p4f693a6913)" style="fill: #1e90ff"/>
   </g>
   <g id="patch_107">
    <path d="M 302.447318 271.590816 
L 302.447318 273.970404 
Q 300.106941 273.556144 297.876269 273.346605 
Q 295.651692 273.134658 293.670905 273.134658 
Q 291.044076 273.134658 289.782466 273.421268 
Q 288.526952 273.70547 288.526952 274.307592 
Q 288.526952 274.760388 289.374119 275.01328 
Q 290.221287 275.263763 292.451959 275.4444 
L 295.572461 275.692474 
Q 300.314162 276.070607 302.313233 276.838915 
Q 304.3184 277.604815 304.3184 279.021007 
Q 304.3184 280.877952 301.527013 281.785953 
Q 298.735626 282.693954 293.000484 282.693954 
Q 290.300518 282.693954 287.576174 282.489232 
Q 284.851829 282.286919 282.127484 281.88711 
L 282.127484 279.442493 
Q 284.851829 280.013305 287.393332 280.304732 
Q 289.934835 280.593751 292.29959 280.593751 
Q 294.700914 280.593751 295.974713 280.278238 
Q 297.248512 279.960318 297.248512 279.372646 
Q 297.248512 278.847596 296.38306 278.560985 
Q 295.517608 278.274375 292.927348 278.047977 
L 290.087203 277.799903 
Q 285.820891 277.438629 283.846198 276.648644 
Q 281.8776 275.85866 281.8776 274.51954 
Q 281.8776 272.840822 284.620229 271.937639 
Q 287.362858 271.034455 292.506811 271.034455 
Q 294.853283 271.034455 297.327743 271.174147 
Q 299.802204 271.31384 302.447318 271.590816 
z
" clip-path="url(#p4f693a6913)" style="fill: #1e90ff"/>
   </g>
   <g id="patch_108">
    <path d="M 281.8776 238.767272 
L 304.3184 238.767272 
L 304.3184 240.230612 
L 296.244931 240.230612 
L 296.244931 246.270508 
L 289.966726 246.270508 
L 289.966726 240.230612 
L 281.8776 240.230612 
L 281.8776 238.767272 
z
" clip-path="url(#p4f693a6913)" style="fill: #1e90ff"/>
   </g>
   <g id="patch_109">
    <path d="M 281.8776 183.993328 
L 287.429301 183.993328 
L 293.104882 186.149561 
L 298.771288 183.993328 
L 304.3184 183.993328 
L 296.390021 186.914635 
L 289.805979 186.914635 
L 281.8776 183.993328 
z
" clip-path="url(#p4f693a6913)" style="fill: #ffa500"/>
   </g>
   <g id="patch_110">
    <path d="M 281.8776 179.599337 
L 285.75796 179.599337 
L 288.47051 180.176881 
L 291.162868 179.599337 
L 295.063421 179.599337 
L 297.755779 180.176881 
L 300.471694 179.599337 
L 304.3184 179.599337 
L 300.616408 180.394034 
L 295.948534 180.394034 
L 293.098 179.789921 
L 290.281121 180.394034 
L 285.609881 180.394034 
L 281.8776 179.599337 
z
" clip-path="url(#p4f693a6913)" style="fill: #ffa500"/>
   </g>
   <g id="patch_111">
    <path d="M 281.8776 230.597577 
L 288.081821 230.597577 
L 293.093286 232.88866 
L 298.100035 230.597577 
L 304.3184 230.597577 
L 295.936101 234.317315 
L 295.936101 237.025835 
L 290.264613 237.025835 
L 290.264613 234.317315 
L 281.8776 230.597577 
z
" clip-path="url(#p4f693a6913)" style="fill: #ffa500"/>
   </g>
   <g id="patch_112">
    <path d="M 332.3694 180.731167 
Q 330.492266 180.765425 328.462473 180.782753 
Q 326.43268 180.80028 324.221959 180.80028 
Q 317.629373 180.80028 313.778987 180.670418 
Q 309.9286 180.540556 309.9286 180.318477 
Q 309.9286 180.0956 313.778987 179.965937 
Q 317.629373 179.836075 324.221959 179.836075 
Q 326.43268 179.836075 328.462473 179.853603 
Q 330.492266 179.870931 332.3694 179.905189 
L 332.3694 180.097393 
Q 330.475304 180.051981 328.637748 180.030868 
Q 326.800192 180.009756 324.770399 180.009756 
Q 321.129211 180.009756 319.042878 180.092015 
Q 316.962199 180.174075 316.962199 180.318477 
Q 316.962199 180.462281 319.042878 180.54454 
Q 321.129211 180.6266 324.770399 180.6266 
Q 326.800192 180.6266 328.637748 180.605487 
Q 330.475304 180.584176 332.3694 180.538764 
L 332.3694 180.731167 
z
" clip-path="url(#p4f693a6913)" style="fill: #1e90ff"/>
   </g>
   <g id="patch_113">
    <path d="M 316.078095 196.354824 
L 316.078095 197.963561 
L 318.28128 197.963561 
Q 322.048677 197.963561 324.037167 197.756748 
Q 326.030769 197.549934 326.030769 197.156085 
Q 326.030769 196.764495 324.04739 196.559942 
Q 322.069124 196.354824 318.28128 196.354824 
L 316.078095 196.354824 
z
M 309.9286 195.840615 
L 316.410362 195.840615 
Q 321.844205 195.840615 324.502341 195.926505 
Q 327.160476 196.01183 329.062066 196.216948 
Q 330.738736 196.395508 331.551512 196.62888 
Q 332.3694 196.861686 332.3694 197.156085 
Q 332.3694 197.455004 331.551512 197.68894 
Q 330.738736 197.922877 329.062066 198.100872 
Q 327.145141 198.30599 324.461446 198.39188 
Q 321.777751 198.477205 316.410362 198.477205 
L 309.9286 198.477205 
L 309.9286 195.840615 
z
" clip-path="url(#p4f693a6913)" style="fill: #b22222"/>
   </g>
   <g id="patch_114">
    <path d="M 309.9286 185.058272 
L 331.902306 185.058272 
L 331.902306 185.423737 
L 318.072275 185.423737 
L 318.072275 185.772334 
L 331.0832 185.772334 
L 331.0832 186.137799 
L 318.072275 186.137799 
L 318.072275 186.56712 
L 332.3694 186.56712 
L 332.3694 186.932183 
L 309.9286 186.932183 
L 309.9286 185.058272 
z
" clip-path="url(#p4f693a6913)" style="fill: #b22222"/>
   </g>
   <g id="patch_115">
    <path d="M 310.162147 230.904347 
L 332.135853 230.904347 
L 332.135853 232.373891 
L 318.305822 232.373891 
L 318.305822 233.775609 
L 331.316747 233.775609 
L 331.316747 235.245153 
L 318.305822 235.245153 
L 318.305822 238.439392 
L 310.162147 238.439392 
L 310.162147 230.904347 
z
" clip-path="url(#p4f693a6913)" style="fill: #ffa500"/>
   </g>
   <g id="patch_116">
    <path d="M 332.3694 184.426207 
Q 330.106209 184.509729 327.672021 184.55168 
Q 325.237832 184.593251 322.642706 184.593251 
Q 316.778526 184.593251 313.353563 184.344592 
Q 309.9286 184.095933 309.9286 183.670695 
Q 309.9286 183.2405 313.413915 182.993748 
Q 316.904259 182.746996 322.974641 182.746996 
Q 325.313272 182.746996 327.45576 182.780557 
Q 329.603277 182.813737 331.504358 182.879334 
L 331.504358 183.247365 
Q 329.542925 183.16308 327.60161 183.12151 
Q 325.660295 183.079558 323.708921 183.079558 
Q 320.097873 183.079558 318.14147 183.232872 
Q 316.185067 183.385805 316.185067 183.670695 
Q 316.185067 183.952916 318.07106 184.106993 
Q 319.957053 184.260688 323.427279 184.260688 
Q 324.37279 184.260688 325.18251 184.251917 
Q 325.99223 184.242764 326.635982 184.223695 
L 326.635982 183.878165 
L 322.939436 183.878165 
L 322.939436 183.570393 
L 332.3694 183.570393 
L 332.3694 184.426207 
z
" clip-path="url(#p4f693a6913)" style="fill: #1e90ff"/>
   </g>
   <g id="patch_117">
    <path d="M 309.9286 189.935074 
L 316.385496 189.935074 
L 316.385496 190.742302 
L 325.912504 190.742302 
L 325.912504 189.935074 
L 332.3694 189.935074 
L 332.3694 192.05348 
L 325.912504 192.05348 
L 325.912504 191.15545 
L 316.385496 191.15545 
L 316.385496 192.05348 
L 309.9286 192.05348 
L 309.9286 189.935074 
z
" clip-path="url(#p4f693a6913)" style="fill: #2e8b57"/>
   </g>
   <g id="patch_118">
    <path d="M 317.077163 214.359862 
L 325.220837 214.359862 
L 325.220837 220.589991 
L 317.077163 220.589991 
L 317.077163 214.359862 
z
" clip-path="url(#p4f693a6913)" style="fill: #ffa500"/>
   </g>
   <g id="patch_119">
    <path d="M 309.9286 179.521555 
L 315.842353 179.521555 
L 315.842353 179.584492 
L 324.366416 179.521555 
L 331.233841 179.521555 
L 320.187954 179.603229 
L 332.3694 179.693995 
L 324.966148 179.693995 
L 315.842353 179.626068 
L 315.842353 179.693995 
L 309.9286 179.693995 
L 309.9286 179.521555 
z
" clip-path="url(#p4f693a6913)" style="fill: #2e8b57"/>
   </g>
   <g id="patch_120">
    <path d="M 309.9286 222.228128 
L 318.072275 222.228128 
L 318.072275 227.763759 
L 332.3694 227.763759 
L 332.3694 229.103095 
L 309.9286 229.103095 
L 309.9286 222.228128 
z
" clip-path="url(#p4f693a6913)" style="fill: #ffa500"/>
   </g>
   <g id="patch_121">
    <path d="M 309.9286 199.148862 
L 317.136922 199.148862 
L 326.245278 201.025704 
L 326.245278 199.148862 
L 332.3694 199.148862 
L 332.3694 201.885532 
L 325.155711 201.885532 
L 316.047354 200.00869 
L 316.047354 201.885532 
L 309.9286 201.885532 
L 309.9286 199.148862 
z
" clip-path="url(#p4f693a6913)" style="fill: #1e90ff"/>
   </g>
   <g id="patch_122">
    <path d="M 309.9286 207.356236 
L 321.593141 207.356236 
Q 326.800108 207.356236 329.581832 207.825835 
Q 332.3694 208.294249 332.3694 209.16111 
Q 332.3694 210.032715 329.581832 210.501129 
Q 326.800108 210.969542 321.593141 210.969542 
L 316.958882 210.969542 
L 316.958882 212.889445 
L 309.9286 212.889445 
L 309.9286 207.356236 
z
M 316.958882 208.390303 
L 316.958882 209.935475 
L 320.845114 209.935475 
Q 322.8905 209.935475 324.006696 209.733879 
Q 325.122892 209.532284 325.122892 209.16111 
Q 325.122892 208.791123 324.006696 208.590713 
Q 322.8905 208.390303 320.845114 208.390303 
L 316.958882 208.390303 
z
" clip-path="url(#p4f693a6913)" style="fill: #ff1493"/>
   </g>
   <g id="patch_123">
    <path d="M 321.747421 182.165808 
L 321.307956 182.165808 
Q 315.917489 182.165808 312.920707 182.022771 
Q 309.9286 181.87951 309.9286 181.6242 
Q 309.9286 181.369339 312.916032 181.224955 
Q 315.903463 181.080347 321.149 181.080347 
Q 326.450639 181.080347 329.41002 181.223608 
Q 332.3694 181.366644 332.3694 181.6242 
Q 332.3694 181.800919 330.798544 181.928686 
Q 329.227688 182.056453 326.277658 182.120898 
L 330.672315 182.356673 
L 325.309898 182.356673 
L 321.747421 182.165808 
z
M 321.149 181.276152 
Q 318.577658 181.276152 317.161083 181.367318 
Q 315.744507 181.458484 315.744507 181.6242 
Q 315.744507 181.79261 317.128357 181.882205 
Q 318.516881 181.971574 321.149 181.971574 
Q 323.734367 181.971574 325.150943 181.880408 
Q 326.567518 181.789018 326.567518 181.6242 
Q 326.567518 181.458484 325.150943 181.367318 
Q 323.734367 181.276152 321.149 181.276152 
z
" clip-path="url(#p4f693a6913)" style="fill: #1e90ff"/>
   </g>
   <g id="patch_124">
    <path d="M 330.498318 192.759437 
L 330.498318 193.280726 
Q 328.157941 193.189975 325.927269 193.144072 
Q 323.702692 193.097642 321.721905 193.097642 
Q 319.095076 193.097642 317.833466 193.160429 
Q 316.577952 193.222688 316.577952 193.354593 
Q 316.577952 193.453785 317.425119 193.509185 
Q 318.272287 193.564058 320.502959 193.603629 
L 323.623461 193.657974 
Q 328.365162 193.740811 330.364233 193.909121 
Q 332.3694 194.076905 332.3694 194.387145 
Q 332.3694 194.79394 329.578013 194.992853 
Q 326.786626 195.191765 321.051484 195.191765 
Q 318.351518 195.191765 315.627174 195.146918 
Q 312.902829 195.102598 310.178484 195.015013 
L 310.178484 194.479479 
Q 312.902829 194.604524 315.444332 194.668366 
Q 317.985835 194.731681 320.35059 194.731681 
Q 322.751914 194.731681 324.025713 194.662563 
Q 325.299512 194.592917 325.299512 194.464178 
Q 325.299512 194.349156 324.43406 194.28637 
Q 323.568608 194.223583 320.978348 194.173987 
L 318.138203 194.119642 
Q 313.871891 194.040499 311.897198 193.867439 
Q 309.9286 193.69438 309.9286 193.401023 
Q 309.9286 193.033272 312.671229 192.835415 
Q 315.413858 192.637557 320.557811 192.637557 
Q 322.904283 192.637557 325.378743 192.668159 
Q 327.853204 192.698761 330.498318 192.759437 
z
" clip-path="url(#p4f693a6913)" style="fill: #1e90ff"/>
   </g>
   <g id="patch_125">
    <path d="M 309.9286 187.416807 
L 315.480301 187.416807 
L 321.155882 188.895292 
L 326.822288 187.416807 
L 332.3694 187.416807 
L 324.441021 189.419888 
L 317.856979 189.419888 
L 309.9286 187.416807 
z
" clip-path="url(#p4f693a6913)" style="fill: #ffa500"/>
   </g>
   <g id="patch_126">
    <path d="M 309.9286 202.671313 
L 316.132821 202.671313 
L 321.144286 203.93641 
L 326.151035 202.671313 
L 332.3694 202.671313 
L 323.987101 204.725289 
L 323.987101 206.220888 
L 318.315613 206.220888 
L 318.315613 204.725289 
L 309.9286 202.671313 
z
" clip-path="url(#p4f693a6913)" style="fill: #ffa500"/>
   </g>
   <g id="matplotlib.axis_1">
    <g id="xtick_1">
     <g id="line2d_2">
      <defs>
       <path id="m71c4dca7de" d="M 0 0 
L 0 3.5 
" style="stroke: #000000; stroke-width: 0.8"/>
      </defs>
      <g>
       <use xlink:href="#m71c4dca7de" x="96.741" y="332.12" style="stroke: #000000; stroke-width: 0.8"/>
      </g>
     </g>
    </g>
    <g id="xtick_2">
     <g id="line2d_3">
      <g>
       <use xlink:href="#m71c4dca7de" x="124.792" y="332.12" style="stroke: #000000; stroke-width: 0.8"/>
      </g>
     </g>
    </g>
    <g id="xtick_3">
     <g id="line2d_4">
      <g>
       <use xlink:href="#m71c4dca7de" x="152.843" y="332.12" style="stroke: #000000; stroke-width: 0.8"/>
      </g>
     </g>
     <g id="text_1">
      <!-- N-term -->
      <g transform="translate(135.423469 346.718437) scale(0.1 -0.1)">
       <defs>
        <path id="DejaVuSans-4e" d="M 628 4666 
L 1478 4666 
L 3547 763 
L 3547 4666 
L 4159 4666 
L 4159 0 
L 3309 0 
L 1241 3903 
L 1241 0 
L 628 0 
L 628 4666 
z
" transform="scale(0.015625)"/>
        <path id="DejaVuSans-2d" d="M 313 2009 
L 1997 2009 
L 1997 1497 
L 313 1497 
L 313 2009 
z
" transform="scale(0.015625)"/>
        <path id="DejaVuSans-74" d="M 1172 4494 
L 1172 3500 
L 2356 3500 
L 2356 3053 
L 1172 3053 
L 1172 1153 
Q 1172 725 1289 603 
Q 1406 481 1766 481 
L 2356 481 
L 2356 0 
L 1766 0 
Q 1100 0 847 248 
Q 594 497 594 1153 
L 594 3053 
L 172 3053 
L 172 3500 
L 594 3500 
L 594 4494 
L 1172 4494 
z
" transform="scale(0.015625)"/>
        <path id="DejaVuSans-65" d="M 3597 1894 
L 3597 1613 
L 953 1613 
Q 991 1019 1311 708 
Q 1631 397 2203 397 
Q 2534 397 2845 478 
Q 3156 559 3463 722 
L 3463 178 
Q 3153 47 2828 -22 
Q 2503 -91 2169 -91 
Q 1331 -91 842 396 
Q 353 884 353 1716 
Q 353 2575 817 3079 
Q 1281 3584 2069 3584 
Q 2775 3584 3186 3129 
Q 3597 2675 3597 1894 
z
M 3022 2063 
Q 3016 2534 2758 2815 
Q 2500 3097 2075 3097 
Q 1594 3097 1305 2825 
Q 1016 2553 972 2059 
L 3022 2063 
z
" transform="scale(0.015625)"/>
        <path id="DejaVuSans-72" d="M 2631 2963 
Q 2534 3019 2420 3045 
Q 2306 3072 2169 3072 
Q 1681 3072 1420 2755 
Q 1159 2438 1159 1844 
L 1159 0 
L 581 0 
L 581 3500 
L 1159 3500 
L 1159 2956 
Q 1341 3275 1631 3429 
Q 1922 3584 2338 3584 
Q 2397 3584 2469 3576 
Q 2541 3569 2628 3553 
L 2631 2963 
z
" transform="scale(0.015625)"/>
        <path id="DejaVuSans-6d" d="M 3328 2828 
Q 3544 3216 3844 3400 
Q 4144 3584 4550 3584 
Q 5097 3584 5394 3201 
Q 5691 2819 5691 2113 
L 5691 0 
L 5113 0 
L 5113 2094 
Q 5113 2597 4934 2840 
Q 4756 3084 4391 3084 
Q 3944 3084 3684 2787 
Q 3425 2491 3425 1978 
L 3425 0 
L 2847 0 
L 2847 2094 
Q 2847 2600 2669 2842 
Q 2491 3084 2119 3084 
Q 1678 3084 1418 2786 
Q 1159 2488 1159 1978 
L 1159 0 
L 581 0 
L 581 3500 
L 1159 3500 
L 1159 2956 
Q 1356 3278 1631 3431 
Q 1906 3584 2284 3584 
Q 2666 3584 2933 3390 
Q 3200 3197 3328 2828 
z
" transform="scale(0.015625)"/>
       </defs>
       <use xlink:href="#DejaVuSans-4e"/>
       <use xlink:href="#DejaVuSans-2d" x="74.804688"/>
       <use xlink:href="#DejaVuSans-74" x="110.888672"/>
       <use xlink:href="#DejaVuSans-65" x="150.097656"/>
       <use xlink:href="#DejaVuSans-72" x="211.621094"/>
       <use xlink:href="#DejaVuSans-6d" x="250.984375"/>
      </g>
     </g>
    </g>
    <g id="xtick_4">
     <g id="line2d_5">
      <g>
       <use xlink:href="#m71c4dca7de" x="180.894" y="332.12" style="stroke: #000000; stroke-width: 0.8"/>
      </g>
     </g>
    </g>
    <g id="xtick_5">
     <g id="line2d_6">
      <g>
       <use xlink:href="#m71c4dca7de" x="208.945" y="332.12" style="stroke: #000000; stroke-width: 0.8"/>
      </g>
     </g>
     <g id="text_2">
      <!-- ... -->
      <g transform="translate(204.177812 346.718437) scale(0.1 -0.1)">
       <defs>
        <path id="DejaVuSans-2e" d="M 684 794 
L 1344 794 
L 1344 0 
L 684 0 
L 684 794 
z
" transform="scale(0.015625)"/>
       </defs>
       <use xlink:href="#DejaVuSans-2e"/>
       <use xlink:href="#DejaVuSans-2e" x="31.787109"/>
       <use xlink:href="#DejaVuSans-2e" x="63.574219"/>
      </g>
     </g>
    </g>
    <g id="xtick_6">
     <g id="line2d_7">
      <g>
       <use xlink:href="#m71c4dca7de" x="236.996" y="332.12" style="stroke: #000000; stroke-width: 0.8"/>
      </g>
     </g>
    </g>
    <g id="xtick_7">
     <g id="line2d_8">
      <g>
       <use xlink:href="#m71c4dca7de" x="265.047" y="332.12" style="stroke: #000000; stroke-width: 0.8"/>
      </g>
     </g>
     <g id="text_3">
      <!-- C-term -->
      <g transform="translate(247.876688 346.718437) scale(0.1 -0.1)">
       <defs>
        <path id="DejaVuSans-43" d="M 4122 4306 
L 4122 3641 
Q 3803 3938 3442 4084 
Q 3081 4231 2675 4231 
Q 1875 4231 1450 3742 
Q 1025 3253 1025 2328 
Q 1025 1406 1450 917 
Q 1875 428 2675 428 
Q 3081 428 3442 575 
Q 3803 722 4122 1019 
L 4122 359 
Q 3791 134 3420 21 
Q 3050 -91 2638 -91 
Q 1578 -91 968 557 
Q 359 1206 359 2328 
Q 359 3453 968 4101 
Q 1578 4750 2638 4750 
Q 3056 4750 3426 4639 
Q 3797 4528 4122 4306 
z
" transform="scale(0.015625)"/>
       </defs>
       <use xlink:href="#DejaVuSans-43"/>
       <use xlink:href="#DejaVuSans-2d" x="69.824219"/>
       <use xlink:href="#DejaVuSans-74" x="105.908203"/>
       <use xlink:href="#DejaVuSans-65" x="145.117188"/>
       <use xlink:href="#DejaVuSans-72" x="206.640625"/>
       <use xlink:href="#DejaVuSans-6d" x="246.003906"/>
      </g>
     </g>
    </g>
    <g id="xtick_8">
     <g id="line2d_9">
      <g>
       <use xlink:href="#m71c4dca7de" x="293.098" y="332.12" style="stroke: #000000; stroke-width: 0.8"/>
      </g>
     </g>
    </g>
    <g id="xtick_9">
     <g id="line2d_10">
      <g>
       <use xlink:href="#m71c4dca7de" x="321.149" y="332.12" style="stroke: #000000; stroke-width: 0.8"/>
      </g>
     </g>
    </g>
   </g>
   <g id="matplotlib.axis_2">
    <g id="ytick_1">
     <g id="line2d_11">
      <defs>
       <path id="ma780e28684" d="M 0 0 
L -3.5 0 
" style="stroke: #000000; stroke-width: 0.8"/>
      </defs>
      <g>
       <use xlink:href="#ma780e28684" x="68.69" y="332.12" style="stroke: #000000; stroke-width: 0.8"/>
      </g>
     </g>
     <g id="text_4">
      <!-- 0.100 -->
      <g transform="translate(24.682187 335.919219) scale(0.1 -0.1)">
       <defs>
        <path id="DejaVuSans-2212" d="M 678 2272 
L 4684 2272 
L 4684 1741 
L 678 1741 
L 678 2272 
z
" transform="scale(0.015625)"/>
        <path id="DejaVuSans-30" d="M 2034 4250 
Q 1547 4250 1301 3770 
Q 1056 3291 1056 2328 
Q 1056 1369 1301 889 
Q 1547 409 2034 409 
Q 2525 409 2770 889 
Q 3016 1369 3016 2328 
Q 3016 3291 2770 3770 
Q 2525 4250 2034 4250 
z
M 2034 4750 
Q 2819 4750 3233 4129 
Q 3647 3509 3647 2328 
Q 3647 1150 3233 529 
Q 2819 -91 2034 -91 
Q 1250 -91 836 529 
Q 422 1150 422 2328 
Q 422 3509 836 4129 
Q 1250 4750 2034 4750 
z
" transform="scale(0.015625)"/>
        <path id="DejaVuSans-31" d="M 794 531 
L 1825 531 
L 1825 4091 
L 703 3866 
L 703 4441 
L 1819 4666 
L 2450 4666 
L 2450 531 
L 3481 531 
L 3481 0 
L 794 0 
L 794 531 
z
" transform="scale(0.015625)"/>
       </defs>
       <use xlink:href="#DejaVuSans-2212"/>
       <use xlink:href="#DejaVuSans-30" x="83.789062"/>
       <use xlink:href="#DejaVuSans-2e" x="147.412109"/>
       <use xlink:href="#DejaVuSans-31" x="179.199219"/>
       <use xlink:href="#DejaVuSans-30" x="242.822266"/>
       <use xlink:href="#DejaVuSans-30" x="306.445312"/>
      </g>
     </g>
    </g>
    <g id="ytick_2">
     <g id="line2d_12">
      <g>
       <use xlink:href="#ma780e28684" x="68.69" y="293.965" style="stroke: #000000; stroke-width: 0.8"/>
      </g>
     </g>
     <g id="text_5">
      <!-- 0.075 -->
      <g transform="translate(24.682187 297.764219) scale(0.1 -0.1)">
       <defs>
        <path id="DejaVuSans-37" d="M 525 4666 
L 3525 4666 
L 3525 4397 
L 1831 0 
L 1172 0 
L 2766 4134 
L 525 4134 
L 525 4666 
z
" transform="scale(0.015625)"/>
        <path id="DejaVuSans-35" d="M 691 4666 
L 3169 4666 
L 3169 4134 
L 1269 4134 
L 1269 2991 
Q 1406 3038 1543 3061 
Q 1681 3084 1819 3084 
Q 2600 3084 3056 2656 
Q 3513 2228 3513 1497 
Q 3513 744 3044 326 
Q 2575 -91 1722 -91 
Q 1428 -91 1123 -41 
Q 819 9 494 109 
L 494 744 
Q 775 591 1075 516 
Q 1375 441 1709 441 
Q 2250 441 2565 725 
Q 2881 1009 2881 1497 
Q 2881 1984 2565 2268 
Q 2250 2553 1709 2553 
Q 1456 2553 1204 2497 
Q 953 2441 691 2322 
L 691 4666 
z
" transform="scale(0.015625)"/>
       </defs>
       <use xlink:href="#DejaVuSans-2212"/>
       <use xlink:href="#DejaVuSans-30" x="83.789062"/>
       <use xlink:href="#DejaVuSans-2e" x="147.412109"/>
       <use xlink:href="#DejaVuSans-30" x="179.199219"/>
       <use xlink:href="#DejaVuSans-37" x="242.822266"/>
       <use xlink:href="#DejaVuSans-35" x="306.445312"/>
      </g>
     </g>
    </g>
    <g id="ytick_3">
     <g id="line2d_13">
      <g>
       <use xlink:href="#ma780e28684" x="68.69" y="255.81" style="stroke: #000000; stroke-width: 0.8"/>
      </g>
     </g>
     <g id="text_6">
      <!-- 0.050 -->
      <g transform="translate(24.682187 259.609219) scale(0.1 -0.1)">
       <use xlink:href="#DejaVuSans-2212"/>
       <use xlink:href="#DejaVuSans-30" x="83.789062"/>
       <use xlink:href="#DejaVuSans-2e" x="147.412109"/>
       <use xlink:href="#DejaVuSans-30" x="179.199219"/>
       <use xlink:href="#DejaVuSans-35" x="242.822266"/>
       <use xlink:href="#DejaVuSans-30" x="306.445312"/>
      </g>
     </g>
    </g>
    <g id="ytick_4">
     <g id="line2d_14">
      <g>
       <use xlink:href="#ma780e28684" x="68.69" y="217.655" style="stroke: #000000; stroke-width: 0.8"/>
      </g>
     </g>
     <g id="text_7">
      <!-- 0.025 -->
      <g transform="translate(24.682187 221.454219) scale(0.1 -0.1)">
       <defs>
        <path id="DejaVuSans-32" d="M 1228 531 
L 3431 531 
L 3431 0 
L 469 0 
L 469 531 
Q 828 903 1448 1529 
Q 2069 2156 2228 2338 
Q 2531 2678 2651 2914 
Q 2772 3150 2772 3378 
Q 2772 3750 2511 3984 
Q 2250 4219 1831 4219 
Q 1534 4219 1204 4116 
Q 875 4013 500 3803 
L 500 4441 
Q 881 4594 1212 4672 
Q 1544 4750 1819 4750 
Q 2544 4750 2975 4387 
Q 3406 4025 3406 3419 
Q 3406 3131 3298 2873 
Q 3191 2616 2906 2266 
Q 2828 2175 2409 1742 
Q 1991 1309 1228 531 
z
" transform="scale(0.015625)"/>
       </defs>
       <use xlink:href="#DejaVuSans-2212"/>
       <use xlink:href="#DejaVuSans-30" x="83.789062"/>
       <use xlink:href="#DejaVuSans-2e" x="147.412109"/>
       <use xlink:href="#DejaVuSans-30" x="179.199219"/>
       <use xlink:href="#DejaVuSans-32" x="242.822266"/>
       <use xlink:href="#DejaVuSans-35" x="306.445312"/>
      </g>
     </g>
    </g>
    <g id="ytick_5">
     <g id="line2d_15">
      <g>
       <use xlink:href="#ma780e28684" x="68.69" y="179.5" style="stroke: #000000; stroke-width: 0.8"/>
      </g>
     </g>
     <g id="text_8">
      <!-- 0.000 -->
      <g transform="translate(33.061875 183.299219) scale(0.1 -0.1)">
       <use xlink:href="#DejaVuSans-30"/>
       <use xlink:href="#DejaVuSans-2e" x="63.623047"/>
       <use xlink:href="#DejaVuSans-30" x="95.410156"/>
       <use xlink:href="#DejaVuSans-30" x="159.033203"/>
       <use xlink:href="#DejaVuSans-30" x="222.65625"/>
      </g>
     </g>
    </g>
    <g id="ytick_6">
     <g id="line2d_16">
      <g>
       <use xlink:href="#ma780e28684" x="68.69" y="141.345" style="stroke: #000000; stroke-width: 0.8"/>
      </g>
     </g>
     <g id="text_9">
      <!-- 0.025 -->
      <g transform="translate(33.061875 145.144219) scale(0.1 -0.1)">
       <use xlink:href="#DejaVuSans-30"/>
       <use xlink:href="#DejaVuSans-2e" x="63.623047"/>
       <use xlink:href="#DejaVuSans-30" x="95.410156"/>
       <use xlink:href="#DejaVuSans-32" x="159.033203"/>
       <use xlink:href="#DejaVuSans-35" x="222.65625"/>
      </g>
     </g>
    </g>
    <g id="ytick_7">
     <g id="line2d_17">
      <g>
       <use xlink:href="#ma780e28684" x="68.69" y="103.19" style="stroke: #000000; stroke-width: 0.8"/>
      </g>
     </g>
     <g id="text_10">
      <!-- 0.050 -->
      <g transform="translate(33.061875 106.989219) scale(0.1 -0.1)">
       <use xlink:href="#DejaVuSans-30"/>
       <use xlink:href="#DejaVuSans-2e" x="63.623047"/>
       <use xlink:href="#DejaVuSans-30" x="95.410156"/>
       <use xlink:href="#DejaVuSans-35" x="159.033203"/>
       <use xlink:href="#DejaVuSans-30" x="222.65625"/>
      </g>
     </g>
    </g>
    <g id="ytick_8">
     <g id="line2d_18">
      <g>
       <use xlink:href="#ma780e28684" x="68.69" y="65.035" style="stroke: #000000; stroke-width: 0.8"/>
      </g>
     </g>
     <g id="text_11">
      <!-- 0.075 -->
      <g transform="translate(33.061875 68.834219) scale(0.1 -0.1)">
       <use xlink:href="#DejaVuSans-30"/>
       <use xlink:href="#DejaVuSans-2e" x="63.623047"/>
       <use xlink:href="#DejaVuSans-30" x="95.410156"/>
       <use xlink:href="#DejaVuSans-37" x="159.033203"/>
       <use xlink:href="#DejaVuSans-35" x="222.65625"/>
      </g>
     </g>
    </g>
    <g id="ytick_9">
     <g id="line2d_19">
      <g>
       <use xlink:href="#ma780e28684" x="68.69" y="26.88" style="stroke: #000000; stroke-width: 0.8"/>
      </g>
     </g>
     <g id="text_12">
      <!-- 0.100 -->
      <g transform="translate(33.061875 30.679219) scale(0.1 -0.1)">
       <use xlink:href="#DejaVuSans-30"/>
       <use xlink:href="#DejaVuSans-2e" x="63.623047"/>
       <use xlink:href="#DejaVuSans-31" x="95.410156"/>
       <use xlink:href="#DejaVuSans-30" x="159.033203"/>
       <use xlink:href="#DejaVuSans-30" x="222.65625"/>
      </g>
     </g>
    </g>
    <g id="text_13">
     <!-- JS Divergence -->
     <g transform="translate(18.6025 214.226562) rotate(-90) scale(0.1 -0.1)">
      <defs>
       <path id="DejaVuSans-4a" d="M 628 4666 
L 1259 4666 
L 1259 325 
Q 1259 -519 939 -900 
Q 619 -1281 -91 -1281 
L -331 -1281 
L -331 -750 
L -134 -750 
Q 284 -750 456 -515 
Q 628 -281 628 325 
L 628 4666 
z
" transform="scale(0.015625)"/>
       <path id="DejaVuSans-53" d="M 3425 4513 
L 3425 3897 
Q 3066 4069 2747 4153 
Q 2428 4238 2131 4238 
Q 1616 4238 1336 4038 
Q 1056 3838 1056 3469 
Q 1056 3159 1242 3001 
Q 1428 2844 1947 2747 
L 2328 2669 
Q 3034 2534 3370 2195 
Q 3706 1856 3706 1288 
Q 3706 609 3251 259 
Q 2797 -91 1919 -91 
Q 1588 -91 1214 -16 
Q 841 59 441 206 
L 441 856 
Q 825 641 1194 531 
Q 1563 422 1919 422 
Q 2459 422 2753 634 
Q 3047 847 3047 1241 
Q 3047 1584 2836 1778 
Q 2625 1972 2144 2069 
L 1759 2144 
Q 1053 2284 737 2584 
Q 422 2884 422 3419 
Q 422 4038 858 4394 
Q 1294 4750 2059 4750 
Q 2388 4750 2728 4690 
Q 3069 4631 3425 4513 
z
" transform="scale(0.015625)"/>
       <path id="DejaVuSans-20" transform="scale(0.015625)"/>
       <path id="DejaVuSans-44" d="M 1259 4147 
L 1259 519 
L 2022 519 
Q 2988 519 3436 956 
Q 3884 1394 3884 2338 
Q 3884 3275 3436 3711 
Q 2988 4147 2022 4147 
L 1259 4147 
z
M 628 4666 
L 1925 4666 
Q 3281 4666 3915 4102 
Q 4550 3538 4550 2338 
Q 4550 1131 3912 565 
Q 3275 0 1925 0 
L 628 0 
L 628 4666 
z
" transform="scale(0.015625)"/>
       <path id="DejaVuSans-69" d="M 603 3500 
L 1178 3500 
L 1178 0 
L 603 0 
L 603 3500 
z
M 603 4863 
L 1178 4863 
L 1178 4134 
L 603 4134 
L 603 4863 
z
" transform="scale(0.015625)"/>
       <path id="DejaVuSans-76" d="M 191 3500 
L 800 3500 
L 1894 563 
L 2988 3500 
L 3597 3500 
L 2284 0 
L 1503 0 
L 191 3500 
z
" transform="scale(0.015625)"/>
       <path id="DejaVuSans-67" d="M 2906 1791 
Q 2906 2416 2648 2759 
Q 2391 3103 1925 3103 
Q 1463 3103 1205 2759 
Q 947 2416 947 1791 
Q 947 1169 1205 825 
Q 1463 481 1925 481 
Q 2391 481 2648 825 
Q 2906 1169 2906 1791 
z
M 3481 434 
Q 3481 -459 3084 -895 
Q 2688 -1331 1869 -1331 
Q 1566 -1331 1297 -1286 
Q 1028 -1241 775 -1147 
L 775 -588 
Q 1028 -725 1275 -790 
Q 1522 -856 1778 -856 
Q 2344 -856 2625 -561 
Q 2906 -266 2906 331 
L 2906 616 
Q 2728 306 2450 153 
Q 2172 0 1784 0 
Q 1141 0 747 490 
Q 353 981 353 1791 
Q 353 2603 747 3093 
Q 1141 3584 1784 3584 
Q 2172 3584 2450 3431 
Q 2728 3278 2906 2969 
L 2906 3500 
L 3481 3500 
L 3481 434 
z
" transform="scale(0.015625)"/>
       <path id="DejaVuSans-6e" d="M 3513 2113 
L 3513 0 
L 2938 0 
L 2938 2094 
Q 2938 2591 2744 2837 
Q 2550 3084 2163 3084 
Q 1697 3084 1428 2787 
Q 1159 2491 1159 1978 
L 1159 0 
L 581 0 
L 581 3500 
L 1159 3500 
L 1159 2956 
Q 1366 3272 1645 3428 
Q 1925 3584 2291 3584 
Q 2894 3584 3203 3211 
Q 3513 2838 3513 2113 
z
" transform="scale(0.015625)"/>
       <path id="DejaVuSans-63" d="M 3122 3366 
L 3122 2828 
Q 2878 2963 2633 3030 
Q 2388 3097 2138 3097 
Q 1578 3097 1268 2742 
Q 959 2388 959 1747 
Q 959 1106 1268 751 
Q 1578 397 2138 397 
Q 2388 397 2633 464 
Q 2878 531 3122 666 
L 3122 134 
Q 2881 22 2623 -34 
Q 2366 -91 2075 -91 
Q 1284 -91 818 406 
Q 353 903 353 1747 
Q 353 2603 823 3093 
Q 1294 3584 2113 3584 
Q 2378 3584 2631 3529 
Q 2884 3475 3122 3366 
z
" transform="scale(0.015625)"/>
      </defs>
      <use xlink:href="#DejaVuSans-4a"/>
      <use xlink:href="#DejaVuSans-53" x="29.492188"/>
      <use xlink:href="#DejaVuSans-20" x="92.96875"/>
      <use xlink:href="#DejaVuSans-44" x="124.755859"/>
      <use xlink:href="#DejaVuSans-69" x="201.757812"/>
      <use xlink:href="#DejaVuSans-76" x="229.541016"/>
      <use xlink:href="#DejaVuSans-65" x="288.720703"/>
      <use xlink:href="#DejaVuSans-72" x="350.244141"/>
      <use xlink:href="#DejaVuSans-67" x="389.607422"/>
      <use xlink:href="#DejaVuSans-65" x="453.083984"/>
      <use xlink:href="#DejaVuSans-6e" x="514.607422"/>
      <use xlink:href="#DejaVuSans-63" x="577.986328"/>
      <use xlink:href="#DejaVuSans-65" x="632.966797"/>
     </g>
    </g>
   </g>
   <g id="patch_127">
    <path d="M 68.69 332.12 
L 68.69 26.88 
" style="fill: none; stroke: #000000; stroke-width: 0.8; stroke-linejoin: miter; stroke-linecap: square"/>
   </g>
   <g id="patch_128">
    <path d="M 68.69 332.12 
L 349.2 332.12 
" style="fill: none; stroke: #000000; stroke-width: 0.8; stroke-linejoin: miter; stroke-linecap: square"/>
   </g>
   <g id="text_14">
    <!-- N-term: detected vs. background -->
    <g transform="translate(109.533437 20.88) scale(0.12 -0.12)">
     <defs>
      <path id="DejaVuSans-3a" d="M 750 794 
L 1409 794 
L 1409 0 
L 750 0 
L 750 794 
z
M 750 3309 
L 1409 3309 
L 1409 2516 
L 750 2516 
L 750 3309 
z
" transform="scale(0.015625)"/>
      <path id="DejaVuSans-64" d="M 2906 2969 
L 2906 4863 
L 3481 4863 
L 3481 0 
L 2906 0 
L 2906 525 
Q 2725 213 2448 61 
Q 2172 -91 1784 -91 
Q 1150 -91 751 415 
Q 353 922 353 1747 
Q 353 2572 751 3078 
Q 1150 3584 1784 3584 
Q 2172 3584 2448 3432 
Q 2725 3281 2906 2969 
z
M 947 1747 
Q 947 1113 1208 752 
Q 1469 391 1925 391 
Q 2381 391 2643 752 
Q 2906 1113 2906 1747 
Q 2906 2381 2643 2742 
Q 2381 3103 1925 3103 
Q 1469 3103 1208 2742 
Q 947 2381 947 1747 
z
" transform="scale(0.015625)"/>
      <path id="DejaVuSans-73" d="M 2834 3397 
L 2834 2853 
Q 2591 2978 2328 3040 
Q 2066 3103 1784 3103 
Q 1356 3103 1142 2972 
Q 928 2841 928 2578 
Q 928 2378 1081 2264 
Q 1234 2150 1697 2047 
L 1894 2003 
Q 2506 1872 2764 1633 
Q 3022 1394 3022 966 
Q 3022 478 2636 193 
Q 2250 -91 1575 -91 
Q 1294 -91 989 -36 
Q 684 19 347 128 
L 347 722 
Q 666 556 975 473 
Q 1284 391 1588 391 
Q 1994 391 2212 530 
Q 2431 669 2431 922 
Q 2431 1156 2273 1281 
Q 2116 1406 1581 1522 
L 1381 1569 
Q 847 1681 609 1914 
Q 372 2147 372 2553 
Q 372 3047 722 3315 
Q 1072 3584 1716 3584 
Q 2034 3584 2315 3537 
Q 2597 3491 2834 3397 
z
" transform="scale(0.015625)"/>
      <path id="DejaVuSans-62" d="M 3116 1747 
Q 3116 2381 2855 2742 
Q 2594 3103 2138 3103 
Q 1681 3103 1420 2742 
Q 1159 2381 1159 1747 
Q 1159 1113 1420 752 
Q 1681 391 2138 391 
Q 2594 391 2855 752 
Q 3116 1113 3116 1747 
z
M 1159 2969 
Q 1341 3281 1617 3432 
Q 1894 3584 2278 3584 
Q 2916 3584 3314 3078 
Q 3713 2572 3713 1747 
Q 3713 922 3314 415 
Q 2916 -91 2278 -91 
Q 1894 -91 1617 61 
Q 1341 213 1159 525 
L 1159 0 
L 581 0 
L 581 4863 
L 1159 4863 
L 1159 2969 
z
" transform="scale(0.015625)"/>
      <path id="DejaVuSans-61" d="M 2194 1759 
Q 1497 1759 1228 1600 
Q 959 1441 959 1056 
Q 959 750 1161 570 
Q 1363 391 1709 391 
Q 2188 391 2477 730 
Q 2766 1069 2766 1631 
L 2766 1759 
L 2194 1759 
z
M 3341 1997 
L 3341 0 
L 2766 0 
L 2766 531 
Q 2569 213 2275 61 
Q 1981 -91 1556 -91 
Q 1019 -91 701 211 
Q 384 513 384 1019 
Q 384 1609 779 1909 
Q 1175 2209 1959 2209 
L 2766 2209 
L 2766 2266 
Q 2766 2663 2505 2880 
Q 2244 3097 1772 3097 
Q 1472 3097 1187 3025 
Q 903 2953 641 2809 
L 641 3341 
Q 956 3463 1253 3523 
Q 1550 3584 1831 3584 
Q 2591 3584 2966 3190 
Q 3341 2797 3341 1997 
z
" transform="scale(0.015625)"/>
      <path id="DejaVuSans-6b" d="M 581 4863 
L 1159 4863 
L 1159 1991 
L 2875 3500 
L 3609 3500 
L 1753 1863 
L 3688 0 
L 2938 0 
L 1159 1709 
L 1159 0 
L 581 0 
L 581 4863 
z
" transform="scale(0.015625)"/>
      <path id="DejaVuSans-6f" d="M 1959 3097 
Q 1497 3097 1228 2736 
Q 959 2375 959 1747 
Q 959 1119 1226 758 
Q 1494 397 1959 397 
Q 2419 397 2687 759 
Q 2956 1122 2956 1747 
Q 2956 2369 2687 2733 
Q 2419 3097 1959 3097 
z
M 1959 3584 
Q 2709 3584 3137 3096 
Q 3566 2609 3566 1747 
Q 3566 888 3137 398 
Q 2709 -91 1959 -91 
Q 1206 -91 779 398 
Q 353 888 353 1747 
Q 353 2609 779 3096 
Q 1206 3584 1959 3584 
z
" transform="scale(0.015625)"/>
      <path id="DejaVuSans-75" d="M 544 1381 
L 544 3500 
L 1119 3500 
L 1119 1403 
Q 1119 906 1312 657 
Q 1506 409 1894 409 
Q 2359 409 2629 706 
Q 2900 1003 2900 1516 
L 2900 3500 
L 3475 3500 
L 3475 0 
L 2900 0 
L 2900 538 
Q 2691 219 2414 64 
Q 2138 -91 1772 -91 
Q 1169 -91 856 284 
Q 544 659 544 1381 
z
M 1991 3584 
L 1991 3584 
z
" transform="scale(0.015625)"/>
     </defs>
     <use xlink:href="#DejaVuSans-4e"/>
     <use xlink:href="#DejaVuSans-2d" x="74.804688"/>
     <use xlink:href="#DejaVuSans-74" x="110.888672"/>
     <use xlink:href="#DejaVuSans-65" x="150.097656"/>
     <use xlink:href="#DejaVuSans-72" x="211.621094"/>
     <use xlink:href="#DejaVuSans-6d" x="250.984375"/>
     <use xlink:href="#DejaVuSans-3a" x="348.396484"/>
     <use xlink:href="#DejaVuSans-20" x="382.087891"/>
     <use xlink:href="#DejaVuSans-64" x="413.875"/>
     <use xlink:href="#DejaVuSans-65" x="477.351562"/>
     <use xlink:href="#DejaVuSans-74" x="538.875"/>
     <use xlink:href="#DejaVuSans-65" x="578.083984"/>
     <use xlink:href="#DejaVuSans-63" x="639.607422"/>
     <use xlink:href="#DejaVuSans-74" x="694.587891"/>
     <use xlink:href="#DejaVuSans-65" x="733.796875"/>
     <use xlink:href="#DejaVuSans-64" x="795.320312"/>
     <use xlink:href="#DejaVuSans-20" x="858.796875"/>
     <use xlink:href="#DejaVuSans-76" x="890.583984"/>
     <use xlink:href="#DejaVuSans-73" x="949.763672"/>
     <use xlink:href="#DejaVuSans-2e" x="1001.863281"/>
     <use xlink:href="#DejaVuSans-20" x="1033.650391"/>
     <use xlink:href="#DejaVuSans-62" x="1065.4375"/>
     <use xlink:href="#DejaVuSans-61" x="1128.914062"/>
     <use xlink:href="#DejaVuSans-63" x="1190.193359"/>
     <use xlink:href="#DejaVuSans-6b" x="1245.173828"/>
     <use xlink:href="#DejaVuSans-67" x="1303.083984"/>
     <use xlink:href="#DejaVuSans-72" x="1366.560547"/>
     <use xlink:href="#DejaVuSans-6f" x="1405.423828"/>
     <use xlink:href="#DejaVuSans-75" x="1466.605469"/>
     <use xlink:href="#DejaVuSans-6e" x="1529.984375"/>
     <use xlink:href="#DejaVuSans-64" x="1593.363281"/>
    </g>
   </g>
  </g>
 </g>
 <defs>
  <clipPath id="p4f693a6913">
   <rect x="68.69" y="26.88" width="280.51" height="305.24"/>
  </clipPath>
 </defs>
</svg>
