<svg class="main-svg" xmlns="http://www.w3.org/2000/svg" xmlns:xlink="http://www.w3.org/1999/xlink" width="500" height="300" style="" viewBox="0 0 500 300"><rect x="0" y="0" width="500" height="300" style="fill: rgb(255, 255, 255); fill-opacity: 1;"/><defs id="defs-2a8544"><g class="clips"><clipPath id="clip2a8544xyplot" class="plotclip"><rect width="475" height="257"/></clipPath><clipPath class="axesclip" id="clip2a8544x"><rect x="25" y="0" width="475" height="300"/></clipPath><clipPath class="axesclip" id="clip2a8544y"><rect x="0" y="20" width="500" height="257"/></clipPath><clipPath class="axesclip" id="clip2a8544xy"><rect x="25" y="20" width="475" height="257"/></clipPath></g><g class="gradients"/><g class="patterns"/></defs><g class="bglayer"><rect class="bg" x="25" y="20" width="475" height="257" style="fill: rgb(0, 0, 0); fill-opacity: 0; stroke-width: 0;"/></g><g class="layer-below"><g class="imagelayer"/><g class="shapelayer"/></g><g class="cartesianlayer"><g class="subplot xy"><g class="layer-subplot"><g class="shapelayer"/><g class="imagelayer"/></g><g class="minor-gridlayer"><g class="x"/><g class="y"/></g><g class="gridlayer"><g class="x"/><g class="y"/></g><g class="zerolinelayer"/><g class="layer-between"><g class="shapelayer"/><g class="imagelayer"/></g><path class="xlines-below"/><path class="ylines-below"/><g class="overlines-below"/><g class="xaxislayer-below"/><g class="yaxislayer-below"/><g class="overaxes-below"/><g class="plot" transform="translate(25,20)" clip-path="url(#clip2a8544xyplot)"><g class="boxlayer mlayer"><g class="trace boxes" style="opacity: 1;"><path class="box" d="M20.19,154.2H58.98M20.19,220.29H58.98V97.82H20.19ZM39.58,220.29V257M39.58,97.82V19.2M29.89,257H49.28M29.89,19.2H49.28" style="vector-effect: none; stroke-width: 0.5px; stroke: rgb(0, 0, 0); stroke-opacity: 1; fill: rgb(255, 167, 86); fill-opacity: 1;"/></g><g class="trace boxes" style="opacity: 1;"><path class="box" d="M99.35,161.47H138.15M99.35,218.23H138.15V96.04H99.35ZM118.75,218.23V257M118.75,96.04V13.39M109.05,257H128.45M109.05,13.39H128.45" style="vector-effect: none; stroke-width: 0.5px; stroke: rgb(0, 0, 0); stroke-opacity: 1; fill: rgb(242, 238, 184); fill-opacity: 1;"/></g><g class="trace boxes" style="opacity: 1;"><path class="box" d="M178.52,210.51H217.31M178.52,236.76H217.31V165.7H178.52ZM197.92,236.76V257M197.92,165.7V2.4M188.22,257H207.61M188.22,2.4H207.61" style="vector-effect: none; stroke-width: 0.5px; stroke: rgb(0, 0, 0); stroke-opacity: 1; fill: rgb(183, 144, 212); fill-opacity: 1;"/></g><g class="trace boxes" style="opacity: 1;"><path class="box" d="M257.69,141.35H296.48M257.69,201.93H296.48V88.36H257.69ZM277.08,201.93V257M277.08,88.36V14.46M267.39,257H286.78M267.39,14.46H286.78" style="vector-effect: none; stroke-width: 0.5px; stroke: rgb(0, 0, 0); stroke-opacity: 1; fill: rgb(211, 211, 211); fill-opacity: 1;"/></g><g class="trace boxes" style="opacity: 1;"><path class="box" d="M336.85,134.94H375.65M336.85,200.78H375.65V82.76H336.85ZM356.25,200.78V257M356.25,82.76V3.6M346.55,257H365.95M346.55,3.6H365.95" style="vector-effect: none; stroke-width: 0.5px; stroke: rgb(0, 0, 0); stroke-opacity: 1; fill: rgb(78, 206, 120); fill-opacity: 1;"/></g><g class="trace boxes" style="opacity: 1;"><path class="box" d="M416.02,134.77H454.81M416.02,192.75H454.81V85.96H416.02ZM435.42,192.75V257M435.42,85.96V13.93M425.72,257H445.11M425.72,13.93H445.11" style="vector-effect: none; stroke-width: 0.5px; stroke: rgb(0, 0, 0); stroke-opacity: 1; fill: rgb(82, 138, 174); fill-opacity: 1;"/></g></g></g><g class="overplot"/><path class="xlines-above crisp" d="M24.5,277.25H500" style="fill: none; stroke-width: 0.5px; stroke: rgb(0, 0, 0); stroke-opacity: 1;"/><path class="ylines-above crisp" d="M24.75,20V277" style="fill: none; stroke-width: 0.5px; stroke: rgb(0, 0, 0); stroke-opacity: 1;"/><g class="overlines-above"/><g class="xaxislayer-above"><path class="xtick ticks crisp" d="M0,277.5v5" transform="translate(64.58,0)" style="stroke: rgb(68, 68, 68); stroke-opacity: 1; stroke-width: 1px;"/><path class="xtick ticks crisp" d="M0,277.5v5" transform="translate(143.75,0)" style="stroke: rgb(68, 68, 68); stroke-opacity: 1; stroke-width: 1px;"/><path class="xtick ticks crisp" d="M0,277.5v5" transform="translate(222.92,0)" style="stroke: rgb(68, 68, 68); stroke-opacity: 1; stroke-width: 1px;"/><path class="xtick ticks crisp" d="M0,277.5v5" transform="translate(302.08,0)" style="stroke: rgb(68, 68, 68); stroke-opacity: 1; stroke-width: 1px;"/><path class="xtick ticks crisp" d="M0,277.5v5" transform="translate(381.25,0)" style="stroke: rgb(68, 68, 68); stroke-opacity: 1; stroke-width: 1px;"/><path class="xtick ticks crisp" d="M0,277.5v5" transform="translate(460.42,0)" style="stroke: rgb(68, 68, 68); stroke-opacity: 1; stroke-width: 1px;"/><g class="xtick"><text text-anchor="middle" x="0" y="296.9" transform="translate(64.58,0)" style="font-family: Helvetica; font-size: 12px; fill: rgb(0, 0, 0); fill-opacity: 1; white-space: pre; opacity: 1;">fiveUTR</text></g><g class="xtick"><text text-anchor="middle" x="0" y="296.9" transform="translate(143.75,0)" style="font-family: Helvetica; font-size: 12px; fill: rgb(0, 0, 0); fill-opacity: 1; white-space: pre; opacity: 1;">threeUTR</text></g><g class="xtick"><text text-anchor="middle" x="0" y="296.9" transform="translate(222.92,0)" style="font-family: Helvetica; font-size: 12px; fill: rgb(0, 0, 0); fill-opacity: 1; white-space: pre; opacity: 1;">CDS_frameshift</text></g><g class="xtick"><text text-anchor="middle" x="0" y="296.9" transform="translate(302.08,0)" style="font-family: Helvetica; font-size: 12px; fill: rgb(0, 0, 0); fill-opacity: 1; white-space: pre; opacity: 1;">lncRNA</text></g><g class="xtick"><text text-anchor="middle" x="0" y="296.9" transform="translate(381.25,0)" style="font-family: Helvetica; font-size: 12px; fill: rgb(0, 0, 0); fill-opacity: 1; white-space: pre; opacity: 1;">intronic</text></g><g class="xtick"><text text-anchor="middle" x="0" y="296.9" transform="translate(460.42,0)" style="font-family: Helvetica; font-size: 12px; fill: rgb(0, 0, 0); fill-opacity: 1; white-space: pre; opacity: 1;">intergenic</text></g></g><g class="yaxislayer-above"><path class="ytick ticks crisp" d="M24.5,0h-5" transform="translate(0,277)" style="stroke: rgb(68, 68, 68); stroke-opacity: 1; stroke-width: 1px;"/><path class="ytick ticks crisp" d="M24.5,0h-5" transform="translate(0,225.6)" style="stroke: rgb(68, 68, 68); stroke-opacity: 1; stroke-width: 1px;"/><path class="ytick ticks crisp" d="M24.5,0h-5" transform="translate(0,174.2)" style="stroke: rgb(68, 68, 68); stroke-opacity: 1; stroke-width: 1px;"/><path class="ytick ticks crisp" d="M24.5,0h-5" transform="translate(0,122.8)" style="stroke: rgb(68, 68, 68); stroke-opacity: 1; stroke-width: 1px;"/><path class="ytick ticks crisp" d="M24.5,0h-5" transform="translate(0,71.4)" style="stroke: rgb(68, 68, 68); stroke-opacity: 1; stroke-width: 1px;"/><path class="ytick ticks crisp" d="M24.5,0h-5" transform="translate(0,20)" style="stroke: rgb(68, 68, 68); stroke-opacity: 1; stroke-width: 1px;"/><g class="ytick"><text text-anchor="end" x="17.1" y="4.199999999999999" transform="translate(0,277)" style="font-family: Helvetica; font-size: 12px; fill: rgb(0, 0, 0); fill-opacity: 1; white-space: pre; opacity: 1;">0</text></g><g class="ytick"><text text-anchor="end" x="17.1" y="4.199999999999999" style="font-family: Helvetica; font-size: 12px; fill: rgb(0, 0, 0); fill-opacity: 1; white-space: pre; opacity: 1;" transform="translate(0,225.6)">0.2</text></g><g class="ytick"><text text-anchor="end" x="17.1" y="4.199999999999999" style="font-family: Helvetica; font-size: 12px; fill: rgb(0, 0, 0); fill-opacity: 1; white-space: pre; opacity: 1;" transform="translate(0,174.2)">0.4</text></g><g class="ytick"><text text-anchor="end" x="17.1" y="4.199999999999999" style="font-family: Helvetica; font-size: 12px; fill: rgb(0, 0, 0); fill-opacity: 1; white-space: pre; opacity: 1;" transform="translate(0,122.8)">0.6</text></g><g class="ytick"><text text-anchor="end" x="17.1" y="4.199999999999999" style="font-family: Helvetica; font-size: 12px; fill: rgb(0, 0, 0); fill-opacity: 1; white-space: pre; opacity: 1;" transform="translate(0,71.4)">0.8</text></g><g class="ytick"><text text-anchor="end" x="17.1" y="4.199999999999999" style="font-family: Helvetica; font-size: 12px; fill: rgb(0, 0, 0); fill-opacity: 1; white-space: pre; opacity: 1;" transform="translate(0,20)">1</text></g></g><g class="overaxes-above"/></g></g><g class="polarlayer"/><g class="smithlayer"/><g class="ternarylayer"/><g class="geolayer"/><g class="funnelarealayer"/><g class="pielayer"/><g class="iciclelayer"/><g class="treemaplayer"/><g class="sunburstlayer"/><g class="glimages"/><defs id="topdefs-2a8544"><g class="clips"/></defs><g class="layer-above"><g class="imagelayer"/><g class="shapelayer"/></g><g class="infolayer"><g class="g-gtitle"/><g class="g-xtitle"/><g class="g-ytitle"/></g></svg>