<svg class="main-svg" xmlns="http://www.w3.org/2000/svg" xmlns:xlink="http://www.w3.org/1999/xlink" width="300" height="300" style="" viewBox="0 0 300 300"><rect x="0" y="0" width="300" height="300" style="fill: rgb(255, 255, 255); fill-opacity: 1;"/><defs id="defs-7709be"><g class="clips"><clipPath id="clip7709bexyplot" class="plotclip"><rect width="205" height="220"/></clipPath><clipPath class="axesclip" id="clip7709bex"><rect x="51" y="0" width="205" height="300"/></clipPath><clipPath class="axesclip" id="clip7709bey"><rect x="0" y="20" width="300" height="220"/></clipPath><clipPath class="axesclip" id="clip7709bexy"><rect x="51" y="20" width="205" height="220"/></clipPath></g><g class="gradients"/><g class="patterns"/></defs><g class="bglayer"><rect class="bg" x="51" y="20" width="205" height="220" style="fill: rgb(0, 0, 0); fill-opacity: 0; stroke-width: 0;"/></g><g class="layer-below"><g class="imagelayer"/><g class="shapelayer"/></g><g class="cartesianlayer"><g class="subplot xy"><g class="layer-subplot"><g class="shapelayer"/><g class="imagelayer"/></g><g class="minor-gridlayer"><g class="x"/><g class="y"/></g><g class="gridlayer"><g class="x"/><g class="y"/></g><g class="zerolinelayer"><path class="yzl zl crisp" transform="translate(0,130)" d="M51,0h205" style="stroke: rgb(255, 255, 255); stroke-opacity: 1; stroke-width: 2px;"/></g><g class="layer-between"><g class="shapelayer"/><g class="imagelayer"/></g><path class="xlines-below"/><path class="ylines-below"/><g class="overlines-below"/><g class="xaxislayer-below"/><g class="yaxislayer-below"/><g class="overaxes-below"/><g class="plot" transform="translate(51,20)" clip-path="url(#clip7709bexyplot)"><g class="violinlayer mlayer"><g class="trace violins" style="opacity: 0.8;"><path class="violin" d="M20.53,142.78Q20.54,142.12 20.55,141.79C20.56,141.46 20.58,141.14 20.59,140.81C20.61,140.48 20.62,140.15 20.64,139.82C20.66,139.49 20.67,139.17 20.69,138.84C20.71,138.51 20.72,138.19 20.74,137.86C20.76,137.53 20.77,137.2 20.79,136.87C20.8,136.54 20.82,136.22 20.83,135.89C20.84,135.56 20.85,135.23 20.86,134.9C20.87,134.57 20.88,134.25 20.9,133.92C20.92,133.59 20.94,133.27 20.97,132.94C21,132.61 21.03,132.28 21.07,131.95C21.11,131.62 21.17,131.3 21.23,130.97C21.29,130.64 21.36,130.31 21.44,129.98C21.51,129.65 21.6,129.33 21.68,129C21.76,128.67 21.85,128.35 21.93,128.02C22,127.69 22.08,127.36 22.13,127.03C22.18,126.7 22.22,126.38 22.25,126.05C22.28,125.72 22.29,125.39 22.29,125.06C22.29,124.73 22.26,124.41 22.23,124.08C22.2,123.75 22.15,123.43 22.1,123.1C22.05,122.77 21.99,122.44 21.94,122.11C21.89,121.78 21.83,121.46 21.79,121.13C21.75,120.8 21.71,120.47 21.7,120.14C21.69,119.81 21.68,119.49 21.71,119.16C21.74,118.83 21.8,118.5 21.89,118.18C21.98,117.85 22.09,117.51 22.24,117.19C22.39,116.86 22.58,116.53 22.78,116.21C22.99,115.87 23.23,115.54 23.48,115.22C23.74,114.89 24.03,114.56 24.33,114.24C24.64,113.91 24.96,113.58 25.29,113.26C25.63,112.93 25.98,112.6 26.33,112.27C26.69,111.94 27.06,111.62 27.42,111.29C27.78,110.96 28.14,110.63 28.47,110.3C28.79,109.98 29.12,109.66 29.39,109.32C29.65,109 29.9,108.68 30.08,108.34C30.25,108.02 30.39,107.69 30.47,107.35C30.54,107.03 30.57,106.7 30.55,106.37C30.53,106.04 30.45,105.71 30.36,105.39C30.27,105.06 30.13,104.73 30.01,104.4C29.88,104.07 29.74,103.75 29.61,103.42C29.48,103.09 29.35,102.76 29.22,102.43C29.09,102.1 28.97,101.78 28.84,101.45C28.71,101.12 28.57,100.79 28.42,100.47C28.26,100.14 28.1,99.81 27.91,99.48C27.72,99.15 27.51,98.82 27.29,98.5C27.06,98.17 26.82,97.84 26.57,97.51C26.32,97.18 26.06,96.86 25.8,96.53C25.55,96.2 25.28,95.88 25.04,95.55C24.8,95.22 24.58,94.89 24.36,94.56C24.15,94.24 23.94,93.91 23.76,93.58C23.58,93.25 23.41,92.92 23.26,92.59C23.11,92.26 22.97,91.94 22.84,91.61C22.71,91.29 22.6,90.96 22.49,90.63C22.39,90.3 22.3,89.97 22.21,89.64C22.12,89.31 22.04,88.99 21.97,88.66C21.9,88.33 21.83,88 21.77,87.67C21.71,87.34 21.66,87.02 21.6,86.69C21.54,86.36 21.48,86.04 21.42,85.71C21.36,85.38 21.31,85.05 21.25,84.72C21.19,84.39 21.13,84.07 21.07,83.74C21.01,83.41 20.96,83.08 20.91,82.75C20.86,82.42 20.81,82.1 20.77,81.77C20.73,81.44 20.69,81.12 20.66,80.79C20.63,80.46 20.61,80.13 20.59,79.8Q20.57,79.47 20.55,78.82L20.45,78.82Q20.43,79.47 20.41,79.8C20.39,80.13 20.37,80.46 20.34,80.79C20.31,81.12 20.27,81.44 20.23,81.77C20.19,82.1 20.14,82.42 20.09,82.75C20.04,83.08 19.99,83.41 19.93,83.74C19.87,84.07 19.81,84.39 19.75,84.72C19.69,85.05 19.64,85.38 19.58,85.71C19.52,86.04 19.46,86.36 19.4,86.69C19.34,87.02 19.29,87.34 19.23,87.67C19.17,88 19.1,88.33 19.03,88.66C18.96,88.99 18.88,89.31 18.79,89.64C18.7,89.97 18.61,90.3 18.51,90.63C18.4,90.96 18.29,91.29 18.16,91.61C18.03,91.94 17.89,92.26 17.74,92.59C17.59,92.92 17.42,93.25 17.24,93.58C17.06,93.91 16.85,94.24 16.64,94.56C16.42,94.89 16.2,95.22 15.96,95.55C15.72,95.88 15.45,96.2 15.2,96.53C14.94,96.86 14.68,97.18 14.43,97.51C14.18,97.84 13.94,98.17 13.71,98.5C13.49,98.82 13.28,99.15 13.09,99.48C12.9,99.81 12.74,100.14 12.58,100.47C12.43,100.79 12.29,101.12 12.16,101.45C12.03,101.78 11.91,102.1 11.78,102.43C11.65,102.76 11.52,103.09 11.39,103.42C11.26,103.75 11.12,104.07 10.99,104.4C10.87,104.73 10.73,105.06 10.64,105.39C10.55,105.71 10.48,106.04 10.46,106.37C10.44,106.7 10.46,107.03 10.53,107.35C10.61,107.69 10.75,108.02 10.92,108.34C11.1,108.68 11.35,109 11.61,109.32C11.88,109.66 12.21,109.98 12.53,110.3C12.86,110.63 13.22,110.96 13.58,111.29C13.94,111.62 14.31,111.94 14.67,112.27C15.02,112.6 15.37,112.93 15.71,113.26C16.04,113.58 16.36,113.91 16.67,114.24C16.97,114.56 17.26,114.89 17.52,115.22C17.77,115.54 18.01,115.87 18.22,116.21C18.42,116.53 18.61,116.86 18.76,117.19C18.91,117.51 19.02,117.85 19.11,118.18C19.2,118.5 19.26,118.83 19.29,119.16C19.32,119.49 19.31,119.81 19.3,120.14C19.29,120.47 19.25,120.8 19.21,121.13C19.17,121.46 19.11,121.78 19.06,122.11C19.01,122.44 18.95,122.77 18.9,123.1C18.85,123.43 18.8,123.75 18.77,124.08C18.74,124.41 18.71,124.73 18.71,125.06C18.71,125.39 18.72,125.72 18.75,126.05C18.78,126.38 18.82,126.7 18.87,127.03C18.92,127.36 19,127.69 19.07,128.02C19.15,128.35 19.24,128.67 19.32,129C19.4,129.33 19.49,129.65 19.56,129.98C19.64,130.31 19.71,130.64 19.77,130.97C19.83,131.3 19.89,131.62 19.93,131.95C19.97,132.28 20,132.61 20.03,132.94C20.06,133.27 20.08,133.59 20.1,133.92C20.12,134.25 20.13,134.57 20.14,134.9C20.15,135.23 20.16,135.56 20.17,135.89C20.18,136.22 20.2,136.54 20.21,136.87C20.23,137.2 20.24,137.53 20.26,137.86C20.28,138.19 20.29,138.51 20.31,138.84C20.33,139.17 20.34,139.49 20.36,139.82C20.38,140.15 20.39,140.48 20.41,140.81C20.42,141.14 20.44,141.46 20.45,141.79Q20.46,142.12 20.47,142.78Z" style="vector-effect: none; stroke-width: 0.5px; stroke: rgb(0, 0, 0); stroke-opacity: 1; fill: rgb(178, 34, 34); fill-opacity: 1;"/><path class="meanline" d="M30.503103256225586,105.99H10.496896743774414" style="fill: none; vector-effect: none; stroke-width: 0.5px; stroke-dasharray: 1px, 0.5px; stroke: rgb(0, 0, 0); stroke-opacity: 1;"/></g><g class="trace violins" style="opacity: 0.8;"><path class="violin" d="M61.5,114.21Q61.5,113.89 61.5,113.73C61.5,113.57 61.5,113.41 61.5,113.25C61.5,113.09 61.5,112.93 61.5,112.77C61.5,112.61 61.5,112.46 61.5,112.3C61.5,112.14 61.5,111.98 61.5,111.82C61.5,111.66 61.5,111.5 61.5,111.34C61.5,111.18 61.5,111.02 61.5,110.86C61.5,110.7 61.5,110.54 61.5,110.38C61.5,110.22 61.5,110.07 61.5,109.91C61.5,109.75 61.5,109.59 61.5,109.43C61.5,109.27 61.5,109.11 61.5,108.95C61.5,108.79 61.5,108.63 61.5,108.47C61.5,108.31 61.5,108.15 61.5,107.99C61.5,107.83 61.5,107.68 61.5,107.52C61.5,107.36 61.5,107.2 61.5,107.04C61.5,106.88 61.5,106.72 61.5,106.56C61.5,106.4 61.5,106.24 61.5,106.08C61.5,105.92 61.5,105.77 61.5,105.61C61.5,105.45 61.51,105.29 61.51,105.13C61.51,104.97 61.51,104.81 61.51,104.65C61.51,104.49 61.51,104.33 61.51,104.17C61.51,104.01 61.52,103.85 61.52,103.69C61.52,103.53 61.52,103.38 61.52,103.22C61.52,103.06 61.53,102.9 61.53,102.74C61.53,102.58 61.54,102.42 61.54,102.26C61.54,102.1 61.55,101.94 61.55,101.78C61.55,101.62 61.56,101.46 61.56,101.3C61.56,101.14 61.57,100.99 61.57,100.83C61.58,100.67 61.58,100.51 61.59,100.35C61.6,100.19 61.61,100.03 61.62,99.87C61.63,99.71 61.64,99.55 61.65,99.39C61.66,99.23 61.68,99.08 61.69,98.92C61.71,98.76 61.72,98.6 61.74,98.44C61.76,98.28 61.78,98.12 61.8,97.96C61.82,97.8 61.85,97.64 61.88,97.48C61.91,97.32 61.94,97.16 61.97,97C62,96.84 62.04,96.69 62.08,96.53C62.12,96.37 62.16,96.21 62.21,96.05C62.26,95.89 62.31,95.73 62.37,95.57C62.43,95.41 62.49,95.25 62.55,95.09C62.61,94.93 62.67,94.77 62.74,94.61C62.81,94.45 62.89,94.3 62.97,94.14C63.05,93.98 63.13,93.82 63.22,93.66C63.31,93.5 63.4,93.34 63.5,93.18C63.6,93.02 63.71,92.86 63.82,92.7C63.94,92.54 64.06,92.38 64.19,92.22C64.32,92.06 64.46,91.91 64.6,91.75C64.75,91.59 64.9,91.43 65.06,91.27C65.22,91.11 65.38,90.95 65.55,90.79C65.72,90.63 65.91,90.47 66.09,90.31C66.27,90.15 66.45,90 66.64,89.84C66.83,89.68 67.02,89.52 67.21,89.36C67.4,89.2 67.58,89.04 67.76,88.88C67.94,88.72 68.12,88.56 68.29,88.4C68.46,88.24 68.61,88.08 68.77,87.92C68.92,87.76 69.07,87.61 69.21,87.45C69.34,87.29 69.46,87.13 69.58,86.97C69.69,86.81 69.8,86.65 69.9,86.49C70,86.33 70.09,86.17 70.18,86.01C70.27,85.85 70.34,85.69 70.42,85.53C70.49,85.37 70.56,85.22 70.63,85.06C70.7,84.9 70.76,84.74 70.82,84.58C70.88,84.42 70.94,84.26 71,84.1C71.06,83.94 71.11,83.78 71.16,83.62C71.21,83.46 71.25,83.31 71.29,83.15C71.33,82.99 71.37,82.83 71.4,82.67C71.43,82.51 71.46,82.35 71.48,82.19C71.5,82.03 71.52,81.87 71.53,81.71C71.54,81.55 71.54,81.39 71.54,81.23C71.54,81.07 71.54,80.92 71.54,80.76C71.54,80.6 71.53,80.44 71.52,80.28C71.51,80.12 71.49,79.96 71.48,79.8C71.47,79.64 71.45,79.48 71.44,79.32C71.43,79.16 71.41,79 71.4,78.84C71.39,78.68 71.38,78.53 71.37,78.37C71.36,78.21 71.34,78.05 71.33,77.89C71.32,77.73 71.32,77.57 71.31,77.41C71.31,77.25 71.3,77.09 71.3,76.93C71.3,76.77 71.3,76.62 71.3,76.46C71.3,76.3 71.31,76.14 71.32,75.98C71.33,75.82 71.35,75.66 71.36,75.5C71.37,75.34 71.39,75.18 71.4,75.02C71.41,74.86 71.42,74.7 71.43,74.54C71.44,74.38 71.45,74.23 71.45,74.07C71.45,73.91 71.45,73.75 71.45,73.59C71.45,73.43 71.44,73.27 71.44,73.11C71.44,72.95 71.43,72.79 71.43,72.63C71.42,72.47 71.42,72.31 71.41,72.15C71.4,71.99 71.4,71.84 71.39,71.68C71.38,71.52 71.38,71.36 71.37,71.2C71.36,71.04 71.36,70.88 71.35,70.72C71.34,70.56 71.34,70.4 71.33,70.24C71.33,70.08 71.32,69.93 71.32,69.77C71.31,69.61 71.31,69.45 71.3,69.29C71.29,69.13 71.28,68.97 71.27,68.81C71.26,68.65 71.24,68.49 71.22,68.33C71.2,68.17 71.19,68.01 71.16,67.85C71.14,67.69 71.1,67.54 71.07,67.38C71.04,67.22 71,67.06 70.97,66.9C70.93,66.74 70.9,66.58 70.86,66.42C70.82,66.26 70.78,66.1 70.73,65.94C70.68,65.78 70.63,65.62 70.58,65.46C70.53,65.3 70.48,65.15 70.43,64.99C70.38,64.83 70.32,64.67 70.27,64.51C70.21,64.35 70.16,64.19 70.1,64.03C70.04,63.87 69.99,63.71 69.93,63.55C69.87,63.39 69.81,63.23 69.75,63.07C69.69,62.91 69.62,62.76 69.55,62.6C69.48,62.44 69.41,62.28 69.33,62.12C69.25,61.96 69.17,61.8 69.09,61.64C69.01,61.48 68.93,61.32 68.84,61.16C68.76,61 68.67,60.85 68.58,60.69C68.49,60.53 68.41,60.37 68.32,60.21C68.24,60.05 68.15,59.89 68.07,59.73C67.98,59.57 67.9,59.41 67.81,59.25C67.73,59.09 67.64,58.93 67.56,58.77C67.48,58.61 67.39,58.46 67.31,58.3C67.23,58.14 67.15,57.98 67.07,57.82C66.99,57.66 66.92,57.5 66.84,57.34C66.77,57.18 66.69,57.02 66.62,56.86C66.55,56.7 66.47,56.54 66.4,56.38C66.33,56.22 66.27,56.07 66.2,55.91C66.13,55.75 66.07,55.59 66,55.43C65.93,55.27 65.87,55.11 65.8,54.95C65.74,54.79 65.68,54.63 65.61,54.47C65.54,54.31 65.47,54.16 65.4,54C65.33,53.84 65.26,53.68 65.19,53.52C65.12,53.36 65.05,53.2 64.98,53.04C64.91,52.88 64.83,52.72 64.76,52.56C64.69,52.4 64.62,52.24 64.55,52.08C64.48,51.92 64.41,51.77 64.35,51.61C64.28,51.45 64.22,51.29 64.16,51.13C64.1,50.97 64.04,50.81 63.99,50.65C63.94,50.49 63.89,50.33 63.84,50.17C63.79,50.01 63.75,49.85 63.7,49.69C63.66,49.53 63.61,49.38 63.57,49.22C63.52,49.06 63.48,48.9 63.43,48.74C63.39,48.58 63.34,48.42 63.3,48.26C63.25,48.1 63.2,47.94 63.16,47.78C63.12,47.62 63.08,47.47 63.04,47.31C63,47.15 62.96,46.99 62.92,46.83C62.88,46.67 62.85,46.51 62.82,46.35C62.79,46.19 62.75,46.03 62.72,45.87C62.69,45.71 62.67,45.55 62.64,45.39C62.61,45.23 62.58,45.08 62.56,44.92C62.53,44.76 62.51,44.6 62.49,44.44C62.47,44.28 62.44,44.12 62.42,43.96C62.4,43.8 62.38,43.64 62.36,43.48C62.34,43.32 62.33,43.16 62.31,43C62.29,42.84 62.28,42.69 62.26,42.53C62.24,42.37 62.23,42.21 62.21,42.05C62.2,41.89 62.18,41.73 62.17,41.57C62.16,41.41 62.14,41.25 62.13,41.09C62.12,40.93 62.1,40.78 62.09,40.62C62.08,40.46 62.06,40.3 62.05,40.14C62.04,39.98 62.02,39.82 62.01,39.66C61.99,39.5 61.98,39.34 61.96,39.18C61.95,39.02 61.93,38.86 61.92,38.7C61.91,38.54 61.9,38.39 61.89,38.23C61.88,38.07 61.87,37.91 61.86,37.75C61.85,37.59 61.84,37.43 61.83,37.27C61.82,37.11 61.82,36.95 61.81,36.79C61.8,36.63 61.8,36.47 61.79,36.31C61.79,36.15 61.78,36 61.78,35.84C61.77,35.68 61.77,35.52 61.76,35.36C61.76,35.2 61.75,35.04 61.75,34.88C61.74,34.72 61.74,34.56 61.73,34.4C61.72,34.24 61.72,34.08 61.71,33.92C61.71,33.76 61.71,33.61 61.7,33.45C61.69,33.29 61.68,33.13 61.67,32.97C61.66,32.81 61.66,32.65 61.66,32.49C61.65,32.33 61.65,32.17 61.64,32.01C61.63,31.85 61.62,31.7 61.62,31.54C61.61,31.38 61.61,31.22 61.61,31.06C61.61,30.9 61.61,30.74 61.61,30.58C61.61,30.42 61.6,30.26 61.6,30.1C61.6,29.94 61.6,29.78 61.6,29.62C61.6,29.46 61.59,29.31 61.59,29.15C61.59,28.99 61.59,28.83 61.59,28.67C61.59,28.51 61.58,28.35 61.58,28.19C61.58,28.03 61.57,27.87 61.57,27.71C61.57,27.55 61.57,27.39 61.57,27.23C61.57,27.07 61.56,26.92 61.56,26.76C61.56,26.6 61.56,26.44 61.56,26.28C61.56,26.12 61.55,25.96 61.55,25.8C61.55,25.64 61.55,25.48 61.55,25.32C61.55,25.16 61.54,25.01 61.54,24.85C61.54,24.69 61.54,24.53 61.54,24.37C61.54,24.21 61.53,24.05 61.53,23.89C61.53,23.73 61.53,23.57 61.53,23.41C61.53,23.25 61.53,23.09 61.53,22.93C61.53,22.77 61.53,22.62 61.53,22.46C61.53,22.3 61.53,22.14 61.53,21.98C61.53,21.82 61.52,21.66 61.52,21.5C61.52,21.34 61.52,21.18 61.52,21.02C61.52,20.86 61.52,20.7 61.52,20.54C61.52,20.38 61.52,20.23 61.52,20.07C61.52,19.91 61.52,19.75 61.52,19.59C61.52,19.43 61.52,19.27 61.52,19.11C61.52,18.95 61.51,18.79 61.51,18.63C61.51,18.47 61.51,18.32 61.51,18.16C61.51,18 61.51,17.84 61.51,17.68C61.51,17.52 61.51,17.36 61.51,17.2C61.51,17.04 61.51,16.88 61.51,16.72C61.51,16.56 61.51,16.4 61.51,16.24C61.51,16.08 61.51,15.93 61.51,15.77C61.51,15.61 61.51,15.45 61.51,15.29C61.51,15.13 61.51,14.97 61.51,14.81C61.51,14.65 61.51,14.49 61.51,14.33C61.51,14.17 61.5,14.01 61.5,13.85C61.5,13.69 61.5,13.54 61.5,13.38C61.5,13.22 61.5,13.06 61.5,12.9C61.5,12.74 61.5,12.58 61.5,12.42C61.5,12.26 61.5,12.1 61.5,11.94C61.5,11.78 61.5,11.63 61.5,11.47C61.5,11.31 61.5,11.15 61.5,10.99C61.5,10.83 61.5,10.67 61.5,10.51C61.5,10.35 61.5,10.19 61.5,10.03C61.5,9.87 61.5,9.71 61.5,9.55C61.5,9.39 61.5,9.24 61.5,9.08C61.5,8.92 61.5,8.76 61.5,8.6C61.5,8.44 61.5,8.28 61.5,8.12C61.5,7.96 61.5,7.8 61.5,7.64C61.5,7.48 61.5,7.32 61.5,7.16C61.5,7 61.5,6.85 61.5,6.69C61.5,6.53 61.5,6.37 61.5,6.21C61.5,6.05 61.5,5.89 61.5,5.73C61.5,5.57 61.5,5.41 61.5,5.25C61.5,5.09 61.5,4.93 61.5,4.77C61.5,4.61 61.5,4.46 61.5,4.3C61.5,4.14 61.5,3.98 61.5,3.82C61.5,3.66 61.5,3.5 61.5,3.34C61.5,3.18 61.5,3.02 61.5,2.86Q61.5,2.7 61.5,2.39L61.5,2.39Q61.5,2.7 61.5,2.86C61.5,3.02 61.5,3.18 61.5,3.34C61.5,3.5 61.5,3.66 61.5,3.82C61.5,3.98 61.5,4.14 61.5,4.3C61.5,4.46 61.5,4.61 61.5,4.77C61.5,4.93 61.5,5.09 61.5,5.25C61.5,5.41 61.5,5.57 61.5,5.73C61.5,5.89 61.5,6.05 61.5,6.21C61.5,6.37 61.5,6.53 61.5,6.69C61.5,6.85 61.5,7 61.5,7.16C61.5,7.32 61.5,7.48 61.5,7.64C61.5,7.8 61.5,7.96 61.5,8.12C61.5,8.28 61.5,8.44 61.5,8.6C61.5,8.76 61.5,8.92 61.5,9.08C61.5,9.24 61.5,9.39 61.5,9.55C61.5,9.71 61.5,9.87 61.5,10.03C61.5,10.19 61.5,10.35 61.5,10.51C61.5,10.67 61.5,10.83 61.5,10.99C61.5,11.15 61.5,11.31 61.5,11.47C61.5,11.63 61.5,11.78 61.5,11.94C61.5,12.1 61.5,12.26 61.5,12.42C61.5,12.58 61.5,12.74 61.5,12.9C61.5,13.06 61.5,13.22 61.5,13.38C61.5,13.54 61.5,13.69 61.5,13.85C61.5,14.01 61.49,14.17 61.49,14.33C61.49,14.49 61.49,14.65 61.49,14.81C61.49,14.97 61.49,15.13 61.49,15.29C61.49,15.45 61.49,15.61 61.49,15.77C61.49,15.93 61.49,16.08 61.49,16.24C61.49,16.4 61.49,16.56 61.49,16.72C61.49,16.88 61.49,17.04 61.49,17.2C61.49,17.36 61.49,17.52 61.49,17.68C61.49,17.84 61.49,18 61.49,18.16C61.49,18.32 61.49,18.47 61.49,18.63C61.49,18.79 61.48,18.95 61.48,19.11C61.48,19.27 61.48,19.43 61.48,19.59C61.48,19.75 61.48,19.91 61.48,20.07C61.48,20.23 61.48,20.38 61.48,20.54C61.48,20.7 61.48,20.86 61.48,21.02C61.48,21.18 61.48,21.34 61.48,21.5C61.48,21.66 61.47,21.82 61.47,21.98C61.47,22.14 61.47,22.3 61.47,22.46C61.47,22.62 61.47,22.77 61.47,22.93C61.47,23.09 61.47,23.25 61.47,23.41C61.47,23.57 61.47,23.73 61.47,23.89C61.47,24.05 61.46,24.21 61.46,24.37C61.46,24.53 61.46,24.69 61.46,24.85C61.46,25.01 61.45,25.16 61.45,25.32C61.45,25.48 61.45,25.64 61.45,25.8C61.45,25.96 61.44,26.12 61.44,26.28C61.44,26.44 61.44,26.6 61.44,26.76C61.44,26.92 61.43,27.07 61.43,27.23C61.43,27.39 61.43,27.55 61.43,27.71C61.43,27.87 61.42,28.03 61.42,28.19C61.42,28.35 61.41,28.51 61.41,28.67C61.41,28.83 61.41,28.99 61.41,29.15C61.41,29.31 61.4,29.46 61.4,29.62C61.4,29.78 61.4,29.94 61.4,30.1C61.4,30.26 61.39,30.42 61.39,30.58C61.39,30.74 61.39,30.9 61.39,31.06C61.39,31.22 61.39,31.38 61.38,31.54C61.38,31.7 61.37,31.85 61.36,32.01C61.35,32.17 61.35,32.33 61.34,32.49C61.34,32.65 61.34,32.81 61.33,32.97C61.32,33.13 61.31,33.29 61.3,33.45C61.29,33.61 61.29,33.76 61.29,33.92C61.28,34.08 61.28,34.24 61.27,34.4C61.26,34.56 61.26,34.72 61.25,34.88C61.25,35.04 61.24,35.2 61.24,35.36C61.23,35.52 61.23,35.68 61.22,35.84C61.22,36 61.21,36.15 61.21,36.31C61.2,36.47 61.2,36.63 61.19,36.79C61.18,36.95 61.18,37.11 61.17,37.27C61.16,37.43 61.15,37.59 61.14,37.75C61.13,37.91 61.12,38.07 61.11,38.23C61.1,38.39 61.09,38.54 61.08,38.7C61.07,38.86 61.05,39.02 61.04,39.18C61.02,39.34 61.01,39.5 60.99,39.66C60.98,39.82 60.96,39.98 60.95,40.14C60.94,40.3 60.92,40.46 60.91,40.62C60.9,40.78 60.88,40.93 60.87,41.09C60.86,41.25 60.84,41.41 60.83,41.57C60.82,41.73 60.8,41.89 60.79,42.05C60.77,42.21 60.76,42.37 60.74,42.53C60.72,42.69 60.71,42.84 60.69,43C60.67,43.16 60.66,43.32 60.64,43.48C60.62,43.64 60.6,43.8 60.58,43.96C60.56,44.12 60.53,44.28 60.51,44.44C60.49,44.6 60.47,44.76 60.44,44.92C60.42,45.08 60.39,45.23 60.36,45.39C60.33,45.55 60.31,45.71 60.28,45.87C60.25,46.03 60.21,46.19 60.18,46.35C60.15,46.51 60.12,46.67 60.08,46.83C60.04,46.99 60,47.15 59.96,47.31C59.92,47.47 59.88,47.62 59.84,47.78C59.8,47.94 59.75,48.1 59.7,48.26C59.66,48.42 59.61,48.58 59.57,48.74C59.52,48.9 59.48,49.06 59.43,49.22C59.39,49.38 59.34,49.53 59.3,49.69C59.25,49.85 59.21,50.01 59.16,50.17C59.11,50.33 59.06,50.49 59.01,50.65C58.96,50.81 58.9,50.97 58.84,51.13C58.78,51.29 58.72,51.45 58.65,51.61C58.59,51.77 58.52,51.92 58.45,52.08C58.38,52.24 58.31,52.4 58.24,52.56C58.17,52.72 58.09,52.88 58.02,53.04C57.95,53.2 57.88,53.36 57.81,53.52C57.74,53.68 57.67,53.84 57.6,54C57.53,54.16 57.46,54.31 57.39,54.47C57.32,54.63 57.26,54.79 57.2,54.95C57.13,55.11 57.07,55.27 57,55.43C56.93,55.59 56.87,55.75 56.8,55.91C56.73,56.07 56.67,56.22 56.6,56.38C56.53,56.54 56.45,56.7 56.38,56.86C56.31,57.02 56.23,57.18 56.16,57.34C56.08,57.5 56.01,57.66 55.93,57.82C55.85,57.98 55.77,58.14 55.69,58.3C55.61,58.46 55.52,58.61 55.44,58.77C55.36,58.93 55.27,59.09 55.19,59.25C55.1,59.41 55.02,59.57 54.93,59.73C54.85,59.89 54.76,60.05 54.68,60.21C54.59,60.37 54.51,60.53 54.42,60.69C54.33,60.85 54.24,61 54.16,61.16C54.07,61.32 53.99,61.48 53.91,61.64C53.83,61.8 53.75,61.96 53.67,62.12C53.59,62.28 53.52,62.44 53.45,62.6C53.38,62.76 53.31,62.91 53.25,63.07C53.19,63.23 53.13,63.39 53.07,63.55C53.01,63.71 52.96,63.87 52.9,64.03C52.84,64.19 52.79,64.35 52.73,64.51C52.68,64.67 52.62,64.83 52.57,64.99C52.52,65.15 52.47,65.3 52.42,65.46C52.37,65.62 52.32,65.78 52.27,65.94C52.22,66.1 52.18,66.26 52.14,66.42C52.1,66.58 52.07,66.74 52.03,66.9C52,67.06 51.96,67.22 51.93,67.38C51.9,67.54 51.86,67.69 51.84,67.85C51.81,68.01 51.8,68.17 51.78,68.33C51.76,68.49 51.74,68.65 51.73,68.81C51.72,68.97 51.71,69.13 51.7,69.29C51.69,69.45 51.69,69.61 51.68,69.77C51.68,69.93 51.67,70.08 51.67,70.24C51.66,70.4 51.66,70.56 51.65,70.72C51.64,70.88 51.64,71.04 51.63,71.2C51.62,71.36 51.62,71.52 51.61,71.68C51.6,71.84 51.6,71.99 51.59,72.15C51.58,72.31 51.58,72.47 51.57,72.63C51.57,72.79 51.56,72.95 51.56,73.11C51.56,73.27 51.55,73.43 51.55,73.59C51.55,73.75 51.55,73.91 51.55,74.07C51.55,74.23 51.56,74.38 51.57,74.54C51.58,74.7 51.59,74.86 51.6,75.02C51.61,75.18 51.63,75.34 51.64,75.5C51.65,75.66 51.67,75.82 51.68,75.98C51.69,76.14 51.7,76.3 51.7,76.46C51.7,76.62 51.7,76.77 51.7,76.93C51.7,77.09 51.69,77.25 51.69,77.41C51.68,77.57 51.68,77.73 51.67,77.89C51.66,78.05 51.64,78.21 51.63,78.37C51.62,78.53 51.61,78.68 51.6,78.84C51.59,79 51.57,79.16 51.56,79.32C51.55,79.48 51.53,79.64 51.52,79.8C51.51,79.96 51.49,80.12 51.48,80.28C51.47,80.44 51.46,80.6 51.46,80.76C51.46,80.92 51.46,81.07 51.46,81.23C51.46,81.39 51.46,81.55 51.47,81.71C51.48,81.87 51.5,82.03 51.52,82.19C51.54,82.35 51.57,82.51 51.6,82.67C51.63,82.83 51.67,82.99 51.71,83.15C51.75,83.31 51.79,83.46 51.84,83.62C51.89,83.78 51.94,83.94 52,84.1C52.06,84.26 52.12,84.42 52.18,84.58C52.24,84.74 52.3,84.9 52.37,85.06C52.44,85.22 52.51,85.37 52.58,85.53C52.66,85.69 52.73,85.85 52.82,86.01C52.91,86.17 53,86.33 53.1,86.49C53.2,86.65 53.31,86.81 53.42,86.97C53.54,87.13 53.66,87.29 53.79,87.45C53.93,87.61 54.08,87.76 54.23,87.92C54.39,88.08 54.54,88.24 54.71,88.4C54.88,88.56 55.06,88.72 55.24,88.88C55.42,89.04 55.6,89.2 55.79,89.36C55.98,89.52 56.17,89.68 56.36,89.84C56.55,90 56.73,90.15 56.91,90.31C57.09,90.47 57.28,90.63 57.45,90.79C57.62,90.95 57.78,91.11 57.94,91.27C58.1,91.43 58.25,91.59 58.4,91.75C58.54,91.91 58.68,92.06 58.81,92.22C58.94,92.38 59.06,92.54 59.18,92.7C59.29,92.86 59.4,93.02 59.5,93.18C59.6,93.34 59.69,93.5 59.78,93.66C59.87,93.82 59.95,93.98 60.03,94.14C60.11,94.3 60.19,94.45 60.26,94.61C60.33,94.77 60.39,94.93 60.45,95.09C60.51,95.25 60.57,95.41 60.63,95.57C60.69,95.73 60.74,95.89 60.79,96.05C60.84,96.21 60.88,96.37 60.92,96.53C60.96,96.69 61,96.84 61.03,97C61.06,97.16 61.09,97.32 61.12,97.48C61.15,97.64 61.18,97.8 61.2,97.96C61.22,98.12 61.24,98.28 61.26,98.44C61.28,98.6 61.29,98.76 61.31,98.92C61.32,99.08 61.34,99.23 61.35,99.39C61.36,99.55 61.37,99.71 61.38,99.87C61.39,100.03 61.4,100.19 61.41,100.35C61.42,100.51 61.42,100.67 61.43,100.83C61.43,100.99 61.44,101.14 61.44,101.3C61.44,101.46 61.45,101.62 61.45,101.78C61.45,101.94 61.46,102.1 61.46,102.26C61.46,102.42 61.47,102.58 61.47,102.74C61.47,102.9 61.48,103.06 61.48,103.22C61.48,103.38 61.48,103.53 61.48,103.69C61.48,103.85 61.49,104.01 61.49,104.17C61.49,104.33 61.49,104.49 61.49,104.65C61.49,104.81 61.49,104.97 61.49,105.13C61.49,105.29 61.5,105.45 61.5,105.61C61.5,105.77 61.5,105.92 61.5,106.08C61.5,106.24 61.5,106.4 61.5,106.56C61.5,106.72 61.5,106.88 61.5,107.04C61.5,107.2 61.5,107.36 61.5,107.52C61.5,107.68 61.5,107.83 61.5,107.99C61.5,108.15 61.5,108.31 61.5,108.47C61.5,108.63 61.5,108.79 61.5,108.95C61.5,109.11 61.5,109.27 61.5,109.43C61.5,109.59 61.5,109.75 61.5,109.91C61.5,110.07 61.5,110.22 61.5,110.38C61.5,110.54 61.5,110.7 61.5,110.86C61.5,111.02 61.5,111.18 61.5,111.34C61.5,111.5 61.5,111.66 61.5,111.82C61.5,111.98 61.5,112.14 61.5,112.3C61.5,112.46 61.5,112.61 61.5,112.77C61.5,112.93 61.5,113.09 61.5,113.25C61.5,113.41 61.5,113.57 61.5,113.73Q61.5,113.89 61.5,114.21Z" style="vector-effect: none; stroke-width: 0.5px; stroke: rgb(0, 0, 0); stroke-opacity: 1; fill: rgb(46, 139, 87); fill-opacity: 1;"/><path class="meanline" d="M71.40149688720703,71.96H51.59850311279297" style="fill: none; vector-effect: none; stroke-width: 0.5px; stroke-dasharray: 1px, 0.5px; stroke: rgb(0, 0, 0); stroke-opacity: 1;"/></g><g class="trace violins" style="opacity: 0.8;"><path class="violin" d="M102.5,171.09Q102.5,170.94 102.5,170.86C102.5,170.79 102.5,170.71 102.5,170.64C102.5,170.57 102.5,170.49 102.5,170.42C102.5,170.35 102.5,170.27 102.5,170.2C102.5,170.13 102.5,170.05 102.5,169.98C102.5,169.91 102.5,169.83 102.5,169.76C102.5,169.69 102.5,169.61 102.5,169.54C102.5,169.47 102.5,169.39 102.5,169.32C102.5,169.25 102.5,169.17 102.5,169.1C102.5,169.03 102.5,168.95 102.5,168.88C102.5,168.81 102.5,168.73 102.5,168.66C102.5,168.59 102.5,168.51 102.5,168.44C102.5,168.37 102.5,168.29 102.5,168.22C102.5,168.15 102.5,168.07 102.5,168C102.5,167.93 102.5,167.85 102.5,167.78C102.5,167.71 102.5,167.63 102.5,167.56C102.5,167.49 102.5,167.41 102.5,167.34C102.5,167.26 102.5,167.19 102.5,167.11C102.5,167.04 102.5,166.96 102.5,166.89C102.5,166.82 102.5,166.74 102.5,166.67C102.5,166.6 102.5,166.52 102.5,166.45C102.5,166.38 102.5,166.3 102.5,166.23C102.5,166.16 102.5,166.08 102.5,166.01C102.5,165.94 102.5,165.86 102.5,165.79C102.5,165.72 102.5,165.64 102.5,165.57C102.5,165.5 102.5,165.42 102.5,165.35C102.5,165.28 102.5,165.2 102.5,165.13C102.5,165.06 102.5,164.98 102.5,164.91C102.5,164.84 102.5,164.76 102.5,164.69C102.5,164.62 102.5,164.54 102.5,164.47C102.5,164.4 102.5,164.32 102.5,164.25C102.5,164.18 102.5,164.1 102.5,164.03C102.5,163.96 102.5,163.88 102.5,163.81C102.5,163.73 102.5,163.66 102.5,163.58C102.5,163.51 102.5,163.43 102.5,163.36C102.5,163.29 102.5,163.21 102.5,163.14C102.5,163.07 102.5,162.99 102.5,162.92C102.5,162.85 102.5,162.77 102.5,162.7C102.5,162.63 102.5,162.55 102.5,162.48C102.5,162.41 102.5,162.33 102.5,162.26C102.5,162.19 102.5,162.11 102.5,162.04C102.5,161.97 102.5,161.89 102.5,161.82C102.5,161.75 102.5,161.67 102.5,161.6C102.5,161.53 102.5,161.45 102.5,161.38C102.5,161.31 102.5,161.23 102.5,161.16C102.5,161.09 102.5,161.01 102.5,160.94C102.5,160.87 102.5,160.79 102.5,160.72C102.5,160.65 102.5,160.57 102.5,160.5C102.5,160.43 102.5,160.35 102.5,160.28C102.5,160.2 102.5,160.13 102.5,160.05C102.5,159.98 102.5,159.9 102.5,159.83C102.5,159.76 102.5,159.68 102.5,159.61C102.5,159.54 102.5,159.46 102.5,159.39C102.5,159.32 102.5,159.24 102.5,159.17C102.5,159.1 102.5,159.02 102.5,158.95C102.5,158.88 102.5,158.8 102.5,158.73C102.5,158.66 102.5,158.58 102.5,158.51C102.5,158.44 102.5,158.36 102.5,158.29C102.5,158.22 102.5,158.14 102.5,158.07C102.5,158 102.5,157.92 102.5,157.85C102.5,157.78 102.5,157.7 102.5,157.63C102.5,157.56 102.5,157.48 102.5,157.41C102.5,157.34 102.51,157.26 102.51,157.19C102.51,157.12 102.51,157.04 102.51,156.97C102.51,156.9 102.51,156.82 102.51,156.75C102.51,156.67 102.51,156.6 102.51,156.52C102.51,156.45 102.51,156.37 102.51,156.3C102.51,156.23 102.51,156.15 102.51,156.08C102.51,156.01 102.51,155.93 102.51,155.86C102.51,155.79 102.51,155.71 102.51,155.64C102.51,155.57 102.51,155.49 102.51,155.42C102.51,155.35 102.51,155.27 102.51,155.2C102.51,155.13 102.51,155.05 102.51,154.98C102.51,154.91 102.51,154.83 102.51,154.76C102.51,154.69 102.51,154.61 102.51,154.54C102.51,154.47 102.51,154.39 102.51,154.32C102.51,154.25 102.52,154.17 102.52,154.1C102.52,154.03 102.52,153.95 102.52,153.88C102.52,153.81 102.52,153.73 102.52,153.66C102.52,153.59 102.52,153.51 102.52,153.44C102.52,153.37 102.52,153.29 102.52,153.22C102.52,153.15 102.53,153.07 102.53,153C102.53,152.92 102.53,152.85 102.53,152.77C102.53,152.7 102.53,152.62 102.53,152.55C102.53,152.48 102.53,152.4 102.53,152.33C102.53,152.26 102.53,152.18 102.53,152.11C102.53,152.04 102.53,151.96 102.53,151.89C102.53,151.82 102.54,151.74 102.54,151.67C102.54,151.6 102.54,151.52 102.54,151.45C102.54,151.38 102.54,151.3 102.54,151.23C102.54,151.16 102.54,151.08 102.54,151.01C102.54,150.94 102.54,150.86 102.54,150.79C102.54,150.72 102.55,150.64 102.55,150.57C102.55,150.5 102.55,150.42 102.55,150.35C102.55,150.28 102.55,150.2 102.55,150.13C102.55,150.06 102.56,149.98 102.56,149.91C102.56,149.84 102.56,149.76 102.56,149.69C102.56,149.62 102.56,149.54 102.56,149.47C102.56,149.39 102.57,149.32 102.57,149.24C102.57,149.17 102.57,149.09 102.57,149.02C102.57,148.95 102.58,148.87 102.58,148.8C102.58,148.73 102.59,148.65 102.59,148.58C102.59,148.51 102.59,148.43 102.59,148.36C102.59,148.29 102.6,148.21 102.6,148.14C102.6,148.07 102.6,147.99 102.6,147.92C102.6,147.85 102.61,147.77 102.61,147.7C102.61,147.63 102.62,147.55 102.62,147.48C102.62,147.41 102.62,147.33 102.62,147.26C102.62,147.19 102.63,147.11 102.63,147.04C102.63,146.97 102.64,146.89 102.64,146.82C102.64,146.75 102.64,146.67 102.64,146.6C102.64,146.53 102.65,146.45 102.65,146.38C102.65,146.31 102.66,146.23 102.66,146.16C102.66,146.09 102.67,146.01 102.67,145.94C102.67,145.86 102.68,145.79 102.68,145.71C102.68,145.64 102.69,145.56 102.69,145.49C102.69,145.42 102.7,145.34 102.7,145.27C102.7,145.2 102.71,145.12 102.71,145.05C102.71,144.98 102.72,144.9 102.72,144.83C102.73,144.76 102.73,144.68 102.74,144.61C102.74,144.54 102.75,144.46 102.75,144.39C102.76,144.32 102.76,144.24 102.77,144.17C102.77,144.1 102.78,144.02 102.78,143.95C102.79,143.88 102.79,143.8 102.8,143.73C102.8,143.66 102.81,143.58 102.81,143.51C102.81,143.44 102.82,143.36 102.82,143.29C102.82,143.22 102.82,143.14 102.82,143.07C102.82,143 102.83,142.92 102.83,142.85C102.83,142.78 102.84,142.7 102.84,142.63C102.84,142.56 102.84,142.48 102.84,142.41C102.84,142.34 102.86,142.26 102.86,142.19C102.87,142.11 102.86,142.04 102.87,141.96C102.87,141.89 102.88,141.81 102.89,141.74C102.9,141.67 102.9,141.59 102.91,141.52C102.92,141.45 102.92,141.37 102.93,141.3C102.94,141.23 102.94,141.15 102.95,141.08C102.96,141.01 102.96,140.93 102.97,140.86C102.98,140.79 102.99,140.71 103,140.64C103.01,140.57 103.01,140.49 103.02,140.42C103.03,140.35 103.03,140.27 103.04,140.2C103.05,140.13 103.05,140.05 103.06,139.98C103.07,139.91 103.07,139.83 103.08,139.76C103.09,139.69 103.09,139.61 103.1,139.54C103.11,139.47 103.11,139.39 103.12,139.32C103.13,139.25 103.14,139.17 103.15,139.1C103.16,139.03 103.17,138.95 103.18,138.88C103.19,138.81 103.2,138.73 103.21,138.66C103.22,138.58 103.23,138.51 103.24,138.43C103.25,138.36 103.26,138.28 103.27,138.21C103.28,138.14 103.28,138.06 103.29,137.99C103.3,137.92 103.31,137.84 103.32,137.77C103.33,137.7 103.34,137.62 103.35,137.55C103.36,137.48 103.37,137.4 103.38,137.33C103.39,137.26 103.4,137.18 103.41,137.11C103.42,137.04 103.43,136.96 103.44,136.89C103.45,136.82 103.46,136.74 103.47,136.67C103.48,136.6 103.49,136.52 103.5,136.45C103.51,136.38 103.52,136.3 103.53,136.23C103.54,136.16 103.55,136.08 103.56,136.01C103.57,135.94 103.58,135.86 103.59,135.79C103.6,135.72 103.61,135.64 103.62,135.57C103.63,135.5 103.64,135.42 103.65,135.35C103.66,135.28 103.68,135.2 103.69,135.13C103.7,135.05 103.72,134.98 103.73,134.9C103.74,134.83 103.76,134.75 103.77,134.68C103.78,134.61 103.8,134.53 103.81,134.46C103.83,134.39 103.84,134.31 103.86,134.24C103.88,134.17 103.89,134.09 103.91,134.02C103.93,133.95 103.94,133.87 103.96,133.8C103.98,133.73 104,133.65 104.02,133.58C104.04,133.51 104.06,133.43 104.08,133.36C104.1,133.29 104.12,133.21 104.14,133.14C104.16,133.07 104.19,132.99 104.21,132.92C104.23,132.85 104.26,132.77 104.28,132.7C104.3,132.63 104.33,132.55 104.35,132.48C104.38,132.41 104.4,132.33 104.43,132.26C104.46,132.19 104.49,132.11 104.52,132.04C104.55,131.97 104.58,131.89 104.61,131.82C104.64,131.75 104.68,131.67 104.71,131.6C104.74,131.53 104.77,131.45 104.81,131.38C104.85,131.3 104.89,131.23 104.93,131.15C104.97,131.08 105.02,131 105.06,130.93C105.1,130.86 105.15,130.78 105.19,130.71C105.24,130.64 105.28,130.56 105.33,130.49C105.38,130.42 105.43,130.34 105.48,130.27C105.53,130.2 105.58,130.12 105.63,130.05C105.68,129.98 105.74,129.9 105.79,129.83C105.85,129.76 105.9,129.68 105.96,129.61C106.02,129.54 106.08,129.46 106.14,129.39C106.2,129.32 106.26,129.24 106.33,129.17C106.4,129.1 106.47,129.02 106.54,128.95C106.61,128.88 106.69,128.8 106.76,128.73C106.84,128.66 106.91,128.58 106.99,128.51C107.07,128.44 107.16,128.36 107.24,128.29C107.32,128.22 107.41,128.14 107.49,128.07C107.57,128 107.65,127.92 107.74,127.85C107.83,127.77 107.92,127.7 108.01,127.62C108.1,127.55 108.19,127.47 108.28,127.4C108.37,127.33 108.47,127.25 108.56,127.18C108.66,127.11 108.75,127.03 108.85,126.96C108.95,126.89 109.04,126.81 109.14,126.74C109.24,126.67 109.34,126.59 109.44,126.52C109.54,126.45 109.63,126.37 109.73,126.3C109.83,126.23 109.92,126.15 110.02,126.08C110.11,126.01 110.21,125.93 110.3,125.86C110.39,125.79 110.47,125.71 110.56,125.64C110.64,125.57 110.73,125.49 110.81,125.42C110.89,125.35 110.97,125.27 111.05,125.2C111.13,125.13 111.21,125.05 111.28,124.98C111.35,124.91 111.42,124.83 111.49,124.76C111.56,124.69 111.63,124.61 111.7,124.54C111.77,124.47 111.83,124.39 111.89,124.32C111.95,124.24 112.01,124.17 112.07,124.09C112.12,124.02 112.17,123.94 112.22,123.87C112.27,123.8 112.31,123.72 112.35,123.65C112.39,123.58 112.42,123.5 112.45,123.43C112.48,123.36 112.49,123.28 112.51,123.21C112.53,123.14 112.55,123.06 112.55,122.99C112.55,122.92 112.55,122.84 112.54,122.77C112.53,122.7 112.53,122.62 112.51,122.55C112.49,122.48 112.47,122.4 112.44,122.33C112.41,122.26 112.37,122.18 112.33,122.11C112.29,122.04 112.25,121.96 112.2,121.89C112.15,121.82 112.09,121.74 112.03,121.67C111.97,121.6 111.91,121.52 111.84,121.45C111.77,121.38 111.7,121.3 111.62,121.23C111.54,121.16 111.45,121.08 111.37,121.01C111.28,120.94 111.2,120.86 111.11,120.79C111.02,120.72 110.92,120.64 110.82,120.57C110.72,120.49 110.62,120.41 110.52,120.34C110.42,120.26 110.31,120.19 110.2,120.12C110.09,120.05 109.97,119.97 109.86,119.9C109.75,119.83 109.64,119.75 109.52,119.68C109.4,119.61 109.28,119.53 109.16,119.46C109.04,119.39 108.92,119.31 108.8,119.24C108.68,119.17 108.55,119.09 108.43,119.02C108.31,118.95 108.18,118.87 108.06,118.8C107.94,118.73 107.82,118.65 107.7,118.58C107.58,118.51 107.47,118.43 107.35,118.36C107.24,118.29 107.12,118.21 107.01,118.14C106.9,118.07 106.78,117.99 106.67,117.92C106.56,117.85 106.46,117.77 106.35,117.7C106.25,117.63 106.14,117.55 106.04,117.48C105.94,117.41 105.84,117.33 105.74,117.26C105.64,117.19 105.54,117.12 105.44,117.04C105.35,116.97 105.26,116.89 105.17,116.81C105.08,116.74 104.99,116.66 104.9,116.59C104.81,116.52 104.73,116.44 104.65,116.37C104.57,116.3 104.5,116.22 104.42,116.15C104.35,116.08 104.27,116 104.2,115.93C104.13,115.86 104.07,115.78 104.01,115.71C103.95,115.64 103.89,115.56 103.83,115.49C103.77,115.42 103.72,115.34 103.67,115.27C103.62,115.2 103.57,115.12 103.52,115.05C103.48,114.98 103.44,114.9 103.4,114.83C103.36,114.76 103.32,114.68 103.28,114.61C103.24,114.54 103.21,114.46 103.18,114.39C103.15,114.32 103.11,114.24 103.08,114.17C103.05,114.1 103.03,114.02 103,113.95C102.98,113.88 102.95,113.8 102.93,113.73C102.91,113.66 102.89,113.58 102.87,113.51C102.85,113.43 102.84,113.36 102.82,113.28C102.8,113.21 102.78,113.13 102.77,113.06C102.76,112.99 102.75,112.91 102.74,112.84C102.73,112.77 102.71,112.69 102.7,112.62C102.69,112.55 102.68,112.47 102.67,112.4C102.66,112.33 102.65,112.25 102.64,112.18C102.63,112.11 102.63,112.03 102.62,111.96C102.61,111.89 102.61,111.81 102.6,111.74C102.6,111.67 102.59,111.59 102.59,111.52C102.58,111.45 102.58,111.37 102.57,111.3C102.57,111.23 102.56,111.15 102.56,111.08C102.56,111.01 102.55,110.93 102.55,110.86C102.55,110.79 102.54,110.71 102.54,110.64C102.54,110.57 102.54,110.49 102.54,110.42C102.54,110.35 102.53,110.27 102.53,110.2C102.53,110.13 102.53,110.05 102.53,109.98C102.53,109.91 102.52,109.83 102.52,109.76C102.52,109.68 102.52,109.61 102.52,109.53C102.52,109.46 102.52,109.38 102.52,109.31C102.52,109.24 102.51,109.16 102.51,109.09C102.51,109.02 102.51,108.94 102.51,108.87C102.51,108.8 102.51,108.72 102.51,108.65C102.51,108.58 102.51,108.5 102.51,108.43C102.51,108.36 102.51,108.28 102.51,108.21C102.51,108.14 102.5,108.06 102.5,107.99C102.5,107.92 102.5,107.84 102.5,107.77C102.5,107.7 102.5,107.62 102.5,107.55C102.5,107.48 102.5,107.4 102.5,107.33C102.5,107.26 102.5,107.18 102.5,107.11C102.5,107.04 102.5,106.96 102.5,106.89C102.5,106.82 102.5,106.74 102.5,106.67C102.5,106.6 102.5,106.52 102.5,106.45C102.5,106.38 102.5,106.3 102.5,106.23C102.5,106.15 102.5,106.08 102.5,106C102.5,105.93 102.5,105.85 102.5,105.78C102.5,105.71 102.5,105.63 102.5,105.56C102.5,105.49 102.5,105.41 102.5,105.34C102.5,105.27 102.5,105.19 102.5,105.12C102.5,105.05 102.5,104.97 102.5,104.9C102.5,104.83 102.5,104.75 102.5,104.68C102.5,104.61 102.5,104.53 102.5,104.46C102.5,104.39 102.5,104.31 102.5,104.24C102.5,104.17 102.5,104.09 102.5,104.02C102.5,103.95 102.5,103.87 102.5,103.8C102.5,103.73 102.5,103.65 102.5,103.58C102.5,103.51 102.5,103.43 102.5,103.36C102.5,103.29 102.5,103.21 102.5,103.14C102.5,103.07 102.5,102.99 102.5,102.92C102.5,102.85 102.5,102.77 102.5,102.7C102.5,102.62 102.5,102.55 102.5,102.47Q102.5,102.4 102.5,102.25L102.5,102.25Q102.5,102.4 102.5,102.47C102.5,102.55 102.5,102.62 102.5,102.7C102.5,102.77 102.5,102.85 102.5,102.92C102.5,102.99 102.5,103.07 102.5,103.14C102.5,103.21 102.5,103.29 102.5,103.36C102.5,103.43 102.5,103.51 102.5,103.58C102.5,103.65 102.5,103.73 102.5,103.8C102.5,103.87 102.5,103.95 102.5,104.02C102.5,104.09 102.5,104.17 102.5,104.24C102.5,104.31 102.5,104.39 102.5,104.46C102.5,104.53 102.5,104.61 102.5,104.68C102.5,104.75 102.5,104.83 102.5,104.9C102.5,104.97 102.5,105.05 102.5,105.12C102.5,105.19 102.5,105.27 102.5,105.34C102.5,105.41 102.5,105.49 102.5,105.56C102.5,105.63 102.5,105.71 102.5,105.78C102.5,105.85 102.5,105.93 102.5,106C102.5,106.08 102.5,106.15 102.5,106.23C102.5,106.3 102.5,106.38 102.5,106.45C102.5,106.52 102.5,106.6 102.5,106.67C102.5,106.74 102.5,106.82 102.5,106.89C102.5,106.96 102.5,107.04 102.5,107.11C102.5,107.18 102.5,107.26 102.5,107.33C102.5,107.4 102.5,107.48 102.5,107.55C102.5,107.62 102.5,107.7 102.5,107.77C102.5,107.84 102.5,107.92 102.5,107.99C102.5,108.06 102.49,108.14 102.49,108.21C102.49,108.28 102.49,108.36 102.49,108.43C102.49,108.5 102.49,108.58 102.49,108.65C102.49,108.72 102.49,108.8 102.49,108.87C102.49,108.94 102.49,109.02 102.49,109.09C102.49,109.16 102.48,109.24 102.48,109.31C102.48,109.38 102.48,109.46 102.48,109.53C102.48,109.61 102.48,109.68 102.48,109.76C102.48,109.83 102.47,109.91 102.47,109.98C102.47,110.05 102.47,110.13 102.47,110.2C102.47,110.27 102.46,110.35 102.46,110.42C102.46,110.49 102.46,110.57 102.46,110.64C102.46,110.71 102.45,110.79 102.45,110.86C102.45,110.93 102.44,111.01 102.44,111.08C102.44,111.15 102.43,111.23 102.43,111.3C102.42,111.37 102.42,111.45 102.41,111.52C102.41,111.59 102.4,111.67 102.4,111.74C102.39,111.81 102.39,111.89 102.38,111.96C102.37,112.03 102.37,112.11 102.36,112.18C102.35,112.25 102.34,112.33 102.33,112.4C102.32,112.47 102.31,112.55 102.3,112.62C102.29,112.69 102.27,112.77 102.26,112.84C102.25,112.91 102.24,112.99 102.23,113.06C102.22,113.13 102.2,113.21 102.18,113.28C102.16,113.36 102.15,113.43 102.13,113.51C102.11,113.58 102.09,113.66 102.07,113.73C102.05,113.8 102.02,113.88 102,113.95C101.97,114.02 101.95,114.1 101.92,114.17C101.89,114.24 101.85,114.32 101.82,114.39C101.79,114.46 101.76,114.54 101.72,114.61C101.68,114.68 101.64,114.76 101.6,114.83C101.56,114.9 101.52,114.98 101.48,115.05C101.43,115.12 101.38,115.2 101.33,115.27C101.28,115.34 101.23,115.42 101.17,115.49C101.11,115.56 101.05,115.64 100.99,115.71C100.93,115.78 100.87,115.86 100.8,115.93C100.73,116 100.65,116.08 100.58,116.15C100.5,116.22 100.43,116.3 100.35,116.37C100.27,116.44 100.19,116.52 100.1,116.59C100.01,116.66 99.92,116.74 99.83,116.81C99.74,116.89 99.65,116.97 99.56,117.04C99.46,117.12 99.36,117.19 99.26,117.26C99.16,117.33 99.06,117.41 98.96,117.48C98.86,117.55 98.75,117.63 98.65,117.7C98.54,117.77 98.44,117.85 98.33,117.92C98.22,117.99 98.1,118.07 97.99,118.14C97.88,118.21 97.76,118.29 97.65,118.36C97.53,118.43 97.42,118.51 97.3,118.58C97.18,118.65 97.06,118.73 96.94,118.8C96.82,118.87 96.69,118.95 96.57,119.02C96.45,119.09 96.32,119.17 96.2,119.24C96.08,119.31 95.96,119.39 95.84,119.46C95.72,119.53 95.6,119.61 95.48,119.68C95.36,119.75 95.25,119.83 95.14,119.9C95.03,119.97 94.91,120.05 94.8,120.12C94.69,120.19 94.58,120.26 94.48,120.34C94.38,120.41 94.28,120.49 94.18,120.57C94.08,120.64 93.98,120.72 93.89,120.79C93.8,120.86 93.72,120.94 93.63,121.01C93.55,121.08 93.46,121.16 93.38,121.23C93.3,121.3 93.23,121.38 93.16,121.45C93.09,121.52 93.03,121.6 92.97,121.67C92.91,121.74 92.85,121.82 92.8,121.89C92.75,121.96 92.71,122.04 92.67,122.11C92.63,122.18 92.59,122.26 92.56,122.33C92.53,122.4 92.51,122.48 92.49,122.55C92.47,122.62 92.46,122.7 92.46,122.77C92.46,122.84 92.46,122.92 92.46,122.99C92.46,123.06 92.48,123.14 92.49,123.21C92.51,123.28 92.52,123.36 92.55,123.43C92.58,123.5 92.61,123.58 92.65,123.65C92.69,123.72 92.73,123.8 92.78,123.87C92.83,123.94 92.88,124.02 92.93,124.09C92.99,124.17 93.05,124.24 93.11,124.32C93.17,124.39 93.23,124.47 93.3,124.54C93.37,124.61 93.44,124.69 93.51,124.76C93.58,124.83 93.65,124.91 93.72,124.98C93.79,125.05 93.87,125.13 93.95,125.2C94.03,125.27 94.11,125.35 94.19,125.42C94.27,125.49 94.36,125.57 94.44,125.64C94.53,125.71 94.61,125.79 94.7,125.86C94.79,125.93 94.89,126.01 94.98,126.08C95.08,126.15 95.17,126.23 95.27,126.3C95.37,126.37 95.46,126.45 95.56,126.52C95.66,126.59 95.76,126.67 95.86,126.74C95.96,126.81 96.05,126.89 96.15,126.96C96.25,127.03 96.34,127.11 96.44,127.18C96.53,127.25 96.63,127.33 96.72,127.4C96.81,127.47 96.9,127.55 96.99,127.62C97.08,127.7 97.17,127.77 97.26,127.85C97.35,127.92 97.43,128 97.51,128.07C97.59,128.14 97.68,128.22 97.76,128.29C97.84,128.36 97.93,128.44 98.01,128.51C98.09,128.58 98.16,128.66 98.24,128.73C98.31,128.8 98.39,128.88 98.46,128.95C98.53,129.02 98.6,129.1 98.67,129.17C98.74,129.24 98.8,129.32 98.86,129.39C98.92,129.46 98.98,129.54 99.04,129.61C99.1,129.68 99.15,129.76 99.21,129.83C99.26,129.9 99.32,129.98 99.37,130.05C99.42,130.12 99.47,130.2 99.52,130.27C99.57,130.34 99.62,130.42 99.67,130.49C99.72,130.56 99.76,130.64 99.81,130.71C99.85,130.78 99.9,130.86 99.94,130.93C99.98,131 100.03,131.08 100.07,131.15C100.11,131.23 100.15,131.3 100.19,131.38C100.23,131.45 100.26,131.53 100.29,131.6C100.32,131.67 100.36,131.75 100.39,131.82C100.42,131.89 100.45,131.97 100.48,132.04C100.51,132.11 100.54,132.19 100.57,132.26C100.6,132.33 100.62,132.41 100.65,132.48C100.67,132.55 100.7,132.63 100.72,132.7C100.74,132.77 100.77,132.85 100.79,132.92C100.81,132.99 100.84,133.07 100.86,133.14C100.88,133.21 100.9,133.29 100.92,133.36C100.94,133.43 100.96,133.51 100.98,133.58C101,133.65 101.02,133.73 101.04,133.8C101.06,133.87 101.07,133.95 101.09,134.02C101.11,134.09 101.12,134.17 101.14,134.24C101.16,134.31 101.17,134.39 101.19,134.46C101.2,134.53 101.22,134.61 101.23,134.68C101.24,134.75 101.26,134.83 101.27,134.9C101.28,134.98 101.3,135.05 101.31,135.13C101.32,135.2 101.34,135.28 101.35,135.35C101.36,135.42 101.37,135.5 101.38,135.57C101.39,135.64 101.4,135.72 101.41,135.79C101.42,135.86 101.43,135.94 101.44,136.01C101.45,136.08 101.46,136.16 101.47,136.23C101.48,136.3 101.49,136.38 101.5,136.45C101.51,136.52 101.52,136.6 101.53,136.67C101.54,136.74 101.55,136.82 101.56,136.89C101.57,136.96 101.58,137.04 101.59,137.11C101.6,137.18 101.61,137.26 101.62,137.33C101.63,137.4 101.64,137.48 101.65,137.55C101.66,137.62 101.67,137.7 101.68,137.77C101.69,137.84 101.7,137.92 101.71,137.99C101.72,138.06 101.72,138.14 101.73,138.21C101.74,138.28 101.75,138.36 101.76,138.43C101.77,138.51 101.78,138.58 101.79,138.66C101.8,138.73 101.81,138.81 101.82,138.88C101.83,138.95 101.84,139.03 101.85,139.1C101.86,139.17 101.87,139.25 101.88,139.32C101.89,139.39 101.89,139.47 101.9,139.54C101.91,139.61 101.91,139.69 101.92,139.76C101.93,139.83 101.93,139.91 101.94,139.98C101.95,140.05 101.95,140.13 101.96,140.2C101.97,140.27 101.97,140.35 101.98,140.42C101.99,140.49 101.99,140.57 102,140.64C102.01,140.71 102.02,140.79 102.03,140.86C102.04,140.93 102.04,141.01 102.05,141.08C102.06,141.15 102.06,141.23 102.07,141.3C102.08,141.37 102.08,141.45 102.09,141.52C102.1,141.59 102.1,141.67 102.11,141.74C102.12,141.81 102.13,141.89 102.13,141.96C102.14,142.04 102.13,142.11 102.14,142.19C102.14,142.26 102.16,142.34 102.16,142.41C102.16,142.48 102.16,142.56 102.16,142.63C102.16,142.7 102.17,142.78 102.17,142.85C102.17,142.92 102.18,143 102.18,143.07C102.18,143.14 102.18,143.22 102.18,143.29C102.18,143.36 102.19,143.44 102.19,143.51C102.19,143.58 102.2,143.66 102.2,143.73C102.21,143.8 102.21,143.88 102.22,143.95C102.22,144.02 102.23,144.1 102.23,144.17C102.24,144.24 102.24,144.32 102.25,144.39C102.25,144.46 102.26,144.54 102.26,144.61C102.27,144.68 102.27,144.76 102.28,144.83C102.28,144.9 102.29,144.98 102.29,145.05C102.29,145.12 102.3,145.2 102.3,145.27C102.3,145.34 102.31,145.42 102.31,145.49C102.31,145.56 102.32,145.64 102.32,145.71C102.32,145.79 102.33,145.86 102.33,145.94C102.33,146.01 102.34,146.09 102.34,146.16C102.34,146.23 102.35,146.31 102.35,146.38C102.35,146.45 102.36,146.53 102.36,146.6C102.36,146.67 102.36,146.75 102.36,146.82C102.36,146.89 102.37,146.97 102.37,147.04C102.37,147.11 102.38,147.19 102.38,147.26C102.38,147.33 102.38,147.41 102.38,147.48C102.38,147.55 102.39,147.63 102.39,147.7C102.39,147.77 102.4,147.85 102.4,147.92C102.4,147.99 102.4,148.07 102.4,148.14C102.4,148.21 102.41,148.29 102.41,148.36C102.41,148.43 102.41,148.51 102.41,148.58C102.41,148.65 102.42,148.73 102.42,148.8C102.42,148.87 102.43,148.95 102.43,149.02C102.43,149.09 102.43,149.17 102.43,149.24C102.43,149.32 102.44,149.39 102.44,149.47C102.44,149.54 102.44,149.62 102.44,149.69C102.44,149.76 102.44,149.84 102.44,149.91C102.44,149.98 102.45,150.06 102.45,150.13C102.45,150.2 102.45,150.28 102.45,150.35C102.45,150.42 102.45,150.5 102.45,150.57C102.45,150.64 102.46,150.72 102.46,150.79C102.46,150.86 102.46,150.94 102.46,151.01C102.46,151.08 102.46,151.16 102.46,151.23C102.46,151.3 102.46,151.38 102.46,151.45C102.46,151.52 102.46,151.6 102.46,151.67C102.46,151.74 102.47,151.82 102.47,151.89C102.47,151.96 102.47,152.04 102.47,152.11C102.47,152.18 102.47,152.26 102.47,152.33C102.47,152.4 102.47,152.48 102.47,152.55C102.47,152.62 102.47,152.7 102.47,152.77C102.47,152.85 102.47,152.92 102.47,153C102.47,153.07 102.48,153.15 102.48,153.22C102.48,153.29 102.48,153.37 102.48,153.44C102.48,153.51 102.48,153.59 102.48,153.66C102.48,153.73 102.48,153.81 102.48,153.88C102.48,153.95 102.48,154.03 102.48,154.1C102.48,154.17 102.49,154.25 102.49,154.32C102.49,154.39 102.49,154.47 102.49,154.54C102.49,154.61 102.49,154.69 102.49,154.76C102.49,154.83 102.49,154.91 102.49,154.98C102.49,155.05 102.49,155.13 102.49,155.2C102.49,155.27 102.49,155.35 102.49,155.42C102.49,155.49 102.49,155.57 102.49,155.64C102.49,155.71 102.49,155.79 102.49,155.86C102.49,155.93 102.49,156.01 102.49,156.08C102.49,156.15 102.49,156.23 102.49,156.3C102.49,156.37 102.49,156.45 102.49,156.52C102.49,156.6 102.49,156.67 102.49,156.75C102.49,156.82 102.49,156.9 102.49,156.97C102.49,157.04 102.49,157.12 102.49,157.19C102.49,157.26 102.5,157.34 102.5,157.41C102.5,157.48 102.5,157.56 102.5,157.63C102.5,157.7 102.5,157.78 102.5,157.85C102.5,157.92 102.5,158 102.5,158.07C102.5,158.14 102.5,158.22 102.5,158.29C102.5,158.36 102.5,158.44 102.5,158.51C102.5,158.58 102.5,158.66 102.5,158.73C102.5,158.8 102.5,158.88 102.5,158.95C102.5,159.02 102.5,159.1 102.5,159.17C102.5,159.24 102.5,159.32 102.5,159.39C102.5,159.46 102.5,159.54 102.5,159.61C102.5,159.68 102.5,159.76 102.5,159.83C102.5,159.9 102.5,159.98 102.5,160.05C102.5,160.13 102.5,160.2 102.5,160.28C102.5,160.35 102.5,160.43 102.5,160.5C102.5,160.57 102.5,160.65 102.5,160.72C102.5,160.79 102.5,160.87 102.5,160.94C102.5,161.01 102.5,161.09 102.5,161.16C102.5,161.23 102.5,161.31 102.5,161.38C102.5,161.45 102.5,161.53 102.5,161.6C102.5,161.67 102.5,161.75 102.5,161.82C102.5,161.89 102.5,161.97 102.5,162.04C102.5,162.11 102.5,162.19 102.5,162.26C102.5,162.33 102.5,162.41 102.5,162.48C102.5,162.55 102.5,162.63 102.5,162.7C102.5,162.77 102.5,162.85 102.5,162.92C102.5,162.99 102.5,163.07 102.5,163.14C102.5,163.21 102.5,163.29 102.5,163.36C102.5,163.43 102.5,163.51 102.5,163.58C102.5,163.66 102.5,163.73 102.5,163.81C102.5,163.88 102.5,163.96 102.5,164.03C102.5,164.1 102.5,164.18 102.5,164.25C102.5,164.32 102.5,164.4 102.5,164.47C102.5,164.54 102.5,164.62 102.5,164.69C102.5,164.76 102.5,164.84 102.5,164.91C102.5,164.98 102.5,165.06 102.5,165.13C102.5,165.2 102.5,165.28 102.5,165.35C102.5,165.42 102.5,165.5 102.5,165.57C102.5,165.64 102.5,165.72 102.5,165.79C102.5,165.86 102.5,165.94 102.5,166.01C102.5,166.08 102.5,166.16 102.5,166.23C102.5,166.3 102.5,166.38 102.5,166.45C102.5,166.52 102.5,166.6 102.5,166.67C102.5,166.74 102.5,166.82 102.5,166.89C102.5,166.96 102.5,167.04 102.5,167.11C102.5,167.19 102.5,167.26 102.5,167.34C102.5,167.41 102.5,167.49 102.5,167.56C102.5,167.63 102.5,167.71 102.5,167.78C102.5,167.85 102.5,167.93 102.5,168C102.5,168.07 102.5,168.15 102.5,168.22C102.5,168.29 102.5,168.37 102.5,168.44C102.5,168.51 102.5,168.59 102.5,168.66C102.5,168.73 102.5,168.81 102.5,168.88C102.5,168.95 102.5,169.03 102.5,169.1C102.5,169.17 102.5,169.25 102.5,169.32C102.5,169.39 102.5,169.47 102.5,169.54C102.5,169.61 102.5,169.69 102.5,169.76C102.5,169.83 102.5,169.91 102.5,169.98C102.5,170.05 102.5,170.13 102.5,170.2C102.5,170.27 102.5,170.35 102.5,170.42C102.5,170.49 102.5,170.57 102.5,170.64C102.5,170.71 102.5,170.79 102.5,170.86Q102.5,170.94 102.5,171.09Z" style="vector-effect: none; stroke-width: 0.5px; stroke: rgb(0, 0, 0); stroke-opacity: 1; fill: rgb(255, 165, 0); fill-opacity: 1;"/><path class="meanline" d="M111.4994888305664,124.75H93.5005111694336" style="fill: none; vector-effect: none; stroke-width: 0.5px; stroke-dasharray: 1px, 0.5px; stroke: rgb(0, 0, 0); stroke-opacity: 1;"/></g><g class="trace violins" style="opacity: 0.8;"><path class="violin" d="M143.5,201.52Q143.51,200.77 143.51,200.4C143.51,200.03 143.51,199.65 143.51,199.28C143.51,198.91 143.52,198.53 143.52,198.16C143.52,197.79 143.53,197.41 143.53,197.04C143.53,196.67 143.54,196.29 143.54,195.92C143.54,195.55 143.55,195.18 143.55,194.81C143.55,194.44 143.56,194.06 143.56,193.69C143.56,193.32 143.57,192.94 143.57,192.57C143.58,192.2 143.58,191.82 143.59,191.45C143.6,191.08 143.6,190.7 143.61,190.33C143.62,189.96 143.62,189.58 143.63,189.21C143.64,188.84 143.65,188.46 143.66,188.09C143.67,187.72 143.68,187.34 143.69,186.97C143.7,186.6 143.71,186.22 143.72,185.85C143.73,185.48 143.73,185.1 143.74,184.73C143.74,184.36 143.75,183.98 143.75,183.61C143.76,183.24 143.76,182.86 143.77,182.49C143.78,182.12 143.78,181.75 143.79,181.38C143.8,181.01 143.8,180.63 143.81,180.26C143.82,179.89 143.83,179.51 143.84,179.14C143.85,178.77 143.86,178.39 143.87,178.02C143.88,177.65 143.9,177.27 143.91,176.9C143.92,176.53 143.93,176.15 143.94,175.78C143.95,175.41 143.96,175.03 143.97,174.66C143.98,174.29 143.99,173.91 144,173.54C144.01,173.17 144.01,172.79 144.01,172.42C144.01,172.05 144.02,171.67 144.02,171.3C144.02,170.93 144.02,170.55 144.02,170.18C144.02,169.81 144.01,169.43 144.01,169.06C144.01,168.69 144.01,168.32 144.01,167.95C144.01,167.58 144.02,167.2 144.02,166.83C144.03,166.46 144.03,166.08 144.04,165.71C144.05,165.34 144.06,164.96 144.07,164.59C144.08,164.22 144.09,163.84 144.11,163.47C144.13,163.1 144.15,162.72 144.18,162.35C144.21,161.98 144.24,161.6 144.28,161.23C144.32,160.86 144.36,160.48 144.4,160.11C144.45,159.74 144.5,159.36 144.55,158.99C144.6,158.62 144.66,158.24 144.72,157.87C144.78,157.5 144.84,157.12 144.9,156.75C144.96,156.38 145.02,156 145.08,155.63C145.14,155.26 145.2,154.89 145.26,154.52C145.32,154.15 145.37,153.77 145.43,153.4C145.48,153.03 145.54,152.65 145.59,152.28C145.65,151.91 145.7,151.53 145.76,151.16C145.82,150.79 145.88,150.41 145.94,150.04C146,149.67 146.07,149.29 146.14,148.92C146.21,148.55 146.28,148.17 146.35,147.8C146.43,147.43 146.51,147.05 146.59,146.68C146.67,146.31 146.76,145.93 146.85,145.56C146.94,145.19 147.04,144.81 147.15,144.44C147.26,144.07 147.37,143.69 147.49,143.32C147.61,142.95 147.75,142.57 147.88,142.2C148.02,141.83 148.15,141.46 148.3,141.09C148.45,140.72 148.61,140.34 148.76,139.97C148.92,139.6 149.07,139.22 149.23,138.85C149.39,138.48 149.55,138.1 149.71,137.73C149.87,137.36 150.02,136.98 150.17,136.61C150.32,136.24 150.45,135.86 150.59,135.49C150.72,135.12 150.86,134.74 150.98,134.37C151.1,134 151.22,133.62 151.33,133.25C151.44,132.88 151.54,132.5 151.64,132.13C151.74,131.76 151.84,131.38 151.93,131.01C152.02,130.64 152.11,130.26 152.19,129.89C152.27,129.52 152.35,129.14 152.43,128.77C152.51,128.4 152.59,128.03 152.66,127.66C152.74,127.29 152.81,126.91 152.88,126.54C152.95,126.17 153.02,125.79 153.08,125.42C153.14,125.05 153.2,124.67 153.25,124.3C153.3,123.93 153.36,123.55 153.4,123.18C153.44,122.81 153.47,122.43 153.5,122.06C153.52,121.69 153.55,121.31 153.55,120.94C153.55,120.57 153.55,120.19 153.53,119.82C153.51,119.45 153.48,119.07 153.43,118.7C153.38,118.33 153.32,117.95 153.23,117.58C153.14,117.2 153.02,116.83 152.88,116.46C152.74,116.08 152.58,115.71 152.4,115.34C152.22,114.97 152.01,114.6 151.8,114.23C151.58,113.85 151.35,113.48 151.12,113.11C150.89,112.74 150.66,112.36 150.43,111.99C150.21,111.62 149.98,111.25 149.77,110.87C149.56,110.5 149.36,110.13 149.18,109.75C149,109.38 148.83,109.01 148.67,108.63C148.51,108.26 148.37,107.88 148.23,107.51C148.09,107.14 147.96,106.76 147.84,106.39C147.72,106.02 147.61,105.64 147.5,105.27C147.39,104.9 147.28,104.52 147.17,104.15C147.06,103.78 146.96,103.4 146.86,103.03C146.76,102.66 146.65,102.28 146.55,101.91C146.45,101.54 146.34,101.16 146.24,100.79C146.14,100.42 146.03,100.05 145.93,99.68C145.83,99.31 145.72,98.93 145.62,98.56C145.52,98.19 145.43,97.81 145.33,97.44C145.24,97.07 145.14,96.69 145.05,96.32C144.96,95.95 144.88,95.57 144.8,95.2C144.72,94.83 144.65,94.45 144.58,94.08C144.51,93.71 144.44,93.33 144.38,92.96C144.32,92.59 144.26,92.21 144.2,91.84C144.14,91.47 144.09,91.09 144.04,90.72C143.99,90.35 143.95,89.97 143.91,89.6C143.87,89.23 143.84,88.85 143.81,88.48C143.78,88.11 143.76,87.73 143.73,87.36C143.71,86.99 143.68,86.62 143.66,86.25C143.64,85.88 143.62,85.5 143.61,85.13C143.6,84.76 143.59,84.38 143.58,84.01C143.57,83.64 143.56,83.26 143.55,82.89C143.54,82.52 143.54,82.14 143.53,81.77C143.53,81.4 143.52,81.02 143.52,80.65C143.52,80.28 143.51,79.9 143.51,79.53Q143.51,79.16 143.5,78.41L143.5,78.41Q143.49,79.16 143.49,79.53C143.49,79.9 143.48,80.28 143.48,80.65C143.48,81.02 143.47,81.4 143.47,81.77C143.46,82.14 143.46,82.52 143.45,82.89C143.44,83.26 143.43,83.64 143.42,84.01C143.41,84.38 143.4,84.76 143.39,85.13C143.38,85.5 143.36,85.88 143.34,86.25C143.32,86.62 143.29,86.99 143.27,87.36C143.24,87.73 143.22,88.11 143.19,88.48C143.16,88.85 143.13,89.23 143.09,89.6C143.05,89.97 143.01,90.35 142.96,90.72C142.91,91.09 142.86,91.47 142.8,91.84C142.74,92.21 142.68,92.59 142.62,92.96C142.56,93.33 142.49,93.71 142.42,94.08C142.35,94.45 142.28,94.83 142.2,95.2C142.12,95.57 142.04,95.95 141.95,96.32C141.86,96.69 141.76,97.07 141.67,97.44C141.57,97.81 141.48,98.19 141.38,98.56C141.28,98.93 141.17,99.31 141.07,99.68C140.97,100.05 140.86,100.42 140.76,100.79C140.66,101.16 140.55,101.54 140.45,101.91C140.35,102.28 140.24,102.66 140.14,103.03C140.04,103.4 139.94,103.78 139.83,104.15C139.72,104.52 139.61,104.9 139.5,105.27C139.39,105.64 139.28,106.02 139.16,106.39C139.04,106.76 138.91,107.14 138.77,107.51C138.63,107.88 138.49,108.26 138.33,108.63C138.17,109.01 138,109.38 137.82,109.75C137.64,110.13 137.44,110.5 137.23,110.87C137.02,111.25 136.79,111.62 136.57,111.99C136.34,112.36 136.11,112.74 135.88,113.11C135.65,113.48 135.42,113.85 135.2,114.23C134.99,114.6 134.78,114.97 134.6,115.34C134.42,115.71 134.26,116.08 134.12,116.46C133.98,116.83 133.86,117.2 133.77,117.58C133.68,117.95 133.62,118.33 133.57,118.7C133.52,119.07 133.49,119.45 133.47,119.82C133.45,120.19 133.45,120.57 133.45,120.94C133.45,121.31 133.48,121.69 133.5,122.06C133.53,122.43 133.56,122.81 133.6,123.18C133.64,123.55 133.7,123.93 133.75,124.3C133.8,124.67 133.86,125.05 133.92,125.42C133.98,125.79 134.05,126.17 134.12,126.54C134.19,126.91 134.26,127.29 134.34,127.66C134.41,128.03 134.49,128.4 134.57,128.77C134.65,129.14 134.73,129.52 134.81,129.89C134.89,130.26 134.98,130.64 135.07,131.01C135.16,131.38 135.26,131.76 135.36,132.13C135.46,132.5 135.56,132.88 135.67,133.25C135.78,133.62 135.9,134 136.02,134.37C136.14,134.74 136.28,135.12 136.41,135.49C136.55,135.86 136.68,136.24 136.83,136.61C136.98,136.98 137.13,137.36 137.29,137.73C137.45,138.1 137.61,138.48 137.77,138.85C137.93,139.22 138.08,139.6 138.24,139.97C138.39,140.34 138.55,140.72 138.7,141.09C138.85,141.46 138.98,141.83 139.12,142.2C139.25,142.57 139.39,142.95 139.51,143.32C139.63,143.69 139.74,144.07 139.85,144.44C139.96,144.81 140.06,145.19 140.15,145.56C140.24,145.93 140.33,146.31 140.41,146.68C140.49,147.05 140.57,147.43 140.65,147.8C140.72,148.17 140.79,148.55 140.86,148.92C140.93,149.29 141,149.67 141.06,150.04C141.12,150.41 141.18,150.79 141.24,151.16C141.3,151.53 141.35,151.91 141.41,152.28C141.46,152.65 141.52,153.03 141.57,153.4C141.63,153.77 141.68,154.15 141.74,154.52C141.8,154.89 141.86,155.26 141.92,155.63C141.98,156 142.04,156.38 142.1,156.75C142.16,157.12 142.22,157.5 142.28,157.87C142.34,158.24 142.4,158.62 142.45,158.99C142.5,159.36 142.55,159.74 142.6,160.11C142.64,160.48 142.68,160.86 142.72,161.23C142.76,161.6 142.79,161.98 142.82,162.35C142.85,162.72 142.87,163.1 142.89,163.47C142.91,163.84 142.92,164.22 142.93,164.59C142.94,164.96 142.95,165.34 142.96,165.71C142.97,166.08 142.97,166.46 142.98,166.83C142.98,167.2 142.99,167.58 142.99,167.95C142.99,168.32 142.99,168.69 142.99,169.06C142.99,169.43 142.98,169.81 142.98,170.18C142.98,170.55 142.98,170.93 142.98,171.3C142.98,171.67 142.99,172.05 142.99,172.42C142.99,172.79 142.99,173.17 143,173.54C143.01,173.91 143.02,174.29 143.03,174.66C143.04,175.03 143.05,175.41 143.06,175.78C143.07,176.15 143.08,176.53 143.09,176.9C143.1,177.27 143.12,177.65 143.13,178.02C143.14,178.39 143.15,178.77 143.16,179.14C143.17,179.51 143.18,179.89 143.19,180.26C143.2,180.63 143.2,181.01 143.21,181.38C143.22,181.75 143.22,182.12 143.23,182.49C143.24,182.86 143.24,183.24 143.25,183.61C143.25,183.98 143.26,184.36 143.26,184.73C143.27,185.1 143.27,185.48 143.28,185.85C143.29,186.22 143.3,186.6 143.31,186.97C143.32,187.34 143.33,187.72 143.34,188.09C143.35,188.46 143.36,188.84 143.37,189.21C143.38,189.58 143.38,189.96 143.39,190.33C143.4,190.7 143.4,191.08 143.41,191.45C143.42,191.82 143.42,192.2 143.43,192.57C143.43,192.94 143.44,193.32 143.44,193.69C143.44,194.06 143.45,194.44 143.45,194.81C143.45,195.18 143.46,195.55 143.46,195.92C143.46,196.29 143.47,196.67 143.47,197.04C143.47,197.41 143.48,197.79 143.48,198.16C143.48,198.53 143.49,198.91 143.49,199.28C143.49,199.65 143.49,200.03 143.49,200.4Q143.49,200.77 143.5,201.52Z" style="vector-effect: none; stroke-width: 0.5px; stroke: rgb(0, 0, 0); stroke-opacity: 1; fill: rgb(30, 144, 255); fill-opacity: 1;"/><path class="meanline" d="M152.9286651611328,126.28H134.0713348388672" style="fill: none; vector-effect: none; stroke-width: 0.5px; stroke-dasharray: 1px, 0.5px; stroke: rgb(0, 0, 0); stroke-opacity: 1;"/></g><g class="trace violins" style="opacity: 0.8;"><path class="violin" d="M184.5,147.35Q184.51,146.77 184.51,146.48C184.51,146.19 184.51,145.89 184.51,145.6C184.51,145.31 184.52,145.02 184.52,144.73C184.52,144.44 184.53,144.15 184.53,143.86C184.53,143.57 184.53,143.27 184.54,142.98C184.54,142.69 184.56,142.4 184.56,142.11C184.57,141.82 184.56,141.52 184.57,141.23C184.57,140.94 184.58,140.65 184.59,140.36C184.6,140.07 184.6,139.77 184.61,139.48C184.62,139.19 184.62,138.9 184.63,138.61C184.64,138.32 184.66,138.02 184.67,137.73C184.68,137.44 184.7,137.15 184.71,136.86C184.73,136.57 184.74,136.27 184.76,135.98C184.78,135.69 184.8,135.4 184.82,135.11C184.84,134.82 184.86,134.52 184.88,134.23C184.9,133.94 184.93,133.65 184.95,133.36C184.97,133.07 184.98,132.77 185,132.48C185.02,132.19 185.04,131.9 185.05,131.61C185.06,131.32 185.07,131.02 185.08,130.73C185.09,130.44 185.1,130.15 185.11,129.86C185.12,129.57 185.13,129.27 185.14,128.98C185.15,128.69 185.17,128.4 185.19,128.11C185.21,127.82 185.23,127.53 185.25,127.24C185.27,126.95 185.3,126.65 185.33,126.36C185.36,126.07 185.39,125.78 185.41,125.49C185.44,125.2 185.46,124.9 185.48,124.61C185.5,124.32 185.53,124.03 185.54,123.74C185.55,123.45 185.56,123.15 185.56,122.86C185.56,122.57 185.56,122.28 185.56,121.99C185.56,121.7 185.56,121.4 185.57,121.11C185.57,120.82 185.58,120.53 185.59,120.24C185.6,119.95 185.63,119.65 185.66,119.36C185.69,119.07 185.74,118.78 185.79,118.49C185.85,118.2 185.91,117.9 185.99,117.61C186.07,117.32 186.18,117.03 186.29,116.74C186.41,116.44 186.54,116.15 186.69,115.86C186.84,115.56 187.02,115.28 187.21,114.99C187.41,114.69 187.63,114.4 187.86,114.11C188.1,113.81 188.37,113.53 188.64,113.24C188.92,112.95 189.23,112.66 189.53,112.37C189.84,112.07 190.17,111.78 190.49,111.49C190.81,111.2 191.14,110.91 191.46,110.62C191.77,110.33 192.09,110.04 192.38,109.74C192.66,109.45 192.94,109.17 193.18,108.87C193.41,108.58 193.64,108.29 193.82,107.99C193.99,107.71 194.15,107.42 194.26,107.12C194.37,106.83 194.44,106.53 194.49,106.24C194.54,105.95 194.56,105.66 194.55,105.37C194.54,105.08 194.5,104.78 194.45,104.49C194.4,104.2 194.34,103.91 194.27,103.62C194.2,103.33 194.13,103.03 194.05,102.74C193.97,102.45 193.89,102.16 193.81,101.87C193.73,101.58 193.66,101.28 193.59,100.99C193.52,100.7 193.45,100.41 193.39,100.12C193.33,99.83 193.27,99.53 193.21,99.24C193.16,98.95 193.1,98.66 193.06,98.37C193.01,98.08 192.97,97.78 192.94,97.49C192.91,97.2 192.88,96.91 192.86,96.62C192.84,96.33 192.82,96.04 192.8,95.75C192.78,95.46 192.76,95.16 192.72,94.87C192.69,94.58 192.65,94.29 192.59,94C192.53,93.71 192.45,93.41 192.36,93.12C192.27,92.83 192.15,92.54 192.03,92.25C191.91,91.96 191.76,91.66 191.62,91.37C191.48,91.08 191.32,90.79 191.17,90.5C191.02,90.21 190.86,89.91 190.71,89.62C190.56,89.33 190.42,89.04 190.28,88.75C190.14,88.46 190.01,88.16 189.88,87.87C189.75,87.58 189.63,87.29 189.51,87C189.39,86.71 189.27,86.41 189.15,86.12C189.03,85.83 188.92,85.54 188.81,85.25C188.7,84.96 188.58,84.66 188.47,84.37C188.36,84.08 188.27,83.79 188.17,83.5C188.07,83.21 187.98,82.91 187.89,82.62C187.8,82.33 187.73,82.04 187.65,81.75C187.57,81.46 187.5,81.17 187.43,80.88C187.36,80.59 187.3,80.29 187.24,80C187.18,79.71 187.12,79.42 187.06,79.13C187,78.84 186.94,78.54 186.88,78.25C186.82,77.96 186.77,77.67 186.72,77.38C186.67,77.09 186.61,76.79 186.56,76.5C186.51,76.21 186.46,75.92 186.41,75.63C186.36,75.34 186.31,75.04 186.25,74.75C186.2,74.46 186.14,74.17 186.08,73.88C186.02,73.59 185.95,73.29 185.89,73C185.83,72.71 185.76,72.42 185.7,72.13C185.64,71.84 185.57,71.54 185.51,71.25C185.45,70.96 185.38,70.67 185.32,70.38C185.26,70.09 185.2,69.79 185.15,69.5C185.1,69.21 185.05,68.92 185.01,68.63C184.97,68.34 184.93,68.04 184.89,67.75C184.86,67.46 184.83,67.17 184.8,66.88C184.77,66.59 184.75,66.29 184.73,66C184.71,65.71 184.7,65.42 184.69,65.13C184.68,64.84 184.68,64.55 184.67,64.26C184.66,63.97 184.66,63.67 184.65,63.38C184.64,63.09 184.63,62.8 184.63,62.51C184.62,62.22 184.63,61.92 184.62,61.63C184.62,61.34 184.61,61.05 184.6,60.76C184.59,60.47 184.59,60.17 184.58,59.88C184.57,59.59 184.57,59.3 184.56,59.01C184.55,58.72 184.55,58.42 184.54,58.13C184.54,57.84 184.53,57.55 184.53,57.26C184.53,56.97 184.52,56.67 184.52,56.38C184.52,56.09 184.51,55.8 184.51,55.51Q184.51,55.22 184.5,54.63L184.5,54.63Q184.49,55.22 184.49,55.51C184.49,55.8 184.48,56.09 184.48,56.38C184.48,56.67 184.47,56.97 184.47,57.26C184.47,57.55 184.46,57.84 184.46,58.13C184.45,58.42 184.45,58.72 184.44,59.01C184.43,59.3 184.43,59.59 184.42,59.88C184.41,60.17 184.41,60.47 184.4,60.76C184.39,61.05 184.38,61.34 184.38,61.63C184.37,61.92 184.38,62.22 184.37,62.51C184.37,62.8 184.36,63.09 184.35,63.38C184.34,63.67 184.34,63.97 184.33,64.26C184.32,64.55 184.32,64.84 184.31,65.13C184.3,65.42 184.29,65.71 184.27,66C184.25,66.29 184.23,66.59 184.2,66.88C184.17,67.17 184.14,67.46 184.11,67.75C184.07,68.04 184.03,68.34 183.99,68.63C183.95,68.92 183.9,69.21 183.85,69.5C183.8,69.79 183.74,70.09 183.68,70.38C183.62,70.67 183.55,70.96 183.49,71.25C183.43,71.54 183.36,71.84 183.3,72.13C183.24,72.42 183.17,72.71 183.11,73C183.05,73.29 182.98,73.59 182.92,73.88C182.86,74.17 182.8,74.46 182.75,74.75C182.69,75.04 182.64,75.34 182.59,75.63C182.54,75.92 182.49,76.21 182.44,76.5C182.39,76.79 182.33,77.09 182.28,77.38C182.23,77.67 182.18,77.96 182.12,78.25C182.06,78.54 182,78.84 181.94,79.13C181.88,79.42 181.82,79.71 181.76,80C181.7,80.29 181.64,80.59 181.57,80.88C181.5,81.17 181.43,81.46 181.35,81.75C181.27,82.04 181.2,82.33 181.11,82.62C181.02,82.91 180.93,83.21 180.83,83.5C180.73,83.79 180.64,84.08 180.53,84.37C180.42,84.66 180.3,84.96 180.19,85.25C180.08,85.54 179.97,85.83 179.85,86.12C179.73,86.41 179.61,86.71 179.49,87C179.37,87.29 179.25,87.58 179.12,87.87C178.99,88.16 178.86,88.46 178.72,88.75C178.58,89.04 178.44,89.33 178.29,89.62C178.14,89.91 177.98,90.21 177.83,90.5C177.68,90.79 177.52,91.08 177.38,91.37C177.24,91.66 177.09,91.96 176.97,92.25C176.85,92.54 176.73,92.83 176.64,93.12C176.55,93.41 176.47,93.71 176.41,94C176.35,94.29 176.31,94.58 176.28,94.87C176.24,95.16 176.22,95.46 176.2,95.75C176.18,96.04 176.16,96.33 176.14,96.62C176.12,96.91 176.09,97.2 176.06,97.49C176.03,97.78 175.99,98.08 175.94,98.37C175.9,98.66 175.84,98.95 175.79,99.24C175.73,99.53 175.67,99.83 175.61,100.12C175.55,100.41 175.48,100.7 175.41,100.99C175.34,101.28 175.27,101.58 175.19,101.87C175.11,102.16 175.03,102.45 174.95,102.74C174.87,103.03 174.8,103.33 174.73,103.62C174.66,103.91 174.6,104.2 174.55,104.49C174.51,104.78 174.47,105.08 174.46,105.37C174.45,105.66 174.46,105.95 174.51,106.24C174.56,106.53 174.63,106.83 174.74,107.12C174.85,107.42 175.01,107.71 175.18,107.99C175.36,108.29 175.59,108.58 175.82,108.87C176.06,109.17 176.34,109.45 176.62,109.74C176.91,110.04 177.23,110.33 177.54,110.62C177.86,110.91 178.19,111.2 178.51,111.49C178.83,111.78 179.16,112.07 179.47,112.37C179.77,112.66 180.08,112.95 180.36,113.24C180.63,113.53 180.9,113.81 181.14,114.11C181.37,114.4 181.59,114.69 181.79,114.99C181.98,115.28 182.16,115.56 182.31,115.86C182.46,116.15 182.59,116.44 182.71,116.74C182.82,117.03 182.93,117.32 183.01,117.61C183.09,117.9 183.15,118.2 183.21,118.49C183.26,118.78 183.31,119.07 183.34,119.36C183.37,119.65 183.4,119.95 183.41,120.24C183.42,120.53 183.43,120.82 183.43,121.11C183.44,121.4 183.44,121.7 183.44,121.99C183.44,122.28 183.44,122.57 183.44,122.86C183.44,123.15 183.45,123.45 183.46,123.74C183.47,124.03 183.5,124.32 183.52,124.61C183.54,124.9 183.56,125.2 183.59,125.49C183.61,125.78 183.64,126.07 183.67,126.36C183.7,126.65 183.73,126.95 183.75,127.24C183.77,127.53 183.79,127.82 183.81,128.11C183.83,128.4 183.85,128.69 183.86,128.98C183.87,129.27 183.88,129.57 183.89,129.86C183.9,130.15 183.91,130.44 183.92,130.73C183.93,131.02 183.94,131.32 183.95,131.61C183.96,131.9 183.98,132.19 184,132.48C184.02,132.77 184.03,133.07 184.05,133.36C184.07,133.65 184.1,133.94 184.12,134.23C184.14,134.52 184.16,134.82 184.18,135.11C184.2,135.4 184.22,135.69 184.24,135.98C184.26,136.27 184.27,136.57 184.29,136.86C184.3,137.15 184.32,137.44 184.33,137.73C184.34,138.02 184.36,138.32 184.37,138.61C184.38,138.9 184.38,139.19 184.39,139.48C184.4,139.77 184.4,140.07 184.41,140.36C184.42,140.65 184.43,140.94 184.43,141.23C184.44,141.52 184.43,141.82 184.44,142.11C184.44,142.4 184.46,142.69 184.46,142.98C184.47,143.27 184.47,143.57 184.47,143.86C184.47,144.15 184.48,144.44 184.48,144.73C184.48,145.02 184.49,145.31 184.49,145.6C184.49,145.89 184.49,146.19 184.49,146.48Q184.49,146.77 184.5,147.35Z" style="vector-effect: none; stroke-width: 0.5px; stroke: rgb(0, 0, 0); stroke-opacity: 1; fill: rgb(255, 20, 147); fill-opacity: 1;"/><path class="meanline" d="M193.1777801513672,99.06H175.8222198486328" style="fill: none; vector-effect: none; stroke-width: 0.5px; stroke-dasharray: 1px, 0.5px; stroke: rgb(0, 0, 0); stroke-opacity: 1;"/></g></g></g><g class="overplot"/><path class="xlines-above crisp" d="M50.5,240.25H256" style="fill: none; stroke-width: 0.5px; stroke: rgb(255, 255, 255); stroke-opacity: 1;"/><path class="ylines-above crisp" d="M50.75,20V240" style="fill: none; stroke-width: 0.5px; stroke: rgb(0, 0, 0); stroke-opacity: 1;"/><g class="overlines-above"/><g class="xaxislayer-above"><path class="xtick ticks crisp" d="M0,240.5v5" transform="translate(71.5,0)" style="stroke: rgb(68, 68, 68); stroke-opacity: 1; stroke-width: 1px;"/><path class="xtick ticks crisp" d="M0,240.5v5" transform="translate(112.5,0)" style="stroke: rgb(68, 68, 68); stroke-opacity: 1; stroke-width: 1px;"/><path class="xtick ticks crisp" d="M0,240.5v5" transform="translate(153.5,0)" style="stroke: rgb(68, 68, 68); stroke-opacity: 1; stroke-width: 1px;"/><path class="xtick ticks crisp" d="M0,240.5v5" transform="translate(194.5,0)" style="stroke: rgb(68, 68, 68); stroke-opacity: 1; stroke-width: 1px;"/><path class="xtick ticks crisp" d="M0,240.5v5" transform="translate(235.5,0)" style="stroke: rgb(68, 68, 68); stroke-opacity: 1; stroke-width: 1px;"/><g class="xtick"><text text-anchor="start" x="0" y="259.9" transform="translate(71.5,0) rotate(29.999999999999996,0,253.89999999999998)" style="font-family: Helvetica; font-size: 12px; fill: rgb(0, 0, 0); fill-opacity: 1; white-space: pre; opacity: 1;">acidic</text></g><g class="xtick"><text text-anchor="start" x="0" y="259.9" transform="translate(112.5,0) rotate(29.999999999999996,0,253.89999999999998)" style="font-family: Helvetica; font-size: 12px; fill: rgb(0, 0, 0); fill-opacity: 1; white-space: pre; opacity: 1;">basic</text></g><g class="xtick"><text text-anchor="start" x="0" y="259.9" transform="translate(153.5,0) rotate(29.999999999999996,0,253.89999999999998)" style="font-family: Helvetica; font-size: 12px; fill: rgb(0, 0, 0); fill-opacity: 1; white-space: pre; opacity: 1;">hydrophobic</text></g><g class="xtick"><text text-anchor="start" x="0" y="259.9" transform="translate(194.5,0) rotate(29.999999999999996,0,253.89999999999998)" style="font-family: Helvetica; font-size: 12px; fill: rgb(0, 0, 0); fill-opacity: 1; white-space: pre; opacity: 1;">polar</text></g><g class="xtick"><text text-anchor="start" x="0" y="259.9" transform="translate(235.5,0) rotate(29.999999999999996,0,253.89999999999998)" style="font-family: Helvetica; font-size: 12px; fill: rgb(0, 0, 0); fill-opacity: 1; white-space: pre; opacity: 1;">special-case</text></g></g><g class="yaxislayer-above"><path class="ytick ticks crisp" d="M50.5,0h-5" transform="translate(0,240)" style="stroke: rgb(68, 68, 68); stroke-opacity: 1; stroke-width: 1px;"/><path class="ytick ticks crisp" d="M50.5,0h-5" transform="translate(0,185)" style="stroke: rgb(68, 68, 68); stroke-opacity: 1; stroke-width: 1px;"/><path class="ytick ticks crisp" d="M50.5,0h-5" transform="translate(0,130)" style="stroke: rgb(68, 68, 68); stroke-opacity: 1; stroke-width: 1px;"/><path class="ytick ticks crisp" d="M50.5,0h-5" transform="translate(0,75)" style="stroke: rgb(68, 68, 68); stroke-opacity: 1; stroke-width: 1px;"/><path class="ytick ticks crisp" d="M50.5,0h-5" transform="translate(0,20)" style="stroke: rgb(68, 68, 68); stroke-opacity: 1; stroke-width: 1px;"/><g class="ytick"><text text-anchor="end" x="43.1" y="4.199999999999999" transform="translate(0,240)" style="font-family: Helvetica; font-size: 12px; fill: rgb(0, 0, 0); fill-opacity: 1; white-space: pre; opacity: 1;">2</text></g><g class="ytick"><text text-anchor="end" x="43.1" y="4.199999999999999" style="font-family: Helvetica; font-size: 12px; fill: rgb(0, 0, 0); fill-opacity: 1; white-space: pre; opacity: 1;" transform="translate(0,185)">1</text></g><g class="ytick"><text text-anchor="end" x="43.1" y="4.199999999999999" style="font-family: Helvetica; font-size: 12px; fill: rgb(0, 0, 0); fill-opacity: 1; white-space: pre; opacity: 1;" transform="translate(0,130)">0</text></g><g class="ytick"><text text-anchor="end" x="43.1" y="4.199999999999999" style="font-family: Helvetica; font-size: 12px; fill: rgb(0, 0, 0); fill-opacity: 1; white-space: pre; opacity: 1;" transform="translate(0,75)">1</text></g><g class="ytick"><text text-anchor="end" x="43.1" y="4.199999999999999" style="font-family: Helvetica; font-size: 12px; fill: rgb(0, 0, 0); fill-opacity: 1; white-space: pre; opacity: 1;" transform="translate(0,20)">2</text></g></g><g class="overaxes-above"/></g></g><g class="polarlayer"/><g class="smithlayer"/><g class="ternarylayer"/><g class="geolayer"/><g class="funnelarealayer"/><g class="pielayer"/><g class="iciclelayer"/><g class="treemaplayer"/><g class="sunburstlayer"/><g class="glimages"/><defs id="topdefs-7709be"><g class="clips"/></defs><g class="layer-above"><g class="imagelayer"/><g class="shapelayer"><g class="shape-group" data-index="0" clip-path="url(#clip7709bey)"><path data-index="0" fill-rule="evenodd" d="M51,130L256,130" style="opacity: 1; stroke: rgb(42, 63, 95); stroke-opacity: 1; fill: rgb(0, 0, 0); fill-opacity: 0; stroke-width: 0.5px;"/></g></g></g><g class="infolayer"><g class="g-gtitle"/><g class="g-xtitle"/><g class="g-ytitle" transform="translate(12.4560546875,0)"><text class="ytitle" transform="rotate(-90,0.5437500000000028,130)" x="0.5437500000000028" y="130" text-anchor="middle" style="font-family: Helvetica; font-size: 14px; fill: rgb(0, 0, 0); opacity: 1; font-weight: normal; white-space: pre;">impact on model</text></g></g></svg>