<svg class="main-svg" xmlns="http://www.w3.org/2000/svg" xmlns:xlink="http://www.w3.org/1999/xlink" width="400" height="400" style="" viewBox="0 0 400 400"><rect x="0" y="0" width="400" height="400" style="fill: rgb(255, 255, 255); fill-opacity: 1;"/><defs id="defs-80650d"><g class="clips"><clipPath id="clip80650dxyplot" class="plotclip"><rect width="346" height="357"/></clipPath><clipPath class="axesclip" id="clip80650dx"><rect x="54" y="0" width="346" height="400"/></clipPath><clipPath class="axesclip" id="clip80650dy"><rect x="0" y="20" width="400" height="357"/></clipPath><clipPath class="axesclip" id="clip80650dxy"><rect x="54" y="20" width="346" height="357"/></clipPath></g><g class="gradients"/><g class="patterns"/></defs><g class="bglayer"><rect class="bg" x="54" y="20" width="346" height="357" style="fill: rgb(0, 0, 0); fill-opacity: 0; stroke-width: 0;"/></g><g class="layer-below"><g class="imagelayer"/><g class="shapelayer"/></g><g class="cartesianlayer"><g class="subplot xy"><g class="layer-subplot"><g class="shapelayer"/><g class="imagelayer"/></g><g class="minor-gridlayer"><g class="x"/><g class="y"/></g><g class="gridlayer"><g class="x"/><g class="y"/></g><g class="zerolinelayer"><path class="xzl zl crisp" transform="translate(196.14,0)" d="M0,20v357" style="stroke: rgb(255, 255, 255); stroke-opacity: 1; stroke-width: 2px;"/><path class="yzl zl crisp" transform="translate(0,227.52)" d="M54,0h346" style="stroke: rgb(255, 255, 255); stroke-opacity: 1; stroke-width: 2px;"/></g><g class="layer-between"><g class="shapelayer"/><g class="imagelayer"/></g><path class="xlines-below"/><path class="ylines-below"/><g class="overlines-below"/><g class="xaxislayer-below"/><g class="yaxislayer-below"/><g class="overaxes-below"/><g class="plot" transform="translate(54,20)" clip-path="url(#clip80650dxyplot)"><g class="scatterlayer mlayer"><g class="trace scatter trace8b7b65" style="stroke-miterlimit: 2; opacity: 1;"><g class="fills"/><g class="errorbars"/><g class="lines"/><g class="points"><path class="point" transform="translate(166.46,186.37)" d="M5,0A5,5 0 1,1 0,-5A5,5 0 0,1 5,0Z" style="opacity: 1; stroke-width: 0.25px; fill: rgb(255, 165, 0); fill-opacity: 1; stroke: rgb(0, 0, 0); stroke-opacity: 1;"/><path class="point" transform="translate(156.56,209.22)" d="M5,0A5,5 0 1,1 0,-5A5,5 0 0,1 5,0Z" style="opacity: 1; stroke-width: 0.25px; fill: rgb(30, 144, 255); fill-opacity: 1; stroke: rgb(0, 0, 0); stroke-opacity: 1;"/><path class="point" transform="translate(322.45,236.44)" d="M5,0A5,5 0 1,1 0,-5A5,5 0 0,1 5,0Z" style="opacity: 1; stroke-width: 0.25px; fill: rgb(178, 34, 34); fill-opacity: 1; stroke: rgb(0, 0, 0); stroke-opacity: 1;"/><path class="point" transform="translate(230.9,264.07)" d="M5,0A5,5 0 1,1 0,-5A5,5 0 0,1 5,0Z" style="opacity: 1; stroke-width: 0.25px; fill: rgb(178, 34, 34); fill-opacity: 1; stroke: rgb(0, 0, 0); stroke-opacity: 1;"/><path class="point" transform="translate(103.38,161.62)" d="M5,0A5,5 0 1,1 0,-5A5,5 0 0,1 5,0Z" style="opacity: 1; stroke-width: 0.25px; fill: rgb(255, 165, 0); fill-opacity: 1; stroke: rgb(0, 0, 0); stroke-opacity: 1;"/><path class="point" transform="translate(204.63,181.99)" d="M5,0A5,5 0 1,1 0,-5A5,5 0 0,1 5,0Z" style="opacity: 1; stroke-width: 0.25px; fill: rgb(30, 144, 255); fill-opacity: 1; stroke: rgb(0, 0, 0); stroke-opacity: 1;"/><path class="point" transform="translate(107.94,214.96)" d="M5,0A5,5 0 1,1 0,-5A5,5 0 0,1 5,0Z" style="opacity: 1; stroke-width: 0.25px; fill: rgb(46, 139, 87); fill-opacity: 1; stroke: rgb(0, 0, 0); stroke-opacity: 1;"/><path class="point" transform="translate(159.76,179.64)" d="M5,0A5,5 0 1,1 0,-5A5,5 0 0,1 5,0Z" style="opacity: 1; stroke-width: 0.25px; fill: rgb(255, 165, 0); fill-opacity: 1; stroke: rgb(0, 0, 0); stroke-opacity: 1;"/><path class="point" transform="translate(23.55,332.9)" d="M5,0A5,5 0 1,1 0,-5A5,5 0 0,1 5,0Z" style="opacity: 1; stroke-width: 0.25px; fill: rgb(46, 139, 87); fill-opacity: 1; stroke: rgb(0, 0, 0); stroke-opacity: 1;"/><path class="point" transform="translate(202.59,24.1)" d="M5,0A5,5 0 1,1 0,-5A5,5 0 0,1 5,0Z" style="opacity: 1; stroke-width: 0.25px; fill: rgb(255, 165, 0); fill-opacity: 1; stroke: rgb(0, 0, 0); stroke-opacity: 1;"/><path class="point" transform="translate(179.11,189.05)" d="M5,0A5,5 0 1,1 0,-5A5,5 0 0,1 5,0Z" style="opacity: 1; stroke-width: 0.25px; fill: rgb(255, 165, 0); fill-opacity: 1; stroke: rgb(0, 0, 0); stroke-opacity: 1;"/><path class="point" transform="translate(99.41,222.49)" d="M5,0A5,5 0 1,1 0,-5A5,5 0 0,1 5,0Z" style="opacity: 1; stroke-width: 0.25px; fill: rgb(30, 144, 255); fill-opacity: 1; stroke: rgb(0, 0, 0); stroke-opacity: 1;"/><path class="point" transform="translate(49.81,231.97)" d="M5,0A5,5 0 1,1 0,-5A5,5 0 0,1 5,0Z" style="opacity: 1; stroke-width: 0.25px; fill: rgb(255, 20, 147); fill-opacity: 1; stroke: rgb(0, 0, 0); stroke-opacity: 1;"/><path class="point" transform="translate(114.25,243.86)" d="M5,0A5,5 0 1,1 0,-5A5,5 0 0,1 5,0Z" style="opacity: 1; stroke-width: 0.25px; fill: rgb(30, 144, 255); fill-opacity: 1; stroke: rgb(0, 0, 0); stroke-opacity: 1;"/><path class="point" transform="translate(110.49,236.87)" d="M5,0A5,5 0 1,1 0,-5A5,5 0 0,1 5,0Z" style="opacity: 1; stroke-width: 0.25px; fill: rgb(46, 139, 87); fill-opacity: 1; stroke: rgb(0, 0, 0); stroke-opacity: 1;"/><path class="point" transform="translate(88.06,253.67)" d="M5,0A5,5 0 1,1 0,-5A5,5 0 0,1 5,0Z" style="opacity: 1; stroke-width: 0.25px; fill: rgb(30, 144, 255); fill-opacity: 1; stroke: rgb(0, 0, 0); stroke-opacity: 1;"/><path class="point" transform="translate(71.21,198.21)" d="M5,0A5,5 0 1,1 0,-5A5,5 0 0,1 5,0Z" style="opacity: 1; stroke-width: 0.25px; fill: rgb(30, 144, 255); fill-opacity: 1; stroke: rgb(0, 0, 0); stroke-opacity: 1;"/><path class="point" transform="translate(154.17,188.08)" d="M5,0A5,5 0 1,1 0,-5A5,5 0 0,1 5,0Z" style="opacity: 1; stroke-width: 0.25px; fill: rgb(255, 165, 0); fill-opacity: 1; stroke: rgb(0, 0, 0); stroke-opacity: 1;"/><path class="point" transform="translate(162.61,231.5)" d="M5,0A5,5 0 1,1 0,-5A5,5 0 0,1 5,0Z" style="opacity: 1; stroke-width: 0.25px; fill: rgb(255, 165, 0); fill-opacity: 1; stroke: rgb(0, 0, 0); stroke-opacity: 1;"/><path class="point" transform="translate(135.47,174.81)" d="M5,0A5,5 0 1,1 0,-5A5,5 0 0,1 5,0Z" style="opacity: 1; stroke-width: 0.25px; fill: rgb(255, 165, 0); fill-opacity: 1; stroke: rgb(0, 0, 0); stroke-opacity: 1;"/></g><g class="text"><g class="textpoint" transform="translate(0,16.25)"><text x="166.46" y="186.37" text-anchor="middle" style="font-family: Helvetica; font-size: 12px; fill: rgb(0, 0, 0); fill-opacity: 1; white-space: pre;">A</text></g><g class="textpoint" transform="translate(0,16.25)"><text x="156.56" y="209.22" text-anchor="middle" style="font-family: Helvetica; font-size: 12px; fill: rgb(0, 0, 0); fill-opacity: 1; white-space: pre;">C</text></g><g class="textpoint" transform="translate(0,16.25)"><text x="322.45" y="236.44" text-anchor="middle" style="font-family: Helvetica; font-size: 12px; fill: rgb(0, 0, 0); fill-opacity: 1; white-space: pre;">D</text></g><g class="textpoint" transform="translate(0,16.25)"><text x="230.9" y="264.07" text-anchor="middle" style="font-family: Helvetica; font-size: 12px; fill: rgb(0, 0, 0); fill-opacity: 1; white-space: pre;">E</text></g><g class="textpoint" transform="translate(0,16.25)"><text x="103.38" y="161.62" text-anchor="middle" style="font-family: Helvetica; font-size: 12px; fill: rgb(0, 0, 0); fill-opacity: 1; white-space: pre;">F</text></g><g class="textpoint" transform="translate(0,16.25)"><text x="204.63" y="181.99" text-anchor="middle" style="font-family: Helvetica; font-size: 12px; fill: rgb(0, 0, 0); fill-opacity: 1; white-space: pre;">G</text></g><g class="textpoint" transform="translate(0,16.25)"><text x="107.94" y="214.96" text-anchor="middle" style="font-family: Helvetica; font-size: 12px; fill: rgb(0, 0, 0); fill-opacity: 1; white-space: pre;">H</text></g><g class="textpoint" transform="translate(0,16.25)"><text x="159.76" y="179.64" text-anchor="middle" style="font-family: Helvetica; font-size: 12px; fill: rgb(0, 0, 0); fill-opacity: 1; white-space: pre;">I</text></g><g class="textpoint" transform="translate(0,16.25)"><text x="23.55" y="332.9" text-anchor="middle" style="font-family: Helvetica; font-size: 12px; fill: rgb(0, 0, 0); fill-opacity: 1; white-space: pre;">K</text></g><g class="textpoint" transform="translate(0,16.25)"><text x="202.59" y="24.1" text-anchor="middle" style="font-family: Helvetica; font-size: 12px; fill: rgb(0, 0, 0); fill-opacity: 1; white-space: pre;">L</text></g><g class="textpoint" transform="translate(0,16.25)"><text x="179.11" y="189.05" text-anchor="middle" style="font-family: Helvetica; font-size: 12px; fill: rgb(0, 0, 0); fill-opacity: 1; white-space: pre;">M</text></g><g class="textpoint" transform="translate(0,16.25)"><text x="99.41" y="222.49" text-anchor="middle" style="font-family: Helvetica; font-size: 12px; fill: rgb(0, 0, 0); fill-opacity: 1; white-space: pre;">N</text></g><g class="textpoint" transform="translate(0,16.25)"><text x="49.81" y="231.97" text-anchor="middle" style="font-family: Helvetica; font-size: 12px; fill: rgb(0, 0, 0); fill-opacity: 1; white-space: pre;">P</text></g><g class="textpoint" transform="translate(0,16.25)"><text x="114.25" y="243.86" text-anchor="middle" style="font-family: Helvetica; font-size: 12px; fill: rgb(0, 0, 0); fill-opacity: 1; white-space: pre;">Q</text></g><g class="textpoint" transform="translate(0,16.25)"><text x="110.49" y="236.87" text-anchor="middle" style="font-family: Helvetica; font-size: 12px; fill: rgb(0, 0, 0); fill-opacity: 1; white-space: pre;">R</text></g><g class="textpoint" transform="translate(0,16.25)"><text x="88.06" y="253.67" text-anchor="middle" style="font-family: Helvetica; font-size: 12px; fill: rgb(0, 0, 0); fill-opacity: 1; white-space: pre;">S</text></g><g class="textpoint" transform="translate(0,16.25)"><text x="71.21" y="198.21" text-anchor="middle" style="font-family: Helvetica; font-size: 12px; fill: rgb(0, 0, 0); fill-opacity: 1; white-space: pre;">T</text></g><g class="textpoint" transform="translate(0,16.25)"><text x="154.17" y="188.08" text-anchor="middle" style="font-family: Helvetica; font-size: 12px; fill: rgb(0, 0, 0); fill-opacity: 1; white-space: pre;">V</text></g><g class="textpoint" transform="translate(0,16.25)"><text x="162.61" y="231.5" text-anchor="middle" style="font-family: Helvetica; font-size: 12px; fill: rgb(0, 0, 0); fill-opacity: 1; white-space: pre;">W</text></g><g class="textpoint" transform="translate(0,16.25)"><text x="135.47" y="174.81" text-anchor="middle" style="font-family: Helvetica; font-size: 12px; fill: rgb(0, 0, 0); fill-opacity: 1; white-space: pre;">Y</text></g></g></g><g class="trace scatter traceb0732f" style="stroke-miterlimit: 2; opacity: 1;"><g class="fills"/><g class="errorbars"/><g class="lines"><path class="js-line" d="M23.55,240.02L322.45,159.54" style="vector-effect: none; fill: none; stroke: rgb(255, 0, 0); stroke-opacity: 1; stroke-width: 1px; opacity: 1;"/></g><g class="points"/><g class="text"/></g></g></g><g class="overplot"/><path class="xlines-above crisp" d="M53.5,377.25H400" style="fill: none; stroke-width: 0.5px; stroke: rgb(0, 0, 0); stroke-opacity: 1;"/><path class="ylines-above crisp" d="M53.75,20V377" style="fill: none; stroke-width: 0.5px; stroke: rgb(0, 0, 0); stroke-opacity: 1;"/><g class="overlines-above"/><g class="xaxislayer-above"><path class="xtick ticks crisp" d="M0,377.5v5" transform="translate(57.86,0)" style="stroke: rgb(68, 68, 68); stroke-opacity: 1; stroke-width: 1px;"/><path class="xtick ticks crisp" d="M0,377.5v5" transform="translate(196.14,0)" style="stroke: rgb(68, 68, 68); stroke-opacity: 1; stroke-width: 1px;"/><path class="xtick ticks crisp" d="M0,377.5v5" transform="translate(334.42,0)" style="stroke: rgb(68, 68, 68); stroke-opacity: 1; stroke-width: 1px;"/><g class="xtick"><text text-anchor="middle" x="0" y="396.9" transform="translate(57.86,0)" style="font-family: Helvetica; font-size: 12px; fill: rgb(0, 0, 0); fill-opacity: 1; white-space: pre; opacity: 1;">−0.005</text></g><g class="xtick"><text text-anchor="middle" x="0" y="396.9" style="font-family: Helvetica; font-size: 12px; fill: rgb(0, 0, 0); fill-opacity: 1; white-space: pre; opacity: 1;" transform="translate(196.14,0)">0</text></g><g class="xtick"><text text-anchor="middle" x="0" y="396.9" style="font-family: Helvetica; font-size: 12px; fill: rgb(0, 0, 0); fill-opacity: 1; white-space: pre; opacity: 1;" transform="translate(334.42,0)">0.005</text></g></g><g class="yaxislayer-above"><path class="ytick ticks crisp" d="M53.5,0h-5" transform="translate(0,341.56)" style="stroke: rgb(68, 68, 68); stroke-opacity: 1; stroke-width: 1px;"/><path class="ytick ticks crisp" d="M53.5,0h-5" transform="translate(0,284.54)" style="stroke: rgb(68, 68, 68); stroke-opacity: 1; stroke-width: 1px;"/><path class="ytick ticks crisp" d="M53.5,0h-5" transform="translate(0,227.52)" style="stroke: rgb(68, 68, 68); stroke-opacity: 1; stroke-width: 1px;"/><path class="ytick ticks crisp" d="M53.5,0h-5" transform="translate(0,170.5)" style="stroke: rgb(68, 68, 68); stroke-opacity: 1; stroke-width: 1px;"/><path class="ytick ticks crisp" d="M53.5,0h-5" transform="translate(0,113.49)" style="stroke: rgb(68, 68, 68); stroke-opacity: 1; stroke-width: 1px;"/><path class="ytick ticks crisp" d="M53.5,0h-5" transform="translate(0,56.47)" style="stroke: rgb(68, 68, 68); stroke-opacity: 1; stroke-width: 1px;"/><g class="ytick"><text text-anchor="end" x="46.1" y="4.199999999999999" transform="translate(0,341.56)" style="font-family: Helvetica; font-size: 12px; fill: rgb(0, 0, 0); fill-opacity: 1; white-space: pre; opacity: 1;">−0.002</text></g><g class="ytick"><text text-anchor="end" x="46.1" y="4.199999999999999" style="font-family: Helvetica; font-size: 12px; fill: rgb(0, 0, 0); fill-opacity: 1; white-space: pre; opacity: 1;" transform="translate(0,284.54)">−0.001</text></g><g class="ytick"><text text-anchor="end" x="46.1" y="4.199999999999999" style="font-family: Helvetica; font-size: 12px; fill: rgb(0, 0, 0); fill-opacity: 1; white-space: pre; opacity: 1;" transform="translate(0,227.52)">0</text></g><g class="ytick"><text text-anchor="end" x="46.1" y="4.199999999999999" style="font-family: Helvetica; font-size: 12px; fill: rgb(0, 0, 0); fill-opacity: 1; white-space: pre; opacity: 1;" transform="translate(0,170.5)">0.001</text></g><g class="ytick"><text text-anchor="end" x="46.1" y="4.199999999999999" style="font-family: Helvetica; font-size: 12px; fill: rgb(0, 0, 0); fill-opacity: 1; white-space: pre; opacity: 1;" transform="translate(0,113.49)">0.002</text></g><g class="ytick"><text text-anchor="end" x="46.1" y="4.199999999999999" style="font-family: Helvetica; font-size: 12px; fill: rgb(0, 0, 0); fill-opacity: 1; white-space: pre; opacity: 1;" transform="translate(0,56.47)">0.003</text></g></g><g class="overaxes-above"/></g></g><g class="polarlayer"/><g class="smithlayer"/><g class="ternarylayer"/><g class="geolayer"/><g class="funnelarealayer"/><g class="pielayer"/><g class="iciclelayer"/><g class="treemaplayer"/><g class="sunburstlayer"/><g class="glimages"/><defs id="topdefs-80650d"><g class="clips"/></defs><g class="layer-above"><g class="imagelayer"/><g class="shapelayer"><g class="shape-group" data-index="0" clip-path="url(#clip80650dx)"><path data-index="0" fill-rule="evenodd" d="M196.14,377L196.14,20" style="opacity: 1; stroke: rgb(0, 0, 0); stroke-opacity: 1; fill: rgb(0, 0, 0); fill-opacity: 0; stroke-dasharray: 9px, 9px; stroke-width: 0.5px;"/></g><g class="shape-group" data-index="1" clip-path="url(#clip80650dy)"><path data-index="1" fill-rule="evenodd" d="M54,227.52L400,227.52" style="opacity: 1; stroke: rgb(0, 0, 0); stroke-opacity: 1; fill: rgb(0, 0, 0); fill-opacity: 0; stroke-dasharray: 9px, 9px; stroke-width: 0.5px;"/></g></g></g><g class="infolayer"><g class="g-gtitle"/><g class="g-xtitle"/><g class="g-ytitle"/></g></svg>