<svg class="main-svg" xmlns="http://www.w3.org/2000/svg" xmlns:xlink="http://www.w3.org/1999/xlink" width="800" height="300" style="" viewBox="0 0 800 300"><rect x="0" y="0" width="800" height="300" style="fill: rgb(255, 255, 255); fill-opacity: 1;"/><defs id="defs-72eda7"><g class="clips"><clipPath id="clip72eda7xyplot" class="plotclip"><rect width="749" height="257"/></clipPath><clipPath class="axesclip" id="clip72eda7x"><rect x="51" y="0" width="749" height="300"/></clipPath><clipPath class="axesclip" id="clip72eda7y"><rect x="0" y="20" width="800" height="257"/></clipPath><clipPath class="axesclip" id="clip72eda7xy"><rect x="51" y="20" width="749" height="257"/></clipPath></g><g class="gradients"/><g class="patterns"/></defs><g class="bglayer"><rect class="bg" x="51" y="20" width="749" height="257" style="fill: rgb(0, 0, 0); fill-opacity: 0; stroke-width: 0;"/></g><g class="layer-below"><g class="imagelayer"/><g class="shapelayer"/></g><g class="cartesianlayer"><g class="subplot xy"><g class="layer-subplot"><g class="shapelayer"/><g class="imagelayer"/></g><g class="minor-gridlayer"><g class="x"/><g class="y"/></g><g class="gridlayer"><g class="x"/><g class="y"/></g><g class="zerolinelayer"><path class="yzl zl crisp" transform="translate(0,212.75)" d="M51,0h749" style="stroke: rgb(255, 255, 255); stroke-opacity: 1; stroke-width: 2px;"/></g><g class="layer-between"><g class="shapelayer"/><g class="imagelayer"/></g><path class="xlines-below"/><path class="ylines-below"/><g class="overlines-below"/><g class="xaxislayer-below"/><g class="yaxislayer-below"/><g class="overaxes-below"/><g class="plot" transform="translate(51,20)" clip-path="url(#clip72eda7xyplot)"><g class="violinlayer mlayer"><g class="trace violins" style="opacity: 0.9;"><path class="violin" d="M62.46,108.74Q62.48,107.65 62.49,107.1C62.5,106.55 62.51,106.01 62.53,105.46C62.55,104.91 62.57,104.37 62.59,103.82C62.61,103.27 62.63,102.73 62.65,102.18C62.67,101.63 62.68,101.09 62.69,100.54C62.7,99.99 62.7,99.45 62.7,98.9C62.7,98.35 62.7,97.81 62.69,97.26C62.68,96.71 62.66,96.17 62.65,95.62C62.64,95.07 62.62,94.53 62.61,93.98C62.6,93.43 62.58,92.89 62.57,92.34C62.56,91.79 62.55,91.25 62.55,90.7C62.55,90.15 62.55,89.61 62.56,89.06C62.57,88.51 62.58,87.96 62.6,87.41C62.62,86.86 62.64,86.32 62.66,85.77C62.68,85.22 62.71,84.68 62.74,84.13C62.76,83.58 62.78,83.04 62.81,82.49C62.84,81.94 62.87,81.4 62.9,80.85C62.93,80.3 62.96,79.76 63,79.21C63.04,78.66 63.08,78.12 63.13,77.57C63.18,77.02 63.23,76.48 63.29,75.93C63.35,75.38 63.42,74.84 63.49,74.29C63.56,73.74 63.64,73.2 63.72,72.65C63.8,72.1 63.89,71.56 63.98,71.01C64.07,70.46 64.16,69.92 64.26,69.37C64.36,68.82 64.45,68.28 64.56,67.73C64.67,67.18 64.78,66.64 64.9,66.09C65.02,65.54 65.13,64.99 65.26,64.44C65.39,63.89 65.52,63.35 65.66,62.8C65.8,62.25 65.95,61.7 66.12,61.16C66.29,60.61 66.47,60.06 66.67,59.52C66.87,58.97 67.1,58.42 67.34,57.88C67.59,57.33 67.87,56.78 68.15,56.24C68.44,55.69 68.75,55.15 69.06,54.6C69.37,54.05 69.69,53.51 70,52.96C70.3,52.42 70.61,51.87 70.89,51.32C71.16,50.78 71.42,50.23 71.66,49.68C71.89,49.14 72.09,48.59 72.3,48.04C72.51,47.49 72.69,46.94 72.9,46.4C73.11,45.85 73.32,45.3 73.57,44.76C73.83,44.21 74.11,43.66 74.43,43.12C74.76,42.56 75.14,42.02 75.54,41.48C75.95,40.92 76.41,40.37 76.88,39.83C77.36,39.28 77.86,38.73 78.38,38.19C78.91,37.64 79.46,37.09 80.02,36.55C80.6,36 81.19,35.45 81.81,34.91C82.44,34.36 83.09,33.81 83.76,33.27C84.44,32.72 85.16,32.18 85.86,31.63C86.56,31.08 87.29,30.54 87.98,29.99C88.65,29.45 89.34,28.91 89.95,28.35C90.52,27.82 91.09,27.28 91.54,26.71C91.95,26.18 92.34,25.64 92.58,25.07C92.81,24.54 92.96,23.98 93,23.43C93.04,22.89 92.96,22.33 92.83,21.79C92.69,21.23 92.44,20.68 92.16,20.15C91.87,19.59 91.5,19.05 91.11,18.51C90.71,17.95 90.25,17.41 89.78,16.87C89.29,16.31 88.77,15.76 88.24,15.22C87.7,14.67 87.13,14.12 86.55,13.58C85.96,13.03 85.35,12.48 84.74,11.94C84.12,11.39 83.49,10.84 82.85,10.3C82.19,9.75 81.53,9.2 80.84,8.66C80.14,8.11 79.42,7.56 78.68,7.02C77.93,6.47 77.15,5.92 76.37,5.38C75.58,4.83 74.77,4.29 73.97,3.74C73.18,3.19 72.38,2.65 71.61,2.1C70.86,1.56 70.11,1.02 69.42,0.46C68.76,-0.07 68.12,-0.62 67.55,-1.18C67.01,-1.71 66.5,-2.26 66.06,-2.82C65.64,-3.35 65.27,-3.9 64.95,-4.46C64.64,-5 64.39,-5.55 64.17,-6.1C63.96,-6.64 63.79,-7.2 63.64,-7.75C63.5,-8.29 63.39,-8.84 63.29,-9.39C63.19,-9.94 63.12,-10.48 63.05,-11.03C62.98,-11.58 62.93,-12.12 62.88,-12.67C62.83,-13.22 62.78,-13.76 62.74,-14.31C62.7,-14.86 62.67,-15.4 62.64,-15.95C62.61,-16.5 62.57,-17.04 62.55,-17.59C62.53,-18.14 62.52,-18.68 62.5,-19.23Q62.49,-19.78 62.46,-20.87L62.38,-20.87Q62.36,-19.78 62.34,-19.23C62.32,-18.68 62.3,-18.14 62.28,-17.59C62.26,-17.04 62.23,-16.5 62.2,-15.95C62.17,-15.4 62.13,-14.86 62.09,-14.31C62.05,-13.76 62,-13.22 61.95,-12.67C61.9,-12.12 61.85,-11.58 61.78,-11.03C61.71,-10.48 61.64,-9.94 61.54,-9.39C61.44,-8.84 61.33,-8.29 61.19,-7.75C61.04,-7.2 60.88,-6.64 60.67,-6.1C60.45,-5.54 60.2,-5 59.89,-4.46C59.57,-3.9 59.2,-3.35 58.78,-2.82C58.34,-2.26 57.83,-1.71 57.29,-1.18C56.71,-0.62 56.07,-0.07 55.41,0.46C54.72,1.02 53.98,1.56 53.23,2.1C52.46,2.65 51.65,3.19 50.86,3.74C50.06,4.29 49.25,4.83 48.46,5.38C47.68,5.92 46.9,6.47 46.15,7.02C45.42,7.56 44.7,8.11 44,8.66C43.31,9.2 42.65,9.75 41.99,10.3C41.34,10.84 40.71,11.39 40.09,11.94C39.48,12.48 38.88,13.03 38.29,13.58C37.71,14.12 37.14,14.67 36.59,15.22C36.06,15.76 35.54,16.31 35.05,16.87C34.58,17.41 34.12,17.95 33.72,18.51C33.33,19.05 32.97,19.59 32.68,20.15C32.4,20.68 32.15,21.23 32.01,21.79C31.87,22.33 31.79,22.89 31.83,23.43C31.87,23.98 32.02,24.54 32.25,25.07C32.49,25.64 32.88,26.18 33.29,26.71C33.74,27.28 34.31,27.82 34.88,28.35C35.49,28.91 36.18,29.45 36.85,29.99C37.54,30.54 38.27,31.08 38.98,31.63C39.68,32.18 40.39,32.72 41.07,33.27C41.74,33.81 42.39,34.36 43.02,34.91C43.64,35.45 44.23,36 44.81,36.55C45.37,37.09 45.92,37.64 46.45,38.19C46.97,38.73 47.47,39.28 47.95,39.83C48.42,40.37 48.88,40.92 49.29,41.48C49.69,42.02 50.07,42.56 50.4,43.12C50.72,43.66 51.01,44.21 51.27,44.76C51.52,45.3 51.73,45.85 51.94,46.4C52.15,46.94 52.33,47.49 52.53,48.04C52.74,48.59 52.94,49.14 53.17,49.68C53.41,50.23 53.67,50.78 53.94,51.32C54.22,51.87 54.52,52.42 54.83,52.96C55.14,53.51 55.47,54.05 55.78,54.6C56.09,55.15 56.4,55.69 56.69,56.24C56.97,56.78 57.24,57.33 57.49,57.88C57.73,58.42 57.96,58.97 58.16,59.52C58.36,60.06 58.54,60.61 58.71,61.16C58.88,61.7 59.03,62.25 59.17,62.8C59.31,63.35 59.44,63.89 59.57,64.44C59.7,64.99 59.82,65.54 59.94,66.09C60.06,66.64 60.16,67.18 60.27,67.73C60.38,68.28 60.48,68.82 60.58,69.37C60.68,69.92 60.77,70.46 60.86,71.01C60.95,71.56 61.03,72.1 61.11,72.65C61.19,73.2 61.27,73.74 61.34,74.29C61.41,74.84 61.48,75.38 61.54,75.93C61.6,76.48 61.65,77.02 61.7,77.57C61.75,78.12 61.79,78.66 61.83,79.21C61.87,79.76 61.91,80.3 61.94,80.85C61.97,81.4 61.99,81.94 62.02,82.49C62.05,83.04 62.07,83.58 62.1,84.13C62.12,84.68 62.15,85.22 62.17,85.77C62.19,86.32 62.21,86.86 62.23,87.41C62.25,87.96 62.26,88.51 62.27,89.06C62.28,89.61 62.28,90.15 62.28,90.7C62.28,91.25 62.28,91.79 62.27,92.34C62.26,92.89 62.24,93.43 62.23,93.98C62.21,94.53 62.2,95.07 62.18,95.62C62.17,96.17 62.15,96.71 62.14,97.26C62.13,97.81 62.13,98.35 62.13,98.9C62.13,99.45 62.14,99.99 62.15,100.54C62.16,101.09 62.18,101.63 62.19,102.18C62.21,102.73 62.22,103.27 62.24,103.82C62.26,104.37 62.28,104.91 62.3,105.46C62.32,106.01 62.34,106.55 62.35,107.1Q62.36,107.65 62.38,108.74Z" style="vector-effect: none; stroke-width: 0.5px; stroke: rgb(0, 0, 0); stroke-opacity: 1; fill: rgb(255, 165, 0); fill-opacity: 1;"/><path class="meanline" d="M91.43421936035156,26.84H33.40578063964844" style="fill: none; vector-effect: none; stroke-width: 0.5px; stroke-dasharray: 1px, 0.5px; stroke: rgb(0, 0, 0); stroke-opacity: 1;"/></g><g class="trace violins" style="opacity: 0.9;"><path class="violin" d="M187.35,191.02Q187.39,189.98 187.43,189.46C187.47,188.94 187.52,188.42 187.57,187.9C187.63,187.38 187.69,186.86 187.76,186.34C187.83,185.82 187.92,185.3 188.01,184.78C188.1,184.26 188.2,183.73 188.3,183.21C188.41,182.69 188.52,182.17 188.64,181.65C188.76,181.13 188.9,180.61 189.04,180.09C189.19,179.57 189.34,179.05 189.51,178.53C189.68,178.01 189.87,177.49 190.07,176.97C190.27,176.45 190.5,175.93 190.73,175.41C190.97,174.89 191.22,174.37 191.48,173.85C191.75,173.33 192.03,172.81 192.32,172.29C192.61,171.77 192.91,171.25 193.23,170.73C193.55,170.2 193.88,169.68 194.23,169.16C194.58,168.63 194.96,168.12 195.34,167.6C195.73,167.08 196.14,166.56 196.56,166.04C196.99,165.52 197.44,165 197.89,164.48C198.35,163.96 198.82,163.44 199.29,162.92C199.76,162.4 200.24,161.88 200.71,161.36C201.18,160.84 201.65,160.32 202.11,159.8C202.57,159.28 203.02,158.76 203.46,158.24C203.9,157.72 204.33,157.2 204.75,156.68C205.17,156.16 205.58,155.63 205.99,155.11C206.4,154.59 206.8,154.07 207.2,153.55C207.6,153.03 208,152.51 208.41,151.99C208.83,151.47 209.25,150.95 209.69,150.43C210.14,149.91 210.61,149.39 211.08,148.87C211.56,148.35 212.06,147.83 212.56,147.31C213.06,146.79 213.59,146.27 214.08,145.75C214.56,145.23 215.05,144.72 215.49,144.19C215.91,143.68 216.33,143.17 216.67,142.63C216.99,142.12 217.29,141.6 217.48,141.06C217.67,140.55 217.8,140.02 217.83,139.5C217.86,138.98 217.81,138.45 217.67,137.94C217.52,137.41 217.26,136.88 216.94,136.38C216.59,135.84 216.12,135.32 215.61,134.82C215.06,134.28 214.4,133.76 213.73,133.26C213.01,132.72 212.21,132.21 211.41,131.7C210.58,131.17 209.69,130.66 208.82,130.14C207.94,129.62 207.04,129.1 206.17,128.57C205.31,128.05 204.45,127.54 203.62,127.01C202.82,126.5 202.03,125.98 201.28,125.45C200.56,124.94 199.87,124.42 199.21,123.89C198.58,123.38 197.98,122.86 197.42,122.33C196.88,121.82 196.38,121.3 195.91,120.77C195.46,120.26 195.04,119.74 194.65,119.21C194.27,118.7 193.91,118.18 193.58,117.65C193.26,117.14 192.96,116.61 192.68,116.09C192.4,115.57 192.14,115.04 191.88,114.52C191.62,114 191.38,113.48 191.14,112.96C190.9,112.44 190.66,111.92 190.42,111.4C190.19,110.88 189.95,110.36 189.73,109.84C189.51,109.32 189.29,108.8 189.09,108.28C188.89,107.76 188.71,107.24 188.54,106.72C188.38,106.2 188.22,105.68 188.1,105.16C187.98,104.64 187.88,104.12 187.8,103.6C187.72,103.08 187.67,102.56 187.63,102.04C187.59,101.52 187.56,100.99 187.55,100.47C187.54,99.95 187.54,99.43 187.54,98.91C187.54,98.39 187.55,97.87 187.55,97.35C187.55,96.83 187.55,96.31 187.55,95.79C187.55,95.27 187.54,94.75 187.53,94.23C187.52,93.71 187.5,93.19 187.48,92.67C187.46,92.15 187.45,91.63 187.43,91.11C187.41,90.59 187.39,90.07 187.37,89.55C187.35,89.03 187.33,88.51 187.32,87.99Q187.31,87.47 187.29,86.42L187.21,86.42Q187.19,87.47 187.18,87.99C187.17,88.51 187.15,89.03 187.13,89.55C187.11,90.07 187.09,90.59 187.07,91.11C187.05,91.63 187.04,92.15 187.02,92.67C187,93.19 186.98,93.71 186.97,94.23C186.96,94.75 186.95,95.27 186.95,95.79C186.95,96.31 186.95,96.83 186.95,97.35C186.95,97.87 186.96,98.39 186.96,98.91C186.96,99.43 186.96,99.95 186.95,100.47C186.94,100.99 186.91,101.52 186.87,102.04C186.83,102.56 186.78,103.08 186.7,103.6C186.62,104.12 186.52,104.64 186.4,105.16C186.28,105.68 186.12,106.2 185.96,106.72C185.79,107.24 185.61,107.76 185.41,108.28C185.21,108.8 184.99,109.32 184.77,109.84C184.55,110.36 184.31,110.88 184.08,111.4C183.84,111.92 183.6,112.44 183.36,112.96C183.12,113.48 182.88,114 182.62,114.52C182.36,115.04 182.1,115.57 181.82,116.09C181.54,116.61 181.24,117.14 180.92,117.65C180.59,118.18 180.23,118.7 179.85,119.21C179.46,119.74 179.04,120.26 178.59,120.77C178.12,121.3 177.62,121.82 177.08,122.33C176.52,122.86 175.92,123.38 175.29,123.89C174.63,124.42 173.94,124.94 173.22,125.45C172.47,125.98 171.68,126.5 170.88,127.01C170.05,127.54 169.19,128.05 168.33,128.57C167.46,129.1 166.56,129.62 165.68,130.14C164.81,130.66 163.92,131.17 163.09,131.7C162.29,132.21 161.49,132.72 160.77,133.26C160.1,133.76 159.44,134.28 158.89,134.82C158.38,135.32 157.91,135.84 157.56,136.38C157.24,136.88 156.98,137.41 156.83,137.94C156.69,138.45 156.64,138.98 156.67,139.5C156.7,140.02 156.83,140.55 157.02,141.06C157.21,141.6 157.51,142.12 157.83,142.63C158.17,143.17 158.59,143.68 159.01,144.19C159.45,144.72 159.94,145.23 160.42,145.75C160.91,146.27 161.44,146.79 161.94,147.31C162.44,147.83 162.94,148.35 163.42,148.87C163.89,149.39 164.36,149.91 164.81,150.43C165.25,150.95 165.67,151.47 166.09,151.99C166.5,152.51 166.9,153.03 167.3,153.55C167.7,154.07 168.1,154.59 168.51,155.11C168.92,155.63 169.33,156.16 169.75,156.68C170.17,157.2 170.6,157.72 171.04,158.24C171.48,158.76 171.93,159.28 172.39,159.8C172.85,160.32 173.32,160.84 173.79,161.36C174.26,161.88 174.74,162.4 175.21,162.92C175.68,163.44 176.15,163.96 176.61,164.48C177.06,165 177.51,165.52 177.94,166.04C178.36,166.56 178.77,167.08 179.16,167.6C179.54,168.12 179.92,168.63 180.27,169.16C180.62,169.68 180.95,170.2 181.27,170.73C181.59,171.25 181.89,171.77 182.18,172.29C182.47,172.81 182.75,173.33 183.02,173.85C183.28,174.37 183.53,174.89 183.77,175.41C184,175.93 184.23,176.45 184.43,176.97C184.63,177.49 184.82,178.01 184.99,178.53C185.16,179.05 185.31,179.57 185.46,180.09C185.6,180.61 185.74,181.13 185.86,181.65C185.98,182.17 186.09,182.69 186.2,183.21C186.3,183.73 186.4,184.26 186.49,184.78C186.58,185.3 186.67,185.82 186.74,186.34C186.81,186.86 186.87,187.38 186.93,187.9C186.98,188.42 187.03,188.94 187.07,189.46Q187.11,189.98 187.15,191.02Z" style="vector-effect: none; stroke-width: 0.5px; stroke: rgb(0, 0, 0); stroke-opacity: 1; fill: rgb(255, 255, 0); fill-opacity: 1;"/><path class="meanline" d="M216.422607421875,143H158.077392578125" style="fill: none; vector-effect: none; stroke-width: 0.5px; stroke-dasharray: 1px, 0.5px; stroke: rgb(0, 0, 0); stroke-opacity: 1;"/></g><g class="trace violins" style="opacity: 0.9;"><path class="violin" d="M312.12,145.2Q312.14,144.19 312.16,143.69C312.18,143.19 312.21,142.69 312.24,142.19C312.28,141.69 312.31,141.18 312.37,140.68C312.43,140.18 312.49,139.67 312.58,139.17C312.67,138.67 312.77,138.16 312.89,137.66C313.02,137.15 313.16,136.65 313.33,136.15C313.5,135.64 313.7,135.14 313.93,134.64C314.16,134.13 314.42,133.63 314.7,133.14C314.99,132.63 315.31,132.13 315.65,131.63C316,131.12 316.39,130.62 316.8,130.12C317.22,129.61 317.66,129.11 318.12,128.61C318.59,128.1 319.09,127.6 319.6,127.1C320.12,126.59 320.67,126.09 321.22,125.59C321.78,125.08 322.37,124.59 322.95,124.09C323.54,123.59 324.14,123.09 324.72,122.58C325.3,122.08 325.89,121.58 326.44,121.07C326.97,120.57 327.51,120.08 327.98,119.56C328.43,119.07 328.86,118.57 329.21,118.05C329.54,117.56 329.83,117.06 330.03,116.54C330.22,116.05 330.35,115.54 330.4,115.04C330.45,114.54 330.42,114.03 330.35,113.53C330.28,113.02 330.12,112.52 329.95,112.02C329.77,111.51 329.54,111.01 329.3,110.51C329.05,110 328.77,109.5 328.49,109C328.21,108.49 327.89,107.99 327.61,107.49C327.33,106.99 327.04,106.5 326.79,105.99C326.55,105.49 326.31,104.99 326.15,104.48C325.99,103.98 325.86,103.48 325.82,102.97C325.78,102.47 325.79,101.96 325.88,101.46C325.97,100.95 326.15,100.44 326.37,99.95C326.6,99.43 326.91,98.93 327.25,98.44C327.6,97.93 328.01,97.43 328.44,96.94C328.88,96.43 329.36,95.93 329.86,95.43C330.37,94.92 330.92,94.42 331.48,93.92C332.05,93.41 332.65,92.91 333.25,92.41C333.86,91.9 334.5,91.4 335.13,90.9C335.77,90.4 336.42,89.9 337.05,89.39C337.67,88.89 338.29,88.4 338.87,87.89C339.42,87.4 339.97,86.9 340.45,86.38C340.9,85.89 341.33,85.39 341.66,84.87C341.97,84.38 342.25,83.88 342.42,83.36C342.58,82.87 342.68,82.35 342.67,81.85C342.66,81.35 342.55,80.83 342.36,80.34C342.16,79.82 341.84,79.32 341.46,78.84C341.04,78.31 340.5,77.81 339.92,77.33C339.28,76.8 338.54,76.3 337.77,75.82C336.94,75.29 336.01,74.8 335.08,74.31C334.1,73.79 333.06,73.3 332.04,72.8C331,72.29 329.93,71.8 328.89,71.29C327.87,70.79 326.83,70.3 325.85,69.79C324.9,69.3 323.96,68.8 323.08,68.28C322.24,67.79 321.42,67.29 320.66,66.77C319.94,66.28 319.26,65.78 318.63,65.26C318.03,64.77 317.47,64.27 316.95,63.75C316.46,63.26 316.02,62.75 315.61,62.24C315.22,61.75 314.87,61.25 314.56,60.74C314.26,60.25 314.01,59.74 313.78,59.23C313.56,58.73 313.37,58.23 313.21,57.72C313.05,57.22 312.92,56.72 312.8,56.21C312.69,55.71 312.6,55.2 312.52,54.7C312.44,54.2 312.39,53.69 312.34,53.19C312.29,52.69 312.25,52.18 312.22,51.68C312.19,51.18 312.17,50.68 312.15,50.18Q312.13,49.68 312.12,48.67L312.05,48.67Q312.03,49.68 312.01,50.18C311.99,50.68 311.97,51.18 311.94,51.68C311.91,52.18 311.88,52.69 311.83,53.19C311.78,53.69 311.72,54.2 311.64,54.7C311.56,55.2 311.48,55.71 311.37,56.21C311.26,56.72 311.12,57.22 310.96,57.72C310.8,58.23 310.61,58.73 310.39,59.23C310.16,59.74 309.9,60.25 309.6,60.74C309.29,61.25 308.94,61.75 308.56,62.24C308.16,62.75 307.71,63.26 307.22,63.75C306.7,64.27 306.14,64.77 305.54,65.26C304.9,65.78 304.22,66.28 303.5,66.77C302.74,67.29 301.93,67.79 301.09,68.28C300.21,68.8 299.27,69.3 298.32,69.79C297.34,70.3 296.3,70.79 295.28,71.29C294.24,71.8 293.17,72.29 292.13,72.8C291.11,73.3 290.07,73.79 289.09,74.31C288.16,74.8 287.24,75.3 286.4,75.82C285.63,76.31 284.88,76.8 284.24,77.33C283.66,77.81 283.13,78.31 282.71,78.84C282.33,79.32 282.01,79.82 281.81,80.34C281.62,80.83 281.51,81.35 281.5,81.85C281.49,82.35 281.58,82.87 281.74,83.36C281.91,83.88 282.19,84.38 282.5,84.87C282.84,85.39 283.27,85.89 283.72,86.38C284.2,86.9 284.75,87.4 285.3,87.89C285.88,88.4 286.5,88.89 287.12,89.39C287.75,89.9 288.4,90.4 289.03,90.9C289.66,91.4 290.3,91.9 290.92,92.41C291.52,92.91 292.12,93.41 292.69,93.92C293.25,94.42 293.79,94.92 294.3,95.43C294.8,95.93 295.29,96.43 295.73,96.94C296.16,97.43 296.57,97.93 296.92,98.44C297.25,98.93 297.56,99.43 297.79,99.95C298.01,100.44 298.19,100.95 298.28,101.46C298.37,101.96 298.39,102.47 298.35,102.97C298.31,103.48 298.18,103.98 298.02,104.48C297.86,104.99 297.62,105.49 297.38,105.99C297.13,106.5 296.84,106.99 296.56,107.49C296.28,107.99 295.96,108.49 295.68,109C295.4,109.5 295.12,110 294.87,110.51C294.63,111.01 294.39,111.51 294.21,112.02C294.04,112.52 293.89,113.02 293.82,113.53C293.75,114.03 293.72,114.54 293.77,115.04C293.82,115.54 293.95,116.05 294.14,116.54C294.34,117.06 294.62,117.56 294.95,118.05C295.3,118.57 295.73,119.07 296.18,119.56C296.65,120.08 297.19,120.57 297.73,121.07C298.28,121.58 298.87,122.08 299.45,122.58C300.03,123.09 300.64,123.59 301.22,124.09C301.8,124.59 302.38,125.08 302.94,125.59C303.49,126.09 304.05,126.59 304.57,127.1C305.08,127.6 305.58,128.1 306.05,128.61C306.51,129.11 306.95,129.61 307.37,130.12C307.78,130.62 308.17,131.12 308.52,131.63C308.86,132.13 309.18,132.63 309.47,133.14C309.75,133.63 310.01,134.13 310.24,134.64C310.46,135.14 310.66,135.64 310.83,136.15C311,136.65 311.14,137.15 311.27,137.66C311.4,138.16 311.5,138.67 311.59,139.17C311.68,139.67 311.74,140.18 311.8,140.68C311.86,141.18 311.89,141.69 311.93,142.19C311.96,142.69 311.99,143.19 312.01,143.69Q312.03,144.19 312.05,145.2Z" style="vector-effect: none; stroke-width: 0.5px; stroke: rgb(0, 0, 0); stroke-opacity: 1; fill: rgb(128, 0, 128); fill-opacity: 1;"/><path class="meanline" d="M331.2677917480469,94.11H292.8922082519531" style="fill: none; vector-effect: none; stroke-width: 0.5px; stroke-dasharray: 1px, 0.5px; stroke: rgb(0, 0, 0); stroke-opacity: 1;"/></g><g class="trace violins" style="opacity: 0.9;"><path class="violin" d="M436.92,188.54Q436.93,188.29 436.93,188.16C436.93,188.03 436.94,187.91 436.94,187.78C436.94,187.65 436.95,187.53 436.95,187.4C436.96,187.27 436.96,187.15 436.97,187.02C436.97,186.89 436.98,186.77 436.98,186.64C436.99,186.51 436.99,186.39 437,186.26C437,186.14 437.01,186.01 437.01,185.89C437.01,185.76 437.01,185.64 437.01,185.51C437.01,185.38 437.02,185.26 437.02,185.13C437.02,185 437.03,184.88 437.03,184.75C437.04,184.62 437.04,184.5 437.05,184.37C437.06,184.24 437.07,184.12 437.08,183.99C437.09,183.87 437.1,183.74 437.11,183.62C437.12,183.49 437.14,183.37 437.16,183.24C437.18,183.11 437.2,182.99 437.22,182.86C437.25,182.73 437.28,182.61 437.31,182.48C437.35,182.35 437.38,182.23 437.43,182.1C437.48,181.97 437.53,181.84 437.6,181.72C437.67,181.59 437.75,181.47 437.84,181.35C437.94,181.22 438.04,181.09 438.16,180.97C438.29,180.84 438.44,180.71 438.61,180.59C438.79,180.46 439,180.33 439.22,180.21C439.47,180.08 439.75,179.95 440.04,179.83C440.36,179.7 440.71,179.57 441.08,179.45C441.49,179.32 441.94,179.19 442.4,179.07C442.91,178.94 443.45,178.82 444,178.7C444.6,178.57 445.23,178.44 445.87,178.32C446.55,178.19 447.27,178.06 447.99,177.94C448.74,177.81 449.5,177.69 450.27,177.56C451.04,177.43 451.83,177.31 452.61,177.18C453.38,177.05 454.15,176.93 454.91,176.8C455.65,176.68 456.38,176.56 457.1,176.43C457.79,176.31 458.47,176.18 459.13,176.05C459.76,175.93 460.39,175.8 460.99,175.67C461.57,175.55 462.13,175.42 462.68,175.29C463.2,175.17 463.72,175.04 464.21,174.91C464.66,174.79 465.11,174.66 465.52,174.53C465.89,174.41 466.25,174.3 466.55,174.16C466.81,174.04 467.07,173.93 467.23,173.78C467.36,173.67 467.49,173.53 467.5,173.4C467.51,173.28 467.43,173.13 467.34,173.02C467.22,172.87 467,172.76 466.79,172.64C466.54,172.5 466.22,172.38 465.91,172.26C465.57,172.13 465.19,172.01 464.81,171.89C464.4,171.76 463.97,171.63 463.54,171.51C463.1,171.38 462.64,171.26 462.18,171.13C461.71,171 461.23,170.88 460.76,170.75C460.29,170.62 459.82,170.5 459.35,170.37C458.89,170.24 458.43,170.12 457.98,169.99C457.54,169.86 457.1,169.74 456.67,169.61C456.25,169.49 455.85,169.37 455.44,169.24C455.04,169.12 454.64,168.99 454.25,168.86C453.86,168.73 453.49,168.61 453.1,168.48C452.71,168.35 452.32,168.23 451.93,168.1C451.54,167.97 451.15,167.85 450.76,167.72C450.37,167.59 449.97,167.47 449.58,167.34C449.19,167.22 448.81,167.1 448.43,166.97C448.07,166.85 447.71,166.72 447.36,166.59C447.03,166.47 446.71,166.34 446.4,166.21C446.11,166.09 445.83,165.96 445.57,165.83C445.33,165.71 445.1,165.58 444.88,165.45C444.68,165.33 444.5,165.2 444.32,165.07C444.15,164.95 443.99,164.83 443.83,164.7C443.67,164.58 443.52,164.45 443.37,164.32C443.22,164.19 443.06,164.07 442.91,163.94C442.75,163.81 442.6,163.69 442.44,163.56C442.29,163.43 442.13,163.31 441.98,163.18C441.84,163.05 441.69,162.93 441.56,162.8C441.43,162.68 441.31,162.55 441.2,162.42C441.1,162.3 441,162.18 440.91,162.05C440.82,161.93 440.75,161.8 440.67,161.67C440.6,161.54 440.53,161.42 440.46,161.29C440.4,161.16 440.33,161.04 440.28,160.91C440.23,160.78 440.18,160.66 440.14,160.53C440.1,160.4 440.06,160.28 440.03,160.15C440,160.03 439.98,159.9 439.97,159.78C439.96,159.65 439.96,159.53 439.96,159.4C439.96,159.27 439.95,159.15 439.95,159.02C439.94,158.89 439.94,158.77 439.93,158.64C439.92,158.51 439.9,158.39 439.87,158.26C439.84,158.13 439.81,158 439.77,157.88C439.73,157.75 439.68,157.63 439.63,157.51C439.58,157.38 439.53,157.26 439.49,157.13C439.45,157 439.4,156.88 439.37,156.75C439.34,156.62 439.32,156.5 439.29,156.37C439.27,156.24 439.24,156.12 439.22,155.99C439.2,155.86 439.19,155.74 439.18,155.61C439.16,155.48 439.15,155.36 439.13,155.23C439.11,155.11 439.09,154.98 439.07,154.86C439.04,154.73 439.01,154.61 438.98,154.48C438.94,154.35 438.9,154.23 438.86,154.1C438.82,153.97 438.77,153.85 438.73,153.72C438.69,153.59 438.65,153.47 438.61,153.34C438.58,153.21 438.54,153.09 438.52,152.96C438.5,152.84 438.48,152.71 438.47,152.59C438.46,152.46 438.47,152.34 438.47,152.21C438.47,152.08 438.49,151.96 438.5,151.83C438.51,151.7 438.53,151.58 438.54,151.45C438.55,151.32 438.56,151.2 438.57,151.07C438.58,150.94 438.59,150.82 438.59,150.69C438.59,150.57 438.59,150.44 438.59,150.32C438.59,150.19 438.58,150.07 438.57,149.94C438.57,149.81 438.56,149.69 438.56,149.56C438.56,149.43 438.56,149.31 438.56,149.18C438.56,149.05 438.56,148.93 438.57,148.8C438.58,148.67 438.59,148.55 438.6,148.42C438.61,148.29 438.62,148.17 438.63,148.04C438.64,147.92 438.65,147.79 438.65,147.67C438.65,147.54 438.65,147.42 438.65,147.29C438.65,147.16 438.64,147.04 438.64,146.91C438.64,146.78 438.64,146.66 438.64,146.53C438.64,146.4 438.64,146.28 438.64,146.15C438.64,146.02 438.64,145.9 438.65,145.77C438.65,145.65 438.67,145.52 438.67,145.4C438.68,145.27 438.68,145.15 438.68,145.02C438.68,144.89 438.68,144.77 438.68,144.64C438.68,144.51 438.66,144.39 438.65,144.26C438.64,144.13 438.63,144.01 438.61,143.88C438.59,143.75 438.57,143.63 438.54,143.5C438.51,143.38 438.48,143.25 438.45,143.13C438.42,143 438.39,142.88 438.36,142.75C438.33,142.62 438.3,142.5 438.28,142.37C438.26,142.24 438.24,142.12 438.23,141.99C438.22,141.86 438.21,141.74 438.2,141.61C438.19,141.48 438.19,141.36 438.19,141.23C438.19,141.1 438.2,140.98 438.21,140.85C438.22,140.73 438.22,140.6 438.23,140.48C438.24,140.35 438.24,140.23 438.25,140.1C438.25,139.97 438.26,139.85 438.26,139.72C438.26,139.59 438.26,139.47 438.26,139.34C438.26,139.21 438.26,139.09 438.26,138.96C438.26,138.83 438.27,138.71 438.27,138.58C438.27,138.46 438.28,138.33 438.28,138.21C438.28,138.08 438.28,137.96 438.28,137.83C438.28,137.7 438.27,137.58 438.27,137.45C438.27,137.32 438.26,137.2 438.26,137.07C438.25,136.94 438.25,136.82 438.24,136.69C438.24,136.56 438.23,136.44 438.23,136.31C438.23,136.19 438.23,136.06 438.23,135.94C438.23,135.81 438.22,135.69 438.21,135.56C438.2,135.43 438.19,135.31 438.18,135.18C438.16,135.05 438.14,134.93 438.12,134.8C438.1,134.67 438.07,134.55 438.04,134.42C438.01,134.29 437.97,134.17 437.93,134.04C437.89,133.91 437.85,133.79 437.81,133.66C437.77,133.54 437.73,133.41 437.7,133.29C437.67,133.16 437.64,133.04 437.61,132.91C437.58,132.78 437.56,132.66 437.54,132.53C437.52,132.4 437.51,132.28 437.49,132.15C437.48,132.02 437.46,131.9 437.45,131.77C437.44,131.64 437.42,131.52 437.41,131.39C437.4,131.27 437.39,131.14 437.38,131.02C437.37,130.89 437.35,130.77 437.34,130.64C437.32,130.51 437.31,130.39 437.29,130.26C437.28,130.13 437.26,130.01 437.25,129.88C437.23,129.75 437.21,129.63 437.2,129.5C437.19,129.37 437.18,129.25 437.17,129.12C437.16,129 437.15,128.87 437.14,128.75C437.13,128.62 437.13,128.5 437.12,128.37C437.11,128.24 437.11,128.12 437.1,127.99C437.09,127.86 437.09,127.74 437.08,127.61C437.07,127.48 437.06,127.36 437.05,127.23C437.04,127.1 437.04,126.98 437.03,126.85C437.02,126.72 437.02,126.6 437.01,126.47C437.01,126.35 437,126.22 437,126.1C437,125.97 437,125.85 437,125.72C437,125.59 437,125.47 437,125.34C437,125.21 437,125.09 437,124.96C437,124.83 437.01,124.71 437.01,124.58C437.01,124.45 437.01,124.33 437.01,124.2C437.01,124.08 437,123.95 437,123.83C437,123.7 436.99,123.58 436.99,123.45C436.99,123.32 436.98,123.2 436.98,123.07C436.97,122.94 436.97,122.82 436.96,122.69C436.96,122.56 436.95,122.44 436.95,122.31C436.94,122.18 436.93,122.06 436.93,121.93C436.93,121.81 436.93,121.68 436.93,121.56Q436.93,121.43 436.92,121.18L436.91,121.18Q436.91,121.43 436.91,121.56C436.91,121.68 436.9,121.81 436.9,121.93C436.9,122.06 436.89,122.18 436.89,122.31C436.88,122.44 436.88,122.56 436.87,122.69C436.87,122.82 436.86,122.94 436.86,123.07C436.85,123.2 436.85,123.32 436.84,123.45C436.84,123.58 436.83,123.7 436.83,123.83C436.83,123.95 436.82,124.08 436.82,124.2C436.82,124.33 436.82,124.45 436.82,124.58C436.82,124.71 436.83,124.83 436.83,124.96C436.83,125.09 436.84,125.21 436.84,125.34C436.84,125.47 436.84,125.59 436.84,125.72C436.84,125.85 436.83,125.97 436.83,126.1C436.83,126.22 436.82,126.35 436.82,126.47C436.81,126.6 436.81,126.72 436.8,126.85C436.79,126.98 436.79,127.1 436.78,127.23C436.77,127.36 436.77,127.48 436.76,127.61C436.75,127.74 436.75,127.86 436.74,127.99C436.73,128.12 436.73,128.24 436.72,128.37C436.71,128.5 436.7,128.62 436.69,128.75C436.68,128.87 436.67,129 436.66,129.12C436.65,129.25 436.64,129.37 436.63,129.5C436.62,129.63 436.6,129.75 436.59,129.88C436.57,130.01 436.56,130.13 436.54,130.26C436.53,130.39 436.51,130.51 436.5,130.64C436.49,130.77 436.47,130.89 436.46,131.02C436.45,131.14 436.43,131.27 436.42,131.39C436.41,131.52 436.4,131.64 436.39,131.77C436.38,131.9 436.36,132.02 436.35,132.15C436.33,132.28 436.32,132.4 436.3,132.53C436.28,132.66 436.26,132.78 436.23,132.91C436.2,133.04 436.17,133.16 436.13,133.29C436.1,133.41 436.06,133.54 436.02,133.66C435.98,133.79 435.94,133.91 435.9,134.04C435.86,134.17 435.83,134.29 435.8,134.42C435.77,134.55 435.74,134.67 435.71,134.8C435.69,134.93 435.67,135.05 435.65,135.18C435.64,135.31 435.63,135.43 435.62,135.56C435.61,135.69 435.61,135.81 435.61,135.94C435.61,136.06 435.6,136.19 435.6,136.31C435.6,136.44 435.59,136.56 435.59,136.69C435.59,136.82 435.58,136.94 435.58,137.07C435.57,137.2 435.56,137.32 435.56,137.45C435.56,137.58 435.56,137.7 435.56,137.83C435.56,137.96 435.56,138.08 435.56,138.21C435.56,138.33 435.56,138.46 435.56,138.58C435.56,138.71 435.57,138.83 435.57,138.96C435.57,139.09 435.57,139.21 435.57,139.34C435.57,139.47 435.58,139.59 435.58,139.72C435.58,139.85 435.58,139.97 435.58,140.1C435.58,140.23 435.59,140.35 435.6,140.48C435.61,140.6 435.61,140.73 435.62,140.85C435.63,140.98 435.64,141.1 435.64,141.23C435.64,141.36 435.64,141.48 435.64,141.61C435.64,141.74 435.62,141.86 435.61,141.99C435.59,142.12 435.57,142.24 435.55,142.37C435.53,142.5 435.5,142.62 435.47,142.75C435.44,142.88 435.41,143 435.38,143.13C435.35,143.25 435.32,143.38 435.3,143.5C435.27,143.63 435.25,143.75 435.23,143.88C435.21,144.01 435.19,144.13 435.18,144.26C435.17,144.39 435.17,144.51 435.16,144.64C435.16,144.77 435.15,144.89 435.15,145.02C435.15,145.15 435.15,145.27 435.16,145.4C435.16,145.52 435.18,145.65 435.18,145.77C435.19,145.9 435.19,146.02 435.19,146.15C435.19,146.28 435.2,146.4 435.2,146.53C435.2,146.66 435.19,146.78 435.19,146.91C435.19,147.04 435.18,147.16 435.18,147.29C435.18,147.42 435.19,147.54 435.19,147.67C435.19,147.79 435.19,147.92 435.2,148.04C435.21,148.17 435.22,148.29 435.23,148.42C435.24,148.55 435.25,148.67 435.26,148.8C435.27,148.93 435.28,149.05 435.28,149.18C435.28,149.31 435.28,149.43 435.28,149.56C435.28,149.69 435.27,149.81 435.26,149.94C435.26,150.07 435.25,150.19 435.25,150.32C435.25,150.44 435.24,150.57 435.24,150.69C435.24,150.82 435.25,150.94 435.26,151.07C435.27,151.2 435.28,151.32 435.29,151.45C435.3,151.58 435.33,151.7 435.34,151.83C435.35,151.96 435.36,152.08 435.36,152.21C435.36,152.34 435.37,152.46 435.36,152.59C435.35,152.71 435.34,152.84 435.32,152.96C435.3,153.09 435.26,153.21 435.23,153.34C435.19,153.47 435.15,153.59 435.11,153.72C435.07,153.85 435.01,153.97 434.97,154.1C434.93,154.23 434.9,154.35 434.86,154.48C434.83,154.61 434.79,154.73 434.76,154.86C434.73,154.98 434.72,155.11 434.7,155.23C434.68,155.36 434.67,155.48 434.65,155.61C434.64,155.74 434.63,155.86 434.61,155.99C434.59,156.12 434.57,156.24 434.55,156.37C434.52,156.5 434.49,156.62 434.46,156.75C434.42,156.88 434.38,157 434.34,157.13C434.3,157.26 434.25,157.38 434.2,157.51C434.16,157.63 434.11,157.76 434.07,157.88C434.03,158.01 433.99,158.13 433.96,158.26C433.93,158.39 433.91,158.51 433.9,158.64C433.89,158.77 433.88,158.89 433.88,159.02C433.88,159.15 433.88,159.27 433.88,159.4C433.88,159.53 433.87,159.65 433.86,159.78C433.85,159.9 433.83,160.03 433.8,160.15C433.77,160.28 433.74,160.4 433.7,160.53C433.66,160.66 433.6,160.78 433.55,160.91C433.49,161.04 433.43,161.16 433.37,161.29C433.31,161.42 433.24,161.54 433.17,161.67C433.1,161.8 433.02,161.93 432.93,162.05C432.84,162.18 432.74,162.3 432.63,162.42C432.52,162.55 432.4,162.68 432.28,162.8C432.15,162.93 432,163.05 431.86,163.18C431.71,163.31 431.55,163.43 431.4,163.56C431.24,163.69 431.09,163.81 430.93,163.94C430.77,164.07 430.61,164.19 430.46,164.32C430.31,164.45 430.16,164.58 430.01,164.7C429.85,164.83 429.69,164.95 429.52,165.07C429.34,165.2 429.15,165.33 428.95,165.45C428.73,165.58 428.5,165.71 428.26,165.83C428,165.96 427.73,166.09 427.44,166.21C427.13,166.34 426.8,166.47 426.47,166.59C426.12,166.72 425.76,166.85 425.4,166.97C425.02,167.1 424.63,167.22 424.25,167.34C423.86,167.47 423.47,167.59 423.08,167.72C422.69,167.85 422.29,167.97 421.9,168.1C421.51,168.23 421.13,168.35 420.74,168.48C420.35,168.61 419.97,168.73 419.58,168.86C419.19,168.99 418.8,169.12 418.4,169.24C417.99,169.37 417.58,169.49 417.16,169.61C416.73,169.74 416.3,169.87 415.86,169.99C415.41,170.12 414.94,170.24 414.48,170.37C414.01,170.5 413.54,170.62 413.07,170.75C412.6,170.88 412.13,171 411.66,171.13C411.2,171.26 410.74,171.38 410.29,171.51C409.86,171.63 409.44,171.76 409.03,171.89C408.65,172.01 408.27,172.13 407.92,172.26C407.61,172.38 407.29,172.5 407.04,172.64C406.83,172.76 406.61,172.87 406.49,173.02C406.4,173.13 406.32,173.28 406.33,173.4C406.34,173.53 406.47,173.67 406.6,173.78C406.76,173.93 407.02,174.04 407.28,174.16C407.58,174.3 407.95,174.41 408.32,174.53C408.73,174.66 409.18,174.79 409.63,174.91C410.12,175.04 410.63,175.17 411.15,175.29C411.7,175.42 412.26,175.55 412.84,175.67C413.45,175.8 414.07,175.93 414.71,176.05C415.37,176.18 416.05,176.31 416.74,176.43C417.45,176.56 418.18,176.68 418.92,176.8C419.68,176.93 420.45,177.05 421.22,177.18C422,177.31 422.79,177.43 423.56,177.56C424.33,177.69 425.09,177.81 425.84,177.94C426.56,178.06 427.28,178.19 427.96,178.32C428.61,178.44 429.24,178.57 429.84,178.7C430.4,178.82 430.94,178.94 431.44,179.07C431.9,179.19 432.34,179.32 432.75,179.45C433.12,179.57 433.48,179.7 433.8,179.83C434.09,179.95 434.36,180.08 434.61,180.21C434.83,180.33 435.04,180.46 435.22,180.59C435.39,180.71 435.54,180.84 435.67,180.97C435.79,181.09 435.9,181.22 436,181.35C436.09,181.47 436.16,181.59 436.23,181.72C436.3,181.84 436.35,181.97 436.4,182.1C436.45,182.23 436.49,182.35 436.53,182.48C436.56,182.61 436.58,182.73 436.61,182.86C436.63,182.99 436.66,183.11 436.68,183.24C436.7,183.37 436.71,183.49 436.72,183.62C436.73,183.74 436.75,183.87 436.76,183.99C436.77,184.12 436.77,184.24 436.78,184.37C436.79,184.5 436.79,184.62 436.8,184.75C436.8,184.88 436.81,185 436.81,185.13C436.81,185.26 436.82,185.38 436.82,185.51C436.82,185.64 436.83,185.76 436.83,185.89C436.83,186.01 436.84,186.14 436.84,186.26C436.84,186.39 436.85,186.51 436.85,186.64C436.86,186.77 436.86,186.89 436.87,187.02C436.87,187.15 436.88,187.27 436.88,187.4C436.88,187.53 436.89,187.65 436.89,187.78C436.89,187.91 436.9,188.03 436.9,188.16Q436.9,188.29 436.91,188.54Z" style="vector-effect: none; stroke-width: 0.5px; stroke: rgb(0, 0, 0); stroke-opacity: 1; fill: rgb(169, 169, 169); fill-opacity: 1;"/><path class="meanline" d="M453.1589050292969,168.5H420.68109497070316" style="fill: none; vector-effect: none; stroke-width: 0.5px; stroke-dasharray: 1px, 0.5px; stroke: rgb(0, 0, 0); stroke-opacity: 1;"/></g><g class="trace violins" style="opacity: 0.9;"><path class="violin" d="M561.75,241.9Q561.75,241.7 561.75,241.6C561.75,241.5 561.76,241.4 561.76,241.3C561.76,241.2 561.76,241.1 561.76,241C561.76,240.9 561.77,240.79 561.77,240.69C561.77,240.59 561.77,240.49 561.77,240.39C561.77,240.29 561.78,240.19 561.78,240.09C561.78,239.99 561.79,239.89 561.79,239.79C561.79,239.69 561.8,239.59 561.8,239.49C561.81,239.39 561.82,239.29 561.82,239.19C561.83,239.09 561.82,238.98 561.83,238.88C561.83,238.78 561.84,238.68 561.85,238.58C561.86,238.48 561.86,238.38 561.87,238.28C561.88,238.18 561.88,238.08 561.89,237.98C561.9,237.88 561.9,237.78 561.91,237.68C561.91,237.58 561.92,237.48 561.92,237.38C561.93,237.28 561.93,237.17 561.94,237.07C561.95,236.97 561.95,236.87 561.96,236.77C561.97,236.67 561.98,236.57 561.99,236.47C562,236.37 562.02,236.27 562.03,236.17C562.05,236.07 562.06,235.97 562.08,235.87C562.1,235.77 562.12,235.67 562.15,235.57C562.18,235.47 562.21,235.36 562.24,235.26C562.27,235.16 562.31,235.06 562.35,234.96C562.39,234.86 562.44,234.76 562.48,234.66C562.53,234.56 562.57,234.46 562.62,234.36C562.67,234.26 562.71,234.16 562.76,234.06C562.81,233.96 562.87,233.86 562.92,233.76C562.98,233.66 563.03,233.55 563.09,233.45C563.15,233.35 563.21,233.25 563.27,233.15C563.33,233.05 563.4,232.95 563.47,232.85C563.54,232.75 563.61,232.65 563.68,232.55C563.75,232.45 563.83,232.35 563.9,232.25C563.98,232.15 564.05,232.05 564.13,231.95C564.21,231.85 564.29,231.74 564.37,231.64C564.45,231.54 564.53,231.44 564.62,231.34C564.71,231.24 564.8,231.14 564.89,231.04C564.98,230.94 565.07,230.84 565.17,230.74C565.27,230.64 565.37,230.54 565.47,230.44C565.57,230.34 565.68,230.24 565.78,230.14C565.88,230.04 565.98,229.93 566.08,229.83C566.18,229.73 566.28,229.63 566.38,229.53C566.48,229.43 566.58,229.33 566.68,229.23C566.78,229.13 566.87,229.03 566.97,228.93C567.07,228.83 567.17,228.73 567.27,228.63C567.37,228.53 567.48,228.43 567.59,228.33C567.7,228.23 567.8,228.12 567.91,228.02C568.02,227.92 568.13,227.82 568.24,227.72C568.34,227.62 568.44,227.52 568.54,227.42C568.64,227.32 568.73,227.22 568.82,227.12C568.9,227.02 568.98,226.92 569.05,226.82C569.12,226.72 569.19,226.62 569.25,226.52C569.31,226.42 569.37,226.31 569.43,226.21C569.5,226.11 569.57,226.01 569.64,225.91C569.72,225.81 569.79,225.71 569.88,225.61C569.97,225.51 570.06,225.41 570.16,225.31C570.26,225.21 570.37,225.11 570.47,225.01C570.58,224.91 570.68,224.81 570.79,224.71C570.89,224.61 571,224.5 571.1,224.4C571.2,224.3 571.29,224.2 571.39,224.1C571.48,224 571.58,223.9 571.67,223.8C571.76,223.7 571.84,223.6 571.93,223.5C572.02,223.4 572.12,223.3 572.21,223.2C572.31,223.1 572.4,223 572.5,222.9C572.6,222.8 572.7,222.69 572.8,222.59C572.9,222.49 573.01,222.39 573.11,222.29C573.21,222.19 573.31,222.09 573.41,221.99C573.51,221.89 573.6,221.79 573.7,221.69C573.79,221.59 573.88,221.49 573.98,221.39C574.08,221.29 574.18,221.18 574.28,221.08C574.39,220.98 574.49,220.88 574.61,220.78C574.74,220.68 574.87,220.58 575.02,220.48C575.18,220.38 575.34,220.28 575.52,220.18C575.71,220.08 575.91,219.98 576.12,219.88C576.35,219.78 576.6,219.68 576.86,219.58C577.13,219.47 577.42,219.37 577.72,219.27C578.04,219.16 578.37,219.07 578.72,218.97C579.09,218.87 579.47,218.77 579.87,218.67C580.29,218.57 580.73,218.47 581.17,218.37C581.63,218.27 582.1,218.17 582.58,218.07C583.08,217.97 583.59,217.87 584.1,217.77C584.61,217.67 585.14,217.56 585.65,217.46C586.16,217.36 586.67,217.26 587.17,217.16C587.65,217.06 588.14,216.96 588.6,216.86C589.03,216.76 589.46,216.67 589.86,216.56C590.22,216.46 590.57,216.37 590.88,216.26C591.15,216.17 591.41,216.07 591.63,215.96C591.81,215.87 591.99,215.76 592.11,215.65C592.21,215.56 592.3,215.46 592.33,215.35C592.36,215.25 592.35,215.15 592.32,215.05C592.28,214.94 592.19,214.84 592.1,214.75C591.99,214.64 591.84,214.54 591.68,214.45C591.5,214.34 591.3,214.25 591.08,214.15C590.84,214.04 590.57,213.94 590.29,213.84C589.99,213.73 589.67,213.64 589.33,213.54C588.97,213.44 588.58,213.34 588.18,213.24C587.75,213.14 587.31,213.04 586.85,212.94C586.37,212.84 585.86,212.74 585.35,212.64C584.82,212.54 584.27,212.44 583.72,212.34C583.14,212.24 582.55,212.13 581.96,212.03C581.35,211.93 580.74,211.83 580.12,211.73C579.5,211.63 578.87,211.53 578.24,211.43C577.62,211.33 576.99,211.23 576.37,211.13C575.76,211.03 575.14,210.93 574.54,210.83C573.96,210.73 573.37,210.63 572.81,210.53C572.27,210.43 571.73,210.32 571.21,210.22C570.71,210.12 570.22,210.02 569.74,209.92C569.29,209.82 568.84,209.72 568.41,209.62C568,209.52 567.61,209.42 567.23,209.32C566.87,209.22 566.51,209.12 566.18,209.02C565.87,208.92 565.57,208.83 565.29,208.72C565.03,208.62 564.77,208.52 564.53,208.41C564.31,208.31 564.1,208.21 563.91,208.11C563.73,208.01 563.57,207.91 563.42,207.81C563.28,207.71 563.15,207.61 563.04,207.51C562.94,207.41 562.84,207.31 562.76,207.21C562.68,207.11 562.61,207.01 562.55,206.91C562.49,206.81 562.44,206.7 562.39,206.6C562.34,206.5 562.3,206.4 562.26,206.3C562.22,206.2 562.18,206.1 562.15,206C562.12,205.9 562.09,205.8 562.06,205.7C562.03,205.6 562,205.5 561.98,205.4C561.96,205.3 561.94,205.2 561.92,205.1C561.9,205 561.89,204.89 561.87,204.79C561.86,204.69 561.84,204.59 561.83,204.49C561.82,204.39 561.82,204.29 561.81,204.19C561.8,204.09 561.8,203.99 561.79,203.89C561.79,203.79 561.78,203.69 561.78,203.59C561.78,203.49 561.77,203.39 561.77,203.29C561.77,203.19 561.76,203.08 561.76,202.98C561.76,202.88 561.76,202.78 561.76,202.68Q561.76,202.58 561.75,202.38L561.75,202.38Q561.74,202.58 561.74,202.68C561.74,202.78 561.74,202.88 561.74,202.98C561.74,203.08 561.73,203.19 561.73,203.29C561.73,203.39 561.72,203.49 561.72,203.59C561.72,203.69 561.71,203.79 561.71,203.89C561.7,203.99 561.7,204.09 561.69,204.19C561.68,204.29 561.68,204.39 561.67,204.49C561.66,204.59 561.64,204.69 561.63,204.79C561.61,204.89 561.6,205 561.58,205.1C561.56,205.2 561.54,205.3 561.52,205.4C561.5,205.5 561.47,205.6 561.44,205.7C561.41,205.8 561.38,205.9 561.35,206C561.32,206.1 561.28,206.2 561.24,206.3C561.2,206.4 561.16,206.5 561.11,206.6C561.06,206.7 561.01,206.81 560.95,206.91C560.89,207.01 560.82,207.11 560.74,207.21C560.66,207.31 560.56,207.41 560.46,207.51C560.35,207.61 560.22,207.71 560.08,207.81C559.93,207.91 559.77,208.01 559.59,208.11C559.4,208.21 559.19,208.31 558.97,208.41C558.73,208.52 558.47,208.62 558.21,208.72C557.93,208.83 557.63,208.92 557.32,209.02C556.99,209.12 556.63,209.22 556.27,209.32C555.89,209.42 555.5,209.52 555.09,209.62C554.66,209.72 554.21,209.82 553.76,209.92C553.28,210.02 552.79,210.12 552.29,210.22C551.77,210.32 551.23,210.43 550.69,210.53C550.13,210.63 549.54,210.73 548.96,210.83C548.36,210.93 547.74,211.03 547.13,211.13C546.51,211.23 545.88,211.33 545.26,211.43C544.63,211.53 544,211.63 543.38,211.73C542.76,211.83 542.15,211.93 541.54,212.03C540.95,212.13 540.36,212.24 539.78,212.34C539.23,212.44 538.68,212.54 538.15,212.64C537.64,212.74 537.13,212.84 536.65,212.94C536.19,213.04 535.75,213.14 535.32,213.24C534.92,213.34 534.53,213.44 534.17,213.54C533.83,213.64 533.51,213.73 533.21,213.84C532.93,213.94 532.66,214.04 532.42,214.15C532.2,214.25 532,214.34 531.82,214.45C531.66,214.54 531.51,214.64 531.4,214.75C531.31,214.84 531.22,214.94 531.18,215.05C531.15,215.15 531.14,215.25 531.17,215.35C531.2,215.46 531.29,215.56 531.39,215.65C531.51,215.76 531.69,215.87 531.87,215.96C532.09,216.07 532.35,216.17 532.62,216.26C532.93,216.37 533.28,216.46 533.64,216.56C534.04,216.67 534.47,216.76 534.9,216.86C535.36,216.96 535.85,217.06 536.33,217.16C536.83,217.26 537.34,217.36 537.85,217.46C538.36,217.56 538.89,217.67 539.4,217.77C539.91,217.87 540.42,217.97 540.92,218.07C541.4,218.17 541.87,218.27 542.33,218.37C542.77,218.47 543.21,218.57 543.63,218.67C544.03,218.77 544.41,218.87 544.78,218.97C545.13,219.07 545.46,219.16 545.78,219.27C546.08,219.37 546.37,219.47 546.64,219.58C546.9,219.68 547.15,219.78 547.38,219.88C547.59,219.98 547.79,220.08 547.98,220.18C548.16,220.28 548.32,220.38 548.48,220.48C548.63,220.58 548.76,220.68 548.89,220.78C549.01,220.88 549.11,220.98 549.22,221.08C549.32,221.18 549.42,221.29 549.52,221.39C549.62,221.49 549.71,221.59 549.8,221.69C549.9,221.79 549.99,221.89 550.09,221.99C550.19,222.09 550.29,222.19 550.39,222.29C550.49,222.39 550.6,222.49 550.7,222.59C550.8,222.69 550.9,222.8 551,222.9C551.1,223 551.19,223.1 551.29,223.2C551.38,223.3 551.48,223.4 551.57,223.5C551.66,223.6 551.74,223.7 551.83,223.8C551.92,223.9 552.02,224 552.11,224.1C552.21,224.2 552.3,224.3 552.4,224.4C552.5,224.5 552.61,224.61 552.71,224.71C552.82,224.81 552.92,224.91 553.03,225.01C553.13,225.11 553.24,225.21 553.34,225.31C553.44,225.41 553.53,225.51 553.62,225.61C553.71,225.71 553.78,225.81 553.86,225.91C553.93,226.01 554,226.11 554.07,226.21C554.13,226.31 554.19,226.42 554.25,226.52C554.31,226.62 554.38,226.72 554.45,226.82C554.52,226.92 554.6,227.02 554.68,227.12C554.77,227.22 554.86,227.32 554.96,227.42C555.06,227.52 555.16,227.62 555.26,227.72C555.37,227.82 555.48,227.92 555.59,228.02C555.7,228.12 555.8,228.23 555.91,228.33C556.02,228.43 556.13,228.53 556.23,228.63C556.33,228.73 556.43,228.83 556.53,228.93C556.63,229.03 556.72,229.13 556.82,229.23C556.92,229.33 557.02,229.43 557.12,229.53C557.22,229.63 557.32,229.73 557.42,229.83C557.52,229.93 557.62,230.04 557.72,230.14C557.82,230.24 557.93,230.34 558.03,230.44C558.13,230.54 558.23,230.64 558.33,230.74C558.43,230.84 558.52,230.94 558.61,231.04C558.7,231.14 558.79,231.24 558.88,231.34C558.97,231.44 559.05,231.54 559.13,231.64C559.21,231.74 559.29,231.85 559.37,231.95C559.45,232.05 559.52,232.15 559.6,232.25C559.67,232.35 559.75,232.45 559.82,232.55C559.89,232.65 559.96,232.75 560.03,232.85C560.1,232.95 560.17,233.05 560.23,233.15C560.29,233.25 560.35,233.35 560.41,233.45C560.47,233.55 560.52,233.66 560.58,233.76C560.63,233.86 560.69,233.96 560.74,234.06C560.79,234.16 560.83,234.26 560.88,234.36C560.93,234.46 560.97,234.56 561.02,234.66C561.06,234.76 561.11,234.86 561.15,234.96C561.19,235.06 561.23,235.16 561.26,235.26C561.29,235.36 561.32,235.47 561.35,235.57C561.38,235.67 561.4,235.77 561.42,235.87C561.44,235.97 561.45,236.07 561.47,236.17C561.48,236.27 561.5,236.37 561.51,236.47C561.52,236.57 561.53,236.67 561.54,236.77C561.55,236.87 561.55,236.97 561.56,237.07C561.57,237.17 561.57,237.28 561.58,237.38C561.58,237.48 561.59,237.58 561.59,237.68C561.6,237.78 561.6,237.88 561.61,237.98C561.62,238.08 561.62,238.18 561.63,238.28C561.64,238.38 561.64,238.48 561.65,238.58C561.66,238.68 561.67,238.78 561.67,238.88C561.68,238.98 561.67,239.09 561.68,239.19C561.68,239.29 561.69,239.39 561.7,239.49C561.7,239.59 561.71,239.69 561.71,239.79C561.71,239.89 561.72,239.99 561.72,240.09C561.72,240.19 561.73,240.29 561.73,240.39C561.73,240.49 561.73,240.59 561.73,240.69C561.73,240.79 561.74,240.9 561.74,241C561.74,241.1 561.74,241.2 561.74,241.3C561.74,241.4 561.75,241.5 561.75,241.6Q561.75,241.7 561.75,241.9Z" style="vector-effect: none; stroke-width: 0.5px; stroke: rgb(0, 0, 0); stroke-opacity: 1; fill: rgb(34, 139, 34); fill-opacity: 1;"/><path class="meanline" d="M583.5888671875,217.87H539.9111328125" style="fill: none; vector-effect: none; stroke-width: 0.5px; stroke-dasharray: 1px, 0.5px; stroke: rgb(0, 0, 0); stroke-opacity: 1;"/></g><g class="trace violins" style="opacity: 0.9;"><path class="violin" d="M686.58,242.4Q686.59,242.31 686.59,242.26C686.59,242.22 686.59,242.17 686.59,242.13C686.59,242.08 686.59,242.04 686.59,241.99C686.59,241.95 686.59,241.9 686.59,241.86C686.59,241.81 686.59,241.77 686.59,241.72C686.59,241.67 686.59,241.63 686.59,241.58C686.59,241.54 686.59,241.49 686.59,241.45C686.59,241.4 686.59,241.36 686.59,241.31C686.59,241.27 686.59,241.22 686.59,241.18C686.59,241.13 686.59,241.09 686.59,241.04C686.59,241 686.59,240.95 686.59,240.91C686.59,240.86 686.59,240.82 686.59,240.77C686.59,240.72 686.59,240.68 686.59,240.63C686.59,240.59 686.59,240.54 686.59,240.5C686.59,240.45 686.59,240.41 686.59,240.36C686.59,240.32 686.59,240.27 686.59,240.23C686.59,240.18 686.59,240.14 686.59,240.09C686.59,240.05 686.59,240 686.59,239.96C686.59,239.91 686.6,239.87 686.6,239.82C686.6,239.77 686.61,239.73 686.61,239.68C686.61,239.64 686.62,239.59 686.62,239.55C686.62,239.5 686.63,239.46 686.63,239.41C686.63,239.37 686.64,239.32 686.64,239.28C686.64,239.23 686.65,239.19 686.65,239.14C686.65,239.1 686.66,239.05 686.66,239.01C686.66,238.96 686.67,238.92 686.67,238.87C686.67,238.83 686.67,238.78 686.67,238.74C686.67,238.69 686.68,238.65 686.68,238.6C686.68,238.55 686.68,238.51 686.68,238.46C686.68,238.42 686.69,238.37 686.69,238.33C686.69,238.28 686.69,238.24 686.69,238.19C686.69,238.15 686.7,238.1 686.7,238.06C686.7,238.01 686.7,237.97 686.7,237.92C686.7,237.88 686.71,237.83 686.71,237.79C686.71,237.74 686.71,237.7 686.71,237.65C686.71,237.6 686.71,237.56 686.71,237.51C686.71,237.47 686.71,237.42 686.71,237.38C686.71,237.33 686.71,237.29 686.71,237.24C686.71,237.2 686.7,237.15 686.7,237.11C686.7,237.06 686.71,237.02 686.71,236.97C686.71,236.93 686.71,236.88 686.71,236.84C686.71,236.79 686.72,236.75 686.73,236.7C686.74,236.66 686.74,236.61 686.75,236.57C686.76,236.52 686.76,236.48 686.77,236.43C686.78,236.38 686.79,236.34 686.8,236.29C686.81,236.25 686.82,236.2 686.83,236.16C686.84,236.11 686.85,236.07 686.86,236.02C686.87,235.98 686.88,235.93 686.89,235.89C686.9,235.84 686.9,235.8 686.91,235.75C686.92,235.71 686.92,235.66 686.93,235.62C686.94,235.57 686.94,235.53 686.95,235.48C686.95,235.43 686.95,235.39 686.96,235.34C686.96,235.3 686.97,235.25 686.98,235.21C686.99,235.16 686.99,235.12 687,235.07C687.01,235.03 687.03,234.98 687.04,234.94C687.05,234.89 687.06,234.85 687.08,234.8C687.09,234.76 687.11,234.71 687.13,234.67C687.15,234.62 687.16,234.58 687.18,234.53C687.2,234.48 687.22,234.44 687.24,234.39C687.26,234.35 687.29,234.3 687.31,234.26C687.33,234.21 687.35,234.17 687.37,234.12C687.39,234.08 687.42,234.03 687.44,233.99C687.46,233.94 687.48,233.9 687.5,233.85C687.52,233.81 687.55,233.76 687.57,233.72C687.59,233.67 687.62,233.63 687.64,233.58C687.66,233.54 687.69,233.49 687.71,233.45C687.73,233.4 687.76,233.36 687.78,233.31C687.8,233.26 687.82,233.22 687.85,233.17C687.87,233.13 687.9,233.08 687.93,233.04C687.96,232.99 687.99,232.95 688.03,232.9C688.06,232.86 688.1,232.81 688.14,232.77C688.18,232.72 688.23,232.68 688.27,232.63C688.31,232.59 688.35,232.54 688.4,232.5C688.45,232.45 688.5,232.41 688.55,232.36C688.6,232.31 688.64,232.26 688.69,232.22C688.74,232.17 688.8,232.13 688.85,232.09C688.9,232.04 688.95,231.99 689.01,231.95C689.07,231.9 689.13,231.86 689.2,231.82C689.27,231.77 689.34,231.72 689.41,231.68C689.48,231.63 689.56,231.59 689.64,231.55C689.73,231.5 689.82,231.45 689.91,231.41C690.01,231.36 690.11,231.32 690.21,231.28C690.32,231.23 690.43,231.19 690.54,231.14C690.66,231.09 690.78,231.04 690.91,231C691.04,230.95 691.18,230.91 691.32,230.87C691.46,230.82 691.61,230.77 691.76,230.73C691.91,230.68 692.07,230.64 692.22,230.6C692.38,230.55 692.53,230.5 692.69,230.46C692.85,230.41 693.02,230.38 693.18,230.33C693.34,230.29 693.5,230.24 693.66,230.19C693.82,230.14 693.99,230.1 694.16,230.05C694.33,230.01 694.49,229.96 694.66,229.92C694.83,229.87 695,229.82 695.17,229.78C695.34,229.73 695.52,229.69 695.7,229.65C695.89,229.6 696.08,229.55 696.28,229.51C696.49,229.46 696.69,229.42 696.91,229.38C697.14,229.33 697.37,229.29 697.61,229.24C697.86,229.19 698.11,229.14 698.37,229.1C698.64,229.05 698.92,229.01 699.2,228.97C699.48,228.92 699.77,228.87 700.06,228.83C700.35,228.78 700.65,228.74 700.95,228.7C701.25,228.65 701.54,228.61 701.84,228.56C702.13,228.52 702.43,228.48 702.72,228.43C703.01,228.39 703.29,228.34 703.58,228.29C703.86,228.25 704.14,228.21 704.42,228.16C704.69,228.12 704.95,228.07 705.22,228.02C705.48,227.97 705.75,227.93 706.01,227.88C706.27,227.84 706.53,227.79 706.79,227.75C707.05,227.7 707.31,227.66 707.57,227.61C707.83,227.57 708.09,227.52 708.35,227.48C708.62,227.43 708.89,227.39 709.16,227.34C709.43,227.3 709.7,227.25 709.97,227.21C710.24,227.16 710.52,227.12 710.79,227.07C711.06,227.02 711.33,226.98 711.59,226.93C711.85,226.89 712.1,226.85 712.35,226.8C712.59,226.76 712.82,226.71 713.05,226.66C713.26,226.62 713.47,226.58 713.67,226.53C713.86,226.49 714.03,226.44 714.21,226.39C714.38,226.35 714.55,226.31 714.71,226.26C714.87,226.22 715.02,226.17 715.17,226.12C715.32,226.07 715.47,226.03 715.62,225.98C715.77,225.94 715.92,225.9 716.07,225.85C716.21,225.81 716.35,225.76 716.48,225.71C716.6,225.67 716.73,225.63 716.83,225.58C716.92,225.54 717.01,225.49 717.07,225.44C717.12,225.4 717.17,225.36 717.17,225.31C717.17,225.27 717.14,225.21 717.1,225.17C717.05,225.12 716.96,225.08 716.87,225.04C716.76,224.99 716.63,224.94 716.5,224.9C716.36,224.85 716.2,224.8 716.05,224.76C715.89,224.71 715.73,224.68 715.57,224.63C715.41,224.59 715.25,224.54 715.1,224.49C714.95,224.45 714.81,224.41 714.67,224.36C714.53,224.32 714.4,224.27 714.27,224.22C714.14,224.18 714.01,224.13 713.87,224.09C713.73,224.04 713.58,224 713.43,223.95C713.27,223.9 713.1,223.85 712.93,223.81C712.74,223.76 712.55,223.72 712.35,223.68C712.14,223.63 711.92,223.58 711.69,223.54C711.45,223.49 711.2,223.45 710.95,223.41C710.69,223.36 710.42,223.31 710.14,223.27C709.86,223.22 709.56,223.18 709.27,223.14C708.97,223.09 708.66,223.04 708.36,223C708.05,222.95 707.75,222.91 707.44,222.87C707.13,222.82 706.82,222.78 706.51,222.73C706.2,222.68 705.89,222.64 705.58,222.59C705.28,222.55 704.97,222.5 704.67,222.46C704.37,222.41 704.06,222.37 703.76,222.32C703.46,222.28 703.16,222.23 702.86,222.19C702.56,222.14 702.26,222.1 701.96,222.05C701.67,222.01 701.38,221.97 701.09,221.92C700.81,221.88 700.53,221.83 700.25,221.78C699.98,221.73 699.71,221.69 699.45,221.64C699.2,221.6 698.95,221.56 698.7,221.51C698.46,221.47 698.23,221.42 698,221.37C697.78,221.33 697.56,221.29 697.34,221.24C697.12,221.2 696.91,221.15 696.7,221.1C696.49,221.06 696.29,221.02 696.09,220.97C695.89,220.93 695.7,220.88 695.51,220.83C695.32,220.78 695.13,220.74 694.94,220.69C694.76,220.65 694.57,220.61 694.39,220.56C694.21,220.52 694.03,220.47 693.85,220.42C693.68,220.38 693.51,220.34 693.34,220.29C693.17,220.25 693.01,220.2 692.85,220.15C692.69,220.11 692.53,220.07 692.38,220.02C692.23,219.98 692.08,219.93 691.94,219.88C691.8,219.84 691.67,219.8 691.53,219.75C691.4,219.71 691.26,219.66 691.13,219.61C691,219.56 690.88,219.52 690.76,219.47C690.64,219.43 690.53,219.39 690.42,219.34C690.31,219.3 690.21,219.25 690.11,219.2C690.02,219.16 689.93,219.12 689.84,219.07C689.76,219.03 689.68,218.98 689.61,218.93C689.54,218.89 689.47,218.85 689.41,218.8C689.35,218.76 689.3,218.71 689.24,218.66C689.18,218.61 689.13,218.57 689.07,218.52C689.02,218.48 688.97,218.43 688.91,218.39C688.85,218.34 688.79,218.3 688.73,218.25C688.67,218.21 688.62,218.16 688.56,218.12C688.5,218.07 688.44,218.03 688.38,217.98C688.32,217.94 688.27,217.9 688.22,217.85C688.17,217.81 688.12,217.76 688.07,217.71C688.02,217.67 687.97,217.63 687.93,217.58C687.89,217.54 687.85,217.49 687.81,217.44C687.77,217.39 687.73,217.35 687.69,217.3C687.65,217.26 687.61,217.21 687.57,217.17C687.53,217.12 687.49,217.08 687.46,217.03C687.43,216.99 687.4,216.94 687.37,216.9C687.34,216.85 687.31,216.81 687.28,216.76C687.25,216.72 687.22,216.68 687.2,216.63C687.18,216.59 687.16,216.54 687.14,216.49C687.12,216.44 687.11,216.4 687.1,216.35C687.09,216.31 687.08,216.26 687.07,216.22C687.06,216.17 687.06,216.13 687.05,216.08C687.04,216.04 687.04,215.99 687.03,215.95C687.02,215.9 687.02,215.86 687.01,215.81C687,215.77 686.99,215.72 686.98,215.68C686.97,215.63 686.96,215.59 686.95,215.54C686.94,215.49 686.93,215.45 686.92,215.4C686.91,215.36 686.9,215.31 686.89,215.27C686.88,215.22 686.87,215.18 686.86,215.13C686.85,215.09 686.84,215.04 686.83,215C686.82,214.95 686.81,214.91 686.8,214.86C686.79,214.82 686.79,214.77 686.78,214.73C686.77,214.68 686.77,214.64 686.76,214.59C686.75,214.55 686.74,214.5 686.74,214.46C686.73,214.41 686.73,214.37 686.73,214.32C686.72,214.27 686.72,214.23 686.71,214.18C686.71,214.14 686.7,214.09 686.7,214.05C686.7,214 686.7,213.96 686.69,213.91C686.69,213.87 686.67,213.82 686.67,213.78C686.66,213.73 686.66,213.69 686.66,213.64C686.66,213.6 686.65,213.55 686.65,213.51C686.65,213.46 686.64,213.42 686.64,213.37C686.64,213.32 686.64,213.28 686.64,213.23C686.64,213.19 686.64,213.14 686.64,213.1C686.64,213.05 686.64,213.01 686.64,212.96C686.64,212.92 686.64,212.87 686.64,212.83C686.64,212.78 686.64,212.74 686.64,212.69C686.64,212.65 686.63,212.6 686.63,212.56C686.63,212.51 686.63,212.47 686.63,212.42C686.63,212.38 686.62,212.33 686.62,212.29C686.62,212.24 686.61,212.2 686.61,212.15C686.61,212.1 686.6,212.06 686.6,212.01C686.6,211.97 686.6,211.92 686.6,211.88C686.6,211.83 686.59,211.79 686.59,211.74C686.59,211.7 686.59,211.65 686.59,211.61C686.59,211.56 686.59,211.52 686.59,211.47C686.59,211.43 686.59,211.38 686.59,211.34C686.59,211.29 686.58,211.25 686.58,211.2C686.58,211.15 686.58,211.11 686.58,211.06C686.58,211.02 686.58,210.97 686.58,210.93C686.58,210.88 686.58,210.84 686.58,210.79C686.58,210.75 686.58,210.7 686.58,210.66C686.58,210.61 686.58,210.57 686.58,210.52C686.58,210.48 686.59,210.43 686.59,210.39C686.59,210.34 686.59,210.3 686.59,210.25C686.59,210.2 686.59,210.16 686.59,210.11C686.59,210.07 686.59,210.02 686.59,209.98C686.59,209.93 686.59,209.89 686.59,209.84C686.59,209.8 686.59,209.75 686.59,209.71C686.59,209.66 686.59,209.62 686.59,209.57C686.59,209.53 686.59,209.48 686.59,209.44C686.59,209.39 686.59,209.35 686.59,209.3C686.59,209.26 686.59,209.21 686.59,209.17C686.59,209.12 686.59,209.08 686.59,209.03Q686.59,208.98 686.58,208.89L686.58,208.89Q686.58,208.98 686.58,209.03C686.58,209.08 686.58,209.12 686.58,209.17C686.58,209.21 686.58,209.26 686.58,209.3C686.58,209.35 686.58,209.39 686.58,209.44C686.58,209.48 686.57,209.53 686.57,209.57C686.57,209.62 686.57,209.66 686.57,209.71C686.57,209.75 686.57,209.8 686.57,209.84C686.57,209.89 686.58,209.93 686.58,209.98C686.58,210.02 686.58,210.07 686.58,210.11C686.58,210.16 686.58,210.2 686.58,210.25C686.58,210.3 686.58,210.34 686.58,210.39C686.58,210.43 686.58,210.48 686.58,210.52C686.58,210.57 686.58,210.61 686.58,210.66C686.58,210.7 686.58,210.75 686.58,210.79C686.58,210.84 686.58,210.88 686.58,210.93C686.58,210.97 686.58,211.02 686.58,211.06C686.58,211.11 686.58,211.15 686.58,211.2C686.58,211.25 686.58,211.29 686.58,211.34C686.58,211.38 686.58,211.43 686.58,211.47C686.58,211.52 686.58,211.56 686.58,211.61C686.58,211.65 686.57,211.7 686.57,211.74C686.57,211.79 686.57,211.83 686.57,211.88C686.57,211.92 686.56,211.97 686.56,212.01C686.56,212.06 686.56,212.1 686.56,212.15C686.56,212.2 686.55,212.24 686.55,212.29C686.55,212.33 686.54,212.38 686.54,212.42C686.54,212.47 686.53,212.51 686.53,212.56C686.53,212.6 686.53,212.65 686.53,212.69C686.53,212.74 686.53,212.78 686.53,212.83C686.53,212.87 686.53,212.92 686.53,212.96C686.53,213.01 686.53,213.05 686.53,213.1C686.53,213.14 686.53,213.19 686.53,213.23C686.53,213.28 686.52,213.32 686.52,213.37C686.52,213.42 686.52,213.46 686.52,213.51C686.52,213.55 686.51,213.6 686.51,213.64C686.5,213.69 686.5,213.73 686.49,213.78C686.49,213.82 686.48,213.87 686.48,213.91C686.48,213.96 686.48,214 686.47,214.05C686.47,214.09 686.45,214.14 686.45,214.18C686.44,214.23 686.44,214.27 686.44,214.32C686.43,214.37 686.43,214.41 686.42,214.46C686.42,214.5 686.41,214.55 686.41,214.59C686.4,214.64 686.4,214.68 686.39,214.73C686.38,214.77 686.37,214.82 686.36,214.86C686.35,214.91 686.35,214.95 686.34,215C686.33,215.04 686.32,215.09 686.31,215.13C686.3,215.18 686.28,215.22 686.27,215.27C686.26,215.31 686.25,215.36 686.24,215.4C686.23,215.45 686.22,215.49 686.21,215.54C686.2,215.59 686.2,215.63 686.19,215.68C686.18,215.72 686.17,215.77 686.16,215.81C686.15,215.86 686.15,215.9 686.14,215.95C686.13,215.99 686.13,216.04 686.12,216.08C686.11,216.13 686.11,216.17 686.1,216.22C686.09,216.26 686.08,216.31 686.07,216.35C686.06,216.4 686.04,216.44 686.02,216.49C686,216.54 685.99,216.59 685.97,216.63C685.95,216.68 685.92,216.72 685.89,216.76C685.86,216.81 685.83,216.85 685.8,216.9C685.77,216.94 685.73,216.99 685.7,217.03C685.66,217.08 685.63,217.12 685.59,217.17C685.55,217.21 685.52,217.26 685.48,217.3C685.44,217.35 685.4,217.39 685.36,217.44C685.32,217.49 685.27,217.53 685.23,217.58C685.19,217.62 685.15,217.67 685.1,217.71C685.05,217.76 685,217.81 684.95,217.85C684.9,217.9 684.84,217.94 684.78,217.98C684.72,218.03 684.67,218.08 684.61,218.12C684.55,218.17 684.49,218.2 684.43,218.25C684.37,218.29 684.32,218.34 684.26,218.39C684.2,218.43 684.15,218.47 684.09,218.52C684.04,218.56 683.98,218.61 683.93,218.66C683.87,218.71 683.82,218.76 683.76,218.8C683.7,218.85 683.63,218.89 683.56,218.93C683.49,218.98 683.41,219.03 683.33,219.07C683.24,219.12 683.15,219.16 683.06,219.2C682.96,219.25 682.86,219.3 682.75,219.34C682.64,219.39 682.52,219.43 682.4,219.47C682.28,219.52 682.16,219.56 682.03,219.61C681.9,219.66 681.77,219.71 681.64,219.75C681.5,219.8 681.36,219.84 681.22,219.88C681.08,219.93 680.94,219.98 680.79,220.02C680.64,220.07 680.48,220.11 680.32,220.15C680.16,220.2 680,220.25 679.83,220.29C679.66,220.34 679.48,220.38 679.31,220.42C679.13,220.47 678.96,220.52 678.78,220.56C678.6,220.61 678.41,220.65 678.23,220.69C678.04,220.74 677.85,220.78 677.66,220.83C677.47,220.88 677.27,220.93 677.07,220.97C676.87,221.02 676.66,221.06 676.46,221.1C676.25,221.15 676.04,221.2 675.83,221.24C675.61,221.29 675.39,221.33 675.17,221.37C674.94,221.42 674.7,221.47 674.46,221.51C674.21,221.56 673.96,221.6 673.71,221.64C673.45,221.69 673.19,221.73 672.92,221.78C672.64,221.83 672.36,221.88 672.08,221.92C671.79,221.97 671.49,222.01 671.2,222.05C670.9,222.1 670.61,222.15 670.31,222.19C670.01,222.24 669.71,222.28 669.41,222.32C669.11,222.37 668.8,222.42 668.5,222.46C668.19,222.51 667.89,222.55 667.58,222.59C667.27,222.64 666.97,222.68 666.66,222.73C666.35,222.78 666.04,222.82 665.73,222.87C665.42,222.91 665.11,222.95 664.8,223C664.5,223.04 664.2,223.09 663.9,223.14C663.61,223.18 663.31,223.22 663.03,223.27C662.75,223.31 662.48,223.36 662.22,223.41C661.97,223.45 661.72,223.49 661.48,223.54C661.25,223.58 661.03,223.63 660.82,223.68C660.62,223.72 660.43,223.76 660.24,223.81C660.06,223.85 659.89,223.9 659.73,223.95C659.58,224 659.43,224.04 659.29,224.09C659.15,224.13 659.02,224.18 658.89,224.22C658.76,224.27 658.63,224.32 658.49,224.36C658.35,224.41 658.21,224.45 658.07,224.49C657.92,224.54 657.76,224.59 657.6,224.63C657.44,224.68 657.28,224.71 657.12,224.76C656.96,224.8 656.8,224.85 656.66,224.9C656.53,224.94 656.41,224.99 656.3,225.04C656.21,225.08 656.12,225.12 656.07,225.17C656.03,225.21 656,225.27 656,225.31C656,225.36 656.05,225.4 656.1,225.44C656.16,225.49 656.25,225.54 656.34,225.58C656.44,225.63 656.57,225.67 656.69,225.71C656.82,225.76 656.96,225.81 657.1,225.85C657.24,225.9 657.39,225.94 657.54,225.98C657.69,226.03 657.85,226.07 658,226.12C658.15,226.17 658.3,226.22 658.46,226.26C658.62,226.31 658.78,226.35 658.95,226.39C659.13,226.44 659.31,226.49 659.5,226.53C659.7,226.58 659.91,226.62 660.12,226.66C660.34,226.71 660.57,226.76 660.81,226.8C661.06,226.85 661.32,226.89 661.58,226.93C661.84,226.98 662.11,227.02 662.38,227.07C662.65,227.12 662.93,227.16 663.2,227.21C663.47,227.25 663.74,227.29 664.01,227.34C664.28,227.38 664.54,227.43 664.81,227.48C665.07,227.52 665.34,227.56 665.6,227.61C665.86,227.65 666.12,227.7 666.38,227.75C666.64,227.79 666.89,227.84 667.15,227.88C667.41,227.93 667.67,227.97 667.94,228.02C668.21,228.07 668.48,228.12 668.75,228.16C669.03,228.21 669.31,228.25 669.59,228.29C669.88,228.34 670.16,228.39 670.45,228.43C670.74,228.48 671.04,228.52 671.33,228.56C671.63,228.61 671.92,228.65 672.22,228.7C672.52,228.74 672.82,228.78 673.11,228.83C673.4,228.87 673.69,228.92 673.97,228.97C674.25,229.01 674.52,229.05 674.79,229.1C675.05,229.14 675.31,229.19 675.56,229.24C675.8,229.29 676.03,229.33 676.26,229.38C676.48,229.42 676.68,229.46 676.89,229.51C677.09,229.55 677.28,229.6 677.47,229.65C677.65,229.69 677.83,229.73 678,229.78C678.17,229.82 678.34,229.87 678.51,229.92C678.68,229.96 678.84,230 679.01,230.05C679.17,230.09 679.34,230.14 679.5,230.19C679.66,230.24 679.83,230.28 679.99,230.33C680.15,230.37 680.32,230.41 680.48,230.46C680.64,230.5 680.79,230.55 680.95,230.6C681.1,230.64 681.26,230.68 681.41,230.73C681.56,230.77 681.71,230.82 681.85,230.87C681.99,230.91 682.12,230.95 682.25,231C682.38,231.04 682.5,231.09 682.62,231.14C682.74,231.19 682.85,231.23 682.96,231.28C683.06,231.32 683.16,231.36 683.26,231.41C683.35,231.45 683.44,231.5 683.52,231.55C683.6,231.59 683.68,231.63 683.76,231.68C683.83,231.72 683.9,231.77 683.97,231.82C684.03,231.86 684.09,231.9 684.15,231.95C684.21,231.99 684.27,232.04 684.32,232.09C684.37,232.13 684.42,232.18 684.47,232.22C684.52,232.27 684.57,232.31 684.62,232.36C684.67,232.41 684.71,232.45 684.76,232.5C684.81,232.54 684.86,232.59 684.9,232.63C684.95,232.68 684.99,232.72 685.03,232.77C685.07,232.81 685.11,232.85 685.14,232.9C685.17,232.94 685.2,232.99 685.23,233.04C685.26,233.08 685.29,233.12 685.32,233.17C685.35,233.21 685.37,233.26 685.39,233.31C685.41,233.36 685.44,233.4 685.46,233.45C685.48,233.49 685.51,233.54 685.53,233.58C685.55,233.63 685.58,233.67 685.6,233.72C685.62,233.76 685.64,233.81 685.66,233.85C685.68,233.9 685.71,233.94 685.73,233.99C685.75,234.03 685.78,234.08 685.8,234.12C685.82,234.17 685.84,234.21 685.86,234.26C685.88,234.3 685.9,234.35 685.92,234.39C685.94,234.44 685.96,234.48 685.98,234.53C686,234.58 686.02,234.62 686.04,234.67C686.06,234.71 686.08,234.76 686.09,234.8C686.11,234.85 686.12,234.89 686.13,234.94C686.14,234.98 686.15,235.03 686.16,235.07C686.17,235.12 686.17,235.16 686.18,235.21C686.19,235.25 686.19,235.3 686.2,235.34C686.21,235.39 686.21,235.43 686.22,235.48C686.22,235.53 686.22,235.57 686.23,235.62C686.23,235.66 686.24,235.71 686.25,235.75C686.26,235.8 686.27,235.84 686.28,235.89C686.29,235.93 686.29,235.98 686.3,236.02C686.31,236.07 686.32,236.11 686.33,236.16C686.34,236.2 686.35,236.25 686.36,236.29C686.37,236.34 686.38,236.38 686.39,236.43C686.4,236.48 686.41,236.52 686.42,236.57C686.43,236.61 686.44,236.66 686.44,236.7C686.45,236.75 686.45,236.79 686.45,236.84C686.45,236.88 686.46,236.93 686.46,236.97C686.46,237.02 686.46,237.06 686.46,237.11C686.46,237.15 686.46,237.2 686.46,237.24C686.46,237.29 686.46,237.33 686.46,237.38C686.46,237.42 686.46,237.47 686.46,237.51C686.46,237.56 686.45,237.6 686.45,237.65C686.45,237.7 686.46,237.74 686.46,237.79C686.46,237.83 686.46,237.88 686.46,237.92C686.46,237.97 686.47,238.01 686.47,238.06C686.47,238.1 686.47,238.15 686.47,238.19C686.47,238.24 686.48,238.28 686.48,238.33C686.48,238.37 686.49,238.42 686.49,238.46C686.49,238.51 686.49,238.55 686.49,238.6C686.49,238.65 686.5,238.69 686.5,238.74C686.5,238.78 686.5,238.83 686.5,238.87C686.5,238.92 686.51,238.96 686.51,239.01C686.51,239.05 686.52,239.1 686.52,239.14C686.52,239.19 686.53,239.23 686.53,239.28C686.53,239.32 686.54,239.37 686.54,239.41C686.54,239.46 686.55,239.5 686.55,239.55C686.55,239.59 686.56,239.64 686.56,239.68C686.56,239.73 686.57,239.77 686.57,239.82C686.57,239.87 686.57,239.91 686.57,239.96C686.57,240 686.58,240.05 686.58,240.09C686.58,240.14 686.58,240.18 686.58,240.23C686.58,240.27 686.58,240.32 686.58,240.36C686.58,240.41 686.57,240.45 686.57,240.5C686.57,240.54 686.57,240.59 686.57,240.63C686.57,240.68 686.57,240.72 686.57,240.77C686.57,240.82 686.57,240.86 686.57,240.91C686.57,240.95 686.57,241 686.57,241.04C686.57,241.09 686.57,241.13 686.57,241.18C686.57,241.22 686.57,241.27 686.57,241.31C686.57,241.36 686.57,241.4 686.57,241.45C686.57,241.49 686.57,241.54 686.57,241.58C686.57,241.63 686.57,241.67 686.57,241.72C686.57,241.77 686.58,241.81 686.58,241.86C686.58,241.9 686.58,241.95 686.58,241.99C686.58,242.04 686.58,242.08 686.58,242.13C686.58,242.17 686.58,242.22 686.58,242.26Q686.58,242.31 686.58,242.4Z" style="vector-effect: none; stroke-width: 0.5px; stroke: rgb(0, 0, 0); stroke-opacity: 1; fill: rgb(0, 0, 128); fill-opacity: 1;"/><path class="meanline" d="M717.1692504882812,225.3H655.9907495117188" style="fill: none; vector-effect: none; stroke-width: 0.5px; stroke-dasharray: 1px, 0.5px; stroke: rgb(0, 0, 0); stroke-opacity: 1;"/></g></g></g><g class="overplot"/><path class="xlines-above crisp" d="M50.5,277.25H800" style="fill: none; stroke-width: 0.5px; stroke: rgb(255, 255, 255); stroke-opacity: 1;"/><path class="ylines-above crisp" d="M50.75,20V277" style="fill: none; stroke-width: 0.5px; stroke: rgb(0, 0, 0); stroke-opacity: 1;"/><g class="overlines-above"/><g class="xaxislayer-above"><path class="xtick ticks crisp" d="M0,277.5v5" transform="translate(113.42,0)" style="stroke: rgb(68, 68, 68); stroke-opacity: 1; stroke-width: 1px;"/><path class="xtick ticks crisp" d="M0,277.5v5" transform="translate(238.25,0)" style="stroke: rgb(68, 68, 68); stroke-opacity: 1; stroke-width: 1px;"/><path class="xtick ticks crisp" d="M0,277.5v5" transform="translate(363.08,0)" style="stroke: rgb(68, 68, 68); stroke-opacity: 1; stroke-width: 1px;"/><path class="xtick ticks crisp" d="M0,277.5v5" transform="translate(487.92,0)" style="stroke: rgb(68, 68, 68); stroke-opacity: 1; stroke-width: 1px;"/><path class="xtick ticks crisp" d="M0,277.5v5" transform="translate(612.75,0)" style="stroke: rgb(68, 68, 68); stroke-opacity: 1; stroke-width: 1px;"/><path class="xtick ticks crisp" d="M0,277.5v5" transform="translate(737.58,0)" style="stroke: rgb(68, 68, 68); stroke-opacity: 1; stroke-width: 1px;"/><g class="xtick"><text text-anchor="middle" x="0" y="296.9" transform="translate(113.42,0)" style="font-family: Helvetica; font-size: 12px; fill: rgb(0, 0, 0); fill-opacity: 1; white-space: pre; opacity: 1;">fiveUTR</text></g><g class="xtick"><text text-anchor="middle" x="0" y="296.9" transform="translate(238.25,0)" style="font-family: Helvetica; font-size: 12px; fill: rgb(0, 0, 0); fill-opacity: 1; white-space: pre; opacity: 1;">threeUTR</text></g><g class="xtick"><text text-anchor="middle" x="0" y="296.9" transform="translate(363.08,0)" style="font-family: Helvetica; font-size: 12px; fill: rgb(0, 0, 0); fill-opacity: 1; white-space: pre; opacity: 1;">CDS_frameshift</text></g><g class="xtick"><text text-anchor="middle" x="0" y="296.9" transform="translate(487.92,0)" style="font-family: Helvetica; font-size: 12px; fill: rgb(0, 0, 0); fill-opacity: 1; white-space: pre; opacity: 1;">lncRNA</text></g><g class="xtick"><text text-anchor="middle" x="0" y="296.9" transform="translate(612.75,0)" style="font-family: Helvetica; font-size: 12px; fill: rgb(0, 0, 0); fill-opacity: 1; white-space: pre; opacity: 1;">intronic</text></g><g class="xtick"><text text-anchor="middle" x="0" y="296.9" transform="translate(737.58,0)" style="font-family: Helvetica; font-size: 12px; fill: rgb(0, 0, 0); fill-opacity: 1; white-space: pre; opacity: 1;">intergenic</text></g></g><g class="yaxislayer-above"><path class="ytick ticks crisp" d="M50.5,0h-5" transform="translate(0,277)" style="stroke: rgb(68, 68, 68); stroke-opacity: 1; stroke-width: 1px;"/><path class="ytick ticks crisp" d="M50.5,0h-5" transform="translate(0,212.75)" style="stroke: rgb(68, 68, 68); stroke-opacity: 1; stroke-width: 1px;"/><path class="ytick ticks crisp" d="M50.5,0h-5" transform="translate(0,148.5)" style="stroke: rgb(68, 68, 68); stroke-opacity: 1; stroke-width: 1px;"/><path class="ytick ticks crisp" d="M50.5,0h-5" transform="translate(0,84.25)" style="stroke: rgb(68, 68, 68); stroke-opacity: 1; stroke-width: 1px;"/><path class="ytick ticks crisp" d="M50.5,0h-5" transform="translate(0,20)" style="stroke: rgb(68, 68, 68); stroke-opacity: 1; stroke-width: 1px;"/><g class="ytick"><text text-anchor="end" x="43.1" y="4.199999999999999" transform="translate(0,277)" style="font-family: Helvetica; font-size: 12px; fill: rgb(0, 0, 0); fill-opacity: 1; white-space: pre; opacity: 1;">2</text></g><g class="ytick"><text text-anchor="end" x="43.1" y="4.199999999999999" style="font-family: Helvetica; font-size: 12px; fill: rgb(0, 0, 0); fill-opacity: 1; white-space: pre; opacity: 1;" transform="translate(0,212.75)">0</text></g><g class="ytick"><text text-anchor="end" x="43.1" y="4.199999999999999" style="font-family: Helvetica; font-size: 12px; fill: rgb(0, 0, 0); fill-opacity: 1; white-space: pre; opacity: 1;" transform="translate(0,148.5)">2</text></g><g class="ytick"><text text-anchor="end" x="43.1" y="4.199999999999999" style="font-family: Helvetica; font-size: 12px; fill: rgb(0, 0, 0); fill-opacity: 1; white-space: pre; opacity: 1;" transform="translate(0,84.25)">4</text></g><g class="ytick"><text text-anchor="end" x="43.1" y="4.199999999999999" style="font-family: Helvetica; font-size: 12px; fill: rgb(0, 0, 0); fill-opacity: 1; white-space: pre; opacity: 1;" transform="translate(0,20)">6</text></g></g><g class="overaxes-above"/></g></g><g class="polarlayer"/><g class="smithlayer"/><g class="ternarylayer"/><g class="geolayer"/><g class="funnelarealayer"/><g class="pielayer"/><g class="iciclelayer"/><g class="treemaplayer"/><g class="sunburstlayer"/><g class="glimages"/><defs id="topdefs-72eda7"><g class="clips"/></defs><g class="layer-above"><g class="imagelayer"/><g class="shapelayer"><g class="shape-group" data-index="0" clip-path="url(#clip72eda7y)"><path data-index="0" fill-rule="evenodd" d="M51,212.75L800,212.75" style="opacity: 1; stroke: rgb(42, 63, 95); stroke-opacity: 1; fill: rgb(0, 0, 0); fill-opacity: 0; stroke-width: 0.5px;"/></g></g></g><g class="infolayer"><g class="g-gtitle"/><g class="g-xtitle"/><g class="g-ytitle" transform="translate(12.4560546875,0)"><text class="ytitle" transform="rotate(-90,0.5437500000000028,148.5)" x="0.5437500000000028" y="148.5" text-anchor="middle" style="font-family: Helvetica; font-size: 14px; fill: rgb(0, 0, 0); opacity: 1; font-weight: normal; white-space: pre;">impact on model</text></g></g></svg>