<svg class="main-svg" xmlns="http://www.w3.org/2000/svg" xmlns:xlink="http://www.w3.org/1999/xlink" width="300" height="300" style="" viewBox="0 0 300 300"><rect x="0" y="0" width="300" height="300" style="fill: rgb(255, 255, 255); fill-opacity: 1;"/><defs id="defs-284604"><g class="clips"><clipPath id="clip284604xyplot" class="plotclip"><rect width="268" height="257"/></clipPath><clipPath class="axesclip" id="clip284604x"><rect x="28" y="0" width="268" height="300"/></clipPath><clipPath class="axesclip" id="clip284604y"><rect x="0" y="20" width="300" height="257"/></clipPath><clipPath class="axesclip" id="clip284604xy"><rect x="28" y="20" width="268" height="257"/></clipPath></g><g class="gradients"/><g class="patterns"/></defs><g class="bglayer"><rect class="bg" x="28" y="20" width="268" height="257" style="fill: rgb(0, 0, 0); fill-opacity: 0; stroke-width: 0;"/></g><g class="layer-below"><g class="imagelayer"/><g class="shapelayer"/></g><g class="cartesianlayer"><g class="subplot xy"><g class="layer-subplot"><g class="shapelayer"/><g class="imagelayer"/></g><g class="minor-gridlayer"><g class="x"/><g class="y"/></g><g class="gridlayer"><g class="x"/><g class="y"/></g><g class="zerolinelayer"/><g class="layer-between"><g class="shapelayer"/><g class="imagelayer"/></g><path class="xlines-below"/><path class="ylines-below"/><g class="overlines-below"/><g class="xaxislayer-below"/><g class="yaxislayer-below"/><g class="overaxes-below"/><g class="plot" transform="translate(28,20)" clip-path="url(#clip284604xyplot)"><g class="scatterlayer mlayer"><g class="trace scatter traceaffcd5" style="stroke-miterlimit: 2; opacity: 1;"><g class="fills"/><g class="errorbars"/><g class="lines"><path class="js-line" d="M0,257L0.68,237.11L0.91,237.11L1.6,230.66L1.82,230.66L2.51,214.12L2.74,214.12L3.42,207.76L3.42,207.76L3.65,207.76L4.33,199.83L4.56,199.83L5.25,196.33L5.47,196.32L6.16,193.26L6.39,193.26L7.07,190.36L7.3,190.35L7.98,183.57L8.21,183.57L8.9,179.28L9.12,179.28L9.81,176.94L10.04,176.94L10.72,172.07L10.95,172.06L11.63,165.92L11.86,165.92L12.54,160.24L12.77,160.23L13.46,156.77L13.69,156.77L13.91,156.02L13.91,155.97L14.6,151.11L14.83,151.11L15.51,149.36L15.74,149.36L17.33,147.52L17.33,147.43L18.02,146.6L18.02,146.57L18.7,140.96L18.93,140.96L19.62,137.74L19.84,137.74L20.53,133.58L20.76,133.57L21.44,129.79L21.67,129.79L22.35,128.54L22.58,128.54L23.72,127.79L23.72,127.66L24.18,127.61L24.18,126.92L24.18,126.88L24.86,125.64L25.09,125.64L25.77,121.8L26,121.8L26.69,119.18L26.91,119.18L27.6,115.57L27.83,115.57L28.51,111.77L28.74,111.77L29.42,110.26L29.65,110.26L30.11,109.49L30.11,109.25L30.79,107.34L31.02,107.34L31.7,105.82L31.93,105.82L32.62,104.46L32.84,104.46L33.53,103.18L33.76,103.18L34.44,100.6L34.67,100.6L35.35,97.23L35.58,97.23L36.27,95.56L36.49,95.55L37.18,93.3L37.41,93.3L38.09,90.87L38.32,90.87L39,89.79L39,89.69L39.69,88.48L39.91,88.48L40.6,87L40.83,87L41.51,85.76L41.74,85.76L42.42,84.83L42.65,84.83L42.88,84.17L42.88,83.88L43.56,81.92L43.79,81.92L44.25,81.09L44.25,80.92L46.3,79.59L46.3,79.33L46.53,79.33L46.53,78.91L46.53,78.25L47.21,77.45L47.21,77.29L48.58,76.54L48.58,76.52L49.27,75.94L49.27,75.91L49.27,75.63L49.95,75.12L49.95,74.97L49.95,74.82L50.41,74.29L50.41,74.07L50.41,74.05L50.86,72.93L50.86,72.91L51.55,71.54L51.78,71.54L52.46,69.8L52.69,69.8L53.83,68.96L53.83,68.93L54.51,68.24L54.74,68.24L55.42,67.35L55.65,67.35L56.34,66.18L56.57,66.18L58.16,65.44L58.16,65.24L58.85,64.48L59.07,64.48L60.44,62.99L60.44,62.73L60.9,62.09L60.9,61.53L61.58,61.09L61.81,61.09L62.5,60.41L62.5,60.41L62.72,60.41L63.41,59.09L63.64,59.09L64.32,57.9L64.55,57.9L65.23,56.85L65.46,56.85L65.92,55.43L66.14,55.43L66.37,55.43L67.06,54.07L67.29,54.07L67.97,52.4L68.2,52.4L72.53,49.69L72.53,49.37L73.22,48.88L73.44,48.88L74.13,48.11L74.13,47.87L74.81,46.51L75.04,46.51L75.5,45.8L75.5,45.5L75.95,44.86L76.41,44.86L77.55,43.98L77.55,43.71L78.69,42.97L78.69,42.91L79.37,41.19L79.6,41.19L80.97,40.11L80.97,40.09L81.65,39.61L81.65,39.36L81.65,38.88L82.34,38.6L82.34,38.2L82.34,38L83.02,36.27L83.25,36.27L84.16,35.64L84.16,35.2L84.85,34.8L84.85,34.77L84.85,34.3L85.53,33.68L85.76,33.68L86.9,32.49L86.9,32.3L88.73,31.58L88.73,31.25L90.32,30.63L90.32,30.38L92.6,29.84L92.6,29.61L93.74,29.03L93.74,28.8L95.34,28.32L95.34,28.06L95.34,27.98L101.04,25.38L101.04,25.38L101.27,25.38L104.01,24.17L104.01,24.02L105.83,23.47L105.83,23.3L105.83,23.17L107.43,22.53L107.43,22.36L109.48,21.53L109.48,21.47L111.31,20.84L111.31,20.69L112.45,20.29L112.45,19.67L114.5,18.92L114.5,18.91L117.01,18.31L117.01,18.25L117.01,17.74L119.06,16.83L119.06,16.73L120.66,16.04L120.66,15.99L120.66,15.92L122.25,15.23L122.25,15.15L124.53,14.51L124.53,14.32L127.27,13.65L127.27,13.44L128.41,12.89L128.41,12.6L130.01,11.85L130.01,11.75L132.75,11.07L132.75,10.71L134.8,9.97L134.8,9.96L134.8,9.94L148.03,6.1L148.26,6.1L150.54,5.65L150.76,5.65L157.15,4.64L157.15,4.62L161.03,3.87L161.03,3.84L168.55,3.09L168.55,3.08L175.4,2.38L175.4,2.32L188.17,1.6L188.17,1.51L203.91,0.76L203.91,0.73L268,0" style="vector-effect: none; fill: none; stroke: rgb(236, 154, 86); stroke-opacity: 1; stroke-width: 2px; opacity: 1;"/></g><g class="points"/><g class="text"/></g><g class="trace scatter trace371572" style="stroke-miterlimit: 2; opacity: 1;"><g class="fills"/><g class="errorbars"/><g class="lines"><path class="js-line" d="M0,257L0.75,71.52L0.76,71.52L1.48,55.24L1.53,55.24L2.27,49.18L2.29,49.18L3.03,42.26L3.1,42.26L3.84,37.93L3.88,37.93L4.57,35.85L4.85,35.85L5.58,33.77L5.66,33.77L6.38,31.69L6.47,31.69L7.19,28.92L7.41,28.92L8.09,27.88L8.17,27.88L8.9,26.32L9.15,26.32L9.82,25.11L10.02,25.11L10.65,24.59L11.25,24.59L11.96,23.73L12.05,23.73L12.67,22.86L12.82,22.86L12.82,22.69L13.67,22.69L14.37,21.82L14.46,21.82L15.17,20.61L15.31,20.61L15.87,19.92L16.78,19.92L17.1,19.57L17.69,19.57L18.27,18.7L19.39,18.7L19.84,17.84L20.32,17.84L20.92,17.32L22.17,17.32L22.31,16.8L23.09,16.8L23.58,16.28L24.05,16.28L24.37,15.76L25.02,15.76L25.38,15.24L25.99,15.24L26.27,14.72L26.77,14.72L26.77,14.55L26.88,14.55L27.82,14.55L28.14,14.03L28.99,14.03L29.16,13.68L30.45,13.68L30.45,13.51L32.21,13.51L32.63,13.16L33.24,13.16L33.74,12.12L35.08,12.12L35.08,11.95L36.12,11.95L36.37,11.6L37.34,11.6L37.68,11.26L38.92,11.26L39.6,10.74L40.67,10.74L41.11,10.22L42.72,10.22L43.37,9.87L43.57,9.87L44.24,9.52L46.11,9.52L46.11,9.35L47.42,9.35L51.23,8.66L51.23,8.49L59.93,7.79L59.93,7.62L64.28,6.93L64.28,6.75L72.58,6.06L72.58,5.89L75.88,5.2L75.88,5.02L87.69,4.33L87.69,4.16L94.75,3.46L94.75,3.29L98.56,2.6L98.56,2.42L128.41,1.73L128.41,1.56L154.34,0.87L154.34,0.69L268,0" style="vector-effect: none; fill: none; stroke: rgb(186, 105, 190); stroke-opacity: 1; stroke-width: 2px; opacity: 1;"/></g><g class="points"/><g class="text"/></g><g class="trace scatter tracefb595f" style="stroke-miterlimit: 2; opacity: 1;"><g class="fills"/><g class="errorbars"/><g class="lines"><path class="js-line" d="M0,257L0.74,176.88L0.76,176.88L1.43,162.93L1.53,162.93L2.27,151.23L2.38,151.23L2.91,147.18L3.15,147.18L3.85,143.58L3.91,143.58L4.65,137.73L4.87,137.73L5.35,135.03L5.67,135.03L6.23,132.33L6.73,132.33L6.9,130.53L7.53,130.53L8.26,128.27L8.46,128.27L9.18,126.47L9.24,126.47L9.24,126.02L10.13,126.02L10.68,123.77L11.56,123.77L12.31,121.97L12.36,121.97L12.78,121.07L13.77,121.07L14.45,118.82L15.04,118.82L15.3,117.47L15.88,117.47L16.47,115.67L17.64,115.67L18.1,114.77L18.42,114.77L18.69,112.97L19.48,112.97L20.01,112.07L21.35,112.07L21.98,111.17L22.14,111.17L22.85,109.82L23.67,109.82L23.67,109.37L24.72,109.37L25.14,108.47L25.84,108.47L26.02,107.57L27.69,107.57L27.85,106.67L29.25,106.67L29.6,105.32L30.1,105.32L30.64,103.97L30.87,103.97L30.87,103.52L31.65,103.52L31.82,102.17L32.66,102.17L32.66,101.72L33.91,101.72L34.62,100.37L34.85,100.37L35.26,98.57L35.97,98.57L36.48,97.67L36.83,97.67L36.83,97.22L38.24,97.22L38.97,96.32L39.32,96.32L39.96,95.42L42.93,95.42L43.34,94.52L43.82,94.52L43.82,94.07L47.97,94.07L48.35,93.17L48.76,93.17L48.76,92.72L49.88,92.72L49.88,92.27L51.66,92.27L51.66,91.82L52.62,91.82L53.89,91.37L53.89,90.92L54.63,90.47L54.63,90.02L55.49,89.57L55.49,89.12L59.29,88.67L59.29,88.22L60.57,87.77L60.57,87.32L61.83,86.87L61.83,86.42L61.89,85.97L65.07,85.97L65.07,85.52L66.79,85.52L67.05,84.62L67.95,84.62L68.42,83.27L69.16,83.27L69.25,81.92L71.29,81.92L71.29,81.47L74.28,81.47L74.7,80.12L75.36,80.12L75.83,78.32L76.52,78.32L77.04,77.42L79.07,77.42L79.07,76.96L81.04,76.96L81.49,75.61L81.97,75.61L81.97,75.16L83.27,75.16L83.77,74.26L84.26,74.26L84.79,72.91L85.75,72.91L86.18,71.56L88.17,71.56L88.5,70.66L89.74,70.66L89.99,68.86L90.59,68.86L92.25,68.41L92.25,67.96L93.98,67.51L93.98,67.06L94.86,66.61L94.89,66.61L95,66.16L96.14,66.16L96.14,65.71L96.95,65.71L97.58,64.36L97.79,64.36L97.79,63.91L99.41,63.91L100.11,62.56L102.41,62.56L102.41,62.11L103.77,62.11L103.77,61.66L107.93,61.66L107.99,61.21L110.03,61.21L110.03,60.76L110.82,60.76L111.27,59.41L112.64,59.41L113.15,57.61L113.87,57.61L113.87,57.16L115.06,57.16L117.09,56.71L117.09,56.26L120.57,55.81L120.57,55.36L123.58,54.91L123.58,54.46L125.94,54.01L125.94,53.56L128.93,53.11L128.93,52.21L130.18,51.76L130.18,51.31L134.16,50.86L134.16,50.41L134.82,49.51L135.42,49.51L136.75,49.06L136.75,48.61L139.63,48.16L139.63,47.71L143.03,47.26L143.03,46.81L145.95,46.36L145.95,45.91L147.73,45.46L147.73,45.01L152.14,44.56L152.14,44.11L154.82,43.66L154.82,43.21L156.11,42.76L156.11,42.31L158.51,41.86L158.51,41.41L159.27,40.96L159.27,40.51L165.07,40.06L165.07,39.61L166.74,39.16L166.74,38.71L168.17,38.26L168.17,37.81L169.72,37.36L169.72,36.91L172.06,36.46L172.06,36.01L172.28,35.11L173.9,35.11L173.9,34.66L174.68,34.66L174.69,33.76L178.1,33.76L178.84,32.41L180.48,32.41L181.09,30.61L182.04,30.61L182.04,30.16L185.04,30.16L185.21,29.26L186.65,29.26L186.65,28.81L186.71,28.81L187.62,28.81L187.62,28.36L188.55,28.36L188.55,27.91L189.79,27.91L189.79,27.46L191.88,27.46L192.25,26.11L193.57,26.11L193.57,25.65L194.68,25.65L195.34,24.75L195.6,24.75L195.6,24.3L197.91,24.3L197.91,23.85L198.8,23.85L199.36,22.95L200.15,22.95L200.34,22.05L203.11,22.05L204.1,21.6L204.1,21.15L206.66,20.7L206.66,20.25L209.35,19.8L209.35,19.35L212.49,18.9L212.49,18.45L216.27,18L216.27,17.55L218.03,17.1L218.03,16.65L220.7,16.2L220.7,15.75L224.13,15.3L224.13,14.85L225.66,14.4L225.66,13.95L226.37,13.5L226.37,13.05L231.31,12.6L231.31,12.15L233.65,11.7L233.65,11.25L236.15,10.8L236.15,10.35L239.51,9.9L239.51,9.45L243.72,9L243.72,8.55L245.32,8.1L245.32,7.65L250.18,7.2L250.18,6.75L251.61,6.3L251.61,5.85L253.71,5.4L253.71,4.95L256.5,4.5L256.5,4.05L260.24,3.6L260.24,3.15L260.93,2.7L260.93,2.25L265.97,1.8L265.97,1.35L267.24,0.9L267.24,0.45L268,0" style="vector-effect: none; fill: none; stroke: rgb(155, 191, 229); stroke-opacity: 1; stroke-width: 2px; opacity: 1;"/></g><g class="points"/><g class="text"/></g><g class="trace scatter tracecb6aad" style="stroke-miterlimit: 2; opacity: 1;"><g class="fills"/><g class="errorbars"/><g class="lines"><path class="js-line" d="M0,257L268,0" style="vector-effect: none; fill: none; stroke: rgb(0, 0, 0); stroke-opacity: 1; stroke-dasharray: 9px, 9px; stroke-width: 2px; opacity: 1;"/></g><g class="points"/><g class="text"/></g></g></g><g class="overplot"/><path class="xlines-above crisp" d="M27.5,277.25H296" style="fill: none; stroke-width: 0.5px; stroke: rgb(0, 0, 0); stroke-opacity: 1;"/><path class="ylines-above crisp" d="M27.75,20V277" style="fill: none; stroke-width: 0.5px; stroke: rgb(0, 0, 0); stroke-opacity: 1;"/><g class="overlines-above"/><g class="xaxislayer-above"><path class="xtick ticks crisp" d="M0,277.5v5" transform="translate(28,0)" style="stroke: rgb(68, 68, 68); stroke-opacity: 1; stroke-width: 1px;"/><path class="xtick ticks crisp" d="M0,277.5v5" transform="translate(81.6,0)" style="stroke: rgb(68, 68, 68); stroke-opacity: 1; stroke-width: 1px;"/><path class="xtick ticks crisp" d="M0,277.5v5" transform="translate(135.2,0)" style="stroke: rgb(68, 68, 68); stroke-opacity: 1; stroke-width: 1px;"/><path class="xtick ticks crisp" d="M0,277.5v5" transform="translate(188.8,0)" style="stroke: rgb(68, 68, 68); stroke-opacity: 1; stroke-width: 1px;"/><path class="xtick ticks crisp" d="M0,277.5v5" transform="translate(242.4,0)" style="stroke: rgb(68, 68, 68); stroke-opacity: 1; stroke-width: 1px;"/><path class="xtick ticks crisp" d="M0,277.5v5" transform="translate(296,0)" style="stroke: rgb(68, 68, 68); stroke-opacity: 1; stroke-width: 1px;"/><g class="xtick"><text text-anchor="middle" x="0" y="296.9" transform="translate(28,0)" style="font-family: Helvetica; font-size: 12px; fill: rgb(0, 0, 0); fill-opacity: 1; white-space: pre; opacity: 1;">0</text></g><g class="xtick"><text text-anchor="middle" x="0" y="296.9" style="font-family: Helvetica; font-size: 12px; fill: rgb(0, 0, 0); fill-opacity: 1; white-space: pre; opacity: 1;" transform="translate(81.6,0)">0.2</text></g><g class="xtick"><text text-anchor="middle" x="0" y="296.9" style="font-family: Helvetica; font-size: 12px; fill: rgb(0, 0, 0); fill-opacity: 1; white-space: pre; opacity: 1;" transform="translate(135.2,0)">0.4</text></g><g class="xtick"><text text-anchor="middle" x="0" y="296.9" style="font-family: Helvetica; font-size: 12px; fill: rgb(0, 0, 0); fill-opacity: 1; white-space: pre; opacity: 1;" transform="translate(188.8,0)">0.6</text></g><g class="xtick"><text text-anchor="middle" x="0" y="296.9" style="font-family: Helvetica; font-size: 12px; fill: rgb(0, 0, 0); fill-opacity: 1; white-space: pre; opacity: 1;" transform="translate(242.4,0)">0.8</text></g><g class="xtick"><text text-anchor="middle" x="0" y="296.9" style="font-family: Helvetica; font-size: 12px; fill: rgb(0, 0, 0); fill-opacity: 1; white-space: pre; opacity: 1;" transform="translate(296,0)">1</text></g></g><g class="yaxislayer-above"><path class="ytick ticks crisp" d="M27.5,0h-5" transform="translate(0,277)" style="stroke: rgb(68, 68, 68); stroke-opacity: 1; stroke-width: 1px;"/><path class="ytick ticks crisp" d="M27.5,0h-5" transform="translate(0,225.6)" style="stroke: rgb(68, 68, 68); stroke-opacity: 1; stroke-width: 1px;"/><path class="ytick ticks crisp" d="M27.5,0h-5" transform="translate(0,174.2)" style="stroke: rgb(68, 68, 68); stroke-opacity: 1; stroke-width: 1px;"/><path class="ytick ticks crisp" d="M27.5,0h-5" transform="translate(0,122.8)" style="stroke: rgb(68, 68, 68); stroke-opacity: 1; stroke-width: 1px;"/><path class="ytick ticks crisp" d="M27.5,0h-5" transform="translate(0,71.4)" style="stroke: rgb(68, 68, 68); stroke-opacity: 1; stroke-width: 1px;"/><path class="ytick ticks crisp" d="M27.5,0h-5" transform="translate(0,20)" style="stroke: rgb(68, 68, 68); stroke-opacity: 1; stroke-width: 1px;"/><g class="ytick"><text text-anchor="end" x="20.1" y="4.199999999999999" transform="translate(0,277)" style="font-family: Helvetica; font-size: 12px; fill: rgb(0, 0, 0); fill-opacity: 1; white-space: pre; opacity: 1;">0</text></g><g class="ytick"><text text-anchor="end" x="20.1" y="4.199999999999999" style="font-family: Helvetica; font-size: 12px; fill: rgb(0, 0, 0); fill-opacity: 1; white-space: pre; opacity: 1;" transform="translate(0,225.6)">0.2</text></g><g class="ytick"><text text-anchor="end" x="20.1" y="4.199999999999999" style="font-family: Helvetica; font-size: 12px; fill: rgb(0, 0, 0); fill-opacity: 1; white-space: pre; opacity: 1;" transform="translate(0,174.2)">0.4</text></g><g class="ytick"><text text-anchor="end" x="20.1" y="4.199999999999999" style="font-family: Helvetica; font-size: 12px; fill: rgb(0, 0, 0); fill-opacity: 1; white-space: pre; opacity: 1;" transform="translate(0,122.8)">0.6</text></g><g class="ytick"><text text-anchor="end" x="20.1" y="4.199999999999999" style="font-family: Helvetica; font-size: 12px; fill: rgb(0, 0, 0); fill-opacity: 1; white-space: pre; opacity: 1;" transform="translate(0,71.4)">0.8</text></g><g class="ytick"><text text-anchor="end" x="20.1" y="4.199999999999999" style="font-family: Helvetica; font-size: 12px; fill: rgb(0, 0, 0); fill-opacity: 1; white-space: pre; opacity: 1;" transform="translate(0,20)">1</text></g></g><g class="overaxes-above"/></g></g><g class="polarlayer"/><g class="smithlayer"/><g class="ternarylayer"/><g class="geolayer"/><g class="funnelarealayer"/><g class="pielayer"/><g class="iciclelayer"/><g class="treemaplayer"/><g class="sunburstlayer"/><g class="glimages"/><defs id="topdefs-284604"><g class="clips"/></defs><g class="layer-above"><g class="imagelayer"/><g class="shapelayer"/></g><g class="infolayer"><g class="g-gtitle"/><g class="g-xtitle"/><g class="g-ytitle"/></g></svg>