<?xml version="1.0" encoding="utf-8" standalone="no"?>
<!DOCTYPE svg PUBLIC "-//W3C//DTD SVG 1.1//EN"
  "http://www.w3.org/Graphics/SVG/1.1/DTD/svg11.dtd">
<svg xmlns:xlink="http://www.w3.org/1999/xlink" width="360pt" height="360pt" viewBox="0 0 360 360" xmlns="http://www.w3.org/2000/svg" version="1.1">
 <metadata>
  <rdf:RDF xmlns:dc="http://purl.org/dc/elements/1.1/" xmlns:cc="http://creativecommons.org/ns#" xmlns:rdf="http://www.w3.org/1999/02/22-rdf-syntax-ns#">
   <cc:Work>
    <dc:type rdf:resource="http://purl.org/dc/dcmitype/StillImage"/>
    <dc:date>2024-12-04T10:36:09.188944</dc:date>
    <dc:format>image/svg+xml</dc:format>
    <dc:creator>
     <cc:Agent>
      <dc:title>Matplotlib v3.8.4, https://matplotlib.org/</dc:title>
     </cc:Agent>
    </dc:creator>
   </cc:Work>
  </rdf:RDF>
 </metadata>
 <defs>
  <style type="text/css">*{stroke-linejoin: round; stroke-linecap: butt}</style>
 </defs>
 <g id="figure_1">
  <g id="patch_1">
   <path d="M 0 360 
L 360 360 
L 360 0 
L 0 0 
z
" style="fill: #ffffff"/>
  </g>
  <g id="axes_1">
   <g id="patch_2">
    <path d="M 62.39 332.12 
L 349.2 332.12 
L 349.2 26.88 
L 62.39 26.88 
z
" style="fill: #ffffff"/>
   </g>
   <g id="line2d_1">
    <path d="M 62.39 179.5 
L 349.2 179.5 
" clip-path="url(#p17d3103fd5)" style="fill: none; stroke: #000000; stroke-width: 0.5; stroke-linecap: square"/>
   </g>
   <g id="patch_3">
    <path d="M 115.426698 178.500306 
Q 119.544996 178.500306 121.33177 178.456298 
Q 123.118545 178.411976 123.118545 178.310757 
Q 123.118545 178.210481 121.33177 178.167416 
Q 119.544996 178.124036 115.426698 178.124036 
L 109.913845 178.124036 
L 109.913845 178.500306 
L 115.426698 178.500306 
z
M 109.913845 178.761526 
L 109.913845 179.316659 
L 96.8072 179.316659 
L 96.8072 177.849928 
L 116.821254 177.849928 
Q 126.866413 177.849928 131.540354 177.947375 
Q 136.22519 178.044507 136.22519 178.254803 
Q 136.22519 178.40003 133.784717 178.493391 
Q 131.35514 178.586751 126.452405 178.631074 
Q 129.143461 178.648677 131.26798 178.711231 
Q 133.403393 178.773472 135.582387 178.900152 
L 142.6968 179.316659 
L 128.740348 179.316659 
L 122.541111 178.952334 
Q 120.667177 178.842313 118.738768 178.802077 
Q 116.821254 178.761526 113.618134 178.761526 
L 109.913845 178.761526 
z
" clip-path="url(#p17d3103fd5)" style="fill: #2e8b57; opacity: 0.5"/>
   </g>
   <g id="patch_4">
    <path d="M 96.8072 163.093826 
L 108.159974 163.093826 
L 119.766074 172.654923 
L 131.353409 163.093826 
L 142.6968 163.093826 
L 126.483913 176.047391 
L 113.020087 176.047391 
L 96.8072 163.093826 
z
" clip-path="url(#p17d3103fd5)" style="fill: #ffa500; opacity: 0.5"/>
   </g>
   <g id="patch_5">
    <path d="M 142.6968 156.285892 
Q 138.068759 157.375247 133.091043 157.922412 
Q 128.113328 158.464603 122.806507 158.464603 
Q 110.814738 158.464603 103.810969 155.221408 
Q 96.8072 151.978213 96.8072 146.431952 
Q 96.8072 140.821026 103.934384 137.602703 
Q 111.071852 134.384379 123.485287 134.384379 
Q 128.267596 134.384379 132.648808 134.822111 
Q 137.040305 135.254869 140.92786 136.110435 
L 140.92786 140.910562 
Q 136.916891 139.811259 132.94706 139.269068 
Q 128.977229 138.721903 124.986829 138.721903 
Q 117.602532 138.721903 113.601847 140.721542 
Q 109.601163 142.716206 109.601163 146.431952 
Q 109.601163 150.112879 113.457864 152.122466 
Q 117.314565 154.127079 124.410895 154.127079 
Q 126.344388 154.127079 128.000198 154.012671 
Q 129.656008 153.89329 130.972429 153.644579 
L 130.972429 149.137931 
L 123.413295 149.137931 
L 123.413295 145.123731 
L 142.6968 145.123731 
L 142.6968 156.285892 
z
" clip-path="url(#p17d3103fd5)" style="fill: #1e90ff"/>
   </g>
   <g id="patch_6">
    <path d="M 96.8072 82.692359 
L 141.741632 82.692359 
L 141.741632 91.131777 
L 113.460349 91.131777 
L 113.460349 99.181683 
L 140.066627 99.181683 
L 140.066627 107.6211 
L 113.460349 107.6211 
L 113.460349 117.535098 
L 142.6968 117.535098 
L 142.6968 125.965241 
L 96.8072 125.965241 
L 96.8072 82.692359 
z
" clip-path="url(#p17d3103fd5)" style="fill: #b22222"/>
   </g>
   <g id="patch_7">
    <path d="M 96.8072 3.487342 
L 142.6968 3.487342 
L 142.6968 16.28046 
L 126.187216 16.28046 
L 126.187216 69.083704 
L 113.3488 69.083704 
L 113.3488 16.28046 
L 96.8072 16.28046 
L 96.8072 3.487342 
z
" clip-path="url(#p17d3103fd5)" style="fill: #1e90ff"/>
   </g>
   <g id="patch_8">
    <path d="M 96.8072 -92.964565 
L 104.742219 -92.964565 
L 110.289163 -35.9538 
L 115.794813 -92.964565 
L 123.771125 -92.964565 
L 129.276776 -35.9538 
L 134.830601 -92.964565 
L 142.6968 -92.964565 
L 135.12653 -14.518021 
L 125.581108 -14.518021 
L 119.752 -74.151517 
L 113.991713 -14.518021 
L 104.439409 -14.518021 
L 96.8072 -92.964565 
z
" clip-path="url(#p17d3103fd5)" style="fill: #ffa500"/>
   </g>
   <g id="patch_9">
    <path d="M 154.1692 179.033908 
L 167.70619 179.033908 
L 177.096316 179.255622 
L 186.548336 179.033908 
L 200.0588 179.033908 
L 200.0588 179.448212 
L 190.005529 179.448212 
L 190.005529 179.145165 
L 180.500458 179.368566 
L 173.754068 179.368566 
L 164.248997 179.145165 
L 164.248997 179.448212 
L 154.1692 179.448212 
L 154.1692 179.033908 
z
" clip-path="url(#p17d3103fd5)" style="fill: #ffa500; opacity: 0.5"/>
   </g>
   <g id="patch_10">
    <path d="M 154.1692 172.401039 
L 168.909629 172.401039 
L 187.535472 176.412938 
L 187.535472 172.401039 
L 200.0588 172.401039 
L 200.0588 178.250889 
L 185.307395 178.250889 
L 166.681552 174.23899 
L 166.681552 178.250889 
L 154.1692 178.250889 
L 154.1692 172.401039 
z
" clip-path="url(#p17d3103fd5)" style="fill: #1e90ff; opacity: 0.5"/>
   </g>
   <g id="patch_11">
    <path d="M 200.0588 169.177785 
Q 196.220214 169.627965 192.069454 169.855673 
Q 187.918694 170.085998 183.39795 170.085998 
Q 169.916652 170.085998 162.042926 168.3795 
Q 154.1692 166.673003 154.1692 163.754683 
Q 154.1692 160.825893 162.042926 159.122013 
Q 169.916652 157.415516 183.39795 157.415516 
Q 187.918694 157.415516 192.069454 157.64584 
Q 196.220214 157.873548 200.0588 158.323728 
L 200.0588 160.849449 
Q 196.185528 160.252698 192.427876 159.975262 
Q 188.670225 159.697825 184.519465 159.697825 
Q 177.073533 159.697825 172.807153 160.778781 
Q 168.552335 161.85712 168.552335 163.754683 
Q 168.552335 165.644393 172.807153 166.725349 
Q 177.073533 167.803688 184.519465 167.803688 
Q 188.670225 167.803688 192.427876 167.526251 
Q 196.185528 167.246197 200.0588 166.649447 
L 200.0588 169.177785 
z
" clip-path="url(#p17d3103fd5)" style="fill: #1e90ff"/>
   </g>
   <g id="patch_12">
    <path d="M 185.956966 149.348163 
L 168.308564 149.348163 
L 165.521974 153.193278 
L 154.1692 153.193278 
L 170.382087 132.085861 
L 183.845913 132.085861 
L 200.0588 153.193278 
L 188.715409 153.193278 
L 185.956966 149.348163 
z
M 171.123301 145.43067 
L 183.114082 145.43067 
L 177.128074 137.034749 
L 171.123301 145.43067 
z
" clip-path="url(#p17d3103fd5)" style="fill: #ffa500"/>
   </g>
   <g id="patch_13">
    <path d="M 154.1692 82.332139 
L 200.0588 82.332139 
L 200.0588 90.499957 
L 183.549216 90.499957 
L 183.549216 124.212401 
L 170.7108 124.212401 
L 170.7108 90.499957 
L 154.1692 90.499957 
L 154.1692 82.332139 
z
" clip-path="url(#p17d3103fd5)" style="fill: #1e90ff"/>
   </g>
   <g id="patch_14">
    <path d="M 196.232589 23.025681 
L 196.232589 33.269456 
Q 191.44671 31.486127 186.88517 30.584094 
Q 182.336092 29.671693 178.285543 29.671693 
Q 172.913893 29.671693 170.334005 30.905508 
Q 167.76658 32.128955 167.76658 34.721003 
Q 167.76658 36.670224 169.498969 37.758884 
Q 171.231357 38.837176 175.792898 39.614791 
L 182.17407 40.682715 
Q 191.87046 42.310521 195.958398 45.617975 
Q 200.0588 48.91506 200.0588 55.011558 
Q 200.0588 63.005435 194.350642 66.914244 
Q 188.642485 70.823053 176.914588 70.823053 
Q 171.393379 70.823053 165.822317 69.941757 
Q 160.251255 69.070828 154.680192 67.349708 
L 154.680192 56.825992 
Q 160.251255 59.283254 165.44842 60.537805 
Q 170.645585 61.781988 175.481317 61.781988 
Q 180.391829 61.781988 182.996643 60.423755 
Q 185.601457 59.055153 185.601457 56.525314 
Q 185.601457 54.265048 183.831679 53.031233 
Q 182.061901 51.797418 176.76503 50.822808 
L 170.957166 49.754884 
Q 162.232908 48.199655 158.194822 44.798887 
Q 154.1692 41.39812 154.1692 35.633404 
Q 154.1692 28.406773 159.777652 24.518701 
Q 165.386104 20.630628 175.905067 20.630628 
Q 180.703409 20.630628 185.763479 21.231984 
Q 190.823549 21.833339 196.232589 23.025681 
z
" clip-path="url(#p17d3103fd5)" style="fill: #1e90ff"/>
   </g>
   <g id="patch_15">
    <path d="M 200.0588 -1.085363 
Q 195.430759 2.156612 190.453043 3.785 
Q 185.475328 5.398586 180.168507 5.398586 
Q 168.176738 5.398586 161.172969 -4.253319 
Q 154.1692 -13.905224 154.1692 -30.411167 
Q 154.1692 -47.109555 161.296384 -56.687442 
Q 168.433852 -66.265329 180.847287 -66.265329 
Q 185.629596 -66.265329 190.010808 -64.962618 
Q 194.402305 -63.674711 198.28986 -61.128503 
L 198.28986 -46.843091 
Q 194.278891 -50.114672 190.30906 -51.728258 
Q 186.339229 -53.356647 182.348829 -53.356647 
Q 174.964532 -53.356647 170.963847 -47.405625 
Q 166.963163 -41.469408 166.963163 -30.411167 
Q 166.963163 -19.45655 170.819864 -13.475922 
Q 174.676565 -7.510097 181.772895 -7.510097 
Q 183.706388 -7.510097 185.362198 -7.850578 
Q 187.018008 -8.205863 188.334429 -8.94604 
L 188.334429 -22.358043 
L 180.775295 -22.358043 
L 180.775295 -34.304496 
L 200.0588 -34.304496 
L 200.0588 -1.085363 
z
" clip-path="url(#p17d3103fd5)" style="fill: #1e90ff"/>
   </g>
   <g id="patch_16">
    <path d="M 211.5312 179.46236 
L 223.624341 179.46236 
L 223.624341 179.474572 
L 241.055352 179.46236 
L 255.098676 179.46236 
L 232.510739 179.478207 
L 257.4208 179.495818 
L 242.281756 179.495818 
L 223.624341 179.482638 
L 223.624341 179.495818 
L 211.5312 179.495818 
L 211.5312 179.46236 
z
" clip-path="url(#p17d3103fd5)" style="fill: #2e8b57; opacity: 0.5"/>
   </g>
   <g id="patch_17">
    <path d="M 257.4208 179.188614 
Q 253.582214 179.23731 249.431454 179.261941 
Q 245.280694 179.286856 240.75995 179.286856 
Q 227.278652 179.286856 219.404926 179.102262 
Q 211.5312 178.917669 211.5312 178.601991 
Q 211.5312 178.285181 219.404926 178.100871 
Q 227.278652 177.916277 240.75995 177.916277 
Q 245.280694 177.916277 249.431454 177.941192 
Q 253.582214 177.965823 257.4208 178.014519 
L 257.4208 178.287729 
Q 253.547528 178.223178 249.789876 178.193167 
Q 246.032225 178.163157 241.881465 178.163157 
Q 234.435533 178.163157 230.169153 178.280085 
Q 225.914335 178.39673 225.914335 178.601991 
Q 225.914335 178.806403 230.169153 178.923331 
Q 234.435533 179.039976 241.881465 179.039976 
Q 246.032225 179.039976 249.789876 179.009965 
Q 253.547528 178.979672 257.4208 178.915121 
L 257.4208 179.188614 
z
" clip-path="url(#p17d3103fd5)" style="fill: #1e90ff; opacity: 0.5"/>
   </g>
   <g id="patch_18">
    <path d="M 211.5312 175.08662 
L 226.271629 175.08662 
L 244.897472 176.70717 
L 244.897472 175.08662 
L 257.4208 175.08662 
L 257.4208 177.449584 
L 242.669395 177.449584 
L 224.043552 175.829034 
L 224.043552 177.449584 
L 211.5312 177.449584 
L 211.5312 175.08662 
z
" clip-path="url(#p17d3103fd5)" style="fill: #1e90ff; opacity: 0.5"/>
   </g>
   <g id="patch_19">
    <path d="M 253.594589 157.823916 
L 253.594589 161.03836 
Q 248.80871 160.47876 244.24717 160.195707 
Q 239.698092 159.9094 235.647543 159.9094 
Q 230.275893 159.9094 227.696005 160.296565 
Q 225.12858 160.680476 225.12858 161.493848 
Q 225.12858 162.105503 226.860969 162.447119 
Q 228.593357 162.785481 233.154898 163.029493 
L 239.53607 163.364602 
Q 249.23246 163.875399 253.320398 164.913261 
Q 257.4208 165.947869 257.4208 167.860918 
Q 257.4208 170.369356 251.712642 171.59592 
Q 246.004485 172.822484 234.276588 172.822484 
Q 228.755379 172.822484 223.184317 172.545937 
Q 217.613255 172.272645 212.042192 171.732566 
L 212.042192 168.430278 
Q 217.613255 169.201354 222.81042 169.595026 
Q 228.007585 169.985444 232.843317 169.985444 
Q 237.753829 169.985444 240.358643 169.559238 
Q 242.963457 169.129778 242.963457 168.335927 
Q 242.963457 167.626668 241.193679 167.239503 
Q 239.423901 166.852338 234.12703 166.54651 
L 228.319166 166.211401 
Q 219.594908 165.723379 215.556822 164.656235 
Q 211.5312 163.589092 211.5312 161.780154 
Q 211.5312 159.512475 217.139652 158.292418 
Q 222.748104 157.072361 233.267067 157.072361 
Q 238.065409 157.072361 243.125479 157.261063 
Q 248.185549 157.449765 253.594589 157.823916 
z
" clip-path="url(#p17d3103fd5)" style="fill: #1e90ff"/>
   </g>
   <g id="patch_20">
    <path d="M 243.318966 147.925504 
L 225.670564 147.925504 
L 222.883974 152.182527 
L 211.5312 152.182527 
L 227.744087 128.813974 
L 241.207913 128.813974 
L 257.4208 152.182527 
L 246.077409 152.182527 
L 243.318966 147.925504 
z
M 228.485301 143.588349 
L 240.476082 143.588349 
L 234.490074 134.293014 
L 228.485301 143.588349 
z
" clip-path="url(#p17d3103fd5)" style="fill: #ffa500"/>
   </g>
   <g id="patch_21">
    <path d="M 230.150698 109.900174 
Q 234.268996 109.900174 236.05577 109.196146 
Q 237.842545 108.48709 237.842545 106.867828 
Q 237.842545 105.263652 236.05577 104.574711 
Q 234.268996 103.880741 230.150698 103.880741 
L 224.637845 103.880741 
L 224.637845 109.900174 
L 230.150698 109.900174 
z
M 224.637845 114.079078 
L 224.637845 122.959878 
L 211.5312 122.959878 
L 211.5312 99.495658 
L 231.545254 99.495658 
Q 241.590413 99.495658 246.264354 101.054575 
Q 250.94919 102.608463 250.94919 105.972708 
Q 250.94919 108.295997 248.508717 109.789541 
Q 246.07914 111.283084 241.176405 111.99214 
Q 243.867461 112.273751 245.99198 113.274475 
Q 248.127393 114.270171 250.306387 116.296763 
L 257.4208 122.959878 
L 243.464348 122.959878 
L 237.265111 117.131539 
Q 235.391177 115.371471 233.462768 114.727789 
Q 231.545254 114.079078 228.342134 114.079078 
L 224.637845 114.079078 
z
" clip-path="url(#p17d3103fd5)" style="fill: #2e8b57"/>
   </g>
   <g id="patch_22">
    <path d="M 268.8932 179.343937 
L 282.43019 179.343937 
L 291.820316 179.418174 
L 301.272336 179.343937 
L 314.7828 179.343937 
L 314.7828 179.48266 
L 304.729529 179.48266 
L 304.729529 179.381189 
L 295.224458 179.455991 
L 288.478068 179.455991 
L 278.972997 179.381189 
L 278.972997 179.48266 
L 268.8932 179.48266 
L 268.8932 179.343937 
z
" clip-path="url(#p17d3103fd5)" style="fill: #ffa500; opacity: 0.5"/>
   </g>
   <g id="patch_23">
    <path d="M 310.956589 179.1644 
L 310.956589 179.195128 
Q 306.17071 179.189779 301.60917 179.187073 
Q 297.060092 179.184336 293.009543 179.184336 
Q 287.637893 179.184336 285.058005 179.188037 
Q 282.49058 179.191707 282.49058 179.199482 
Q 282.49058 179.205329 284.222969 179.208595 
Q 285.955357 179.211829 290.516898 179.214162 
L 296.89807 179.217365 
Q 306.59446 179.222248 310.682398 179.23217 
Q 314.7828 179.24206 314.7828 179.260347 
Q 314.7828 179.284326 309.074642 179.296051 
Q 303.366485 179.307777 291.638588 179.307777 
Q 286.117379 179.307777 280.546317 179.305133 
Q 274.975255 179.302521 269.404192 179.297358 
L 269.404192 179.26579 
Q 274.975255 179.273161 280.17242 179.276924 
Q 285.369585 179.280656 290.205317 179.280656 
Q 295.115829 179.280656 297.720643 179.276582 
Q 300.325457 179.272477 300.325457 179.264888 
Q 300.325457 179.258108 298.555679 179.254407 
Q 296.785901 179.250706 291.48903 179.247782 
L 285.681166 179.244579 
Q 276.956908 179.239914 272.918822 179.229713 
Q 268.8932 179.219511 268.8932 179.202219 
Q 268.8932 179.180542 274.501652 179.168879 
Q 280.110104 179.157216 290.629067 179.157216 
Q 295.427409 179.157216 300.487479 179.15902 
Q 305.547549 179.160824 310.956589 179.1644 
z
" clip-path="url(#p17d3103fd5)" style="fill: #1e90ff; opacity: 0.5"/>
   </g>
   <g id="patch_24">
    <path d="M 314.7828 178.74733 
Q 310.944214 178.817975 306.793454 178.853709 
Q 302.642694 178.889853 298.12195 178.889853 
Q 284.640652 178.889853 276.766926 178.622057 
Q 268.8932 178.354261 268.8932 177.896298 
Q 268.8932 177.436691 276.766926 177.169306 
Q 284.640652 176.90151 298.12195 176.90151 
Q 302.642694 176.90151 306.793454 176.937654 
Q 310.944214 176.973388 314.7828 177.044033 
L 314.7828 177.440388 
Q 310.909528 177.346741 307.151876 177.303204 
Q 303.394225 177.259666 299.243465 177.259666 
Q 291.797533 177.259666 287.531153 177.429298 
Q 283.276335 177.598518 283.276335 177.896298 
Q 283.276335 178.192844 287.531153 178.362476 
Q 291.797533 178.531696 299.243465 178.531696 
Q 303.394225 178.531696 307.151876 178.488159 
Q 310.909528 178.444211 314.7828 178.350565 
L 314.7828 178.74733 
z
" clip-path="url(#p17d3103fd5)" style="fill: #1e90ff"/>
   </g>
   <g id="patch_25">
    <path d="M 283.511426 171.424527 
L 300.164574 171.424527 
L 300.164574 176.072029 
L 283.511426 176.072029 
L 283.511426 171.424527 
z
" clip-path="url(#p17d3103fd5)" style="fill: #ffa500; opacity: 0.5"/>
   </g>
   <g id="patch_26">
    <path d="M 314.7828 169.350734 
Q 310.154759 169.664153 305.177043 169.821578 
Q 300.199328 169.977572 294.892507 169.977572 
Q 282.900738 169.977572 275.896969 169.04447 
Q 268.8932 168.111368 268.8932 166.51565 
Q 268.8932 164.901326 276.020384 163.97538 
Q 283.157852 163.049434 295.571287 163.049434 
Q 300.353596 163.049434 304.734808 163.175374 
Q 309.126305 163.299883 313.01386 163.546039 
L 313.01386 164.927087 
Q 309.002891 164.610805 305.03306 164.454811 
Q 301.063229 164.297386 297.072829 164.297386 
Q 289.688532 164.297386 285.687847 164.872704 
Q 281.687163 165.44659 281.687163 166.51565 
Q 281.687163 167.574692 285.543864 168.152871 
Q 289.400565 168.72962 296.496895 168.72962 
Q 298.430388 168.72962 300.086198 168.696704 
Q 301.742008 168.662356 303.058429 168.5908 
L 303.058429 167.294189 
L 295.499295 167.294189 
L 295.499295 166.139261 
L 314.7828 166.139261 
L 314.7828 169.350734 
z
" clip-path="url(#p17d3103fd5)" style="fill: #1e90ff"/>
   </g>
   <g id="patch_27">
    <path d="M 300.680966 159.235598 
L 283.032564 159.235598 
L 280.245974 160.983825 
L 268.8932 160.983825 
L 285.106087 151.38709 
L 298.569913 151.38709 
L 314.7828 160.983825 
L 303.439409 160.983825 
L 300.680966 159.235598 
z
M 285.847301 157.454464 
L 297.838082 157.454464 
L 291.852074 153.63716 
L 285.847301 157.454464 
z
" clip-path="url(#p17d3103fd5)" style="fill: #ffa500"/>
   </g>
   <g id="patch_28">
    <path d="M 268.8932 138.95488 
L 280.245974 138.95488 
L 291.852074 146.32453 
L 303.439409 138.95488 
L 314.7828 138.95488 
L 298.569913 148.93943 
L 285.106087 148.93943 
L 268.8932 138.95488 
z
" clip-path="url(#p17d3103fd5)" style="fill: #ffa500"/>
   </g>
   <g id="patch_29">
    <path d="M 268.8932 115.710381 
L 285.546349 115.710381 
L 285.546349 131.453694 
L 314.7828 131.453694 
L 314.7828 135.262763 
L 268.8932 135.262763 
L 268.8932 115.710381 
z
" clip-path="url(#p17d3103fd5)" style="fill: #ffa500"/>
   </g>
   <g id="patch_30">
    <path d="M 128.594966 258.583242 
L 110.946564 258.583242 
L 108.159974 261.016256 
L 96.8072 261.016256 
L 113.020087 247.660444 
L 126.483913 247.660444 
L 142.6968 261.016256 
L 131.353409 261.016256 
L 128.594966 258.583242 
z
M 113.761301 256.104431 
L 125.752082 256.104431 
L 119.766074 250.791875 
L 113.761301 256.104431 
z
" clip-path="url(#p17d3103fd5)" style="fill: #ffa500; opacity: 0.5"/>
   </g>
   <g id="patch_31">
    <path d="M 142.6968 184.540988 
Q 138.858214 184.711027 134.707454 184.797035 
Q 130.556694 184.884032 126.03595 184.884032 
Q 112.554652 184.884032 104.680926 184.239466 
Q 96.8072 183.594899 96.8072 182.492612 
Q 96.8072 181.38637 104.680926 180.742792 
Q 112.554652 180.098226 126.03595 180.098226 
Q 130.556694 180.098226 134.707454 180.185222 
Q 138.858214 180.271231 142.6968 180.44127 
L 142.6968 181.395267 
Q 138.823528 181.169867 135.065876 181.065075 
Q 131.308225 180.960284 127.157465 180.960284 
Q 119.711533 180.960284 115.445153 181.368575 
Q 111.190335 181.775878 111.190335 182.492612 
Q 111.190335 183.20638 115.445153 183.614671 
Q 119.711533 184.021974 127.157465 184.021974 
Q 131.308225 184.021974 135.065876 183.917182 
Q 138.823528 183.811402 142.6968 183.586002 
L 142.6968 184.540988 
z
" clip-path="url(#p17d3103fd5)" style="fill: #1e90ff; opacity: 0.5"/>
   </g>
   <g id="patch_32">
    <path d="M 109.382414 218.404669 
L 109.382414 225.757131 
L 113.887748 225.757131 
Q 121.591765 225.757131 125.658065 224.811925 
Q 129.734817 223.866719 129.734817 222.066696 
Q 129.734817 220.277003 125.678971 219.342128 
Q 121.633578 218.404669 113.887748 218.404669 
L 109.382414 218.404669 
z
M 96.8072 216.054568 
L 110.061873 216.054568 
Q 121.173637 216.054568 126.609307 216.447112 
Q 132.044977 216.837074 135.933572 217.774532 
Q 139.362225 218.590612 141.024286 219.657196 
Q 142.6968 220.721198 142.6968 222.066696 
Q 142.6968 223.432854 141.024286 224.502022 
Q 139.362225 225.571189 135.933572 226.384686 
Q 132.013617 227.322144 126.525681 227.714689 
Q 121.037745 228.10465 110.061873 228.10465 
L 96.8072 228.10465 
L 96.8072 216.054568 
z
" clip-path="url(#p17d3103fd5)" style="fill: #b22222; opacity: 0.5"/>
   </g>
   <g id="patch_33">
    <path d="M 97.284784 204.431966 
L 142.219216 204.431966 
L 142.219216 206.185715 
L 113.937933 206.185715 
L 113.937933 207.858523 
L 140.544211 207.858523 
L 140.544211 209.612273 
L 113.937933 209.612273 
L 113.937933 213.424269 
L 97.284784 213.424269 
L 97.284784 204.431966 
z
" clip-path="url(#p17d3103fd5)" style="fill: #ffa500; opacity: 0.5"/>
   </g>
   <g id="patch_34">
    <path d="M 96.8072 194.392388 
L 110.011024 194.392388 
L 110.011024 197.412216 
L 129.492976 197.412216 
L 129.492976 194.392388 
L 142.6968 194.392388 
L 142.6968 202.317312 
L 129.492976 202.317312 
L 129.492976 198.957797 
L 110.011024 198.957797 
L 110.011024 202.317312 
L 96.8072 202.317312 
L 96.8072 194.392388 
z
" clip-path="url(#p17d3103fd5)" style="fill: #2e8b57; opacity: 0.5"/>
   </g>
   <g id="patch_35">
    <path d="M 111.425426 307.960476 
L 128.078574 307.960476 
L 128.078574 325.999848 
L 111.425426 325.999848 
L 111.425426 307.960476 
z
" clip-path="url(#p17d3103fd5)" style="fill: #ffa500"/>
   </g>
   <g id="patch_36">
    <path d="M 96.8072 422.814478 
L 108.900341 422.814478 
L 108.900341 435.452837 
L 126.331352 422.814478 
L 140.374676 422.814478 
L 117.786739 439.215402 
L 142.6968 457.441949 
L 127.557756 457.441949 
L 108.900341 443.801724 
L 108.900341 457.441949 
L 96.8072 457.441949 
L 96.8072 422.814478 
z
" clip-path="url(#p17d3103fd5)" style="fill: #2e8b57"/>
   </g>
   <g id="patch_37">
    <path d="M 96.8072 386.726129 
L 113.460349 386.726129 
L 113.460349 409.457377 
L 142.6968 409.457377 
L 142.6968 414.957165 
L 96.8072 414.957165 
L 96.8072 386.726129 
z
" clip-path="url(#p17d3103fd5)" style="fill: #ffa500"/>
   </g>
   <g id="patch_38">
    <path d="M 96.8072 330.892817 
L 110.34419 330.892817 
L 119.734316 342.186777 
L 129.186336 330.892817 
L 142.6968 330.892817 
L 142.6968 351.997189 
L 132.643529 351.997189 
L 132.643529 336.56015 
L 123.138458 347.940048 
L 116.392068 347.940048 
L 106.886997 336.56015 
L 106.886997 351.997189 
L 96.8072 351.997189 
L 96.8072 330.892817 
z
" clip-path="url(#p17d3103fd5)" style="fill: #ffa500"/>
   </g>
   <g id="patch_39">
    <path d="M 96.8072 186.274209 
L 111.547629 186.274209 
L 130.173472 190.61925 
L 130.173472 186.274209 
L 142.6968 186.274209 
L 142.6968 192.609821 
L 127.945395 192.609821 
L 109.319552 188.264781 
L 109.319552 192.609821 
L 96.8072 192.609821 
L 96.8072 186.274209 
z
" clip-path="url(#p17d3103fd5)" style="fill: #1e90ff; opacity: 0.5"/>
   </g>
   <g id="patch_40">
    <path d="M 96.8072 357.491437 
L 120.660232 357.491437 
Q 131.308053 357.491437 136.996451 359.430667 
Q 142.6968 361.365 142.6968 364.944739 
Q 142.6968 368.544067 136.996451 370.4784 
Q 131.308053 372.412733 120.660232 372.412733 
L 111.183551 372.412733 
L 111.183551 380.341048 
L 96.8072 380.341048 
L 96.8072 357.491437 
z
M 111.183551 361.76166 
L 111.183551 368.14251 
L 119.130578 368.14251 
Q 123.313224 368.14251 125.595754 367.310012 
Q 127.878283 366.477514 127.878283 364.944739 
Q 127.878283 363.416861 125.595754 362.589261 
Q 123.313224 361.76166 119.130578 361.76166 
L 111.183551 361.76166 
z
" clip-path="url(#p17d3103fd5)" style="fill: #ff1493"/>
   </g>
   <g id="patch_41">
    <path d="M 120.975723 300.826408 
L 120.077051 300.826408 
Q 109.053987 300.826408 102.925813 298.834729 
Q 96.8072 296.839922 96.8072 293.284915 
Q 96.8072 289.736161 102.916253 287.725721 
Q 109.025306 285.712155 119.752 285.712155 
Q 130.593418 285.712155 136.645109 287.706961 
Q 142.6968 289.698641 142.6968 293.284915 
Q 142.6968 295.745593 139.484528 297.52466 
Q 136.272256 299.303727 130.239686 300.201077 
L 139.226399 303.484065 
L 128.260697 303.484065 
L 120.975723 300.826408 
z
M 119.752 288.438599 
Q 114.493817 288.438599 111.597036 289.708021 
Q 108.700255 290.977443 108.700255 293.284915 
Q 108.700255 295.629907 111.530113 296.877442 
Q 114.369532 298.121851 119.752 298.121851 
Q 125.038864 298.121851 127.935645 296.852429 
Q 130.832426 295.57988 130.832426 293.284915 
Q 130.832426 290.977443 127.935645 289.708021 
Q 125.038864 288.438599 119.752 288.438599 
z
" clip-path="url(#p17d3103fd5)" style="fill: #1e90ff"/>
   </g>
   <g id="patch_42">
    <path d="M 138.870589 265.560432 
L 138.870589 268.957296 
Q 134.08471 268.365939 129.52317 268.066822 
Q 124.974092 267.764268 120.923543 267.764268 
Q 115.551893 267.764268 112.972005 268.173404 
Q 110.40458 268.579103 110.40458 269.438633 
Q 110.40458 270.085 112.136969 270.446003 
Q 113.869357 270.803567 118.430898 271.061426 
L 124.81207 271.415553 
Q 134.50846 271.955338 138.596398 273.052099 
Q 142.6968 274.145422 142.6968 276.167037 
Q 142.6968 278.817829 136.988642 280.114001 
Q 131.280485 281.410173 119.552588 281.410173 
Q 114.031379 281.410173 108.460317 281.117932 
Q 102.889255 280.82913 97.318192 280.258402 
L 97.318192 276.768709 
Q 102.889255 277.583543 108.08642 277.999556 
Q 113.283585 278.412131 118.119317 278.412131 
Q 123.029829 278.412131 125.634643 277.961737 
Q 128.239457 277.507905 128.239457 276.669003 
Q 128.239457 275.919492 126.469679 275.510356 
Q 124.699901 275.101219 119.40303 274.778036 
L 113.595166 274.423909 
Q 104.870908 273.908191 100.832822 272.780487 
Q 96.8072 271.652783 96.8072 269.741188 
Q 96.8072 267.344817 102.415652 266.055521 
Q 108.024104 264.766226 118.543067 264.766226 
Q 123.341409 264.766226 128.401479 264.965637 
Q 133.461549 265.165048 138.870589 265.560432 
z
" clip-path="url(#p17d3103fd5)" style="fill: #1e90ff; opacity: 0.5"/>
   </g>
   <g id="patch_43">
    <path d="M 96.8072 231.248917 
L 109.494325 231.248917 
L 119.742359 235.919304 
L 129.980753 231.248917 
L 142.6968 231.248917 
L 125.555685 238.831626 
L 125.555685 244.352962 
L 113.957956 244.352962 
L 113.957956 238.831626 
L 96.8072 231.248917 
z
" clip-path="url(#p17d3103fd5)" style="fill: #ffa500"/>
   </g>
   <g id="patch_44">
    <path d="M 166.744414 183.207081 
L 166.744414 189.052303 
L 171.249748 189.052303 
Q 178.953765 189.052303 183.020065 188.300862 
Q 187.096817 187.549422 187.096817 186.1184 
Q 187.096817 184.69559 183.040971 183.952362 
Q 178.995578 183.207081 171.249748 183.207081 
L 166.744414 183.207081 
z
M 154.1692 181.338745 
L 167.423873 181.338745 
Q 178.535637 181.338745 183.971307 181.650818 
Q 189.406977 181.960839 193.295572 182.70612 
Q 196.724225 183.354905 198.386286 184.202842 
Q 200.0588 185.048726 200.0588 186.1184 
Q 200.0588 187.204498 198.386286 188.054488 
Q 196.724225 188.904479 193.295572 189.55121 
Q 189.375617 190.296492 183.887681 190.608565 
Q 178.399745 190.918586 167.423873 190.918586 
L 154.1692 190.918586 
L 154.1692 181.338745 
z
" clip-path="url(#p17d3103fd5)" style="fill: #b22222; opacity: 0.5"/>
   </g>
   <g id="patch_45">
    <path d="M 154.1692 250.678847 
L 199.103632 250.678847 
L 199.103632 253.290314 
L 170.822349 253.290314 
L 170.822349 255.781251 
L 197.428627 255.781251 
L 197.428627 258.392718 
L 170.822349 258.392718 
L 170.822349 261.460474 
L 200.0588 261.460474 
L 200.0588 264.06907 
L 154.1692 264.06907 
L 154.1692 250.678847 
z
" clip-path="url(#p17d3103fd5)" style="fill: #b22222"/>
   </g>
   <g id="patch_46">
    <path d="M 154.646784 234.79403 
L 199.581216 234.79403 
L 199.581216 237.257628 
L 171.299933 237.257628 
L 171.299933 239.607523 
L 197.906211 239.607523 
L 197.906211 242.071122 
L 171.299933 242.071122 
L 171.299933 247.426065 
L 154.646784 247.426065 
L 154.646784 234.79403 
z
" clip-path="url(#p17d3103fd5)" style="fill: #ffa500"/>
   </g>
   <g id="patch_47">
    <path d="M 154.1692 193.322162 
L 167.373024 193.322162 
L 167.373024 196.998868 
L 186.854976 196.998868 
L 186.854976 193.322162 
L 200.0588 193.322162 
L 200.0588 202.970931 
L 186.854976 202.970931 
L 186.854976 198.880647 
L 167.373024 198.880647 
L 167.373024 202.970931 
L 154.1692 202.970931 
L 154.1692 193.322162 
z
" clip-path="url(#p17d3103fd5)" style="fill: #2e8b57"/>
   </g>
   <g id="patch_48">
    <path d="M 168.787426 267.830845 
L 185.440574 267.830845 
L 185.440574 284.534819 
L 168.787426 284.534819 
L 168.787426 267.830845 
z
" clip-path="url(#p17d3103fd5)" style="fill: #ffa500"/>
   </g>
   <g id="patch_49">
    <path d="M 154.1692 388.503144 
L 166.262341 388.503144 
L 166.262341 403.336017 
L 183.693352 388.503144 
L 197.736676 388.503144 
L 175.148739 407.75191 
L 200.0588 429.143299 
L 184.919756 429.143299 
L 166.262341 413.134597 
L 166.262341 429.143299 
L 154.1692 429.143299 
L 154.1692 388.503144 
z
" clip-path="url(#p17d3103fd5)" style="fill: #2e8b57"/>
   </g>
   <g id="patch_50">
    <path d="M 154.1692 289.584331 
L 170.822349 289.584331 
L 170.822349 308.660902 
L 200.0588 308.660902 
L 200.0588 313.276447 
L 154.1692 313.276447 
L 154.1692 289.584331 
z
" clip-path="url(#p17d3103fd5)" style="fill: #ffa500"/>
   </g>
   <g id="patch_51">
    <path d="M 154.1692 319.419602 
L 178.022232 319.419602 
Q 188.670053 319.419602 194.358451 321.57979 
Q 200.0588 323.734522 200.0588 327.722142 
Q 200.0588 331.731581 194.358451 333.886314 
Q 188.670053 336.041047 178.022232 336.041047 
L 168.545551 336.041047 
L 168.545551 344.872724 
L 154.1692 344.872724 
L 154.1692 319.419602 
z
M 168.545551 324.176379 
L 168.545551 331.28427 
L 176.492578 331.28427 
Q 180.675224 331.28427 182.957754 330.356916 
Q 185.240283 329.429563 185.240283 327.722142 
Q 185.240283 326.020176 182.957754 325.098277 
Q 180.675224 324.176379 176.492578 324.176379 
L 168.545551 324.176379 
z
" clip-path="url(#p17d3103fd5)" style="fill: #ff1493"/>
   </g>
   <g id="patch_52">
    <path d="M 178.337723 215.272399 
L 177.439051 215.272399 
Q 166.415987 215.272399 160.287813 213.997667 
Q 154.1692 212.720934 154.1692 210.445627 
Q 154.1692 208.174322 160.278253 206.887583 
Q 166.387306 205.598843 177.114 205.598843 
Q 187.955418 205.598843 194.007109 206.875576 
Q 200.0588 208.150309 200.0588 210.445627 
Q 200.0588 212.020531 196.846528 213.159185 
Q 193.634256 214.297839 187.601686 214.872169 
L 196.588399 216.973376 
L 185.622697 216.973376 
L 178.337723 215.272399 
z
M 177.114 207.343845 
Q 171.855817 207.343845 168.959036 208.156312 
Q 166.062255 208.968779 166.062255 210.445627 
Q 166.062255 211.946489 168.892113 212.744947 
Q 171.731532 213.541405 177.114 213.541405 
Q 182.400864 213.541405 185.297645 212.728938 
Q 188.194426 211.91447 188.194426 210.445627 
Q 188.194426 208.968779 185.297645 208.156312 
Q 182.400864 207.343845 177.114 207.343845 
z
" clip-path="url(#p17d3103fd5)" style="fill: #1e90ff"/>
   </g>
   <g id="patch_53">
    <path d="M 172.788698 225.13431 
Q 176.906996 225.13431 178.69377 224.778583 
Q 180.480545 224.420315 180.480545 223.602143 
Q 180.480545 222.791595 178.69377 222.44349 
Q 176.906996 222.092845 172.788698 222.092845 
L 167.275845 222.092845 
L 167.275845 225.13431 
L 172.788698 225.13431 
z
M 167.275845 227.245802 
L 167.275845 231.733042 
L 154.1692 231.733042 
L 154.1692 219.877176 
L 174.183254 219.877176 
Q 184.228413 219.877176 188.902354 220.664856 
Q 193.58719 221.449996 193.58719 223.149862 
Q 193.58719 224.323761 191.146717 225.07841 
Q 188.71714 225.833059 183.814405 226.191326 
Q 186.505461 226.333617 188.62998 226.839257 
Q 190.765393 227.342357 192.944387 228.366342 
L 200.0588 231.733042 
L 186.102348 231.733042 
L 179.903111 228.788132 
Q 178.029177 227.898815 176.100768 227.573579 
Q 174.183254 227.245802 170.980134 227.245802 
L 167.275845 227.245802 
z
" clip-path="url(#p17d3103fd5)" style="fill: #2e8b57"/>
   </g>
   <g id="patch_54">
    <path d="M 154.1692 351.59124 
L 165.521974 351.59124 
L 177.128074 372.47594 
L 188.715409 351.59124 
L 200.0588 351.59124 
L 183.845913 379.886249 
L 170.382087 379.886249 
L 154.1692 351.59124 
z
" clip-path="url(#p17d3103fd5)" style="fill: #ffa500"/>
   </g>
   <g id="patch_55">
    <path d="M 154.1692 179.564126 
L 162.104219 179.564126 
L 167.651163 179.936956 
L 173.156813 179.564126 
L 181.133125 179.564126 
L 186.638776 179.936956 
L 192.192601 179.564126 
L 200.0588 179.564126 
L 192.48853 180.077138 
L 182.943108 180.077138 
L 177.114 179.687157 
L 171.353713 180.077138 
L 161.801409 180.077138 
L 154.1692 179.564126 
z
" clip-path="url(#p17d3103fd5)" style="fill: #ffa500; opacity: 0.5"/>
   </g>
   <g id="patch_56">
    <path d="M 224.106414 222.80119 
L 224.106414 226.430475 
L 228.611748 226.430475 
Q 236.315765 226.430475 240.382065 225.963907 
Q 244.458817 225.49734 244.458817 224.608821 
Q 244.458817 223.725402 240.402971 223.263934 
Q 236.357578 222.80119 228.611748 222.80119 
L 224.106414 222.80119 
z
M 211.5312 221.641145 
L 224.785873 221.641145 
Q 235.897637 221.641145 241.333307 221.834911 
Q 246.768977 222.027402 250.657572 222.490145 
Q 254.086225 222.892974 255.748286 223.419456 
Q 257.4208 223.944664 257.4208 224.608821 
Q 257.4208 225.283178 255.748286 225.810934 
Q 254.086225 226.338691 250.657572 226.740245 
Q 246.737617 227.202989 241.249681 227.396755 
Q 235.761745 227.589246 224.785873 227.589246 
L 211.5312 227.589246 
L 211.5312 221.641145 
z
" clip-path="url(#p17d3103fd5)" style="fill: #b22222; opacity: 0.5"/>
   </g>
   <g id="patch_57">
    <path d="M 211.5312 185.157679 
L 256.465632 185.157679 
L 256.465632 185.795651 
L 228.184349 185.795651 
L 228.184349 186.404178 
L 254.790627 186.404178 
L 254.790627 187.04215 
L 228.184349 187.04215 
L 228.184349 187.791592 
L 257.4208 187.791592 
L 257.4208 188.428863 
L 211.5312 188.428863 
L 211.5312 185.157679 
z
" clip-path="url(#p17d3103fd5)" style="fill: #b22222; opacity: 0.5"/>
   </g>
   <g id="patch_58">
    <path d="M 212.008784 214.829825 
L 256.943216 214.829825 
L 256.943216 215.881729 
L 228.661933 215.881729 
L 228.661933 216.885083 
L 255.268211 216.885083 
L 255.268211 217.936986 
L 228.661933 217.936986 
L 228.661933 220.223432 
L 212.008784 220.223432 
L 212.008784 214.829825 
z
" clip-path="url(#p17d3103fd5)" style="fill: #ffa500"/>
   </g>
   <g id="patch_59">
    <path d="M 257.4208 192.640788 
Q 252.792759 192.80709 247.815043 192.890621 
Q 242.837328 192.973392 237.530507 192.973392 
Q 225.538738 192.973392 218.534969 192.478282 
Q 211.5312 191.983172 211.5312 191.136473 
Q 211.5312 190.279902 218.658384 189.788589 
Q 225.795852 189.297276 238.209287 189.297276 
Q 242.991596 189.297276 247.372808 189.364101 
Q 251.764305 189.430166 255.65186 189.560778 
L 255.65186 190.293571 
Q 251.640891 190.12575 247.67106 190.042978 
Q 243.701229 189.959448 239.710829 189.959448 
Q 232.326532 189.959448 228.325847 190.264715 
Q 224.325163 190.569223 224.325163 191.136473 
Q 224.325163 191.698408 228.181864 192.005194 
Q 232.038565 192.31122 239.134895 192.31122 
Q 241.068388 192.31122 242.724198 192.293755 
Q 244.380008 192.27553 245.696429 192.237561 
L 245.696429 191.549571 
L 238.137295 191.549571 
L 238.137295 190.936758 
L 257.4208 190.936758 
L 257.4208 192.640788 
z
" clip-path="url(#p17d3103fd5)" style="fill: #1e90ff; opacity: 0.5"/>
   </g>
   <g id="patch_60">
    <path d="M 211.5312 193.893291 
L 224.735024 193.893291 
L 224.735024 195.296743 
L 244.216976 195.296743 
L 244.216976 193.893291 
L 257.4208 193.893291 
L 257.4208 197.576365 
L 244.216976 197.576365 
L 244.216976 196.015045 
L 224.735024 196.015045 
L 224.735024 197.576365 
L 211.5312 197.576365 
L 211.5312 193.893291 
z
" clip-path="url(#p17d3103fd5)" style="fill: #2e8b57; opacity: 0.5"/>
   </g>
   <g id="patch_61">
    <path d="M 226.149426 229.699177 
L 242.802574 229.699177 
L 242.802574 240.630525 
L 226.149426 240.630525 
L 226.149426 229.699177 
z
" clip-path="url(#p17d3103fd5)" style="fill: #ffa500"/>
   </g>
   <g id="patch_62">
    <path d="M 211.5312 244.040986 
L 228.184349 244.040986 
L 228.184349 257.20767 
L 257.4208 257.20767 
L 257.4208 260.393327 
L 211.5312 260.393327 
L 211.5312 244.040986 
z
" clip-path="url(#p17d3103fd5)" style="fill: #ffa500"/>
   </g>
   <g id="patch_63">
    <path d="M 211.5312 198.509753 
L 225.06819 198.509753 
L 234.458316 200.534771 
L 243.910336 198.509753 
L 257.4208 198.509753 
L 257.4208 202.293788 
L 247.367529 202.293788 
L 247.367529 199.525912 
L 237.862458 201.566339 
L 231.116068 201.566339 
L 221.610997 199.525912 
L 221.610997 202.293788 
L 211.5312 202.293788 
L 211.5312 198.509753 
z
" clip-path="url(#p17d3103fd5)" style="fill: #ffa500; opacity: 0.5"/>
   </g>
   <g id="patch_64">
    <path d="M 211.5312 203.250792 
L 235.384232 203.250792 
Q 246.032053 203.250792 251.720451 203.579405 
Q 257.4208 203.907189 257.4208 204.513796 
Q 257.4208 205.123722 251.720451 205.451506 
Q 246.032053 205.779289 235.384232 205.779289 
L 225.907551 205.779289 
L 225.907551 207.122787 
L 211.5312 207.122787 
L 211.5312 203.250792 
z
M 225.907551 203.974405 
L 225.907551 205.055676 
L 233.854578 205.055676 
Q 238.037224 205.055676 240.319754 204.914604 
Q 242.602283 204.773533 242.602283 204.513796 
Q 242.602283 204.254888 240.319754 204.114647 
Q 238.037224 203.974405 233.854578 203.974405 
L 225.907551 203.974405 
z
" clip-path="url(#p17d3103fd5)" style="fill: #ff1493; opacity: 0.5"/>
   </g>
   <g id="patch_65">
    <path d="M 235.699723 212.717276 
L 234.801051 212.717276 
Q 223.777987 212.717276 217.649813 212.130139 
Q 211.5312 211.54208 211.5312 210.494082 
Q 211.5312 209.447927 217.640253 208.855259 
Q 223.749306 208.26167 234.476 208.26167 
Q 245.317418 208.26167 251.369109 208.849729 
Q 257.4208 209.436866 257.4208 210.494082 
Q 257.4208 211.219477 254.208528 211.743937 
Q 250.996256 212.268398 244.963686 212.532932 
L 253.950399 213.50074 
L 242.984697 213.50074 
L 235.699723 212.717276 
z
M 234.476 209.065412 
Q 229.217817 209.065412 226.321036 209.439631 
Q 223.424255 209.813851 223.424255 210.494082 
Q 223.424255 211.185374 226.254113 211.553141 
Q 229.093532 211.919986 234.476 211.919986 
Q 239.762864 211.919986 242.659645 211.545767 
Q 245.556426 211.170626 245.556426 210.494082 
Q 245.556426 209.813851 242.659645 209.439631 
Q 239.762864 209.065412 234.476 209.065412 
z
" clip-path="url(#p17d3103fd5)" style="fill: #1e90ff; opacity: 0.5"/>
   </g>
   <g id="patch_66">
    <path d="M 211.5312 179.561462 
L 257.4208 179.561462 
L 257.4208 179.657357 
L 240.911216 179.657357 
L 240.911216 180.053161 
L 228.0728 180.053161 
L 228.0728 179.657357 
L 211.5312 179.657357 
L 211.5312 179.561462 
z
" clip-path="url(#p17d3103fd5)" style="fill: #1e90ff; opacity: 0.5"/>
   </g>
   <g id="patch_67">
    <path d="M 211.5312 182.814143 
L 222.883974 182.814143 
L 234.490074 184.083447 
L 246.077409 182.814143 
L 257.4208 182.814143 
L 241.207913 184.533821 
L 227.744087 184.533821 
L 211.5312 182.814143 
z
" clip-path="url(#p17d3103fd5)" style="fill: #ffa500; opacity: 0.5"/>
   </g>
   <g id="patch_68">
    <path d="M 211.5312 181.336581 
L 219.466219 181.336581 
L 225.013163 182.152218 
L 230.518813 181.336581 
L 238.495125 181.336581 
L 244.000776 182.152218 
L 249.554601 181.336581 
L 257.4208 181.336581 
L 249.85053 182.458894 
L 240.305108 182.458894 
L 234.476 181.605734 
L 228.715713 182.458894 
L 219.163409 182.458894 
L 211.5312 181.336581 
z
" clip-path="url(#p17d3103fd5)" style="fill: #ffa500; opacity: 0.5"/>
   </g>
   <g id="patch_69">
    <path d="M 211.5312 180.22279 
L 224.218325 180.22279 
L 234.466359 180.531202 
L 244.704753 180.22279 
L 257.4208 180.22279 
L 240.279685 180.723519 
L 240.279685 181.088125 
L 228.681956 181.088125 
L 228.681956 180.723519 
L 211.5312 180.22279 
z
" clip-path="url(#p17d3103fd5)" style="fill: #ffa500; opacity: 0.5"/>
   </g>
   <g id="patch_70">
    <path d="M 281.468414 183.061701 
L 281.468414 184.135685 
L 285.973748 184.135685 
Q 293.677765 184.135685 297.744065 183.997617 
Q 301.820817 183.85955 301.820817 183.596618 
Q 301.820817 183.335195 297.764971 183.198636 
Q 293.719578 183.061701 285.973748 183.061701 
L 281.468414 183.061701 
z
M 268.8932 182.718418 
L 282.147873 182.718418 
Q 293.259637 182.718418 298.695307 182.775757 
Q 304.130977 182.83272 308.019572 182.969656 
Q 311.448225 183.088861 313.110286 183.244659 
Q 314.7828 183.400079 314.7828 183.596618 
Q 314.7828 183.796175 313.110286 183.952349 
Q 311.448225 184.108524 308.019572 184.227353 
Q 304.099617 184.364289 298.611681 184.421628 
Q 293.123745 184.47859 282.147873 184.47859 
L 268.8932 184.47859 
L 268.8932 182.718418 
z
" clip-path="url(#p17d3103fd5)" style="fill: #b22222; opacity: 0.5"/>
   </g>
   <g id="patch_71">
    <path d="M 268.8932 208.637244 
L 313.827632 208.637244 
L 313.827632 210.386415 
L 285.546349 210.386415 
L 285.546349 212.054855 
L 312.152627 212.054855 
L 312.152627 213.804026 
L 285.546349 213.804026 
L 285.546349 215.858821 
L 314.7828 215.858821 
L 314.7828 217.60607 
L 268.8932 217.60607 
L 268.8932 208.637244 
z
" clip-path="url(#p17d3103fd5)" style="fill: #b22222"/>
   </g>
   <g id="patch_72">
    <path d="M 269.370784 179.52248 
L 314.305216 179.52248 
L 314.305216 179.557554 
L 286.023933 179.557554 
L 286.023933 179.591009 
L 312.630211 179.591009 
L 312.630211 179.626082 
L 286.023933 179.626082 
L 286.023933 179.70232 
L 269.370784 179.70232 
L 269.370784 179.52248 
z
" clip-path="url(#p17d3103fd5)" style="fill: #ffa500; opacity: 0.5"/>
   </g>
   <g id="patch_73">
    <path d="M 268.8932 184.953701 
L 282.097024 184.953701 
L 282.097024 185.731323 
L 301.578976 185.731323 
L 301.578976 184.953701 
L 314.7828 184.953701 
L 314.7828 186.994411 
L 301.578976 186.994411 
L 301.578976 186.129318 
L 282.097024 186.129318 
L 282.097024 186.994411 
L 268.8932 186.994411 
L 268.8932 184.953701 
z
" clip-path="url(#p17d3103fd5)" style="fill: #2e8b57; opacity: 0.5"/>
   </g>
   <g id="patch_74">
    <path d="M 268.8932 232.03558 
L 280.986341 232.03558 
L 280.986341 236.479613 
L 298.417352 232.03558 
L 312.460676 232.03558 
L 289.872739 237.802646 
L 314.7828 244.211658 
L 299.643756 244.211658 
L 280.986341 239.415337 
L 280.986341 244.211658 
L 268.8932 244.211658 
L 268.8932 232.03558 
z
" clip-path="url(#p17d3103fd5)" style="fill: #2e8b57"/>
   </g>
   <g id="patch_75">
    <path d="M 268.8932 187.800821 
L 283.633629 187.800821 
L 302.259472 190.82564 
L 302.259472 187.800821 
L 314.7828 187.800821 
L 314.7828 192.211385 
L 300.031395 192.211385 
L 281.405552 189.186566 
L 281.405552 192.211385 
L 268.8932 192.211385 
L 268.8932 187.800821 
z
" clip-path="url(#p17d3103fd5)" style="fill: #1e90ff"/>
   </g>
   <g id="patch_76">
    <path d="M 268.8932 219.905813 
L 292.746232 219.905813 
Q 303.394053 219.905813 309.082451 220.706055 
Q 314.7828 221.504276 314.7828 222.981491 
Q 314.7828 224.46679 309.082451 225.265011 
Q 303.394053 226.063233 292.746232 226.063233 
L 283.269551 226.063233 
L 283.269551 229.334931 
L 268.8932 229.334931 
L 268.8932 219.905813 
z
M 283.269551 221.667962 
L 283.269551 224.301083 
L 291.216578 224.301083 
Q 295.399224 224.301083 297.681754 223.957545 
Q 299.964283 223.614006 299.964283 222.981491 
Q 299.964283 222.350998 297.681754 222.00948 
Q 295.399224 221.667962 291.216578 221.667962 
L 283.269551 221.667962 
z
" clip-path="url(#p17d3103fd5)" style="fill: #ff1493"/>
   </g>
   <g id="patch_77">
    <path d="M 293.061723 197.271666 
L 292.163051 197.271666 
Q 281.139987 197.271666 275.011813 196.753637 
Q 268.8932 196.234796 268.8932 195.310152 
Q 268.8932 194.387135 275.002253 193.864227 
Q 281.111306 193.340506 291.838 193.340506 
Q 302.679418 193.340506 308.731109 193.859348 
Q 314.7828 194.377376 314.7828 195.310152 
Q 314.7828 195.950165 311.570528 196.412894 
Q 308.358256 196.875622 302.325686 197.109019 
L 311.312399 197.962912 
L 300.346697 197.962912 
L 293.061723 197.271666 
z
M 291.838 194.049644 
Q 286.579817 194.049644 283.683036 194.379816 
Q 280.786255 194.709987 280.786255 195.310152 
Q 280.786255 195.920075 283.616113 196.244555 
Q 286.455532 196.568221 291.838 196.568221 
Q 297.124864 196.568221 300.021645 196.238049 
Q 302.918426 195.907064 302.918426 195.310152 
Q 302.918426 194.709987 300.021645 194.379816 
Q 297.124864 194.049644 291.838 194.049644 
z
" clip-path="url(#p17d3103fd5)" style="fill: #1e90ff; opacity: 0.5"/>
   </g>
   <g id="patch_78">
    <path d="M 287.512698 202.622167 
Q 291.630996 202.622167 293.41777 202.406726 
Q 295.204545 202.189746 295.204545 201.694231 
Q 295.204545 201.203333 293.41777 200.992509 
Q 291.630996 200.780146 287.512698 200.780146 
L 281.999845 200.780146 
L 281.999845 202.622167 
L 287.512698 202.622167 
z
M 281.999845 203.900963 
L 281.999845 206.618598 
L 268.8932 206.618598 
L 268.8932 199.438256 
L 288.907254 199.438256 
Q 298.952413 199.438256 303.626354 199.915304 
Q 308.31119 200.390813 308.31119 201.420313 
Q 308.31119 202.131269 305.870717 202.588312 
Q 303.44114 203.045354 298.538405 203.262334 
Q 301.229461 203.348511 303.35398 203.654745 
Q 305.489393 203.95944 307.668387 204.579603 
L 314.7828 206.618598 
L 300.826348 206.618598 
L 294.627111 204.835054 
Q 292.753177 204.296451 290.824768 204.099477 
Q 288.907254 203.900963 285.704134 203.900963 
L 281.999845 203.900963 
z
" clip-path="url(#p17d3103fd5)" style="fill: #2e8b57"/>
   </g>
   <g id="patch_79">
    <path d="M 268.8932 180.559737 
L 314.7828 180.559737 
L 314.7828 180.679182 
L 298.273216 180.679182 
L 298.273216 181.172189 
L 285.4348 181.172189 
L 285.4348 180.679182 
L 268.8932 180.679182 
L 268.8932 180.559737 
z
" clip-path="url(#p17d3103fd5)" style="fill: #1e90ff; opacity: 0.5"/>
   </g>
   <g id="patch_80">
    <path d="M 268.8932 179.800638 
L 276.828219 179.800638 
L 282.375163 180.241558 
L 287.880813 179.800638 
L 295.857125 179.800638 
L 301.362776 180.241558 
L 306.916601 179.800638 
L 314.7828 179.800638 
L 307.21253 180.407342 
L 297.667108 180.407342 
L 291.838 179.946138 
L 286.077713 180.407342 
L 276.525409 180.407342 
L 268.8932 179.800638 
z
" clip-path="url(#p17d3103fd5)" style="fill: #ffa500; opacity: 0.5"/>
   </g>
   <g id="patch_81">
    <path d="M 268.8932 181.373711 
L 281.580325 181.373711 
L 291.828359 181.730019 
L 302.066753 181.373711 
L 314.7828 181.373711 
L 297.641685 181.952203 
L 297.641685 182.373431 
L 286.043956 182.373431 
L 286.043956 181.952203 
L 268.8932 181.373711 
z
" clip-path="url(#p17d3103fd5)" style="fill: #ffa500; opacity: 0.5"/>
   </g>
   <g id="matplotlib.axis_1">
    <g id="xtick_1">
     <g id="line2d_2">
      <defs>
       <path id="m616d08f834" d="M 0 0 
L 0 3.5 
" style="stroke: #000000; stroke-width: 0.8"/>
      </defs>
      <g>
       <use xlink:href="#m616d08f834" x="119.752" y="332.12" style="stroke: #000000; stroke-width: 0.8"/>
      </g>
     </g>
    </g>
    <g id="xtick_2">
     <g id="line2d_3">
      <g>
       <use xlink:href="#m616d08f834" x="177.114" y="332.12" style="stroke: #000000; stroke-width: 0.8"/>
      </g>
     </g>
     <g id="text_1">
      <!-- p1 -->
      <g transform="translate(170.758531 346.718437) scale(0.1 -0.1)">
       <defs>
        <path id="DejaVuSans-70" d="M 1159 525 
L 1159 -1331 
L 581 -1331 
L 581 3500 
L 1159 3500 
L 1159 2969 
Q 1341 3281 1617 3432 
Q 1894 3584 2278 3584 
Q 2916 3584 3314 3078 
Q 3713 2572 3713 1747 
Q 3713 922 3314 415 
Q 2916 -91 2278 -91 
Q 1894 -91 1617 61 
Q 1341 213 1159 525 
z
M 3116 1747 
Q 3116 2381 2855 2742 
Q 2594 3103 2138 3103 
Q 1681 3103 1420 2742 
Q 1159 2381 1159 1747 
Q 1159 1113 1420 752 
Q 1681 391 2138 391 
Q 2594 391 2855 752 
Q 3116 1113 3116 1747 
z
" transform="scale(0.015625)"/>
        <path id="DejaVuSans-31" d="M 794 531 
L 1825 531 
L 1825 4091 
L 703 3866 
L 703 4441 
L 1819 4666 
L 2450 4666 
L 2450 531 
L 3481 531 
L 3481 0 
L 794 0 
L 794 531 
z
" transform="scale(0.015625)"/>
       </defs>
       <use xlink:href="#DejaVuSans-70"/>
       <use xlink:href="#DejaVuSans-31" x="63.476562"/>
      </g>
     </g>
    </g>
    <g id="xtick_3">
     <g id="line2d_4">
      <g>
       <use xlink:href="#m616d08f834" x="234.476" y="332.12" style="stroke: #000000; stroke-width: 0.8"/>
      </g>
     </g>
    </g>
    <g id="xtick_4">
     <g id="line2d_5">
      <g>
       <use xlink:href="#m616d08f834" x="291.838" y="332.12" style="stroke: #000000; stroke-width: 0.8"/>
      </g>
     </g>
    </g>
   </g>
   <g id="matplotlib.axis_2">
    <g id="ytick_1">
     <g id="line2d_6">
      <defs>
       <path id="md505c73778" d="M 0 0 
L -3.5 0 
" style="stroke: #000000; stroke-width: 0.8"/>
      </defs>
      <g>
       <use xlink:href="#md505c73778" x="62.39" y="332.12" style="stroke: #000000; stroke-width: 0.8"/>
      </g>
     </g>
     <g id="text_2">
      <!-- −0.03 -->
      <g transform="translate(24.744688 335.919219) scale(0.1 -0.1)">
       <defs>
        <path id="DejaVuSans-2212" d="M 678 2272 
L 4684 2272 
L 4684 1741 
L 678 1741 
L 678 2272 
z
" transform="scale(0.015625)"/>
        <path id="DejaVuSans-30" d="M 2034 4250 
Q 1547 4250 1301 3770 
Q 1056 3291 1056 2328 
Q 1056 1369 1301 889 
Q 1547 409 2034 409 
Q 2525 409 2770 889 
Q 3016 1369 3016 2328 
Q 3016 3291 2770 3770 
Q 2525 4250 2034 4250 
z
M 2034 4750 
Q 2819 4750 3233 4129 
Q 3647 3509 3647 2328 
Q 3647 1150 3233 529 
Q 2819 -91 2034 -91 
Q 1250 -91 836 529 
Q 422 1150 422 2328 
Q 422 3509 836 4129 
Q 1250 4750 2034 4750 
z
" transform="scale(0.015625)"/>
        <path id="DejaVuSans-2e" d="M 684 794 
L 1344 794 
L 1344 0 
L 684 0 
L 684 794 
z
" transform="scale(0.015625)"/>
        <path id="DejaVuSans-33" d="M 2597 2516 
Q 3050 2419 3304 2112 
Q 3559 1806 3559 1356 
Q 3559 666 3084 287 
Q 2609 -91 1734 -91 
Q 1441 -91 1130 -33 
Q 819 25 488 141 
L 488 750 
Q 750 597 1062 519 
Q 1375 441 1716 441 
Q 2309 441 2620 675 
Q 2931 909 2931 1356 
Q 2931 1769 2642 2001 
Q 2353 2234 1838 2234 
L 1294 2234 
L 1294 2753 
L 1863 2753 
Q 2328 2753 2575 2939 
Q 2822 3125 2822 3475 
Q 2822 3834 2567 4026 
Q 2313 4219 1838 4219 
Q 1578 4219 1281 4162 
Q 984 4106 628 3988 
L 628 4550 
Q 988 4650 1302 4700 
Q 1616 4750 1894 4750 
Q 2613 4750 3031 4423 
Q 3450 4097 3450 3541 
Q 3450 3153 3228 2886 
Q 3006 2619 2597 2516 
z
" transform="scale(0.015625)"/>
       </defs>
       <use xlink:href="#DejaVuSans-2212"/>
       <use xlink:href="#DejaVuSans-30" x="83.789062"/>
       <use xlink:href="#DejaVuSans-2e" x="147.412109"/>
       <use xlink:href="#DejaVuSans-30" x="179.199219"/>
       <use xlink:href="#DejaVuSans-33" x="242.822266"/>
      </g>
     </g>
    </g>
    <g id="ytick_2">
     <g id="line2d_7">
      <g>
       <use xlink:href="#md505c73778" x="62.39" y="281.246667" style="stroke: #000000; stroke-width: 0.8"/>
      </g>
     </g>
     <g id="text_3">
      <!-- −0.02 -->
      <g transform="translate(24.744688 285.045885) scale(0.1 -0.1)">
       <defs>
        <path id="DejaVuSans-32" d="M 1228 531 
L 3431 531 
L 3431 0 
L 469 0 
L 469 531 
Q 828 903 1448 1529 
Q 2069 2156 2228 2338 
Q 2531 2678 2651 2914 
Q 2772 3150 2772 3378 
Q 2772 3750 2511 3984 
Q 2250 4219 1831 4219 
Q 1534 4219 1204 4116 
Q 875 4013 500 3803 
L 500 4441 
Q 881 4594 1212 4672 
Q 1544 4750 1819 4750 
Q 2544 4750 2975 4387 
Q 3406 4025 3406 3419 
Q 3406 3131 3298 2873 
Q 3191 2616 2906 2266 
Q 2828 2175 2409 1742 
Q 1991 1309 1228 531 
z
" transform="scale(0.015625)"/>
       </defs>
       <use xlink:href="#DejaVuSans-2212"/>
       <use xlink:href="#DejaVuSans-30" x="83.789062"/>
       <use xlink:href="#DejaVuSans-2e" x="147.412109"/>
       <use xlink:href="#DejaVuSans-30" x="179.199219"/>
       <use xlink:href="#DejaVuSans-32" x="242.822266"/>
      </g>
     </g>
    </g>
    <g id="ytick_3">
     <g id="line2d_8">
      <g>
       <use xlink:href="#md505c73778" x="62.39" y="230.373333" style="stroke: #000000; stroke-width: 0.8"/>
      </g>
     </g>
     <g id="text_4">
      <!-- −0.01 -->
      <g transform="translate(24.744688 234.172552) scale(0.1 -0.1)">
       <use xlink:href="#DejaVuSans-2212"/>
       <use xlink:href="#DejaVuSans-30" x="83.789062"/>
       <use xlink:href="#DejaVuSans-2e" x="147.412109"/>
       <use xlink:href="#DejaVuSans-30" x="179.199219"/>
       <use xlink:href="#DejaVuSans-31" x="242.822266"/>
      </g>
     </g>
    </g>
    <g id="ytick_4">
     <g id="line2d_9">
      <g>
       <use xlink:href="#md505c73778" x="62.39" y="179.5" style="stroke: #000000; stroke-width: 0.8"/>
      </g>
     </g>
     <g id="text_5">
      <!-- 0.00 -->
      <g transform="translate(33.124375 183.299219) scale(0.1 -0.1)">
       <use xlink:href="#DejaVuSans-30"/>
       <use xlink:href="#DejaVuSans-2e" x="63.623047"/>
       <use xlink:href="#DejaVuSans-30" x="95.410156"/>
       <use xlink:href="#DejaVuSans-30" x="159.033203"/>
      </g>
     </g>
    </g>
    <g id="ytick_5">
     <g id="line2d_10">
      <g>
       <use xlink:href="#md505c73778" x="62.39" y="128.626667" style="stroke: #000000; stroke-width: 0.8"/>
      </g>
     </g>
     <g id="text_6">
      <!-- 0.01 -->
      <g transform="translate(33.124375 132.425885) scale(0.1 -0.1)">
       <use xlink:href="#DejaVuSans-30"/>
       <use xlink:href="#DejaVuSans-2e" x="63.623047"/>
       <use xlink:href="#DejaVuSans-30" x="95.410156"/>
       <use xlink:href="#DejaVuSans-31" x="159.033203"/>
      </g>
     </g>
    </g>
    <g id="ytick_6">
     <g id="line2d_11">
      <g>
       <use xlink:href="#md505c73778" x="62.39" y="77.753333" style="stroke: #000000; stroke-width: 0.8"/>
      </g>
     </g>
     <g id="text_7">
      <!-- 0.02 -->
      <g transform="translate(33.124375 81.552552) scale(0.1 -0.1)">
       <use xlink:href="#DejaVuSans-30"/>
       <use xlink:href="#DejaVuSans-2e" x="63.623047"/>
       <use xlink:href="#DejaVuSans-30" x="95.410156"/>
       <use xlink:href="#DejaVuSans-32" x="159.033203"/>
      </g>
     </g>
    </g>
    <g id="ytick_7">
     <g id="line2d_12">
      <g>
       <use xlink:href="#md505c73778" x="62.39" y="26.88" style="stroke: #000000; stroke-width: 0.8"/>
      </g>
     </g>
     <g id="text_8">
      <!-- 0.03 -->
      <g transform="translate(33.124375 30.679219) scale(0.1 -0.1)">
       <use xlink:href="#DejaVuSans-30"/>
       <use xlink:href="#DejaVuSans-2e" x="63.623047"/>
       <use xlink:href="#DejaVuSans-30" x="95.410156"/>
       <use xlink:href="#DejaVuSans-33" x="159.033203"/>
      </g>
     </g>
    </g>
    <g id="text_9">
     <!-- JS Divergence -->
     <g transform="translate(18.665 214.226562) rotate(-90) scale(0.1 -0.1)">
      <defs>
       <path id="DejaVuSans-4a" d="M 628 4666 
L 1259 4666 
L 1259 325 
Q 1259 -519 939 -900 
Q 619 -1281 -91 -1281 
L -331 -1281 
L -331 -750 
L -134 -750 
Q 284 -750 456 -515 
Q 628 -281 628 325 
L 628 4666 
z
" transform="scale(0.015625)"/>
       <path id="DejaVuSans-53" d="M 3425 4513 
L 3425 3897 
Q 3066 4069 2747 4153 
Q 2428 4238 2131 4238 
Q 1616 4238 1336 4038 
Q 1056 3838 1056 3469 
Q 1056 3159 1242 3001 
Q 1428 2844 1947 2747 
L 2328 2669 
Q 3034 2534 3370 2195 
Q 3706 1856 3706 1288 
Q 3706 609 3251 259 
Q 2797 -91 1919 -91 
Q 1588 -91 1214 -16 
Q 841 59 441 206 
L 441 856 
Q 825 641 1194 531 
Q 1563 422 1919 422 
Q 2459 422 2753 634 
Q 3047 847 3047 1241 
Q 3047 1584 2836 1778 
Q 2625 1972 2144 2069 
L 1759 2144 
Q 1053 2284 737 2584 
Q 422 2884 422 3419 
Q 422 4038 858 4394 
Q 1294 4750 2059 4750 
Q 2388 4750 2728 4690 
Q 3069 4631 3425 4513 
z
" transform="scale(0.015625)"/>
       <path id="DejaVuSans-20" transform="scale(0.015625)"/>
       <path id="DejaVuSans-44" d="M 1259 4147 
L 1259 519 
L 2022 519 
Q 2988 519 3436 956 
Q 3884 1394 3884 2338 
Q 3884 3275 3436 3711 
Q 2988 4147 2022 4147 
L 1259 4147 
z
M 628 4666 
L 1925 4666 
Q 3281 4666 3915 4102 
Q 4550 3538 4550 2338 
Q 4550 1131 3912 565 
Q 3275 0 1925 0 
L 628 0 
L 628 4666 
z
" transform="scale(0.015625)"/>
       <path id="DejaVuSans-69" d="M 603 3500 
L 1178 3500 
L 1178 0 
L 603 0 
L 603 3500 
z
M 603 4863 
L 1178 4863 
L 1178 4134 
L 603 4134 
L 603 4863 
z
" transform="scale(0.015625)"/>
       <path id="DejaVuSans-76" d="M 191 3500 
L 800 3500 
L 1894 563 
L 2988 3500 
L 3597 3500 
L 2284 0 
L 1503 0 
L 191 3500 
z
" transform="scale(0.015625)"/>
       <path id="DejaVuSans-65" d="M 3597 1894 
L 3597 1613 
L 953 1613 
Q 991 1019 1311 708 
Q 1631 397 2203 397 
Q 2534 397 2845 478 
Q 3156 559 3463 722 
L 3463 178 
Q 3153 47 2828 -22 
Q 2503 -91 2169 -91 
Q 1331 -91 842 396 
Q 353 884 353 1716 
Q 353 2575 817 3079 
Q 1281 3584 2069 3584 
Q 2775 3584 3186 3129 
Q 3597 2675 3597 1894 
z
M 3022 2063 
Q 3016 2534 2758 2815 
Q 2500 3097 2075 3097 
Q 1594 3097 1305 2825 
Q 1016 2553 972 2059 
L 3022 2063 
z
" transform="scale(0.015625)"/>
       <path id="DejaVuSans-72" d="M 2631 2963 
Q 2534 3019 2420 3045 
Q 2306 3072 2169 3072 
Q 1681 3072 1420 2755 
Q 1159 2438 1159 1844 
L 1159 0 
L 581 0 
L 581 3500 
L 1159 3500 
L 1159 2956 
Q 1341 3275 1631 3429 
Q 1922 3584 2338 3584 
Q 2397 3584 2469 3576 
Q 2541 3569 2628 3553 
L 2631 2963 
z
" transform="scale(0.015625)"/>
       <path id="DejaVuSans-67" d="M 2906 1791 
Q 2906 2416 2648 2759 
Q 2391 3103 1925 3103 
Q 1463 3103 1205 2759 
Q 947 2416 947 1791 
Q 947 1169 1205 825 
Q 1463 481 1925 481 
Q 2391 481 2648 825 
Q 2906 1169 2906 1791 
z
M 3481 434 
Q 3481 -459 3084 -895 
Q 2688 -1331 1869 -1331 
Q 1566 -1331 1297 -1286 
Q 1028 -1241 775 -1147 
L 775 -588 
Q 1028 -725 1275 -790 
Q 1522 -856 1778 -856 
Q 2344 -856 2625 -561 
Q 2906 -266 2906 331 
L 2906 616 
Q 2728 306 2450 153 
Q 2172 0 1784 0 
Q 1141 0 747 490 
Q 353 981 353 1791 
Q 353 2603 747 3093 
Q 1141 3584 1784 3584 
Q 2172 3584 2450 3431 
Q 2728 3278 2906 2969 
L 2906 3500 
L 3481 3500 
L 3481 434 
z
" transform="scale(0.015625)"/>
       <path id="DejaVuSans-6e" d="M 3513 2113 
L 3513 0 
L 2938 0 
L 2938 2094 
Q 2938 2591 2744 2837 
Q 2550 3084 2163 3084 
Q 1697 3084 1428 2787 
Q 1159 2491 1159 1978 
L 1159 0 
L 581 0 
L 581 3500 
L 1159 3500 
L 1159 2956 
Q 1366 3272 1645 3428 
Q 1925 3584 2291 3584 
Q 2894 3584 3203 3211 
Q 3513 2838 3513 2113 
z
" transform="scale(0.015625)"/>
       <path id="DejaVuSans-63" d="M 3122 3366 
L 3122 2828 
Q 2878 2963 2633 3030 
Q 2388 3097 2138 3097 
Q 1578 3097 1268 2742 
Q 959 2388 959 1747 
Q 959 1106 1268 751 
Q 1578 397 2138 397 
Q 2388 397 2633 464 
Q 2878 531 3122 666 
L 3122 134 
Q 2881 22 2623 -34 
Q 2366 -91 2075 -91 
Q 1284 -91 818 406 
Q 353 903 353 1747 
Q 353 2603 823 3093 
Q 1294 3584 2113 3584 
Q 2378 3584 2631 3529 
Q 2884 3475 3122 3366 
z
" transform="scale(0.015625)"/>
      </defs>
      <use xlink:href="#DejaVuSans-4a"/>
      <use xlink:href="#DejaVuSans-53" x="29.492188"/>
      <use xlink:href="#DejaVuSans-20" x="92.96875"/>
      <use xlink:href="#DejaVuSans-44" x="124.755859"/>
      <use xlink:href="#DejaVuSans-69" x="201.757812"/>
      <use xlink:href="#DejaVuSans-76" x="229.541016"/>
      <use xlink:href="#DejaVuSans-65" x="288.720703"/>
      <use xlink:href="#DejaVuSans-72" x="350.244141"/>
      <use xlink:href="#DejaVuSans-67" x="389.607422"/>
      <use xlink:href="#DejaVuSans-65" x="453.083984"/>
      <use xlink:href="#DejaVuSans-6e" x="514.607422"/>
      <use xlink:href="#DejaVuSans-63" x="577.986328"/>
      <use xlink:href="#DejaVuSans-65" x="632.966797"/>
     </g>
    </g>
   </g>
   <g id="line2d_13">
    <path d="M 205.795 293.965 
L 205.795 65.035 
" clip-path="url(#p17d3103fd5)" style="fill: none; stroke-dasharray: 1.85,0.8; stroke-dashoffset: 0; stroke: #000000; stroke-width: 0.5"/>
   </g>
   <g id="patch_82">
    <path d="M 62.39 332.12 
L 62.39 26.88 
" style="fill: none; stroke: #000000; stroke-width: 0.8; stroke-linejoin: miter; stroke-linecap: square"/>
   </g>
   <g id="patch_83">
    <path d="M 62.39 332.12 
L 349.2 332.12 
" style="fill: none; stroke: #000000; stroke-width: 0.8; stroke-linejoin: miter; stroke-linecap: square"/>
   </g>
   <g id="text_10">
    <!-- sr1 splice site: detected vs. background -->
    <g transform="translate(85.9675 20.88) scale(0.12 -0.12)">
     <defs>
      <path id="DejaVuSans-73" d="M 2834 3397 
L 2834 2853 
Q 2591 2978 2328 3040 
Q 2066 3103 1784 3103 
Q 1356 3103 1142 2972 
Q 928 2841 928 2578 
Q 928 2378 1081 2264 
Q 1234 2150 1697 2047 
L 1894 2003 
Q 2506 1872 2764 1633 
Q 3022 1394 3022 966 
Q 3022 478 2636 193 
Q 2250 -91 1575 -91 
Q 1294 -91 989 -36 
Q 684 19 347 128 
L 347 722 
Q 666 556 975 473 
Q 1284 391 1588 391 
Q 1994 391 2212 530 
Q 2431 669 2431 922 
Q 2431 1156 2273 1281 
Q 2116 1406 1581 1522 
L 1381 1569 
Q 847 1681 609 1914 
Q 372 2147 372 2553 
Q 372 3047 722 3315 
Q 1072 3584 1716 3584 
Q 2034 3584 2315 3537 
Q 2597 3491 2834 3397 
z
" transform="scale(0.015625)"/>
      <path id="DejaVuSans-6c" d="M 603 4863 
L 1178 4863 
L 1178 0 
L 603 0 
L 603 4863 
z
" transform="scale(0.015625)"/>
      <path id="DejaVuSans-74" d="M 1172 4494 
L 1172 3500 
L 2356 3500 
L 2356 3053 
L 1172 3053 
L 1172 1153 
Q 1172 725 1289 603 
Q 1406 481 1766 481 
L 2356 481 
L 2356 0 
L 1766 0 
Q 1100 0 847 248 
Q 594 497 594 1153 
L 594 3053 
L 172 3053 
L 172 3500 
L 594 3500 
L 594 4494 
L 1172 4494 
z
" transform="scale(0.015625)"/>
      <path id="DejaVuSans-3a" d="M 750 794 
L 1409 794 
L 1409 0 
L 750 0 
L 750 794 
z
M 750 3309 
L 1409 3309 
L 1409 2516 
L 750 2516 
L 750 3309 
z
" transform="scale(0.015625)"/>
      <path id="DejaVuSans-64" d="M 2906 2969 
L 2906 4863 
L 3481 4863 
L 3481 0 
L 2906 0 
L 2906 525 
Q 2725 213 2448 61 
Q 2172 -91 1784 -91 
Q 1150 -91 751 415 
Q 353 922 353 1747 
Q 353 2572 751 3078 
Q 1150 3584 1784 3584 
Q 2172 3584 2448 3432 
Q 2725 3281 2906 2969 
z
M 947 1747 
Q 947 1113 1208 752 
Q 1469 391 1925 391 
Q 2381 391 2643 752 
Q 2906 1113 2906 1747 
Q 2906 2381 2643 2742 
Q 2381 3103 1925 3103 
Q 1469 3103 1208 2742 
Q 947 2381 947 1747 
z
" transform="scale(0.015625)"/>
      <path id="DejaVuSans-62" d="M 3116 1747 
Q 3116 2381 2855 2742 
Q 2594 3103 2138 3103 
Q 1681 3103 1420 2742 
Q 1159 2381 1159 1747 
Q 1159 1113 1420 752 
Q 1681 391 2138 391 
Q 2594 391 2855 752 
Q 3116 1113 3116 1747 
z
M 1159 2969 
Q 1341 3281 1617 3432 
Q 1894 3584 2278 3584 
Q 2916 3584 3314 3078 
Q 3713 2572 3713 1747 
Q 3713 922 3314 415 
Q 2916 -91 2278 -91 
Q 1894 -91 1617 61 
Q 1341 213 1159 525 
L 1159 0 
L 581 0 
L 581 4863 
L 1159 4863 
L 1159 2969 
z
" transform="scale(0.015625)"/>
      <path id="DejaVuSans-61" d="M 2194 1759 
Q 1497 1759 1228 1600 
Q 959 1441 959 1056 
Q 959 750 1161 570 
Q 1363 391 1709 391 
Q 2188 391 2477 730 
Q 2766 1069 2766 1631 
L 2766 1759 
L 2194 1759 
z
M 3341 1997 
L 3341 0 
L 2766 0 
L 2766 531 
Q 2569 213 2275 61 
Q 1981 -91 1556 -91 
Q 1019 -91 701 211 
Q 384 513 384 1019 
Q 384 1609 779 1909 
Q 1175 2209 1959 2209 
L 2766 2209 
L 2766 2266 
Q 2766 2663 2505 2880 
Q 2244 3097 1772 3097 
Q 1472 3097 1187 3025 
Q 903 2953 641 2809 
L 641 3341 
Q 956 3463 1253 3523 
Q 1550 3584 1831 3584 
Q 2591 3584 2966 3190 
Q 3341 2797 3341 1997 
z
" transform="scale(0.015625)"/>
      <path id="DejaVuSans-6b" d="M 581 4863 
L 1159 4863 
L 1159 1991 
L 2875 3500 
L 3609 3500 
L 1753 1863 
L 3688 0 
L 2938 0 
L 1159 1709 
L 1159 0 
L 581 0 
L 581 4863 
z
" transform="scale(0.015625)"/>
      <path id="DejaVuSans-6f" d="M 1959 3097 
Q 1497 3097 1228 2736 
Q 959 2375 959 1747 
Q 959 1119 1226 758 
Q 1494 397 1959 397 
Q 2419 397 2687 759 
Q 2956 1122 2956 1747 
Q 2956 2369 2687 2733 
Q 2419 3097 1959 3097 
z
M 1959 3584 
Q 2709 3584 3137 3096 
Q 3566 2609 3566 1747 
Q 3566 888 3137 398 
Q 2709 -91 1959 -91 
Q 1206 -91 779 398 
Q 353 888 353 1747 
Q 353 2609 779 3096 
Q 1206 3584 1959 3584 
z
" transform="scale(0.015625)"/>
      <path id="DejaVuSans-75" d="M 544 1381 
L 544 3500 
L 1119 3500 
L 1119 1403 
Q 1119 906 1312 657 
Q 1506 409 1894 409 
Q 2359 409 2629 706 
Q 2900 1003 2900 1516 
L 2900 3500 
L 3475 3500 
L 3475 0 
L 2900 0 
L 2900 538 
Q 2691 219 2414 64 
Q 2138 -91 1772 -91 
Q 1169 -91 856 284 
Q 544 659 544 1381 
z
M 1991 3584 
L 1991 3584 
z
" transform="scale(0.015625)"/>
     </defs>
     <use xlink:href="#DejaVuSans-73"/>
     <use xlink:href="#DejaVuSans-72" x="52.099609"/>
     <use xlink:href="#DejaVuSans-31" x="93.212891"/>
     <use xlink:href="#DejaVuSans-20" x="156.835938"/>
     <use xlink:href="#DejaVuSans-73" x="188.623047"/>
     <use xlink:href="#DejaVuSans-70" x="240.722656"/>
     <use xlink:href="#DejaVuSans-6c" x="304.199219"/>
     <use xlink:href="#DejaVuSans-69" x="331.982422"/>
     <use xlink:href="#DejaVuSans-63" x="359.765625"/>
     <use xlink:href="#DejaVuSans-65" x="414.746094"/>
     <use xlink:href="#DejaVuSans-20" x="476.269531"/>
     <use xlink:href="#DejaVuSans-73" x="508.056641"/>
     <use xlink:href="#DejaVuSans-69" x="560.15625"/>
     <use xlink:href="#DejaVuSans-74" x="587.939453"/>
     <use xlink:href="#DejaVuSans-65" x="627.148438"/>
     <use xlink:href="#DejaVuSans-3a" x="688.671875"/>
     <use xlink:href="#DejaVuSans-20" x="722.363281"/>
     <use xlink:href="#DejaVuSans-64" x="754.150391"/>
     <use xlink:href="#DejaVuSans-65" x="817.626953"/>
     <use xlink:href="#DejaVuSans-74" x="879.150391"/>
     <use xlink:href="#DejaVuSans-65" x="918.359375"/>
     <use xlink:href="#DejaVuSans-63" x="979.882812"/>
     <use xlink:href="#DejaVuSans-74" x="1034.863281"/>
     <use xlink:href="#DejaVuSans-65" x="1074.072266"/>
     <use xlink:href="#DejaVuSans-64" x="1135.595703"/>
     <use xlink:href="#DejaVuSans-20" x="1199.072266"/>
     <use xlink:href="#DejaVuSans-76" x="1230.859375"/>
     <use xlink:href="#DejaVuSans-73" x="1290.039062"/>
     <use xlink:href="#DejaVuSans-2e" x="1342.138672"/>
     <use xlink:href="#DejaVuSans-20" x="1373.925781"/>
     <use xlink:href="#DejaVuSans-62" x="1405.712891"/>
     <use xlink:href="#DejaVuSans-61" x="1469.189453"/>
     <use xlink:href="#DejaVuSans-63" x="1530.46875"/>
     <use xlink:href="#DejaVuSans-6b" x="1585.449219"/>
     <use xlink:href="#DejaVuSans-67" x="1643.359375"/>
     <use xlink:href="#DejaVuSans-72" x="1706.835938"/>
     <use xlink:href="#DejaVuSans-6f" x="1745.699219"/>
     <use xlink:href="#DejaVuSans-75" x="1806.880859"/>
     <use xlink:href="#DejaVuSans-6e" x="1870.259766"/>
     <use xlink:href="#DejaVuSans-64" x="1933.638672"/>
    </g>
   </g>
  </g>
 </g>
 <defs>
  <clipPath id="p17d3103fd5">
   <rect x="62.39" y="26.88" width="286.81" height="305.24"/>
  </clipPath>
 </defs>
</svg>
