<?xml version="1.0" encoding="utf-8" standalone="no"?>
<!DOCTYPE svg PUBLIC "-//W3C//DTD SVG 1.1//EN"
  "http://www.w3.org/Graphics/SVG/1.1/DTD/svg11.dtd">
<svg xmlns:xlink="http://www.w3.org/1999/xlink" width="360pt" height="360pt" viewBox="0 0 360 360" xmlns="http://www.w3.org/2000/svg" version="1.1">
 <metadata>
  <rdf:RDF xmlns:dc="http://purl.org/dc/elements/1.1/" xmlns:cc="http://creativecommons.org/ns#" xmlns:rdf="http://www.w3.org/1999/02/22-rdf-syntax-ns#">
   <cc:Work>
    <dc:type rdf:resource="http://purl.org/dc/dcmitype/StillImage"/>
    <dc:date>2024-12-04T10:36:09.591534</dc:date>
    <dc:format>image/svg+xml</dc:format>
    <dc:creator>
     <cc:Agent>
      <dc:title>Matplotlib v3.8.4, https://matplotlib.org/</dc:title>
     </cc:Agent>
    </dc:creator>
   </cc:Work>
  </rdf:RDF>
 </metadata>
 <defs>
  <style type="text/css">*{stroke-linejoin: round; stroke-linecap: butt}</style>
 </defs>
 <g id="figure_1">
  <g id="patch_1">
   <path d="M 0 360 
L 360 360 
L 360 0 
L 0 0 
z
" style="fill: #ffffff"/>
  </g>
  <g id="axes_1">
   <g id="patch_2">
    <path d="M 62.39 332.12 
L 349.2 332.12 
L 349.2 26.88 
L 62.39 26.88 
z
" style="fill: #ffffff"/>
   </g>
   <g id="line2d_1">
    <path d="M 62.39 179.5 
L 349.2 179.5 
" clip-path="url(#p2e167aef55)" style="fill: none; stroke: #000000; stroke-width: 0.5; stroke-linecap: square"/>
   </g>
   <g id="patch_3">
    <path d="M 96.8072 177.884383 
L 110.011024 177.884383 
L 110.011024 178.431617 
L 129.492976 178.431617 
L 129.492976 177.884383 
L 142.6968 177.884383 
L 142.6968 179.320487 
L 129.492976 179.320487 
L 129.492976 178.711697 
L 110.011024 178.711697 
L 110.011024 179.320487 
L 96.8072 179.320487 
L 96.8072 177.884383 
z
" clip-path="url(#p2e167aef55)" style="fill: #2e8b57; opacity: 0.5"/>
   </g>
   <g id="patch_4">
    <path d="M 96.8072 175.928559 
L 110.34419 175.928559 
L 119.734316 176.773527 
L 129.186336 175.928559 
L 142.6968 175.928559 
L 142.6968 177.507502 
L 132.643529 177.507502 
L 132.643529 176.352565 
L 123.138458 177.203963 
L 116.392068 177.203963 
L 106.886997 176.352565 
L 106.886997 177.507502 
L 96.8072 177.507502 
L 96.8072 175.928559 
z
" clip-path="url(#p2e167aef55)" style="fill: #ffa500; opacity: 0.5"/>
   </g>
   <g id="patch_5">
    <path d="M 96.8072 173.809134 
L 108.159974 173.809134 
L 119.766074 175.070183 
L 131.353409 173.809134 
L 142.6968 173.809134 
L 126.483913 175.517629 
L 113.020087 175.517629 
L 96.8072 173.809134 
z
" clip-path="url(#p2e167aef55)" style="fill: #ffa500; opacity: 0.5"/>
   </g>
   <g id="patch_6">
    <path d="M 115.426698 171.506357 
Q 119.544996 171.506357 121.33177 171.414386 
Q 123.118545 171.321758 123.118545 171.110225 
Q 123.118545 170.900663 121.33177 170.810663 
Q 119.544996 170.720006 115.426698 170.720006 
L 109.913845 170.720006 
L 109.913845 171.506357 
L 115.426698 171.506357 
z
M 109.913845 172.052269 
L 109.913845 173.212415 
L 96.8072 173.212415 
L 96.8072 170.14716 
L 116.821254 170.14716 
Q 126.866413 170.14716 131.540354 170.350809 
Q 136.22519 170.553802 136.22519 170.993291 
Q 136.22519 171.296794 133.784717 171.491904 
Q 131.35514 171.687013 126.452405 171.779641 
Q 129.143461 171.816429 131.26798 171.947159 
Q 133.403393 172.077232 135.582387 172.341977 
L 142.6968 173.212415 
L 128.740348 173.212415 
L 122.541111 172.451028 
Q 120.667177 172.221101 118.738768 172.137013 
Q 116.821254 172.052269 113.618134 172.052269 
L 109.913845 172.052269 
z
" clip-path="url(#p2e167aef55)" style="fill: #2e8b57; opacity: 0.5"/>
   </g>
   <g id="patch_7">
    <path d="M 96.8072 164.704113 
L 141.741632 164.704113 
L 141.741632 165.581286 
L 113.460349 165.581286 
L 113.460349 166.417974 
L 140.066627 166.417974 
L 140.066627 167.295146 
L 113.460349 167.295146 
L 113.460349 168.325584 
L 142.6968 168.325584 
L 142.6968 169.201793 
L 96.8072 169.201793 
L 96.8072 164.704113 
z
" clip-path="url(#p2e167aef55)" style="fill: #b22222; opacity: 0.5"/>
   </g>
   <g id="patch_8">
    <path d="M 96.8072 157.735274 
L 142.6968 157.735274 
L 142.6968 158.845915 
L 126.187216 158.845915 
L 126.187216 163.430055 
L 113.3488 163.430055 
L 113.3488 158.845915 
L 96.8072 158.845915 
L 96.8072 157.735274 
z
" clip-path="url(#p2e167aef55)" style="fill: #1e90ff; opacity: 0.5"/>
   </g>
   <g id="patch_9">
    <path d="M 142.6968 155.555642 
Q 138.858214 155.820795 134.707454 155.954913 
Q 130.556694 156.090573 126.03595 156.090573 
Q 112.554652 156.090573 104.680926 155.085457 
Q 96.8072 154.080342 96.8072 152.361472 
Q 96.8072 150.636436 104.680926 149.632862 
Q 112.554652 148.627747 126.03595 148.627747 
Q 130.556694 148.627747 134.707454 148.763407 
Q 138.858214 148.897525 142.6968 149.162678 
L 142.6968 150.65031 
Q 138.823528 150.298828 135.065876 150.13542 
Q 131.308225 149.972011 127.157465 149.972011 
Q 119.711533 149.972011 115.445153 150.608687 
Q 111.190335 151.243821 111.190335 152.361472 
Q 111.190335 153.474498 115.445153 154.111174 
Q 119.711533 154.746308 127.157465 154.746308 
Q 131.308225 154.746308 135.065876 154.5829 
Q 138.823528 154.41795 142.6968 154.066468 
L 142.6968 155.555642 
z
" clip-path="url(#p2e167aef55)" style="fill: #1e90ff"/>
   </g>
   <g id="patch_10">
    <path d="M 138.870589 130.917835 
L 138.870589 134.096231 
Q 134.08471 133.542907 129.52317 133.263028 
Q 124.974092 132.979932 120.923543 132.979932 
Q 115.551893 132.979932 112.972005 133.362755 
Q 110.40458 133.742361 110.40458 134.546611 
Q 110.40458 135.151407 112.136969 135.489192 
Q 113.869357 135.82376 118.430898 136.065035 
L 124.81207 136.396386 
Q 134.50846 136.901455 138.596398 137.927679 
Q 142.6968 138.950685 142.6968 140.842281 
Q 142.6968 143.322588 136.988642 144.535397 
Q 131.280485 145.748206 119.552588 145.748206 
Q 114.031379 145.748206 108.460317 145.474761 
Q 102.889255 145.204533 97.318192 144.670511 
L 97.318192 141.405256 
Q 102.889255 142.167685 108.08642 142.556942 
Q 113.283585 142.942982 118.119317 142.942982 
Q 123.029829 142.942982 125.634643 142.521555 
Q 128.239457 142.096911 128.239457 141.311963 
Q 128.239457 140.610657 126.469679 140.227834 
Q 124.699901 139.845011 119.40303 139.542613 
L 113.595166 139.211262 
Q 104.870908 138.728712 100.832822 137.673536 
Q 96.8072 136.618359 96.8072 134.829707 
Q 96.8072 132.587458 102.415652 131.381083 
Q 108.024104 130.174708 118.543067 130.174708 
Q 123.341409 130.174708 128.401479 130.361294 
Q 133.461549 130.54788 138.870589 130.917835 
z
" clip-path="url(#p2e167aef55)" style="fill: #1e90ff"/>
   </g>
   <g id="patch_11">
    <path d="M 120.975723 123.603939 
L 120.077051 123.603939 
Q 109.053987 123.603939 102.925813 121.716377 
Q 96.8072 119.825852 96.8072 116.456688 
Q 96.8072 113.09345 102.916253 111.188109 
Q 109.025306 109.279805 119.752 109.279805 
Q 130.593418 109.279805 136.645109 111.17033 
Q 142.6968 113.057891 142.6968 116.456688 
Q 142.6968 118.78873 139.484528 120.474794 
Q 136.272256 122.160858 130.239686 123.011298 
L 139.226399 126.122663 
L 128.260697 126.122663 
L 120.975723 123.603939 
z
M 119.752 111.86372 
Q 114.493817 111.86372 111.597036 113.066781 
Q 108.700255 114.269842 108.700255 116.456688 
Q 108.700255 118.679092 111.530113 119.86141 
Q 114.369532 121.040766 119.752 121.040766 
Q 125.038864 121.040766 127.935645 119.837705 
Q 130.832426 118.63168 130.832426 116.456688 
Q 130.832426 114.269842 127.935645 113.066781 
Q 125.038864 111.86372 119.752 111.86372 
z
" clip-path="url(#p2e167aef55)" style="fill: #1e90ff"/>
   </g>
   <g id="patch_12">
    <path d="M 154.1692 179.147113 
L 166.856325 179.147113 
L 177.104359 179.25891 
L 187.342753 179.147113 
L 200.0588 179.147113 
L 182.917685 179.328624 
L 182.917685 179.46079 
L 171.319956 179.46079 
L 171.319956 179.328624 
L 154.1692 179.147113 
z
" clip-path="url(#p2e167aef55)" style="fill: #ffa500; opacity: 0.5"/>
   </g>
   <g id="patch_13">
    <path d="M 168.787426 176.976531 
L 185.440574 176.976531 
L 185.440574 178.871084 
L 168.787426 178.871084 
L 168.787426 176.976531 
z
" clip-path="url(#p2e167aef55)" style="fill: #ffa500; opacity: 0.5"/>
   </g>
   <g id="patch_14">
    <path d="M 200.0588 176.125024 
Q 196.220214 176.236067 192.069454 176.292234 
Q 187.918694 176.349046 183.39795 176.349046 
Q 169.916652 176.349046 162.042926 175.928118 
Q 154.1692 175.50719 154.1692 174.787351 
Q 154.1692 174.06493 162.042926 173.644648 
Q 169.916652 173.22372 183.39795 173.22372 
Q 187.918694 173.22372 192.069454 173.280532 
Q 196.220214 173.336699 200.0588 173.447741 
L 200.0588 174.070741 
Q 196.185528 173.923545 192.427876 173.855112 
Q 188.670225 173.786679 184.519465 173.786679 
Q 177.073533 173.786679 172.807153 174.05331 
Q 168.552335 174.319295 168.552335 174.787351 
Q 168.552335 175.253471 172.807153 175.520102 
Q 177.073533 175.786087 184.519465 175.786087 
Q 188.670225 175.786087 192.427876 175.717654 
Q 196.185528 175.648575 200.0588 175.50138 
L 200.0588 176.125024 
z
" clip-path="url(#p2e167aef55)" style="fill: #1e90ff"/>
   </g>
   <g id="patch_15">
    <path d="M 154.1692 167.882462 
L 165.521974 167.882462 
L 177.128074 171.130514 
L 188.715409 167.882462 
L 200.0588 167.882462 
L 183.845913 172.282988 
L 170.382087 172.282988 
L 154.1692 167.882462 
z
" clip-path="url(#p2e167aef55)" style="fill: #ffa500; opacity: 0.5"/>
   </g>
   <g id="patch_16">
    <path d="M 200.0588 164.952632 
Q 195.430759 165.452254 190.453043 165.703206 
Q 185.475328 165.951876 180.168507 165.951876 
Q 168.176738 165.951876 161.172969 164.464417 
Q 154.1692 162.976957 154.1692 160.433219 
Q 154.1692 157.859823 161.296384 156.383771 
Q 168.433852 154.907718 180.847287 154.907718 
Q 185.629596 154.907718 190.010808 155.10848 
Q 194.402305 155.30696 198.28986 155.699357 
L 198.28986 157.900888 
Q 194.278891 157.396703 190.30906 157.148033 
Q 186.339229 156.897081 182.348829 156.897081 
Q 174.964532 156.897081 170.963847 157.814196 
Q 166.963163 158.729029 166.963163 160.433219 
Q 166.963163 162.12144 170.819864 163.043117 
Q 174.676565 163.962513 181.772895 163.962513 
Q 183.706388 163.962513 185.362198 163.910041 
Q 187.018008 163.855288 188.334429 163.741219 
L 188.334429 161.67429 
L 180.775295 161.67429 
L 180.775295 159.833216 
L 200.0588 159.833216 
L 200.0588 164.952632 
z
" clip-path="url(#p2e167aef55)" style="fill: #1e90ff"/>
   </g>
   <g id="patch_17">
    <path d="M 154.1692 137.783492 
L 167.70619 137.783492 
L 177.096316 145.272568 
L 186.548336 137.783492 
L 200.0588 137.783492 
L 200.0588 151.777898 
L 190.005529 151.777898 
L 190.005529 141.541527 
L 180.500458 149.087589 
L 173.754068 149.087589 
L 164.248997 141.541527 
L 164.248997 151.777898 
L 154.1692 151.777898 
L 154.1692 137.783492 
z
" clip-path="url(#p2e167aef55)" style="fill: #ffa500"/>
   </g>
   <g id="patch_18">
    <path d="M 154.1692 115.674268 
L 170.822349 115.674268 
L 170.822349 130.246298 
L 200.0588 130.246298 
L 200.0588 133.771977 
L 154.1692 133.771977 
L 154.1692 115.674268 
z
" clip-path="url(#p2e167aef55)" style="fill: #ffa500"/>
   </g>
   <g id="patch_19">
    <path d="M 154.1692 70.471277 
L 199.103632 70.471277 
L 199.103632 77.915408 
L 170.822349 77.915408 
L 170.822349 85.015964 
L 197.428627 85.015964 
L 197.428627 92.460096 
L 170.822349 92.460096 
L 170.822349 101.204905 
L 200.0588 101.204905 
L 200.0588 108.640856 
L 154.1692 108.640856 
L 154.1692 70.471277 
z
" clip-path="url(#p2e167aef55)" style="fill: #b22222"/>
   </g>
   <g id="patch_20">
    <path d="M 166.744414 24.402572 
L 166.744414 51.498039 
L 171.249748 51.498039 
Q 178.953765 51.498039 183.020065 48.014744 
Q 187.096817 44.531449 187.096817 37.897961 
Q 187.096817 31.302542 183.040971 27.857316 
Q 178.995578 24.402572 171.249748 24.402572 
L 166.744414 24.402572 
z
M 154.1692 15.741921 
L 167.423873 15.741921 
Q 178.535637 15.741921 183.971307 17.188535 
Q 189.406977 18.625632 193.295572 22.080375 
Q 196.724225 25.08781 198.386286 29.018414 
Q 200.0588 32.9395 200.0588 37.897961 
Q 200.0588 42.932559 198.386286 46.87268 
Q 196.724225 50.8128 193.295572 53.810718 
Q 189.375617 57.265462 183.887681 58.712076 
Q 178.399745 60.149173 167.423873 60.149173 
L 154.1692 60.149173 
L 154.1692 15.741921 
z
" clip-path="url(#p2e167aef55)" style="fill: #b22222"/>
   </g>
   <g id="patch_21">
    <path d="M 211.5312 177.705024 
L 226.271629 177.705024 
L 244.897472 178.799261 
L 244.897472 177.705024 
L 257.4208 177.705024 
L 257.4208 179.300558 
L 242.669395 179.300558 
L 224.043552 178.206321 
L 224.043552 179.300558 
L 211.5312 179.300558 
L 211.5312 177.705024 
z
" clip-path="url(#p2e167aef55)" style="fill: #1e90ff; opacity: 0.5"/>
   </g>
   <g id="patch_22">
    <path d="M 253.594589 165.639012 
L 253.594589 167.887122 
Q 248.80871 167.49575 244.24717 167.297789 
Q 239.698092 167.097553 235.647543 167.097553 
Q 230.275893 167.097553 227.696005 167.368327 
Q 225.12858 167.636826 225.12858 168.20568 
Q 225.12858 168.633458 226.860969 168.872376 
Q 228.593357 169.109019 233.154898 169.279675 
L 239.53607 169.514043 
Q 249.23246 169.871283 253.320398 170.59714 
Q 257.4208 171.320722 257.4208 172.658665 
Q 257.4208 174.41301 251.712642 175.270841 
Q 246.004485 176.128672 234.276588 176.128672 
Q 228.755379 176.128672 223.184317 175.935262 
Q 217.613255 175.744127 212.042192 175.366409 
L 212.042192 173.056863 
Q 217.613255 173.596136 222.81042 173.871461 
Q 228.007585 174.144511 232.843317 174.144511 
Q 237.753829 174.144511 240.358643 173.846432 
Q 242.963457 173.546077 242.963457 172.990876 
Q 242.963457 172.494836 241.193679 172.224061 
Q 239.423901 171.953287 234.12703 171.739398 
L 228.319166 171.50503 
Q 219.594908 171.163718 215.556822 170.417382 
Q 211.5312 169.671046 211.5312 168.405916 
Q 211.5312 166.819952 217.139652 165.966672 
Q 222.748104 165.113392 233.267067 165.113392 
Q 238.065409 165.113392 243.125479 165.245366 
Q 248.185549 165.37734 253.594589 165.639012 
z
" clip-path="url(#p2e167aef55)" style="fill: #1e90ff"/>
   </g>
   <g id="patch_23">
    <path d="M 235.699723 160.556776 
L 234.801051 160.556776 
Q 223.777987 160.556776 217.649813 159.258813 
Q 211.5312 157.958811 211.5312 155.642038 
Q 211.5312 153.32934 217.640253 152.01915 
Q 223.749306 150.706923 234.476 150.706923 
Q 245.317418 150.706923 251.369109 152.006925 
Q 257.4208 153.304888 257.4208 155.642038 
Q 257.4208 157.245645 254.208528 158.40505 
Q 250.996256 159.564456 244.963686 160.149252 
L 253.950399 162.288753 
L 242.984697 162.288753 
L 235.699723 160.556776 
z
M 234.476 152.483728 
Q 229.217817 152.483728 226.321036 153.311001 
Q 223.424255 154.138275 223.424255 155.642038 
Q 223.424255 157.170253 226.254113 157.983263 
Q 229.093532 158.794235 234.476 158.794235 
Q 239.762864 158.794235 242.659645 157.966962 
Q 245.556426 157.137651 245.556426 155.642038 
Q 245.556426 154.138275 242.659645 153.311001 
Q 239.762864 152.483728 234.476 152.483728 
z
" clip-path="url(#p2e167aef55)" style="fill: #1e90ff"/>
   </g>
   <g id="patch_24">
    <path d="M 211.5312 131.53266 
L 225.06819 131.53266 
L 234.458316 139.964942 
L 243.910336 131.53266 
L 257.4208 131.53266 
L 257.4208 147.28958 
L 247.367529 147.28958 
L 247.367529 135.763998 
L 237.862458 144.260442 
L 231.116068 144.260442 
L 221.610997 135.763998 
L 221.610997 147.28958 
L 211.5312 147.28958 
L 211.5312 131.53266 
z
" clip-path="url(#p2e167aef55)" style="fill: #ffa500"/>
   </g>
   <g id="patch_25">
    <path d="M 211.5312 100.134123 
L 222.883974 100.134123 
L 234.490074 119.442255 
L 246.077409 100.134123 
L 257.4208 100.134123 
L 241.207913 126.293165 
L 227.744087 126.293165 
L 211.5312 100.134123 
z
" clip-path="url(#p2e167aef55)" style="fill: #ffa500"/>
   </g>
   <g id="patch_26">
    <path d="M 243.318966 88.110081 
L 225.670564 88.110081 
L 222.883974 93.301804 
L 211.5312 93.301804 
L 227.744087 64.802296 
L 241.207913 64.802296 
L 257.4208 93.301804 
L 246.077409 93.301804 
L 243.318966 88.110081 
z
M 228.485301 82.820631 
L 240.476082 82.820631 
L 234.490074 71.48435 
L 228.485301 82.820631 
z
" clip-path="url(#p2e167aef55)" style="fill: #ffa500"/>
   </g>
   <g id="patch_27">
    <path d="M 268.8932 177.741042 
L 314.7828 177.741042 
L 314.7828 178.045972 
L 298.273216 178.045972 
L 298.273216 179.30456 
L 285.4348 179.30456 
L 285.4348 178.045972 
L 268.8932 178.045972 
L 268.8932 177.741042 
z
" clip-path="url(#p2e167aef55)" style="fill: #1e90ff; opacity: 0.5"/>
   </g>
   <g id="patch_28">
    <path d="M 268.8932 175.733799 
L 276.828219 175.733799 
L 282.375163 176.904219 
L 287.880813 175.733799 
L 295.857125 175.733799 
L 301.362776 176.904219 
L 306.916601 175.733799 
L 314.7828 175.733799 
L 307.21253 177.344291 
L 297.667108 177.344291 
L 291.838 176.120027 
L 286.077713 177.344291 
L 276.525409 177.344291 
L 268.8932 175.733799 
z
" clip-path="url(#p2e167aef55)" style="fill: #ffa500; opacity: 0.5"/>
   </g>
   <g id="patch_29">
    <path d="M 268.8932 169.21163 
L 285.546349 169.21163 
L 285.546349 173.735602 
L 314.7828 173.735602 
L 314.7828 174.83017 
L 268.8932 174.83017 
L 268.8932 169.21163 
z
" clip-path="url(#p2e167aef55)" style="fill: #ffa500; opacity: 0.5"/>
   </g>
   <g id="patch_30">
    <path d="M 268.8932 160.645377 
L 282.097024 160.645377 
L 282.097024 163.30901 
L 301.578976 163.30901 
L 301.578976 160.645377 
L 314.7828 160.645377 
L 314.7828 167.635542 
L 301.578976 167.635542 
L 301.578976 164.672287 
L 282.097024 164.672287 
L 282.097024 167.635542 
L 268.8932 167.635542 
L 268.8932 160.645377 
z
" clip-path="url(#p2e167aef55)" style="fill: #2e8b57"/>
   </g>
   <g id="patch_31">
    <path d="M 268.8932 147.735747 
L 282.43019 147.735747 
L 291.820316 153.461048 
L 301.272336 147.735747 
L 314.7828 147.735747 
L 314.7828 158.434288 
L 304.729529 158.434288 
L 304.729529 150.608715 
L 295.224458 156.377582 
L 288.478068 156.377582 
L 278.972997 150.608715 
L 278.972997 158.434288 
L 268.8932 158.434288 
L 268.8932 147.735747 
z
" clip-path="url(#p2e167aef55)" style="fill: #ffa500"/>
   </g>
   <g id="patch_32">
    <path d="M 268.8932 133.336386 
L 292.746232 133.336386 
Q 303.394053 133.336386 309.082451 134.321778 
Q 314.7828 135.304682 314.7828 137.123675 
Q 314.7828 138.952623 309.082451 139.935526 
Q 303.394053 140.91843 292.746232 140.91843 
L 283.269551 140.91843 
L 283.269551 144.947091 
L 268.8932 144.947091 
L 268.8932 133.336386 
z
M 283.269551 135.506239 
L 283.269551 138.748577 
L 291.216578 138.748577 
Q 295.399224 138.748577 297.681754 138.325555 
Q 299.964283 137.902533 299.964283 137.123675 
Q 299.964283 136.347306 297.681754 135.926773 
Q 295.399224 135.506239 291.216578 135.506239 
L 283.269551 135.506239 
z
" clip-path="url(#p2e167aef55)" style="fill: #ff1493"/>
   </g>
   <g id="patch_33">
    <path d="M 283.511426 110.554465 
L 300.164574 110.554465 
L 300.164574 129.514983 
L 283.511426 129.514983 
L 283.511426 110.554465 
z
" clip-path="url(#p2e167aef55)" style="fill: #ffa500"/>
   </g>
   <g id="patch_34">
    <path d="M 314.7828 99.837103 
Q 310.154759 101.589586 305.177043 102.469828 
Q 300.199328 103.342068 294.892507 103.342068 
Q 282.900738 103.342068 275.896969 98.124632 
Q 268.8932 92.907196 268.8932 83.984741 
Q 268.8932 74.958257 276.020384 69.780833 
Q 283.157852 64.603408 295.571287 64.603408 
Q 300.353596 64.603408 304.734808 65.307602 
Q 309.126305 66.003793 313.01386 67.380172 
L 313.01386 75.102297 
Q 309.002891 73.33381 305.03306 72.46157 
Q 301.063229 71.581328 297.072829 71.581328 
Q 289.688532 71.581328 285.687847 74.798213 
Q 281.687163 78.007096 281.687163 83.984741 
Q 281.687163 89.906371 285.543864 93.13926 
Q 289.400565 96.364148 296.496895 96.364148 
Q 298.430388 96.364148 300.086198 96.180097 
Q 301.742008 95.988044 303.058429 95.587934 
L 303.058429 88.337939 
L 295.499295 88.337939 
L 295.499295 81.880162 
L 314.7828 81.880162 
L 314.7828 99.837103 
z
" clip-path="url(#p2e167aef55)" style="fill: #1e90ff"/>
   </g>
   <g id="patch_35">
    <path d="M 128.594966 248.62762 
L 110.946564 248.62762 
L 108.159974 250.524179 
L 96.8072 250.524179 
L 113.020087 240.113185 
L 126.483913 240.113185 
L 142.6968 250.524179 
L 131.353409 250.524179 
L 128.594966 248.62762 
z
M 113.761301 246.695361 
L 125.752082 246.695361 
L 119.766074 242.554168 
L 113.761301 246.695361 
z
" clip-path="url(#p2e167aef55)" style="fill: #ffa500"/>
   </g>
   <g id="patch_36">
    <path d="M 109.382414 195.839875 
L 109.382414 199.120868 
L 113.887748 199.120868 
Q 121.591765 199.120868 125.658065 198.699075 
Q 129.734817 198.277283 129.734817 197.474033 
Q 129.734817 196.675393 125.678971 196.25821 
Q 121.633578 195.839875 113.887748 195.839875 
L 109.382414 195.839875 
z
M 96.8072 194.791156 
L 110.061873 194.791156 
Q 121.173637 194.791156 126.609307 194.966327 
Q 132.044977 195.140345 135.933572 195.55868 
Q 139.362225 195.922851 141.024286 196.398808 
Q 142.6968 196.873613 142.6968 197.474033 
Q 142.6968 198.083673 141.024286 198.560783 
Q 139.362225 199.037892 135.933572 199.40091 
Q 132.013617 199.819246 126.525681 199.994416 
Q 121.037745 200.168435 110.061873 200.168435 
L 96.8072 200.168435 
L 96.8072 194.791156 
z
" clip-path="url(#p2e167aef55)" style="fill: #b22222; opacity: 0.5"/>
   </g>
   <g id="patch_37">
    <path d="M 97.284784 218.666733 
L 142.219216 218.666733 
L 142.219216 220.315389 
L 113.937933 220.315389 
L 113.937933 221.887954 
L 140.544211 221.887954 
L 140.544211 223.53661 
L 113.937933 223.53661 
L 113.937933 227.120173 
L 97.284784 227.120173 
L 97.284784 218.666733 
z
" clip-path="url(#p2e167aef55)" style="fill: #ffa500"/>
   </g>
   <g id="patch_38">
    <path d="M 142.6968 207.543909 
Q 138.068759 207.837038 133.091043 207.984271 
Q 128.113328 208.130166 122.806507 208.130166 
Q 110.814738 208.130166 103.810969 207.257472 
Q 96.8072 206.384778 96.8072 204.892364 
Q 96.8072 203.38255 103.934384 202.516548 
Q 111.071852 201.650547 123.485287 201.650547 
Q 128.267596 201.650547 132.648808 201.768334 
Q 137.040305 201.884782 140.92786 202.115002 
L 140.92786 203.406643 
Q 136.916891 203.110837 132.94706 202.964942 
Q 128.977229 202.817708 124.986829 202.817708 
Q 117.602532 202.817708 113.601847 203.35578 
Q 109.601163 203.892514 109.601163 204.892364 
Q 109.601163 205.882845 113.457864 206.423594 
Q 117.314565 206.963005 124.410895 206.963005 
Q 126.344388 206.963005 128.000198 206.93222 
Q 129.656008 206.900096 130.972429 206.833172 
L 130.972429 205.620502 
L 123.413295 205.620502 
L 123.413295 204.540342 
L 142.6968 204.540342 
L 142.6968 207.543909 
z
" clip-path="url(#p2e167aef55)" style="fill: #1e90ff; opacity: 0.5"/>
   </g>
   <g id="patch_39">
    <path d="M 111.425426 209.807112 
L 128.078574 209.807112 
L 128.078574 216.743059 
L 111.425426 216.743059 
L 111.425426 209.807112 
z
" clip-path="url(#p2e167aef55)" style="fill: #ffa500"/>
   </g>
   <g id="patch_40">
    <path d="M 96.8072 229.240349 
L 108.900341 229.240349 
L 108.900341 232.345593 
L 126.331352 229.240349 
L 140.374676 229.240349 
L 117.786739 233.270055 
L 142.6968 237.748315 
L 127.557756 237.748315 
L 108.900341 234.396913 
L 108.900341 237.748315 
L 96.8072 237.748315 
L 96.8072 229.240349 
z
" clip-path="url(#p2e167aef55)" style="fill: #2e8b57; opacity: 0.5"/>
   </g>
   <g id="patch_41">
    <path d="M 96.8072 182.96306 
L 113.460349 182.96306 
L 113.460349 186.418609 
L 142.6968 186.418609 
L 142.6968 187.254674 
L 96.8072 187.254674 
L 96.8072 182.96306 
z
" clip-path="url(#p2e167aef55)" style="fill: #ffa500; opacity: 0.5"/>
   </g>
   <g id="patch_42">
    <path d="M 96.8072 180.72808 
L 111.547629 180.72808 
L 130.173472 181.763521 
L 130.173472 180.72808 
L 142.6968 180.72808 
L 142.6968 182.237883 
L 127.945395 182.237883 
L 109.319552 181.202441 
L 109.319552 182.237883 
L 96.8072 182.237883 
L 96.8072 180.72808 
z
" clip-path="url(#p2e167aef55)" style="fill: #1e90ff; opacity: 0.5"/>
   </g>
   <g id="patch_43">
    <path d="M 96.8072 188.423912 
L 120.660232 188.423912 
Q 131.308053 188.423912 136.996451 188.853546 
Q 142.6968 189.282094 142.6968 190.07518 
Q 142.6968 190.872606 136.996451 191.301154 
Q 131.308053 191.729703 120.660232 191.729703 
L 111.183551 191.729703 
L 111.183551 193.486209 
L 96.8072 193.486209 
L 96.8072 188.423912 
z
M 111.183551 189.369974 
L 111.183551 190.783641 
L 119.130578 190.783641 
Q 123.313224 190.783641 125.595754 190.599203 
Q 127.878283 190.414764 127.878283 190.07518 
Q 127.878283 189.736681 125.595754 189.553328 
Q 123.313224 189.369974 119.130578 189.369974 
L 111.183551 189.369974 
z
" clip-path="url(#p2e167aef55)" style="fill: #ff1493; opacity: 0.5"/>
   </g>
   <g id="patch_44">
    <path d="M 96.8072 179.501462 
L 104.742219 179.501462 
L 110.289163 179.509964 
L 115.794813 179.501462 
L 123.771125 179.501462 
L 129.276776 179.509964 
L 134.830601 179.501462 
L 142.6968 179.501462 
L 135.12653 179.513161 
L 125.581108 179.513161 
L 119.752 179.504268 
L 113.991713 179.513161 
L 104.439409 179.513161 
L 96.8072 179.501462 
z
" clip-path="url(#p2e167aef55)" style="fill: #ffa500; opacity: 0.5"/>
   </g>
   <g id="patch_45">
    <path d="M 96.8072 179.617096 
L 109.494325 179.617096 
L 119.742359 179.909274 
L 129.980753 179.617096 
L 142.6968 179.617096 
L 125.555685 180.091468 
L 125.555685 180.436882 
L 113.957956 180.436882 
L 113.957956 180.091468 
L 96.8072 179.617096 
z
" clip-path="url(#p2e167aef55)" style="fill: #ffa500; opacity: 0.5"/>
   </g>
   <g id="patch_46">
    <path d="M 185.956966 183.168703 
L 168.308564 183.168703 
L 165.521974 183.519823 
L 154.1692 183.519823 
L 170.382087 181.59238 
L 183.845913 181.59238 
L 200.0588 183.519823 
L 188.715409 183.519823 
L 185.956966 183.168703 
z
M 171.123301 182.810974 
L 183.114082 182.810974 
L 177.128074 182.044292 
L 171.123301 182.810974 
z
" clip-path="url(#p2e167aef55)" style="fill: #ffa500; opacity: 0.5"/>
   </g>
   <g id="patch_47">
    <path d="M 154.646784 192.701962 
L 199.581216 192.701962 
L 199.581216 194.040975 
L 171.299933 194.040975 
L 171.299933 195.318186 
L 197.906211 195.318186 
L 197.906211 196.657198 
L 171.299933 196.657198 
L 171.299933 199.56771 
L 154.646784 199.56771 
L 154.646784 192.701962 
z
" clip-path="url(#p2e167aef55)" style="fill: #ffa500"/>
   </g>
   <g id="patch_48">
    <path d="M 154.1692 201.344957 
L 167.373024 201.344957 
L 167.373024 204.146555 
L 186.854976 204.146555 
L 186.854976 201.344957 
L 200.0588 201.344957 
L 200.0588 208.697181 
L 186.854976 208.697181 
L 186.854976 205.580443 
L 167.373024 205.580443 
L 167.373024 208.697181 
L 154.1692 208.697181 
L 154.1692 201.344957 
z
" clip-path="url(#p2e167aef55)" style="fill: #2e8b57"/>
   </g>
   <g id="patch_49">
    <path d="M 154.1692 313.729049 
L 166.262341 313.729049 
L 166.262341 325.109938 
L 183.693352 313.729049 
L 197.736676 313.729049 
L 175.148739 328.498142 
L 200.0588 344.911215 
L 184.919756 344.911215 
L 166.262341 332.628142 
L 166.262341 344.911215 
L 154.1692 344.911215 
L 154.1692 313.729049 
z
" clip-path="url(#p2e167aef55)" style="fill: #2e8b57"/>
   </g>
   <g id="patch_50">
    <path d="M 154.1692 222.805694 
L 168.909629 222.805694 
L 187.535472 231.626439 
L 187.535472 222.805694 
L 200.0588 222.805694 
L 200.0588 235.667442 
L 185.307395 235.667442 
L 166.681552 226.846698 
L 166.681552 235.667442 
L 154.1692 235.667442 
L 154.1692 222.805694 
z
" clip-path="url(#p2e167aef55)" style="fill: #1e90ff"/>
   </g>
   <g id="patch_51">
    <path d="M 154.1692 286.884102 
L 178.022232 286.884102 
Q 188.670053 286.884102 194.358451 288.615222 
Q 200.0588 290.341971 200.0588 293.537548 
Q 200.0588 296.750612 194.358451 298.477361 
Q 188.670053 300.204109 178.022232 300.204109 
L 168.545551 300.204109 
L 168.545551 307.281592 
L 154.1692 307.281592 
L 154.1692 286.884102 
z
M 168.545551 290.696063 
L 168.545551 296.392148 
L 176.492578 296.392148 
Q 180.675224 296.392148 182.957754 295.64899 
Q 185.240283 294.905833 185.240283 293.537548 
Q 185.240283 292.173636 182.957754 291.43485 
Q 180.675224 290.696063 176.492578 290.696063 
L 168.545551 290.696063 
z
" clip-path="url(#p2e167aef55)" style="fill: #ff1493"/>
   </g>
   <g id="patch_52">
    <path d="M 178.337723 190.068444 
L 177.439051 190.068444 
Q 166.415987 190.068444 160.287813 189.343762 
Q 154.1692 188.617943 154.1692 187.324437 
Q 154.1692 186.033206 160.278253 185.301698 
Q 166.387306 184.569053 177.114 184.569053 
Q 187.955418 184.569053 194.007109 185.294872 
Q 200.0588 186.019554 200.0588 187.324437 
Q 200.0588 188.219766 196.846528 188.867087 
Q 193.634256 189.514409 187.601686 189.840914 
L 196.588399 191.035445 
L 185.622697 191.035445 
L 178.337723 190.068444 
z
M 177.114 185.561082 
Q 171.855817 185.561082 168.959036 186.022967 
Q 166.062255 186.484852 166.062255 187.324437 
Q 166.062255 188.177673 168.892113 188.631594 
Q 171.731532 189.084378 177.114 189.084378 
Q 182.400864 189.084378 185.297645 188.622493 
Q 188.194426 188.15947 188.194426 187.324437 
Q 188.194426 186.484852 185.297645 186.022967 
Q 182.400864 185.561082 177.114 185.561082 
z
" clip-path="url(#p2e167aef55)" style="fill: #1e90ff; opacity: 0.5"/>
   </g>
   <g id="patch_53">
    <path d="M 172.788698 214.88286 
Q 176.906996 214.88286 178.69377 214.604858 
Q 180.480545 214.32487 180.480545 213.685465 
Q 180.480545 213.052017 178.69377 212.779973 
Q 176.906996 212.505942 172.788698 212.505942 
L 167.275845 212.505942 
L 167.275845 214.88286 
L 172.788698 214.88286 
z
M 167.275845 216.533001 
L 167.275845 220.039799 
L 154.1692 220.039799 
L 154.1692 210.774386 
L 174.183254 210.774386 
Q 184.228413 210.774386 188.902354 211.389962 
Q 193.58719 212.003552 193.58719 213.332005 
Q 193.58719 214.249412 191.146717 214.839174 
Q 188.71714 215.428936 183.814405 215.708923 
Q 186.505461 215.820124 188.62998 216.215284 
Q 190.765393 216.608459 192.944387 217.408708 
L 200.0588 220.039799 
L 186.102348 220.039799 
L 179.903111 217.738339 
Q 178.029177 217.043334 176.100768 216.78916 
Q 174.183254 216.533001 170.980134 216.533001 
L 167.275845 216.533001 
z
" clip-path="url(#p2e167aef55)" style="fill: #2e8b57; opacity: 0.5"/>
   </g>
   <g id="patch_54">
    <path d="M 196.232589 240.442978 
L 196.232589 244.186201 
Q 191.44671 243.534547 186.88517 243.204931 
Q 182.336092 242.871527 178.285543 242.871527 
Q 172.913893 242.871527 170.334005 243.32238 
Q 167.76658 243.769446 167.76658 244.716618 
Q 167.76658 245.428891 169.498969 245.826703 
Q 171.231357 246.220727 175.792898 246.504878 
L 182.17407 246.895113 
Q 191.87046 247.489937 195.958398 248.698529 
Q 200.0588 249.903331 200.0588 252.13108 
Q 200.0588 255.052158 194.350642 256.480493 
Q 188.642485 257.908829 176.914588 257.908829 
Q 171.393379 257.908829 165.822317 257.58679 
Q 160.251255 257.268541 154.680192 256.639618 
L 154.680192 252.7941 
Q 160.251255 253.692019 165.44842 254.15045 
Q 170.645585 254.605093 175.481317 254.605093 
Q 180.391829 254.605093 182.996643 254.108775 
Q 185.601457 253.608668 185.601457 252.684228 
Q 185.601457 251.858294 183.831679 251.40744 
Q 182.061901 250.956587 176.76503 250.60045 
L 170.957166 250.210215 
Q 162.232908 249.641912 158.194822 248.399222 
Q 154.1692 247.156533 154.1692 245.050022 
Q 154.1692 242.409307 159.777652 240.988549 
Q 165.386104 239.567791 175.905067 239.567791 
Q 180.703409 239.567791 185.763479 239.787535 
Q 190.823549 240.007278 196.232589 240.442978 
z
" clip-path="url(#p2e167aef55)" style="fill: #1e90ff"/>
   </g>
   <g id="patch_55">
    <path d="M 154.1692 262.614754 
L 200.0588 262.614754 
L 200.0588 266.380034 
L 183.549216 266.380034 
L 183.549216 281.92112 
L 170.7108 281.92112 
L 170.7108 266.380034 
L 154.1692 266.380034 
L 154.1692 262.614754 
z
" clip-path="url(#p2e167aef55)" style="fill: #1e90ff"/>
   </g>
   <g id="patch_56">
    <path d="M 154.1692 179.685145 
L 162.104219 179.685145 
L 167.651163 180.761573 
L 173.156813 179.685145 
L 181.133125 179.685145 
L 186.638776 180.761573 
L 192.192601 179.685145 
L 200.0588 179.685145 
L 192.48853 181.166305 
L 182.943108 181.166305 
L 177.114 180.040357 
L 171.353713 181.166305 
L 161.801409 181.166305 
L 154.1692 179.685145 
z
" clip-path="url(#p2e167aef55)" style="fill: #ffa500; opacity: 0.5"/>
   </g>
   <g id="patch_57">
    <path d="M 257.4208 182.942929 
Q 253.582214 183.038535 249.431454 183.086894 
Q 245.280694 183.135809 240.75995 183.135809 
Q 227.278652 183.135809 219.404926 182.773394 
Q 211.5312 182.41098 211.5312 181.791207 
Q 211.5312 181.169211 219.404926 180.807352 
Q 227.278652 180.444938 240.75995 180.444938 
Q 245.280694 180.444938 249.431454 180.493853 
Q 253.582214 180.542212 257.4208 180.637818 
L 257.4208 181.174213 
Q 253.547528 181.047479 249.789876 180.988559 
Q 246.032225 180.929639 241.881465 180.929639 
Q 234.435533 180.929639 230.169153 181.159205 
Q 225.914335 181.388216 225.914335 181.791207 
Q 225.914335 182.192531 230.169153 182.422097 
Q 234.435533 182.651107 241.881465 182.651107 
Q 246.032225 182.651107 249.789876 182.592187 
Q 253.547528 182.532711 257.4208 182.405977 
L 257.4208 182.942929 
z
" clip-path="url(#p2e167aef55)" style="fill: #1e90ff"/>
   </g>
   <g id="patch_58">
    <path d="M 224.106414 221.814126 
L 224.106414 225.898428 
L 228.611748 225.898428 
Q 236.315765 225.898428 240.382065 225.373365 
Q 244.458817 224.848302 244.458817 223.848387 
Q 244.458817 222.85421 240.402971 222.334885 
Q 236.357578 221.814126 228.611748 221.814126 
L 224.106414 221.814126 
z
M 211.5312 220.508641 
L 224.785873 220.508641 
Q 235.897637 220.508641 241.333307 220.7267 
Q 246.768977 220.943325 250.657572 221.464084 
Q 254.086225 221.917417 255.748286 222.509906 
Q 257.4208 223.100961 257.4208 223.848387 
Q 257.4208 224.607289 255.748286 225.201213 
Q 254.086225 225.795137 250.657572 226.247035 
Q 246.737617 226.767795 241.249681 226.985854 
Q 235.761745 227.202478 224.785873 227.202478 
L 211.5312 227.202478 
L 211.5312 220.508641 
z
" clip-path="url(#p2e167aef55)" style="fill: #b22222; opacity: 0.5"/>
   </g>
   <g id="patch_59">
    <path d="M 211.5312 191.862972 
L 256.465632 191.862972 
L 256.465632 192.750989 
L 228.184349 192.750989 
L 228.184349 193.59802 
L 254.790627 193.59802 
L 254.790627 194.486037 
L 228.184349 194.486037 
L 228.184349 195.529212 
L 257.4208 195.529212 
L 257.4208 196.416253 
L 211.5312 196.416253 
L 211.5312 191.862972 
z
" clip-path="url(#p2e167aef55)" style="fill: #b22222; opacity: 0.5"/>
   </g>
   <g id="patch_60">
    <path d="M 212.008784 212.416755 
L 256.943216 212.416755 
L 256.943216 213.674495 
L 228.661933 213.674495 
L 228.661933 214.874186 
L 255.268211 214.874186 
L 255.268211 216.131926 
L 228.661933 216.131926 
L 228.661933 218.865783 
L 212.008784 218.865783 
L 212.008784 212.416755 
z
" clip-path="url(#p2e167aef55)" style="fill: #ffa500"/>
   </g>
   <g id="patch_61">
    <path d="M 257.4208 210.262567 
Q 252.792759 210.545587 247.815043 210.687743 
Q 242.837328 210.828607 237.530507 210.828607 
Q 225.538738 210.828607 218.534969 209.986009 
Q 211.5312 209.143411 211.5312 207.702466 
Q 211.5312 206.24472 218.658384 205.408583 
Q 225.795852 204.572447 238.209287 204.572447 
Q 242.991596 204.572447 247.372808 204.686172 
Q 251.764305 204.798605 255.65186 205.020885 
L 255.65186 206.267982 
Q 251.640891 205.982377 247.67106 205.841513 
Q 243.701229 205.699357 239.710829 205.699357 
Q 232.326532 205.699357 228.325847 206.218873 
Q 224.325163 206.737097 224.325163 207.702466 
Q 224.325163 208.658788 228.181864 209.180889 
Q 232.038565 209.701697 239.134895 209.701697 
Q 241.068388 209.701697 242.724198 209.671973 
Q 244.380008 209.640957 245.696429 209.576341 
L 245.696429 208.405492 
L 238.137295 208.405492 
L 238.137295 207.362583 
L 257.4208 207.362583 
L 257.4208 210.262567 
z
" clip-path="url(#p2e167aef55)" style="fill: #1e90ff; opacity: 0.5"/>
   </g>
   <g id="patch_62">
    <path d="M 211.5312 228.918529 
L 224.735024 228.918529 
L 224.735024 231.599082 
L 244.216976 231.599082 
L 244.216976 228.918529 
L 257.4208 228.918529 
L 257.4208 235.953097 
L 244.216976 235.953097 
L 244.216976 232.971019 
L 224.735024 232.971019 
L 224.735024 235.953097 
L 211.5312 235.953097 
L 211.5312 228.918529 
z
" clip-path="url(#p2e167aef55)" style="fill: #2e8b57"/>
   </g>
   <g id="patch_63">
    <path d="M 226.149426 247.260602 
L 242.802574 247.260602 
L 242.802574 257.307402 
L 226.149426 257.307402 
L 226.149426 247.260602 
z
" clip-path="url(#p2e167aef55)" style="fill: #ffa500"/>
   </g>
   <g id="patch_64">
    <path d="M 211.5312 259.911853 
L 223.624341 259.911853 
L 223.624341 263.849559 
L 241.055352 259.911853 
L 255.098676 259.911853 
L 232.510739 265.021853 
L 257.4208 270.700659 
L 242.281756 270.700659 
L 223.624341 266.450804 
L 223.624341 270.700659 
L 211.5312 270.700659 
L 211.5312 259.911853 
z
" clip-path="url(#p2e167aef55)" style="fill: #2e8b57; opacity: 0.5"/>
   </g>
   <g id="patch_65">
    <path d="M 211.5312 187.306439 
L 228.184349 187.306439 
L 228.184349 190.160287 
L 257.4208 190.160287 
L 257.4208 190.850771 
L 211.5312 190.850771 
L 211.5312 187.306439 
z
" clip-path="url(#p2e167aef55)" style="fill: #ffa500; opacity: 0.5"/>
   </g>
   <g id="patch_66">
    <path d="M 211.5312 274.620348 
L 235.384232 274.620348 
Q 246.032053 274.620348 251.720451 276.365999 
Q 257.4208 278.107242 257.4208 281.329643 
Q 257.4208 284.569678 251.720451 286.31092 
Q 246.032053 288.052163 235.384232 288.052163 
L 225.907551 288.052163 
L 225.907551 295.189054 
L 211.5312 295.189054 
L 211.5312 274.620348 
z
M 225.907551 278.464307 
L 225.907551 284.208204 
L 233.854578 284.208204 
Q 238.037224 284.208204 240.319754 283.458809 
Q 242.602283 282.709413 242.602283 281.329643 
Q 242.602283 279.954282 240.319754 279.209295 
Q 238.037224 278.464307 233.854578 278.464307 
L 225.907551 278.464307 
z
" clip-path="url(#p2e167aef55)" style="fill: #ff1493"/>
   </g>
   <g id="patch_67">
    <path d="M 230.150698 200.079901 
Q 234.268996 200.079901 236.05577 199.916557 
Q 237.842545 199.752046 237.842545 199.376356 
Q 237.842545 199.004166 236.05577 198.844322 
Q 234.268996 198.683312 230.150698 198.683312 
L 224.637845 198.683312 
L 224.637845 200.079901 
L 230.150698 200.079901 
z
M 224.637845 201.049462 
L 224.637845 203.109926 
L 211.5312 203.109926 
L 211.5312 197.665914 
L 231.545254 197.665914 
Q 241.590413 197.665914 246.264354 198.027604 
Q 250.94919 198.388127 250.94919 199.168676 
Q 250.94919 199.70771 248.508717 200.054232 
Q 246.07914 200.400754 241.176405 200.565265 
Q 243.867461 200.630602 245.99198 200.862783 
Q 248.127393 201.093798 250.306387 201.563995 
L 257.4208 203.109926 
L 243.464348 203.109926 
L 237.265111 201.757674 
Q 235.391177 201.349314 233.462768 201.199972 
Q 231.545254 201.049462 228.342134 201.049462 
L 224.637845 201.049462 
z
" clip-path="url(#p2e167aef55)" style="fill: #2e8b57; opacity: 0.5"/>
   </g>
   <g id="patch_68">
    <path d="M 211.5312 183.811291 
L 257.4208 183.811291 
L 257.4208 184.340398 
L 240.911216 184.340398 
L 240.911216 186.524275 
L 228.0728 186.524275 
L 228.0728 184.340398 
L 211.5312 184.340398 
L 211.5312 183.811291 
z
" clip-path="url(#p2e167aef55)" style="fill: #1e90ff; opacity: 0.5"/>
   </g>
   <g id="patch_69">
    <path d="M 211.5312 179.560858 
L 219.466219 179.560858 
L 225.013163 179.914684 
L 230.518813 179.560858 
L 238.495125 179.560858 
L 244.000776 179.914684 
L 249.554601 179.560858 
L 257.4208 179.560858 
L 249.85053 180.047721 
L 240.305108 180.047721 
L 234.476 179.677617 
L 228.715713 180.047721 
L 219.163409 180.047721 
L 211.5312 179.560858 
z
" clip-path="url(#p2e167aef55)" style="fill: #ffa500; opacity: 0.5"/>
   </g>
   <g id="patch_70">
    <path d="M 211.5312 237.749652 
L 224.218325 237.749652 
L 234.466359 240.364927 
L 244.704753 237.749652 
L 257.4208 237.749652 
L 240.279685 241.995739 
L 240.279685 245.087519 
L 228.681956 245.087519 
L 228.681956 241.995739 
L 211.5312 237.749652 
z
" clip-path="url(#p2e167aef55)" style="fill: #ffa500"/>
   </g>
   <g id="patch_71">
    <path d="M 300.680966 231.100083 
L 283.032564 231.100083 
L 280.245974 232.778791 
L 268.8932 232.778791 
L 285.106087 223.563667 
L 298.569913 223.563667 
L 314.7828 232.778791 
L 303.439409 232.778791 
L 300.680966 231.100083 
z
M 285.847301 229.389775 
L 297.838082 229.389775 
L 291.852074 225.724264 
L 285.847301 229.389775 
z
" clip-path="url(#p2e167aef55)" style="fill: #ffa500; opacity: 0.5"/>
   </g>
   <g id="patch_72">
    <path d="M 314.7828 182.323575 
Q 310.944214 182.388046 306.793454 182.420656 
Q 302.642694 182.453641 298.12195 182.453641 
Q 284.640652 182.453641 276.766926 182.209251 
Q 268.8932 181.964861 268.8932 181.546924 
Q 268.8932 181.127488 276.766926 180.883473 
Q 284.640652 180.639083 298.12195 180.639083 
Q 302.642694 180.639083 306.793454 180.672068 
Q 310.944214 180.704678 314.7828 180.769149 
L 314.7828 181.130862 
Q 310.909528 181.0454 307.151876 181.005668 
Q 303.394225 180.965936 299.243465 180.965936 
Q 291.797533 180.965936 287.531153 181.120741 
Q 283.276335 181.275172 283.276335 181.546924 
Q 283.276335 181.817553 287.531153 181.972358 
Q 291.797533 182.126788 299.243465 182.126788 
Q 303.394225 182.126788 307.151876 182.087056 
Q 310.909528 182.046949 314.7828 181.961488 
L 314.7828 182.323575 
z
" clip-path="url(#p2e167aef55)" style="fill: #1e90ff; opacity: 0.5"/>
   </g>
   <g id="patch_73">
    <path d="M 281.468414 201.506969 
L 281.468414 204.913509 
L 285.973748 204.913509 
Q 293.677765 204.913509 297.744065 204.475577 
Q 301.820817 204.037644 301.820817 203.203658 
Q 301.820817 202.374458 297.764971 201.941312 
Q 293.719578 201.506969 285.973748 201.506969 
L 281.468414 201.506969 
z
M 268.8932 200.418121 
L 282.147873 200.418121 
Q 293.259637 200.418121 298.695307 200.599994 
Q 304.130977 200.780671 308.019572 201.215014 
Q 311.448225 201.59312 313.110286 202.08729 
Q 314.7828 202.580263 314.7828 203.203658 
Q 314.7828 203.836626 313.110286 204.331992 
Q 311.448225 204.827359 308.019572 205.204268 
Q 304.099617 205.638611 298.611681 205.820484 
Q 293.123745 206.001161 282.147873 206.001161 
L 268.8932 206.001161 
L 268.8932 200.418121 
z
" clip-path="url(#p2e167aef55)" style="fill: #b22222; opacity: 0.5"/>
   </g>
   <g id="patch_74">
    <path d="M 268.8932 207.412619 
L 313.827632 207.412619 
L 313.827632 208.525959 
L 285.546349 208.525959 
L 285.546349 209.587914 
L 312.152627 209.587914 
L 312.152627 210.701253 
L 285.546349 210.701253 
L 285.546349 212.009122 
L 314.7828 212.009122 
L 314.7828 213.121238 
L 268.8932 213.121238 
L 268.8932 207.412619 
z
" clip-path="url(#p2e167aef55)" style="fill: #b22222; opacity: 0.5"/>
   </g>
   <g id="patch_75">
    <path d="M 269.370784 188.747949 
L 314.305216 188.747949 
L 314.305216 189.573927 
L 286.023933 189.573927 
L 286.023933 190.361784 
L 312.630211 190.361784 
L 312.630211 191.187762 
L 286.023933 191.187762 
L 286.023933 192.98313 
L 269.370784 192.98313 
L 269.370784 188.747949 
z
" clip-path="url(#p2e167aef55)" style="fill: #ffa500; opacity: 0.5"/>
   </g>
   <g id="patch_76">
    <path d="M 268.8932 252.275052 
L 280.986341 252.275052 
L 280.986341 267.511414 
L 298.417352 252.275052 
L 312.460676 252.275052 
L 289.872739 272.047431 
L 314.7828 294.020717 
L 299.643756 294.020717 
L 280.986341 277.576539 
L 280.986341 294.020717 
L 268.8932 294.020717 
L 268.8932 252.275052 
z
" clip-path="url(#p2e167aef55)" style="fill: #2e8b57"/>
   </g>
   <g id="patch_77">
    <path d="M 268.8932 182.93794 
L 283.633629 182.93794 
L 302.259472 184.350599 
L 302.259472 182.93794 
L 314.7828 182.93794 
L 314.7828 184.997773 
L 300.031395 184.997773 
L 281.405552 183.585115 
L 281.405552 184.997773 
L 268.8932 184.997773 
L 268.8932 182.93794 
z
" clip-path="url(#p2e167aef55)" style="fill: #1e90ff; opacity: 0.5"/>
   </g>
   <g id="patch_78">
    <path d="M 293.061723 198.356815 
L 292.163051 198.356815 
Q 281.139987 198.356815 275.011813 197.800262 
Q 268.8932 197.242834 268.8932 196.249425 
Q 268.8932 195.257764 275.002253 194.695968 
Q 281.111306 194.133299 291.838 194.133299 
Q 302.679418 194.133299 308.731109 194.690726 
Q 314.7828 195.247279 314.7828 196.249425 
Q 314.7828 196.937036 311.570528 197.434177 
Q 308.358256 197.931318 302.325686 198.182073 
L 311.312399 199.099469 
L 300.346697 199.099469 
L 293.061723 198.356815 
z
M 291.838 194.895174 
Q 286.579817 194.895174 283.683036 195.249901 
Q 280.786255 195.604627 280.786255 196.249425 
Q 280.786255 196.904708 283.616113 197.253319 
Q 286.455532 197.601056 291.838 197.601056 
Q 297.124864 197.601056 300.021645 197.246329 
Q 302.918426 196.890729 302.918426 196.249425 
Q 302.918426 195.604627 300.021645 195.249901 
Q 297.124864 194.895174 291.838 194.895174 
z
" clip-path="url(#p2e167aef55)" style="fill: #1e90ff; opacity: 0.5"/>
   </g>
   <g id="patch_79">
    <path d="M 287.512698 186.602772 
Q 291.630996 186.602772 293.41777 186.531643 
Q 295.204545 186.460006 295.204545 186.296408 
Q 295.204545 186.134335 293.41777 186.06473 
Q 291.630996 185.994616 287.512698 185.994616 
L 281.999845 185.994616 
L 281.999845 186.602772 
L 287.512698 186.602772 
z
M 281.999845 187.024976 
L 281.999845 187.922222 
L 268.8932 187.922222 
L 268.8932 185.551582 
L 288.907254 185.551582 
Q 298.952413 185.551582 303.626354 185.709083 
Q 308.31119 185.866076 308.31119 186.205972 
Q 308.31119 186.440699 305.870717 186.591595 
Q 303.44114 186.742491 298.538405 186.814128 
Q 301.229461 186.84258 303.35398 186.943685 
Q 305.489393 187.044282 307.668387 187.249033 
L 314.7828 187.922222 
L 300.826348 187.922222 
L 294.627111 187.333372 
Q 292.753177 187.155549 290.824768 187.090516 
Q 288.907254 187.024976 285.704134 187.024976 
L 281.999845 187.024976 
z
" clip-path="url(#p2e167aef55)" style="fill: #2e8b57; opacity: 0.5"/>
   </g>
   <g id="patch_80">
    <path d="M 310.956589 235.744375 
L 310.956589 237.887511 
Q 306.17071 237.514414 301.60917 237.325697 
Q 297.060092 237.13481 293.009543 237.13481 
Q 287.637893 237.13481 285.058005 237.392941 
Q 282.49058 237.648903 282.49058 238.191194 
Q 282.49058 238.598997 284.222969 238.826759 
Q 285.955357 239.052353 290.516898 239.21504 
L 296.89807 239.438464 
Q 306.59446 239.779023 310.682398 240.470987 
Q 314.7828 241.160781 314.7828 242.43625 
Q 314.7828 244.108677 309.074642 244.926452 
Q 303.366485 245.744228 291.638588 245.744228 
Q 286.117379 245.744228 280.546317 245.559849 
Q 274.975255 245.377639 269.404192 245.017557 
L 269.404192 242.815854 
Q 274.975255 243.329947 280.17242 243.592416 
Q 285.369585 243.852715 290.205317 243.852715 
Q 295.115829 243.852715 297.720643 243.568555 
Q 300.325457 243.282225 300.325457 242.752949 
Q 300.325457 242.280071 298.555679 242.02194 
Q 296.785901 241.763809 291.48903 241.559908 
L 285.681166 241.336484 
Q 276.956908 241.011109 272.918822 240.299623 
Q 268.8932 239.588136 268.8932 238.38208 
Q 268.8932 236.870172 274.501652 236.056735 
Q 280.110104 235.243298 290.629067 235.243298 
Q 295.427409 235.243298 300.487479 235.36911 
Q 305.547549 235.494921 310.956589 235.744375 
z
" clip-path="url(#p2e167aef55)" style="fill: #1e90ff"/>
   </g>
   <g id="patch_81">
    <path d="M 268.8932 179.591226 
L 280.245974 179.591226 
L 291.852074 180.129903 
L 303.439409 179.591226 
L 314.7828 179.591226 
L 298.569913 180.321037 
L 285.106087 180.321037 
L 268.8932 179.591226 
z
" clip-path="url(#p2e167aef55)" style="fill: #ffa500; opacity: 0.5"/>
   </g>
   <g id="patch_82">
    <path d="M 268.8932 214.692512 
L 281.580325 214.692512 
L 291.828359 217.13803 
L 302.066753 214.692512 
L 314.7828 214.692512 
L 297.641685 218.662987 
L 297.641685 221.554081 
L 286.043956 221.554081 
L 286.043956 218.662987 
L 268.8932 214.692512 
z
" clip-path="url(#p2e167aef55)" style="fill: #ffa500"/>
   </g>
   <g id="matplotlib.axis_1">
    <g id="xtick_1">
     <g id="line2d_2">
      <defs>
       <path id="m2e4ba01683" d="M 0 0 
L 0 3.5 
" style="stroke: #000000; stroke-width: 0.8"/>
      </defs>
      <g>
       <use xlink:href="#m2e4ba01683" x="119.752" y="332.12" style="stroke: #000000; stroke-width: 0.8"/>
      </g>
     </g>
    </g>
    <g id="xtick_2">
     <g id="line2d_3">
      <g>
       <use xlink:href="#m2e4ba01683" x="177.114" y="332.12" style="stroke: #000000; stroke-width: 0.8"/>
      </g>
     </g>
     <g id="text_1">
      <!-- p1 -->
      <g transform="translate(170.758531 346.718437) scale(0.1 -0.1)">
       <defs>
        <path id="DejaVuSans-70" d="M 1159 525 
L 1159 -1331 
L 581 -1331 
L 581 3500 
L 1159 3500 
L 1159 2969 
Q 1341 3281 1617 3432 
Q 1894 3584 2278 3584 
Q 2916 3584 3314 3078 
Q 3713 2572 3713 1747 
Q 3713 922 3314 415 
Q 2916 -91 2278 -91 
Q 1894 -91 1617 61 
Q 1341 213 1159 525 
z
M 3116 1747 
Q 3116 2381 2855 2742 
Q 2594 3103 2138 3103 
Q 1681 3103 1420 2742 
Q 1159 2381 1159 1747 
Q 1159 1113 1420 752 
Q 1681 391 2138 391 
Q 2594 391 2855 752 
Q 3116 1113 3116 1747 
z
" transform="scale(0.015625)"/>
        <path id="DejaVuSans-31" d="M 794 531 
L 1825 531 
L 1825 4091 
L 703 3866 
L 703 4441 
L 1819 4666 
L 2450 4666 
L 2450 531 
L 3481 531 
L 3481 0 
L 794 0 
L 794 531 
z
" transform="scale(0.015625)"/>
       </defs>
       <use xlink:href="#DejaVuSans-70"/>
       <use xlink:href="#DejaVuSans-31" x="63.476562"/>
      </g>
     </g>
    </g>
    <g id="xtick_3">
     <g id="line2d_4">
      <g>
       <use xlink:href="#m2e4ba01683" x="234.476" y="332.12" style="stroke: #000000; stroke-width: 0.8"/>
      </g>
     </g>
    </g>
    <g id="xtick_4">
     <g id="line2d_5">
      <g>
       <use xlink:href="#m2e4ba01683" x="291.838" y="332.12" style="stroke: #000000; stroke-width: 0.8"/>
      </g>
     </g>
    </g>
   </g>
   <g id="matplotlib.axis_2">
    <g id="ytick_1">
     <g id="line2d_6">
      <defs>
       <path id="maea1f8db3c" d="M 0 0 
L -3.5 0 
" style="stroke: #000000; stroke-width: 0.8"/>
      </defs>
      <g>
       <use xlink:href="#maea1f8db3c" x="62.39" y="332.12" style="stroke: #000000; stroke-width: 0.8"/>
      </g>
     </g>
     <g id="text_2">
      <!-- −0.03 -->
      <g transform="translate(24.744688 335.919219) scale(0.1 -0.1)">
       <defs>
        <path id="DejaVuSans-2212" d="M 678 2272 
L 4684 2272 
L 4684 1741 
L 678 1741 
L 678 2272 
z
" transform="scale(0.015625)"/>
        <path id="DejaVuSans-30" d="M 2034 4250 
Q 1547 4250 1301 3770 
Q 1056 3291 1056 2328 
Q 1056 1369 1301 889 
Q 1547 409 2034 409 
Q 2525 409 2770 889 
Q 3016 1369 3016 2328 
Q 3016 3291 2770 3770 
Q 2525 4250 2034 4250 
z
M 2034 4750 
Q 2819 4750 3233 4129 
Q 3647 3509 3647 2328 
Q 3647 1150 3233 529 
Q 2819 -91 2034 -91 
Q 1250 -91 836 529 
Q 422 1150 422 2328 
Q 422 3509 836 4129 
Q 1250 4750 2034 4750 
z
" transform="scale(0.015625)"/>
        <path id="DejaVuSans-2e" d="M 684 794 
L 1344 794 
L 1344 0 
L 684 0 
L 684 794 
z
" transform="scale(0.015625)"/>
        <path id="DejaVuSans-33" d="M 2597 2516 
Q 3050 2419 3304 2112 
Q 3559 1806 3559 1356 
Q 3559 666 3084 287 
Q 2609 -91 1734 -91 
Q 1441 -91 1130 -33 
Q 819 25 488 141 
L 488 750 
Q 750 597 1062 519 
Q 1375 441 1716 441 
Q 2309 441 2620 675 
Q 2931 909 2931 1356 
Q 2931 1769 2642 2001 
Q 2353 2234 1838 2234 
L 1294 2234 
L 1294 2753 
L 1863 2753 
Q 2328 2753 2575 2939 
Q 2822 3125 2822 3475 
Q 2822 3834 2567 4026 
Q 2313 4219 1838 4219 
Q 1578 4219 1281 4162 
Q 984 4106 628 3988 
L 628 4550 
Q 988 4650 1302 4700 
Q 1616 4750 1894 4750 
Q 2613 4750 3031 4423 
Q 3450 4097 3450 3541 
Q 3450 3153 3228 2886 
Q 3006 2619 2597 2516 
z
" transform="scale(0.015625)"/>
       </defs>
       <use xlink:href="#DejaVuSans-2212"/>
       <use xlink:href="#DejaVuSans-30" x="83.789062"/>
       <use xlink:href="#DejaVuSans-2e" x="147.412109"/>
       <use xlink:href="#DejaVuSans-30" x="179.199219"/>
       <use xlink:href="#DejaVuSans-33" x="242.822266"/>
      </g>
     </g>
    </g>
    <g id="ytick_2">
     <g id="line2d_7">
      <g>
       <use xlink:href="#maea1f8db3c" x="62.39" y="281.246667" style="stroke: #000000; stroke-width: 0.8"/>
      </g>
     </g>
     <g id="text_3">
      <!-- −0.02 -->
      <g transform="translate(24.744688 285.045885) scale(0.1 -0.1)">
       <defs>
        <path id="DejaVuSans-32" d="M 1228 531 
L 3431 531 
L 3431 0 
L 469 0 
L 469 531 
Q 828 903 1448 1529 
Q 2069 2156 2228 2338 
Q 2531 2678 2651 2914 
Q 2772 3150 2772 3378 
Q 2772 3750 2511 3984 
Q 2250 4219 1831 4219 
Q 1534 4219 1204 4116 
Q 875 4013 500 3803 
L 500 4441 
Q 881 4594 1212 4672 
Q 1544 4750 1819 4750 
Q 2544 4750 2975 4387 
Q 3406 4025 3406 3419 
Q 3406 3131 3298 2873 
Q 3191 2616 2906 2266 
Q 2828 2175 2409 1742 
Q 1991 1309 1228 531 
z
" transform="scale(0.015625)"/>
       </defs>
       <use xlink:href="#DejaVuSans-2212"/>
       <use xlink:href="#DejaVuSans-30" x="83.789062"/>
       <use xlink:href="#DejaVuSans-2e" x="147.412109"/>
       <use xlink:href="#DejaVuSans-30" x="179.199219"/>
       <use xlink:href="#DejaVuSans-32" x="242.822266"/>
      </g>
     </g>
    </g>
    <g id="ytick_3">
     <g id="line2d_8">
      <g>
       <use xlink:href="#maea1f8db3c" x="62.39" y="230.373333" style="stroke: #000000; stroke-width: 0.8"/>
      </g>
     </g>
     <g id="text_4">
      <!-- −0.01 -->
      <g transform="translate(24.744688 234.172552) scale(0.1 -0.1)">
       <use xlink:href="#DejaVuSans-2212"/>
       <use xlink:href="#DejaVuSans-30" x="83.789062"/>
       <use xlink:href="#DejaVuSans-2e" x="147.412109"/>
       <use xlink:href="#DejaVuSans-30" x="179.199219"/>
       <use xlink:href="#DejaVuSans-31" x="242.822266"/>
      </g>
     </g>
    </g>
    <g id="ytick_4">
     <g id="line2d_9">
      <g>
       <use xlink:href="#maea1f8db3c" x="62.39" y="179.5" style="stroke: #000000; stroke-width: 0.8"/>
      </g>
     </g>
     <g id="text_5">
      <!-- 0.00 -->
      <g transform="translate(33.124375 183.299219) scale(0.1 -0.1)">
       <use xlink:href="#DejaVuSans-30"/>
       <use xlink:href="#DejaVuSans-2e" x="63.623047"/>
       <use xlink:href="#DejaVuSans-30" x="95.410156"/>
       <use xlink:href="#DejaVuSans-30" x="159.033203"/>
      </g>
     </g>
    </g>
    <g id="ytick_5">
     <g id="line2d_10">
      <g>
       <use xlink:href="#maea1f8db3c" x="62.39" y="128.626667" style="stroke: #000000; stroke-width: 0.8"/>
      </g>
     </g>
     <g id="text_6">
      <!-- 0.01 -->
      <g transform="translate(33.124375 132.425885) scale(0.1 -0.1)">
       <use xlink:href="#DejaVuSans-30"/>
       <use xlink:href="#DejaVuSans-2e" x="63.623047"/>
       <use xlink:href="#DejaVuSans-30" x="95.410156"/>
       <use xlink:href="#DejaVuSans-31" x="159.033203"/>
      </g>
     </g>
    </g>
    <g id="ytick_6">
     <g id="line2d_11">
      <g>
       <use xlink:href="#maea1f8db3c" x="62.39" y="77.753333" style="stroke: #000000; stroke-width: 0.8"/>
      </g>
     </g>
     <g id="text_7">
      <!-- 0.02 -->
      <g transform="translate(33.124375 81.552552) scale(0.1 -0.1)">
       <use xlink:href="#DejaVuSans-30"/>
       <use xlink:href="#DejaVuSans-2e" x="63.623047"/>
       <use xlink:href="#DejaVuSans-30" x="95.410156"/>
       <use xlink:href="#DejaVuSans-32" x="159.033203"/>
      </g>
     </g>
    </g>
    <g id="ytick_7">
     <g id="line2d_12">
      <g>
       <use xlink:href="#maea1f8db3c" x="62.39" y="26.88" style="stroke: #000000; stroke-width: 0.8"/>
      </g>
     </g>
     <g id="text_8">
      <!-- 0.03 -->
      <g transform="translate(33.124375 30.679219) scale(0.1 -0.1)">
       <use xlink:href="#DejaVuSans-30"/>
       <use xlink:href="#DejaVuSans-2e" x="63.623047"/>
       <use xlink:href="#DejaVuSans-30" x="95.410156"/>
       <use xlink:href="#DejaVuSans-33" x="159.033203"/>
      </g>
     </g>
    </g>
    <g id="text_9">
     <!-- JS Divergence -->
     <g transform="translate(18.665 214.226562) rotate(-90) scale(0.1 -0.1)">
      <defs>
       <path id="DejaVuSans-4a" d="M 628 4666 
L 1259 4666 
L 1259 325 
Q 1259 -519 939 -900 
Q 619 -1281 -91 -1281 
L -331 -1281 
L -331 -750 
L -134 -750 
Q 284 -750 456 -515 
Q 628 -281 628 325 
L 628 4666 
z
" transform="scale(0.015625)"/>
       <path id="DejaVuSans-53" d="M 3425 4513 
L 3425 3897 
Q 3066 4069 2747 4153 
Q 2428 4238 2131 4238 
Q 1616 4238 1336 4038 
Q 1056 3838 1056 3469 
Q 1056 3159 1242 3001 
Q 1428 2844 1947 2747 
L 2328 2669 
Q 3034 2534 3370 2195 
Q 3706 1856 3706 1288 
Q 3706 609 3251 259 
Q 2797 -91 1919 -91 
Q 1588 -91 1214 -16 
Q 841 59 441 206 
L 441 856 
Q 825 641 1194 531 
Q 1563 422 1919 422 
Q 2459 422 2753 634 
Q 3047 847 3047 1241 
Q 3047 1584 2836 1778 
Q 2625 1972 2144 2069 
L 1759 2144 
Q 1053 2284 737 2584 
Q 422 2884 422 3419 
Q 422 4038 858 4394 
Q 1294 4750 2059 4750 
Q 2388 4750 2728 4690 
Q 3069 4631 3425 4513 
z
" transform="scale(0.015625)"/>
       <path id="DejaVuSans-20" transform="scale(0.015625)"/>
       <path id="DejaVuSans-44" d="M 1259 4147 
L 1259 519 
L 2022 519 
Q 2988 519 3436 956 
Q 3884 1394 3884 2338 
Q 3884 3275 3436 3711 
Q 2988 4147 2022 4147 
L 1259 4147 
z
M 628 4666 
L 1925 4666 
Q 3281 4666 3915 4102 
Q 4550 3538 4550 2338 
Q 4550 1131 3912 565 
Q 3275 0 1925 0 
L 628 0 
L 628 4666 
z
" transform="scale(0.015625)"/>
       <path id="DejaVuSans-69" d="M 603 3500 
L 1178 3500 
L 1178 0 
L 603 0 
L 603 3500 
z
M 603 4863 
L 1178 4863 
L 1178 4134 
L 603 4134 
L 603 4863 
z
" transform="scale(0.015625)"/>
       <path id="DejaVuSans-76" d="M 191 3500 
L 800 3500 
L 1894 563 
L 2988 3500 
L 3597 3500 
L 2284 0 
L 1503 0 
L 191 3500 
z
" transform="scale(0.015625)"/>
       <path id="DejaVuSans-65" d="M 3597 1894 
L 3597 1613 
L 953 1613 
Q 991 1019 1311 708 
Q 1631 397 2203 397 
Q 2534 397 2845 478 
Q 3156 559 3463 722 
L 3463 178 
Q 3153 47 2828 -22 
Q 2503 -91 2169 -91 
Q 1331 -91 842 396 
Q 353 884 353 1716 
Q 353 2575 817 3079 
Q 1281 3584 2069 3584 
Q 2775 3584 3186 3129 
Q 3597 2675 3597 1894 
z
M 3022 2063 
Q 3016 2534 2758 2815 
Q 2500 3097 2075 3097 
Q 1594 3097 1305 2825 
Q 1016 2553 972 2059 
L 3022 2063 
z
" transform="scale(0.015625)"/>
       <path id="DejaVuSans-72" d="M 2631 2963 
Q 2534 3019 2420 3045 
Q 2306 3072 2169 3072 
Q 1681 3072 1420 2755 
Q 1159 2438 1159 1844 
L 1159 0 
L 581 0 
L 581 3500 
L 1159 3500 
L 1159 2956 
Q 1341 3275 1631 3429 
Q 1922 3584 2338 3584 
Q 2397 3584 2469 3576 
Q 2541 3569 2628 3553 
L 2631 2963 
z
" transform="scale(0.015625)"/>
       <path id="DejaVuSans-67" d="M 2906 1791 
Q 2906 2416 2648 2759 
Q 2391 3103 1925 3103 
Q 1463 3103 1205 2759 
Q 947 2416 947 1791 
Q 947 1169 1205 825 
Q 1463 481 1925 481 
Q 2391 481 2648 825 
Q 2906 1169 2906 1791 
z
M 3481 434 
Q 3481 -459 3084 -895 
Q 2688 -1331 1869 -1331 
Q 1566 -1331 1297 -1286 
Q 1028 -1241 775 -1147 
L 775 -588 
Q 1028 -725 1275 -790 
Q 1522 -856 1778 -856 
Q 2344 -856 2625 -561 
Q 2906 -266 2906 331 
L 2906 616 
Q 2728 306 2450 153 
Q 2172 0 1784 0 
Q 1141 0 747 490 
Q 353 981 353 1791 
Q 353 2603 747 3093 
Q 1141 3584 1784 3584 
Q 2172 3584 2450 3431 
Q 2728 3278 2906 2969 
L 2906 3500 
L 3481 3500 
L 3481 434 
z
" transform="scale(0.015625)"/>
       <path id="DejaVuSans-6e" d="M 3513 2113 
L 3513 0 
L 2938 0 
L 2938 2094 
Q 2938 2591 2744 2837 
Q 2550 3084 2163 3084 
Q 1697 3084 1428 2787 
Q 1159 2491 1159 1978 
L 1159 0 
L 581 0 
L 581 3500 
L 1159 3500 
L 1159 2956 
Q 1366 3272 1645 3428 
Q 1925 3584 2291 3584 
Q 2894 3584 3203 3211 
Q 3513 2838 3513 2113 
z
" transform="scale(0.015625)"/>
       <path id="DejaVuSans-63" d="M 3122 3366 
L 3122 2828 
Q 2878 2963 2633 3030 
Q 2388 3097 2138 3097 
Q 1578 3097 1268 2742 
Q 959 2388 959 1747 
Q 959 1106 1268 751 
Q 1578 397 2138 397 
Q 2388 397 2633 464 
Q 2878 531 3122 666 
L 3122 134 
Q 2881 22 2623 -34 
Q 2366 -91 2075 -91 
Q 1284 -91 818 406 
Q 353 903 353 1747 
Q 353 2603 823 3093 
Q 1294 3584 2113 3584 
Q 2378 3584 2631 3529 
Q 2884 3475 3122 3366 
z
" transform="scale(0.015625)"/>
      </defs>
      <use xlink:href="#DejaVuSans-4a"/>
      <use xlink:href="#DejaVuSans-53" x="29.492188"/>
      <use xlink:href="#DejaVuSans-20" x="92.96875"/>
      <use xlink:href="#DejaVuSans-44" x="124.755859"/>
      <use xlink:href="#DejaVuSans-69" x="201.757812"/>
      <use xlink:href="#DejaVuSans-76" x="229.541016"/>
      <use xlink:href="#DejaVuSans-65" x="288.720703"/>
      <use xlink:href="#DejaVuSans-72" x="350.244141"/>
      <use xlink:href="#DejaVuSans-67" x="389.607422"/>
      <use xlink:href="#DejaVuSans-65" x="453.083984"/>
      <use xlink:href="#DejaVuSans-6e" x="514.607422"/>
      <use xlink:href="#DejaVuSans-63" x="577.986328"/>
      <use xlink:href="#DejaVuSans-65" x="632.966797"/>
     </g>
    </g>
   </g>
   <g id="line2d_13">
    <path d="M 205.795 293.965 
L 205.795 65.035 
" clip-path="url(#p2e167aef55)" style="fill: none; stroke-dasharray: 1.85,0.8; stroke-dashoffset: 0; stroke: #000000; stroke-width: 0.5"/>
   </g>
   <g id="patch_83">
    <path d="M 62.39 332.12 
L 62.39 26.88 
" style="fill: none; stroke: #000000; stroke-width: 0.8; stroke-linejoin: miter; stroke-linecap: square"/>
   </g>
   <g id="patch_84">
    <path d="M 62.39 332.12 
L 349.2 332.12 
" style="fill: none; stroke: #000000; stroke-width: 0.8; stroke-linejoin: miter; stroke-linecap: square"/>
   </g>
   <g id="text_10">
    <!-- sr2 splice site: detected vs. background -->
    <g transform="translate(85.9675 20.88) scale(0.12 -0.12)">
     <defs>
      <path id="DejaVuSans-73" d="M 2834 3397 
L 2834 2853 
Q 2591 2978 2328 3040 
Q 2066 3103 1784 3103 
Q 1356 3103 1142 2972 
Q 928 2841 928 2578 
Q 928 2378 1081 2264 
Q 1234 2150 1697 2047 
L 1894 2003 
Q 2506 1872 2764 1633 
Q 3022 1394 3022 966 
Q 3022 478 2636 193 
Q 2250 -91 1575 -91 
Q 1294 -91 989 -36 
Q 684 19 347 128 
L 347 722 
Q 666 556 975 473 
Q 1284 391 1588 391 
Q 1994 391 2212 530 
Q 2431 669 2431 922 
Q 2431 1156 2273 1281 
Q 2116 1406 1581 1522 
L 1381 1569 
Q 847 1681 609 1914 
Q 372 2147 372 2553 
Q 372 3047 722 3315 
Q 1072 3584 1716 3584 
Q 2034 3584 2315 3537 
Q 2597 3491 2834 3397 
z
" transform="scale(0.015625)"/>
      <path id="DejaVuSans-6c" d="M 603 4863 
L 1178 4863 
L 1178 0 
L 603 0 
L 603 4863 
z
" transform="scale(0.015625)"/>
      <path id="DejaVuSans-74" d="M 1172 4494 
L 1172 3500 
L 2356 3500 
L 2356 3053 
L 1172 3053 
L 1172 1153 
Q 1172 725 1289 603 
Q 1406 481 1766 481 
L 2356 481 
L 2356 0 
L 1766 0 
Q 1100 0 847 248 
Q 594 497 594 1153 
L 594 3053 
L 172 3053 
L 172 3500 
L 594 3500 
L 594 4494 
L 1172 4494 
z
" transform="scale(0.015625)"/>
      <path id="DejaVuSans-3a" d="M 750 794 
L 1409 794 
L 1409 0 
L 750 0 
L 750 794 
z
M 750 3309 
L 1409 3309 
L 1409 2516 
L 750 2516 
L 750 3309 
z
" transform="scale(0.015625)"/>
      <path id="DejaVuSans-64" d="M 2906 2969 
L 2906 4863 
L 3481 4863 
L 3481 0 
L 2906 0 
L 2906 525 
Q 2725 213 2448 61 
Q 2172 -91 1784 -91 
Q 1150 -91 751 415 
Q 353 922 353 1747 
Q 353 2572 751 3078 
Q 1150 3584 1784 3584 
Q 2172 3584 2448 3432 
Q 2725 3281 2906 2969 
z
M 947 1747 
Q 947 1113 1208 752 
Q 1469 391 1925 391 
Q 2381 391 2643 752 
Q 2906 1113 2906 1747 
Q 2906 2381 2643 2742 
Q 2381 3103 1925 3103 
Q 1469 3103 1208 2742 
Q 947 2381 947 1747 
z
" transform="scale(0.015625)"/>
      <path id="DejaVuSans-62" d="M 3116 1747 
Q 3116 2381 2855 2742 
Q 2594 3103 2138 3103 
Q 1681 3103 1420 2742 
Q 1159 2381 1159 1747 
Q 1159 1113 1420 752 
Q 1681 391 2138 391 
Q 2594 391 2855 752 
Q 3116 1113 3116 1747 
z
M 1159 2969 
Q 1341 3281 1617 3432 
Q 1894 3584 2278 3584 
Q 2916 3584 3314 3078 
Q 3713 2572 3713 1747 
Q 3713 922 3314 415 
Q 2916 -91 2278 -91 
Q 1894 -91 1617 61 
Q 1341 213 1159 525 
L 1159 0 
L 581 0 
L 581 4863 
L 1159 4863 
L 1159 2969 
z
" transform="scale(0.015625)"/>
      <path id="DejaVuSans-61" d="M 2194 1759 
Q 1497 1759 1228 1600 
Q 959 1441 959 1056 
Q 959 750 1161 570 
Q 1363 391 1709 391 
Q 2188 391 2477 730 
Q 2766 1069 2766 1631 
L 2766 1759 
L 2194 1759 
z
M 3341 1997 
L 3341 0 
L 2766 0 
L 2766 531 
Q 2569 213 2275 61 
Q 1981 -91 1556 -91 
Q 1019 -91 701 211 
Q 384 513 384 1019 
Q 384 1609 779 1909 
Q 1175 2209 1959 2209 
L 2766 2209 
L 2766 2266 
Q 2766 2663 2505 2880 
Q 2244 3097 1772 3097 
Q 1472 3097 1187 3025 
Q 903 2953 641 2809 
L 641 3341 
Q 956 3463 1253 3523 
Q 1550 3584 1831 3584 
Q 2591 3584 2966 3190 
Q 3341 2797 3341 1997 
z
" transform="scale(0.015625)"/>
      <path id="DejaVuSans-6b" d="M 581 4863 
L 1159 4863 
L 1159 1991 
L 2875 3500 
L 3609 3500 
L 1753 1863 
L 3688 0 
L 2938 0 
L 1159 1709 
L 1159 0 
L 581 0 
L 581 4863 
z
" transform="scale(0.015625)"/>
      <path id="DejaVuSans-6f" d="M 1959 3097 
Q 1497 3097 1228 2736 
Q 959 2375 959 1747 
Q 959 1119 1226 758 
Q 1494 397 1959 397 
Q 2419 397 2687 759 
Q 2956 1122 2956 1747 
Q 2956 2369 2687 2733 
Q 2419 3097 1959 3097 
z
M 1959 3584 
Q 2709 3584 3137 3096 
Q 3566 2609 3566 1747 
Q 3566 888 3137 398 
Q 2709 -91 1959 -91 
Q 1206 -91 779 398 
Q 353 888 353 1747 
Q 353 2609 779 3096 
Q 1206 3584 1959 3584 
z
" transform="scale(0.015625)"/>
      <path id="DejaVuSans-75" d="M 544 1381 
L 544 3500 
L 1119 3500 
L 1119 1403 
Q 1119 906 1312 657 
Q 1506 409 1894 409 
Q 2359 409 2629 706 
Q 2900 1003 2900 1516 
L 2900 3500 
L 3475 3500 
L 3475 0 
L 2900 0 
L 2900 538 
Q 2691 219 2414 64 
Q 2138 -91 1772 -91 
Q 1169 -91 856 284 
Q 544 659 544 1381 
z
M 1991 3584 
L 1991 3584 
z
" transform="scale(0.015625)"/>
     </defs>
     <use xlink:href="#DejaVuSans-73"/>
     <use xlink:href="#DejaVuSans-72" x="52.099609"/>
     <use xlink:href="#DejaVuSans-32" x="93.212891"/>
     <use xlink:href="#DejaVuSans-20" x="156.835938"/>
     <use xlink:href="#DejaVuSans-73" x="188.623047"/>
     <use xlink:href="#DejaVuSans-70" x="240.722656"/>
     <use xlink:href="#DejaVuSans-6c" x="304.199219"/>
     <use xlink:href="#DejaVuSans-69" x="331.982422"/>
     <use xlink:href="#DejaVuSans-63" x="359.765625"/>
     <use xlink:href="#DejaVuSans-65" x="414.746094"/>
     <use xlink:href="#DejaVuSans-20" x="476.269531"/>
     <use xlink:href="#DejaVuSans-73" x="508.056641"/>
     <use xlink:href="#DejaVuSans-69" x="560.15625"/>
     <use xlink:href="#DejaVuSans-74" x="587.939453"/>
     <use xlink:href="#DejaVuSans-65" x="627.148438"/>
     <use xlink:href="#DejaVuSans-3a" x="688.671875"/>
     <use xlink:href="#DejaVuSans-20" x="722.363281"/>
     <use xlink:href="#DejaVuSans-64" x="754.150391"/>
     <use xlink:href="#DejaVuSans-65" x="817.626953"/>
     <use xlink:href="#DejaVuSans-74" x="879.150391"/>
     <use xlink:href="#DejaVuSans-65" x="918.359375"/>
     <use xlink:href="#DejaVuSans-63" x="979.882812"/>
     <use xlink:href="#DejaVuSans-74" x="1034.863281"/>
     <use xlink:href="#DejaVuSans-65" x="1074.072266"/>
     <use xlink:href="#DejaVuSans-64" x="1135.595703"/>
     <use xlink:href="#DejaVuSans-20" x="1199.072266"/>
     <use xlink:href="#DejaVuSans-76" x="1230.859375"/>
     <use xlink:href="#DejaVuSans-73" x="1290.039062"/>
     <use xlink:href="#DejaVuSans-2e" x="1342.138672"/>
     <use xlink:href="#DejaVuSans-20" x="1373.925781"/>
     <use xlink:href="#DejaVuSans-62" x="1405.712891"/>
     <use xlink:href="#DejaVuSans-61" x="1469.189453"/>
     <use xlink:href="#DejaVuSans-63" x="1530.46875"/>
     <use xlink:href="#DejaVuSans-6b" x="1585.449219"/>
     <use xlink:href="#DejaVuSans-67" x="1643.359375"/>
     <use xlink:href="#DejaVuSans-72" x="1706.835938"/>
     <use xlink:href="#DejaVuSans-6f" x="1745.699219"/>
     <use xlink:href="#DejaVuSans-75" x="1806.880859"/>
     <use xlink:href="#DejaVuSans-6e" x="1870.259766"/>
     <use xlink:href="#DejaVuSans-64" x="1933.638672"/>
    </g>
   </g>
  </g>
 </g>
 <defs>
  <clipPath id="p2e167aef55">
   <rect x="62.39" y="26.88" width="286.81" height="305.24"/>
  </clipPath>
 </defs>
</svg>
