<?xml version="1.0" encoding="utf-8" standalone="no"?>
<!DOCTYPE svg PUBLIC "-//W3C//DTD SVG 1.1//EN"
  "http://www.w3.org/Graphics/SVG/1.1/DTD/svg11.dtd">
<svg xmlns:xlink="http://www.w3.org/1999/xlink" width="360pt" height="360pt" viewBox="0 0 360 360" xmlns="http://www.w3.org/2000/svg" version="1.1">
 <metadata>
  <rdf:RDF xmlns:dc="http://purl.org/dc/elements/1.1/" xmlns:cc="http://creativecommons.org/ns#" xmlns:rdf="http://www.w3.org/1999/02/22-rdf-syntax-ns#">
   <cc:Work>
    <dc:type rdf:resource="http://purl.org/dc/dcmitype/StillImage"/>
    <dc:date>2024-12-18T13:22:07.705342</dc:date>
    <dc:format>image/svg+xml</dc:format>
    <dc:creator>
     <cc:Agent>
      <dc:title>Matplotlib v3.8.4, https://matplotlib.org/</dc:title>
     </cc:Agent>
    </dc:creator>
   </cc:Work>
  </rdf:RDF>
 </metadata>
 <defs>
  <style type="text/css">*{stroke-linejoin: round; stroke-linecap: butt}</style>
 </defs>
 <g id="figure_1">
  <g id="patch_1">
   <path d="M 0 360 
L 360 360 
L 360 0 
L 0 0 
z
" style="fill: #ffffff"/>
  </g>
  <g id="axes_1">
   <g id="patch_2">
    <path d="M 62.39 332.12 
L 349.2 332.12 
L 349.2 26.88 
L 62.39 26.88 
z
" style="fill: #ffffff"/>
   </g>
   <g id="line2d_1">
    <path d="M 62.39 179.5 
L 349.2 179.5 
" clip-path="url(#p64103bd6ea)" style="fill: none; stroke: #000000; stroke-width: 0.5; stroke-linecap: square"/>
   </g>
   <g id="patch_3">
    <path d="M 96.8072 179.392475 
L 111.547629 179.392475 
L 130.173472 179.458023 
L 130.173472 179.392475 
L 142.6968 179.392475 
L 142.6968 179.488053 
L 127.945395 179.488053 
L 109.319552 179.422504 
L 109.319552 179.488053 
L 96.8072 179.488053 
L 96.8072 179.392475 
z
" clip-path="url(#p64103bd6ea)" style="fill: #1e90ff"/>
   </g>
   <g id="patch_4">
    <path d="M 97.284784 179.034839 
L 142.219216 179.034839 
L 142.219216 179.094767 
L 113.937933 179.094767 
L 113.937933 179.151929 
L 140.544211 179.151929 
L 140.544211 179.211857 
L 113.937933 179.211857 
L 113.937933 179.342118 
L 97.284784 179.342118 
L 97.284784 179.034839 
z
" clip-path="url(#p64103bd6ea)" style="fill: #ffa500"/>
   </g>
   <g id="patch_5">
    <path d="M 96.8072 178.56893 
L 104.742219 178.56893 
L 110.289163 178.845093 
L 115.794813 178.56893 
L 123.771125 178.56893 
L 129.276776 178.845093 
L 134.830601 178.56893 
L 142.6968 178.56893 
L 135.12653 178.948929 
L 125.581108 178.948929 
L 119.752 178.660062 
L 113.991713 178.948929 
L 104.439409 178.948929 
L 96.8072 178.56893 
z
" clip-path="url(#p64103bd6ea)" style="fill: #ffa500"/>
   </g>
   <g id="patch_6">
    <path d="M 115.426698 178.245389 
Q 119.544996 178.245389 121.33177 178.233237 
Q 123.118545 178.220998 123.118545 178.193049 
Q 123.118545 178.16536 121.33177 178.153469 
Q 119.544996 178.14149 115.426698 178.14149 
L 109.913845 178.14149 
L 109.913845 178.245389 
L 115.426698 178.245389 
z
M 109.913845 178.317518 
L 109.913845 178.470805 
L 96.8072 178.470805 
L 96.8072 178.065802 
L 116.821254 178.065802 
Q 126.866413 178.065802 131.540354 178.09271 
Q 136.22519 178.11953 136.22519 178.177599 
Q 136.22519 178.2177 133.784717 178.243479 
Q 131.35514 178.269258 126.452405 178.281497 
Q 129.143461 178.286358 131.26798 178.303631 
Q 133.403393 178.320817 135.582387 178.355797 
L 142.6968 178.470805 
L 128.740348 178.470805 
L 122.541111 178.370205 
Q 120.667177 178.339826 118.738768 178.328716 
Q 116.821254 178.317518 113.618134 178.317518 
L 109.913845 178.317518 
z
" clip-path="url(#p64103bd6ea)" style="fill: #2e8b57"/>
   </g>
   <g id="patch_7">
    <path d="M 138.870589 177.444251 
L 138.870589 177.552412 
Q 134.08471 177.533583 129.52317 177.524058 
Q 124.974092 177.514425 120.923543 177.514425 
Q 115.551893 177.514425 112.972005 177.527452 
Q 110.40458 177.54037 110.40458 177.567739 
Q 110.40458 177.58832 112.136969 177.599815 
Q 113.869357 177.6112 118.430898 177.619411 
L 124.81207 177.630687 
Q 134.50846 177.647874 138.596398 177.682797 
Q 142.6968 177.71761 142.6968 177.781981 
Q 142.6968 177.866386 136.988642 177.907658 
Q 131.280485 177.94893 119.552588 177.94893 
Q 114.031379 177.94893 108.460317 177.939625 
Q 102.889255 177.930429 97.318192 177.912256 
L 97.318192 177.801139 
Q 102.889255 177.827085 108.08642 177.840331 
Q 113.283585 177.853468 118.119317 177.853468 
Q 123.029829 177.853468 125.634643 177.839127 
Q 128.239457 177.824676 128.239457 177.797965 
Q 128.239457 177.774099 126.469679 177.761072 
Q 124.699901 177.748044 119.40303 177.737753 
L 113.595166 177.726477 
Q 104.870908 177.710056 100.832822 177.674148 
Q 96.8072 177.638241 96.8072 177.577373 
Q 96.8072 177.501069 102.415652 177.460016 
Q 108.024104 177.418962 118.543067 177.418962 
Q 123.341409 177.418962 128.401479 177.425312 
Q 133.461549 177.431662 138.870589 177.444251 
z
" clip-path="url(#p64103bd6ea)" style="fill: #1e90ff"/>
   </g>
   <g id="patch_8">
    <path d="M 142.6968 177.212449 
Q 138.858214 177.237788 134.707454 177.250605 
Q 130.556694 177.263569 126.03595 177.263569 
Q 112.554652 177.263569 104.680926 177.167517 
Q 96.8072 177.071464 96.8072 176.907203 
Q 96.8072 176.742351 104.680926 176.646446 
Q 112.554652 176.550394 126.03595 176.550394 
Q 130.556694 176.550394 134.707454 176.563358 
Q 138.858214 176.576175 142.6968 176.601514 
L 142.6968 176.743677 
Q 138.823528 176.710088 135.065876 176.694472 
Q 131.308225 176.678857 127.157465 176.678857 
Q 119.711533 176.678857 115.445153 176.7397 
Q 111.190335 176.800396 111.190335 176.907203 
Q 111.190335 177.013568 115.445153 177.074411 
Q 119.711533 177.135106 127.157465 177.135106 
Q 131.308225 177.135106 135.065876 177.119491 
Q 138.823528 177.103727 142.6968 177.070138 
L 142.6968 177.212449 
z
" clip-path="url(#p64103bd6ea)" style="fill: #1e90ff"/>
   </g>
   <g id="patch_9">
    <path d="M 96.8072 175.384312 
L 110.011024 175.384312 
L 110.011024 175.749086 
L 129.492976 175.749086 
L 129.492976 175.384312 
L 142.6968 175.384312 
L 142.6968 176.341587 
L 129.492976 176.341587 
L 129.492976 175.935781 
L 110.011024 175.935781 
L 110.011024 176.341587 
L 96.8072 176.341587 
L 96.8072 175.384312 
z
" clip-path="url(#p64103bd6ea)" style="fill: #2e8b57"/>
   </g>
   <g id="patch_10">
    <path d="M 96.8072 174.018683 
L 110.34419 174.018683 
L 119.734316 174.611375 
L 129.186336 174.018683 
L 142.6968 174.018683 
L 142.6968 175.126212 
L 132.643529 175.126212 
L 132.643529 174.316097 
L 123.138458 174.913299 
L 116.392068 174.913299 
L 106.886997 174.316097 
L 106.886997 175.126212 
L 96.8072 175.126212 
L 96.8072 174.018683 
z
" clip-path="url(#p64103bd6ea)" style="fill: #ffa500"/>
   </g>
   <g id="patch_11">
    <path d="M 142.6968 173.542745 
Q 138.068759 173.613601 133.091043 173.649191 
Q 128.113328 173.684457 122.806507 173.684457 
Q 110.814738 173.684457 103.810969 173.473507 
Q 96.8072 173.262556 96.8072 172.901805 
Q 96.8072 172.536847 103.934384 172.327514 
Q 111.071852 172.118182 123.485287 172.118182 
Q 128.267596 172.118182 132.648808 172.146653 
Q 137.040305 172.174802 140.92786 172.230451 
L 140.92786 172.542671 
Q 136.916891 172.471168 132.94706 172.435902 
Q 128.977229 172.400312 124.986829 172.400312 
Q 117.602532 172.400312 113.601847 172.530376 
Q 109.601163 172.660117 109.601163 172.901805 
Q 109.601163 173.141227 113.457864 173.271939 
Q 117.314565 173.402327 124.410895 173.402327 
Q 126.344388 173.402327 128.000198 173.394885 
Q 129.656008 173.38712 130.972429 173.370943 
L 130.972429 173.077813 
L 123.413295 173.077813 
L 123.413295 172.816713 
L 142.6968 172.816713 
L 142.6968 173.542745 
z
" clip-path="url(#p64103bd6ea)" style="fill: #1e90ff"/>
   </g>
   <g id="patch_12">
    <path d="M 120.975723 171.218198 
L 120.077051 171.218198 
Q 109.053987 171.218198 102.925813 170.930742 
Q 96.8072 170.642835 96.8072 170.129746 
Q 96.8072 169.617561 102.916253 169.327397 
Q 109.025306 169.036782 119.752 169.036782 
Q 130.593418 169.036782 136.645109 169.32469 
Q 142.6968 169.612145 142.6968 170.129746 
Q 142.6968 170.484892 139.484528 170.741662 
Q 136.272256 170.998432 130.239686 171.127945 
L 139.226399 171.601773 
L 128.260697 171.601773 
L 120.975723 171.218198 
z
M 119.752 169.430286 
Q 114.493817 169.430286 111.597036 169.613499 
Q 108.700255 169.796713 108.700255 170.129746 
Q 108.700255 170.468195 111.530113 170.64825 
Q 114.369532 170.827854 119.752 170.827854 
Q 125.038864 170.827854 127.935645 170.64464 
Q 130.832426 170.460975 130.832426 170.129746 
Q 130.832426 169.796713 127.935645 169.613499 
Q 125.038864 169.430286 119.752 169.430286 
z
" clip-path="url(#p64103bd6ea)" style="fill: #1e90ff"/>
   </g>
   <g id="patch_13">
    <path d="M 96.8072 165.102977 
L 142.6968 165.102977 
L 142.6968 165.729351 
L 126.187216 165.729351 
L 126.187216 168.314694 
L 113.3488 168.314694 
L 113.3488 165.729351 
L 96.8072 165.729351 
L 96.8072 165.102977 
z
" clip-path="url(#p64103bd6ea)" style="fill: #1e90ff"/>
   </g>
   <g id="patch_14">
    <path d="M 96.8072 159.972991 
L 108.159974 159.972991 
L 119.766074 163.075344 
L 131.353409 159.972991 
L 142.6968 159.972991 
L 126.483913 164.176121 
L 113.020087 164.176121 
L 96.8072 159.972991 
z
" clip-path="url(#p64103bd6ea)" style="fill: #ffa500"/>
   </g>
   <g id="patch_15">
    <path d="M 128.594966 157.100494 
L 110.946564 157.100494 
L 108.159974 158.492463 
L 96.8072 158.492463 
L 113.020087 150.851369 
L 126.483913 150.851369 
L 142.6968 158.492463 
L 131.353409 158.492463 
L 128.594966 157.100494 
z
M 113.761301 155.682322 
L 125.752082 155.682322 
L 119.766074 152.642916 
L 113.761301 155.682322 
z
" clip-path="url(#p64103bd6ea)" style="fill: #ffa500"/>
   </g>
   <g id="patch_16">
    <path d="M 154.1692 178.451604 
L 167.373024 178.451604 
L 167.373024 178.806712 
L 186.854976 178.806712 
L 186.854976 178.451604 
L 200.0588 178.451604 
L 200.0588 179.383512 
L 186.854976 179.383512 
L 186.854976 178.98846 
L 167.373024 178.98846 
L 167.373024 179.383512 
L 154.1692 179.383512 
L 154.1692 178.451604 
z
" clip-path="url(#p64103bd6ea)" style="fill: #2e8b57"/>
   </g>
   <g id="patch_17">
    <path d="M 200.0588 178.117625 
Q 195.430759 178.163286 190.453043 178.186221 
Q 185.475328 178.208948 180.168507 178.208948 
Q 168.176738 178.208948 161.172969 178.073006 
Q 154.1692 177.937064 154.1692 177.704586 
Q 154.1692 177.469398 161.296384 177.334499 
Q 168.433852 177.1996 180.847287 177.1996 
Q 185.629596 177.1996 190.010808 177.217948 
Q 194.402305 177.236087 198.28986 177.271949 
L 198.28986 177.473151 
Q 194.278891 177.427073 190.30906 177.404346 
Q 186.339229 177.381411 182.348829 177.381411 
Q 174.964532 177.381411 170.963847 177.465228 
Q 166.963163 177.548837 166.963163 177.704586 
Q 166.963163 177.858876 170.819864 177.94311 
Q 174.676565 178.027136 181.772895 178.027136 
Q 183.706388 178.027136 185.362198 178.02234 
Q 187.018008 178.017336 188.334429 178.006911 
L 188.334429 177.81801 
L 180.775295 177.81801 
L 180.775295 177.649751 
L 200.0588 177.649751 
L 200.0588 178.117625 
z
" clip-path="url(#p64103bd6ea)" style="fill: #1e90ff"/>
   </g>
   <g id="patch_18">
    <path d="M 200.0588 176.724131 
Q 196.220214 176.787231 192.069454 176.819149 
Q 187.918694 176.851433 183.39795 176.851433 
Q 169.916652 176.851433 162.042926 176.612237 
Q 154.1692 176.373042 154.1692 175.963989 
Q 154.1692 175.553468 162.042926 175.31464 
Q 169.916652 175.075444 183.39795 175.075444 
Q 187.918694 175.075444 192.069454 175.107728 
Q 196.220214 175.139646 200.0588 175.202746 
L 200.0588 175.55677 
Q 196.185528 175.473125 192.427876 175.434237 
Q 188.670225 175.39535 184.519465 175.39535 
Q 177.073533 175.39535 172.807153 175.546864 
Q 168.552335 175.698012 168.552335 175.963989 
Q 168.552335 176.228864 172.807153 176.380379 
Q 177.073533 176.531527 184.519465 176.531527 
Q 188.670225 176.531527 192.427876 176.49264 
Q 196.185528 176.453385 200.0588 176.36974 
L 200.0588 176.724131 
z
" clip-path="url(#p64103bd6ea)" style="fill: #1e90ff"/>
   </g>
   <g id="patch_19">
    <path d="M 154.1692 172.246736 
L 167.70619 172.246736 
L 177.096316 173.486714 
L 186.548336 172.246736 
L 200.0588 172.246736 
L 200.0588 174.563811 
L 190.005529 174.563811 
L 190.005529 172.86896 
L 180.500458 174.118373 
L 173.754068 174.118373 
L 164.248997 172.86896 
L 164.248997 174.563811 
L 154.1692 174.563811 
L 154.1692 172.246736 
z
" clip-path="url(#p64103bd6ea)" style="fill: #ffa500"/>
   </g>
   <g id="patch_20">
    <path d="M 178.337723 168.817451 
L 177.439051 168.817451 
Q 166.415987 168.817451 160.287813 167.535838 
Q 154.1692 166.252213 154.1692 163.964624 
Q 154.1692 161.681059 160.278253 160.387374 
Q 166.387306 159.091677 177.114 159.091677 
Q 187.955418 159.091677 194.007109 160.375302 
Q 200.0588 161.656915 200.0588 163.964624 
Q 200.0588 165.54803 196.846528 166.69283 
Q 193.634256 167.837631 187.601686 168.415061 
L 196.588399 170.52761 
L 185.622697 170.52761 
L 178.337723 168.817451 
z
M 177.114 160.846099 
Q 171.855817 160.846099 168.959036 161.662951 
Q 166.062255 162.479804 166.062255 163.964624 
Q 166.062255 165.473588 168.892113 166.276356 
Q 171.731532 167.077113 177.114 167.077113 
Q 182.400864 167.077113 185.297645 166.260261 
Q 188.194426 165.441397 188.194426 163.964624 
Q 188.194426 162.479804 185.297645 161.662951 
Q 182.400864 160.846099 177.114 160.846099 
z
" clip-path="url(#p64103bd6ea)" style="fill: #1e90ff"/>
   </g>
   <g id="patch_21">
    <path d="M 154.1692 142.747678 
L 200.0588 142.747678 
L 200.0588 145.333229 
L 183.549216 145.333229 
L 183.549216 156.005018 
L 170.7108 156.005018 
L 170.7108 145.333229 
L 154.1692 145.333229 
L 154.1692 142.747678 
z
" clip-path="url(#p64103bd6ea)" style="fill: #1e90ff"/>
   </g>
   <g id="patch_22">
    <path d="M 196.232589 124.715819 
L 196.232589 127.817987 
Q 191.44671 127.277934 186.88517 127.004767 
Q 182.336092 126.728461 178.285543 126.728461 
Q 172.913893 126.728461 170.334005 127.102102 
Q 167.76658 127.472604 167.76658 128.257566 
Q 167.76658 128.847857 169.498969 129.177541 
Q 171.231357 129.504085 175.792898 129.739573 
L 182.17407 130.062978 
Q 191.87046 130.555933 195.958398 131.557544 
Q 200.0588 132.556016 200.0588 134.402245 
Q 200.0588 136.823067 194.350642 138.006789 
Q 188.642485 139.190511 176.914588 139.190511 
Q 171.393379 139.190511 165.822317 138.923624 
Q 160.251255 138.659877 154.680192 138.138662 
L 154.680192 134.951718 
Q 160.251255 135.695862 165.44842 136.075783 
Q 170.645585 136.452565 175.481317 136.452565 
Q 180.391829 136.452565 182.996643 136.041245 
Q 185.601457 135.626785 185.601457 134.860663 
Q 185.601457 134.176176 183.831679 133.802535 
Q 182.061901 133.428893 176.76503 133.133747 
L 170.957166 132.810343 
Q 162.232908 132.339366 158.194822 131.309497 
Q 154.1692 130.279627 154.1692 128.533872 
Q 154.1692 126.345399 159.777652 125.167957 
Q 165.386104 123.990515 175.905067 123.990515 
Q 180.703409 123.990515 185.763479 124.172626 
Q 190.823549 124.354737 196.232589 124.715819 
z
" clip-path="url(#p64103bd6ea)" style="fill: #1e90ff"/>
   </g>
   <g id="patch_23">
    <path d="M 172.788698 107.240632 
Q 176.906996 107.240632 178.69377 106.586915 
Q 180.480545 105.928529 180.480545 104.42498 
Q 180.480545 102.935439 178.69377 102.29573 
Q 176.906996 101.651352 172.788698 101.651352 
L 167.275845 101.651352 
L 167.275845 107.240632 
L 172.788698 107.240632 
z
M 167.275845 111.12091 
L 167.275845 119.367083 
L 154.1692 119.367083 
L 154.1692 97.579628 
L 174.183254 97.579628 
Q 184.228413 97.579628 188.902354 99.027145 
Q 193.58719 100.469992 193.58719 103.593825 
Q 193.58719 105.751091 191.146717 107.137905 
Q 188.71714 108.524719 183.814405 109.183106 
Q 186.505461 109.444593 188.62998 110.373805 
Q 190.765393 111.298347 192.944387 113.180118 
L 200.0588 119.367083 
L 186.102348 119.367083 
L 179.903111 113.95524 
Q 178.029177 112.320948 176.100768 111.723263 
Q 174.183254 111.12091 170.980134 111.12091 
L 167.275845 111.12091 
z
" clip-path="url(#p64103bd6ea)" style="fill: #2e8b57"/>
   </g>
   <g id="patch_24">
    <path d="M 185.956966 86.852827 
L 168.308564 86.852827 
L 165.521974 91.599287 
L 154.1692 91.599287 
L 170.382087 65.544011 
L 183.845913 65.544011 
L 200.0588 91.599287 
L 188.715409 91.599287 
L 185.956966 86.852827 
z
M 171.123301 82.017021 
L 183.114082 82.017021 
L 177.128074 71.652985 
L 171.123301 82.017021 
z
" clip-path="url(#p64103bd6ea)" style="fill: #ffa500"/>
   </g>
   <g id="patch_25">
    <path d="M 211.5312 179.418578 
L 219.466219 179.418578 
L 225.013163 179.471176 
L 230.518813 179.418578 
L 238.495125 179.418578 
L 244.000776 179.471176 
L 249.554601 179.418578 
L 257.4208 179.418578 
L 249.85053 179.490953 
L 240.305108 179.490953 
L 234.476 179.435935 
L 228.715713 179.490953 
L 219.163409 179.490953 
L 211.5312 179.418578 
z
" clip-path="url(#p64103bd6ea)" style="fill: #ffa500"/>
   </g>
   <g id="patch_26">
    <path d="M 211.5312 178.832579 
L 222.883974 178.832579 
L 234.490074 179.211113 
L 246.077409 178.832579 
L 257.4208 178.832579 
L 241.207913 179.345425 
L 227.744087 179.345425 
L 211.5312 178.832579 
z
" clip-path="url(#p64103bd6ea)" style="fill: #ffa500"/>
   </g>
   <g id="patch_27">
    <path d="M 253.594589 177.112048 
L 253.594589 177.425856 
Q 248.80871 177.371226 244.24717 177.343593 
Q 239.698092 177.315642 235.647543 177.315642 
Q 230.275893 177.315642 227.696005 177.353439 
Q 225.12858 177.390918 225.12858 177.470323 
Q 225.12858 177.530035 226.860969 177.563385 
Q 228.593357 177.596418 233.154898 177.620239 
L 239.53607 177.652954 
Q 249.23246 177.70282 253.320398 177.804141 
Q 257.4208 177.905144 257.4208 178.091904 
Q 257.4208 178.336788 251.712642 178.456531 
Q 246.004485 178.576274 234.276588 178.576274 
Q 228.755379 178.576274 223.184317 178.549276 
Q 217.613255 178.522596 212.042192 178.469871 
L 212.042192 178.147487 
Q 217.613255 178.222763 222.81042 178.261195 
Q 228.007585 178.299309 232.843317 178.299309 
Q 237.753829 178.299309 240.358643 178.257701 
Q 242.963457 178.215776 242.963457 178.138276 
Q 242.963457 178.069035 241.193679 178.031239 
Q 239.423901 177.993442 234.12703 177.963586 
L 228.319166 177.930871 
Q 219.594908 177.883228 215.556822 177.779049 
Q 211.5312 177.67487 211.5312 177.498273 
Q 211.5312 177.276893 217.139652 177.157785 
Q 222.748104 177.038678 233.267067 177.038678 
Q 238.065409 177.038678 243.125479 177.0571 
Q 248.185549 177.075522 253.594589 177.112048 
z
" clip-path="url(#p64103bd6ea)" style="fill: #1e90ff"/>
   </g>
   <g id="patch_28">
    <path d="M 257.4208 176.508402 
Q 253.582214 176.569475 249.431454 176.600367 
Q 245.280694 176.631613 240.75995 176.631613 
Q 227.278652 176.631613 219.404926 176.400104 
Q 211.5312 176.168594 211.5312 175.772685 
Q 211.5312 175.375355 219.404926 175.1442 
Q 227.278652 174.912691 240.75995 174.912691 
Q 245.280694 174.912691 249.431454 174.943938 
Q 253.582214 174.974829 257.4208 175.035902 
L 257.4208 175.37855 
Q 253.547528 175.297593 249.789876 175.259955 
Q 246.032225 175.222317 241.881465 175.222317 
Q 234.435533 175.222317 230.169153 175.368963 
Q 225.914335 175.515255 225.914335 175.772685 
Q 225.914335 176.02905 230.169153 176.175696 
Q 234.435533 176.321987 241.881465 176.321987 
Q 246.032225 176.321987 249.789876 176.284349 
Q 253.547528 176.246356 257.4208 176.165399 
L 257.4208 176.508402 
z
" clip-path="url(#p64103bd6ea)" style="fill: #1e90ff"/>
   </g>
   <g id="patch_29">
    <path d="M 230.150698 172.098932 
Q 234.268996 172.098932 236.05577 171.984524 
Q 237.842545 171.869299 237.842545 171.606162 
Q 237.842545 171.345476 236.05577 171.233519 
Q 234.268996 171.120746 230.150698 171.120746 
L 224.637845 171.120746 
L 224.637845 172.098932 
L 230.150698 172.098932 
z
M 224.637845 172.778023 
L 224.637845 174.221195 
L 211.5312 174.221195 
L 211.5312 170.40815 
L 231.545254 170.40815 
Q 241.590413 170.40815 246.264354 170.661481 
Q 250.94919 170.913995 250.94919 171.4607 
Q 250.94919 171.838246 248.508717 172.080954 
Q 246.07914 172.323661 241.176405 172.438886 
Q 243.867461 172.484649 245.99198 172.647272 
Q 248.127393 172.809077 250.306387 173.138408 
L 257.4208 174.221195 
L 243.464348 174.221195 
L 237.265111 173.274063 
Q 235.391177 172.988043 233.462768 172.883442 
Q 231.545254 172.778023 228.342134 172.778023 
L 224.637845 172.778023 
z
" clip-path="url(#p64103bd6ea)" style="fill: #2e8b57"/>
   </g>
   <g id="patch_30">
    <path d="M 243.318966 168.018097 
L 225.670564 168.018097 
L 222.883974 169.152867 
L 211.5312 169.152867 
L 227.744087 162.92365 
L 241.207913 162.92365 
L 257.4208 169.152867 
L 246.077409 169.152867 
L 243.318966 168.018097 
z
M 228.485301 166.861967 
L 240.476082 166.861967 
L 234.490074 164.384165 
L 228.485301 166.861967 
z
" clip-path="url(#p64103bd6ea)" style="fill: #ffa500"/>
   </g>
   <g id="patch_31">
    <path d="M 211.5312 149.504014 
L 223.624341 149.504014 
L 223.624341 153.605094 
L 241.055352 149.504014 
L 255.098676 149.504014 
L 232.510739 154.826026 
L 257.4208 160.740444 
L 242.281756 160.740444 
L 223.624341 156.314263 
L 223.624341 160.740444 
L 211.5312 160.740444 
L 211.5312 149.504014 
z
" clip-path="url(#p64103bd6ea)" style="fill: #2e8b57"/>
   </g>
   <g id="patch_32">
    <path d="M 314.7828 179.482187 
Q 310.944214 179.485405 306.793454 179.487033 
Q 302.642694 179.488679 298.12195 179.488679 
Q 284.640652 179.488679 276.766926 179.476481 
Q 268.8932 179.464284 268.8932 179.443424 
Q 268.8932 179.42249 276.766926 179.410311 
Q 284.640652 179.398113 298.12195 179.398113 
Q 302.642694 179.398113 306.793454 179.399759 
Q 310.944214 179.401387 314.7828 179.404605 
L 314.7828 179.422658 
Q 310.909528 179.418392 307.151876 179.416409 
Q 303.394225 179.414426 299.243465 179.414426 
Q 291.797533 179.414426 287.531153 179.422153 
Q 283.276335 179.429861 283.276335 179.443424 
Q 283.276335 179.456931 287.531153 179.464658 
Q 291.797533 179.472366 299.243465 179.472366 
Q 303.394225 179.472366 307.151876 179.470383 
Q 310.909528 179.468381 314.7828 179.464115 
L 314.7828 179.482187 
z
" clip-path="url(#p64103bd6ea)" style="fill: #1e90ff"/>
   </g>
   <g id="patch_33">
    <path d="M 268.8932 179.152285 
L 280.245974 179.152285 
L 291.852074 179.306144 
L 303.439409 179.152285 
L 314.7828 179.152285 
L 298.569913 179.360736 
L 285.106087 179.360736 
L 268.8932 179.152285 
z
" clip-path="url(#p64103bd6ea)" style="fill: #ffa500"/>
   </g>
   <g id="patch_34">
    <path d="M 269.370784 178.829457 
L 314.305216 178.829457 
L 314.305216 178.880905 
L 286.023933 178.880905 
L 286.023933 178.929978 
L 312.630211 178.929978 
L 312.630211 178.981426 
L 286.023933 178.981426 
L 286.023933 179.093254 
L 269.370784 179.093254 
L 269.370784 178.829457 
z
" clip-path="url(#p64103bd6ea)" style="fill: #ffa500"/>
   </g>
   <g id="patch_35">
    <path d="M 300.680966 178.476534 
L 283.032564 178.476534 
L 280.245974 178.666282 
L 268.8932 178.666282 
L 285.106087 177.624679 
L 298.569913 177.624679 
L 314.7828 178.666282 
L 303.439409 178.666282 
L 300.680966 178.476534 
z
M 285.847301 178.283215 
L 297.838082 178.283215 
L 291.852074 177.868895 
L 285.847301 178.283215 
z
" clip-path="url(#p64103bd6ea)" style="fill: #ffa500"/>
   </g>
   <g id="patch_36">
    <path d="M 268.8932 176.091725 
L 281.580325 176.091725 
L 291.828359 176.536127 
L 302.066753 176.091725 
L 314.7828 176.091725 
L 297.641685 176.813244 
L 297.641685 177.338617 
L 286.043956 177.338617 
L 286.043956 176.813244 
L 268.8932 176.091725 
z
" clip-path="url(#p64103bd6ea)" style="fill: #ffa500"/>
   </g>
   <g id="patch_37">
    <path d="M 283.511426 174.318011 
L 300.164574 174.318011 
L 300.164574 175.756102 
L 283.511426 175.756102 
L 283.511426 174.318011 
z
" clip-path="url(#p64103bd6ea)" style="fill: #ffa500"/>
   </g>
   <g id="patch_38">
    <path d="M 268.8932 172.15497 
L 282.43019 172.15497 
L 291.820316 173.09839 
L 301.272336 172.15497 
L 314.7828 172.15497 
L 314.7828 173.917885 
L 304.729529 173.917885 
L 304.729529 172.62838 
L 295.224458 173.578979 
L 288.478068 173.578979 
L 278.972997 172.62838 
L 278.972997 173.917885 
L 268.8932 173.917885 
L 268.8932 172.15497 
z
" clip-path="url(#p64103bd6ea)" style="fill: #ffa500"/>
   </g>
   <g id="patch_39">
    <path d="M 287.512698 170.701504 
Q 291.630996 170.701504 293.41777 170.647221 
Q 295.204545 170.59255 295.204545 170.467698 
Q 295.204545 170.34401 293.41777 170.29089 
Q 291.630996 170.237382 287.512698 170.237382 
L 281.999845 170.237382 
L 281.999845 170.701504 
L 287.512698 170.701504 
z
M 281.999845 171.023714 
L 281.999845 171.708458 
L 268.8932 171.708458 
L 268.8932 169.899275 
L 288.907254 169.899275 
Q 298.952413 169.899275 303.626354 170.019474 
Q 308.31119 170.139285 308.31119 170.398681 
Q 308.31119 170.577816 305.870717 170.692974 
Q 303.44114 170.808132 298.538405 170.862803 
Q 301.229461 170.884516 303.35398 170.961676 
Q 305.489393 171.038448 307.668387 171.194706 
L 314.7828 171.708458 
L 300.826348 171.708458 
L 294.627111 171.25907 
Q 292.753177 171.123362 290.824768 171.073732 
Q 288.907254 171.023714 285.704134 171.023714 
L 281.999845 171.023714 
z
" clip-path="url(#p64103bd6ea)" style="fill: #2e8b57"/>
   </g>
   <g id="patch_40">
    <path d="M 268.8932 156.319547 
L 285.546349 156.319547 
L 285.546349 165.876989 
L 314.7828 165.876989 
L 314.7828 168.189396 
L 268.8932 168.189396 
L 268.8932 156.319547 
z
" clip-path="url(#p64103bd6ea)" style="fill: #ffa500"/>
   </g>
   <g id="patch_41">
    <path d="M 109.382414 187.639382 
L 109.382414 189.582981 
L 113.887748 189.582981 
Q 121.591765 189.582981 125.658065 189.333119 
Q 129.734817 189.083257 129.734817 188.607427 
Q 129.734817 188.134328 125.678971 187.887196 
Q 121.633578 187.639382 113.887748 187.639382 
L 109.382414 187.639382 
z
M 96.8072 187.018141 
L 110.061873 187.018141 
Q 121.173637 187.018141 126.609307 187.121909 
Q 132.044977 187.224994 135.933572 187.472808 
Q 139.362225 187.688536 141.024286 187.970484 
Q 142.6968 188.251749 142.6968 188.607427 
Q 142.6968 188.968566 141.024286 189.251197 
Q 139.362225 189.533828 135.933572 189.748873 
Q 132.013617 189.996687 126.525681 190.100455 
Q 121.037745 190.20354 110.061873 190.20354 
L 96.8072 190.20354 
L 96.8072 187.018141 
z
" clip-path="url(#p64103bd6ea)" style="fill: #b22222"/>
   </g>
   <g id="patch_42">
    <path d="M 96.8072 181.801378 
L 141.741632 181.801378 
L 141.741632 182.091725 
L 113.460349 182.091725 
L 113.460349 182.368671 
L 140.066627 182.368671 
L 140.066627 182.659018 
L 113.460349 182.659018 
L 113.460349 183.000095 
L 142.6968 183.000095 
L 142.6968 183.290123 
L 96.8072 183.290123 
L 96.8072 181.801378 
z
" clip-path="url(#p64103bd6ea)" style="fill: #b22222"/>
   </g>
   <g id="patch_43">
    <path d="M 111.425426 183.790591 
L 128.078574 183.790591 
L 128.078574 186.305591 
L 111.425426 186.305591 
L 111.425426 183.790591 
z
" clip-path="url(#p64103bd6ea)" style="fill: #ffa500"/>
   </g>
   <g id="patch_44">
    <path d="M 96.8072 180.021404 
L 108.900341 180.021404 
L 108.900341 180.538502 
L 126.331352 180.021404 
L 140.374676 180.021404 
L 117.786739 180.692448 
L 142.6968 181.438187 
L 127.557756 181.438187 
L 108.900341 180.880097 
L 108.900341 181.438187 
L 96.8072 181.438187 
L 96.8072 180.021404 
z
" clip-path="url(#p64103bd6ea)" style="fill: #2e8b57"/>
   </g>
   <g id="patch_45">
    <path d="M 96.8072 198.904236 
L 113.460349 198.904236 
L 113.460349 206.204258 
L 142.6968 206.204258 
L 142.6968 207.970486 
L 96.8072 207.970486 
L 96.8072 198.904236 
z
" clip-path="url(#p64103bd6ea)" style="fill: #ffa500"/>
   </g>
   <g id="patch_46">
    <path d="M 96.8072 191.318639 
L 120.660232 191.318639 
Q 131.308053 191.318639 136.996451 191.805397 
Q 142.6968 192.290927 142.6968 193.189463 
Q 142.6968 194.092916 136.996451 194.578446 
Q 131.308053 195.063975 120.660232 195.063975 
L 111.183551 195.063975 
L 111.183551 197.05403 
L 96.8072 197.05403 
L 96.8072 191.318639 
z
M 111.183551 192.390491 
L 111.183551 193.992123 
L 119.130578 193.992123 
Q 123.313224 193.992123 125.595754 193.783161 
Q 127.878283 193.574199 127.878283 193.189463 
Q 127.878283 192.805956 125.595754 192.598224 
Q 123.313224 192.390491 119.130578 192.390491 
L 111.183551 192.390491 
z
" clip-path="url(#p64103bd6ea)" style="fill: #ff1493"/>
   </g>
   <g id="patch_47">
    <path d="M 96.8072 179.534431 
L 109.494325 179.534431 
L 119.742359 179.632601 
L 129.980753 179.534431 
L 142.6968 179.534431 
L 125.555685 179.693818 
L 125.555685 179.809875 
L 113.957956 179.809875 
L 113.957956 179.693818 
L 96.8072 179.534431 
z
" clip-path="url(#p64103bd6ea)" style="fill: #ffa500"/>
   </g>
   <g id="patch_48">
    <path d="M 166.744414 205.624019 
L 166.744414 209.890812 
L 171.249748 209.890812 
Q 178.953765 209.890812 183.020065 209.342288 
Q 187.096817 208.793765 187.096817 207.749173 
Q 187.096817 206.710575 183.040971 206.168046 
Q 178.995578 205.624019 171.249748 205.624019 
L 166.744414 205.624019 
z
M 154.1692 204.260204 
L 167.423873 204.260204 
Q 178.535637 204.260204 183.971307 204.488006 
Q 189.406977 204.714309 193.295572 205.258337 
Q 196.724225 205.731925 198.386286 206.350887 
Q 200.0588 206.968351 200.0588 207.749173 
Q 200.0588 208.541984 198.386286 209.162445 
Q 196.724225 209.782906 193.295572 210.254996 
Q 189.375617 210.799023 183.887681 211.026825 
Q 178.399745 211.253128 167.423873 211.253128 
L 154.1692 211.253128 
L 154.1692 204.260204 
z
" clip-path="url(#p64103bd6ea)" style="fill: #b22222"/>
   </g>
   <g id="patch_49">
    <path d="M 154.1692 223.563586 
L 199.103632 223.563586 
L 199.103632 225.962811 
L 170.822349 225.962811 
L 170.822349 228.251303 
L 197.428627 228.251303 
L 197.428627 230.650529 
L 170.822349 230.650529 
L 170.822349 233.468959 
L 200.0588 233.468959 
L 200.0588 235.865548 
L 154.1692 235.865548 
L 154.1692 223.563586 
z
" clip-path="url(#p64103bd6ea)" style="fill: #b22222"/>
   </g>
   <g id="patch_50">
    <path d="M 154.646784 182.428001 
L 199.581216 182.428001 
L 199.581216 182.90109 
L 171.299933 182.90109 
L 171.299933 183.352344 
L 197.906211 183.352344 
L 197.906211 183.825433 
L 171.299933 183.825433 
L 171.299933 184.853752 
L 154.646784 184.853752 
L 154.646784 182.428001 
z
" clip-path="url(#p64103bd6ea)" style="fill: #ffa500"/>
   </g>
   <g id="patch_51">
    <path d="M 168.787426 213.117104 
L 185.440574 213.117104 
L 185.440574 221.035981 
L 168.787426 221.035981 
L 168.787426 213.117104 
z
" clip-path="url(#p64103bd6ea)" style="fill: #ffa500"/>
   </g>
   <g id="patch_52">
    <path d="M 154.1692 195.598797 
L 166.262341 195.598797 
L 166.262341 198.125207 
L 183.693352 195.598797 
L 197.736676 195.598797 
L 175.148739 198.877344 
L 200.0588 202.520834 
L 184.919756 202.520834 
L 166.262341 199.794151 
L 166.262341 202.520834 
L 154.1692 202.520834 
L 154.1692 195.598797 
z
" clip-path="url(#p64103bd6ea)" style="fill: #2e8b57"/>
   </g>
   <g id="patch_53">
    <path d="M 154.1692 269.442786 
L 170.822349 269.442786 
L 170.822349 288.960586 
L 200.0588 288.960586 
L 200.0588 293.682886 
L 154.1692 293.682886 
L 154.1692 269.442786 
z
" clip-path="url(#p64103bd6ea)" style="fill: #ffa500"/>
   </g>
   <g id="patch_54">
    <path d="M 154.1692 185.623325 
L 168.909629 185.623325 
L 187.535472 188.181976 
L 187.535472 185.623325 
L 200.0588 185.623325 
L 200.0588 189.354158 
L 185.307395 189.354158 
L 166.681552 186.795507 
L 166.681552 189.354158 
L 154.1692 189.354158 
L 154.1692 185.623325 
z
" clip-path="url(#p64103bd6ea)" style="fill: #1e90ff"/>
   </g>
   <g id="patch_55">
    <path d="M 154.1692 240.304242 
L 178.022232 240.304242 
Q 188.670053 240.304242 194.358451 242.273852 
Q 200.0588 244.238489 200.0588 247.874311 
Q 200.0588 251.530027 194.358451 253.494664 
Q 188.670053 255.459301 178.022232 255.459301 
L 168.545551 255.459301 
L 168.545551 263.511825 
L 154.1692 263.511825 
L 154.1692 240.304242 
z
M 168.545551 244.641364 
L 168.545551 251.122179 
L 176.492578 251.122179 
Q 180.675224 251.122179 182.957754 250.276639 
Q 185.240283 249.431099 185.240283 247.874311 
Q 185.240283 246.322496 182.957754 245.48193 
Q 180.675224 244.641364 176.492578 244.641364 
L 168.545551 244.641364 
z
" clip-path="url(#p64103bd6ea)" style="fill: #ff1493"/>
   </g>
   <g id="patch_56">
    <path d="M 154.1692 190.311816 
L 165.521974 190.311816 
L 177.128074 193.212883 
L 188.715409 190.311816 
L 200.0588 190.311816 
L 183.845913 194.24224 
L 170.382087 194.24224 
L 154.1692 190.311816 
z
" clip-path="url(#p64103bd6ea)" style="fill: #ffa500"/>
   </g>
   <g id="patch_57">
    <path d="M 154.1692 179.559446 
L 162.104219 179.559446 
L 167.651163 179.905064 
L 173.156813 179.559446 
L 181.133125 179.559446 
L 186.638776 179.905064 
L 192.192601 179.559446 
L 200.0588 179.559446 
L 192.48853 180.035014 
L 182.943108 180.035014 
L 177.114 179.673497 
L 171.353713 180.035014 
L 161.801409 180.035014 
L 154.1692 179.559446 
z
" clip-path="url(#p64103bd6ea)" style="fill: #ffa500"/>
   </g>
   <g id="patch_58">
    <path d="M 154.1692 180.297492 
L 166.856325 180.297492 
L 177.104359 180.876391 
L 187.342753 180.297492 
L 200.0588 180.297492 
L 182.917685 181.237376 
L 182.917685 181.92175 
L 171.319956 181.92175 
L 171.319956 181.237376 
L 154.1692 180.297492 
z
" clip-path="url(#p64103bd6ea)" style="fill: #ffa500"/>
   </g>
   <g id="patch_59">
    <path d="M 224.106414 202.017461 
L 224.106414 204.503385 
L 228.611748 204.503385 
Q 236.315765 204.503385 240.382065 204.183804 
Q 244.458817 203.864223 244.458817 203.255621 
Q 244.458817 202.650512 240.402971 202.334423 
Q 236.357578 202.017461 228.611748 202.017461 
L 224.106414 202.017461 
z
M 211.5312 201.222874 
L 224.785873 201.222874 
Q 235.897637 201.222874 241.333307 201.355596 
Q 246.768977 201.487445 250.657572 201.804407 
Q 254.086225 202.08033 255.748286 202.44095 
Q 257.4208 202.800698 257.4208 203.255621 
Q 257.4208 203.717529 255.748286 204.079023 
Q 254.086225 204.440517 250.657572 204.715566 
Q 246.737617 205.032528 241.249681 205.165251 
Q 235.761745 205.2971 224.785873 205.2971 
L 211.5312 205.2971 
L 211.5312 201.222874 
z
" clip-path="url(#p64103bd6ea)" style="fill: #b22222"/>
   </g>
   <g id="patch_60">
    <path d="M 211.5312 206.315794 
L 256.465632 206.315794 
L 256.465632 207.110597 
L 228.184349 207.110597 
L 228.184349 207.868717 
L 254.790627 207.868717 
L 254.790627 208.663519 
L 228.184349 208.663519 
L 228.184349 209.597194 
L 257.4208 209.597194 
L 257.4208 210.391124 
L 211.5312 210.391124 
L 211.5312 206.315794 
z
" clip-path="url(#p64103bd6ea)" style="fill: #b22222"/>
   </g>
   <g id="patch_61">
    <path d="M 212.008784 186.587 
L 256.943216 186.587 
L 256.943216 187.048178 
L 228.661933 187.048178 
L 228.661933 187.488072 
L 255.268211 187.488072 
L 255.268211 187.949251 
L 228.661933 187.949251 
L 228.661933 188.951682 
L 212.008784 188.951682 
L 212.008784 186.587 
z
" clip-path="url(#p64103bd6ea)" style="fill: #ffa500"/>
   </g>
   <g id="patch_62">
    <path d="M 257.4208 182.786285 
Q 252.792759 182.835264 247.815043 182.859866 
Q 242.837328 182.884244 237.530507 182.884244 
Q 225.538738 182.884244 218.534969 182.738423 
Q 211.5312 182.592602 211.5312 182.343229 
Q 211.5312 182.09095 218.658384 181.946247 
Q 225.795852 181.801544 238.209287 181.801544 
Q 242.991596 181.801544 247.372808 181.821225 
Q 251.764305 181.840683 255.65186 181.879151 
L 255.65186 182.094975 
Q 251.640891 182.045548 247.67106 182.02117 
Q 243.701229 181.996568 239.710829 181.996568 
Q 232.326532 181.996568 228.325847 182.086477 
Q 224.325163 182.176161 224.325163 182.343229 
Q 224.325163 182.508732 228.181864 182.599088 
Q 232.038565 182.689219 239.134895 182.689219 
Q 241.068388 182.689219 242.724198 182.684075 
Q 244.380008 182.678708 245.696429 182.667525 
L 245.696429 182.464896 
L 238.137295 182.464896 
L 238.137295 182.284409 
L 257.4208 182.284409 
L 257.4208 182.786285 
z
" clip-path="url(#p64103bd6ea)" style="fill: #1e90ff"/>
   </g>
   <g id="patch_63">
    <path d="M 211.5312 183.16516 
L 224.735024 183.16516 
L 224.735024 183.608945 
L 244.216976 183.608945 
L 244.216976 183.16516 
L 257.4208 183.16516 
L 257.4208 184.329783 
L 244.216976 184.329783 
L 244.216976 183.836078 
L 224.735024 183.836078 
L 224.735024 184.329783 
L 211.5312 184.329783 
L 211.5312 183.16516 
z
" clip-path="url(#p64103bd6ea)" style="fill: #2e8b57"/>
   </g>
   <g id="patch_64">
    <path d="M 226.149426 192.72974 
L 242.802574 192.72974 
L 242.802574 195.312903 
L 226.149426 195.312903 
L 226.149426 192.72974 
z
" clip-path="url(#p64103bd6ea)" style="fill: #ffa500"/>
   </g>
   <g id="patch_65">
    <path d="M 211.5312 196.143578 
L 228.184349 196.143578 
L 228.184349 199.414437 
L 257.4208 199.414437 
L 257.4208 200.205816 
L 211.5312 200.205816 
L 211.5312 196.143578 
z
" clip-path="url(#p64103bd6ea)" style="fill: #ffa500"/>
   </g>
   <g id="patch_66">
    <path d="M 211.5312 180.068935 
L 225.06819 180.068935 
L 234.458316 180.360195 
L 243.910336 180.068935 
L 257.4208 180.068935 
L 257.4208 180.613197 
L 247.367529 180.613197 
L 247.367529 180.21509 
L 237.862458 180.508567 
L 231.116068 180.508567 
L 221.610997 180.21509 
L 221.610997 180.613197 
L 211.5312 180.613197 
L 211.5312 180.068935 
z
" clip-path="url(#p64103bd6ea)" style="fill: #ffa500"/>
   </g>
   <g id="patch_67">
    <path d="M 211.5312 179.568811 
L 226.271629 179.568811 
L 244.897472 179.832219 
L 244.897472 179.568811 
L 257.4208 179.568811 
L 257.4208 179.952892 
L 242.669395 179.952892 
L 224.043552 179.689485 
L 224.043552 179.952892 
L 211.5312 179.952892 
L 211.5312 179.568811 
z
" clip-path="url(#p64103bd6ea)" style="fill: #1e90ff"/>
   </g>
   <g id="patch_68">
    <path d="M 211.5312 189.563225 
L 235.384232 189.563225 
Q 246.032053 189.563225 251.720451 189.777746 
Q 257.4208 189.991725 257.4208 190.387721 
Q 257.4208 190.785885 251.720451 190.999864 
Q 246.032053 191.213843 235.384232 191.213843 
L 225.907551 191.213843 
L 225.907551 192.090887 
L 211.5312 192.090887 
L 211.5312 189.563225 
z
M 225.907551 190.035604 
L 225.907551 190.741464 
L 233.854578 190.741464 
Q 238.037224 190.741464 240.319754 190.649372 
Q 242.602283 190.55728 242.602283 190.387721 
Q 242.602283 190.218705 240.319754 190.127155 
Q 238.037224 190.035604 233.854578 190.035604 
L 225.907551 190.035604 
z
" clip-path="url(#p64103bd6ea)" style="fill: #ff1493"/>
   </g>
   <g id="patch_69">
    <path d="M 235.699723 185.892547 
L 234.801051 185.892547 
Q 223.777987 185.892547 217.649813 185.729728 
Q 211.5312 185.566654 211.5312 185.276035 
Q 211.5312 184.985926 217.640253 184.821574 
Q 223.749306 184.656966 234.476 184.656966 
Q 245.317418 184.656966 251.369109 184.82004 
Q 257.4208 184.982859 257.4208 185.276035 
Q 257.4208 185.477193 254.208528 185.622631 
Q 250.996256 185.768069 244.963686 185.841427 
L 253.950399 186.109809 
L 242.984697 186.109809 
L 235.699723 185.892547 
z
M 234.476 184.879851 
Q 229.217817 184.879851 226.321036 184.983626 
Q 223.424255 185.0874 223.424255 185.276035 
Q 223.424255 185.467736 226.254113 185.569721 
Q 229.093532 185.671451 234.476 185.671451 
Q 239.762864 185.671451 242.659645 185.567677 
Q 245.556426 185.463647 245.556426 185.276035 
Q 245.556426 185.0874 242.659645 184.983626 
Q 239.762864 184.879851 234.476 184.879851 
z
" clip-path="url(#p64103bd6ea)" style="fill: #1e90ff"/>
   </g>
   <g id="patch_70">
    <path d="M 211.5312 179.50208 
L 257.4208 179.50208 
L 257.4208 179.505325 
L 240.911216 179.505325 
L 240.911216 179.518721 
L 228.0728 179.518721 
L 228.0728 179.505325 
L 211.5312 179.505325 
L 211.5312 179.50208 
z
" clip-path="url(#p64103bd6ea)" style="fill: #1e90ff"/>
   </g>
   <g id="patch_71">
    <path d="M 211.5312 180.779727 
L 224.218325 180.779727 
L 234.466359 181.06057 
L 244.704753 180.779727 
L 257.4208 180.779727 
L 240.279685 181.235696 
L 240.279685 181.567708 
L 228.681956 181.567708 
L 228.681956 181.235696 
L 211.5312 180.779727 
z
" clip-path="url(#p64103bd6ea)" style="fill: #ffa500"/>
   </g>
   <g id="patch_72">
    <path d="M 281.468414 188.796385 
L 281.468414 190.211097 
L 285.973748 190.211097 
Q 293.677765 190.211097 297.744065 190.029226 
Q 301.820817 189.847356 301.820817 189.501008 
Q 301.820817 189.156647 297.764971 188.976764 
Q 293.719578 188.796385 285.973748 188.796385 
L 281.468414 188.796385 
z
M 268.8932 188.344194 
L 282.147873 188.344194 
Q 293.259637 188.344194 298.695307 188.419724 
Q 304.130977 188.494758 308.019572 188.675138 
Q 311.448225 188.832162 313.110286 189.037388 
Q 314.7828 189.242116 314.7828 189.501008 
Q 314.7828 189.763875 313.110286 189.969597 
Q 311.448225 190.175319 308.019572 190.331847 
Q 304.099617 190.512226 298.611681 190.587757 
Q 293.123745 190.662791 282.147873 190.662791 
L 268.8932 190.662791 
L 268.8932 188.344194 
z
" clip-path="url(#p64103bd6ea)" style="fill: #b22222"/>
   </g>
   <g id="patch_73">
    <path d="M 268.8932 199.721438 
L 313.827632 199.721438 
L 313.827632 200.491624 
L 285.546349 200.491624 
L 285.546349 201.226263 
L 312.152627 201.226263 
L 312.152627 201.996449 
L 285.546349 201.996449 
L 285.546349 202.901206 
L 314.7828 202.901206 
L 314.7828 203.670546 
L 268.8932 203.670546 
L 268.8932 199.721438 
z
" clip-path="url(#p64103bd6ea)" style="fill: #b22222"/>
   </g>
   <g id="patch_74">
    <path d="M 314.7828 180.9252 
Q 310.154759 180.949678 305.177043 180.961973 
Q 300.199328 180.974156 294.892507 180.974156 
Q 282.900738 180.974156 275.896969 180.901281 
Q 268.8932 180.828406 268.8932 180.703781 
Q 268.8932 180.577703 276.020384 180.505387 
Q 283.157852 180.433071 295.571287 180.433071 
Q 300.353596 180.433071 304.734808 180.442907 
Q 309.126305 180.452631 313.01386 180.471856 
L 313.01386 180.579715 
Q 309.002891 180.555014 305.03306 180.542831 
Q 301.063229 180.530536 297.072829 180.530536 
Q 289.688532 180.530536 285.687847 180.575468 
Q 281.687163 180.620288 281.687163 180.703781 
Q 281.687163 180.786492 285.543864 180.831648 
Q 289.400565 180.876692 296.496895 180.876692 
Q 298.430388 180.876692 300.086198 180.874121 
Q 301.742008 180.871438 303.058429 180.86585 
L 303.058429 180.764585 
L 295.499295 180.764585 
L 295.499295 180.674385 
L 314.7828 180.674385 
L 314.7828 180.9252 
z
" clip-path="url(#p64103bd6ea)" style="fill: #1e90ff"/>
   </g>
   <g id="patch_75">
    <path d="M 268.8932 181.174281 
L 282.097024 181.174281 
L 282.097024 181.578167 
L 301.578976 181.578167 
L 301.578976 181.174281 
L 314.7828 181.174281 
L 314.7828 182.234197 
L 301.578976 182.234197 
L 301.578976 181.78488 
L 282.097024 181.78488 
L 282.097024 182.234197 
L 268.8932 182.234197 
L 268.8932 181.174281 
z
" clip-path="url(#p64103bd6ea)" style="fill: #2e8b57"/>
   </g>
   <g id="patch_76">
    <path d="M 268.8932 179.841471 
L 280.986341 179.841471 
L 280.986341 180.011459 
L 298.417352 179.841471 
L 312.460676 179.841471 
L 289.872739 180.062066 
L 314.7828 180.307217 
L 299.643756 180.307217 
L 280.986341 180.123753 
L 280.986341 180.307217 
L 268.8932 180.307217 
L 268.8932 179.841471 
z
" clip-path="url(#p64103bd6ea)" style="fill: #2e8b57"/>
   </g>
   <g id="patch_77">
    <path d="M 268.8932 184.22608 
L 283.633629 184.22608 
L 302.259472 185.304223 
L 302.259472 184.22608 
L 314.7828 184.22608 
L 314.7828 185.798147 
L 300.031395 185.798147 
L 281.405552 184.720004 
L 281.405552 185.798147 
L 268.8932 185.798147 
L 268.8932 184.22608 
z
" clip-path="url(#p64103bd6ea)" style="fill: #1e90ff"/>
   </g>
   <g id="patch_78">
    <path d="M 268.8932 186.200627 
L 292.746232 186.200627 
Q 303.394053 186.200627 309.082451 186.340472 
Q 314.7828 186.479964 314.7828 186.738112 
Q 314.7828 186.997673 309.082451 187.137165 
Q 303.394053 187.276657 292.746232 187.276657 
L 283.269551 187.276657 
L 283.269551 187.848398 
L 268.8932 187.848398 
L 268.8932 186.200627 
z
M 283.269551 186.508569 
L 283.269551 186.968715 
L 291.216578 186.968715 
Q 295.399224 186.968715 297.681754 186.908681 
Q 299.964283 186.848646 299.964283 186.738112 
Q 299.964283 186.627931 297.681754 186.56825 
Q 295.399224 186.508569 291.216578 186.508569 
L 283.269551 186.508569 
z
" clip-path="url(#p64103bd6ea)" style="fill: #ff1493"/>
   </g>
   <g id="patch_79">
    <path d="M 293.061723 193.667275 
L 292.163051 193.667275 
Q 281.139987 193.667275 275.011813 193.355391 
Q 268.8932 193.043018 268.8932 192.486328 
Q 268.8932 191.930617 275.002253 191.615796 
Q 281.111306 191.300485 291.838 191.300485 
Q 302.679418 191.300485 308.731109 191.612859 
Q 314.7828 191.924742 314.7828 192.486328 
Q 314.7828 192.871654 311.570528 193.150244 
Q 308.358256 193.428833 302.325686 193.569352 
L 311.312399 194.083446 
L 300.346697 194.083446 
L 293.061723 193.667275 
z
M 291.838 191.727428 
Q 286.579817 191.727428 283.683036 191.926211 
Q 280.786255 192.124994 280.786255 192.486328 
Q 280.786255 192.853538 283.616113 193.048894 
Q 286.455532 193.24376 291.838 193.24376 
Q 297.124864 193.24376 300.021645 193.044977 
Q 302.918426 192.845704 302.918426 192.486328 
Q 302.918426 192.124994 300.021645 191.926211 
Q 297.124864 191.727428 291.838 191.727428 
z
" clip-path="url(#p64103bd6ea)" style="fill: #1e90ff"/>
   </g>
   <g id="patch_80">
    <path d="M 310.956589 195.094065 
L 310.956589 195.877197 
Q 306.17071 195.740862 301.60917 195.671902 
Q 297.060092 195.60215 293.009543 195.60215 
Q 287.637893 195.60215 285.058005 195.696474 
Q 282.49058 195.790006 282.49058 195.988167 
Q 282.49058 196.137184 284.222969 196.220411 
Q 285.955357 196.302846 290.516898 196.362295 
L 296.89807 196.443937 
Q 306.59446 196.568382 310.682398 196.821235 
Q 314.7828 197.073296 314.7828 197.53937 
Q 314.7828 198.150498 309.074642 198.449325 
Q 303.366485 198.748151 291.638588 198.748151 
Q 286.117379 198.748151 280.546317 198.680776 
Q 274.975255 198.614194 269.404192 198.482616 
L 269.404192 197.678083 
Q 274.975255 197.865939 280.17242 197.961849 
Q 285.369585 198.056966 290.205317 198.056966 
Q 295.115829 198.056966 297.720643 197.95313 
Q 300.325457 197.848501 300.325457 197.655096 
Q 300.325457 197.4823 298.555679 197.387975 
Q 296.785901 197.29365 291.48903 197.219142 
L 285.681166 197.1375 
Q 276.956908 197.018603 272.918822 196.758616 
Q 268.8932 196.498629 268.8932 196.057919 
Q 268.8932 195.505447 274.501652 195.208206 
Q 280.110104 194.910964 290.629067 194.910964 
Q 295.427409 194.910964 300.487479 194.956938 
Q 305.547549 195.002911 310.956589 195.094065 
z
" clip-path="url(#p64103bd6ea)" style="fill: #1e90ff"/>
   </g>
   <g id="patch_81">
    <path d="M 268.8932 182.532975 
L 314.7828 182.532975 
L 314.7828 182.792422 
L 298.273216 182.792422 
L 298.273216 183.863283 
L 285.4348 183.863283 
L 285.4348 182.792422 
L 268.8932 182.792422 
L 268.8932 182.532975 
z
" clip-path="url(#p64103bd6ea)" style="fill: #1e90ff"/>
   </g>
   <g id="patch_82">
    <path d="M 268.8932 179.528325 
L 276.828219 179.528325 
L 282.375163 179.693007 
L 287.880813 179.528325 
L 295.857125 179.528325 
L 301.362776 179.693007 
L 306.916601 179.528325 
L 314.7828 179.528325 
L 307.21253 179.754927 
L 297.667108 179.754927 
L 291.838 179.582669 
L 286.077713 179.754927 
L 276.525409 179.754927 
L 268.8932 179.528325 
z
" clip-path="url(#p64103bd6ea)" style="fill: #ffa500"/>
   </g>
   <g id="matplotlib.axis_1">
    <g id="xtick_1">
     <g id="line2d_2">
      <defs>
       <path id="mb22b5a5368" d="M 0 0 
L 0 3.5 
" style="stroke: #000000; stroke-width: 0.8"/>
      </defs>
      <g>
       <use xlink:href="#mb22b5a5368" x="119.752" y="332.12" style="stroke: #000000; stroke-width: 0.8"/>
      </g>
     </g>
    </g>
    <g id="xtick_2">
     <g id="line2d_3">
      <g>
       <use xlink:href="#mb22b5a5368" x="177.114" y="332.12" style="stroke: #000000; stroke-width: 0.8"/>
      </g>
     </g>
     <g id="text_1">
      <!-- p1 -->
      <g transform="translate(170.758531 346.718437) scale(0.1 -0.1)">
       <defs>
        <path id="DejaVuSans-70" d="M 1159 525 
L 1159 -1331 
L 581 -1331 
L 581 3500 
L 1159 3500 
L 1159 2969 
Q 1341 3281 1617 3432 
Q 1894 3584 2278 3584 
Q 2916 3584 3314 3078 
Q 3713 2572 3713 1747 
Q 3713 922 3314 415 
Q 2916 -91 2278 -91 
Q 1894 -91 1617 61 
Q 1341 213 1159 525 
z
M 3116 1747 
Q 3116 2381 2855 2742 
Q 2594 3103 2138 3103 
Q 1681 3103 1420 2742 
Q 1159 2381 1159 1747 
Q 1159 1113 1420 752 
Q 1681 391 2138 391 
Q 2594 391 2855 752 
Q 3116 1113 3116 1747 
z
" transform="scale(0.015625)"/>
        <path id="DejaVuSans-31" d="M 794 531 
L 1825 531 
L 1825 4091 
L 703 3866 
L 703 4441 
L 1819 4666 
L 2450 4666 
L 2450 531 
L 3481 531 
L 3481 0 
L 794 0 
L 794 531 
z
" transform="scale(0.015625)"/>
       </defs>
       <use xlink:href="#DejaVuSans-70"/>
       <use xlink:href="#DejaVuSans-31" x="63.476562"/>
      </g>
     </g>
    </g>
    <g id="xtick_3">
     <g id="line2d_4">
      <g>
       <use xlink:href="#mb22b5a5368" x="234.476" y="332.12" style="stroke: #000000; stroke-width: 0.8"/>
      </g>
     </g>
     <g id="text_2">
      <!-- p1" -->
      <g transform="translate(225.820531 346.718437) scale(0.1 -0.1)">
       <defs>
        <path id="DejaVuSans-22" d="M 1147 4666 
L 1147 2931 
L 616 2931 
L 616 4666 
L 1147 4666 
z
M 2328 4666 
L 2328 2931 
L 1797 2931 
L 1797 4666 
L 2328 4666 
z
" transform="scale(0.015625)"/>
       </defs>
       <use xlink:href="#DejaVuSans-70"/>
       <use xlink:href="#DejaVuSans-31" x="63.476562"/>
       <use xlink:href="#DejaVuSans-22" x="127.099609"/>
      </g>
     </g>
    </g>
    <g id="xtick_4">
     <g id="line2d_5">
      <g>
       <use xlink:href="#mb22b5a5368" x="291.838" y="332.12" style="stroke: #000000; stroke-width: 0.8"/>
      </g>
     </g>
    </g>
   </g>
   <g id="matplotlib.axis_2">
    <g id="ytick_1">
     <g id="line2d_6">
      <defs>
       <path id="m911c191ed7" d="M 0 0 
L -3.5 0 
" style="stroke: #000000; stroke-width: 0.8"/>
      </defs>
      <g>
       <use xlink:href="#m911c191ed7" x="62.39" y="332.12" style="stroke: #000000; stroke-width: 0.8"/>
      </g>
     </g>
     <g id="text_3">
      <!-- −0.04 -->
      <g transform="translate(24.744688 335.919219) scale(0.1 -0.1)">
       <defs>
        <path id="DejaVuSans-2212" d="M 678 2272 
L 4684 2272 
L 4684 1741 
L 678 1741 
L 678 2272 
z
" transform="scale(0.015625)"/>
        <path id="DejaVuSans-30" d="M 2034 4250 
Q 1547 4250 1301 3770 
Q 1056 3291 1056 2328 
Q 1056 1369 1301 889 
Q 1547 409 2034 409 
Q 2525 409 2770 889 
Q 3016 1369 3016 2328 
Q 3016 3291 2770 3770 
Q 2525 4250 2034 4250 
z
M 2034 4750 
Q 2819 4750 3233 4129 
Q 3647 3509 3647 2328 
Q 3647 1150 3233 529 
Q 2819 -91 2034 -91 
Q 1250 -91 836 529 
Q 422 1150 422 2328 
Q 422 3509 836 4129 
Q 1250 4750 2034 4750 
z
" transform="scale(0.015625)"/>
        <path id="DejaVuSans-2e" d="M 684 794 
L 1344 794 
L 1344 0 
L 684 0 
L 684 794 
z
" transform="scale(0.015625)"/>
        <path id="DejaVuSans-34" d="M 2419 4116 
L 825 1625 
L 2419 1625 
L 2419 4116 
z
M 2253 4666 
L 3047 4666 
L 3047 1625 
L 3713 1625 
L 3713 1100 
L 3047 1100 
L 3047 0 
L 2419 0 
L 2419 1100 
L 313 1100 
L 313 1709 
L 2253 4666 
z
" transform="scale(0.015625)"/>
       </defs>
       <use xlink:href="#DejaVuSans-2212"/>
       <use xlink:href="#DejaVuSans-30" x="83.789062"/>
       <use xlink:href="#DejaVuSans-2e" x="147.412109"/>
       <use xlink:href="#DejaVuSans-30" x="179.199219"/>
       <use xlink:href="#DejaVuSans-34" x="242.822266"/>
      </g>
     </g>
    </g>
    <g id="ytick_2">
     <g id="line2d_7">
      <g>
       <use xlink:href="#m911c191ed7" x="62.39" y="293.965" style="stroke: #000000; stroke-width: 0.8"/>
      </g>
     </g>
     <g id="text_4">
      <!-- −0.03 -->
      <g transform="translate(24.744688 297.764219) scale(0.1 -0.1)">
       <defs>
        <path id="DejaVuSans-33" d="M 2597 2516 
Q 3050 2419 3304 2112 
Q 3559 1806 3559 1356 
Q 3559 666 3084 287 
Q 2609 -91 1734 -91 
Q 1441 -91 1130 -33 
Q 819 25 488 141 
L 488 750 
Q 750 597 1062 519 
Q 1375 441 1716 441 
Q 2309 441 2620 675 
Q 2931 909 2931 1356 
Q 2931 1769 2642 2001 
Q 2353 2234 1838 2234 
L 1294 2234 
L 1294 2753 
L 1863 2753 
Q 2328 2753 2575 2939 
Q 2822 3125 2822 3475 
Q 2822 3834 2567 4026 
Q 2313 4219 1838 4219 
Q 1578 4219 1281 4162 
Q 984 4106 628 3988 
L 628 4550 
Q 988 4650 1302 4700 
Q 1616 4750 1894 4750 
Q 2613 4750 3031 4423 
Q 3450 4097 3450 3541 
Q 3450 3153 3228 2886 
Q 3006 2619 2597 2516 
z
" transform="scale(0.015625)"/>
       </defs>
       <use xlink:href="#DejaVuSans-2212"/>
       <use xlink:href="#DejaVuSans-30" x="83.789062"/>
       <use xlink:href="#DejaVuSans-2e" x="147.412109"/>
       <use xlink:href="#DejaVuSans-30" x="179.199219"/>
       <use xlink:href="#DejaVuSans-33" x="242.822266"/>
      </g>
     </g>
    </g>
    <g id="ytick_3">
     <g id="line2d_8">
      <g>
       <use xlink:href="#m911c191ed7" x="62.39" y="255.81" style="stroke: #000000; stroke-width: 0.8"/>
      </g>
     </g>
     <g id="text_5">
      <!-- −0.02 -->
      <g transform="translate(24.744688 259.609219) scale(0.1 -0.1)">
       <defs>
        <path id="DejaVuSans-32" d="M 1228 531 
L 3431 531 
L 3431 0 
L 469 0 
L 469 531 
Q 828 903 1448 1529 
Q 2069 2156 2228 2338 
Q 2531 2678 2651 2914 
Q 2772 3150 2772 3378 
Q 2772 3750 2511 3984 
Q 2250 4219 1831 4219 
Q 1534 4219 1204 4116 
Q 875 4013 500 3803 
L 500 4441 
Q 881 4594 1212 4672 
Q 1544 4750 1819 4750 
Q 2544 4750 2975 4387 
Q 3406 4025 3406 3419 
Q 3406 3131 3298 2873 
Q 3191 2616 2906 2266 
Q 2828 2175 2409 1742 
Q 1991 1309 1228 531 
z
" transform="scale(0.015625)"/>
       </defs>
       <use xlink:href="#DejaVuSans-2212"/>
       <use xlink:href="#DejaVuSans-30" x="83.789062"/>
       <use xlink:href="#DejaVuSans-2e" x="147.412109"/>
       <use xlink:href="#DejaVuSans-30" x="179.199219"/>
       <use xlink:href="#DejaVuSans-32" x="242.822266"/>
      </g>
     </g>
    </g>
    <g id="ytick_4">
     <g id="line2d_9">
      <g>
       <use xlink:href="#m911c191ed7" x="62.39" y="217.655" style="stroke: #000000; stroke-width: 0.8"/>
      </g>
     </g>
     <g id="text_6">
      <!-- −0.01 -->
      <g transform="translate(24.744688 221.454219) scale(0.1 -0.1)">
       <use xlink:href="#DejaVuSans-2212"/>
       <use xlink:href="#DejaVuSans-30" x="83.789062"/>
       <use xlink:href="#DejaVuSans-2e" x="147.412109"/>
       <use xlink:href="#DejaVuSans-30" x="179.199219"/>
       <use xlink:href="#DejaVuSans-31" x="242.822266"/>
      </g>
     </g>
    </g>
    <g id="ytick_5">
     <g id="line2d_10">
      <g>
       <use xlink:href="#m911c191ed7" x="62.39" y="179.5" style="stroke: #000000; stroke-width: 0.8"/>
      </g>
     </g>
     <g id="text_7">
      <!-- 0.00 -->
      <g transform="translate(33.124375 183.299219) scale(0.1 -0.1)">
       <use xlink:href="#DejaVuSans-30"/>
       <use xlink:href="#DejaVuSans-2e" x="63.623047"/>
       <use xlink:href="#DejaVuSans-30" x="95.410156"/>
       <use xlink:href="#DejaVuSans-30" x="159.033203"/>
      </g>
     </g>
    </g>
    <g id="ytick_6">
     <g id="line2d_11">
      <g>
       <use xlink:href="#m911c191ed7" x="62.39" y="141.345" style="stroke: #000000; stroke-width: 0.8"/>
      </g>
     </g>
     <g id="text_8">
      <!-- 0.01 -->
      <g transform="translate(33.124375 145.144219) scale(0.1 -0.1)">
       <use xlink:href="#DejaVuSans-30"/>
       <use xlink:href="#DejaVuSans-2e" x="63.623047"/>
       <use xlink:href="#DejaVuSans-30" x="95.410156"/>
       <use xlink:href="#DejaVuSans-31" x="159.033203"/>
      </g>
     </g>
    </g>
    <g id="ytick_7">
     <g id="line2d_12">
      <g>
       <use xlink:href="#m911c191ed7" x="62.39" y="103.19" style="stroke: #000000; stroke-width: 0.8"/>
      </g>
     </g>
     <g id="text_9">
      <!-- 0.02 -->
      <g transform="translate(33.124375 106.989219) scale(0.1 -0.1)">
       <use xlink:href="#DejaVuSans-30"/>
       <use xlink:href="#DejaVuSans-2e" x="63.623047"/>
       <use xlink:href="#DejaVuSans-30" x="95.410156"/>
       <use xlink:href="#DejaVuSans-32" x="159.033203"/>
      </g>
     </g>
    </g>
    <g id="ytick_8">
     <g id="line2d_13">
      <g>
       <use xlink:href="#m911c191ed7" x="62.39" y="65.035" style="stroke: #000000; stroke-width: 0.8"/>
      </g>
     </g>
     <g id="text_10">
      <!-- 0.03 -->
      <g transform="translate(33.124375 68.834219) scale(0.1 -0.1)">
       <use xlink:href="#DejaVuSans-30"/>
       <use xlink:href="#DejaVuSans-2e" x="63.623047"/>
       <use xlink:href="#DejaVuSans-30" x="95.410156"/>
       <use xlink:href="#DejaVuSans-33" x="159.033203"/>
      </g>
     </g>
    </g>
    <g id="ytick_9">
     <g id="line2d_14">
      <g>
       <use xlink:href="#m911c191ed7" x="62.39" y="26.88" style="stroke: #000000; stroke-width: 0.8"/>
      </g>
     </g>
     <g id="text_11">
      <!-- 0.04 -->
      <g transform="translate(33.124375 30.679219) scale(0.1 -0.1)">
       <use xlink:href="#DejaVuSans-30"/>
       <use xlink:href="#DejaVuSans-2e" x="63.623047"/>
       <use xlink:href="#DejaVuSans-30" x="95.410156"/>
       <use xlink:href="#DejaVuSans-34" x="159.033203"/>
      </g>
     </g>
    </g>
    <g id="text_12">
     <!-- JS Divergence -->
     <g transform="translate(18.665 214.226562) rotate(-90) scale(0.1 -0.1)">
      <defs>
       <path id="DejaVuSans-4a" d="M 628 4666 
L 1259 4666 
L 1259 325 
Q 1259 -519 939 -900 
Q 619 -1281 -91 -1281 
L -331 -1281 
L -331 -750 
L -134 -750 
Q 284 -750 456 -515 
Q 628 -281 628 325 
L 628 4666 
z
" transform="scale(0.015625)"/>
       <path id="DejaVuSans-53" d="M 3425 4513 
L 3425 3897 
Q 3066 4069 2747 4153 
Q 2428 4238 2131 4238 
Q 1616 4238 1336 4038 
Q 1056 3838 1056 3469 
Q 1056 3159 1242 3001 
Q 1428 2844 1947 2747 
L 2328 2669 
Q 3034 2534 3370 2195 
Q 3706 1856 3706 1288 
Q 3706 609 3251 259 
Q 2797 -91 1919 -91 
Q 1588 -91 1214 -16 
Q 841 59 441 206 
L 441 856 
Q 825 641 1194 531 
Q 1563 422 1919 422 
Q 2459 422 2753 634 
Q 3047 847 3047 1241 
Q 3047 1584 2836 1778 
Q 2625 1972 2144 2069 
L 1759 2144 
Q 1053 2284 737 2584 
Q 422 2884 422 3419 
Q 422 4038 858 4394 
Q 1294 4750 2059 4750 
Q 2388 4750 2728 4690 
Q 3069 4631 3425 4513 
z
" transform="scale(0.015625)"/>
       <path id="DejaVuSans-20" transform="scale(0.015625)"/>
       <path id="DejaVuSans-44" d="M 1259 4147 
L 1259 519 
L 2022 519 
Q 2988 519 3436 956 
Q 3884 1394 3884 2338 
Q 3884 3275 3436 3711 
Q 2988 4147 2022 4147 
L 1259 4147 
z
M 628 4666 
L 1925 4666 
Q 3281 4666 3915 4102 
Q 4550 3538 4550 2338 
Q 4550 1131 3912 565 
Q 3275 0 1925 0 
L 628 0 
L 628 4666 
z
" transform="scale(0.015625)"/>
       <path id="DejaVuSans-69" d="M 603 3500 
L 1178 3500 
L 1178 0 
L 603 0 
L 603 3500 
z
M 603 4863 
L 1178 4863 
L 1178 4134 
L 603 4134 
L 603 4863 
z
" transform="scale(0.015625)"/>
       <path id="DejaVuSans-76" d="M 191 3500 
L 800 3500 
L 1894 563 
L 2988 3500 
L 3597 3500 
L 2284 0 
L 1503 0 
L 191 3500 
z
" transform="scale(0.015625)"/>
       <path id="DejaVuSans-65" d="M 3597 1894 
L 3597 1613 
L 953 1613 
Q 991 1019 1311 708 
Q 1631 397 2203 397 
Q 2534 397 2845 478 
Q 3156 559 3463 722 
L 3463 178 
Q 3153 47 2828 -22 
Q 2503 -91 2169 -91 
Q 1331 -91 842 396 
Q 353 884 353 1716 
Q 353 2575 817 3079 
Q 1281 3584 2069 3584 
Q 2775 3584 3186 3129 
Q 3597 2675 3597 1894 
z
M 3022 2063 
Q 3016 2534 2758 2815 
Q 2500 3097 2075 3097 
Q 1594 3097 1305 2825 
Q 1016 2553 972 2059 
L 3022 2063 
z
" transform="scale(0.015625)"/>
       <path id="DejaVuSans-72" d="M 2631 2963 
Q 2534 3019 2420 3045 
Q 2306 3072 2169 3072 
Q 1681 3072 1420 2755 
Q 1159 2438 1159 1844 
L 1159 0 
L 581 0 
L 581 3500 
L 1159 3500 
L 1159 2956 
Q 1341 3275 1631 3429 
Q 1922 3584 2338 3584 
Q 2397 3584 2469 3576 
Q 2541 3569 2628 3553 
L 2631 2963 
z
" transform="scale(0.015625)"/>
       <path id="DejaVuSans-67" d="M 2906 1791 
Q 2906 2416 2648 2759 
Q 2391 3103 1925 3103 
Q 1463 3103 1205 2759 
Q 947 2416 947 1791 
Q 947 1169 1205 825 
Q 1463 481 1925 481 
Q 2391 481 2648 825 
Q 2906 1169 2906 1791 
z
M 3481 434 
Q 3481 -459 3084 -895 
Q 2688 -1331 1869 -1331 
Q 1566 -1331 1297 -1286 
Q 1028 -1241 775 -1147 
L 775 -588 
Q 1028 -725 1275 -790 
Q 1522 -856 1778 -856 
Q 2344 -856 2625 -561 
Q 2906 -266 2906 331 
L 2906 616 
Q 2728 306 2450 153 
Q 2172 0 1784 0 
Q 1141 0 747 490 
Q 353 981 353 1791 
Q 353 2603 747 3093 
Q 1141 3584 1784 3584 
Q 2172 3584 2450 3431 
Q 2728 3278 2906 2969 
L 2906 3500 
L 3481 3500 
L 3481 434 
z
" transform="scale(0.015625)"/>
       <path id="DejaVuSans-6e" d="M 3513 2113 
L 3513 0 
L 2938 0 
L 2938 2094 
Q 2938 2591 2744 2837 
Q 2550 3084 2163 3084 
Q 1697 3084 1428 2787 
Q 1159 2491 1159 1978 
L 1159 0 
L 581 0 
L 581 3500 
L 1159 3500 
L 1159 2956 
Q 1366 3272 1645 3428 
Q 1925 3584 2291 3584 
Q 2894 3584 3203 3211 
Q 3513 2838 3513 2113 
z
" transform="scale(0.015625)"/>
       <path id="DejaVuSans-63" d="M 3122 3366 
L 3122 2828 
Q 2878 2963 2633 3030 
Q 2388 3097 2138 3097 
Q 1578 3097 1268 2742 
Q 959 2388 959 1747 
Q 959 1106 1268 751 
Q 1578 397 2138 397 
Q 2388 397 2633 464 
Q 2878 531 3122 666 
L 3122 134 
Q 2881 22 2623 -34 
Q 2366 -91 2075 -91 
Q 1284 -91 818 406 
Q 353 903 353 1747 
Q 353 2603 823 3093 
Q 1294 3584 2113 3584 
Q 2378 3584 2631 3529 
Q 2884 3475 3122 3366 
z
" transform="scale(0.015625)"/>
      </defs>
      <use xlink:href="#DejaVuSans-4a"/>
      <use xlink:href="#DejaVuSans-53" x="29.492188"/>
      <use xlink:href="#DejaVuSans-20" x="92.96875"/>
      <use xlink:href="#DejaVuSans-44" x="124.755859"/>
      <use xlink:href="#DejaVuSans-69" x="201.757812"/>
      <use xlink:href="#DejaVuSans-76" x="229.541016"/>
      <use xlink:href="#DejaVuSans-65" x="288.720703"/>
      <use xlink:href="#DejaVuSans-72" x="350.244141"/>
      <use xlink:href="#DejaVuSans-67" x="389.607422"/>
      <use xlink:href="#DejaVuSans-65" x="453.083984"/>
      <use xlink:href="#DejaVuSans-6e" x="514.607422"/>
      <use xlink:href="#DejaVuSans-63" x="577.986328"/>
      <use xlink:href="#DejaVuSans-65" x="632.966797"/>
     </g>
    </g>
   </g>
   <g id="line2d_15">
    <path d="M 205.795 293.965 
L 205.795 65.035 
" clip-path="url(#p64103bd6ea)" style="fill: none; stroke-dasharray: 1.85,0.8; stroke-dashoffset: 0; stroke: #000000; stroke-width: 0.5"/>
   </g>
   <g id="patch_83">
    <path d="M 62.39 332.12 
L 62.39 26.88 
" style="fill: none; stroke: #000000; stroke-width: 0.8; stroke-linejoin: miter; stroke-linecap: square"/>
   </g>
   <g id="patch_84">
    <path d="M 62.39 332.12 
L 349.2 332.12 
" style="fill: none; stroke: #000000; stroke-width: 0.8; stroke-linejoin: miter; stroke-linecap: square"/>
   </g>
   <g id="text_13">
    <!-- splice site: detected vs. background -->
    <g transform="translate(97.284063 20.88) scale(0.12 -0.12)">
     <defs>
      <path id="DejaVuSans-73" d="M 2834 3397 
L 2834 2853 
Q 2591 2978 2328 3040 
Q 2066 3103 1784 3103 
Q 1356 3103 1142 2972 
Q 928 2841 928 2578 
Q 928 2378 1081 2264 
Q 1234 2150 1697 2047 
L 1894 2003 
Q 2506 1872 2764 1633 
Q 3022 1394 3022 966 
Q 3022 478 2636 193 
Q 2250 -91 1575 -91 
Q 1294 -91 989 -36 
Q 684 19 347 128 
L 347 722 
Q 666 556 975 473 
Q 1284 391 1588 391 
Q 1994 391 2212 530 
Q 2431 669 2431 922 
Q 2431 1156 2273 1281 
Q 2116 1406 1581 1522 
L 1381 1569 
Q 847 1681 609 1914 
Q 372 2147 372 2553 
Q 372 3047 722 3315 
Q 1072 3584 1716 3584 
Q 2034 3584 2315 3537 
Q 2597 3491 2834 3397 
z
" transform="scale(0.015625)"/>
      <path id="DejaVuSans-6c" d="M 603 4863 
L 1178 4863 
L 1178 0 
L 603 0 
L 603 4863 
z
" transform="scale(0.015625)"/>
      <path id="DejaVuSans-74" d="M 1172 4494 
L 1172 3500 
L 2356 3500 
L 2356 3053 
L 1172 3053 
L 1172 1153 
Q 1172 725 1289 603 
Q 1406 481 1766 481 
L 2356 481 
L 2356 0 
L 1766 0 
Q 1100 0 847 248 
Q 594 497 594 1153 
L 594 3053 
L 172 3053 
L 172 3500 
L 594 3500 
L 594 4494 
L 1172 4494 
z
" transform="scale(0.015625)"/>
      <path id="DejaVuSans-3a" d="M 750 794 
L 1409 794 
L 1409 0 
L 750 0 
L 750 794 
z
M 750 3309 
L 1409 3309 
L 1409 2516 
L 750 2516 
L 750 3309 
z
" transform="scale(0.015625)"/>
      <path id="DejaVuSans-64" d="M 2906 2969 
L 2906 4863 
L 3481 4863 
L 3481 0 
L 2906 0 
L 2906 525 
Q 2725 213 2448 61 
Q 2172 -91 1784 -91 
Q 1150 -91 751 415 
Q 353 922 353 1747 
Q 353 2572 751 3078 
Q 1150 3584 1784 3584 
Q 2172 3584 2448 3432 
Q 2725 3281 2906 2969 
z
M 947 1747 
Q 947 1113 1208 752 
Q 1469 391 1925 391 
Q 2381 391 2643 752 
Q 2906 1113 2906 1747 
Q 2906 2381 2643 2742 
Q 2381 3103 1925 3103 
Q 1469 3103 1208 2742 
Q 947 2381 947 1747 
z
" transform="scale(0.015625)"/>
      <path id="DejaVuSans-62" d="M 3116 1747 
Q 3116 2381 2855 2742 
Q 2594 3103 2138 3103 
Q 1681 3103 1420 2742 
Q 1159 2381 1159 1747 
Q 1159 1113 1420 752 
Q 1681 391 2138 391 
Q 2594 391 2855 752 
Q 3116 1113 3116 1747 
z
M 1159 2969 
Q 1341 3281 1617 3432 
Q 1894 3584 2278 3584 
Q 2916 3584 3314 3078 
Q 3713 2572 3713 1747 
Q 3713 922 3314 415 
Q 2916 -91 2278 -91 
Q 1894 -91 1617 61 
Q 1341 213 1159 525 
L 1159 0 
L 581 0 
L 581 4863 
L 1159 4863 
L 1159 2969 
z
" transform="scale(0.015625)"/>
      <path id="DejaVuSans-61" d="M 2194 1759 
Q 1497 1759 1228 1600 
Q 959 1441 959 1056 
Q 959 750 1161 570 
Q 1363 391 1709 391 
Q 2188 391 2477 730 
Q 2766 1069 2766 1631 
L 2766 1759 
L 2194 1759 
z
M 3341 1997 
L 3341 0 
L 2766 0 
L 2766 531 
Q 2569 213 2275 61 
Q 1981 -91 1556 -91 
Q 1019 -91 701 211 
Q 384 513 384 1019 
Q 384 1609 779 1909 
Q 1175 2209 1959 2209 
L 2766 2209 
L 2766 2266 
Q 2766 2663 2505 2880 
Q 2244 3097 1772 3097 
Q 1472 3097 1187 3025 
Q 903 2953 641 2809 
L 641 3341 
Q 956 3463 1253 3523 
Q 1550 3584 1831 3584 
Q 2591 3584 2966 3190 
Q 3341 2797 3341 1997 
z
" transform="scale(0.015625)"/>
      <path id="DejaVuSans-6b" d="M 581 4863 
L 1159 4863 
L 1159 1991 
L 2875 3500 
L 3609 3500 
L 1753 1863 
L 3688 0 
L 2938 0 
L 1159 1709 
L 1159 0 
L 581 0 
L 581 4863 
z
" transform="scale(0.015625)"/>
      <path id="DejaVuSans-6f" d="M 1959 3097 
Q 1497 3097 1228 2736 
Q 959 2375 959 1747 
Q 959 1119 1226 758 
Q 1494 397 1959 397 
Q 2419 397 2687 759 
Q 2956 1122 2956 1747 
Q 2956 2369 2687 2733 
Q 2419 3097 1959 3097 
z
M 1959 3584 
Q 2709 3584 3137 3096 
Q 3566 2609 3566 1747 
Q 3566 888 3137 398 
Q 2709 -91 1959 -91 
Q 1206 -91 779 398 
Q 353 888 353 1747 
Q 353 2609 779 3096 
Q 1206 3584 1959 3584 
z
" transform="scale(0.015625)"/>
      <path id="DejaVuSans-75" d="M 544 1381 
L 544 3500 
L 1119 3500 
L 1119 1403 
Q 1119 906 1312 657 
Q 1506 409 1894 409 
Q 2359 409 2629 706 
Q 2900 1003 2900 1516 
L 2900 3500 
L 3475 3500 
L 3475 0 
L 2900 0 
L 2900 538 
Q 2691 219 2414 64 
Q 2138 -91 1772 -91 
Q 1169 -91 856 284 
Q 544 659 544 1381 
z
M 1991 3584 
L 1991 3584 
z
" transform="scale(0.015625)"/>
     </defs>
     <use xlink:href="#DejaVuSans-73"/>
     <use xlink:href="#DejaVuSans-70" x="52.099609"/>
     <use xlink:href="#DejaVuSans-6c" x="115.576172"/>
     <use xlink:href="#DejaVuSans-69" x="143.359375"/>
     <use xlink:href="#DejaVuSans-63" x="171.142578"/>
     <use xlink:href="#DejaVuSans-65" x="226.123047"/>
     <use xlink:href="#DejaVuSans-20" x="287.646484"/>
     <use xlink:href="#DejaVuSans-73" x="319.433594"/>
     <use xlink:href="#DejaVuSans-69" x="371.533203"/>
     <use xlink:href="#DejaVuSans-74" x="399.316406"/>
     <use xlink:href="#DejaVuSans-65" x="438.525391"/>
     <use xlink:href="#DejaVuSans-3a" x="500.048828"/>
     <use xlink:href="#DejaVuSans-20" x="533.740234"/>
     <use xlink:href="#DejaVuSans-64" x="565.527344"/>
     <use xlink:href="#DejaVuSans-65" x="629.003906"/>
     <use xlink:href="#DejaVuSans-74" x="690.527344"/>
     <use xlink:href="#DejaVuSans-65" x="729.736328"/>
     <use xlink:href="#DejaVuSans-63" x="791.259766"/>
     <use xlink:href="#DejaVuSans-74" x="846.240234"/>
     <use xlink:href="#DejaVuSans-65" x="885.449219"/>
     <use xlink:href="#DejaVuSans-64" x="946.972656"/>
     <use xlink:href="#DejaVuSans-20" x="1010.449219"/>
     <use xlink:href="#DejaVuSans-76" x="1042.236328"/>
     <use xlink:href="#DejaVuSans-73" x="1101.416016"/>
     <use xlink:href="#DejaVuSans-2e" x="1153.515625"/>
     <use xlink:href="#DejaVuSans-20" x="1185.302734"/>
     <use xlink:href="#DejaVuSans-62" x="1217.089844"/>
     <use xlink:href="#DejaVuSans-61" x="1280.566406"/>
     <use xlink:href="#DejaVuSans-63" x="1341.845703"/>
     <use xlink:href="#DejaVuSans-6b" x="1396.826172"/>
     <use xlink:href="#DejaVuSans-67" x="1454.736328"/>
     <use xlink:href="#DejaVuSans-72" x="1518.212891"/>
     <use xlink:href="#DejaVuSans-6f" x="1557.076172"/>
     <use xlink:href="#DejaVuSans-75" x="1618.257812"/>
     <use xlink:href="#DejaVuSans-6e" x="1681.636719"/>
     <use xlink:href="#DejaVuSans-64" x="1745.015625"/>
    </g>
   </g>
  </g>
 </g>
 <defs>
  <clipPath id="p64103bd6ea">
   <rect x="62.39" y="26.88" width="286.81" height="305.24"/>
  </clipPath>
 </defs>
</svg>
