<svg class="main-svg" xmlns="http://www.w3.org/2000/svg" xmlns:xlink="http://www.w3.org/1999/xlink" width="400" height="400" style="" viewBox="0 0 400 400"><rect x="0" y="0" width="400" height="400" style="fill: rgb(255, 255, 255); fill-opacity: 1;"/><defs id="defs-e04138"><g class="clips"><clipPath id="clipe04138xyplot" class="plotclip"><rect width="328" height="357"/></clipPath><clipPath class="axesclip" id="clipe04138x"><rect x="54" y="0" width="328" height="400"/></clipPath><clipPath class="axesclip" id="clipe04138y"><rect x="0" y="20" width="400" height="357"/></clipPath><clipPath class="axesclip" id="clipe04138xy"><rect x="54" y="20" width="328" height="357"/></clipPath></g><g class="gradients"/><g class="patterns"/></defs><g class="bglayer"><rect class="bg" x="54" y="20" width="328" height="357" style="fill: rgb(0, 0, 0); fill-opacity: 0; stroke-width: 0;"/></g><g class="layer-below"><g class="imagelayer"/><g class="shapelayer"/></g><g class="cartesianlayer"><g class="subplot xy"><g class="layer-subplot"><g class="shapelayer"/><g class="imagelayer"/></g><g class="minor-gridlayer"><g class="x"/><g class="y"/></g><g class="gridlayer"><g class="x"/><g class="y"/></g><g class="zerolinelayer"><path class="xzl zl crisp" transform="translate(185.2,0)" d="M0,20v357" style="stroke: rgb(255, 255, 255); stroke-opacity: 1; stroke-width: 2px;"/><path class="yzl zl crisp" transform="translate(0,198.5)" d="M54,0h328" style="stroke: rgb(255, 255, 255); stroke-opacity: 1; stroke-width: 2px;"/></g><g class="layer-between"><g class="shapelayer"/><g class="imagelayer"/></g><path class="xlines-below"/><path class="ylines-below"/><g class="overlines-below"/><g class="xaxislayer-below"/><g class="yaxislayer-below"/><g class="overaxes-below"/><g class="plot" transform="translate(54,20)" clip-path="url(#clipe04138xyplot)"><g class="scatterlayer mlayer"><g class="trace scatter tracecadb91" style="stroke-miterlimit: 2; opacity: 1;"><g class="fills"/><g class="errorbars"/><g class="lines"/><g class="points"><path class="point" transform="translate(165.66,26.13)" d="M5,0A5,5 0 1,1 0,-5A5,5 0 0,1 5,0Z" style="opacity: 1; stroke-width: 0.25px; fill: rgb(255, 165, 0); fill-opacity: 1; stroke: rgb(0, 0, 0); stroke-opacity: 1;"/><path class="point" transform="translate(162.49,168.11)" d="M5,0A5,5 0 1,1 0,-5A5,5 0 0,1 5,0Z" style="opacity: 1; stroke-width: 0.25px; fill: rgb(30, 144, 255); fill-opacity: 1; stroke: rgb(0, 0, 0); stroke-opacity: 1;"/><path class="point" transform="translate(111.75,219.39)" d="M5,0A5,5 0 1,1 0,-5A5,5 0 0,1 5,0Z" style="opacity: 1; stroke-width: 0.25px; fill: rgb(178, 34, 34); fill-opacity: 1; stroke: rgb(0, 0, 0); stroke-opacity: 1;"/><path class="point" transform="translate(102.31,250.44)" d="M5,0A5,5 0 1,1 0,-5A5,5 0 0,1 5,0Z" style="opacity: 1; stroke-width: 0.25px; fill: rgb(178, 34, 34); fill-opacity: 1; stroke: rgb(0, 0, 0); stroke-opacity: 1;"/><path class="point" transform="translate(100.19,192.69)" d="M5,0A5,5 0 1,1 0,-5A5,5 0 0,1 5,0Z" style="opacity: 1; stroke-width: 0.25px; fill: rgb(255, 165, 0); fill-opacity: 1; stroke: rgb(0, 0, 0); stroke-opacity: 1;"/><path class="point" transform="translate(258.05,172.6)" d="M5,0A5,5 0 1,1 0,-5A5,5 0 0,1 5,0Z" style="opacity: 1; stroke-width: 0.25px; fill: rgb(30, 144, 255); fill-opacity: 1; stroke: rgb(0, 0, 0); stroke-opacity: 1;"/><path class="point" transform="translate(125.04,173.05)" d="M5,0A5,5 0 1,1 0,-5A5,5 0 0,1 5,0Z" style="opacity: 1; stroke-width: 0.25px; fill: rgb(46, 139, 87); fill-opacity: 1; stroke: rgb(0, 0, 0); stroke-opacity: 1;"/><path class="point" transform="translate(95.66,224.81)" d="M5,0A5,5 0 1,1 0,-5A5,5 0 0,1 5,0Z" style="opacity: 1; stroke-width: 0.25px; fill: rgb(255, 165, 0); fill-opacity: 1; stroke: rgb(0, 0, 0); stroke-opacity: 1;"/><path class="point" transform="translate(52.6,218.98)" d="M5,0A5,5 0 1,1 0,-5A5,5 0 0,1 5,0Z" style="opacity: 1; stroke-width: 0.25px; fill: rgb(46, 139, 87); fill-opacity: 1; stroke: rgb(0, 0, 0); stroke-opacity: 1;"/><path class="point" transform="translate(76.55,320.25)" d="M5,0A5,5 0 1,1 0,-5A5,5 0 0,1 5,0Z" style="opacity: 1; stroke-width: 0.25px; fill: rgb(255, 165, 0); fill-opacity: 1; stroke: rgb(0, 0, 0); stroke-opacity: 1;"/><path class="point" transform="translate(133.39,164.95)" d="M5,0A5,5 0 1,1 0,-5A5,5 0 0,1 5,0Z" style="opacity: 1; stroke-width: 0.25px; fill: rgb(255, 165, 0); fill-opacity: 1; stroke: rgb(0, 0, 0); stroke-opacity: 1;"/><path class="point" transform="translate(133.28,200.32)" d="M5,0A5,5 0 1,1 0,-5A5,5 0 0,1 5,0Z" style="opacity: 1; stroke-width: 0.25px; fill: rgb(30, 144, 255); fill-opacity: 1; stroke: rgb(0, 0, 0); stroke-opacity: 1;"/><path class="point" transform="translate(70.52,314.21)" d="M5,0A5,5 0 1,1 0,-5A5,5 0 0,1 5,0Z" style="opacity: 1; stroke-width: 0.25px; fill: rgb(255, 20, 147); fill-opacity: 1; stroke: rgb(0, 0, 0); stroke-opacity: 1;"/><path class="point" transform="translate(119.57,111.62)" d="M5,0A5,5 0 1,1 0,-5A5,5 0 0,1 5,0Z" style="opacity: 1; stroke-width: 0.25px; fill: rgb(30, 144, 255); fill-opacity: 1; stroke: rgb(0, 0, 0); stroke-opacity: 1;"/><path class="point" transform="translate(115.2,51.09)" d="M5,0A5,5 0 1,1 0,-5A5,5 0 0,1 5,0Z" style="opacity: 1; stroke-width: 0.25px; fill: rgb(46, 139, 87); fill-opacity: 1; stroke: rgb(0, 0, 0); stroke-opacity: 1;"/><path class="point" transform="translate(268.58,89.61)" d="M5,0A5,5 0 1,1 0,-5A5,5 0 0,1 5,0Z" style="opacity: 1; stroke-width: 0.25px; fill: rgb(30, 144, 255); fill-opacity: 1; stroke: rgb(0, 0, 0); stroke-opacity: 1;"/><path class="point" transform="translate(203.46,100.97)" d="M5,0A5,5 0 1,1 0,-5A5,5 0 0,1 5,0Z" style="opacity: 1; stroke-width: 0.25px; fill: rgb(30, 144, 255); fill-opacity: 1; stroke: rgb(0, 0, 0); stroke-opacity: 1;"/><path class="point" transform="translate(74.55,201.48)" d="M5,0A5,5 0 1,1 0,-5A5,5 0 0,1 5,0Z" style="opacity: 1; stroke-width: 0.25px; fill: rgb(255, 165, 0); fill-opacity: 1; stroke: rgb(0, 0, 0); stroke-opacity: 1;"/><path class="point" transform="translate(128.33,181.28)" d="M5,0A5,5 0 1,1 0,-5A5,5 0 0,1 5,0Z" style="opacity: 1; stroke-width: 0.25px; fill: rgb(255, 165, 0); fill-opacity: 1; stroke: rgb(0, 0, 0); stroke-opacity: 1;"/><path class="point" transform="translate(126.83,188)" d="M5,0A5,5 0 1,1 0,-5A5,5 0 0,1 5,0Z" style="opacity: 1; stroke-width: 0.25px; fill: rgb(255, 165, 0); fill-opacity: 1; stroke: rgb(0, 0, 0); stroke-opacity: 1;"/></g><g class="text"><g class="textpoint" transform="translate(0,16.25)"><text x="165.66" y="26.13" text-anchor="middle" style="font-family: Helvetica; font-size: 12px; fill: rgb(0, 0, 0); fill-opacity: 1; white-space: pre;">A</text></g><g class="textpoint" transform="translate(0,16.25)"><text x="162.49" y="168.11" text-anchor="middle" style="font-family: Helvetica; font-size: 12px; fill: rgb(0, 0, 0); fill-opacity: 1; white-space: pre;">C</text></g><g class="textpoint" transform="translate(0,16.25)"><text x="111.75" y="219.39" text-anchor="middle" style="font-family: Helvetica; font-size: 12px; fill: rgb(0, 0, 0); fill-opacity: 1; white-space: pre;">D</text></g><g class="textpoint" transform="translate(0,16.25)"><text x="102.31" y="250.44" text-anchor="middle" style="font-family: Helvetica; font-size: 12px; fill: rgb(0, 0, 0); fill-opacity: 1; white-space: pre;">E</text></g><g class="textpoint" transform="translate(0,16.25)"><text x="100.19" y="192.69" text-anchor="middle" style="font-family: Helvetica; font-size: 12px; fill: rgb(0, 0, 0); fill-opacity: 1; white-space: pre;">F</text></g><g class="textpoint" transform="translate(0,16.25)"><text x="258.05" y="172.6" text-anchor="middle" style="font-family: Helvetica; font-size: 12px; fill: rgb(0, 0, 0); fill-opacity: 1; white-space: pre;">G</text></g><g class="textpoint" transform="translate(0,16.25)"><text x="125.04" y="173.05" text-anchor="middle" style="font-family: Helvetica; font-size: 12px; fill: rgb(0, 0, 0); fill-opacity: 1; white-space: pre;">H</text></g><g class="textpoint" transform="translate(0,16.25)"><text x="95.66" y="224.81" text-anchor="middle" style="font-family: Helvetica; font-size: 12px; fill: rgb(0, 0, 0); fill-opacity: 1; white-space: pre;">I</text></g><g class="textpoint" transform="translate(0,16.25)"><text x="52.6" y="218.98" text-anchor="middle" style="font-family: Helvetica; font-size: 12px; fill: rgb(0, 0, 0); fill-opacity: 1; white-space: pre;">K</text></g><g class="textpoint" transform="translate(0,16.25)"><text x="76.55" y="320.25" text-anchor="middle" style="font-family: Helvetica; font-size: 12px; fill: rgb(0, 0, 0); fill-opacity: 1; white-space: pre;">L</text></g><g class="textpoint" transform="translate(0,16.25)"><text x="133.39" y="164.95" text-anchor="middle" style="font-family: Helvetica; font-size: 12px; fill: rgb(0, 0, 0); fill-opacity: 1; white-space: pre;">M</text></g><g class="textpoint" transform="translate(0,16.25)"><text x="133.28" y="200.32" text-anchor="middle" style="font-family: Helvetica; font-size: 12px; fill: rgb(0, 0, 0); fill-opacity: 1; white-space: pre;">N</text></g><g class="textpoint" transform="translate(0,16.25)"><text x="70.52" y="314.21" text-anchor="middle" style="font-family: Helvetica; font-size: 12px; fill: rgb(0, 0, 0); fill-opacity: 1; white-space: pre;">P</text></g><g class="textpoint" transform="translate(0,16.25)"><text x="119.57" y="111.62" text-anchor="middle" style="font-family: Helvetica; font-size: 12px; fill: rgb(0, 0, 0); fill-opacity: 1; white-space: pre;">Q</text></g><g class="textpoint" transform="translate(0,16.25)"><text x="115.2" y="51.09" text-anchor="middle" style="font-family: Helvetica; font-size: 12px; fill: rgb(0, 0, 0); fill-opacity: 1; white-space: pre;">R</text></g><g class="textpoint" transform="translate(0,16.25)"><text x="268.58" y="89.61" text-anchor="middle" style="font-family: Helvetica; font-size: 12px; fill: rgb(0, 0, 0); fill-opacity: 1; white-space: pre;">S</text></g><g class="textpoint" transform="translate(0,16.25)"><text x="203.46" y="100.97" text-anchor="middle" style="font-family: Helvetica; font-size: 12px; fill: rgb(0, 0, 0); fill-opacity: 1; white-space: pre;">T</text></g><g class="textpoint" transform="translate(0,16.25)"><text x="74.55" y="201.48" text-anchor="middle" style="font-family: Helvetica; font-size: 12px; fill: rgb(0, 0, 0); fill-opacity: 1; white-space: pre;">V</text></g><g class="textpoint" transform="translate(0,16.25)"><text x="128.33" y="181.28" text-anchor="middle" style="font-family: Helvetica; font-size: 12px; fill: rgb(0, 0, 0); fill-opacity: 1; white-space: pre;">W</text></g><g class="textpoint" transform="translate(0,16.25)"><text x="126.83" y="188" text-anchor="middle" style="font-family: Helvetica; font-size: 12px; fill: rgb(0, 0, 0); fill-opacity: 1; white-space: pre;">Y</text></g></g></g><g class="trace scatter trace5ea125" style="stroke-miterlimit: 2; opacity: 1;"><g class="fills"/><g class="errorbars"/><g class="lines"><path class="js-line" d="M52.6,237.47L268.58,75.43" style="vector-effect: none; fill: none; stroke: rgb(255, 0, 0); stroke-opacity: 1; stroke-width: 1px; opacity: 1;"/></g><g class="points"/><g class="text"/></g></g></g><g class="overplot"/><path class="xlines-above crisp" d="M53.5,377.25H382" style="fill: none; stroke-width: 0.5px; stroke: rgb(0, 0, 0); stroke-opacity: 1;"/><path class="ylines-above crisp" d="M53.75,20V377" style="fill: none; stroke-width: 0.5px; stroke: rgb(0, 0, 0); stroke-opacity: 1;"/><g class="overlines-above"/><g class="xaxislayer-above"><path class="xtick ticks crisp" d="M0,377.5v5" transform="translate(54,0)" style="stroke: rgb(68, 68, 68); stroke-opacity: 1; stroke-width: 1px;"/><path class="xtick ticks crisp" d="M0,377.5v5" transform="translate(119.6,0)" style="stroke: rgb(68, 68, 68); stroke-opacity: 1; stroke-width: 1px;"/><path class="xtick ticks crisp" d="M0,377.5v5" transform="translate(185.2,0)" style="stroke: rgb(68, 68, 68); stroke-opacity: 1; stroke-width: 1px;"/><path class="xtick ticks crisp" d="M0,377.5v5" transform="translate(250.8,0)" style="stroke: rgb(68, 68, 68); stroke-opacity: 1; stroke-width: 1px;"/><path class="xtick ticks crisp" d="M0,377.5v5" transform="translate(316.4,0)" style="stroke: rgb(68, 68, 68); stroke-opacity: 1; stroke-width: 1px;"/><path class="xtick ticks crisp" d="M0,377.5v5" transform="translate(382,0)" style="stroke: rgb(68, 68, 68); stroke-opacity: 1; stroke-width: 1px;"/><g class="xtick"><text text-anchor="middle" x="0" y="396.9" transform="translate(54,0)" style="font-family: Helvetica; font-size: 12px; fill: rgb(0, 0, 0); fill-opacity: 1; white-space: pre; opacity: 1;">−0.01</text></g><g class="xtick"><text text-anchor="middle" x="0" y="396.9" style="font-family: Helvetica; font-size: 12px; fill: rgb(0, 0, 0); fill-opacity: 1; white-space: pre; opacity: 1;" transform="translate(119.6,0)">−0.005</text></g><g class="xtick"><text text-anchor="middle" x="0" y="396.9" style="font-family: Helvetica; font-size: 12px; fill: rgb(0, 0, 0); fill-opacity: 1; white-space: pre; opacity: 1;" transform="translate(185.2,0)">0</text></g><g class="xtick"><text text-anchor="middle" x="0" y="396.9" style="font-family: Helvetica; font-size: 12px; fill: rgb(0, 0, 0); fill-opacity: 1; white-space: pre; opacity: 1;" transform="translate(250.8,0)">0.005</text></g><g class="xtick"><text text-anchor="middle" x="0" y="396.9" style="font-family: Helvetica; font-size: 12px; fill: rgb(0, 0, 0); fill-opacity: 1; white-space: pre; opacity: 1;" transform="translate(316.4,0)">0.01</text></g><g class="xtick"><text text-anchor="middle" x="0" y="396.9" style="font-family: Helvetica; font-size: 12px; fill: rgb(0, 0, 0); fill-opacity: 1; white-space: pre; opacity: 1;" transform="translate(382,0)">0.015</text></g></g><g class="yaxislayer-above"><path class="ytick ticks crisp" d="M53.5,0h-5" transform="translate(0,377)" style="stroke: rgb(68, 68, 68); stroke-opacity: 1; stroke-width: 1px;"/><path class="ytick ticks crisp" d="M53.5,0h-5" transform="translate(0,287.75)" style="stroke: rgb(68, 68, 68); stroke-opacity: 1; stroke-width: 1px;"/><path class="ytick ticks crisp" d="M53.5,0h-5" transform="translate(0,198.5)" style="stroke: rgb(68, 68, 68); stroke-opacity: 1; stroke-width: 1px;"/><path class="ytick ticks crisp" d="M53.5,0h-5" transform="translate(0,109.25)" style="stroke: rgb(68, 68, 68); stroke-opacity: 1; stroke-width: 1px;"/><path class="ytick ticks crisp" d="M53.5,0h-5" transform="translate(0,20)" style="stroke: rgb(68, 68, 68); stroke-opacity: 1; stroke-width: 1px;"/><g class="ytick"><text text-anchor="end" x="46.1" y="4.199999999999999" transform="translate(0,377)" style="font-family: Helvetica; font-size: 12px; fill: rgb(0, 0, 0); fill-opacity: 1; white-space: pre; opacity: 1;">−0.01</text></g><g class="ytick"><text text-anchor="end" x="46.1" y="4.199999999999999" style="font-family: Helvetica; font-size: 12px; fill: rgb(0, 0, 0); fill-opacity: 1; white-space: pre; opacity: 1;" transform="translate(0,287.75)">−0.005</text></g><g class="ytick"><text text-anchor="end" x="46.1" y="4.199999999999999" style="font-family: Helvetica; font-size: 12px; fill: rgb(0, 0, 0); fill-opacity: 1; white-space: pre; opacity: 1;" transform="translate(0,198.5)">0</text></g><g class="ytick"><text text-anchor="end" x="46.1" y="4.199999999999999" style="font-family: Helvetica; font-size: 12px; fill: rgb(0, 0, 0); fill-opacity: 1; white-space: pre; opacity: 1;" transform="translate(0,109.25)">0.005</text></g><g class="ytick"><text text-anchor="end" x="46.1" y="4.199999999999999" style="font-family: Helvetica; font-size: 12px; fill: rgb(0, 0, 0); fill-opacity: 1; white-space: pre; opacity: 1;" transform="translate(0,20)">0.01</text></g></g><g class="overaxes-above"/></g></g><g class="polarlayer"/><g class="smithlayer"/><g class="ternarylayer"/><g class="geolayer"/><g class="funnelarealayer"/><g class="pielayer"/><g class="iciclelayer"/><g class="treemaplayer"/><g class="sunburstlayer"/><g class="glimages"/><defs id="topdefs-e04138"><g class="clips"/></defs><g class="layer-above"><g class="imagelayer"/><g class="shapelayer"><g class="shape-group" data-index="0" clip-path="url(#clipe04138x)"><path data-index="0" fill-rule="evenodd" d="M185.2,377L185.2,20" style="opacity: 1; stroke: rgb(0, 0, 0); stroke-opacity: 1; fill: rgb(0, 0, 0); fill-opacity: 0; stroke-dasharray: 9px, 9px; stroke-width: 0.5px;"/></g><g class="shape-group" data-index="1" clip-path="url(#clipe04138y)"><path data-index="1" fill-rule="evenodd" d="M54,198.5L382,198.5" style="opacity: 1; stroke: rgb(0, 0, 0); stroke-opacity: 1; fill: rgb(0, 0, 0); fill-opacity: 0; stroke-dasharray: 9px, 9px; stroke-width: 0.5px;"/></g></g></g><g class="infolayer"><g class="g-gtitle"/><g class="g-xtitle"/><g class="g-ytitle"/></g></svg>