<svg class="main-svg" xmlns="http://www.w3.org/2000/svg" xmlns:xlink="http://www.w3.org/1999/xlink" width="400" height="300" style="" viewBox="0 0 400 300"><rect x="0" y="0" width="400" height="300" style="fill: rgb(255, 255, 255); fill-opacity: 1;"/><defs id="defs-c9a8bc"><g class="clips"><clipPath id="clipc9a8bcxyplot" class="plotclip"><rect width="153" height="232"/></clipPath><clipPath id="clipc9a8bcx2y2plot" class="plotclip"><rect width="153.00000000000003" height="232"/></clipPath><clipPath class="axesclip" id="clipc9a8bcx"><rect x="28" y="0" width="153" height="300"/></clipPath><clipPath class="axesclip" id="clipc9a8bcy"><rect x="0" y="20" width="400" height="232"/></clipPath><clipPath class="axesclip" id="clipc9a8bcxy"><rect x="28" y="20" width="153" height="232"/></clipPath><clipPath class="axesclip" id="clipc9a8bcy2"><rect x="0" y="20" width="400" height="232"/></clipPath><clipPath class="axesclip" id="clipc9a8bcxy2"><rect x="28" y="20" width="153" height="232"/></clipPath><clipPath class="axesclip" id="clipc9a8bcx2"><rect x="234.99999999999997" y="0" width="153.00000000000003" height="300"/></clipPath><clipPath class="axesclip" id="clipc9a8bcx2y"><rect x="234.99999999999997" y="20" width="153.00000000000003" height="232"/></clipPath><clipPath class="axesclip" id="clipc9a8bcx2y2"><rect x="234.99999999999997" y="20" width="153.00000000000003" height="232"/></clipPath></g><g class="gradients"/><g class="patterns"/></defs><g class="bglayer"><rect class="bg" x="28" y="20" width="153" height="232" style="fill: rgb(0, 0, 0); fill-opacity: 0; stroke-width: 0;"/><rect class="bg" x="234.99999999999997" y="20" width="153.00000000000003" height="232" style="fill: rgb(0, 0, 0); fill-opacity: 0; stroke-width: 0;"/></g><g class="layer-below"><g class="imagelayer"/><g class="shapelayer"/></g><g class="cartesianlayer"><g class="subplot xy"><g class="layer-subplot"><g class="shapelayer"/><g class="imagelayer"/></g><g class="minor-gridlayer"><g class="x"/><g class="y"/></g><g class="gridlayer"><g class="x"/><g class="y"/></g><g class="zerolinelayer"/><g class="layer-between"><g class="shapelayer"/><g class="imagelayer"/></g><path class="xlines-below"/><path class="ylines-below"/><g class="overlines-below"/><g class="xaxislayer-below"/><g class="yaxislayer-below"/><g class="overaxes-below"/><g class="plot" transform="translate(28,20)" clip-path="url(#clipc9a8bcxyplot)"><g class="scatterlayer mlayer"><g class="trace scatter tracef9eb12" style="stroke-miterlimit: 2; opacity: 1;"><g class="fills"/><g class="errorbars"/><g class="lines"><path class="js-line" d="M0,232L12.24,227.29L13.77,226.79L53.55,204.71L55.08,203.98L67.32,199.23L68.85,198.8L137.7,178.24L139.23,177.88L153,174.28" style="vector-effect: none; fill: none; stroke: rgb(245, 222, 179); stroke-opacity: 1; stroke-width: 2px; opacity: 1;"/></g><g class="points"/><g class="text"/></g><g class="trace scatter trace42331f" style="stroke-miterlimit: 2; opacity: 1;"><g class="fills"/><g class="errorbars"/><g class="lines"><path class="js-line" d="M0,232L1.53,226.48L3.06,218.08L9.18,201.53L10.71,199.32L15.3,192.76L16.83,189.55L19.89,184.56L21.42,178.31L22.95,172.69L24.48,170.53L29.07,163.91L30.6,161.44L38.25,147.73L39.78,144.42L48.96,122.36L50.49,119.89L56.61,110.8L58.14,109.7L62.73,105.76L64.26,104.76L78.03,96.19L79.56,95.67L93.33,89.89L94.86,89.1L99.45,86.79L100.98,86.37L110.16,82.69L111.69,82.43L128.52,77.75L130.05,77.65L153,72.82" style="vector-effect: none; fill: none; stroke: rgb(21, 127, 145); stroke-opacity: 1; stroke-width: 2px; opacity: 1;"/></g><g class="points"/><g class="text"/></g></g></g><g class="overplot"/><path class="xlines-above crisp" d="M27.5,252.25H181" style="fill: none; stroke-width: 0.5px; stroke: rgb(0, 0, 0); stroke-opacity: 1;"/><path class="ylines-above crisp" d="M27.75,20V252" style="fill: none; stroke-width: 0.5px; stroke: rgb(0, 0, 0); stroke-opacity: 1;"/><g class="overlines-above"/><g class="xaxislayer-above"><path class="xtick ticks crisp" d="M0,252.5v5" transform="translate(28,0)" style="stroke: rgb(68, 68, 68); stroke-opacity: 1; stroke-width: 1px;"/><path class="xtick ticks crisp" d="M0,252.5v5" transform="translate(104.5,0)" style="stroke: rgb(68, 68, 68); stroke-opacity: 1; stroke-width: 1px;"/><path class="xtick ticks crisp" d="M0,252.5v5" transform="translate(181,0)" style="stroke: rgb(68, 68, 68); stroke-opacity: 1; stroke-width: 1px;"/><g class="xtick"><text text-anchor="middle" x="0" y="271.9" transform="translate(28,0)" style="font-family: Helvetica; font-size: 12px; fill: rgb(0, 0, 0); fill-opacity: 1; white-space: pre; opacity: 1;">0</text></g><g class="xtick"><text text-anchor="middle" x="0" y="271.9" style="font-family: Helvetica; font-size: 12px; fill: rgb(0, 0, 0); fill-opacity: 1; white-space: pre; opacity: 1;" transform="translate(104.5,0)">50</text></g><g class="xtick"><text text-anchor="middle" x="0" y="271.9" style="font-family: Helvetica; font-size: 12px; fill: rgb(0, 0, 0); fill-opacity: 1; white-space: pre; opacity: 1;" transform="translate(181,0)">100</text></g></g><g class="yaxislayer-above"><path class="ytick ticks crisp" d="M27.5,0h-5" transform="translate(0,252)" style="stroke: rgb(68, 68, 68); stroke-opacity: 1; stroke-width: 1px;"/><path class="ytick ticks crisp" d="M27.5,0h-5" transform="translate(0,205.6)" style="stroke: rgb(68, 68, 68); stroke-opacity: 1; stroke-width: 1px;"/><path class="ytick ticks crisp" d="M27.5,0h-5" transform="translate(0,159.2)" style="stroke: rgb(68, 68, 68); stroke-opacity: 1; stroke-width: 1px;"/><path class="ytick ticks crisp" d="M27.5,0h-5" transform="translate(0,112.8)" style="stroke: rgb(68, 68, 68); stroke-opacity: 1; stroke-width: 1px;"/><path class="ytick ticks crisp" d="M27.5,0h-5" transform="translate(0,66.4)" style="stroke: rgb(68, 68, 68); stroke-opacity: 1; stroke-width: 1px;"/><path class="ytick ticks crisp" d="M27.5,0h-5" transform="translate(0,20)" style="stroke: rgb(68, 68, 68); stroke-opacity: 1; stroke-width: 1px;"/><g class="ytick"><text text-anchor="end" x="20.1" y="4.199999999999999" transform="translate(0,252)" style="font-family: Helvetica; font-size: 12px; fill: rgb(0, 0, 0); fill-opacity: 1; white-space: pre; opacity: 1;">0</text></g><g class="ytick"><text text-anchor="end" x="20.1" y="4.199999999999999" style="font-family: Helvetica; font-size: 12px; fill: rgb(0, 0, 0); fill-opacity: 1; white-space: pre; opacity: 1;" transform="translate(0,205.6)">0.2</text></g><g class="ytick"><text text-anchor="end" x="20.1" y="4.199999999999999" style="font-family: Helvetica; font-size: 12px; fill: rgb(0, 0, 0); fill-opacity: 1; white-space: pre; opacity: 1;" transform="translate(0,159.2)">0.4</text></g><g class="ytick"><text text-anchor="end" x="20.1" y="4.199999999999999" style="font-family: Helvetica; font-size: 12px; fill: rgb(0, 0, 0); fill-opacity: 1; white-space: pre; opacity: 1;" transform="translate(0,112.8)">0.6</text></g><g class="ytick"><text text-anchor="end" x="20.1" y="4.199999999999999" style="font-family: Helvetica; font-size: 12px; fill: rgb(0, 0, 0); fill-opacity: 1; white-space: pre; opacity: 1;" transform="translate(0,66.4)">0.8</text></g><g class="ytick"><text text-anchor="end" x="20.1" y="4.199999999999999" style="font-family: Helvetica; font-size: 12px; fill: rgb(0, 0, 0); fill-opacity: 1; white-space: pre; opacity: 1;" transform="translate(0,20)">1</text></g></g><g class="overaxes-above"/></g><g class="subplot x2y2"><g class="layer-subplot"><g class="shapelayer"/><g class="imagelayer"/></g><g class="minor-gridlayer"><g class="x2"/><g class="y2"/></g><g class="gridlayer"><g class="x2"/><g class="y2"/></g><g class="zerolinelayer"><path class="y2zl zl crisp" transform="translate(0,174.67)" d="M234.99999999999997,0h153.00000000000003" style="stroke: rgb(255, 255, 255); stroke-opacity: 1; stroke-width: 2px;"/></g><g class="layer-between"><g class="shapelayer"/><g class="imagelayer"/></g><path class="xlines-below"/><path class="ylines-below"/><g class="overlines-below"/><g class="xaxislayer-below"/><g class="yaxislayer-below"/><g class="overaxes-below"/><g class="plot" transform="translate(234.99999999999997,20)" clip-path="url(#clipc9a8bcx2y2plot)"><g class="scatterlayer mlayer"><g class="trace scatter trace0dcf10" style="stroke-miterlimit: 2; opacity: 1;"><g class="fills"/><g class="errorbars"/><g class="lines"><path class="js-line" d="M1.53,26.59L3.06,26.35L4.59,43.25L6.12,46.35L7.65,45.15L9.18,41.18L10.71,66.95L12.24,68.53L13.77,76.95L15.3,82.62L16.83,82.73L18.36,91.67L19.89,93.96L21.42,56.37L22.95,67.09L24.48,101.02L26.01,98.24L27.54,100.22L29.07,96.49L30.6,93.64L32.13,93.13L33.66,95.43L35.19,81.96L36.72,95.39L38.25,92.62L39.78,91.11L41.31,94.3L42.84,91.4L44.37,93.31L45.9,95.51L47.43,93.36L48.96,104.71L50.49,107L52.02,107.58L53.55,105.66L55.08,108.19L56.61,121.01L58.14,135.24L59.67,135.17L62.73,140.76L64.26,150.59L67.32,158.14L68.85,156.09L70.38,158.8L71.91,155.66L73.44,147.92L74.97,155.95L76.5,156.63L78.03,154.47L79.56,167.78L81.09,169.46L82.62,170.1L84.15,169.67L87.21,170.29L88.74,168.4L90.27,166.43L91.8,166.39L94.86,162.5L96.39,166.33L97.92,165.23L99.45,166.02L100.98,168.12L102.51,165.44L104.04,167.25L105.57,167.74L107.1,165.08L108.63,166.88L110.16,167.55L111.69,166.11L113.22,168.3L114.75,167.21L116.28,168.01L117.81,170.7L119.34,166.63L120.87,171.3L122.4,170.97L123.93,172.74L126.99,172.35L128.52,170.39L130.05,171.37L131.58,177.47L133.11,176.77L134.64,179.62L137.7,175.72L139.23,177.07L143.82,179.12L145.35,177.55L146.88,175.52L148.41,177.15L149.94,178.96L151.47,176.66L153,177.77" style="vector-effect: none; fill: none; stroke: rgb(178, 34, 34); stroke-opacity: 1; stroke-width: 2px; opacity: 1;"/></g><g class="points"/><g class="text"/></g></g></g><g class="overplot"/><path class="xlines-above crisp" d="M234.49999999999997,252.25H388" style="fill: none; stroke-width: 0.5px; stroke: rgb(0, 0, 0); stroke-opacity: 1;"/><path class="ylines-above crisp" d="M234.74999999999997,20V252" style="fill: none; stroke-width: 0.5px; stroke: rgb(0, 0, 0); stroke-opacity: 1;"/><g class="overlines-above"/><g class="xaxislayer-above"><path class="x2tick ticks crisp" d="M0,252.5v5" transform="translate(234.99999999999997,0)" style="stroke: rgb(68, 68, 68); stroke-opacity: 1; stroke-width: 1px;"/><path class="x2tick ticks crisp" d="M0,252.5v5" transform="translate(311.5,0)" style="stroke: rgb(68, 68, 68); stroke-opacity: 1; stroke-width: 1px;"/><path class="x2tick ticks crisp" d="M0,252.5v5" transform="translate(388,0)" style="stroke: rgb(68, 68, 68); stroke-opacity: 1; stroke-width: 1px;"/><g class="x2tick"><text text-anchor="middle" x="0" y="271.9" transform="translate(234.99999999999997,0)" style="font-family: Helvetica; font-size: 12px; fill: rgb(0, 0, 0); fill-opacity: 1; white-space: pre; opacity: 1;">0</text></g><g class="x2tick"><text text-anchor="middle" x="0" y="271.9" style="font-family: Helvetica; font-size: 12px; fill: rgb(0, 0, 0); fill-opacity: 1; white-space: pre; opacity: 1;" transform="translate(311.5,0)">50</text></g><g class="x2tick"><text text-anchor="middle" x="0" y="271.9" style="font-family: Helvetica; font-size: 12px; fill: rgb(0, 0, 0); fill-opacity: 1; white-space: pre; opacity: 1;" transform="translate(388,0)">100</text></g></g><g class="yaxislayer-above"><path class="y2tick ticks crisp" d="M234.49999999999997,0h-5" transform="translate(0,252)" style="stroke: rgb(68, 68, 68); stroke-opacity: 1; stroke-width: 1px;"/><path class="y2tick ticks crisp" d="M234.49999999999997,0h-5" transform="translate(0,174.67)" style="stroke: rgb(68, 68, 68); stroke-opacity: 1; stroke-width: 1px;"/><path class="y2tick ticks crisp" d="M234.49999999999997,0h-5" transform="translate(0,97.33)" style="stroke: rgb(68, 68, 68); stroke-opacity: 1; stroke-width: 1px;"/><path class="y2tick ticks crisp" d="M234.49999999999997,0h-5" transform="translate(0,20)" style="stroke: rgb(68, 68, 68); stroke-opacity: 1; stroke-width: 1px;"/><g class="y2tick"><text text-anchor="end" x="227.09999999999997" y="4.199999999999999" transform="translate(0,252)" style="font-family: Helvetica; font-size: 12px; fill: rgb(0, 0, 0); fill-opacity: 1; white-space: pre; opacity: 1;">−1</text></g><g class="y2tick"><text text-anchor="end" x="227.09999999999997" y="4.199999999999999" style="font-family: Helvetica; font-size: 12px; fill: rgb(0, 0, 0); fill-opacity: 1; white-space: pre; opacity: 1;" transform="translate(0,174.67)">0</text></g><g class="y2tick"><text text-anchor="end" x="227.09999999999997" y="4.199999999999999" style="font-family: Helvetica; font-size: 12px; fill: rgb(0, 0, 0); fill-opacity: 1; white-space: pre; opacity: 1;" transform="translate(0,97.33)">1</text></g><g class="y2tick"><text text-anchor="end" x="227.09999999999997" y="4.199999999999999" style="font-family: Helvetica; font-size: 12px; fill: rgb(0, 0, 0); fill-opacity: 1; white-space: pre; opacity: 1;" transform="translate(0,20)">2</text></g></g><g class="overaxes-above"/></g></g><g class="polarlayer"/><g class="smithlayer"/><g class="ternarylayer"/><g class="geolayer"/><g class="funnelarealayer"/><g class="pielayer"/><g class="iciclelayer"/><g class="treemaplayer"/><g class="sunburstlayer"/><g class="glimages"/><defs id="topdefs-c9a8bc"><g class="clips"/></defs><g class="layer-above"><g class="imagelayer"/><g class="shapelayer"><g class="shape-group" data-index="0" clip-path="url(#clipc9a8bcy)"><path data-index="0" fill-rule="evenodd" d="M28,252L181,252" style="opacity: 1; stroke: rgb(42, 63, 95); stroke-opacity: 1; fill: rgb(0, 0, 0); fill-opacity: 0; stroke-width: 0.5px;"/></g><g class="shape-group" data-index="1" clip-path="url(#clipc9a8bcy2)"><path data-index="1" fill-rule="evenodd" d="M234.99999999999997,174.67L388,174.67" style="opacity: 1; stroke: rgb(42, 63, 95); stroke-opacity: 1; fill: rgb(0, 0, 0); fill-opacity: 0; stroke-width: 0.5px;"/></g></g></g><g class="infolayer"><g class="g-gtitle"/><g class="g-xtitle" transform="translate(0,-2.4562500000000114)"><text class="xtitle" x="104.5" y="299.45625" text-anchor="middle" style="font-family: Helvetica; font-size: 14px; fill: rgb(0, 0, 0); opacity: 1; font-weight: normal; white-space: pre;">intervening seq length</text></g><g class="g-x2title" transform="translate(0,-2.4562500000000114)"><text class="x2title" x="311.5" y="299.45625" text-anchor="middle" style="font-family: Helvetica; font-size: 14px; fill: rgb(0, 0, 0); opacity: 1; font-weight: normal; white-space: pre;">intervening seq length</text></g><g class="g-ytitle"/><g class="g-y2title"/></g></svg>