<?xml version="1.0" encoding="utf-8" standalone="no"?>
<!DOCTYPE svg PUBLIC "-//W3C//DTD SVG 1.1//EN"
  "http://www.w3.org/Graphics/SVG/1.1/DTD/svg11.dtd">
<svg xmlns:xlink="http://www.w3.org/1999/xlink" width="360pt" height="360pt" viewBox="0 0 360 360" xmlns="http://www.w3.org/2000/svg" version="1.1">
 <metadata>
  <rdf:RDF xmlns:dc="http://purl.org/dc/elements/1.1/" xmlns:cc="http://creativecommons.org/ns#" xmlns:rdf="http://www.w3.org/1999/02/22-rdf-syntax-ns#">
   <cc:Work>
    <dc:type rdf:resource="http://purl.org/dc/dcmitype/StillImage"/>
    <dc:date>2024-12-18T13:22:10.761221</dc:date>
    <dc:format>image/svg+xml</dc:format>
    <dc:creator>
     <cc:Agent>
      <dc:title>Matplotlib v3.8.4, https://matplotlib.org/</dc:title>
     </cc:Agent>
    </dc:creator>
   </cc:Work>
  </rdf:RDF>
 </metadata>
 <defs>
  <style type="text/css">*{stroke-linejoin: round; stroke-linecap: butt}</style>
 </defs>
 <g id="figure_1">
  <g id="patch_1">
   <path d="M 0 360 
L 360 360 
L 360 0 
L 0 0 
z
" style="fill: #ffffff"/>
  </g>
  <g id="axes_1">
   <g id="patch_2">
    <path d="M 62.39 332.12 
L 349.2 332.12 
L 349.2 26.88 
L 62.39 26.88 
z
" style="fill: #ffffff"/>
   </g>
   <g id="line2d_1">
    <path d="M 62.39 179.5 
L 349.2 179.5 
" clip-path="url(#p37819b4825)" style="fill: none; stroke: #000000; stroke-width: 0.5; stroke-linecap: square"/>
   </g>
   <g id="patch_3">
    <path d="M 96.8072 179.479238 
L 108.159974 179.479238 
L 119.766074 179.49286 
L 131.353409 179.479238 
L 142.6968 179.479238 
L 126.483913 179.497693 
L 113.020087 179.497693 
L 96.8072 179.479238 
z
" clip-path="url(#p37819b4825)" style="fill: #ffa500"/>
   </g>
   <g id="patch_4">
    <path d="M 96.8072 179.291109 
L 104.742219 179.291109 
L 110.289163 179.41115 
L 115.794813 179.291109 
L 123.771125 179.291109 
L 129.276776 179.41115 
L 134.830601 179.291109 
L 142.6968 179.291109 
L 135.12653 179.456284 
L 125.581108 179.456284 
L 119.752 179.330722 
L 113.991713 179.456284 
L 104.439409 179.456284 
L 96.8072 179.291109 
z
" clip-path="url(#p37819b4825)" style="fill: #ffa500"/>
   </g>
   <g id="patch_5">
    <path d="M 96.8072 178.938916 
L 109.494325 178.938916 
L 119.742359 179.043952 
L 129.980753 178.938916 
L 142.6968 178.938916 
L 125.555685 179.10945 
L 125.555685 179.233624 
L 113.957956 179.233624 
L 113.957956 179.10945 
L 96.8072 178.938916 
z
" clip-path="url(#p37819b4825)" style="fill: #ffa500"/>
   </g>
   <g id="patch_6">
    <path d="M 96.8072 178.491024 
L 110.011024 178.491024 
L 110.011024 178.630254 
L 129.492976 178.630254 
L 129.492976 178.491024 
L 142.6968 178.491024 
L 142.6968 178.856405 
L 129.492976 178.856405 
L 129.492976 178.701514 
L 110.011024 178.701514 
L 110.011024 178.856405 
L 96.8072 178.856405 
L 96.8072 178.491024 
z
" clip-path="url(#p37819b4825)" style="fill: #2e8b57"/>
   </g>
   <g id="patch_7">
    <path d="M 120.975723 178.325046 
L 120.077051 178.325046 
Q 109.053987 178.325046 102.925813 178.275937 
Q 96.8072 178.226751 96.8072 178.139094 
Q 96.8072 178.051592 102.916253 178.002021 
Q 109.025306 177.952372 119.752 177.952372 
Q 130.593418 177.952372 136.645109 178.001558 
Q 142.6968 178.050667 142.6968 178.139094 
Q 142.6968 178.199768 139.484528 178.243634 
Q 136.272256 178.287501 130.239686 178.309627 
L 139.226399 178.390576 
L 128.260697 178.390576 
L 120.975723 178.325046 
z
M 119.752 178.019598 
Q 114.493817 178.019598 111.597036 178.050899 
Q 108.700255 178.082199 108.700255 178.139094 
Q 108.700255 178.196915 111.530113 178.227676 
Q 114.369532 178.258359 119.752 178.258359 
Q 125.038864 178.258359 127.935645 178.227059 
Q 130.832426 178.195682 130.832426 178.139094 
Q 130.832426 178.082199 127.935645 178.050899 
Q 125.038864 178.019598 119.752 178.019598 
z
" clip-path="url(#p37819b4825)" style="fill: #1e90ff"/>
   </g>
   <g id="patch_8">
    <path d="M 115.426698 177.468296 
Q 119.544996 177.468296 121.33177 177.449398 
Q 123.118545 177.430364 123.118545 177.386898 
Q 123.118545 177.343836 121.33177 177.325343 
Q 119.544996 177.306714 115.426698 177.306714 
L 109.913845 177.306714 
L 109.913845 177.468296 
L 115.426698 177.468296 
z
M 109.913845 177.580473 
L 109.913845 177.818864 
L 96.8072 177.818864 
L 96.8072 177.189003 
L 116.821254 177.189003 
Q 126.866413 177.189003 131.540354 177.23085 
Q 136.22519 177.272562 136.22519 177.36287 
Q 136.22519 177.425235 133.784717 177.465327 
Q 131.35514 177.505419 126.452405 177.524452 
Q 129.143461 177.532011 131.26798 177.558874 
Q 133.403393 177.585602 135.582387 177.640003 
L 142.6968 177.818864 
L 128.740348 177.818864 
L 122.541111 177.662411 
Q 120.667177 177.615165 118.738768 177.597886 
Q 116.821254 177.580473 113.618134 177.580473 
L 109.913845 177.580473 
z
" clip-path="url(#p37819b4825)" style="fill: #2e8b57"/>
   </g>
   <g id="patch_9">
    <path d="M 96.8072 176.388689 
L 111.547629 176.388689 
L 130.173472 176.828573 
L 130.173472 176.388689 
L 142.6968 176.388689 
L 142.6968 177.030095 
L 127.945395 177.030095 
L 109.319552 176.590211 
L 109.319552 177.030095 
L 96.8072 177.030095 
L 96.8072 176.388689 
z
" clip-path="url(#p37819b4825)" style="fill: #1e90ff"/>
   </g>
   <g id="patch_10">
    <path d="M 138.870589 175.609648 
L 138.870589 175.742048 
Q 134.08471 175.718998 129.52317 175.70734 
Q 124.974092 175.695547 120.923543 175.695547 
Q 115.551893 175.695547 112.972005 175.711494 
Q 110.40458 175.727307 110.40458 175.760809 
Q 110.40458 175.786002 112.136969 175.800073 
Q 113.869357 175.814009 118.430898 175.82406 
L 124.81207 175.837863 
Q 134.50846 175.858902 138.596398 175.90165 
Q 142.6968 175.944265 142.6968 176.023061 
Q 142.6968 176.126381 136.988642 176.176901 
Q 131.280485 176.227422 119.552588 176.227422 
Q 114.031379 176.227422 108.460317 176.216031 
Q 102.889255 176.204775 97.318192 176.18253 
L 97.318192 176.046512 
Q 102.889255 176.078272 108.08642 176.094487 
Q 113.283585 176.110568 118.119317 176.110568 
Q 123.029829 176.110568 125.634643 176.093013 
Q 128.239457 176.075324 128.239457 176.042626 
Q 128.239457 176.013412 126.469679 175.997466 
Q 124.699901 175.981519 119.40303 175.968922 
L 113.595166 175.955119 
Q 104.870908 175.935018 100.832822 175.891064 
Q 96.8072 175.847109 96.8072 175.772601 
Q 96.8072 175.679198 102.415652 175.628945 
Q 108.024104 175.578693 118.543067 175.578693 
Q 123.341409 175.578693 128.401479 175.586465 
Q 133.461549 175.594237 138.870589 175.609648 
z
" clip-path="url(#p37819b4825)" style="fill: #1e90ff"/>
   </g>
   <g id="patch_11">
    <path d="M 142.6968 175.367793 
Q 138.858214 175.391243 134.707454 175.403104 
Q 130.556694 175.415101 126.03595 175.415101 
Q 112.554652 175.415101 104.680926 175.32621 
Q 96.8072 175.23732 96.8072 175.085305 
Q 96.8072 174.932746 104.680926 174.843991 
Q 112.554652 174.7551 126.03595 174.7551 
Q 130.556694 174.7551 134.707454 174.767098 
Q 138.858214 174.778959 142.6968 174.802409 
L 142.6968 174.933973 
Q 138.823528 174.902888 135.065876 174.888437 
Q 131.308225 174.873985 127.157465 174.873985 
Q 119.711533 174.873985 115.445153 174.930292 
Q 111.190335 174.986462 111.190335 175.085305 
Q 111.190335 175.18374 115.445153 175.240046 
Q 119.711533 175.296217 127.157465 175.296217 
Q 131.308225 175.296217 135.065876 175.281765 
Q 138.823528 175.267177 142.6968 175.236093 
L 142.6968 175.367793 
z
" clip-path="url(#p37819b4825)" style="fill: #1e90ff"/>
   </g>
   <g id="patch_12">
    <path d="M 96.8072 173.822987 
L 142.6968 173.822987 
L 142.6968 173.970274 
L 126.187216 173.970274 
L 126.187216 174.578199 
L 113.3488 174.578199 
L 113.3488 173.970274 
L 96.8072 173.970274 
L 96.8072 173.822987 
z
" clip-path="url(#p37819b4825)" style="fill: #1e90ff"/>
   </g>
   <g id="patch_13">
    <path d="M 96.8072 172.351886 
L 110.34419 172.351886 
L 119.734316 173.006764 
L 129.186336 172.351886 
L 142.6968 172.351886 
L 142.6968 173.575619 
L 132.643529 173.575619 
L 132.643529 172.680505 
L 123.138458 173.340366 
L 116.392068 173.340366 
L 106.886997 172.680505 
L 106.886997 173.575619 
L 96.8072 173.575619 
L 96.8072 172.351886 
z
" clip-path="url(#p37819b4825)" style="fill: #ffa500"/>
   </g>
   <g id="patch_14">
    <path d="M 96.8072 169.517764 
L 108.900341 169.517764 
L 108.900341 170.387604 
L 126.331352 169.517764 
L 140.374676 169.517764 
L 117.786739 170.646564 
L 142.6968 171.901014 
L 127.557756 171.901014 
L 108.900341 170.962219 
L 108.900341 171.901014 
L 96.8072 171.901014 
L 96.8072 169.517764 
z
" clip-path="url(#p37819b4825)" style="fill: #2e8b57"/>
   </g>
   <g id="patch_15">
    <path d="M 128.594966 168.421142 
L 110.946564 168.421142 
L 108.159974 168.894826 
L 96.8072 168.894826 
L 113.020087 166.294577 
L 126.483913 166.294577 
L 142.6968 168.894826 
L 131.353409 168.894826 
L 128.594966 168.421142 
z
M 113.761301 167.938541 
L 125.752082 167.938541 
L 119.766074 166.904237 
L 113.761301 167.938541 
z
" clip-path="url(#p37819b4825)" style="fill: #ffa500"/>
   </g>
   <g id="patch_16">
    <path d="M 154.1692 178.944238 
L 168.909629 178.944238 
L 187.535472 179.283037 
L 187.535472 178.944238 
L 200.0588 178.944238 
L 200.0588 179.438249 
L 185.307395 179.438249 
L 166.681552 179.09945 
L 166.681552 179.438249 
L 154.1692 179.438249 
L 154.1692 178.944238 
z
" clip-path="url(#p37819b4825)" style="fill: #1e90ff"/>
   </g>
   <g id="patch_17">
    <path d="M 154.1692 176.932373 
L 167.70619 176.932373 
L 177.096316 177.860017 
L 186.548336 176.932373 
L 200.0588 176.932373 
L 200.0588 178.665808 
L 190.005529 178.665808 
L 190.005529 177.397867 
L 180.500458 178.332569 
L 173.754068 178.332569 
L 164.248997 177.397867 
L 164.248997 178.665808 
L 154.1692 178.665808 
L 154.1692 176.932373 
z
" clip-path="url(#p37819b4825)" style="fill: #ffa500"/>
   </g>
   <g id="patch_18">
    <path d="M 154.646784 174.558424 
L 199.581216 174.558424 
L 199.581216 174.932404 
L 171.299933 174.932404 
L 171.299933 175.289124 
L 197.906211 175.289124 
L 197.906211 175.663104 
L 171.299933 175.663104 
L 171.299933 176.475998 
L 154.646784 176.475998 
L 154.646784 174.558424 
z
" clip-path="url(#p37819b4825)" style="fill: #ffa500"/>
   </g>
   <g id="patch_19">
    <path d="M 185.956966 173.667765 
L 168.308564 173.667765 
L 165.521974 174.053823 
L 154.1692 174.053823 
L 170.382087 171.934589 
L 183.845913 171.934589 
L 200.0588 174.053823 
L 188.715409 174.053823 
L 185.956966 173.667765 
z
M 171.123301 173.274439 
L 183.114082 173.274439 
L 177.128074 172.431469 
L 171.123301 173.274439 
z
" clip-path="url(#p37819b4825)" style="fill: #ffa500"/>
   </g>
   <g id="patch_20">
    <path d="M 154.1692 168.505021 
L 166.856325 168.505021 
L 177.104359 169.507609 
L 187.342753 168.505021 
L 200.0588 168.505021 
L 182.917685 170.132795 
L 182.917685 171.318055 
L 171.319956 171.318055 
L 171.319956 170.132795 
L 154.1692 168.505021 
z
" clip-path="url(#p37819b4825)" style="fill: #ffa500"/>
   </g>
   <g id="patch_21">
    <path d="M 200.0588 167.566672 
Q 196.220214 167.672662 192.069454 167.726273 
Q 187.918694 167.780501 183.39795 167.780501 
Q 169.916652 167.780501 162.042926 167.378724 
Q 154.1692 166.976948 154.1692 166.289861 
Q 154.1692 165.600309 162.042926 165.199149 
Q 169.916652 164.797373 183.39795 164.797373 
Q 187.918694 164.797373 192.069454 164.8516 
Q 196.220214 164.905212 200.0588 165.011202 
L 200.0588 165.605855 
Q 196.185528 165.465357 192.427876 165.400037 
Q 188.670225 165.334718 184.519465 165.334718 
Q 177.073533 165.334718 172.807153 165.589217 
Q 168.552335 165.843101 168.552335 166.289861 
Q 168.552335 166.734773 172.807153 166.989272 
Q 177.073533 167.243156 184.519465 167.243156 
Q 188.670225 167.243156 192.427876 167.177836 
Q 196.185528 167.1119 200.0588 166.971402 
L 200.0588 167.566672 
z
" clip-path="url(#p37819b4825)" style="fill: #1e90ff"/>
   </g>
   <g id="patch_22">
    <path d="M 154.1692 160.921563 
L 199.103632 160.921563 
L 199.103632 161.528822 
L 170.822349 161.528822 
L 170.822349 162.108054 
L 197.428627 162.108054 
L 197.428627 162.715314 
L 170.822349 162.715314 
L 170.822349 163.428677 
L 200.0588 163.428677 
L 200.0588 164.035269 
L 154.1692 164.035269 
L 154.1692 160.921563 
z
" clip-path="url(#p37819b4825)" style="fill: #b22222"/>
   </g>
   <g id="patch_23">
    <path d="M 154.1692 143.917546 
L 170.822349 143.917546 
L 170.822349 155.809115 
L 200.0588 155.809115 
L 200.0588 158.68626 
L 154.1692 158.68626 
L 154.1692 143.917546 
z
" clip-path="url(#p37819b4825)" style="fill: #ffa500"/>
   </g>
   <g id="patch_24">
    <path d="M 211.5312 179.408597 
L 222.883974 179.408597 
L 234.490074 179.468566 
L 246.077409 179.408597 
L 257.4208 179.408597 
L 241.207913 179.489844 
L 227.744087 179.489844 
L 211.5312 179.408597 
z
" clip-path="url(#p37819b4825)" style="fill: #ffa500"/>
   </g>
   <g id="patch_25">
    <path d="M 235.699723 179.260601 
L 234.801051 179.260601 
Q 223.777987 179.260601 217.649813 179.204334 
Q 211.5312 179.147979 211.5312 179.047547 
Q 211.5312 178.947292 217.640253 178.890495 
Q 223.749306 178.83361 234.476 178.83361 
Q 245.317418 178.83361 251.369109 178.889965 
Q 257.4208 178.946232 257.4208 179.047547 
Q 257.4208 179.117063 254.208528 179.167324 
Q 250.996256 179.217584 244.963686 179.242935 
L 253.950399 179.335682 
L 242.984697 179.335682 
L 235.699723 179.260601 
z
M 234.476 178.910634 
Q 229.217817 178.910634 226.321036 178.946497 
Q 223.424255 178.982359 223.424255 179.047547 
Q 223.424255 179.113795 226.254113 179.149039 
Q 229.093532 179.184195 234.476 179.184195 
Q 239.762864 179.184195 242.659645 179.148332 
Q 245.556426 179.112382 245.556426 179.047547 
Q 245.556426 178.982359 242.659645 178.946497 
Q 239.762864 178.910634 234.476 178.910634 
z
" clip-path="url(#p37819b4825)" style="fill: #1e90ff"/>
   </g>
   <g id="patch_26">
    <path d="M 257.4208 178.6277 
Q 253.582214 178.65356 249.431454 178.666641 
Q 245.280694 178.679871 240.75995 178.679871 
Q 227.278652 178.679871 219.404926 178.581844 
Q 211.5312 178.483817 211.5312 178.316178 
Q 211.5312 178.147938 219.404926 178.050062 
Q 227.278652 177.952034 240.75995 177.952034 
Q 245.280694 177.952034 249.431454 177.965265 
Q 253.582214 177.978345 257.4208 178.004205 
L 257.4208 178.149292 
Q 253.547528 178.115012 249.789876 178.099075 
Q 246.032225 178.083138 241.881465 178.083138 
Q 234.435533 178.083138 230.169153 178.145232 
Q 225.914335 178.207176 225.914335 178.316178 
Q 225.914335 178.42473 230.169153 178.486824 
Q 234.435533 178.548767 241.881465 178.548767 
Q 246.032225 178.548767 249.789876 178.53283 
Q 253.547528 178.516743 257.4208 178.482464 
L 257.4208 178.6277 
z
" clip-path="url(#p37819b4825)" style="fill: #1e90ff"/>
   </g>
   <g id="patch_27">
    <path d="M 211.5312 176.448767 
L 219.466219 176.448767 
L 225.013163 177.361101 
L 230.518813 176.448767 
L 238.495125 176.448767 
L 244.000776 177.361101 
L 249.554601 176.448767 
L 257.4208 176.448767 
L 249.85053 177.704134 
L 240.305108 177.704134 
L 234.476 176.749829 
L 228.715713 177.704134 
L 219.163409 177.704134 
L 211.5312 176.448767 
z
" clip-path="url(#p37819b4825)" style="fill: #ffa500"/>
   </g>
   <g id="patch_28">
    <path d="M 211.5312 173.17649 
L 224.218325 173.17649 
L 234.466359 174.163457 
L 244.704753 173.17649 
L 257.4208 173.17649 
L 240.279685 174.778902 
L 240.279685 175.945696 
L 228.681956 175.945696 
L 228.681956 174.778902 
L 211.5312 173.17649 
z
" clip-path="url(#p37819b4825)" style="fill: #ffa500"/>
   </g>
   <g id="patch_29">
    <path d="M 211.5312 169.415442 
L 225.06819 169.415442 
L 234.458316 171.039864 
L 243.910336 169.415442 
L 257.4208 169.415442 
L 257.4208 172.450906 
L 247.367529 172.450906 
L 247.367529 170.23058 
L 237.862458 171.867363 
L 231.116068 171.867363 
L 221.610997 170.23058 
L 221.610997 172.450906 
L 211.5312 172.450906 
L 211.5312 169.415442 
z
" clip-path="url(#p37819b4825)" style="fill: #ffa500"/>
   </g>
   <g id="patch_30">
    <path d="M 211.5312 161.188561 
L 256.465632 161.188561 
L 256.465632 162.54898 
L 228.184349 162.54898 
L 228.184349 163.84661 
L 254.790627 163.84661 
L 254.790627 165.207028 
L 228.184349 165.207028 
L 228.184349 166.805146 
L 257.4208 166.805146 
L 257.4208 168.16407 
L 211.5312 168.16407 
L 211.5312 161.188561 
z
" clip-path="url(#p37819b4825)" style="fill: #b22222"/>
   </g>
   <g id="patch_31">
    <path d="M 230.150698 148.431044 
Q 234.268996 148.431044 236.05577 147.907821 
Q 237.842545 147.38086 237.842545 146.177446 
Q 237.842545 144.985245 236.05577 144.473233 
Q 234.268996 143.957485 230.150698 143.957485 
L 224.637845 143.957485 
L 224.637845 148.431044 
L 230.150698 148.431044 
z
M 224.637845 151.536748 
L 224.637845 158.136837 
L 211.5312 158.136837 
L 211.5312 140.698551 
L 231.545254 140.698551 
Q 241.590413 140.698551 246.264354 141.857117 
Q 250.94919 143.011945 250.94919 145.512205 
Q 250.94919 147.238842 248.508717 148.348823 
Q 246.07914 149.458804 241.176405 149.985765 
Q 243.867461 150.195054 245.99198 150.938779 
Q 248.127393 151.678766 250.306387 153.184902 
L 257.4208 158.136837 
L 243.464348 158.136837 
L 237.265111 153.805295 
Q 235.391177 152.497237 233.462768 152.018861 
Q 231.545254 151.536748 228.342134 151.536748 
L 224.637845 151.536748 
z
" clip-path="url(#p37819b4825)" style="fill: #2e8b57"/>
   </g>
   <g id="patch_32">
    <path d="M 243.318966 132.941014 
L 225.670564 132.941014 
L 222.883974 136.248942 
L 211.5312 136.248942 
L 227.744087 118.090361 
L 241.207913 118.090361 
L 257.4208 136.248942 
L 246.077409 136.248942 
L 243.318966 132.941014 
z
M 228.485301 129.570819 
L 240.476082 129.570819 
L 234.490074 122.347859 
L 228.485301 129.570819 
z
" clip-path="url(#p37819b4825)" style="fill: #ffa500"/>
   </g>
   <g id="patch_33">
    <path d="M 314.7828 179.267136 
Q 310.944214 179.309203 306.793454 179.330481 
Q 302.642694 179.352003 298.12195 179.352003 
Q 284.640652 179.352003 276.766926 179.192541 
Q 268.8932 179.03308 268.8932 178.760381 
Q 268.8932 178.486705 276.766926 178.327488 
Q 284.640652 178.168026 298.12195 178.168026 
Q 302.642694 178.168026 306.793454 178.189549 
Q 310.944214 178.210826 314.7828 178.252893 
L 314.7828 178.488906 
Q 310.909528 178.433143 307.151876 178.407218 
Q 303.394225 178.381294 299.243465 178.381294 
Q 291.797533 178.381294 287.531153 178.482302 
Q 283.276335 178.583066 283.276335 178.760381 
Q 283.276335 178.936963 287.531153 179.037972 
Q 291.797533 179.138735 299.243465 179.138735 
Q 303.394225 179.138735 307.151876 179.112811 
Q 310.909528 179.086641 314.7828 179.030879 
L 314.7828 179.267136 
z
" clip-path="url(#p37819b4825)" style="fill: #1e90ff"/>
   </g>
   <g id="patch_34">
    <path d="M 268.8932 176.306561 
L 276.828219 176.306561 
L 282.375163 177.413457 
L 287.880813 176.306561 
L 295.857125 176.306561 
L 301.362776 177.413457 
L 306.916601 176.306561 
L 314.7828 176.306561 
L 307.21253 177.829644 
L 297.667108 177.829644 
L 291.838 176.671827 
L 286.077713 177.829644 
L 276.525409 177.829644 
L 268.8932 176.306561 
z
" clip-path="url(#p37819b4825)" style="fill: #ffa500"/>
   </g>
   <g id="patch_35">
    <path d="M 281.468414 174.294904 
L 281.468414 175.489848 
L 285.973748 175.489848 
Q 293.677765 175.489848 297.744065 175.336231 
Q 301.820817 175.182613 301.820817 174.890068 
Q 301.820817 174.599202 297.764971 174.447263 
Q 293.719578 174.294904 285.973748 174.294904 
L 281.468414 174.294904 
z
M 268.8932 173.912959 
L 282.147873 173.912959 
Q 293.259637 173.912959 298.695307 173.976756 
Q 304.130977 174.040134 308.019572 174.192493 
Q 311.448225 174.325124 313.110286 174.498469 
Q 314.7828 174.671394 314.7828 174.890068 
Q 314.7828 175.1121 313.110286 175.285864 
Q 311.448225 175.459629 308.019572 175.59184 
Q 304.099617 175.744199 298.611681 175.807996 
Q 293.123745 175.871374 282.147873 175.871374 
L 268.8932 175.871374 
L 268.8932 173.912959 
z
" clip-path="url(#p37819b4825)" style="fill: #b22222"/>
   </g>
   <g id="patch_36">
    <path d="M 268.8932 171.100371 
L 285.546349 171.100371 
L 285.546349 172.93819 
L 314.7828 172.93819 
L 314.7828 173.382847 
L 268.8932 173.382847 
L 268.8932 171.100371 
z
" clip-path="url(#p37819b4825)" style="fill: #ffa500"/>
   </g>
   <g id="patch_37">
    <path d="M 314.7828 170.250566 
Q 310.154759 170.36908 305.177043 170.428607 
Q 300.199328 170.487593 294.892507 170.487593 
Q 282.900738 170.487593 275.896969 170.134759 
Q 268.8932 169.781924 268.8932 169.178533 
Q 268.8932 168.568108 276.020384 168.217979 
Q 283.157852 167.86785 295.571287 167.86785 
Q 300.353596 167.86785 304.734808 167.915472 
Q 309.126305 167.962552 313.01386 168.055631 
L 313.01386 168.577848 
Q 309.002891 168.458253 305.03306 168.399266 
Q 301.063229 168.339739 297.072829 168.339739 
Q 289.688532 168.339739 285.687847 168.557284 
Q 281.687163 168.774289 281.687163 169.178533 
Q 281.687163 169.57899 285.543864 169.797617 
Q 289.400565 170.015704 296.496895 170.015704 
Q 298.430388 170.015704 300.086198 170.003257 
Q 301.742008 169.990269 303.058429 169.963212 
L 303.058429 169.472923 
L 295.499295 169.472923 
L 295.499295 169.036209 
L 314.7828 169.036209 
L 314.7828 170.250566 
z
" clip-path="url(#p37819b4825)" style="fill: #1e90ff"/>
   </g>
   <g id="patch_38">
    <path d="M 268.8932 163.423472 
L 281.580325 163.423472 
L 291.828359 164.727739 
L 302.066753 163.423472 
L 314.7828 163.423472 
L 297.641685 165.541043 
L 297.641685 167.082947 
L 286.043956 167.082947 
L 286.043956 165.541043 
L 268.8932 163.423472 
z
" clip-path="url(#p37819b4825)" style="fill: #ffa500"/>
   </g>
   <g id="patch_39">
    <path d="M 268.8932 158.635936 
L 282.43019 158.635936 
L 291.820316 160.695709 
L 301.272336 158.635936 
L 314.7828 158.635936 
L 314.7828 162.484916 
L 304.729529 162.484916 
L 304.729529 159.669535 
L 295.224458 161.744981 
L 288.478068 161.744981 
L 278.972997 159.669535 
L 278.972997 162.484916 
L 268.8932 162.484916 
L 268.8932 158.635936 
z
" clip-path="url(#p37819b4825)" style="fill: #ffa500"/>
   </g>
   <g id="patch_40">
    <path d="M 300.680966 156.510797 
L 283.032564 156.510797 
L 280.245974 157.485794 
L 268.8932 157.485794 
L 285.106087 152.133632 
L 298.569913 152.133632 
L 314.7828 157.485794 
L 303.439409 157.485794 
L 300.680966 156.510797 
z
M 285.847301 155.517446 
L 297.838082 155.517446 
L 291.852074 153.388511 
L 285.847301 155.517446 
z
" clip-path="url(#p37819b4825)" style="fill: #ffa500"/>
   </g>
   <g id="patch_41">
    <path d="M 269.370784 143.062756 
L 314.305216 143.062756 
L 314.305216 144.519286 
L 286.023933 144.519286 
L 286.023933 145.908591 
L 312.630211 145.908591 
L 312.630211 147.365121 
L 286.023933 147.365121 
L 286.023933 150.531072 
L 269.370784 150.531072 
L 269.370784 143.062756 
z
" clip-path="url(#p37819b4825)" style="fill: #ffa500"/>
   </g>
   <g id="patch_42">
    <path d="M 283.511426 132.24875 
L 300.164574 132.24875 
L 300.164574 141.031387 
L 283.511426 141.031387 
L 283.511426 132.24875 
z
" clip-path="url(#p37819b4825)" style="fill: #ffa500"/>
   </g>
   <g id="patch_43">
    <path d="M 109.382414 181.658184 
L 109.382414 182.323652 
L 113.887748 182.323652 
Q 121.591765 182.323652 125.658065 182.238102 
Q 129.734817 182.152552 129.734817 181.989632 
Q 129.734817 181.827648 125.678971 181.743033 
Q 121.633578 181.658184 113.887748 181.658184 
L 109.382414 181.658184 
z
M 96.8072 181.445477 
L 110.061873 181.445477 
Q 121.173637 181.445477 126.609307 181.481006 
Q 132.044977 181.516302 135.933572 181.601151 
Q 139.362225 181.675014 141.024286 181.77155 
Q 142.6968 181.867852 142.6968 181.989632 
Q 142.6968 182.113283 141.024286 182.210053 
Q 139.362225 182.306823 135.933572 182.380452 
Q 132.013617 182.465301 126.525681 182.50083 
Q 121.037745 182.536125 110.061873 182.536125 
L 96.8072 182.536125 
L 96.8072 181.445477 
z
" clip-path="url(#p37819b4825)" style="fill: #b22222"/>
   </g>
   <g id="patch_44">
    <path d="M 96.8072 179.961407 
L 141.741632 179.961407 
L 141.741632 180.057095 
L 113.460349 180.057095 
L 113.460349 180.148366 
L 140.066627 180.148366 
L 140.066627 180.244053 
L 113.460349 180.244053 
L 113.460349 180.35646 
L 142.6968 180.35646 
L 142.6968 180.452042 
L 96.8072 180.452042 
L 96.8072 179.961407 
z
" clip-path="url(#p37819b4825)" style="fill: #b22222"/>
   </g>
   <g id="patch_45">
    <path d="M 97.284784 179.540008 
L 142.219216 179.540008 
L 142.219216 179.602429 
L 113.937933 179.602429 
L 113.937933 179.661969 
L 140.544211 179.661969 
L 140.544211 179.72439 
L 113.937933 179.72439 
L 113.937933 179.86007 
L 97.284784 179.86007 
L 97.284784 179.540008 
z
" clip-path="url(#p37819b4825)" style="fill: #ffa500"/>
   </g>
   <g id="patch_46">
    <path d="M 142.6968 184.504388 
Q 138.068759 184.584497 133.091043 184.624734 
Q 128.113328 184.664605 122.806507 184.664605 
Q 110.814738 184.664605 103.810969 184.426109 
Q 96.8072 184.187612 96.8072 183.779754 
Q 96.8072 183.367141 103.934384 183.130473 
Q 111.071852 182.893806 123.485287 182.893806 
Q 128.267596 182.893806 132.648808 182.925996 
Q 137.040305 182.95782 140.92786 183.020736 
L 140.92786 183.373725 
Q 136.916891 183.292885 132.94706 183.253014 
Q 128.977229 183.212777 124.986829 183.212777 
Q 117.602532 183.212777 113.601847 183.359825 
Q 109.601163 183.506508 109.601163 183.779754 
Q 109.601163 184.05044 113.457864 184.19822 
Q 117.314565 184.345635 124.410895 184.345635 
Q 126.344388 184.345635 128.000198 184.337221 
Q 129.656008 184.328442 130.972429 184.310153 
L 130.972429 183.978745 
L 123.413295 183.978745 
L 123.413295 183.683551 
L 142.6968 183.683551 
L 142.6968 184.504388 
z
" clip-path="url(#p37819b4825)" style="fill: #1e90ff"/>
   </g>
   <g id="patch_47">
    <path d="M 111.425426 180.592949 
L 128.078574 180.592949 
L 128.078574 181.229569 
L 111.425426 181.229569 
L 111.425426 180.592949 
z
" clip-path="url(#p37819b4825)" style="fill: #ffa500"/>
   </g>
   <g id="patch_48">
    <path d="M 96.8072 185.136138 
L 113.460349 185.136138 
L 113.460349 186.74769 
L 142.6968 186.74769 
L 142.6968 187.137603 
L 96.8072 187.137603 
L 96.8072 185.136138 
z
" clip-path="url(#p37819b4825)" style="fill: #ffa500"/>
   </g>
   <g id="patch_49">
    <path d="M 96.8072 187.952052 
L 120.660232 187.952052 
Q 131.308053 187.952052 136.996451 188.335164 
Q 142.6968 188.717308 142.6968 189.424516 
Q 142.6968 190.135594 136.996451 190.517737 
Q 131.308053 190.899881 120.660232 190.899881 
L 111.183551 190.899881 
L 111.183551 192.466187 
L 96.8072 192.466187 
L 96.8072 187.952052 
z
M 111.183551 188.795671 
L 111.183551 190.056262 
L 119.130578 190.056262 
Q 123.313224 190.056262 125.595754 189.891795 
Q 127.878283 189.727328 127.878283 189.424516 
Q 127.878283 189.12267 125.595754 188.959171 
Q 123.313224 188.795671 119.130578 188.795671 
L 111.183551 188.795671 
z
" clip-path="url(#p37819b4825)" style="fill: #ff1493"/>
   </g>
   <g id="patch_50">
    <path d="M 166.744414 197.833343 
L 166.744414 199.920417 
L 171.249748 199.920417 
Q 178.953765 199.920417 183.020065 199.65211 
Q 187.096817 199.383803 187.096817 198.872848 
Q 187.096817 198.364825 183.040971 198.099451 
Q 178.995578 197.833343 171.249748 197.833343 
L 166.744414 197.833343 
z
M 154.1692 197.166242 
L 167.423873 197.166242 
Q 178.535637 197.166242 183.971307 197.27767 
Q 189.406977 197.388365 193.295572 197.654472 
Q 196.724225 197.886125 198.386286 198.188886 
Q 200.0588 198.490914 200.0588 198.872848 
Q 200.0588 199.260646 198.386286 199.564141 
Q 196.724225 199.867635 193.295572 200.098555 
Q 189.375617 200.364662 183.887681 200.47609 
Q 178.399745 200.586785 167.423873 200.586785 
L 154.1692 200.586785 
L 154.1692 197.166242 
z
" clip-path="url(#p37819b4825)" style="fill: #b22222"/>
   </g>
   <g id="patch_51">
    <path d="M 200.0588 192.044575 
Q 195.430759 192.183641 190.453043 192.253491 
Q 185.475328 192.322707 180.168507 192.322707 
Q 168.176738 192.322707 161.172969 191.908684 
Q 154.1692 191.494661 154.1692 190.78663 
Q 154.1692 190.070345 161.296384 189.659497 
Q 168.433852 189.248649 180.847287 189.248649 
Q 185.629596 189.248649 190.010808 189.30453 
Q 194.402305 189.359775 198.28986 189.468996 
L 198.28986 190.081775 
Q 194.278891 189.941439 190.30906 189.872224 
Q 186.339229 189.802373 182.348829 189.802373 
Q 174.964532 189.802373 170.963847 190.057645 
Q 166.963163 190.312282 166.963163 190.78663 
Q 166.963163 191.256534 170.819864 191.513076 
Q 174.676565 191.768983 181.772895 191.768983 
Q 183.706388 191.768983 185.362198 191.754378 
Q 187.018008 191.739138 188.334429 191.707387 
L 188.334429 191.132073 
L 180.775295 191.132073 
L 180.775295 190.619624 
L 200.0588 190.619624 
L 200.0588 192.044575 
z
" clip-path="url(#p37819b4825)" style="fill: #1e90ff"/>
   </g>
   <g id="patch_52">
    <path d="M 154.1692 186.726301 
L 167.373024 186.726301 
L 167.373024 187.450505 
L 186.854976 187.450505 
L 186.854976 186.726301 
L 200.0588 186.726301 
L 200.0588 188.626826 
L 186.854976 188.626826 
L 186.854976 187.82116 
L 167.373024 187.82116 
L 167.373024 188.626826 
L 154.1692 188.626826 
L 154.1692 186.726301 
z
" clip-path="url(#p37819b4825)" style="fill: #2e8b57"/>
   </g>
   <g id="patch_53">
    <path d="M 168.787426 179.552932 
L 185.440574 179.552932 
L 185.440574 179.976384 
L 168.787426 179.976384 
L 168.787426 179.552932 
z
" clip-path="url(#p37819b4825)" style="fill: #ffa500"/>
   </g>
   <g id="patch_54">
    <path d="M 154.1692 206.287408 
L 166.262341 206.287408 
L 166.262341 207.751703 
L 183.693352 206.287408 
L 197.736676 206.287408 
L 175.148739 208.187638 
L 200.0588 210.299388 
L 184.919756 210.299388 
L 166.262341 208.719015 
L 166.262341 210.299388 
L 154.1692 210.299388 
L 154.1692 206.287408 
z
" clip-path="url(#p37819b4825)" style="fill: #2e8b57"/>
   </g>
   <g id="patch_55">
    <path d="M 154.1692 201.491508 
L 178.022232 201.491508 
Q 188.670053 201.491508 194.358451 201.815475 
Q 200.0588 202.138624 200.0588 202.736654 
Q 200.0588 203.337956 194.358451 203.661105 
Q 188.670053 203.984254 178.022232 203.984254 
L 168.545551 203.984254 
L 168.545551 205.308755 
L 154.1692 205.308755 
L 154.1692 201.491508 
z
M 168.545551 202.20489 
L 168.545551 203.270872 
L 176.492578 203.270872 
Q 180.675224 203.270872 182.957754 203.131795 
Q 185.240283 202.992718 185.240283 202.736654 
Q 185.240283 202.481407 182.957754 202.343148 
Q 180.675224 202.20489 176.492578 202.20489 
L 168.545551 202.20489 
z
" clip-path="url(#p37819b4825)" style="fill: #ff1493"/>
   </g>
   <g id="patch_56">
    <path d="M 178.337723 182.2218 
L 177.439051 182.2218 
Q 166.415987 182.2218 160.287813 182.109469 
Q 154.1692 181.996962 154.1692 181.796458 
Q 154.1692 181.596308 160.278253 181.482919 
Q 166.387306 181.369353 177.114 181.369353 
Q 187.955418 181.369353 194.007109 181.481861 
Q 200.0588 181.594192 200.0588 181.796458 
Q 200.0588 181.935241 196.846528 182.035581 
Q 193.634256 182.135921 187.601686 182.186531 
L 196.588399 182.371693 
L 185.622697 182.371693 
L 178.337723 182.2218 
z
M 177.114 181.523125 
Q 171.855817 181.523125 168.959036 181.594721 
Q 166.062255 181.666317 166.062255 181.796458 
Q 166.062255 181.928716 168.892113 181.999078 
Q 171.731532 182.069263 177.114 182.069263 
Q 182.400864 182.069263 185.297645 181.997667 
Q 188.194426 181.925895 188.194426 181.796458 
Q 188.194426 181.666317 185.297645 181.594721 
Q 182.400864 181.523125 177.114 181.523125 
z
" clip-path="url(#p37819b4825)" style="fill: #1e90ff"/>
   </g>
   <g id="patch_57">
    <path d="M 172.788698 194.540329 
Q 176.906996 194.540329 178.69377 194.443555 
Q 180.480545 194.346088 180.480545 194.123506 
Q 180.480545 193.902998 178.69377 193.808297 
Q 176.906996 193.712904 172.788698 193.712904 
L 167.275845 193.712904 
L 167.275845 194.540329 
L 172.788698 194.540329 
z
M 167.275845 195.114757 
L 167.275845 196.335503 
L 154.1692 196.335503 
L 154.1692 193.110135 
L 174.183254 193.110135 
Q 184.228413 193.110135 188.902354 193.324422 
Q 193.58719 193.538018 193.58719 194.000464 
Q 193.58719 194.319821 191.146717 194.525122 
Q 188.71714 194.730423 183.814405 194.827889 
Q 186.505461 194.866599 188.62998 195.004158 
Q 190.765393 195.141025 192.944387 195.419598 
L 200.0588 196.335503 
L 186.102348 196.335503 
L 179.903111 195.534346 
Q 178.029177 195.292408 176.100768 195.203929 
Q 174.183254 195.114757 170.980134 195.114757 
L 167.275845 195.114757 
z
" clip-path="url(#p37819b4825)" style="fill: #2e8b57"/>
   </g>
   <g id="patch_58">
    <path d="M 196.232589 211.647568 
L 196.232589 212.648043 
Q 191.44671 212.473871 186.88517 212.385773 
Q 182.336092 212.296661 178.285543 212.296661 
Q 172.913893 212.296661 170.334005 212.417164 
Q 167.76658 212.536654 167.76658 212.789811 
Q 167.76658 212.980185 169.498969 213.08651 
Q 171.231357 213.191824 175.792898 213.267771 
L 182.17407 213.372071 
Q 191.87046 213.531054 195.958398 213.854082 
Q 200.0588 214.176097 200.0588 214.771522 
Q 200.0588 215.552257 194.350642 215.934017 
Q 188.642485 216.315778 176.914588 216.315778 
Q 171.393379 216.315778 165.822317 216.229704 
Q 160.251255 216.144644 154.680192 215.976548 
L 154.680192 214.948731 
Q 160.251255 215.188724 165.44842 215.311252 
Q 170.645585 215.432767 175.481317 215.432767 
Q 180.391829 215.432767 182.996643 215.300113 
Q 185.601457 215.166446 185.601457 214.919365 
Q 185.601457 214.698612 183.831679 214.57811 
Q 182.061901 214.457607 176.76503 214.36242 
L 170.957166 214.25812 
Q 162.232908 214.106226 158.194822 213.774084 
Q 154.1692 213.441942 154.1692 212.878922 
Q 154.1692 212.173121 159.777652 211.793386 
Q 165.386104 211.413651 175.905067 211.413651 
Q 180.703409 211.413651 185.763479 211.472383 
Q 190.823549 211.531116 196.232589 211.647568 
z
" clip-path="url(#p37819b4825)" style="fill: #1e90ff"/>
   </g>
   <g id="patch_59">
    <path d="M 154.1692 184.512849 
L 200.0588 184.512849 
L 200.0588 184.855385 
L 183.549216 184.855385 
L 183.549216 186.269192 
L 170.7108 186.269192 
L 170.7108 184.855385 
L 154.1692 184.855385 
L 154.1692 184.512849 
z
" clip-path="url(#p37819b4825)" style="fill: #1e90ff"/>
   </g>
   <g id="patch_60">
    <path d="M 154.1692 182.676617 
L 165.521974 182.676617 
L 177.128074 183.737316 
L 188.715409 182.676617 
L 200.0588 182.676617 
L 183.845913 184.113674 
L 170.382087 184.113674 
L 154.1692 182.676617 
z
" clip-path="url(#p37819b4825)" style="fill: #ffa500"/>
   </g>
   <g id="patch_61">
    <path d="M 154.1692 180.150791 
L 162.104219 180.150791 
L 167.651163 180.85704 
L 173.156813 180.150791 
L 181.133125 180.150791 
L 186.638776 180.85704 
L 192.192601 180.150791 
L 200.0588 180.150791 
L 192.48853 181.122586 
L 182.943108 181.122586 
L 177.114 180.383847 
L 171.353713 181.122586 
L 161.801409 181.122586 
L 154.1692 180.150791 
z
" clip-path="url(#p37819b4825)" style="fill: #ffa500"/>
   </g>
   <g id="patch_62">
    <path d="M 224.106414 181.50871 
L 224.106414 183.21639 
L 228.611748 183.21639 
Q 236.315765 183.21639 240.382065 182.996857 
Q 244.458817 182.777324 244.458817 182.359251 
Q 244.458817 181.943577 240.402971 181.726444 
Q 236.357578 181.50871 228.611748 181.50871 
L 224.106414 181.50871 
z
M 211.5312 180.962876 
L 224.785873 180.962876 
Q 235.897637 180.962876 241.333307 181.054048 
Q 246.768977 181.144621 250.657572 181.362354 
Q 254.086225 181.551897 255.748286 181.799621 
Q 257.4208 182.046746 257.4208 182.359251 
Q 257.4208 182.676554 255.748286 182.924879 
Q 254.086225 183.173203 250.657572 183.362146 
Q 246.737617 183.579879 241.249681 183.671052 
Q 235.761745 183.761624 224.785873 183.761624 
L 211.5312 183.761624 
L 211.5312 180.962876 
z
" clip-path="url(#p37819b4825)" style="fill: #b22222"/>
   </g>
   <g id="patch_63">
    <path d="M 212.008784 202.825341 
L 256.943216 202.825341 
L 256.943216 203.655135 
L 228.661933 203.655135 
L 228.661933 204.446632 
L 255.268211 204.446632 
L 255.268211 205.276426 
L 228.661933 205.276426 
L 228.661933 207.080089 
L 212.008784 207.080089 
L 212.008784 202.825341 
z
" clip-path="url(#p37819b4825)" style="fill: #ffa500"/>
   </g>
   <g id="patch_64">
    <path d="M 257.4208 215.843677 
Q 252.792759 216.203642 247.815043 216.384447 
Q 242.837328 216.563608 237.530507 216.563608 
Q 225.538738 216.563608 218.534969 215.49193 
Q 211.5312 214.420252 211.5312 212.587551 
Q 211.5312 210.733482 218.658384 209.670023 
Q 225.795852 208.606563 238.209287 208.606563 
Q 242.991596 208.606563 247.372808 208.751207 
Q 251.764305 208.894207 255.65186 209.176919 
L 255.65186 210.763069 
Q 251.640891 210.399816 247.67106 210.220655 
Q 243.701229 210.03985 239.710829 210.03985 
Q 232.326532 210.03985 228.325847 210.700609 
Q 224.325163 211.359724 224.325163 212.587551 
Q 224.325163 213.803873 228.181864 214.467919 
Q 232.038565 215.130321 239.134895 215.130321 
Q 241.068388 215.130321 242.724198 215.092516 
Q 244.380008 215.053068 245.696429 214.970884 
L 245.696429 213.481712 
L 238.137295 213.481712 
L 238.137295 212.155264 
L 257.4208 212.155264 
L 257.4208 215.843677 
z
" clip-path="url(#p37819b4825)" style="fill: #1e90ff"/>
   </g>
   <g id="patch_65">
    <path d="M 211.5312 179.943577 
L 224.735024 179.943577 
L 224.735024 180.170331 
L 244.216976 180.170331 
L 244.216976 179.943577 
L 257.4208 179.943577 
L 257.4208 180.538649 
L 244.216976 180.538649 
L 244.216976 180.286387 
L 224.735024 180.286387 
L 224.735024 180.538649 
L 211.5312 180.538649 
L 211.5312 179.943577 
z
" clip-path="url(#p37819b4825)" style="fill: #2e8b57"/>
   </g>
   <g id="patch_66">
    <path d="M 226.149426 188.329075 
L 242.802574 188.329075 
L 242.802574 191.463165 
L 226.149426 191.463165 
L 226.149426 188.329075 
z
" clip-path="url(#p37819b4825)" style="fill: #ffa500"/>
   </g>
   <g id="patch_67">
    <path d="M 211.5312 192.367776 
L 223.624341 192.367776 
L 223.624341 193.865217 
L 241.055352 192.367776 
L 255.098676 192.367776 
L 232.510739 194.311021 
L 257.4208 196.470573 
L 242.281756 196.470573 
L 223.624341 194.854426 
L 223.624341 196.470573 
L 211.5312 196.470573 
L 211.5312 192.367776 
z
" clip-path="url(#p37819b4825)" style="fill: #2e8b57"/>
   </g>
   <g id="patch_68">
    <path d="M 211.5312 218.736907 
L 228.184349 218.736907 
L 228.184349 226.329288 
L 257.4208 226.329288 
L 257.4208 228.166252 
L 211.5312 228.166252 
L 211.5312 218.736907 
z
" clip-path="url(#p37819b4825)" style="fill: #ffa500"/>
   </g>
   <g id="patch_69">
    <path d="M 211.5312 197.51443 
L 226.271629 197.51443 
L 244.897472 200.427802 
L 244.897472 197.51443 
L 257.4208 197.51443 
L 257.4208 201.76249 
L 242.669395 201.76249 
L 224.043552 198.849118 
L 224.043552 201.76249 
L 211.5312 201.76249 
L 211.5312 197.51443 
z
" clip-path="url(#p37819b4825)" style="fill: #1e90ff"/>
   </g>
   <g id="patch_70">
    <path d="M 211.5312 230.728375 
L 235.384232 230.728375 
Q 246.032053 230.728375 251.720451 231.667677 
Q 257.4208 232.604607 257.4208 234.33852 
Q 257.4208 236.081921 251.720451 237.018851 
Q 246.032053 237.955781 235.384232 237.955781 
L 225.907551 237.955781 
L 225.907551 241.796008 
L 211.5312 241.796008 
L 211.5312 230.728375 
z
M 225.907551 232.796737 
L 225.907551 235.887419 
L 233.854578 235.887419 
Q 238.037224 235.887419 240.319754 235.484184 
Q 242.602283 235.080948 242.602283 234.33852 
Q 242.602283 233.598464 240.319754 233.1976 
Q 238.037224 232.796737 233.854578 232.796737 
L 225.907551 232.796737 
z
" clip-path="url(#p37819b4825)" style="fill: #ff1493"/>
   </g>
   <g id="patch_71">
    <path d="M 253.594589 184.6401 
L 253.594589 185.264753 
Q 248.80871 185.156008 244.24717 185.101003 
Q 239.698092 185.045366 235.647543 185.045366 
Q 230.275893 185.045366 227.696005 185.120603 
Q 225.12858 185.195207 225.12858 185.353267 
Q 225.12858 185.472128 226.860969 185.538514 
Q 228.593357 185.604267 233.154898 185.651685 
L 239.53607 185.716805 
Q 249.23246 185.816067 253.320398 186.017752 
Q 257.4208 186.218805 257.4208 186.590562 
Q 257.4208 187.07802 251.712642 187.316374 
Q 246.004485 187.554729 234.276588 187.554729 
Q 228.755379 187.554729 223.184317 187.500989 
Q 217.613255 187.44788 212.042192 187.342928 
L 212.042192 186.701204 
Q 217.613255 186.851045 222.81042 186.927546 
Q 228.007585 187.003415 232.843317 187.003415 
Q 237.753829 187.003415 240.358643 186.920592 
Q 242.963457 186.837136 242.963457 186.682869 
Q 242.963457 186.545041 241.193679 186.469804 
Q 239.423901 186.394567 234.12703 186.335137 
L 228.319166 186.270016 
Q 219.594908 186.17518 215.556822 185.967805 
Q 211.5312 185.76043 211.5312 185.408904 
Q 211.5312 184.968233 217.139652 184.731142 
Q 222.748104 184.494052 233.267067 184.494052 
Q 238.065409 184.494052 243.125479 184.530722 
Q 248.185549 184.567392 253.594589 184.6401 
z
" clip-path="url(#p37819b4825)" style="fill: #1e90ff"/>
   </g>
   <g id="patch_72">
    <path d="M 211.5312 179.536919 
L 257.4208 179.536919 
L 257.4208 179.594522 
L 240.911216 179.594522 
L 240.911216 179.832273 
L 228.0728 179.832273 
L 228.0728 179.594522 
L 211.5312 179.594522 
L 211.5312 179.536919 
z
" clip-path="url(#p37819b4825)" style="fill: #1e90ff"/>
   </g>
   <g id="patch_73">
    <path d="M 268.8932 214.651333 
L 313.827632 214.651333 
L 313.827632 216.939269 
L 285.546349 216.939269 
L 285.546349 219.121609 
L 312.152627 219.121609 
L 312.152627 221.409545 
L 285.546349 221.409545 
L 285.546349 224.097241 
L 314.7828 224.097241 
L 314.7828 226.382664 
L 268.8932 226.382664 
L 268.8932 214.651333 
z
" clip-path="url(#p37819b4825)" style="fill: #b22222"/>
   </g>
   <g id="patch_74">
    <path d="M 268.8932 180.755141 
L 282.097024 180.755141 
L 282.097024 181.148347 
L 301.578976 181.148347 
L 301.578976 180.755141 
L 314.7828 180.755141 
L 314.7828 181.787031 
L 301.578976 181.787031 
L 301.578976 181.349595 
L 282.097024 181.349595 
L 282.097024 181.787031 
L 268.8932 181.787031 
L 268.8932 180.755141 
z
" clip-path="url(#p37819b4825)" style="fill: #2e8b57"/>
   </g>
   <g id="patch_75">
    <path d="M 268.8932 205.006044 
L 280.986341 205.006044 
L 280.986341 207.659493 
L 298.417352 205.006044 
L 312.460676 205.006044 
L 289.872739 208.449452 
L 314.7828 212.276153 
L 299.643756 212.276153 
L 280.986341 209.412359 
L 280.986341 212.276153 
L 268.8932 212.276153 
L 268.8932 205.006044 
z
" clip-path="url(#p37819b4825)" style="fill: #2e8b57"/>
   </g>
   <g id="patch_76">
    <path d="M 268.8932 179.552134 
L 283.633629 179.552134 
L 302.259472 179.838165 
L 302.259472 179.552134 
L 314.7828 179.552134 
L 314.7828 179.969203 
L 300.031395 179.969203 
L 281.405552 179.683172 
L 281.405552 179.969203 
L 268.8932 179.969203 
L 268.8932 179.552134 
z
" clip-path="url(#p37819b4825)" style="fill: #1e90ff"/>
   </g>
   <g id="patch_77">
    <path d="M 268.8932 182.18888 
L 292.746232 182.18888 
Q 303.394053 182.18888 309.082451 182.37414 
Q 314.7828 182.558933 314.7828 182.900917 
Q 314.7828 183.244772 309.082451 183.429565 
Q 303.394053 183.614358 292.746232 183.614358 
L 283.269551 183.614358 
L 283.269551 184.371775 
L 268.8932 184.371775 
L 268.8932 182.18888 
z
M 283.269551 182.596828 
L 283.269551 183.20641 
L 291.216578 183.20641 
Q 295.399224 183.20641 297.681754 183.126879 
Q 299.964283 183.047348 299.964283 182.900917 
Q 299.964283 182.754954 297.681754 182.675891 
Q 295.399224 182.596828 291.216578 182.596828 
L 283.269551 182.596828 
z
" clip-path="url(#p37819b4825)" style="fill: #ff1493"/>
   </g>
   <g id="patch_78">
    <path d="M 293.061723 202.836828 
L 292.163051 202.836828 
Q 281.139987 202.836828 275.011813 202.322309 
Q 268.8932 201.806982 268.8932 200.888601 
Q 268.8932 199.971835 275.002253 199.452469 
Q 281.111306 198.932296 291.838 198.932296 
Q 302.679418 198.932296 308.731109 199.447623 
Q 314.7828 199.962142 314.7828 200.888601 
Q 314.7828 201.524279 311.570528 201.983873 
Q 308.358256 202.443467 302.325686 202.675284 
L 311.312399 203.523393 
L 300.346697 203.523393 
L 293.061723 202.836828 
z
M 291.838 199.63663 
Q 286.579817 199.63663 283.683036 199.964566 
Q 280.786255 200.292501 280.786255 200.888601 
Q 280.786255 201.494393 283.616113 201.816674 
Q 286.455532 202.138148 291.838 202.138148 
Q 297.124864 202.138148 300.021645 201.810213 
Q 302.918426 201.481469 302.918426 200.888601 
Q 302.918426 200.292501 300.021645 199.964566 
Q 297.124864 199.63663 291.838 199.63663 
z
" clip-path="url(#p37819b4825)" style="fill: #1e90ff"/>
   </g>
   <g id="patch_79">
    <path d="M 287.512698 180.296369 
Q 291.630996 180.296369 293.41777 180.281852 
Q 295.204545 180.26723 295.204545 180.23384 
Q 295.204545 180.20076 293.41777 180.186553 
Q 291.630996 180.172243 287.512698 180.172243 
L 281.999845 180.172243 
L 281.999845 180.296369 
L 287.512698 180.296369 
z
M 281.999845 180.382542 
L 281.999845 180.565673 
L 268.8932 180.565673 
L 268.8932 180.081819 
L 288.907254 180.081819 
Q 298.952413 180.081819 303.626354 180.113965 
Q 308.31119 180.146008 308.31119 180.215381 
Q 308.31119 180.26329 305.870717 180.294088 
Q 303.44114 180.324886 298.538405 180.339508 
Q 301.229461 180.345315 303.35398 180.365951 
Q 305.489393 180.386483 307.668387 180.428273 
L 314.7828 180.565673 
L 300.826348 180.565673 
L 294.627111 180.445487 
Q 292.753177 180.409193 290.824768 180.395919 
Q 288.907254 180.382542 285.704134 180.382542 
L 281.999845 180.382542 
z
" clip-path="url(#p37819b4825)" style="fill: #2e8b57"/>
   </g>
   <g id="patch_80">
    <path d="M 310.956589 189.452526 
L 310.956589 190.194769 
Q 306.17071 190.065552 301.60917 190.000193 
Q 297.060092 189.934082 293.009543 189.934082 
Q 287.637893 189.934082 285.058005 190.023482 
Q 282.49058 190.11213 282.49058 190.299945 
Q 282.49058 190.441181 284.222969 190.520063 
Q 285.955357 190.598194 290.516898 190.654538 
L 296.89807 190.731918 
Q 306.59446 190.849865 310.682398 191.089516 
Q 314.7828 191.328416 314.7828 191.770155 
Q 314.7828 192.349375 309.074642 192.632599 
Q 303.366485 192.915823 291.638588 192.915823 
Q 286.117379 192.915823 280.546317 192.851966 
Q 274.975255 192.78886 269.404192 192.664152 
L 269.404192 191.901625 
Q 274.975255 192.079673 280.17242 192.170575 
Q 285.369585 192.260726 290.205317 192.260726 
Q 295.115829 192.260726 297.720643 192.162312 
Q 300.325457 192.063146 300.325457 191.879839 
Q 300.325457 191.716065 298.555679 191.626665 
Q 296.785901 191.537266 291.48903 191.466647 
L 285.681166 191.389268 
Q 276.956908 191.276579 272.918822 191.030167 
Q 268.8932 190.783754 268.8932 190.366055 
Q 268.8932 189.842429 274.501652 189.560707 
Q 280.110104 189.278986 290.629067 189.278986 
Q 295.427409 189.278986 300.487479 189.322559 
Q 305.547549 189.366132 310.956589 189.452526 
z
" clip-path="url(#p37819b4825)" style="fill: #1e90ff"/>
   </g>
   <g id="patch_81">
    <path d="M 268.8932 193.869225 
L 314.7828 193.869225 
L 314.7828 194.647462 
L 298.273216 194.647462 
L 298.273216 197.85961 
L 285.4348 197.85961 
L 285.4348 194.647462 
L 268.8932 194.647462 
L 268.8932 193.869225 
z
" clip-path="url(#p37819b4825)" style="fill: #1e90ff"/>
   </g>
   <g id="patch_82">
    <path d="M 268.8932 185.062612 
L 280.245974 185.062612 
L 291.852074 187.530685 
L 303.439409 185.062612 
L 314.7828 185.062612 
L 298.569913 188.406407 
L 285.106087 188.406407 
L 268.8932 185.062612 
z
" clip-path="url(#p37819b4825)" style="fill: #ffa500"/>
   </g>
   <g id="matplotlib.axis_1">
    <g id="xtick_1">
     <g id="line2d_2">
      <defs>
       <path id="m80e2d5fd78" d="M 0 0 
L 0 3.5 
" style="stroke: #000000; stroke-width: 0.8"/>
      </defs>
      <g>
       <use xlink:href="#m80e2d5fd78" x="119.752" y="332.12" style="stroke: #000000; stroke-width: 0.8"/>
      </g>
     </g>
    </g>
    <g id="xtick_2">
     <g id="line2d_3">
      <g>
       <use xlink:href="#m80e2d5fd78" x="177.114" y="332.12" style="stroke: #000000; stroke-width: 0.8"/>
      </g>
     </g>
    </g>
    <g id="xtick_3">
     <g id="line2d_4">
      <g>
       <use xlink:href="#m80e2d5fd78" x="234.476" y="332.12" style="stroke: #000000; stroke-width: 0.8"/>
      </g>
     </g>
     <g id="text_1">
      <!-- p1' -->
      <g transform="translate(226.746313 346.718437) scale(0.1 -0.1)">
       <defs>
        <path id="DejaVuSans-70" d="M 1159 525 
L 1159 -1331 
L 581 -1331 
L 581 3500 
L 1159 3500 
L 1159 2969 
Q 1341 3281 1617 3432 
Q 1894 3584 2278 3584 
Q 2916 3584 3314 3078 
Q 3713 2572 3713 1747 
Q 3713 922 3314 415 
Q 2916 -91 2278 -91 
Q 1894 -91 1617 61 
Q 1341 213 1159 525 
z
M 3116 1747 
Q 3116 2381 2855 2742 
Q 2594 3103 2138 3103 
Q 1681 3103 1420 2742 
Q 1159 2381 1159 1747 
Q 1159 1113 1420 752 
Q 1681 391 2138 391 
Q 2594 391 2855 752 
Q 3116 1113 3116 1747 
z
" transform="scale(0.015625)"/>
        <path id="DejaVuSans-31" d="M 794 531 
L 1825 531 
L 1825 4091 
L 703 3866 
L 703 4441 
L 1819 4666 
L 2450 4666 
L 2450 531 
L 3481 531 
L 3481 0 
L 794 0 
L 794 531 
z
" transform="scale(0.015625)"/>
        <path id="DejaVuSans-27" d="M 1147 4666 
L 1147 2931 
L 616 2931 
L 616 4666 
L 1147 4666 
z
" transform="scale(0.015625)"/>
       </defs>
       <use xlink:href="#DejaVuSans-70"/>
       <use xlink:href="#DejaVuSans-31" x="63.476562"/>
       <use xlink:href="#DejaVuSans-27" x="127.099609"/>
      </g>
     </g>
    </g>
    <g id="xtick_4">
     <g id="line2d_5">
      <g>
       <use xlink:href="#m80e2d5fd78" x="291.838" y="332.12" style="stroke: #000000; stroke-width: 0.8"/>
      </g>
     </g>
    </g>
   </g>
   <g id="matplotlib.axis_2">
    <g id="ytick_1">
     <g id="line2d_6">
      <defs>
       <path id="m060e1c8bb7" d="M 0 0 
L -3.5 0 
" style="stroke: #000000; stroke-width: 0.8"/>
      </defs>
      <g>
       <use xlink:href="#m060e1c8bb7" x="62.39" y="332.12" style="stroke: #000000; stroke-width: 0.8"/>
      </g>
     </g>
     <g id="text_2">
      <!-- −0.04 -->
      <g transform="translate(24.744688 335.919219) scale(0.1 -0.1)">
       <defs>
        <path id="DejaVuSans-2212" d="M 678 2272 
L 4684 2272 
L 4684 1741 
L 678 1741 
L 678 2272 
z
" transform="scale(0.015625)"/>
        <path id="DejaVuSans-30" d="M 2034 4250 
Q 1547 4250 1301 3770 
Q 1056 3291 1056 2328 
Q 1056 1369 1301 889 
Q 1547 409 2034 409 
Q 2525 409 2770 889 
Q 3016 1369 3016 2328 
Q 3016 3291 2770 3770 
Q 2525 4250 2034 4250 
z
M 2034 4750 
Q 2819 4750 3233 4129 
Q 3647 3509 3647 2328 
Q 3647 1150 3233 529 
Q 2819 -91 2034 -91 
Q 1250 -91 836 529 
Q 422 1150 422 2328 
Q 422 3509 836 4129 
Q 1250 4750 2034 4750 
z
" transform="scale(0.015625)"/>
        <path id="DejaVuSans-2e" d="M 684 794 
L 1344 794 
L 1344 0 
L 684 0 
L 684 794 
z
" transform="scale(0.015625)"/>
        <path id="DejaVuSans-34" d="M 2419 4116 
L 825 1625 
L 2419 1625 
L 2419 4116 
z
M 2253 4666 
L 3047 4666 
L 3047 1625 
L 3713 1625 
L 3713 1100 
L 3047 1100 
L 3047 0 
L 2419 0 
L 2419 1100 
L 313 1100 
L 313 1709 
L 2253 4666 
z
" transform="scale(0.015625)"/>
       </defs>
       <use xlink:href="#DejaVuSans-2212"/>
       <use xlink:href="#DejaVuSans-30" x="83.789062"/>
       <use xlink:href="#DejaVuSans-2e" x="147.412109"/>
       <use xlink:href="#DejaVuSans-30" x="179.199219"/>
       <use xlink:href="#DejaVuSans-34" x="242.822266"/>
      </g>
     </g>
    </g>
    <g id="ytick_2">
     <g id="line2d_7">
      <g>
       <use xlink:href="#m060e1c8bb7" x="62.39" y="293.965" style="stroke: #000000; stroke-width: 0.8"/>
      </g>
     </g>
     <g id="text_3">
      <!-- −0.03 -->
      <g transform="translate(24.744688 297.764219) scale(0.1 -0.1)">
       <defs>
        <path id="DejaVuSans-33" d="M 2597 2516 
Q 3050 2419 3304 2112 
Q 3559 1806 3559 1356 
Q 3559 666 3084 287 
Q 2609 -91 1734 -91 
Q 1441 -91 1130 -33 
Q 819 25 488 141 
L 488 750 
Q 750 597 1062 519 
Q 1375 441 1716 441 
Q 2309 441 2620 675 
Q 2931 909 2931 1356 
Q 2931 1769 2642 2001 
Q 2353 2234 1838 2234 
L 1294 2234 
L 1294 2753 
L 1863 2753 
Q 2328 2753 2575 2939 
Q 2822 3125 2822 3475 
Q 2822 3834 2567 4026 
Q 2313 4219 1838 4219 
Q 1578 4219 1281 4162 
Q 984 4106 628 3988 
L 628 4550 
Q 988 4650 1302 4700 
Q 1616 4750 1894 4750 
Q 2613 4750 3031 4423 
Q 3450 4097 3450 3541 
Q 3450 3153 3228 2886 
Q 3006 2619 2597 2516 
z
" transform="scale(0.015625)"/>
       </defs>
       <use xlink:href="#DejaVuSans-2212"/>
       <use xlink:href="#DejaVuSans-30" x="83.789062"/>
       <use xlink:href="#DejaVuSans-2e" x="147.412109"/>
       <use xlink:href="#DejaVuSans-30" x="179.199219"/>
       <use xlink:href="#DejaVuSans-33" x="242.822266"/>
      </g>
     </g>
    </g>
    <g id="ytick_3">
     <g id="line2d_8">
      <g>
       <use xlink:href="#m060e1c8bb7" x="62.39" y="255.81" style="stroke: #000000; stroke-width: 0.8"/>
      </g>
     </g>
     <g id="text_4">
      <!-- −0.02 -->
      <g transform="translate(24.744688 259.609219) scale(0.1 -0.1)">
       <defs>
        <path id="DejaVuSans-32" d="M 1228 531 
L 3431 531 
L 3431 0 
L 469 0 
L 469 531 
Q 828 903 1448 1529 
Q 2069 2156 2228 2338 
Q 2531 2678 2651 2914 
Q 2772 3150 2772 3378 
Q 2772 3750 2511 3984 
Q 2250 4219 1831 4219 
Q 1534 4219 1204 4116 
Q 875 4013 500 3803 
L 500 4441 
Q 881 4594 1212 4672 
Q 1544 4750 1819 4750 
Q 2544 4750 2975 4387 
Q 3406 4025 3406 3419 
Q 3406 3131 3298 2873 
Q 3191 2616 2906 2266 
Q 2828 2175 2409 1742 
Q 1991 1309 1228 531 
z
" transform="scale(0.015625)"/>
       </defs>
       <use xlink:href="#DejaVuSans-2212"/>
       <use xlink:href="#DejaVuSans-30" x="83.789062"/>
       <use xlink:href="#DejaVuSans-2e" x="147.412109"/>
       <use xlink:href="#DejaVuSans-30" x="179.199219"/>
       <use xlink:href="#DejaVuSans-32" x="242.822266"/>
      </g>
     </g>
    </g>
    <g id="ytick_4">
     <g id="line2d_9">
      <g>
       <use xlink:href="#m060e1c8bb7" x="62.39" y="217.655" style="stroke: #000000; stroke-width: 0.8"/>
      </g>
     </g>
     <g id="text_5">
      <!-- −0.01 -->
      <g transform="translate(24.744688 221.454219) scale(0.1 -0.1)">
       <use xlink:href="#DejaVuSans-2212"/>
       <use xlink:href="#DejaVuSans-30" x="83.789062"/>
       <use xlink:href="#DejaVuSans-2e" x="147.412109"/>
       <use xlink:href="#DejaVuSans-30" x="179.199219"/>
       <use xlink:href="#DejaVuSans-31" x="242.822266"/>
      </g>
     </g>
    </g>
    <g id="ytick_5">
     <g id="line2d_10">
      <g>
       <use xlink:href="#m060e1c8bb7" x="62.39" y="179.5" style="stroke: #000000; stroke-width: 0.8"/>
      </g>
     </g>
     <g id="text_6">
      <!-- 0.00 -->
      <g transform="translate(33.124375 183.299219) scale(0.1 -0.1)">
       <use xlink:href="#DejaVuSans-30"/>
       <use xlink:href="#DejaVuSans-2e" x="63.623047"/>
       <use xlink:href="#DejaVuSans-30" x="95.410156"/>
       <use xlink:href="#DejaVuSans-30" x="159.033203"/>
      </g>
     </g>
    </g>
    <g id="ytick_6">
     <g id="line2d_11">
      <g>
       <use xlink:href="#m060e1c8bb7" x="62.39" y="141.345" style="stroke: #000000; stroke-width: 0.8"/>
      </g>
     </g>
     <g id="text_7">
      <!-- 0.01 -->
      <g transform="translate(33.124375 145.144219) scale(0.1 -0.1)">
       <use xlink:href="#DejaVuSans-30"/>
       <use xlink:href="#DejaVuSans-2e" x="63.623047"/>
       <use xlink:href="#DejaVuSans-30" x="95.410156"/>
       <use xlink:href="#DejaVuSans-31" x="159.033203"/>
      </g>
     </g>
    </g>
    <g id="ytick_7">
     <g id="line2d_12">
      <g>
       <use xlink:href="#m060e1c8bb7" x="62.39" y="103.19" style="stroke: #000000; stroke-width: 0.8"/>
      </g>
     </g>
     <g id="text_8">
      <!-- 0.02 -->
      <g transform="translate(33.124375 106.989219) scale(0.1 -0.1)">
       <use xlink:href="#DejaVuSans-30"/>
       <use xlink:href="#DejaVuSans-2e" x="63.623047"/>
       <use xlink:href="#DejaVuSans-30" x="95.410156"/>
       <use xlink:href="#DejaVuSans-32" x="159.033203"/>
      </g>
     </g>
    </g>
    <g id="ytick_8">
     <g id="line2d_13">
      <g>
       <use xlink:href="#m060e1c8bb7" x="62.39" y="65.035" style="stroke: #000000; stroke-width: 0.8"/>
      </g>
     </g>
     <g id="text_9">
      <!-- 0.03 -->
      <g transform="translate(33.124375 68.834219) scale(0.1 -0.1)">
       <use xlink:href="#DejaVuSans-30"/>
       <use xlink:href="#DejaVuSans-2e" x="63.623047"/>
       <use xlink:href="#DejaVuSans-30" x="95.410156"/>
       <use xlink:href="#DejaVuSans-33" x="159.033203"/>
      </g>
     </g>
    </g>
    <g id="ytick_9">
     <g id="line2d_14">
      <g>
       <use xlink:href="#m060e1c8bb7" x="62.39" y="26.88" style="stroke: #000000; stroke-width: 0.8"/>
      </g>
     </g>
     <g id="text_10">
      <!-- 0.04 -->
      <g transform="translate(33.124375 30.679219) scale(0.1 -0.1)">
       <use xlink:href="#DejaVuSans-30"/>
       <use xlink:href="#DejaVuSans-2e" x="63.623047"/>
       <use xlink:href="#DejaVuSans-30" x="95.410156"/>
       <use xlink:href="#DejaVuSans-34" x="159.033203"/>
      </g>
     </g>
    </g>
    <g id="text_11">
     <!-- JS Divergence -->
     <g transform="translate(18.665 214.226562) rotate(-90) scale(0.1 -0.1)">
      <defs>
       <path id="DejaVuSans-4a" d="M 628 4666 
L 1259 4666 
L 1259 325 
Q 1259 -519 939 -900 
Q 619 -1281 -91 -1281 
L -331 -1281 
L -331 -750 
L -134 -750 
Q 284 -750 456 -515 
Q 628 -281 628 325 
L 628 4666 
z
" transform="scale(0.015625)"/>
       <path id="DejaVuSans-53" d="M 3425 4513 
L 3425 3897 
Q 3066 4069 2747 4153 
Q 2428 4238 2131 4238 
Q 1616 4238 1336 4038 
Q 1056 3838 1056 3469 
Q 1056 3159 1242 3001 
Q 1428 2844 1947 2747 
L 2328 2669 
Q 3034 2534 3370 2195 
Q 3706 1856 3706 1288 
Q 3706 609 3251 259 
Q 2797 -91 1919 -91 
Q 1588 -91 1214 -16 
Q 841 59 441 206 
L 441 856 
Q 825 641 1194 531 
Q 1563 422 1919 422 
Q 2459 422 2753 634 
Q 3047 847 3047 1241 
Q 3047 1584 2836 1778 
Q 2625 1972 2144 2069 
L 1759 2144 
Q 1053 2284 737 2584 
Q 422 2884 422 3419 
Q 422 4038 858 4394 
Q 1294 4750 2059 4750 
Q 2388 4750 2728 4690 
Q 3069 4631 3425 4513 
z
" transform="scale(0.015625)"/>
       <path id="DejaVuSans-20" transform="scale(0.015625)"/>
       <path id="DejaVuSans-44" d="M 1259 4147 
L 1259 519 
L 2022 519 
Q 2988 519 3436 956 
Q 3884 1394 3884 2338 
Q 3884 3275 3436 3711 
Q 2988 4147 2022 4147 
L 1259 4147 
z
M 628 4666 
L 1925 4666 
Q 3281 4666 3915 4102 
Q 4550 3538 4550 2338 
Q 4550 1131 3912 565 
Q 3275 0 1925 0 
L 628 0 
L 628 4666 
z
" transform="scale(0.015625)"/>
       <path id="DejaVuSans-69" d="M 603 3500 
L 1178 3500 
L 1178 0 
L 603 0 
L 603 3500 
z
M 603 4863 
L 1178 4863 
L 1178 4134 
L 603 4134 
L 603 4863 
z
" transform="scale(0.015625)"/>
       <path id="DejaVuSans-76" d="M 191 3500 
L 800 3500 
L 1894 563 
L 2988 3500 
L 3597 3500 
L 2284 0 
L 1503 0 
L 191 3500 
z
" transform="scale(0.015625)"/>
       <path id="DejaVuSans-65" d="M 3597 1894 
L 3597 1613 
L 953 1613 
Q 991 1019 1311 708 
Q 1631 397 2203 397 
Q 2534 397 2845 478 
Q 3156 559 3463 722 
L 3463 178 
Q 3153 47 2828 -22 
Q 2503 -91 2169 -91 
Q 1331 -91 842 396 
Q 353 884 353 1716 
Q 353 2575 817 3079 
Q 1281 3584 2069 3584 
Q 2775 3584 3186 3129 
Q 3597 2675 3597 1894 
z
M 3022 2063 
Q 3016 2534 2758 2815 
Q 2500 3097 2075 3097 
Q 1594 3097 1305 2825 
Q 1016 2553 972 2059 
L 3022 2063 
z
" transform="scale(0.015625)"/>
       <path id="DejaVuSans-72" d="M 2631 2963 
Q 2534 3019 2420 3045 
Q 2306 3072 2169 3072 
Q 1681 3072 1420 2755 
Q 1159 2438 1159 1844 
L 1159 0 
L 581 0 
L 581 3500 
L 1159 3500 
L 1159 2956 
Q 1341 3275 1631 3429 
Q 1922 3584 2338 3584 
Q 2397 3584 2469 3576 
Q 2541 3569 2628 3553 
L 2631 2963 
z
" transform="scale(0.015625)"/>
       <path id="DejaVuSans-67" d="M 2906 1791 
Q 2906 2416 2648 2759 
Q 2391 3103 1925 3103 
Q 1463 3103 1205 2759 
Q 947 2416 947 1791 
Q 947 1169 1205 825 
Q 1463 481 1925 481 
Q 2391 481 2648 825 
Q 2906 1169 2906 1791 
z
M 3481 434 
Q 3481 -459 3084 -895 
Q 2688 -1331 1869 -1331 
Q 1566 -1331 1297 -1286 
Q 1028 -1241 775 -1147 
L 775 -588 
Q 1028 -725 1275 -790 
Q 1522 -856 1778 -856 
Q 2344 -856 2625 -561 
Q 2906 -266 2906 331 
L 2906 616 
Q 2728 306 2450 153 
Q 2172 0 1784 0 
Q 1141 0 747 490 
Q 353 981 353 1791 
Q 353 2603 747 3093 
Q 1141 3584 1784 3584 
Q 2172 3584 2450 3431 
Q 2728 3278 2906 2969 
L 2906 3500 
L 3481 3500 
L 3481 434 
z
" transform="scale(0.015625)"/>
       <path id="DejaVuSans-6e" d="M 3513 2113 
L 3513 0 
L 2938 0 
L 2938 2094 
Q 2938 2591 2744 2837 
Q 2550 3084 2163 3084 
Q 1697 3084 1428 2787 
Q 1159 2491 1159 1978 
L 1159 0 
L 581 0 
L 581 3500 
L 1159 3500 
L 1159 2956 
Q 1366 3272 1645 3428 
Q 1925 3584 2291 3584 
Q 2894 3584 3203 3211 
Q 3513 2838 3513 2113 
z
" transform="scale(0.015625)"/>
       <path id="DejaVuSans-63" d="M 3122 3366 
L 3122 2828 
Q 2878 2963 2633 3030 
Q 2388 3097 2138 3097 
Q 1578 3097 1268 2742 
Q 959 2388 959 1747 
Q 959 1106 1268 751 
Q 1578 397 2138 397 
Q 2388 397 2633 464 
Q 2878 531 3122 666 
L 3122 134 
Q 2881 22 2623 -34 
Q 2366 -91 2075 -91 
Q 1284 -91 818 406 
Q 353 903 353 1747 
Q 353 2603 823 3093 
Q 1294 3584 2113 3584 
Q 2378 3584 2631 3529 
Q 2884 3475 3122 3366 
z
" transform="scale(0.015625)"/>
      </defs>
      <use xlink:href="#DejaVuSans-4a"/>
      <use xlink:href="#DejaVuSans-53" x="29.492188"/>
      <use xlink:href="#DejaVuSans-20" x="92.96875"/>
      <use xlink:href="#DejaVuSans-44" x="124.755859"/>
      <use xlink:href="#DejaVuSans-69" x="201.757812"/>
      <use xlink:href="#DejaVuSans-76" x="229.541016"/>
      <use xlink:href="#DejaVuSans-65" x="288.720703"/>
      <use xlink:href="#DejaVuSans-72" x="350.244141"/>
      <use xlink:href="#DejaVuSans-67" x="389.607422"/>
      <use xlink:href="#DejaVuSans-65" x="453.083984"/>
      <use xlink:href="#DejaVuSans-6e" x="514.607422"/>
      <use xlink:href="#DejaVuSans-63" x="577.986328"/>
      <use xlink:href="#DejaVuSans-65" x="632.966797"/>
     </g>
    </g>
   </g>
   <g id="line2d_15">
    <path d="M 205.795 293.965 
L 205.795 65.035 
" clip-path="url(#p37819b4825)" style="fill: none; stroke-dasharray: 1.85,0.8; stroke-dashoffset: 0; stroke: #000000; stroke-width: 0.5"/>
   </g>
   <g id="patch_83">
    <path d="M 62.39 332.12 
L 62.39 26.88 
" style="fill: none; stroke: #000000; stroke-width: 0.8; stroke-linejoin: miter; stroke-linecap: square"/>
   </g>
   <g id="patch_84">
    <path d="M 62.39 332.12 
L 349.2 332.12 
" style="fill: none; stroke: #000000; stroke-width: 0.8; stroke-linejoin: miter; stroke-linecap: square"/>
   </g>
   <g id="text_12">
    <!-- splice site: detected vs. background -->
    <g transform="translate(97.284063 20.88) scale(0.12 -0.12)">
     <defs>
      <path id="DejaVuSans-73" d="M 2834 3397 
L 2834 2853 
Q 2591 2978 2328 3040 
Q 2066 3103 1784 3103 
Q 1356 3103 1142 2972 
Q 928 2841 928 2578 
Q 928 2378 1081 2264 
Q 1234 2150 1697 2047 
L 1894 2003 
Q 2506 1872 2764 1633 
Q 3022 1394 3022 966 
Q 3022 478 2636 193 
Q 2250 -91 1575 -91 
Q 1294 -91 989 -36 
Q 684 19 347 128 
L 347 722 
Q 666 556 975 473 
Q 1284 391 1588 391 
Q 1994 391 2212 530 
Q 2431 669 2431 922 
Q 2431 1156 2273 1281 
Q 2116 1406 1581 1522 
L 1381 1569 
Q 847 1681 609 1914 
Q 372 2147 372 2553 
Q 372 3047 722 3315 
Q 1072 3584 1716 3584 
Q 2034 3584 2315 3537 
Q 2597 3491 2834 3397 
z
" transform="scale(0.015625)"/>
      <path id="DejaVuSans-6c" d="M 603 4863 
L 1178 4863 
L 1178 0 
L 603 0 
L 603 4863 
z
" transform="scale(0.015625)"/>
      <path id="DejaVuSans-74" d="M 1172 4494 
L 1172 3500 
L 2356 3500 
L 2356 3053 
L 1172 3053 
L 1172 1153 
Q 1172 725 1289 603 
Q 1406 481 1766 481 
L 2356 481 
L 2356 0 
L 1766 0 
Q 1100 0 847 248 
Q 594 497 594 1153 
L 594 3053 
L 172 3053 
L 172 3500 
L 594 3500 
L 594 4494 
L 1172 4494 
z
" transform="scale(0.015625)"/>
      <path id="DejaVuSans-3a" d="M 750 794 
L 1409 794 
L 1409 0 
L 750 0 
L 750 794 
z
M 750 3309 
L 1409 3309 
L 1409 2516 
L 750 2516 
L 750 3309 
z
" transform="scale(0.015625)"/>
      <path id="DejaVuSans-64" d="M 2906 2969 
L 2906 4863 
L 3481 4863 
L 3481 0 
L 2906 0 
L 2906 525 
Q 2725 213 2448 61 
Q 2172 -91 1784 -91 
Q 1150 -91 751 415 
Q 353 922 353 1747 
Q 353 2572 751 3078 
Q 1150 3584 1784 3584 
Q 2172 3584 2448 3432 
Q 2725 3281 2906 2969 
z
M 947 1747 
Q 947 1113 1208 752 
Q 1469 391 1925 391 
Q 2381 391 2643 752 
Q 2906 1113 2906 1747 
Q 2906 2381 2643 2742 
Q 2381 3103 1925 3103 
Q 1469 3103 1208 2742 
Q 947 2381 947 1747 
z
" transform="scale(0.015625)"/>
      <path id="DejaVuSans-62" d="M 3116 1747 
Q 3116 2381 2855 2742 
Q 2594 3103 2138 3103 
Q 1681 3103 1420 2742 
Q 1159 2381 1159 1747 
Q 1159 1113 1420 752 
Q 1681 391 2138 391 
Q 2594 391 2855 752 
Q 3116 1113 3116 1747 
z
M 1159 2969 
Q 1341 3281 1617 3432 
Q 1894 3584 2278 3584 
Q 2916 3584 3314 3078 
Q 3713 2572 3713 1747 
Q 3713 922 3314 415 
Q 2916 -91 2278 -91 
Q 1894 -91 1617 61 
Q 1341 213 1159 525 
L 1159 0 
L 581 0 
L 581 4863 
L 1159 4863 
L 1159 2969 
z
" transform="scale(0.015625)"/>
      <path id="DejaVuSans-61" d="M 2194 1759 
Q 1497 1759 1228 1600 
Q 959 1441 959 1056 
Q 959 750 1161 570 
Q 1363 391 1709 391 
Q 2188 391 2477 730 
Q 2766 1069 2766 1631 
L 2766 1759 
L 2194 1759 
z
M 3341 1997 
L 3341 0 
L 2766 0 
L 2766 531 
Q 2569 213 2275 61 
Q 1981 -91 1556 -91 
Q 1019 -91 701 211 
Q 384 513 384 1019 
Q 384 1609 779 1909 
Q 1175 2209 1959 2209 
L 2766 2209 
L 2766 2266 
Q 2766 2663 2505 2880 
Q 2244 3097 1772 3097 
Q 1472 3097 1187 3025 
Q 903 2953 641 2809 
L 641 3341 
Q 956 3463 1253 3523 
Q 1550 3584 1831 3584 
Q 2591 3584 2966 3190 
Q 3341 2797 3341 1997 
z
" transform="scale(0.015625)"/>
      <path id="DejaVuSans-6b" d="M 581 4863 
L 1159 4863 
L 1159 1991 
L 2875 3500 
L 3609 3500 
L 1753 1863 
L 3688 0 
L 2938 0 
L 1159 1709 
L 1159 0 
L 581 0 
L 581 4863 
z
" transform="scale(0.015625)"/>
      <path id="DejaVuSans-6f" d="M 1959 3097 
Q 1497 3097 1228 2736 
Q 959 2375 959 1747 
Q 959 1119 1226 758 
Q 1494 397 1959 397 
Q 2419 397 2687 759 
Q 2956 1122 2956 1747 
Q 2956 2369 2687 2733 
Q 2419 3097 1959 3097 
z
M 1959 3584 
Q 2709 3584 3137 3096 
Q 3566 2609 3566 1747 
Q 3566 888 3137 398 
Q 2709 -91 1959 -91 
Q 1206 -91 779 398 
Q 353 888 353 1747 
Q 353 2609 779 3096 
Q 1206 3584 1959 3584 
z
" transform="scale(0.015625)"/>
      <path id="DejaVuSans-75" d="M 544 1381 
L 544 3500 
L 1119 3500 
L 1119 1403 
Q 1119 906 1312 657 
Q 1506 409 1894 409 
Q 2359 409 2629 706 
Q 2900 1003 2900 1516 
L 2900 3500 
L 3475 3500 
L 3475 0 
L 2900 0 
L 2900 538 
Q 2691 219 2414 64 
Q 2138 -91 1772 -91 
Q 1169 -91 856 284 
Q 544 659 544 1381 
z
M 1991 3584 
L 1991 3584 
z
" transform="scale(0.015625)"/>
     </defs>
     <use xlink:href="#DejaVuSans-73"/>
     <use xlink:href="#DejaVuSans-70" x="52.099609"/>
     <use xlink:href="#DejaVuSans-6c" x="115.576172"/>
     <use xlink:href="#DejaVuSans-69" x="143.359375"/>
     <use xlink:href="#DejaVuSans-63" x="171.142578"/>
     <use xlink:href="#DejaVuSans-65" x="226.123047"/>
     <use xlink:href="#DejaVuSans-20" x="287.646484"/>
     <use xlink:href="#DejaVuSans-73" x="319.433594"/>
     <use xlink:href="#DejaVuSans-69" x="371.533203"/>
     <use xlink:href="#DejaVuSans-74" x="399.316406"/>
     <use xlink:href="#DejaVuSans-65" x="438.525391"/>
     <use xlink:href="#DejaVuSans-3a" x="500.048828"/>
     <use xlink:href="#DejaVuSans-20" x="533.740234"/>
     <use xlink:href="#DejaVuSans-64" x="565.527344"/>
     <use xlink:href="#DejaVuSans-65" x="629.003906"/>
     <use xlink:href="#DejaVuSans-74" x="690.527344"/>
     <use xlink:href="#DejaVuSans-65" x="729.736328"/>
     <use xlink:href="#DejaVuSans-63" x="791.259766"/>
     <use xlink:href="#DejaVuSans-74" x="846.240234"/>
     <use xlink:href="#DejaVuSans-65" x="885.449219"/>
     <use xlink:href="#DejaVuSans-64" x="946.972656"/>
     <use xlink:href="#DejaVuSans-20" x="1010.449219"/>
     <use xlink:href="#DejaVuSans-76" x="1042.236328"/>
     <use xlink:href="#DejaVuSans-73" x="1101.416016"/>
     <use xlink:href="#DejaVuSans-2e" x="1153.515625"/>
     <use xlink:href="#DejaVuSans-20" x="1185.302734"/>
     <use xlink:href="#DejaVuSans-62" x="1217.089844"/>
     <use xlink:href="#DejaVuSans-61" x="1280.566406"/>
     <use xlink:href="#DejaVuSans-63" x="1341.845703"/>
     <use xlink:href="#DejaVuSans-6b" x="1396.826172"/>
     <use xlink:href="#DejaVuSans-67" x="1454.736328"/>
     <use xlink:href="#DejaVuSans-72" x="1518.212891"/>
     <use xlink:href="#DejaVuSans-6f" x="1557.076172"/>
     <use xlink:href="#DejaVuSans-75" x="1618.257812"/>
     <use xlink:href="#DejaVuSans-6e" x="1681.636719"/>
     <use xlink:href="#DejaVuSans-64" x="1745.015625"/>
    </g>
   </g>
  </g>
 </g>
 <defs>
  <clipPath id="p37819b4825">
   <rect x="62.39" y="26.88" width="286.81" height="305.24"/>
  </clipPath>
 </defs>
</svg>
