<svg class="main-svg" xmlns="http://www.w3.org/2000/svg" xmlns:xlink="http://www.w3.org/1999/xlink" width="300" height="300" style="" viewBox="0 0 300 300"><rect x="0" y="0" width="300" height="300" style="fill: rgb(255, 255, 255); fill-opacity: 1;"/><defs id="defs-6640d6"><g class="clips"><clipPath id="clip6640d6xyplot" class="plotclip"><rect width="268" height="257"/></clipPath><clipPath class="axesclip" id="clip6640d6x"><rect x="28" y="0" width="268" height="300"/></clipPath><clipPath class="axesclip" id="clip6640d6y"><rect x="0" y="20" width="300" height="257"/></clipPath><clipPath class="axesclip" id="clip6640d6xy"><rect x="28" y="20" width="268" height="257"/></clipPath></g><g class="gradients"/><g class="patterns"/></defs><g class="bglayer"><rect class="bg" x="28" y="20" width="268" height="257" style="fill: rgb(0, 0, 0); fill-opacity: 0; stroke-width: 0;"/></g><g class="layer-below"><g class="imagelayer"/><g class="shapelayer"/></g><g class="cartesianlayer"><g class="subplot xy"><g class="layer-subplot"><g class="shapelayer"/><g class="imagelayer"/></g><g class="minor-gridlayer"><g class="x"/><g class="y"/></g><g class="gridlayer"><g class="x"/><g class="y"/></g><g class="zerolinelayer"/><g class="layer-between"><g class="shapelayer"/><g class="imagelayer"/></g><path class="xlines-below"/><path class="ylines-below"/><g class="overlines-below"/><g class="xaxislayer-below"/><g class="yaxislayer-below"/><g class="overaxes-below"/><g class="plot" transform="translate(28,20)" clip-path="url(#clip6640d6xyplot)"><g class="scatterlayer mlayer"><g class="trace scatter tracef46da0" style="stroke-miterlimit: 2; opacity: 1;"><g class="fills"/><g class="errorbars"/><g class="lines"><path class="js-line" d="M0,257L0.11,255.47L0.11,255.43L0.76,241.73L0.87,241.73L1.53,229.57L1.64,229.56L2.29,222.85L2.4,222.84L3.06,217.74L3.17,217.74L3.82,215.88L3.93,215.88L4.59,210.23L4.7,210.23L5.35,207.06L5.46,207.06L5.9,206.25L5.9,206.16L6.56,203.59L6.66,203.59L7.32,198.18L7.43,198.17L8.08,193.16L8.19,193.16L8.85,188.62L8.96,188.62L9.61,185.5L9.72,185.5L10.38,183.09L10.49,183.09L11.14,177.49L11.25,177.48L11.91,174.45L12.02,174.45L13,171.85L13,171.84L13.66,165.68L13.77,165.68L14.09,164.16L14.09,164.12L15.08,161.18L15.08,161.08L15.4,160.28L15.4,160.26L16.06,158.13L16.17,158.13L16.83,154.95L16.93,154.95L17.59,151.89L17.7,151.89L18.35,149.81L18.46,149.81L19.01,149.12L19.01,148.87L19.67,146.15L19.77,146.15L20.43,144.26L20.54,144.26L21.2,141.72L21.3,141.72L21.96,140.28L22.07,140.28L22.72,136.45L22.83,136.45L23.49,133.38L23.6,133.38L24.25,131.44L24.36,131.44L25.46,128.84L25.46,128.82L28.62,120.7L28.73,120.7L29.39,118.25L29.39,118.25L29.5,118.25L30.15,116.9L30.26,116.9L30.92,114.66L31.03,114.66L32.34,111.85L32.34,111.7L34.42,107.79L34.42,107.68L35.73,105.22L35.73,104.71L36.27,103.15L36.27,102.89L37.04,100.63L37.04,100.54L37.69,98.92L37.8,98.92L39.77,95.15L39.88,95.15L42.06,92.05L42.06,91.78L46,86.16L46,85.77L47.74,82.31L47.74,81.85L48.4,80.2L48.51,80.2L49.49,79.2L49.49,79.09L52.22,75.25L52.22,75.14L55.39,70.16L55.39,69.89L57.69,66.82L57.69,66.5L64.46,59.34L64.57,59.34L65.55,58.47L65.55,58.11L67.85,55.03L67.96,55.03L71.78,51.2L71.78,50.63L73.2,49.44L73.31,49.44L75.39,46.31L75.49,46.31L80.41,41.53L80.41,41.53L80.63,41.53L81.28,41.04L81.39,41.04L85.44,37.16L85.55,37.16L87.29,35.98L87.4,35.98L88.6,35.09L88.71,35.09L90.13,34.25L90.13,33.79L91.66,32.91L91.66,32.69L92.43,31.74L92.43,31.59L94.83,30.54L94.83,30.19L97.24,29.4L97.24,29.16L99.42,27.92L99.42,27.88L100.95,27.05L100.95,26.87L102.37,26.07L102.37,25.99L104.88,24.48L104.99,24.48L105.98,24.01L105.98,24.01L106.09,24.01L114.39,20.11L114.39,20.02L123.57,16.15L123.57,15.88L126.84,14.89L126.84,14.59L132.09,12.47L132.09,12.35L134.93,11.62L134.93,11.55L139.52,9.98L139.52,9.93L161.26,4.35L161.26,4.35L161.37,4.35L169.34,3.25L169.34,3.21L187.81,1.67L188.24,1.67L213.81,0.64L213.81,0.64L214.25,0.64L242.11,0.09L242.11,0.09L242.98,0.09L268,0" style="vector-effect: none; fill: none; stroke: rgb(236, 154, 86); stroke-opacity: 1; stroke-width: 2px; opacity: 1;"/></g><g class="points"/><g class="text"/></g><g class="trace scatter trace134847" style="stroke-miterlimit: 2; opacity: 1;"><g class="fills"/><g class="errorbars"/><g class="lines"><path class="js-line" d="M0,257L0.74,65.55L0.76,65.55L1.47,52.06L1.52,52.06L2.26,44.79L2.31,44.79L3.05,39.43L3.07,39.43L3.68,35.63L3.83,35.63L4.55,32.69L4.62,32.69L5.34,30.78L5.45,30.78L6.09,28.71L6.47,28.71L7.11,27.15L7.38,27.15L8.08,25.6L8.18,25.6L8.67,24.56L9.04,24.56L9.66,23.35L9.83,23.35L10.89,21.45L11.02,21.45L11.77,20.75L11.84,20.75L12.43,20.23L12.9,20.23L13.59,19.2L13.67,19.2L14.42,18.33L14.49,18.33L14.79,17.12L15.32,17.12L15.77,16.43L16.44,16.43L16.85,15.74L17.39,15.74L17.99,14.87L18.17,14.87L18.61,14.18L18.98,14.18L18.98,14.01L19.76,14.01L20.2,13.49L20.52,13.49L21.2,12.8L22.55,12.8L22.55,12.63L23.34,12.63L24.04,11.76L24.25,11.76L24.25,11.59L25.39,11.59L26.09,11.24L26.17,11.24L26.17,11.07L27.23,11.07L27.86,10.38L28.33,10.38L28.33,10.2L30.11,10.2L30.11,9.86L31.4,9.86L34.44,9.17L34.44,8.99L34.58,8.82L35.83,8.82L36.41,7.96L37.74,7.96L37.74,7.78L39.44,7.78L39.44,7.61L41.64,7.61L41.64,7.44L43.19,7.44L43.19,7.26L48.25,7.26L49.9,6.57L49.9,6.4L61.27,5.71L61.27,5.53L68.7,4.84L68.7,4.67L84.69,3.98L84.69,3.8L108.07,3.11L108.07,2.94L123.24,2.25L123.24,2.08L150.35,1.38L150.35,1.21L204.35,0.52L204.35,0.35L268,0" style="vector-effect: none; fill: none; stroke: rgb(186, 105, 190); stroke-opacity: 1; stroke-width: 2px; opacity: 1;"/></g><g class="points"/><g class="text"/></g><g class="trace scatter trace3dc601" style="stroke-miterlimit: 2; opacity: 1;"><g class="fills"/><g class="errorbars"/><g class="lines"><path class="js-line" d="M0,257L0.75,143.7L0.77,143.7L1.5,127.76L1.54,127.76L2.29,120.39L2.37,120.39L3.09,115.37L3.14,115.37L3.86,111.83L3.96,111.83L4.63,108.88L4.78,108.88L5.36,105.93L5.61,105.93L6.28,103.86L6.4,103.86L7.15,100.91L7.23,100.91L7.96,99.73L8.57,99.73L9.3,97.67L9.58,97.67L10.32,96.78L10.49,96.78L11.15,95.31L11.45,95.31L11.98,94.13L12.33,94.13L12.95,92.35L13.12,92.35L13.84,91.47L14.1,91.47L14.79,89.99L15.13,89.99L15.43,89.11L16.06,89.11L16.71,88.22L17.49,88.22L17.83,86.45L18.53,86.45L19.02,85.57L19.29,85.57L19.89,84.98L20.3,84.98L20.8,84.39L20.8,84.09L23.24,83.5L23.24,83.21L25.38,82.62L25.38,82.32L26.04,80.55L26.81,80.55L27.52,79.37L27.91,79.37L28.45,78.78L28.72,78.78L29.16,78.19L29.56,78.19L30.21,76.42L30.45,76.42L30.45,76.13L31.32,76.13L31.79,75.24L32.33,75.24L32.89,74.65L33.25,74.65L33.92,73.77L34.01,73.77L34.24,73.18L34.91,73.18L35.33,72.29L35.72,72.29L36.27,70.52L36.73,70.52L36.88,69.93L37.65,69.93L38.25,69.34L38.63,69.34L39.8,69.04L39.8,68.45L40.9,66.98L41.45,66.98L41.58,66.39L42.58,66.39L42.58,66.09L43.36,66.09L43.36,65.8L44.46,65.8L44.46,65.5L45.22,65.5L45.22,65.21L45.69,65.21L48.3,65.21L48.63,64.62L49.48,64.62L50.06,64.03L51.35,64.03L52.05,63.14L52.21,63.14L52.92,61.96L53.01,61.96L53.75,61.37L53.97,61.37L54.52,60.78L54.88,60.78L54.88,60.49L55.82,60.49L60.15,59.9L60.15,59.6L63.33,59.01L63.33,58.72L66.53,58.13L66.53,57.83L71.51,57.24L71.51,56.95L72.59,56.36L72.59,56.06L74.77,55.47L74.77,55.18L81.33,54.59L81.33,54.29L81.39,54L83.22,54L83.22,53.7L85.16,53.7L85.24,53.11L86,53.11L90.59,52.52L90.59,52.23L91.34,51.34L91.82,51.34L91.82,51.05L93.8,51.05L94.24,49.87L95.12,49.87L95.12,49.57L96.6,49.57L96.71,49.28L99.43,49.28L100.02,48.69L100.73,48.69L101.38,47.51L101.68,47.51L101.75,46.92L102.8,46.92L102.8,46.62L102.95,46.62L104.16,46.62L104.58,45.14L105.22,45.14L105.61,44.26L107.03,44.26L107.48,43.67L108.5,43.67L108.5,43.37L109.26,43.37L109.26,43.08L109.89,43.08L110.58,43.08L111.16,41.9L112.71,41.9L113.32,41.31L113.6,41.31L114.16,40.42L114.57,40.42L115.13,38.95L115.99,38.95L115.99,38.65L116.97,38.65L116.97,38.36L117.73,38.36L117.73,38.06L118.41,38.06L119.27,38.06L119.7,37.47L120.81,37.47L120.81,37.18L121.13,37.18L122.08,37.18L124.94,36.59L124.94,36.29L128.95,35.7L128.95,35.41L134.24,34.82L134.24,34.52L139.58,33.93L139.58,33.64L142.3,33.05L142.3,32.75L144.84,32.16L144.84,31.87L144.95,31.57L146.61,31.57L146.89,30.98L147.57,30.98L148.32,30.39L148.72,30.39L149.32,29.8L151.61,29.8L151.97,28.92L154.41,28.92L154.8,28.03L156.38,28.03L156.38,27.74L157.41,27.74L157.54,27.15L158.65,27.15L158.65,26.85L159.43,26.85L160.01,25.67L161.74,25.67L171.23,25.08L171.23,24.79L171.24,24.49L174.23,24.49L174.23,24.2L174.71,24.2L175.47,24.2L177.94,23.61L177.94,23.31L180.77,22.72L180.77,22.42L182.73,21.83L182.73,21.54L184.94,20.95L184.94,20.65L186.63,20.06L186.63,19.77L187.66,19.18L187.66,18.88L191.25,18.29L191.25,18L195.29,17.41L195.29,17.11L195.35,16.82L196.81,16.82L197.12,16.23L198.27,16.23L198.27,15.93L199.78,15.93L199.78,15.64L200.9,15.64L202.29,15.05L202.29,14.75L205.29,14.16L205.29,13.87L205.36,13.57L206.15,13.57L206.56,12.98L207.3,12.98L207.3,12.69L210.99,12.69L211.02,12.1L213.29,12.1L215.15,11.51L215.15,11.21L218.4,10.62L218.4,10.33L221.15,9.74L221.15,9.44L222.91,8.85L222.91,8.56L225.7,7.97L225.7,7.67L227.91,7.08L227.91,6.79L231.52,6.2L231.52,5.9L237.7,5.31L237.71,5.02L241.41,4.43L241.41,4.13L248.72,3.54L248.72,3.25L252.95,2.66L252.95,2.36L259.97,1.77L259.97,1.48L266.82,0.89L266.82,0.59L268,0" style="vector-effect: none; fill: none; stroke: rgb(155, 191, 229); stroke-opacity: 1; stroke-width: 2px; opacity: 1;"/></g><g class="points"/><g class="text"/></g><g class="trace scatter tracec5bb8e" style="stroke-miterlimit: 2; opacity: 1;"><g class="fills"/><g class="errorbars"/><g class="lines"><path class="js-line" d="M0,257L268,0" style="vector-effect: none; fill: none; stroke: rgb(0, 0, 0); stroke-opacity: 1; stroke-dasharray: 9px, 9px; stroke-width: 2px; opacity: 1;"/></g><g class="points"/><g class="text"/></g></g></g><g class="overplot"/><path class="xlines-above crisp" d="M27.5,277.25H296" style="fill: none; stroke-width: 0.5px; stroke: rgb(0, 0, 0); stroke-opacity: 1;"/><path class="ylines-above crisp" d="M27.75,20V277" style="fill: none; stroke-width: 0.5px; stroke: rgb(0, 0, 0); stroke-opacity: 1;"/><g class="overlines-above"/><g class="xaxislayer-above"><path class="xtick ticks crisp" d="M0,277.5v5" transform="translate(28,0)" style="stroke: rgb(68, 68, 68); stroke-opacity: 1; stroke-width: 1px;"/><path class="xtick ticks crisp" d="M0,277.5v5" transform="translate(81.6,0)" style="stroke: rgb(68, 68, 68); stroke-opacity: 1; stroke-width: 1px;"/><path class="xtick ticks crisp" d="M0,277.5v5" transform="translate(135.2,0)" style="stroke: rgb(68, 68, 68); stroke-opacity: 1; stroke-width: 1px;"/><path class="xtick ticks crisp" d="M0,277.5v5" transform="translate(188.8,0)" style="stroke: rgb(68, 68, 68); stroke-opacity: 1; stroke-width: 1px;"/><path class="xtick ticks crisp" d="M0,277.5v5" transform="translate(242.4,0)" style="stroke: rgb(68, 68, 68); stroke-opacity: 1; stroke-width: 1px;"/><path class="xtick ticks crisp" d="M0,277.5v5" transform="translate(296,0)" style="stroke: rgb(68, 68, 68); stroke-opacity: 1; stroke-width: 1px;"/><g class="xtick"><text text-anchor="middle" x="0" y="296.9" transform="translate(28,0)" style="font-family: Helvetica; font-size: 12px; fill: rgb(0, 0, 0); fill-opacity: 1; white-space: pre; opacity: 1;">0</text></g><g class="xtick"><text text-anchor="middle" x="0" y="296.9" style="font-family: Helvetica; font-size: 12px; fill: rgb(0, 0, 0); fill-opacity: 1; white-space: pre; opacity: 1;" transform="translate(81.6,0)">0.2</text></g><g class="xtick"><text text-anchor="middle" x="0" y="296.9" style="font-family: Helvetica; font-size: 12px; fill: rgb(0, 0, 0); fill-opacity: 1; white-space: pre; opacity: 1;" transform="translate(135.2,0)">0.4</text></g><g class="xtick"><text text-anchor="middle" x="0" y="296.9" style="font-family: Helvetica; font-size: 12px; fill: rgb(0, 0, 0); fill-opacity: 1; white-space: pre; opacity: 1;" transform="translate(188.8,0)">0.6</text></g><g class="xtick"><text text-anchor="middle" x="0" y="296.9" style="font-family: Helvetica; font-size: 12px; fill: rgb(0, 0, 0); fill-opacity: 1; white-space: pre; opacity: 1;" transform="translate(242.4,0)">0.8</text></g><g class="xtick"><text text-anchor="middle" x="0" y="296.9" style="font-family: Helvetica; font-size: 12px; fill: rgb(0, 0, 0); fill-opacity: 1; white-space: pre; opacity: 1;" transform="translate(296,0)">1</text></g></g><g class="yaxislayer-above"><path class="ytick ticks crisp" d="M27.5,0h-5" transform="translate(0,277)" style="stroke: rgb(68, 68, 68); stroke-opacity: 1; stroke-width: 1px;"/><path class="ytick ticks crisp" d="M27.5,0h-5" transform="translate(0,225.6)" style="stroke: rgb(68, 68, 68); stroke-opacity: 1; stroke-width: 1px;"/><path class="ytick ticks crisp" d="M27.5,0h-5" transform="translate(0,174.2)" style="stroke: rgb(68, 68, 68); stroke-opacity: 1; stroke-width: 1px;"/><path class="ytick ticks crisp" d="M27.5,0h-5" transform="translate(0,122.8)" style="stroke: rgb(68, 68, 68); stroke-opacity: 1; stroke-width: 1px;"/><path class="ytick ticks crisp" d="M27.5,0h-5" transform="translate(0,71.4)" style="stroke: rgb(68, 68, 68); stroke-opacity: 1; stroke-width: 1px;"/><path class="ytick ticks crisp" d="M27.5,0h-5" transform="translate(0,20)" style="stroke: rgb(68, 68, 68); stroke-opacity: 1; stroke-width: 1px;"/><g class="ytick"><text text-anchor="end" x="20.1" y="4.199999999999999" transform="translate(0,277)" style="font-family: Helvetica; font-size: 12px; fill: rgb(0, 0, 0); fill-opacity: 1; white-space: pre; opacity: 1;">0</text></g><g class="ytick"><text text-anchor="end" x="20.1" y="4.199999999999999" style="font-family: Helvetica; font-size: 12px; fill: rgb(0, 0, 0); fill-opacity: 1; white-space: pre; opacity: 1;" transform="translate(0,225.6)">0.2</text></g><g class="ytick"><text text-anchor="end" x="20.1" y="4.199999999999999" style="font-family: Helvetica; font-size: 12px; fill: rgb(0, 0, 0); fill-opacity: 1; white-space: pre; opacity: 1;" transform="translate(0,174.2)">0.4</text></g><g class="ytick"><text text-anchor="end" x="20.1" y="4.199999999999999" style="font-family: Helvetica; font-size: 12px; fill: rgb(0, 0, 0); fill-opacity: 1; white-space: pre; opacity: 1;" transform="translate(0,122.8)">0.6</text></g><g class="ytick"><text text-anchor="end" x="20.1" y="4.199999999999999" style="font-family: Helvetica; font-size: 12px; fill: rgb(0, 0, 0); fill-opacity: 1; white-space: pre; opacity: 1;" transform="translate(0,71.4)">0.8</text></g><g class="ytick"><text text-anchor="end" x="20.1" y="4.199999999999999" style="font-family: Helvetica; font-size: 12px; fill: rgb(0, 0, 0); fill-opacity: 1; white-space: pre; opacity: 1;" transform="translate(0,20)">1</text></g></g><g class="overaxes-above"/></g></g><g class="polarlayer"/><g class="smithlayer"/><g class="ternarylayer"/><g class="geolayer"/><g class="funnelarealayer"/><g class="pielayer"/><g class="iciclelayer"/><g class="treemaplayer"/><g class="sunburstlayer"/><g class="glimages"/><defs id="topdefs-6640d6"><g class="clips"/></defs><g class="layer-above"><g class="imagelayer"/><g class="shapelayer"/></g><g class="infolayer"><g class="g-gtitle"/><g class="g-xtitle"/><g class="g-ytitle"/></g></svg>