<svg class="main-svg" xmlns="http://www.w3.org/2000/svg" xmlns:xlink="http://www.w3.org/1999/xlink" width="400" height="400" style="" viewBox="0 0 400 400"><rect x="0" y="0" width="400" height="400" style="fill: rgb(255, 255, 255); fill-opacity: 1;"/><defs id="defs-1006ee"><g class="clips"><clipPath id="clip1006eexyplot" class="plotclip"><rect width="328" height="357"/></clipPath><clipPath class="axesclip" id="clip1006eex"><rect x="54" y="0" width="328" height="400"/></clipPath><clipPath class="axesclip" id="clip1006eey"><rect x="0" y="20" width="400" height="357"/></clipPath><clipPath class="axesclip" id="clip1006eexy"><rect x="54" y="20" width="328" height="357"/></clipPath></g><g class="gradients"/><g class="patterns"/></defs><g class="bglayer"><rect class="bg" x="54" y="20" width="328" height="357" style="fill: rgb(0, 0, 0); fill-opacity: 0; stroke-width: 0;"/></g><g class="layer-below"><g class="imagelayer"/><g class="shapelayer"/></g><g class="cartesianlayer"><g class="subplot xy"><g class="layer-subplot"><g class="shapelayer"/><g class="imagelayer"/></g><g class="minor-gridlayer"><g class="x"/><g class="y"/></g><g class="gridlayer"><g class="x"/><g class="y"/></g><g class="zerolinelayer"><path class="xzl zl crisp" transform="translate(218,0)" d="M0,20v357" style="stroke: rgb(255, 255, 255); stroke-opacity: 1; stroke-width: 2px;"/><path class="yzl zl crisp" transform="translate(0,224)" d="M54,0h328" style="stroke: rgb(255, 255, 255); stroke-opacity: 1; stroke-width: 2px;"/></g><g class="layer-between"><g class="shapelayer"/><g class="imagelayer"/></g><path class="xlines-below"/><path class="ylines-below"/><g class="overlines-below"/><g class="xaxislayer-below"/><g class="yaxislayer-below"/><g class="overaxes-below"/><g class="plot" transform="translate(54,20)" clip-path="url(#clip1006eexyplot)"><g class="scatterlayer mlayer"><g class="trace scatter trace9f7b04" style="stroke-miterlimit: 2; opacity: 1;"><g class="fills"/><g class="errorbars"/><g class="lines"/><g class="points"><path class="point" transform="translate(267.28,52.3)" d="M5,0A5,5 0 1,1 0,-5A5,5 0 0,1 5,0Z" style="opacity: 1; stroke-width: 0.25px; fill: rgb(255, 165, 0); fill-opacity: 1; stroke: rgb(0, 0, 0); stroke-opacity: 1;"/><path class="point" transform="translate(167.51,197.92)" d="M5,0A5,5 0 1,1 0,-5A5,5 0 0,1 5,0Z" style="opacity: 1; stroke-width: 0.25px; fill: rgb(30, 144, 255); fill-opacity: 1; stroke: rgb(0, 0, 0); stroke-opacity: 1;"/><path class="point" transform="translate(125.37,227.38)" d="M5,0A5,5 0 1,1 0,-5A5,5 0 0,1 5,0Z" style="opacity: 1; stroke-width: 0.25px; fill: rgb(178, 34, 34); fill-opacity: 1; stroke: rgb(0, 0, 0); stroke-opacity: 1;"/><path class="point" transform="translate(149.58,145.73)" d="M5,0A5,5 0 1,1 0,-5A5,5 0 0,1 5,0Z" style="opacity: 1; stroke-width: 0.25px; fill: rgb(178, 34, 34); fill-opacity: 1; stroke: rgb(0, 0, 0); stroke-opacity: 1;"/><path class="point" transform="translate(133.29,239.54)" d="M5,0A5,5 0 1,1 0,-5A5,5 0 0,1 5,0Z" style="opacity: 1; stroke-width: 0.25px; fill: rgb(255, 165, 0); fill-opacity: 1; stroke: rgb(0, 0, 0); stroke-opacity: 1;"/><path class="point" transform="translate(133.61,270.47)" d="M5,0A5,5 0 1,1 0,-5A5,5 0 0,1 5,0Z" style="opacity: 1; stroke-width: 0.25px; fill: rgb(30, 144, 255); fill-opacity: 1; stroke: rgb(0, 0, 0); stroke-opacity: 1;"/><path class="point" transform="translate(159.73,208.97)" d="M5,0A5,5 0 1,1 0,-5A5,5 0 0,1 5,0Z" style="opacity: 1; stroke-width: 0.25px; fill: rgb(46, 139, 87); fill-opacity: 1; stroke: rgb(0, 0, 0); stroke-opacity: 1;"/><path class="point" transform="translate(91.76,230.18)" d="M5,0A5,5 0 1,1 0,-5A5,5 0 0,1 5,0Z" style="opacity: 1; stroke-width: 0.25px; fill: rgb(255, 165, 0); fill-opacity: 1; stroke: rgb(0, 0, 0); stroke-opacity: 1;"/><path class="point" transform="translate(60.02,238.28)" d="M5,0A5,5 0 1,1 0,-5A5,5 0 0,1 5,0Z" style="opacity: 1; stroke-width: 0.25px; fill: rgb(46, 139, 87); fill-opacity: 1; stroke: rgb(0, 0, 0); stroke-opacity: 1;"/><path class="point" transform="translate(94.36,282.77)" d="M5,0A5,5 0 1,1 0,-5A5,5 0 0,1 5,0Z" style="opacity: 1; stroke-width: 0.25px; fill: rgb(255, 165, 0); fill-opacity: 1; stroke: rgb(0, 0, 0); stroke-opacity: 1;"/><path class="point" transform="translate(268.98,178.64)" d="M5,0A5,5 0 1,1 0,-5A5,5 0 0,1 5,0Z" style="opacity: 1; stroke-width: 0.25px; fill: rgb(255, 165, 0); fill-opacity: 1; stroke: rgb(0, 0, 0); stroke-opacity: 1;"/><path class="point" transform="translate(233.73,239.49)" d="M5,0A5,5 0 1,1 0,-5A5,5 0 0,1 5,0Z" style="opacity: 1; stroke-width: 0.25px; fill: rgb(30, 144, 255); fill-opacity: 1; stroke: rgb(0, 0, 0); stroke-opacity: 1;"/><path class="point" transform="translate(26.05,296.46)" d="M5,0A5,5 0 1,1 0,-5A5,5 0 0,1 5,0Z" style="opacity: 1; stroke-width: 0.25px; fill: rgb(255, 20, 147); fill-opacity: 1; stroke: rgb(0, 0, 0); stroke-opacity: 1;"/><path class="point" transform="translate(230.81,199.81)" d="M5,0A5,5 0 1,1 0,-5A5,5 0 0,1 5,0Z" style="opacity: 1; stroke-width: 0.25px; fill: rgb(30, 144, 255); fill-opacity: 1; stroke: rgb(0, 0, 0); stroke-opacity: 1;"/><path class="point" transform="translate(156.11,58.32)" d="M5,0A5,5 0 1,1 0,-5A5,5 0 0,1 5,0Z" style="opacity: 1; stroke-width: 0.25px; fill: rgb(46, 139, 87); fill-opacity: 1; stroke: rgb(0, 0, 0); stroke-opacity: 1;"/><path class="point" transform="translate(233.08,229.57)" d="M5,0A5,5 0 1,1 0,-5A5,5 0 0,1 5,0Z" style="opacity: 1; stroke-width: 0.25px; fill: rgb(30, 144, 255); fill-opacity: 1; stroke: rgb(0, 0, 0); stroke-opacity: 1;"/><path class="point" transform="translate(166.38,206.47)" d="M5,0A5,5 0 1,1 0,-5A5,5 0 0,1 5,0Z" style="opacity: 1; stroke-width: 0.25px; fill: rgb(30, 144, 255); fill-opacity: 1; stroke: rgb(0, 0, 0); stroke-opacity: 1;"/><path class="point" transform="translate(260.5,203.32)" d="M5,0A5,5 0 1,1 0,-5A5,5 0 0,1 5,0Z" style="opacity: 1; stroke-width: 0.25px; fill: rgb(255, 165, 0); fill-opacity: 1; stroke: rgb(0, 0, 0); stroke-opacity: 1;"/><path class="point" transform="translate(157.44,193.51)" d="M5,0A5,5 0 1,1 0,-5A5,5 0 0,1 5,0Z" style="opacity: 1; stroke-width: 0.25px; fill: rgb(255, 165, 0); fill-opacity: 1; stroke: rgb(0, 0, 0); stroke-opacity: 1;"/><path class="point" transform="translate(164.41,180.87)" d="M5,0A5,5 0 1,1 0,-5A5,5 0 0,1 5,0Z" style="opacity: 1; stroke-width: 0.25px; fill: rgb(255, 165, 0); fill-opacity: 1; stroke: rgb(0, 0, 0); stroke-opacity: 1;"/></g><g class="text"><g class="textpoint" transform="translate(0,16.25)"><text x="267.28" y="52.3" text-anchor="middle" style="font-family: Helvetica; font-size: 12px; fill: rgb(0, 0, 0); fill-opacity: 1; white-space: pre;">A</text></g><g class="textpoint" transform="translate(0,16.25)"><text x="167.51" y="197.92" text-anchor="middle" style="font-family: Helvetica; font-size: 12px; fill: rgb(0, 0, 0); fill-opacity: 1; white-space: pre;">C</text></g><g class="textpoint" transform="translate(0,16.25)"><text x="125.37" y="227.38" text-anchor="middle" style="font-family: Helvetica; font-size: 12px; fill: rgb(0, 0, 0); fill-opacity: 1; white-space: pre;">D</text></g><g class="textpoint" transform="translate(0,16.25)"><text x="149.58" y="145.73" text-anchor="middle" style="font-family: Helvetica; font-size: 12px; fill: rgb(0, 0, 0); fill-opacity: 1; white-space: pre;">E</text></g><g class="textpoint" transform="translate(0,16.25)"><text x="133.29" y="239.54" text-anchor="middle" style="font-family: Helvetica; font-size: 12px; fill: rgb(0, 0, 0); fill-opacity: 1; white-space: pre;">F</text></g><g class="textpoint" transform="translate(0,16.25)"><text x="133.61" y="270.47" text-anchor="middle" style="font-family: Helvetica; font-size: 12px; fill: rgb(0, 0, 0); fill-opacity: 1; white-space: pre;">G</text></g><g class="textpoint" transform="translate(0,16.25)"><text x="159.73" y="208.97" text-anchor="middle" style="font-family: Helvetica; font-size: 12px; fill: rgb(0, 0, 0); fill-opacity: 1; white-space: pre;">H</text></g><g class="textpoint" transform="translate(0,16.25)"><text x="91.76" y="230.18" text-anchor="middle" style="font-family: Helvetica; font-size: 12px; fill: rgb(0, 0, 0); fill-opacity: 1; white-space: pre;">I</text></g><g class="textpoint" transform="translate(0,16.25)"><text x="60.02" y="238.28" text-anchor="middle" style="font-family: Helvetica; font-size: 12px; fill: rgb(0, 0, 0); fill-opacity: 1; white-space: pre;">K</text></g><g class="textpoint" transform="translate(0,16.25)"><text x="94.36" y="282.77" text-anchor="middle" style="font-family: Helvetica; font-size: 12px; fill: rgb(0, 0, 0); fill-opacity: 1; white-space: pre;">L</text></g><g class="textpoint" transform="translate(0,16.25)"><text x="268.98" y="178.64" text-anchor="middle" style="font-family: Helvetica; font-size: 12px; fill: rgb(0, 0, 0); fill-opacity: 1; white-space: pre;">M</text></g><g class="textpoint" transform="translate(0,16.25)"><text x="233.73" y="239.49" text-anchor="middle" style="font-family: Helvetica; font-size: 12px; fill: rgb(0, 0, 0); fill-opacity: 1; white-space: pre;">N</text></g><g class="textpoint" transform="translate(0,16.25)"><text x="26.05" y="296.46" text-anchor="middle" style="font-family: Helvetica; font-size: 12px; fill: rgb(0, 0, 0); fill-opacity: 1; white-space: pre;">P</text></g><g class="textpoint" transform="translate(0,16.25)"><text x="230.81" y="199.81" text-anchor="middle" style="font-family: Helvetica; font-size: 12px; fill: rgb(0, 0, 0); fill-opacity: 1; white-space: pre;">Q</text></g><g class="textpoint" transform="translate(0,16.25)"><text x="156.11" y="58.32" text-anchor="middle" style="font-family: Helvetica; font-size: 12px; fill: rgb(0, 0, 0); fill-opacity: 1; white-space: pre;">R</text></g><g class="textpoint" transform="translate(0,16.25)"><text x="233.08" y="229.57" text-anchor="middle" style="font-family: Helvetica; font-size: 12px; fill: rgb(0, 0, 0); fill-opacity: 1; white-space: pre;">S</text></g><g class="textpoint" transform="translate(0,16.25)"><text x="166.38" y="206.47" text-anchor="middle" style="font-family: Helvetica; font-size: 12px; fill: rgb(0, 0, 0); fill-opacity: 1; white-space: pre;">T</text></g><g class="textpoint" transform="translate(0,16.25)"><text x="260.5" y="203.32" text-anchor="middle" style="font-family: Helvetica; font-size: 12px; fill: rgb(0, 0, 0); fill-opacity: 1; white-space: pre;">V</text></g><g class="textpoint" transform="translate(0,16.25)"><text x="157.44" y="193.51" text-anchor="middle" style="font-family: Helvetica; font-size: 12px; fill: rgb(0, 0, 0); fill-opacity: 1; white-space: pre;">W</text></g><g class="textpoint" transform="translate(0,16.25)"><text x="164.41" y="180.87" text-anchor="middle" style="font-family: Helvetica; font-size: 12px; fill: rgb(0, 0, 0); fill-opacity: 1; white-space: pre;">Y</text></g></g></g><g class="trace scatter trace78fbf5" style="stroke-miterlimit: 2; opacity: 1;"><g class="fills"/><g class="errorbars"/><g class="lines"><path class="js-line" d="M26.05,266.41L268.98,156.51" style="vector-effect: none; fill: none; stroke: rgb(255, 0, 0); stroke-opacity: 1; stroke-width: 1px; opacity: 1;"/></g><g class="points"/><g class="text"/></g></g></g><g class="overplot"/><path class="xlines-above crisp" d="M53.5,377.25H382" style="fill: none; stroke-width: 0.5px; stroke: rgb(0, 0, 0); stroke-opacity: 1;"/><path class="ylines-above crisp" d="M53.75,20V377" style="fill: none; stroke-width: 0.5px; stroke: rgb(0, 0, 0); stroke-opacity: 1;"/><g class="overlines-above"/><g class="xaxislayer-above"><path class="xtick ticks crisp" d="M0,377.5v5" transform="translate(54,0)" style="stroke: rgb(68, 68, 68); stroke-opacity: 1; stroke-width: 1px;"/><path class="xtick ticks crisp" d="M0,377.5v5" transform="translate(136,0)" style="stroke: rgb(68, 68, 68); stroke-opacity: 1; stroke-width: 1px;"/><path class="xtick ticks crisp" d="M0,377.5v5" transform="translate(218,0)" style="stroke: rgb(68, 68, 68); stroke-opacity: 1; stroke-width: 1px;"/><path class="xtick ticks crisp" d="M0,377.5v5" transform="translate(300,0)" style="stroke: rgb(68, 68, 68); stroke-opacity: 1; stroke-width: 1px;"/><path class="xtick ticks crisp" d="M0,377.5v5" transform="translate(382,0)" style="stroke: rgb(68, 68, 68); stroke-opacity: 1; stroke-width: 1px;"/><g class="xtick"><text text-anchor="middle" x="0" y="396.9" transform="translate(54,0)" style="font-family: Helvetica; font-size: 12px; fill: rgb(0, 0, 0); fill-opacity: 1; white-space: pre; opacity: 1;">−0.004</text></g><g class="xtick"><text text-anchor="middle" x="0" y="396.9" style="font-family: Helvetica; font-size: 12px; fill: rgb(0, 0, 0); fill-opacity: 1; white-space: pre; opacity: 1;" transform="translate(136,0)">−0.002</text></g><g class="xtick"><text text-anchor="middle" x="0" y="396.9" style="font-family: Helvetica; font-size: 12px; fill: rgb(0, 0, 0); fill-opacity: 1; white-space: pre; opacity: 1;" transform="translate(218,0)">0</text></g><g class="xtick"><text text-anchor="middle" x="0" y="396.9" style="font-family: Helvetica; font-size: 12px; fill: rgb(0, 0, 0); fill-opacity: 1; white-space: pre; opacity: 1;" transform="translate(300,0)">0.002</text></g><g class="xtick"><text text-anchor="middle" x="0" y="396.9" style="font-family: Helvetica; font-size: 12px; fill: rgb(0, 0, 0); fill-opacity: 1; white-space: pre; opacity: 1;" transform="translate(382,0)">0.004</text></g></g><g class="yaxislayer-above"><path class="ytick ticks crisp" d="M53.5,0h-5" transform="translate(0,377)" style="stroke: rgb(68, 68, 68); stroke-opacity: 1; stroke-width: 1px;"/><path class="ytick ticks crisp" d="M53.5,0h-5" transform="translate(0,326)" style="stroke: rgb(68, 68, 68); stroke-opacity: 1; stroke-width: 1px;"/><path class="ytick ticks crisp" d="M53.5,0h-5" transform="translate(0,275)" style="stroke: rgb(68, 68, 68); stroke-opacity: 1; stroke-width: 1px;"/><path class="ytick ticks crisp" d="M53.5,0h-5" transform="translate(0,224)" style="stroke: rgb(68, 68, 68); stroke-opacity: 1; stroke-width: 1px;"/><path class="ytick ticks crisp" d="M53.5,0h-5" transform="translate(0,173)" style="stroke: rgb(68, 68, 68); stroke-opacity: 1; stroke-width: 1px;"/><path class="ytick ticks crisp" d="M53.5,0h-5" transform="translate(0,122)" style="stroke: rgb(68, 68, 68); stroke-opacity: 1; stroke-width: 1px;"/><path class="ytick ticks crisp" d="M53.5,0h-5" transform="translate(0,71)" style="stroke: rgb(68, 68, 68); stroke-opacity: 1; stroke-width: 1px;"/><path class="ytick ticks crisp" d="M53.5,0h-5" transform="translate(0,20)" style="stroke: rgb(68, 68, 68); stroke-opacity: 1; stroke-width: 1px;"/><g class="ytick"><text text-anchor="end" x="46.1" y="4.199999999999999" transform="translate(0,377)" style="font-family: Helvetica; font-size: 12px; fill: rgb(0, 0, 0); fill-opacity: 1; white-space: pre; opacity: 1;">−0.006</text></g><g class="ytick"><text text-anchor="end" x="46.1" y="4.199999999999999" style="font-family: Helvetica; font-size: 12px; fill: rgb(0, 0, 0); fill-opacity: 1; white-space: pre; opacity: 1;" transform="translate(0,326)">−0.004</text></g><g class="ytick"><text text-anchor="end" x="46.1" y="4.199999999999999" style="font-family: Helvetica; font-size: 12px; fill: rgb(0, 0, 0); fill-opacity: 1; white-space: pre; opacity: 1;" transform="translate(0,275)">−0.002</text></g><g class="ytick"><text text-anchor="end" x="46.1" y="4.199999999999999" style="font-family: Helvetica; font-size: 12px; fill: rgb(0, 0, 0); fill-opacity: 1; white-space: pre; opacity: 1;" transform="translate(0,224)">0</text></g><g class="ytick"><text text-anchor="end" x="46.1" y="4.199999999999999" style="font-family: Helvetica; font-size: 12px; fill: rgb(0, 0, 0); fill-opacity: 1; white-space: pre; opacity: 1;" transform="translate(0,173)">0.002</text></g><g class="ytick"><text text-anchor="end" x="46.1" y="4.199999999999999" style="font-family: Helvetica; font-size: 12px; fill: rgb(0, 0, 0); fill-opacity: 1; white-space: pre; opacity: 1;" transform="translate(0,122)">0.004</text></g><g class="ytick"><text text-anchor="end" x="46.1" y="4.199999999999999" style="font-family: Helvetica; font-size: 12px; fill: rgb(0, 0, 0); fill-opacity: 1; white-space: pre; opacity: 1;" transform="translate(0,71)">0.006</text></g><g class="ytick"><text text-anchor="end" x="46.1" y="4.199999999999999" style="font-family: Helvetica; font-size: 12px; fill: rgb(0, 0, 0); fill-opacity: 1; white-space: pre; opacity: 1;" transform="translate(0,20)">0.008</text></g></g><g class="overaxes-above"/></g></g><g class="polarlayer"/><g class="smithlayer"/><g class="ternarylayer"/><g class="geolayer"/><g class="funnelarealayer"/><g class="pielayer"/><g class="iciclelayer"/><g class="treemaplayer"/><g class="sunburstlayer"/><g class="glimages"/><defs id="topdefs-1006ee"><g class="clips"/></defs><g class="layer-above"><g class="imagelayer"/><g class="shapelayer"><g class="shape-group" data-index="0" clip-path="url(#clip1006eex)"><path data-index="0" fill-rule="evenodd" d="M218,377L218,20" style="opacity: 1; stroke: rgb(0, 0, 0); stroke-opacity: 1; fill: rgb(0, 0, 0); fill-opacity: 0; stroke-dasharray: 9px, 9px; stroke-width: 0.5px;"/></g><g class="shape-group" data-index="1" clip-path="url(#clip1006eey)"><path data-index="1" fill-rule="evenodd" d="M54,224L382,224" style="opacity: 1; stroke: rgb(0, 0, 0); stroke-opacity: 1; fill: rgb(0, 0, 0); fill-opacity: 0; stroke-dasharray: 9px, 9px; stroke-width: 0.5px;"/></g></g></g><g class="infolayer"><g class="g-gtitle"/><g class="g-xtitle"/><g class="g-ytitle"/></g></svg>