<svg class="main-svg" xmlns="http://www.w3.org/2000/svg" xmlns:xlink="http://www.w3.org/1999/xlink" width="500" height="300" style="" viewBox="0 0 500 300"><rect x="0" y="0" width="500" height="300" style="fill: rgb(255, 255, 255); fill-opacity: 1;"/><defs id="defs-7da2c3"><g class="clips"><clipPath id="clip7da2c3xyplot" class="plotclip"><rect width="454" height="232"/></clipPath><clipPath class="axesclip" id="clip7da2c3x"><rect x="46" y="0" width="454" height="300"/></clipPath><clipPath class="axesclip" id="clip7da2c3y"><rect x="0" y="20" width="500" height="232"/></clipPath><clipPath class="axesclip" id="clip7da2c3xy"><rect x="46" y="20" width="454" height="232"/></clipPath></g><g class="gradients"/><g class="patterns"/></defs><g class="bglayer"><rect class="bg" x="46" y="20" width="454" height="232" style="fill: rgb(0, 0, 0); fill-opacity: 0; stroke-width: 0;"/></g><g class="layer-below"><g class="imagelayer"/><g class="shapelayer"/></g><g class="cartesianlayer"><g class="subplot xy"><g class="layer-subplot"><g class="shapelayer"/><g class="imagelayer"/></g><g class="minor-gridlayer"><g class="x"/><g class="y"/></g><g class="gridlayer"><g class="x"/><g class="y"/></g><g class="zerolinelayer"/><g class="layer-between"><g class="shapelayer"/><g class="imagelayer"/></g><path class="xlines-below"/><path class="ylines-below"/><g class="overlines-below"/><g class="xaxislayer-below"/><g class="yaxislayer-below"/><g class="overaxes-below"/><g class="plot" transform="translate(46,20)" clip-path="url(#clip7da2c3xyplot)"><g class="boxlayer mlayer"><g class="trace boxes" style="opacity: 0.8;"><path class="box" d="M30.65,207.06H67.72M30.65,214.04H67.72V188.56H30.65ZM49.18,214.04V226.92M49.18,188.56V110.33M39.91,226.92H58.45M39.91,110.33H58.45" style="vector-effect: none; stroke-width: 0.5px; stroke: rgb(0, 0, 0); stroke-opacity: 1; fill: rgb(155, 191, 229); fill-opacity: 1;"/><path class="box" d="M181.98,209.66H219.06M181.98,215.7H219.06V198.26H181.98ZM200.52,215.7V221.85M200.52,198.26V154.55M191.25,221.85H209.79M191.25,154.55H209.79" style="vector-effect: none; stroke-width: 0.5px; stroke: rgb(0, 0, 0); stroke-opacity: 1; fill: rgb(155, 191, 229); fill-opacity: 1;"/><path class="box" d="M333.31,195.26H370.39M333.31,204.2H370.39V186.6H333.31ZM351.85,204.2V217.99M351.85,186.6V159.84M342.58,217.99H361.12M342.58,159.84H361.12" style="vector-effect: none; stroke-width: 0.5px; stroke: rgb(0, 0, 0); stroke-opacity: 1; fill: rgb(155, 191, 229); fill-opacity: 1;"/></g><g class="trace boxes" style="opacity: 0.8;"><path class="box" d="M83.61,196.19H120.69M83.61,208.2H120.69V174.29H83.61ZM102.15,208.2V221.63M102.15,174.29V99.04M92.88,221.63H111.42M92.88,99.04H111.42" style="vector-effect: none; stroke-width: 0.5px; stroke: rgb(0, 0, 0); stroke-opacity: 1; fill: rgb(186, 105, 190); fill-opacity: 1;"/><path class="box" d="M234.95,194.67H272.02M234.95,208.18H272.02V128.94H234.95ZM253.48,208.18V221.36M253.48,128.94V45.81M244.21,221.36H262.75M244.21,45.81H262.75" style="vector-effect: none; stroke-width: 0.5px; stroke: rgb(0, 0, 0); stroke-opacity: 1; fill: rgb(186, 105, 190); fill-opacity: 1;"/><path class="box" d="M386.28,195.47H423.36M386.28,207.93H423.36V188.18H386.28ZM404.82,207.93V221.64M404.82,188.18V161.88M395.55,221.64H414.09M395.55,161.88H414.09" style="vector-effect: none; stroke-width: 0.5px; stroke: rgb(0, 0, 0); stroke-opacity: 1; fill: rgb(186, 105, 190); fill-opacity: 1;"/></g></g></g><g class="overplot"/><path class="xlines-above crisp" d="M45.5,252.25H500" style="fill: none; stroke-width: 0.5px; stroke: rgb(0, 0, 0); stroke-opacity: 1;"/><path class="ylines-above crisp" d="M45.75,20V252" style="fill: none; stroke-width: 0.5px; stroke: rgb(0, 0, 0); stroke-opacity: 1;"/><g class="overlines-above"/><g class="xaxislayer-above"><path class="xtick ticks crisp" d="M0,252.5v5" transform="translate(121.67,0)" style="stroke: rgb(68, 68, 68); stroke-opacity: 1; stroke-width: 1px;"/><path class="xtick ticks crisp" d="M0,252.5v5" transform="translate(273,0)" style="stroke: rgb(68, 68, 68); stroke-opacity: 1; stroke-width: 1px;"/><path class="xtick ticks crisp" d="M0,252.5v5" transform="translate(424.33,0)" style="stroke: rgb(68, 68, 68); stroke-opacity: 1; stroke-width: 1px;"/><g class="xtick"><text text-anchor="middle" x="0" y="271.9" transform="translate(121.67,0)" style="font-family: Helvetica; font-size: 12px; fill: rgb(0, 0, 0); fill-opacity: 1; white-space: pre; opacity: 1;">B</text></g><g class="xtick"><text text-anchor="middle" x="0" y="271.9" transform="translate(273,0)" style="font-family: Helvetica; font-size: 12px; fill: rgb(0, 0, 0); fill-opacity: 1; white-space: pre; opacity: 1;">A</text></g><g class="xtick"><text text-anchor="middle" x="0" y="271.9" transform="translate(424.33,0)" style="font-family: Helvetica; font-size: 12px; fill: rgb(0, 0, 0); fill-opacity: 1; white-space: pre; opacity: 1;">C</text></g></g><g class="yaxislayer-above"><path class="ytick ticks crisp" d="M45.5,0h-5" transform="translate(0,252)" style="stroke: rgb(68, 68, 68); stroke-opacity: 1; stroke-width: 1px;"/><path class="ytick ticks crisp" d="M45.5,0h-5" transform="translate(0,205.6)" style="stroke: rgb(68, 68, 68); stroke-opacity: 1; stroke-width: 1px;"/><path class="ytick ticks crisp" d="M45.5,0h-5" transform="translate(0,159.2)" style="stroke: rgb(68, 68, 68); stroke-opacity: 1; stroke-width: 1px;"/><path class="ytick ticks crisp" d="M45.5,0h-5" transform="translate(0,112.8)" style="stroke: rgb(68, 68, 68); stroke-opacity: 1; stroke-width: 1px;"/><path class="ytick ticks crisp" d="M45.5,0h-5" transform="translate(0,66.4)" style="stroke: rgb(68, 68, 68); stroke-opacity: 1; stroke-width: 1px;"/><path class="ytick ticks crisp" d="M45.5,0h-5" transform="translate(0,20)" style="stroke: rgb(68, 68, 68); stroke-opacity: 1; stroke-width: 1px;"/><g class="ytick"><text text-anchor="end" x="38.1" y="4.199999999999999" transform="translate(0,252)" style="font-family: Helvetica; font-size: 12px; fill: rgb(0, 0, 0); fill-opacity: 1; white-space: pre; opacity: 1;">0</text></g><g class="ytick"><text text-anchor="end" x="38.1" y="4.199999999999999" style="font-family: Helvetica; font-size: 12px; fill: rgb(0, 0, 0); fill-opacity: 1; white-space: pre; opacity: 1;" transform="translate(0,205.6)">4</text></g><g class="ytick"><text text-anchor="end" x="38.1" y="4.199999999999999" style="font-family: Helvetica; font-size: 12px; fill: rgb(0, 0, 0); fill-opacity: 1; white-space: pre; opacity: 1;" transform="translate(0,159.2)">8</text></g><g class="ytick"><text text-anchor="end" x="38.1" y="4.199999999999999" style="font-family: Helvetica; font-size: 12px; fill: rgb(0, 0, 0); fill-opacity: 1; white-space: pre; opacity: 1;" transform="translate(0,112.8)">12</text></g><g class="ytick"><text text-anchor="end" x="38.1" y="4.199999999999999" style="font-family: Helvetica; font-size: 12px; fill: rgb(0, 0, 0); fill-opacity: 1; white-space: pre; opacity: 1;" transform="translate(0,66.4)">16</text></g><g class="ytick"><text text-anchor="end" x="38.1" y="4.199999999999999" style="font-family: Helvetica; font-size: 12px; fill: rgb(0, 0, 0); fill-opacity: 1; white-space: pre; opacity: 1;" transform="translate(0,20)">20</text></g></g><g class="overaxes-above"/></g></g><g class="polarlayer"/><g class="smithlayer"/><g class="ternarylayer"/><g class="geolayer"/><g class="funnelarealayer"/><g class="pielayer"/><g class="iciclelayer"/><g class="treemaplayer"/><g class="sunburstlayer"/><g class="glimages"/><defs id="topdefs-7da2c3"><g class="clips"/></defs><g class="layer-above"><g class="imagelayer"/><g class="shapelayer"/></g><g class="infolayer"><g class="g-gtitle"/><g class="g-xtitle" transform="translate(0,-2.4562500000000114)"><text class="xtitle" x="273" y="299.45625" text-anchor="middle" style="font-family: Helvetica; font-size: 14px; fill: rgb(0, 0, 0); opacity: 1; font-weight: normal; white-space: pre;">cluster</text></g><g class="g-ytitle" transform="translate(12.7998046875,0)"><text class="ytitle" transform="rotate(-90,0.20000000000000284,136)" x="0.20000000000000284" y="136" text-anchor="middle" style="font-family: Helvetica; font-size: 14px; fill: rgb(0, 0, 0); opacity: 1; font-weight: normal; white-space: pre;">frequency %</text></g></g></svg>