<svg class="main-svg" xmlns="http://www.w3.org/2000/svg" xmlns:xlink="http://www.w3.org/1999/xlink" width="420" height="400" style="" viewBox="0 0 420 400"><rect x="0" y="0" width="420" height="400" style="fill: rgb(255, 255, 255); fill-opacity: 1;"/><defs id="defs-e4bfde"><g class="clips"><clipPath id="clipe4bfdexyplot" class="plotclip"><rect width="295" height="357"/></clipPath><clipPath class="axesclip" id="clipe4bfdex"><rect x="21" y="0" width="295" height="400"/></clipPath><clipPath class="axesclip" id="clipe4bfdey"><rect x="0" y="20" width="420" height="357"/></clipPath><clipPath class="axesclip" id="clipe4bfdexy"><rect x="21" y="20" width="295" height="357"/></clipPath></g><g class="gradients"><linearGradient x1="0" y1="1" x2="0" y2="0" gradientUnits="objectBoundingBox" id="ge4bfde-cbdf66da"><stop offset="0%" stop-color="rgb(253, 253, 204)" stop-opacity="1"/><stop offset="9.090909%" stop-color="rgb(206, 236, 179)" stop-opacity="1"/><stop offset="18.181818%" stop-color="rgb(156, 219, 165)" stop-opacity="1"/><stop offset="27.272727%" stop-color="rgb(111, 201, 163)" stop-opacity="1"/><stop offset="36.363636%" stop-color="rgb(86, 177, 163)" stop-opacity="1"/><stop offset="45.454545%" stop-color="rgb(76, 153, 160)" stop-opacity="1"/><stop offset="54.545455%" stop-color="rgb(68, 130, 155)" stop-opacity="1"/><stop offset="63.636364%" stop-color="rgb(62, 108, 150)" stop-opacity="1"/><stop offset="72.727273%" stop-color="rgb(62, 82, 143)" stop-opacity="1"/><stop offset="81.818182%" stop-color="rgb(64, 60, 115)" stop-opacity="1"/><stop offset="90.909091%" stop-color="rgb(54, 43, 77)" stop-opacity="1"/><stop offset="100%" stop-color="rgb(39, 26, 44)" stop-opacity="1"/></linearGradient></g><g class="patterns"/></defs><g class="bglayer"><rect class="bg" x="21" y="20" width="295" height="357" style="fill: rgb(0, 0, 0); fill-opacity: 0; stroke-width: 0;"/></g><g class="layer-below"><g class="imagelayer"/><g class="shapelayer"/></g><g class="cartesianlayer"><g class="subplot xy"><g class="layer-subplot"><g class="shapelayer"/><g class="imagelayer"/></g><g class="minor-gridlayer"><g class="x"/><g class="y"/></g><g class="gridlayer"><g class="x"/><g class="y"/></g><g class="zerolinelayer"/><g class="layer-between"><g class="shapelayer"/><g class="imagelayer"/></g><path class="xlines-below"/><path class="ylines-below"/><g class="overlines-below"/><g class="xaxislayer-below"/><g class="yaxislayer-below"/><g class="overaxes-below"/><g class="plot" transform="translate(21,20)" clip-path="url(#clipe4bfdexyplot)"><g class="scatterlayer mlayer"><g class="trace scatter tracedf66da" style="stroke-miterlimit: 2; opacity: 1;"><g class="fills"/><g class="errorbars"/><g class="lines"/><g class="points"><path class="point plotly-customdata" transform="translate(152.17,301.71)" d="M4.5,0A4.5,4.5 0 1,1 0,-4.5A4.5,4.5 0 0,1 4.5,0Z" style="opacity: 0.85; stroke-width: 0.3px; fill: rgb(253, 253, 204); fill-opacity: 1; stroke: rgb(0, 0, 0); stroke-opacity: 1;"/><path class="point plotly-customdata" transform="translate(160.24,203.14)" d="M4.5,0A4.5,4.5 0 1,1 0,-4.5A4.5,4.5 0 0,1 4.5,0Z" style="opacity: 0.85; stroke-width: 0.3px; fill: rgb(253, 253, 204); fill-opacity: 1; stroke: rgb(0, 0, 0); stroke-opacity: 1;"/><path class="point plotly-customdata" transform="translate(157.2,144.72)" d="M4.5,0A4.5,4.5 0 1,1 0,-4.5A4.5,4.5 0 0,1 4.5,0Z" style="opacity: 0.85; stroke-width: 0.3px; fill: rgb(253, 253, 204); fill-opacity: 1; stroke: rgb(0, 0, 0); stroke-opacity: 1;"/><path class="point plotly-customdata" transform="translate(153.74,237.25)" d="M4.5,0A4.5,4.5 0 1,1 0,-4.5A4.5,4.5 0 0,1 4.5,0Z" style="opacity: 0.85; stroke-width: 0.3px; fill: rgb(253, 253, 204); fill-opacity: 1; stroke: rgb(0, 0, 0); stroke-opacity: 1;"/><path class="point plotly-customdata" transform="translate(164.38,196.85)" d="M4.5,0A4.5,4.5 0 1,1 0,-4.5A4.5,4.5 0 0,1 4.5,0Z" style="opacity: 0.85; stroke-width: 0.3px; fill: rgb(253, 253, 204); fill-opacity: 1; stroke: rgb(0, 0, 0); stroke-opacity: 1;"/><path class="point plotly-customdata" transform="translate(164.49,227.63)" d="M4.5,0A4.5,4.5 0 1,1 0,-4.5A4.5,4.5 0 0,1 4.5,0Z" style="opacity: 0.85; stroke-width: 0.3px; fill: rgb(253, 253, 204); fill-opacity: 1; stroke: rgb(0, 0, 0); stroke-opacity: 1;"/><path class="point plotly-customdata" transform="translate(254.79,21.1)" d="M4.5,0A4.5,4.5 0 1,1 0,-4.5A4.5,4.5 0 0,1 4.5,0Z" style="opacity: 0.85; stroke-width: 0.3px; fill: rgb(253, 253, 204); fill-opacity: 1; stroke: rgb(0, 0, 0); stroke-opacity: 1;"/><path class="point plotly-customdata" transform="translate(148.94,241.27)" d="M4.5,0A4.5,4.5 0 1,1 0,-4.5A4.5,4.5 0 0,1 4.5,0Z" style="opacity: 0.85; stroke-width: 0.3px; fill: rgb(253, 253, 204); fill-opacity: 1; stroke: rgb(0, 0, 0); stroke-opacity: 1;"/><path class="point plotly-customdata" transform="translate(169.86,138.97)" d="M4.5,0A4.5,4.5 0 1,1 0,-4.5A4.5,4.5 0 0,1 4.5,0Z" style="opacity: 0.85; stroke-width: 0.3px; fill: rgb(253, 253, 204); fill-opacity: 1; stroke: rgb(0, 0, 0); stroke-opacity: 1;"/><path class="point plotly-customdata" transform="translate(246.06,10.68)" d="M4.5,0A4.5,4.5 0 1,1 0,-4.5A4.5,4.5 0 0,1 4.5,0Z" style="opacity: 0.85; stroke-width: 0.3px; fill: rgb(253, 253, 204); fill-opacity: 1; stroke: rgb(0, 0, 0); stroke-opacity: 1;"/><path class="point plotly-customdata" transform="translate(227.17,227.52)" d="M4.5,0A4.5,4.5 0 1,1 0,-4.5A4.5,4.5 0 0,1 4.5,0Z" style="opacity: 0.85; stroke-width: 0.3px; fill: rgb(253, 253, 204); fill-opacity: 1; stroke: rgb(0, 0, 0); stroke-opacity: 1;"/><path class="point plotly-customdata" transform="translate(142.38,307.01)" d="M4.5,0A4.5,4.5 0 1,1 0,-4.5A4.5,4.5 0 0,1 4.5,0Z" style="opacity: 0.85; stroke-width: 0.3px; fill: rgb(253, 253, 204); fill-opacity: 1; stroke: rgb(0, 0, 0); stroke-opacity: 1;"/><path class="point plotly-customdata" transform="translate(150.71,251.61)" d="M4.5,0A4.5,4.5 0 1,1 0,-4.5A4.5,4.5 0 0,1 4.5,0Z" style="opacity: 0.85; stroke-width: 0.3px; fill: rgb(253, 253, 204); fill-opacity: 1; stroke: rgb(0, 0, 0); stroke-opacity: 1;"/><path class="point plotly-customdata" transform="translate(232.02,199.05)" d="M4.5,0A4.5,4.5 0 1,1 0,-4.5A4.5,4.5 0 0,1 4.5,0Z" style="opacity: 0.85; stroke-width: 0.3px; fill: rgb(253, 253, 204); fill-opacity: 1; stroke: rgb(0, 0, 0); stroke-opacity: 1;"/><path class="point plotly-customdata" transform="translate(224.43,227.38)" d="M4.5,0A4.5,4.5 0 1,1 0,-4.5A4.5,4.5 0 0,1 4.5,0Z" style="opacity: 0.85; stroke-width: 0.3px; fill: rgb(253, 253, 204); fill-opacity: 1; stroke: rgb(0, 0, 0); stroke-opacity: 1;"/><path class="point plotly-customdata" transform="translate(155.85,207.6)" d="M4.5,0A4.5,4.5 0 1,1 0,-4.5A4.5,4.5 0 0,1 4.5,0Z" style="opacity: 0.85; stroke-width: 0.3px; fill: rgb(253, 253, 204); fill-opacity: 1; stroke: rgb(0, 0, 0); stroke-opacity: 1;"/><path class="point plotly-customdata" transform="translate(159.73,142.55)" d="M4.5,0A4.5,4.5 0 1,1 0,-4.5A4.5,4.5 0 0,1 4.5,0Z" style="opacity: 0.85; stroke-width: 0.3px; fill: rgb(253, 253, 204); fill-opacity: 1; stroke: rgb(0, 0, 0); stroke-opacity: 1;"/><path class="point plotly-customdata" transform="translate(157.8,119.46)" d="M4.5,0A4.5,4.5 0 1,1 0,-4.5A4.5,4.5 0 0,1 4.5,0Z" style="opacity: 0.85; stroke-width: 0.3px; fill: rgb(253, 253, 204); fill-opacity: 1; stroke: rgb(0, 0, 0); stroke-opacity: 1;"/><path class="point plotly-customdata" transform="translate(166.96,239.02)" d="M4.5,0A4.5,4.5 0 1,1 0,-4.5A4.5,4.5 0 0,1 4.5,0Z" style="opacity: 0.85; stroke-width: 0.3px; fill: rgb(253, 253, 204); fill-opacity: 1; stroke: rgb(0, 0, 0); stroke-opacity: 1;"/><path class="point plotly-customdata" transform="translate(257.85,13.42)" d="M4.5,0A4.5,4.5 0 1,1 0,-4.5A4.5,4.5 0 0,1 4.5,0Z" style="opacity: 0.85; stroke-width: 0.3px; fill: rgb(253, 253, 204); fill-opacity: 1; stroke: rgb(0, 0, 0); stroke-opacity: 1;"/><path class="point plotly-customdata" transform="translate(152.83,134.36)" d="M4.5,0A4.5,4.5 0 1,1 0,-4.5A4.5,4.5 0 0,1 4.5,0Z" style="opacity: 0.85; stroke-width: 0.3px; fill: rgb(253, 253, 204); fill-opacity: 1; stroke: rgb(0, 0, 0); stroke-opacity: 1;"/><path class="point plotly-customdata" transform="translate(170.21,237.66)" d="M4.5,0A4.5,4.5 0 1,1 0,-4.5A4.5,4.5 0 0,1 4.5,0Z" style="opacity: 0.85; stroke-width: 0.3px; fill: rgb(253, 253, 204); fill-opacity: 1; stroke: rgb(0, 0, 0); stroke-opacity: 1;"/><path class="point plotly-customdata" transform="translate(188.31,221.03)" d="M4.5,0A4.5,4.5 0 1,1 0,-4.5A4.5,4.5 0 0,1 4.5,0Z" style="opacity: 0.85; stroke-width: 0.3px; fill: rgb(253, 253, 204); fill-opacity: 1; stroke: rgb(0, 0, 0); stroke-opacity: 1;"/><path class="point plotly-customdata" transform="translate(127.56,203.77)" d="M4.5,0A4.5,4.5 0 1,1 0,-4.5A4.5,4.5 0 0,1 4.5,0Z" style="opacity: 0.85; stroke-width: 0.3px; fill: rgb(253, 253, 204); fill-opacity: 1; stroke: rgb(0, 0, 0); stroke-opacity: 1;"/><path class="point plotly-customdata" transform="translate(223.53,223.02)" d="M4.5,0A4.5,4.5 0 1,1 0,-4.5A4.5,4.5 0 0,1 4.5,0Z" style="opacity: 0.85; stroke-width: 0.3px; fill: rgb(253, 253, 204); fill-opacity: 1; stroke: rgb(0, 0, 0); stroke-opacity: 1;"/><path class="point plotly-customdata" transform="translate(186.62,143.6)" d="M4.5,0A4.5,4.5 0 1,1 0,-4.5A4.5,4.5 0 0,1 4.5,0Z" style="opacity: 0.85; stroke-width: 0.3px; fill: rgb(253, 253, 204); fill-opacity: 1; stroke: rgb(0, 0, 0); stroke-opacity: 1;"/><path class="point plotly-customdata" transform="translate(221.48,164.7)" d="M4.5,0A4.5,4.5 0 1,1 0,-4.5A4.5,4.5 0 0,1 4.5,0Z" style="opacity: 0.85; stroke-width: 0.3px; fill: rgb(253, 253, 204); fill-opacity: 1; stroke: rgb(0, 0, 0); stroke-opacity: 1;"/><path class="point plotly-customdata" transform="translate(245.77,25.73)" d="M4.5,0A4.5,4.5 0 1,1 0,-4.5A4.5,4.5 0 0,1 4.5,0Z" style="opacity: 0.85; stroke-width: 0.3px; fill: rgb(253, 253, 204); fill-opacity: 1; stroke: rgb(0, 0, 0); stroke-opacity: 1;"/><path class="point plotly-customdata" transform="translate(156.43,122.48)" d="M4.5,0A4.5,4.5 0 1,1 0,-4.5A4.5,4.5 0 0,1 4.5,0Z" style="opacity: 0.85; stroke-width: 0.3px; fill: rgb(253, 253, 204); fill-opacity: 1; stroke: rgb(0, 0, 0); stroke-opacity: 1;"/><path class="point plotly-customdata" transform="translate(68,219.33)" d="M4.5,0A4.5,4.5 0 1,1 0,-4.5A4.5,4.5 0 0,1 4.5,0Z" style="opacity: 0.85; stroke-width: 0.3px; fill: rgb(253, 253, 204); fill-opacity: 1; stroke: rgb(0, 0, 0); stroke-opacity: 1;"/><path class="point plotly-customdata" transform="translate(214.12,157.1)" d="M4.5,0A4.5,4.5 0 1,1 0,-4.5A4.5,4.5 0 0,1 4.5,0Z" style="opacity: 0.85; stroke-width: 0.3px; fill: rgb(253, 253, 204); fill-opacity: 1; stroke: rgb(0, 0, 0); stroke-opacity: 1;"/><path class="point plotly-customdata" transform="translate(83.02,216.15)" d="M4.5,0A4.5,4.5 0 1,1 0,-4.5A4.5,4.5 0 0,1 4.5,0Z" style="opacity: 0.85; stroke-width: 0.3px; fill: rgb(253, 253, 204); fill-opacity: 1; stroke: rgb(0, 0, 0); stroke-opacity: 1;"/><path class="point plotly-customdata" transform="translate(151.74,322.13)" d="M4.5,0A4.5,4.5 0 1,1 0,-4.5A4.5,4.5 0 0,1 4.5,0Z" style="opacity: 0.85; stroke-width: 0.3px; fill: rgb(253, 253, 204); fill-opacity: 1; stroke: rgb(0, 0, 0); stroke-opacity: 1;"/><path class="point plotly-customdata" transform="translate(162.21,148.5)" d="M4.5,0A4.5,4.5 0 1,1 0,-4.5A4.5,4.5 0 0,1 4.5,0Z" style="opacity: 0.85; stroke-width: 0.3px; fill: rgb(253, 253, 204); fill-opacity: 1; stroke: rgb(0, 0, 0); stroke-opacity: 1;"/><path class="point plotly-customdata" transform="translate(98.16,209.55)" d="M4.5,0A4.5,4.5 0 1,1 0,-4.5A4.5,4.5 0 0,1 4.5,0Z" style="opacity: 0.85; stroke-width: 0.3px; fill: rgb(253, 253, 204); fill-opacity: 1; stroke: rgb(0, 0, 0); stroke-opacity: 1;"/><path class="point plotly-customdata" transform="translate(160.61,239.3)" d="M4.5,0A4.5,4.5 0 1,1 0,-4.5A4.5,4.5 0 0,1 4.5,0Z" style="opacity: 0.85; stroke-width: 0.3px; fill: rgb(253, 253, 204); fill-opacity: 1; stroke: rgb(0, 0, 0); stroke-opacity: 1;"/><path class="point plotly-customdata" transform="translate(158.82,312.78)" d="M4.5,0A4.5,4.5 0 1,1 0,-4.5A4.5,4.5 0 0,1 4.5,0Z" style="opacity: 0.85; stroke-width: 0.3px; fill: rgb(253, 253, 204); fill-opacity: 1; stroke: rgb(0, 0, 0); stroke-opacity: 1;"/><path class="point plotly-customdata" transform="translate(69.5,216.18)" d="M4.5,0A4.5,4.5 0 1,1 0,-4.5A4.5,4.5 0 0,1 4.5,0Z" style="opacity: 0.85; stroke-width: 0.3px; fill: rgb(253, 253, 204); fill-opacity: 1; stroke: rgb(0, 0, 0); stroke-opacity: 1;"/><path class="point plotly-customdata" transform="translate(147.02,219.8)" d="M4.5,0A4.5,4.5 0 1,1 0,-4.5A4.5,4.5 0 0,1 4.5,0Z" style="opacity: 0.85; stroke-width: 0.3px; fill: rgb(253, 253, 204); fill-opacity: 1; stroke: rgb(0, 0, 0); stroke-opacity: 1;"/><path class="point plotly-customdata" transform="translate(177.31,132.35)" d="M4.5,0A4.5,4.5 0 1,1 0,-4.5A4.5,4.5 0 0,1 4.5,0Z" style="opacity: 0.85; stroke-width: 0.3px; fill: rgb(253, 253, 204); fill-opacity: 1; stroke: rgb(0, 0, 0); stroke-opacity: 1;"/><path class="point plotly-customdata" transform="translate(118.02,212.17)" d="M4.5,0A4.5,4.5 0 1,1 0,-4.5A4.5,4.5 0 0,1 4.5,0Z" style="opacity: 0.85; stroke-width: 0.3px; fill: rgb(253, 253, 204); fill-opacity: 1; stroke: rgb(0, 0, 0); stroke-opacity: 1;"/><path class="point plotly-customdata" transform="translate(105.66,210.33)" d="M4.5,0A4.5,4.5 0 1,1 0,-4.5A4.5,4.5 0 0,1 4.5,0Z" style="opacity: 0.85; stroke-width: 0.3px; fill: rgb(253, 253, 204); fill-opacity: 1; stroke: rgb(0, 0, 0); stroke-opacity: 1;"/><path class="point plotly-customdata" transform="translate(155.93,325.32)" d="M4.5,0A4.5,4.5 0 1,1 0,-4.5A4.5,4.5 0 0,1 4.5,0Z" style="opacity: 0.85; stroke-width: 0.3px; fill: rgb(253, 253, 204); fill-opacity: 1; stroke: rgb(0, 0, 0); stroke-opacity: 1;"/><path class="point plotly-customdata" transform="translate(199.27,165.33)" d="M4.5,0A4.5,4.5 0 1,1 0,-4.5A4.5,4.5 0 0,1 4.5,0Z" style="opacity: 0.85; stroke-width: 0.3px; fill: rgb(246, 251, 200); fill-opacity: 1; stroke: rgb(0, 0, 0); stroke-opacity: 1;"/><path class="point plotly-customdata" transform="translate(165.53,203.38)" d="M4.5,0A4.5,4.5 0 1,1 0,-4.5A4.5,4.5 0 0,1 4.5,0Z" style="opacity: 0.85; stroke-width: 0.3px; fill: rgb(242, 249, 198); fill-opacity: 1; stroke: rgb(0, 0, 0); stroke-opacity: 1;"/><path class="point plotly-customdata" transform="translate(152.4,305.32)" d="M4.5,0A4.5,4.5 0 1,1 0,-4.5A4.5,4.5 0 0,1 4.5,0Z" style="opacity: 0.85; stroke-width: 0.3px; fill: rgb(240, 248, 197); fill-opacity: 1; stroke: rgb(0, 0, 0); stroke-opacity: 1;"/><path class="point plotly-customdata" transform="translate(155.75,318.3)" d="M4.5,0A4.5,4.5 0 1,1 0,-4.5A4.5,4.5 0 0,1 4.5,0Z" style="opacity: 0.85; stroke-width: 0.3px; fill: rgb(233, 246, 193); fill-opacity: 1; stroke: rgb(0, 0, 0); stroke-opacity: 1;"/><path class="point plotly-customdata" transform="translate(140.72,248.38)" d="M4.5,0A4.5,4.5 0 1,1 0,-4.5A4.5,4.5 0 0,1 4.5,0Z" style="opacity: 0.85; stroke-width: 0.3px; fill: rgb(225, 243, 189); fill-opacity: 1; stroke: rgb(0, 0, 0); stroke-opacity: 1;"/><path class="point plotly-customdata" transform="translate(203.07,206.66)" d="M4.5,0A4.5,4.5 0 1,1 0,-4.5A4.5,4.5 0 0,1 4.5,0Z" style="opacity: 0.85; stroke-width: 0.3px; fill: rgb(222, 242, 188); fill-opacity: 1; stroke: rgb(0, 0, 0); stroke-opacity: 1;"/><path class="point plotly-customdata" transform="translate(232.41,230.66)" d="M4.5,0A4.5,4.5 0 1,1 0,-4.5A4.5,4.5 0 0,1 4.5,0Z" style="opacity: 0.85; stroke-width: 0.3px; fill: rgb(222, 242, 188); fill-opacity: 1; stroke: rgb(0, 0, 0); stroke-opacity: 1;"/><path class="point plotly-customdata" transform="translate(73.93,203.85)" d="M4.5,0A4.5,4.5 0 1,1 0,-4.5A4.5,4.5 0 0,1 4.5,0Z" style="opacity: 0.85; stroke-width: 0.3px; fill: rgb(222, 242, 188); fill-opacity: 1; stroke: rgb(0, 0, 0); stroke-opacity: 1;"/><path class="point plotly-customdata" transform="translate(234.12,197.13)" d="M4.5,0A4.5,4.5 0 1,1 0,-4.5A4.5,4.5 0 0,1 4.5,0Z" style="opacity: 0.85; stroke-width: 0.3px; fill: rgb(218, 240, 185); fill-opacity: 1; stroke: rgb(0, 0, 0); stroke-opacity: 1;"/><path class="point plotly-customdata" transform="translate(170.58,175.69)" d="M4.5,0A4.5,4.5 0 1,1 0,-4.5A4.5,4.5 0 0,1 4.5,0Z" style="opacity: 0.85; stroke-width: 0.3px; fill: rgb(217, 240, 185); fill-opacity: 1; stroke: rgb(0, 0, 0); stroke-opacity: 1;"/><path class="point plotly-customdata" transform="translate(145.15,248.67)" d="M4.5,0A4.5,4.5 0 1,1 0,-4.5A4.5,4.5 0 0,1 4.5,0Z" style="opacity: 0.85; stroke-width: 0.3px; fill: rgb(216, 240, 185); fill-opacity: 1; stroke: rgb(0, 0, 0); stroke-opacity: 1;"/><path class="point plotly-customdata" transform="translate(66.46,218.29)" d="M4.5,0A4.5,4.5 0 1,1 0,-4.5A4.5,4.5 0 0,1 4.5,0Z" style="opacity: 0.85; stroke-width: 0.3px; fill: rgb(211, 238, 182); fill-opacity: 1; stroke: rgb(0, 0, 0); stroke-opacity: 1;"/><path class="point plotly-customdata" transform="translate(152.94,126.4)" d="M4.5,0A4.5,4.5 0 1,1 0,-4.5A4.5,4.5 0 0,1 4.5,0Z" style="opacity: 0.85; stroke-width: 0.3px; fill: rgb(210, 238, 181); fill-opacity: 1; stroke: rgb(0, 0, 0); stroke-opacity: 1;"/><path class="point plotly-customdata" transform="translate(249.51,20.19)" d="M4.5,0A4.5,4.5 0 1,1 0,-4.5A4.5,4.5 0 0,1 4.5,0Z" style="opacity: 0.85; stroke-width: 0.3px; fill: rgb(207, 236, 180); fill-opacity: 1; stroke: rgb(0, 0, 0); stroke-opacity: 1;"/><path class="point plotly-customdata" transform="translate(161.12,117.41)" d="M4.5,0A4.5,4.5 0 1,1 0,-4.5A4.5,4.5 0 0,1 4.5,0Z" style="opacity: 0.85; stroke-width: 0.3px; fill: rgb(207, 236, 180); fill-opacity: 1; stroke: rgb(0, 0, 0); stroke-opacity: 1;"/><path class="point plotly-customdata" transform="translate(206.47,192.44)" d="M4.5,0A4.5,4.5 0 1,1 0,-4.5A4.5,4.5 0 0,1 4.5,0Z" style="opacity: 0.85; stroke-width: 0.3px; fill: rgb(205, 236, 179); fill-opacity: 1; stroke: rgb(0, 0, 0); stroke-opacity: 1;"/><path class="point plotly-customdata" transform="translate(186.57,166.77)" d="M4.5,0A4.5,4.5 0 1,1 0,-4.5A4.5,4.5 0 0,1 4.5,0Z" style="opacity: 0.85; stroke-width: 0.3px; fill: rgb(197, 233, 176); fill-opacity: 1; stroke: rgb(0, 0, 0); stroke-opacity: 1;"/><path class="point plotly-customdata" transform="translate(241.38,11.37)" d="M4.5,0A4.5,4.5 0 1,1 0,-4.5A4.5,4.5 0 0,1 4.5,0Z" style="opacity: 0.85; stroke-width: 0.3px; fill: rgb(196, 233, 176); fill-opacity: 1; stroke: rgb(0, 0, 0); stroke-opacity: 1;"/><path class="point plotly-customdata" transform="translate(194.52,167.06)" d="M4.5,0A4.5,4.5 0 1,1 0,-4.5A4.5,4.5 0 0,1 4.5,0Z" style="opacity: 0.85; stroke-width: 0.3px; fill: rgb(195, 232, 176); fill-opacity: 1; stroke: rgb(0, 0, 0); stroke-opacity: 1;"/><path class="point plotly-customdata" transform="translate(151.8,321.92)" d="M4.5,0A4.5,4.5 0 1,1 0,-4.5A4.5,4.5 0 0,1 4.5,0Z" style="opacity: 0.85; stroke-width: 0.3px; fill: rgb(192, 231, 175); fill-opacity: 1; stroke: rgb(0, 0, 0); stroke-opacity: 1;"/><path class="point plotly-customdata" transform="translate(247.66,19.24)" d="M4.5,0A4.5,4.5 0 1,1 0,-4.5A4.5,4.5 0 0,1 4.5,0Z" style="opacity: 0.85; stroke-width: 0.3px; fill: rgb(189, 230, 174); fill-opacity: 1; stroke: rgb(0, 0, 0); stroke-opacity: 1;"/><path class="point plotly-customdata" transform="translate(76.24,212.9)" d="M4.5,0A4.5,4.5 0 1,1 0,-4.5A4.5,4.5 0 0,1 4.5,0Z" style="opacity: 0.85; stroke-width: 0.3px; fill: rgb(182, 228, 172); fill-opacity: 1; stroke: rgb(0, 0, 0); stroke-opacity: 1;"/><path class="point plotly-customdata" transform="translate(190.43,161.76)" d="M4.5,0A4.5,4.5 0 1,1 0,-4.5A4.5,4.5 0 0,1 4.5,0Z" style="opacity: 0.85; stroke-width: 0.3px; fill: rgb(175, 226, 170); fill-opacity: 1; stroke: rgb(0, 0, 0); stroke-opacity: 1;"/><path class="point plotly-customdata" transform="translate(231.93,222.08)" d="M4.5,0A4.5,4.5 0 1,1 0,-4.5A4.5,4.5 0 0,1 4.5,0Z" style="opacity: 0.85; stroke-width: 0.3px; fill: rgb(174, 225, 170); fill-opacity: 1; stroke: rgb(0, 0, 0); stroke-opacity: 1;"/><path class="point plotly-customdata" transform="translate(158.65,121.38)" d="M4.5,0A4.5,4.5 0 1,1 0,-4.5A4.5,4.5 0 0,1 4.5,0Z" style="opacity: 0.85; stroke-width: 0.3px; fill: rgb(173, 225, 170); fill-opacity: 1; stroke: rgb(0, 0, 0); stroke-opacity: 1;"/><path class="point plotly-customdata" transform="translate(102.44,215.27)" d="M4.5,0A4.5,4.5 0 1,1 0,-4.5A4.5,4.5 0 0,1 4.5,0Z" style="opacity: 0.85; stroke-width: 0.3px; fill: rgb(171, 224, 169); fill-opacity: 1; stroke: rgb(0, 0, 0); stroke-opacity: 1;"/><path class="point plotly-customdata" transform="translate(177.84,188.29)" d="M4.5,0A4.5,4.5 0 1,1 0,-4.5A4.5,4.5 0 0,1 4.5,0Z" style="opacity: 0.85; stroke-width: 0.3px; fill: rgb(168, 223, 168); fill-opacity: 1; stroke: rgb(0, 0, 0); stroke-opacity: 1;"/><path class="point plotly-customdata" transform="translate(110.82,220.75)" d="M4.5,0A4.5,4.5 0 1,1 0,-4.5A4.5,4.5 0 0,1 4.5,0Z" style="opacity: 0.85; stroke-width: 0.3px; fill: rgb(159, 220, 166); fill-opacity: 1; stroke: rgb(0, 0, 0); stroke-opacity: 1;"/><path class="point plotly-customdata" transform="translate(157.75,127.88)" d="M4.5,0A4.5,4.5 0 1,1 0,-4.5A4.5,4.5 0 0,1 4.5,0Z" style="opacity: 0.85; stroke-width: 0.3px; fill: rgb(154, 218, 165); fill-opacity: 1; stroke: rgb(0, 0, 0); stroke-opacity: 1;"/><path class="point plotly-customdata" transform="translate(235.65,197.8)" d="M4.5,0A4.5,4.5 0 1,1 0,-4.5A4.5,4.5 0 0,1 4.5,0Z" style="opacity: 0.85; stroke-width: 0.3px; fill: rgb(150, 216, 165); fill-opacity: 1; stroke: rgb(0, 0, 0); stroke-opacity: 1;"/><path class="point plotly-customdata" transform="translate(73.59,208.39)" d="M4.5,0A4.5,4.5 0 1,1 0,-4.5A4.5,4.5 0 0,1 4.5,0Z" style="opacity: 0.85; stroke-width: 0.3px; fill: rgb(147, 215, 165); fill-opacity: 1; stroke: rgb(0, 0, 0); stroke-opacity: 1;"/><path class="point plotly-customdata" transform="translate(151.71,317.52)" d="M4.5,0A4.5,4.5 0 1,1 0,-4.5A4.5,4.5 0 0,1 4.5,0Z" style="opacity: 0.85; stroke-width: 0.3px; fill: rgb(135, 210, 164); fill-opacity: 1; stroke: rgb(0, 0, 0); stroke-opacity: 1;"/><path class="point plotly-customdata" transform="translate(169.61,193.8)" d="M4.5,0A4.5,4.5 0 1,1 0,-4.5A4.5,4.5 0 0,1 4.5,0Z" style="opacity: 0.85; stroke-width: 0.3px; fill: rgb(124, 206, 164); fill-opacity: 1; stroke: rgb(0, 0, 0); stroke-opacity: 1;"/><path class="point plotly-customdata" transform="translate(216.67,192.02)" d="M4.5,0A4.5,4.5 0 1,1 0,-4.5A4.5,4.5 0 0,1 4.5,0Z" style="opacity: 0.85; stroke-width: 0.3px; fill: rgb(118, 204, 163); fill-opacity: 1; stroke: rgb(0, 0, 0); stroke-opacity: 1;"/><path class="point plotly-customdata" transform="translate(217.73,190.8)" d="M4.5,0A4.5,4.5 0 1,1 0,-4.5A4.5,4.5 0 0,1 4.5,0Z" style="opacity: 0.85; stroke-width: 0.3px; fill: rgb(117, 203, 163); fill-opacity: 1; stroke: rgb(0, 0, 0); stroke-opacity: 1;"/><path class="point plotly-customdata" transform="translate(209.14,184.24)" d="M4.5,0A4.5,4.5 0 1,1 0,-4.5A4.5,4.5 0 0,1 4.5,0Z" style="opacity: 0.85; stroke-width: 0.3px; fill: rgb(112, 201, 163); fill-opacity: 1; stroke: rgb(0, 0, 0); stroke-opacity: 1;"/><path class="point plotly-customdata" transform="translate(209.16,179.02)" d="M4.5,0A4.5,4.5 0 1,1 0,-4.5A4.5,4.5 0 0,1 4.5,0Z" style="opacity: 0.85; stroke-width: 0.3px; fill: rgb(109, 199, 163); fill-opacity: 1; stroke: rgb(0, 0, 0); stroke-opacity: 1;"/><path class="point plotly-customdata" transform="translate(179.36,229.38)" d="M4.5,0A4.5,4.5 0 1,1 0,-4.5A4.5,4.5 0 0,1 4.5,0Z" style="opacity: 0.85; stroke-width: 0.3px; fill: rgb(108, 198, 163); fill-opacity: 1; stroke: rgb(0, 0, 0); stroke-opacity: 1;"/><path class="point plotly-customdata" transform="translate(192.18,224.2)" d="M4.5,0A4.5,4.5 0 1,1 0,-4.5A4.5,4.5 0 0,1 4.5,0Z" style="opacity: 0.85; stroke-width: 0.3px; fill: rgb(103, 193, 163); fill-opacity: 1; stroke: rgb(0, 0, 0); stroke-opacity: 1;"/><path class="point plotly-customdata" transform="translate(138.98,324.56)" d="M4.5,0A4.5,4.5 0 1,1 0,-4.5A4.5,4.5 0 0,1 4.5,0Z" style="opacity: 0.85; stroke-width: 0.3px; fill: rgb(101, 191, 163); fill-opacity: 1; stroke: rgb(0, 0, 0); stroke-opacity: 1;"/><path class="point plotly-customdata" transform="translate(158.92,161.02)" d="M4.5,0A4.5,4.5 0 1,1 0,-4.5A4.5,4.5 0 0,1 4.5,0Z" style="opacity: 0.85; stroke-width: 0.3px; fill: rgb(100, 190, 163); fill-opacity: 1; stroke: rgb(0, 0, 0); stroke-opacity: 1;"/><path class="point plotly-customdata" transform="translate(218.29,164.03)" d="M4.5,0A4.5,4.5 0 1,1 0,-4.5A4.5,4.5 0 0,1 4.5,0Z" style="opacity: 0.85; stroke-width: 0.3px; fill: rgb(99, 189, 163); fill-opacity: 1; stroke: rgb(0, 0, 0); stroke-opacity: 1;"/><path class="point plotly-customdata" transform="translate(196.26,154.18)" d="M4.5,0A4.5,4.5 0 1,1 0,-4.5A4.5,4.5 0 0,1 4.5,0Z" style="opacity: 0.85; stroke-width: 0.3px; fill: rgb(99, 189, 163); fill-opacity: 1; stroke: rgb(0, 0, 0); stroke-opacity: 1;"/><path class="point plotly-customdata" transform="translate(99.07,210.41)" d="M4.5,0A4.5,4.5 0 1,1 0,-4.5A4.5,4.5 0 0,1 4.5,0Z" style="opacity: 0.85; stroke-width: 0.3px; fill: rgb(98, 188, 163); fill-opacity: 1; stroke: rgb(0, 0, 0); stroke-opacity: 1;"/><path class="point plotly-customdata" transform="translate(137.47,326.82)" d="M4.5,0A4.5,4.5 0 1,1 0,-4.5A4.5,4.5 0 0,1 4.5,0Z" style="opacity: 0.85; stroke-width: 0.3px; fill: rgb(97, 187, 163); fill-opacity: 1; stroke: rgb(0, 0, 0); stroke-opacity: 1;"/><path class="point plotly-customdata" transform="translate(198.29,206.46)" d="M4.5,0A4.5,4.5 0 1,1 0,-4.5A4.5,4.5 0 0,1 4.5,0Z" style="opacity: 0.85; stroke-width: 0.3px; fill: rgb(85, 175, 163); fill-opacity: 1; stroke: rgb(0, 0, 0); stroke-opacity: 1;"/><path class="point plotly-customdata" transform="translate(235.04,206.99)" d="M4.5,0A4.5,4.5 0 1,1 0,-4.5A4.5,4.5 0 0,1 4.5,0Z" style="opacity: 0.85; stroke-width: 0.3px; fill: rgb(81, 164, 161); fill-opacity: 1; stroke: rgb(0, 0, 0); stroke-opacity: 1;"/><path class="point plotly-customdata" transform="translate(221.88,188.39)" d="M4.5,0A4.5,4.5 0 1,1 0,-4.5A4.5,4.5 0 0,1 4.5,0Z" style="opacity: 0.85; stroke-width: 0.3px; fill: rgb(75, 150, 159); fill-opacity: 1; stroke: rgb(0, 0, 0); stroke-opacity: 1;"/><path class="point plotly-customdata" transform="translate(193.28,170.62)" d="M4.5,0A4.5,4.5 0 1,1 0,-4.5A4.5,4.5 0 0,1 4.5,0Z" style="opacity: 0.85; stroke-width: 0.3px; fill: rgb(71, 138, 157); fill-opacity: 1; stroke: rgb(0, 0, 0); stroke-opacity: 1;"/><path class="point plotly-customdata" transform="translate(235.8,13.4)" d="M4.5,0A4.5,4.5 0 1,1 0,-4.5A4.5,4.5 0 0,1 4.5,0Z" style="opacity: 0.85; stroke-width: 0.3px; fill: rgb(68, 130, 155); fill-opacity: 1; stroke: rgb(0, 0, 0); stroke-opacity: 1;"/><path class="point plotly-customdata" transform="translate(60.16,206.58)" d="M4.5,0A4.5,4.5 0 1,1 0,-4.5A4.5,4.5 0 0,1 4.5,0Z" style="opacity: 0.85; stroke-width: 0.3px; fill: rgb(67, 127, 154); fill-opacity: 1; stroke: rgb(0, 0, 0); stroke-opacity: 1;"/><path class="point plotly-customdata" transform="translate(147.32,224.2)" d="M4.5,0A4.5,4.5 0 1,1 0,-4.5A4.5,4.5 0 0,1 4.5,0Z" style="opacity: 0.85; stroke-width: 0.3px; fill: rgb(66, 124, 154); fill-opacity: 1; stroke: rgb(0, 0, 0); stroke-opacity: 1;"/><path class="point plotly-customdata" transform="translate(135.02,326.76)" d="M4.5,0A4.5,4.5 0 1,1 0,-4.5A4.5,4.5 0 0,1 4.5,0Z" style="opacity: 0.85; stroke-width: 0.3px; fill: rgb(66, 123, 153); fill-opacity: 1; stroke: rgb(0, 0, 0); stroke-opacity: 1;"/><path class="point plotly-customdata" transform="translate(69,204.75)" d="M4.5,0A4.5,4.5 0 1,1 0,-4.5A4.5,4.5 0 0,1 4.5,0Z" style="opacity: 0.85; stroke-width: 0.3px; fill: rgb(63, 113, 151); fill-opacity: 1; stroke: rgb(0, 0, 0); stroke-opacity: 1;"/><path class="point plotly-customdata" transform="translate(141.4,328.02)" d="M4.5,0A4.5,4.5 0 1,1 0,-4.5A4.5,4.5 0 0,1 4.5,0Z" style="opacity: 0.85; stroke-width: 0.3px; fill: rgb(62, 110, 150); fill-opacity: 1; stroke: rgb(0, 0, 0); stroke-opacity: 1;"/><path class="point plotly-customdata" transform="translate(197.88,209.39)" d="M4.5,0A4.5,4.5 0 1,1 0,-4.5A4.5,4.5 0 0,1 4.5,0Z" style="opacity: 0.85; stroke-width: 0.3px; fill: rgb(62, 89, 145); fill-opacity: 1; stroke: rgb(0, 0, 0); stroke-opacity: 1;"/><path class="point plotly-customdata" transform="translate(233.49,12.54)" d="M4.5,0A4.5,4.5 0 1,1 0,-4.5A4.5,4.5 0 0,1 4.5,0Z" style="opacity: 0.85; stroke-width: 0.3px; fill: rgb(62, 80, 141); fill-opacity: 1; stroke: rgb(0, 0, 0); stroke-opacity: 1;"/><path class="point plotly-customdata" transform="translate(148.93,152.96)" d="M4.5,0A4.5,4.5 0 1,1 0,-4.5A4.5,4.5 0 0,1 4.5,0Z" style="opacity: 0.85; stroke-width: 0.3px; fill: rgb(63, 69, 127); fill-opacity: 1; stroke: rgb(0, 0, 0); stroke-opacity: 1;"/><path class="point plotly-customdata" transform="translate(232.28,14.99)" d="M4.5,0A4.5,4.5 0 1,1 0,-4.5A4.5,4.5 0 0,1 4.5,0Z" style="opacity: 0.85; stroke-width: 0.3px; fill: rgb(63, 58, 111); fill-opacity: 1; stroke: rgb(0, 0, 0); stroke-opacity: 1;"/><path class="point plotly-customdata" transform="translate(249.18,6.96)" d="M4.5,0A4.5,4.5 0 1,1 0,-4.5A4.5,4.5 0 0,1 4.5,0Z" style="opacity: 0.85; stroke-width: 0.3px; fill: rgb(39, 26, 44); fill-opacity: 1; stroke: rgb(0, 0, 0); stroke-opacity: 1;"/></g><g class="text"/></g></g></g><g class="overplot"/><path class="xlines-above crisp" d="M20.5,377.25H316" style="fill: none; stroke-width: 0.5px; stroke: rgb(0, 0, 0); stroke-opacity: 1;"/><path class="ylines-above crisp" d="M20.75,20V377" style="fill: none; stroke-width: 0.5px; stroke: rgb(0, 0, 0); stroke-opacity: 1;"/><g class="overlines-above"/><g class="xaxislayer-above"><path class="xtick ticks crisp" d="M0,377.5v5" transform="translate(21,0)" style="stroke: rgb(68, 68, 68); stroke-opacity: 1; stroke-width: 1px;"/><path class="xtick ticks crisp" d="M0,377.5v5" transform="translate(119.33,0)" style="stroke: rgb(68, 68, 68); stroke-opacity: 1; stroke-width: 1px;"/><path class="xtick ticks crisp" d="M0,377.5v5" transform="translate(217.67,0)" style="stroke: rgb(68, 68, 68); stroke-opacity: 1; stroke-width: 1px;"/><path class="xtick ticks crisp" d="M0,377.5v5" transform="translate(316,0)" style="stroke: rgb(68, 68, 68); stroke-opacity: 1; stroke-width: 1px;"/><g class="xtick"><text text-anchor="middle" x="0" y="396.9" transform="translate(21,0)" style="font-family: Helvetica; font-size: 12px; fill: rgb(0, 0, 0); fill-opacity: 1; white-space: pre; opacity: 1;">6</text></g><g class="xtick"><text text-anchor="middle" x="0" y="396.9" style="font-family: Helvetica; font-size: 12px; fill: rgb(0, 0, 0); fill-opacity: 1; white-space: pre; opacity: 1;" transform="translate(119.33,0)">9</text></g><g class="xtick"><text text-anchor="middle" x="0" y="396.9" style="font-family: Helvetica; font-size: 12px; fill: rgb(0, 0, 0); fill-opacity: 1; white-space: pre; opacity: 1;" transform="translate(217.67,0)">12</text></g><g class="xtick"><text text-anchor="middle" x="0" y="396.9" style="font-family: Helvetica; font-size: 12px; fill: rgb(0, 0, 0); fill-opacity: 1; white-space: pre; opacity: 1;" transform="translate(316,0)">15</text></g></g><g class="yaxislayer-above"><path class="ytick ticks crisp" d="M20.5,0h-5" transform="translate(0,377)" style="stroke: rgb(68, 68, 68); stroke-opacity: 1; stroke-width: 1px;"/><path class="ytick ticks crisp" d="M20.5,0h-5" transform="translate(0,287.75)" style="stroke: rgb(68, 68, 68); stroke-opacity: 1; stroke-width: 1px;"/><path class="ytick ticks crisp" d="M20.5,0h-5" transform="translate(0,198.5)" style="stroke: rgb(68, 68, 68); stroke-opacity: 1; stroke-width: 1px;"/><path class="ytick ticks crisp" d="M20.5,0h-5" transform="translate(0,109.25)" style="stroke: rgb(68, 68, 68); stroke-opacity: 1; stroke-width: 1px;"/><path class="ytick ticks crisp" d="M20.5,0h-5" transform="translate(0,20)" style="stroke: rgb(68, 68, 68); stroke-opacity: 1; stroke-width: 1px;"/><g class="ytick"><text text-anchor="end" x="13.1" y="4.199999999999999" transform="translate(0,377)" style="font-family: Helvetica; font-size: 12px; fill: rgb(0, 0, 0); fill-opacity: 1; white-space: pre; opacity: 1;">3</text></g><g class="ytick"><text text-anchor="end" x="13.1" y="4.199999999999999" style="font-family: Helvetica; font-size: 12px; fill: rgb(0, 0, 0); fill-opacity: 1; white-space: pre; opacity: 1;" transform="translate(0,287.75)">6</text></g><g class="ytick"><text text-anchor="end" x="13.1" y="4.199999999999999" style="font-family: Helvetica; font-size: 12px; fill: rgb(0, 0, 0); fill-opacity: 1; white-space: pre; opacity: 1;" transform="translate(0,198.5)">9</text></g><g class="ytick"><text text-anchor="end" x="13.1" y="4.199999999999999" style="font-family: Helvetica; font-size: 12px; fill: rgb(0, 0, 0); fill-opacity: 1; white-space: pre; opacity: 1;" transform="translate(0,109.25)">12</text></g><g class="ytick"><text text-anchor="end" x="13.1" y="4.199999999999999" style="font-family: Helvetica; font-size: 12px; fill: rgb(0, 0, 0); fill-opacity: 1; white-space: pre; opacity: 1;" transform="translate(0,20)">15</text></g></g><g class="overaxes-above"/></g></g><g class="polarlayer"/><g class="smithlayer"/><g class="ternarylayer"/><g class="geolayer"/><g class="funnelarealayer"/><g class="pielayer"/><g class="iciclelayer"/><g class="treemaplayer"/><g class="sunburstlayer"/><g class="glimages"/><defs id="topdefs-e4bfde"><g class="clips"/></defs><g class="layer-above"><g class="imagelayer"/><g class="shapelayer"/></g><g class="infolayer"><g class="cbdf66da colorbar" transform="translate(21,20)"><rect class="cbbg" x="300.5" y="0" width="97.734375" height="358" style="fill: rgb(0, 0, 0); fill-opacity: 0; stroke: rgb(68, 68, 68); stroke-opacity: 1; stroke-width: 0;"/><g class="cbfills" transform="translate(0,31)"><rect class="cbfill gradient_filled" style="fill: url('#ge4bfde-cbdf66da');" x="311" y="0" width="30" height="316"/></g><g class="cblines" transform="translate(0,31)"/><g class="cbaxis crisp" transform="translate(0,-20)"><g class="ycbdf66datick"><text text-anchor="start" x="344.4" y="4.199999999999999" transform="translate(0,367)" style="font-family: Helvetica; font-size: 12px; fill: rgb(0, 0, 0); fill-opacity: 1; white-space: pre; opacity: 1;">2</text></g><g class="ycbdf66datick"><text text-anchor="start" x="344.4" y="4.199999999999999" style="font-family: Helvetica; font-size: 12px; fill: rgb(0, 0, 0); fill-opacity: 1; white-space: pre; opacity: 1;" transform="translate(0,314.33)">3</text></g><g class="ycbdf66datick"><text text-anchor="start" x="344.4" y="4.199999999999999" style="font-family: Helvetica; font-size: 12px; fill: rgb(0, 0, 0); fill-opacity: 1; white-space: pre; opacity: 1;" transform="translate(0,261.67)">4</text></g><g class="ycbdf66datick"><text text-anchor="start" x="344.4" y="4.199999999999999" style="font-family: Helvetica; font-size: 12px; fill: rgb(0, 0, 0); fill-opacity: 1; white-space: pre; opacity: 1;" transform="translate(0,209)">5</text></g><g class="ycbdf66datick"><text text-anchor="start" x="344.4" y="4.199999999999999" style="font-family: Helvetica; font-size: 12px; fill: rgb(0, 0, 0); fill-opacity: 1; white-space: pre; opacity: 1;" transform="translate(0,156.33)">6</text></g><g class="ycbdf66datick"><text text-anchor="start" x="344.4" y="4.199999999999999" style="font-family: Helvetica; font-size: 12px; fill: rgb(0, 0, 0); fill-opacity: 1; white-space: pre; opacity: 1;" transform="translate(0,103.67000000000002)">7</text></g><g class="ycbdf66datick"><text text-anchor="start" x="344.4" y="4.199999999999999" style="font-family: Helvetica; font-size: 12px; fill: rgb(0, 0, 0); fill-opacity: 1; white-space: pre; opacity: 1;" transform="translate(0,51.00000000000001)">8</text></g></g><g class="cbtitleunshift" transform="translate(-21,-20)"><g class="cbtitle" transform="translate(-0.5,-0.5)"><text class="ycbdf66datitle" x="331.9" y="43.5" text-anchor="start" style="font-family: Helvetica; font-size: 14px; fill: rgb(0, 0, 0); opacity: 1; font-weight: normal; white-space: pre;">frequency %</text></g></g><rect class="cboutline" x="311" y="31" width="30" height="316" style="stroke: rgb(68, 68, 68); stroke-opacity: 1; fill: none; stroke-width: 1;"/></g><g class="g-gtitle"/><g class="g-xtitle"/><g class="g-ytitle"/></g></svg>