<svg class="main-svg" xmlns="http://www.w3.org/2000/svg" xmlns:xlink="http://www.w3.org/1999/xlink" width="500" height="300" style="" viewBox="0 0 500 300"><rect x="0" y="0" width="500" height="300" style="fill: rgb(255, 255, 255); fill-opacity: 1;"/><defs id="defs-6801e1"><g class="clips"><clipPath id="clip6801e1xyplot" class="plotclip"><rect width="454" height="232"/></clipPath><clipPath class="axesclip" id="clip6801e1x"><rect x="46" y="0" width="454" height="300"/></clipPath><clipPath class="axesclip" id="clip6801e1y"><rect x="0" y="20" width="500" height="232"/></clipPath><clipPath class="axesclip" id="clip6801e1xy"><rect x="46" y="20" width="454" height="232"/></clipPath></g><g class="gradients"/><g class="patterns"/></defs><g class="bglayer"><rect class="bg" x="46" y="20" width="454" height="232" style="fill: rgb(0, 0, 0); fill-opacity: 0; stroke-width: 0;"/></g><g class="layer-below"><g class="imagelayer"/><g class="shapelayer"/></g><g class="cartesianlayer"><g class="subplot xy"><g class="layer-subplot"><g class="shapelayer"/><g class="imagelayer"/></g><g class="minor-gridlayer"><g class="x"/><g class="y"/></g><g class="gridlayer"><g class="x"/><g class="y"/></g><g class="zerolinelayer"/><g class="layer-between"><g class="shapelayer"/><g class="imagelayer"/></g><path class="xlines-below"/><path class="ylines-below"/><g class="overlines-below"/><g class="xaxislayer-below"/><g class="yaxislayer-below"/><g class="overaxes-below"/><g class="plot" transform="translate(46,20)" clip-path="url(#clip6801e1xyplot)"><g class="boxlayer mlayer"><g class="trace boxes" style="opacity: 0.8;"><path class="box" d="M15.32,203.17H33.86M15.32,209.75H33.86V195.28H15.32ZM24.59,209.75V212.78M24.59,195.28V165.84M19.96,212.78H29.23M19.96,165.84H29.23" style="vector-effect: none; stroke-width: 0.5px; stroke: rgb(0, 0, 0); stroke-opacity: 1; fill: rgb(155, 191, 229); fill-opacity: 1;"/><path class="box" d="M90.99,214.64H109.53M90.99,219.06H109.53V204.46H90.99ZM100.26,219.06V226.88M100.26,204.46V169.06M95.62,226.88H104.89M95.62,169.06H104.89" style="vector-effect: none; stroke-width: 0.5px; stroke: rgb(0, 0, 0); stroke-opacity: 1; fill: rgb(155, 191, 229); fill-opacity: 1;"/><path class="box" d="M166.66,201.26H185.19M166.66,215.26H185.19V161H166.66ZM175.93,215.26V220.81M175.93,161V110.33M171.29,220.81H180.56M171.29,110.33H180.56" style="vector-effect: none; stroke-width: 0.5px; stroke: rgb(0, 0, 0); stroke-opacity: 1; fill: rgb(155, 191, 229); fill-opacity: 1;"/><path class="box" d="M242.32,206.12H260.86M242.32,210.51H260.86V187.01H242.32ZM251.59,210.51V226.92M251.59,187.01V164.96M246.96,226.92H256.23M246.96,164.96H256.23" style="vector-effect: none; stroke-width: 0.5px; stroke: rgb(0, 0, 0); stroke-opacity: 1; fill: rgb(155, 191, 229); fill-opacity: 1;"/><path class="box" d="M317.99,197.68H336.53M317.99,206.94H336.53V188.73H317.99ZM327.26,206.94V219.21M327.26,188.73V159.84M322.62,219.21H331.89M322.62,159.84H331.89" style="vector-effect: none; stroke-width: 0.5px; stroke: rgb(0, 0, 0); stroke-opacity: 1; fill: rgb(155, 191, 229); fill-opacity: 1;"/><path class="box" d="M393.66,203.95H412.19M393.66,213.62H412.19V198.38H393.66ZM402.93,213.62V221.85M402.93,198.38V154.55M398.29,221.85H407.56M398.29,154.55H407.56" style="vector-effect: none; stroke-width: 0.5px; stroke: rgb(0, 0, 0); stroke-opacity: 1; fill: rgb(155, 191, 229); fill-opacity: 1;"/></g><g class="trace boxes" style="opacity: 0.8;"><path class="box" d="M41.81,127.37H60.34M41.81,141.7H60.34V118.89H41.81ZM51.08,141.7V161.03M51.08,118.89V45.81M46.44,161.03H55.71M46.44,45.81H55.71" style="vector-effect: none; stroke-width: 0.5px; stroke: rgb(0, 0, 0); stroke-opacity: 1; fill: rgb(186, 105, 190); fill-opacity: 1;"/><path class="box" d="M117.47,199.33H136.01M117.47,207.72H136.01V193.94H117.47ZM126.74,207.72V221.36M126.74,193.94V139.87M122.11,221.36H131.38M122.11,139.87H131.38" style="vector-effect: none; stroke-width: 0.5px; stroke: rgb(0, 0, 0); stroke-opacity: 1; fill: rgb(186, 105, 190); fill-opacity: 1;"/><path class="box" d="M193.14,213.25H211.68M193.14,215.49H211.68V182.65H193.14ZM202.41,215.49V221.35M202.41,182.65V161.68M197.77,221.35H207.04M197.77,161.68H207.04" style="vector-effect: none; stroke-width: 0.5px; stroke: rgb(0, 0, 0); stroke-opacity: 1; fill: rgb(186, 105, 190); fill-opacity: 1;"/><path class="box" d="M268.81,178.68H287.34M268.81,196.24H287.34V150.45H268.81ZM278.08,196.24V221.63M278.08,150.45V99.04M273.44,221.63H282.71M273.44,99.04H282.71" style="vector-effect: none; stroke-width: 0.5px; stroke: rgb(0, 0, 0); stroke-opacity: 1; fill: rgb(186, 105, 190); fill-opacity: 1;"/><path class="box" d="M344.47,193.65H363.01M344.47,202.24H363.01V186.62H344.47ZM353.74,202.24V221.64M353.74,186.62V161.88M349.11,221.64H358.38M349.11,161.88H358.38" style="vector-effect: none; stroke-width: 0.5px; stroke: rgb(0, 0, 0); stroke-opacity: 1; fill: rgb(186, 105, 190); fill-opacity: 1;"/><path class="box" d="M420.14,206.34H438.68M420.14,211.59H438.68V195.96H420.14ZM429.41,211.59V216.75M429.41,195.96V152.1M424.77,216.75H434.04M424.77,152.1H434.04" style="vector-effect: none; stroke-width: 0.5px; stroke: rgb(0, 0, 0); stroke-opacity: 1; fill: rgb(186, 105, 190); fill-opacity: 1;"/></g></g></g><g class="overplot"/><path class="xlines-above crisp" d="M45.5,252.25H500" style="fill: none; stroke-width: 0.5px; stroke: rgb(0, 0, 0); stroke-opacity: 1;"/><path class="ylines-above crisp" d="M45.75,20V252" style="fill: none; stroke-width: 0.5px; stroke: rgb(0, 0, 0); stroke-opacity: 1;"/><g class="overlines-above"/><g class="xaxislayer-above"><path class="xtick ticks crisp" d="M0,252.5v5" transform="translate(83.83,0)" style="stroke: rgb(68, 68, 68); stroke-opacity: 1; stroke-width: 1px;"/><path class="xtick ticks crisp" d="M0,252.5v5" transform="translate(159.5,0)" style="stroke: rgb(68, 68, 68); stroke-opacity: 1; stroke-width: 1px;"/><path class="xtick ticks crisp" d="M0,252.5v5" transform="translate(235.17,0)" style="stroke: rgb(68, 68, 68); stroke-opacity: 1; stroke-width: 1px;"/><path class="xtick ticks crisp" d="M0,252.5v5" transform="translate(310.83,0)" style="stroke: rgb(68, 68, 68); stroke-opacity: 1; stroke-width: 1px;"/><path class="xtick ticks crisp" d="M0,252.5v5" transform="translate(386.5,0)" style="stroke: rgb(68, 68, 68); stroke-opacity: 1; stroke-width: 1px;"/><path class="xtick ticks crisp" d="M0,252.5v5" transform="translate(462.17,0)" style="stroke: rgb(68, 68, 68); stroke-opacity: 1; stroke-width: 1px;"/><g class="xtick"><text text-anchor="middle" x="0" y="271.9" transform="translate(83.83,0)" style="font-family: Helvetica; font-size: 12px; fill: rgb(0, 0, 0); fill-opacity: 1; white-space: pre; opacity: 1;">0</text></g><g class="xtick"><text text-anchor="middle" x="0" y="271.9" style="font-family: Helvetica; font-size: 12px; fill: rgb(0, 0, 0); fill-opacity: 1; white-space: pre; opacity: 1;" transform="translate(159.5,0)">1</text></g><g class="xtick"><text text-anchor="middle" x="0" y="271.9" style="font-family: Helvetica; font-size: 12px; fill: rgb(0, 0, 0); fill-opacity: 1; white-space: pre; opacity: 1;" transform="translate(235.17,0)">2</text></g><g class="xtick"><text text-anchor="middle" x="0" y="271.9" style="font-family: Helvetica; font-size: 12px; fill: rgb(0, 0, 0); fill-opacity: 1; white-space: pre; opacity: 1;" transform="translate(310.83,0)">3</text></g><g class="xtick"><text text-anchor="middle" x="0" y="271.9" style="font-family: Helvetica; font-size: 12px; fill: rgb(0, 0, 0); fill-opacity: 1; white-space: pre; opacity: 1;" transform="translate(386.5,0)">4</text></g><g class="xtick"><text text-anchor="middle" x="0" y="271.9" style="font-family: Helvetica; font-size: 12px; fill: rgb(0, 0, 0); fill-opacity: 1; white-space: pre; opacity: 1;" transform="translate(462.17,0)">5</text></g></g><g class="yaxislayer-above"><path class="ytick ticks crisp" d="M45.5,0h-5" transform="translate(0,252)" style="stroke: rgb(68, 68, 68); stroke-opacity: 1; stroke-width: 1px;"/><path class="ytick ticks crisp" d="M45.5,0h-5" transform="translate(0,194)" style="stroke: rgb(68, 68, 68); stroke-opacity: 1; stroke-width: 1px;"/><path class="ytick ticks crisp" d="M45.5,0h-5" transform="translate(0,136)" style="stroke: rgb(68, 68, 68); stroke-opacity: 1; stroke-width: 1px;"/><path class="ytick ticks crisp" d="M45.5,0h-5" transform="translate(0,78)" style="stroke: rgb(68, 68, 68); stroke-opacity: 1; stroke-width: 1px;"/><path class="ytick ticks crisp" d="M45.5,0h-5" transform="translate(0,20)" style="stroke: rgb(68, 68, 68); stroke-opacity: 1; stroke-width: 1px;"/><g class="ytick"><text text-anchor="end" x="38.1" y="4.199999999999999" transform="translate(0,252)" style="font-family: Helvetica; font-size: 12px; fill: rgb(0, 0, 0); fill-opacity: 1; white-space: pre; opacity: 1;">0</text></g><g class="ytick"><text text-anchor="end" x="38.1" y="4.199999999999999" style="font-family: Helvetica; font-size: 12px; fill: rgb(0, 0, 0); fill-opacity: 1; white-space: pre; opacity: 1;" transform="translate(0,194)">5</text></g><g class="ytick"><text text-anchor="end" x="38.1" y="4.199999999999999" style="font-family: Helvetica; font-size: 12px; fill: rgb(0, 0, 0); fill-opacity: 1; white-space: pre; opacity: 1;" transform="translate(0,136)">10</text></g><g class="ytick"><text text-anchor="end" x="38.1" y="4.199999999999999" style="font-family: Helvetica; font-size: 12px; fill: rgb(0, 0, 0); fill-opacity: 1; white-space: pre; opacity: 1;" transform="translate(0,78)">15</text></g><g class="ytick"><text text-anchor="end" x="38.1" y="4.199999999999999" style="font-family: Helvetica; font-size: 12px; fill: rgb(0, 0, 0); fill-opacity: 1; white-space: pre; opacity: 1;" transform="translate(0,20)">20</text></g></g><g class="overaxes-above"/></g></g><g class="polarlayer"/><g class="smithlayer"/><g class="ternarylayer"/><g class="geolayer"/><g class="funnelarealayer"/><g class="pielayer"/><g class="iciclelayer"/><g class="treemaplayer"/><g class="sunburstlayer"/><g class="glimages"/><defs id="topdefs-6801e1"><g class="clips"/></defs><g class="layer-above"><g class="imagelayer"/><g class="shapelayer"/></g><g class="infolayer"><g class="g-gtitle"/><g class="g-xtitle" transform="translate(0,-2.4562500000000114)"><text class="xtitle" x="273" y="299.45625" text-anchor="middle" style="font-family: Helvetica; font-size: 14px; fill: rgb(0, 0, 0); opacity: 1; font-weight: normal; white-space: pre;">cluster</text></g><g class="g-ytitle" transform="translate(12.7998046875,0)"><text class="ytitle" transform="rotate(-90,0.20000000000000284,136)" x="0.20000000000000284" y="136" text-anchor="middle" style="font-family: Helvetica; font-size: 14px; fill: rgb(0, 0, 0); opacity: 1; font-weight: normal; white-space: pre;">frequency %</text></g></g></svg>